M48
; DRILL file {KiCad 5.1.5+dfsg1-2build2} date Sun 29 Aug 2021 11:59:30 AM CEST
; FORMAT={-:-/ absolute / metric / decimal}
; #@! TF.CreationDate,2021-08-29T11:59:30+02:00
; #@! TF.GenerationSoftware,Kicad,Pcbnew,5.1.5+dfsg1-2build2
FMAT,2
METRIC
T1C0.800
T2C0.991
T3C1.500
T4C3.200
T5C1.750
T6C4.000
%
G90
G05
T1
X51.816Y-50.8
X67.056Y-50.8
X69.342Y-74.676
X69.342Y-82.296
X156.439Y-69.037
X171.679Y-69.037
X111.912Y-131.597
X111.912Y-139.217
X50.165Y-112.903
X50.165Y-120.523
X197.917Y-88.748
X213.157Y-88.748
X135.788Y-126.898
X151.028Y-126.898
X154.965Y-131.648
X154.965Y-139.268
X88.29Y-150.444
X88.29Y-158.064
X112.09Y-150.825
X112.09Y-158.445
X47.142Y-74.676
X47.142Y-82.296
X71.069Y-69.063
X86.309Y-69.063
X142.265Y-145.923
X157.505Y-145.923
X137.643Y-68.885
X152.883Y-68.885
X192.989Y-93.624
X192.989Y-101.244
X195.377Y-50.8
X210.617Y-50.8
X215.646Y-126.848
X230.886Y-126.848
X113.64Y-50.749
X128.88Y-50.749
X154.026Y-126.848
X169.266Y-126.848
X132.482Y-164.186
X134.482Y-164.186
X136.482Y-164.186
X138.482Y-164.186
X140.482Y-164.186
X142.482Y-164.186
X144.482Y-164.186
X146.482Y-164.186
X155.067Y-74.041
X155.067Y-81.661
X192.786Y-54.864
X192.786Y-62.484
X92.634Y-88.824
X107.874Y-88.824
X67.818Y-88.9
X83.058Y-88.9
X214.427Y-50.749
X229.667Y-50.749
X192.659Y-150.698
X192.659Y-158.318
X140.868Y-150.749
X140.868Y-158.369
X70.764Y-107.823
X86.004Y-107.823
X154.686Y-54.864
X154.686Y-62.484
X193.167Y-73.914
X193.167Y-81.534
X170.459Y-146.024
X185.699Y-146.024
X135.814Y-112.598
X135.814Y-120.218
X112.268Y-55.118
X112.268Y-62.738
X69.24Y-112.598
X69.24Y-120.218
X67.412Y-126.898
X82.652Y-126.898
X71.374Y-50.698
X86.614Y-50.698
X88.392Y-55.118
X88.392Y-62.738
X175.311Y-68.885
X190.551Y-68.885
X113.386Y-126.848
X128.626Y-126.848
X51.613Y-107.925
X66.853Y-107.925
X50.165Y-131.826
X50.165Y-139.446
X173.736Y-55.118
X173.736Y-62.738
X46.431Y-101.27
X46.431Y-103.27
X46.431Y-105.27
X46.431Y-107.27
X46.431Y-109.27
X46.431Y-111.27
X46.431Y-113.27
X46.431Y-115.27
X69.215Y-131.826
X69.215Y-139.446
X111.989Y-93.599
X111.989Y-101.219
X113.868Y-145.999
X129.108Y-145.999
X47.142Y-84.938
X47.142Y-92.558
X89.306Y-69.063
X104.546Y-69.063
X174.015Y-112.471
X174.015Y-120.091
X194.437Y-68.834
X209.677Y-68.834
X193.04Y-131.699
X193.04Y-139.319
X192.989Y-112.42
X192.989Y-120.04
X89.865Y-107.95
X105.105Y-107.95
X138.176Y-50.8
X153.416Y-50.8
X213.512Y-68.986
X228.752Y-68.986
X173.025Y-88.748
X188.265Y-88.748
X88.214Y-112.649
X88.214Y-120.269
X212.039Y-93.675
X212.039Y-101.295
X204.191Y-146.024
X219.431Y-146.024
X140.716Y-54.864
X140.716Y-62.484
X51.511Y-145.898
X66.751Y-145.898
X47.188Y-55.628
X47.188Y-57.628
X47.188Y-59.628
X47.188Y-61.628
X113.563Y-107.899
X128.803Y-107.899
X154.838Y-93.421
X154.838Y-101.041
X215.494Y-88.748
X230.734Y-88.748
X212.09Y-112.471
X212.09Y-120.091
X112.141Y-74.422
X112.141Y-82.042
X137.592Y-88.824
X152.832Y-88.824
X69.342Y-55.118
X69.342Y-62.738
X169.189Y-150.596
X169.189Y-158.216
X155.092Y-88.722
X170.332Y-88.722
X157.124Y-50.749
X172.364Y-50.749
X50.165Y-93.345
X50.165Y-100.965
X156.109Y-107.925
X171.349Y-107.925
X174.117Y-93.472
X174.117Y-101.092
X154.864Y-112.649
X154.864Y-120.269
X51.689Y-68.834
X66.929Y-68.834
X176.124Y-50.8
X191.364Y-50.8
X197.663Y-126.848
X212.903Y-126.848
X90.424Y-50.8
X105.664Y-50.8
X212.09Y-54.864
X212.09Y-62.484
X50.19Y-150.317
X50.19Y-157.937
X173.863Y-74.041
X173.863Y-81.661
X69.088Y-150.622
X69.088Y-158.242
X211.988Y-131.674
X211.988Y-139.294
X112.039Y-112.598
X112.039Y-120.218
X113.716Y-68.961
X128.956Y-68.961
X172.364Y-126.898
X187.604Y-126.898
X174.066Y-131.623
X174.066Y-139.243
X50.038Y-88.824
X65.278Y-88.824
X48.565Y-126.898
X63.805Y-126.898
X135.865Y-131.648
X135.865Y-139.268
X88.24Y-131.801
X88.24Y-139.421
X137.338Y-107.899
X152.578Y-107.899
X136.017Y-74.295
X136.017Y-81.915
X93.523Y-126.848
X108.763Y-126.848
X114.91Y-88.773
X130.15Y-88.773
X194.818Y-107.899
X210.058Y-107.899
X214.376Y-107.848
X229.616Y-107.848
X90.068Y-146.126
X105.308Y-146.126
X70.866Y-145.923
X86.106Y-145.923
X135.941Y-93.777
X135.941Y-101.397
X88.265Y-93.472
X88.265Y-101.092
X212.09Y-73.914
X212.09Y-81.534
X88.392Y-74.676
X88.392Y-82.296
X69.342Y-93.726
X69.342Y-101.346
X176.606Y-107.848
X191.846Y-107.848
T2
X200.863Y-92.354
X203.403Y-92.354
X77.064Y-92.329
X79.604Y-92.329
X210.439Y-149.478
X212.979Y-149.478
X96.114Y-92.329
X98.654Y-92.329
X148.539Y-149.504
X151.079Y-149.504
X181.737Y-54.28
X184.277Y-54.28
X200.914Y-73.203
X203.454Y-73.203
X96.139Y-73.304
X98.679Y-73.304
X58.09Y-111.404
X60.63Y-111.404
X58.014Y-149.403
X60.554Y-149.403
X58.064Y-54.254
X60.604Y-54.254
X58.014Y-92.304
X60.554Y-92.304
X119.964Y-111.353
X122.504Y-111.353
X219.964Y-92.304
X222.504Y-92.304
X200.914Y-111.404
X203.454Y-111.404
X58.09Y-130.429
X60.63Y-130.429
X162.763Y-92.329
X165.303Y-92.329
X119.913Y-73.279
X122.453Y-73.279
X143.739Y-92.354
X146.279Y-92.354
X77.064Y-149.479
X79.604Y-149.479
X219.913Y-73.254
X222.453Y-73.254
X77.14Y-73.304
X79.68Y-73.304
X181.813Y-92.253
X184.353Y-92.253
X143.789Y-73.203
X146.329Y-73.203
X143.815Y-130.403
X146.355Y-130.403
X219.964Y-130.353
X222.504Y-130.353
X181.864Y-73.203
X184.404Y-73.203
X77.14Y-130.429
X79.68Y-130.429
X219.964Y-54.229
X222.504Y-54.229
X96.139Y-54.229
X98.679Y-54.229
X162.839Y-73.254
X165.379Y-73.254
X200.914Y-54.229
X203.454Y-54.229
X96.139Y-130.328
X98.679Y-130.328
X120.015Y-54.229
X122.555Y-54.229
X77.064Y-111.379
X79.604Y-111.379
X200.939Y-130.429
X203.479Y-130.429
X143.739Y-111.379
X146.279Y-111.379
X119.938Y-130.378
X122.478Y-130.378
X181.94Y-130.353
X184.48Y-130.353
X219.964Y-111.354
X222.504Y-111.354
X177.114Y-149.453
X179.654Y-149.453
X181.889Y-111.303
X184.429Y-111.303
X162.864Y-130.378
X165.404Y-130.378
X162.712Y-54.229
X165.252Y-54.229
X77.165Y-54.204
X79.705Y-54.204
X119.939Y-92.304
X122.479Y-92.304
X119.939Y-149.453
X122.479Y-149.453
X96.139Y-149.453
X98.679Y-149.453
X162.789Y-111.404
X165.329Y-111.404
X143.764Y-54.229
X146.304Y-54.229
X96.139Y-111.379
X98.679Y-111.379
X58.115Y-73.304
X60.655Y-73.304
T3
X199.593Y-102.514
X205.943Y-99.974
X75.794Y-102.489
X82.144Y-99.949
X209.169Y-159.638
X215.519Y-157.098
X94.844Y-102.489
X101.194Y-99.949
X147.269Y-159.664
X153.619Y-157.124
X180.467Y-64.44
X186.817Y-61.9
X199.644Y-83.363
X205.994Y-80.823
X94.869Y-83.464
X101.219Y-80.924
X56.82Y-121.564
X63.17Y-119.024
X56.744Y-159.563
X63.094Y-157.023
X56.794Y-64.414
X63.144Y-61.874
X56.744Y-102.464
X63.094Y-99.924
X118.694Y-121.513
X125.044Y-118.973
X218.694Y-102.464
X225.044Y-99.924
X199.644Y-121.564
X205.994Y-119.024
X56.82Y-140.589
X63.17Y-138.049
X161.493Y-102.489
X167.843Y-99.949
X118.643Y-83.439
X124.993Y-80.899
X142.469Y-102.514
X148.819Y-99.974
X75.794Y-159.639
X82.144Y-157.099
X218.643Y-83.414
X224.993Y-80.874
X75.87Y-83.464
X82.22Y-80.924
X180.543Y-102.413
X186.893Y-99.873
X142.519Y-83.363
X148.869Y-80.823
X142.545Y-140.563
X148.895Y-138.023
X218.694Y-140.513
X225.044Y-137.973
X180.594Y-83.363
X186.944Y-80.823
X75.87Y-140.589
X82.22Y-138.049
X218.694Y-64.389
X225.044Y-61.849
X94.869Y-64.389
X101.219Y-61.849
X161.569Y-83.414
X167.919Y-80.874
X199.644Y-64.389
X205.994Y-61.849
X94.869Y-140.488
X101.219Y-137.948
X118.745Y-64.389
X125.095Y-61.849
X75.794Y-121.539
X82.144Y-118.999
X199.669Y-140.589
X206.019Y-138.049
X142.469Y-121.539
X148.819Y-118.999
X118.668Y-140.538
X125.018Y-137.998
X180.67Y-140.513
X187.02Y-137.973
X218.694Y-121.514
X225.044Y-118.974
X175.844Y-159.613
X182.194Y-157.073
X180.619Y-121.463
X186.969Y-118.923
X161.594Y-140.538
X167.944Y-137.998
X161.442Y-64.389
X167.792Y-61.849
X75.895Y-64.364
X82.245Y-61.824
X118.669Y-102.464
X125.019Y-99.924
X118.669Y-159.613
X125.019Y-157.073
X94.869Y-159.613
X101.219Y-157.073
X161.519Y-121.564
X167.869Y-119.024
X142.494Y-64.389
X148.844Y-61.849
X94.869Y-121.539
X101.219Y-118.999
X56.845Y-83.464
X63.195Y-80.924
T4
X193.065Y-87.879
X87.889Y-87.874
X193.065Y-125.959
X87.889Y-125.994
T5
X92.329Y-59.309
X102.489Y-59.309
X159.029Y-78.334
X169.189Y-78.334
X197.104Y-59.309
X207.264Y-59.309
X92.329Y-135.408
X102.489Y-135.408
X116.205Y-59.309
X126.365Y-59.309
X73.254Y-116.459
X83.414Y-116.459
X197.129Y-135.509
X207.289Y-135.509
X139.929Y-116.459
X150.089Y-116.459
X116.128Y-135.458
X126.288Y-135.458
X178.13Y-135.433
X188.29Y-135.433
X216.154Y-116.434
X226.314Y-116.434
X173.304Y-154.533
X183.464Y-154.533
X178.079Y-116.383
X188.239Y-116.383
X159.054Y-135.458
X169.214Y-135.458
X158.902Y-59.309
X169.062Y-59.309
X73.355Y-59.284
X83.515Y-59.284
X116.129Y-97.384
X126.289Y-97.384
X116.129Y-154.533
X126.289Y-154.533
X92.329Y-154.533
X102.489Y-154.533
X158.979Y-116.484
X169.139Y-116.484
X139.954Y-59.309
X150.114Y-59.309
X92.329Y-116.459
X102.489Y-116.459
X54.305Y-78.384
X64.465Y-78.384
X197.053Y-97.434
X207.213Y-97.434
X73.254Y-97.409
X83.414Y-97.409
X206.629Y-154.558
X216.789Y-154.558
X92.304Y-97.409
X102.464Y-97.409
X144.729Y-154.584
X154.889Y-154.584
X177.927Y-59.36
X188.087Y-59.36
X197.104Y-78.283
X207.264Y-78.283
X92.329Y-78.384
X102.489Y-78.384
X54.28Y-116.484
X64.44Y-116.484
X54.204Y-154.483
X64.364Y-154.483
X54.254Y-59.334
X64.414Y-59.334
X54.204Y-97.384
X64.364Y-97.384
X116.154Y-116.433
X126.314Y-116.433
X216.154Y-97.384
X226.314Y-97.384
X197.104Y-116.484
X207.264Y-116.484
X54.28Y-135.509
X64.44Y-135.509
X158.953Y-97.409
X169.113Y-97.409
X116.103Y-78.359
X126.263Y-78.359
X139.929Y-97.434
X150.089Y-97.434
X73.254Y-154.559
X83.414Y-154.559
X216.103Y-78.334
X226.263Y-78.334
X73.33Y-78.384
X83.49Y-78.384
X178.003Y-97.333
X188.163Y-97.333
X139.979Y-78.283
X150.139Y-78.283
X140.005Y-135.483
X150.165Y-135.483
X216.154Y-135.433
X226.314Y-135.433
X178.054Y-78.283
X188.214Y-78.283
X73.33Y-135.509
X83.49Y-135.509
X216.154Y-59.309
X226.314Y-59.309
T6
X97.409Y-59.309
X164.109Y-78.334
X202.184Y-59.309
X97.409Y-135.408
X121.285Y-59.309
X78.334Y-116.459
X202.209Y-135.509
X145.009Y-116.459
X121.208Y-135.458
X183.21Y-135.433
X221.234Y-116.434
X178.384Y-154.533
X183.159Y-116.383
X164.134Y-135.458
X163.982Y-59.309
X78.435Y-59.284
X121.209Y-97.384
X121.209Y-154.533
X97.409Y-154.533
X164.059Y-116.484
X145.034Y-59.309
X97.409Y-116.459
X59.385Y-78.384
X202.133Y-97.434
X78.334Y-97.409
X211.709Y-154.558
X97.384Y-97.409
X149.809Y-154.584
X183.007Y-59.36
X202.184Y-78.283
X97.409Y-78.384
X59.36Y-116.484
X59.284Y-154.483
X59.334Y-59.334
X59.284Y-97.384
X121.234Y-116.433
X221.234Y-97.384
X202.184Y-116.484
X59.36Y-135.509
X164.033Y-97.409
X121.183Y-78.359
X145.009Y-97.434
X78.334Y-154.559
X221.183Y-78.334
X78.41Y-78.384
X183.083Y-97.333
X145.059Y-78.283
X145.085Y-135.483
X221.234Y-135.433
X183.134Y-78.283
X78.41Y-135.509
X221.234Y-59.309
T0
M30
