%TF.GenerationSoftware,KiCad,Pcbnew,5.1.5+dfsg1-2build2*%
%TF.CreationDate,2021-08-29T11:58:19+02:00*%
%TF.ProjectId,BFK9kv2-left,42464b39-6b76-4322-9d6c-6566742e6b69,rev?*%
%TF.SameCoordinates,Original*%
%TF.FileFunction,Copper,L1,Top*%
%TF.FilePolarity,Positive*%
%FSLAX46Y46*%
G04 Gerber Fmt 4.6, Leading zero omitted, Abs format (unit mm)*
G04 Created by KiCad (PCBNEW 5.1.5+dfsg1-2build2) date 2021-08-29 11:58:19*
%MOMM*%
%LPD*%
G04 APERTURE LIST*
%ADD10C,1.690600*%
%ADD11C,2.200000*%
%ADD12O,1.600000X1.600000*%
%ADD13C,1.600000*%
%ADD14R,1.600000X1.600000*%
%ADD15C,5.600000*%
%ADD16O,1.350000X1.350000*%
%ADD17R,1.350000X1.350000*%
%ADD18C,0.250000*%
G04 APERTURE END LIST*
D10*
X219964000Y-54229000D03*
X222504000Y-54229000D03*
D11*
X218694000Y-64389000D03*
X225044000Y-61849000D03*
D10*
X96139400Y-149453000D03*
X98679400Y-149453000D03*
D11*
X94869400Y-159613000D03*
X101219400Y-157073000D03*
D10*
X77064000Y-149479000D03*
X79604000Y-149479000D03*
D11*
X75794000Y-159639000D03*
X82144000Y-157099000D03*
D10*
X200914000Y-54229000D03*
X203454000Y-54229000D03*
D11*
X199644000Y-64389000D03*
X205994000Y-61849000D03*
D12*
X230886000Y-126848000D03*
D13*
X215646000Y-126848000D03*
D12*
X229616000Y-107848000D03*
D13*
X214376000Y-107848000D03*
D12*
X230734000Y-88747600D03*
D13*
X215494000Y-88747600D03*
D12*
X228752000Y-68986400D03*
D13*
X213512000Y-68986400D03*
D12*
X229667000Y-50749200D03*
D13*
X214427000Y-50749200D03*
D10*
X210439000Y-149478000D03*
X212979000Y-149478000D03*
D11*
X209169000Y-159638000D03*
X215519000Y-157098000D03*
D10*
X177114000Y-149453000D03*
X179654000Y-149453000D03*
D11*
X175844000Y-159613000D03*
X182194000Y-157073000D03*
D10*
X148539000Y-149504000D03*
X151079000Y-149504000D03*
D11*
X147269000Y-159664000D03*
X153619000Y-157124000D03*
D10*
X58013600Y-149403000D03*
X60553600Y-149403000D03*
D11*
X56743600Y-159563000D03*
X63093600Y-157023000D03*
D10*
X219964000Y-130353000D03*
X222504000Y-130353000D03*
D11*
X218694000Y-140513000D03*
X225044000Y-137973000D03*
D10*
X181940000Y-130353000D03*
X184480000Y-130353000D03*
D11*
X180670000Y-140513000D03*
X187020000Y-137973000D03*
D10*
X119938000Y-130378000D03*
X122478000Y-130378000D03*
D11*
X118668000Y-140538000D03*
X125018000Y-137998000D03*
D10*
X219964000Y-111354000D03*
X222504000Y-111354000D03*
D11*
X218694000Y-121514000D03*
X225044000Y-118974000D03*
D10*
X200914000Y-111404000D03*
X203454000Y-111404000D03*
D11*
X199644000Y-121564000D03*
X205994000Y-119024000D03*
D10*
X181889000Y-111303000D03*
X184429000Y-111303000D03*
D11*
X180619000Y-121463000D03*
X186969000Y-118923000D03*
D10*
X119964000Y-111353000D03*
X122504000Y-111353000D03*
D11*
X118694000Y-121513000D03*
X125044000Y-118973000D03*
D10*
X219964000Y-92303600D03*
X222504000Y-92303600D03*
D11*
X218694000Y-102463600D03*
X225044000Y-99923600D03*
D10*
X181813000Y-92252800D03*
X184353000Y-92252800D03*
D11*
X180543000Y-102412800D03*
X186893000Y-99872800D03*
D10*
X119939000Y-92303600D03*
X122479000Y-92303600D03*
D11*
X118669000Y-102463600D03*
X125019000Y-99923600D03*
D10*
X219913000Y-73253600D03*
X222453000Y-73253600D03*
D11*
X218643000Y-83413600D03*
X224993000Y-80873600D03*
D10*
X200914000Y-73202800D03*
X203454000Y-73202800D03*
D11*
X199644000Y-83362800D03*
X205994000Y-80822800D03*
D10*
X181864000Y-73202800D03*
X184404000Y-73202800D03*
D11*
X180594000Y-83362800D03*
X186944000Y-80822800D03*
D10*
X119913000Y-73279000D03*
X122453000Y-73279000D03*
D11*
X118643000Y-83439000D03*
X124993000Y-80899000D03*
D10*
X120015000Y-54229000D03*
X122555000Y-54229000D03*
D11*
X118745000Y-64389000D03*
X125095000Y-61849000D03*
D12*
X211988000Y-131674000D03*
D14*
X211988000Y-139294000D03*
D12*
X212090000Y-112471000D03*
D14*
X212090000Y-120091000D03*
D12*
X212039000Y-93675000D03*
D14*
X212039000Y-101295000D03*
D12*
X212090000Y-73914000D03*
D14*
X212090000Y-81534000D03*
D12*
X212090000Y-54864000D03*
D14*
X212090000Y-62484000D03*
D15*
X87889100Y-87873800D03*
X87889100Y-125994000D03*
X193065000Y-125959000D03*
X193065000Y-87878900D03*
D16*
X47188500Y-55628000D03*
X47188500Y-57628000D03*
X47188500Y-59628000D03*
D17*
X47188500Y-61628000D03*
D16*
X132482000Y-164186000D03*
X134482000Y-164186000D03*
X136482000Y-164186000D03*
X138482000Y-164186000D03*
X140482000Y-164186000D03*
X142482000Y-164186000D03*
X144482000Y-164186000D03*
D17*
X146482000Y-164186000D03*
D16*
X46431200Y-115270000D03*
X46431200Y-113270000D03*
X46431200Y-111270000D03*
X46431200Y-109270000D03*
X46431200Y-107270000D03*
X46431200Y-105270000D03*
X46431200Y-103270000D03*
D17*
X46431200Y-101270000D03*
D10*
X119939000Y-149453000D03*
X122479000Y-149453000D03*
D11*
X118669000Y-159613000D03*
X125019000Y-157073000D03*
D10*
X200939000Y-130429000D03*
X203479000Y-130429000D03*
D11*
X199669000Y-140589000D03*
X206019000Y-138049000D03*
D10*
X200863000Y-92354400D03*
X203403000Y-92354400D03*
D11*
X199593000Y-102514400D03*
X205943000Y-99974400D03*
D12*
X213157000Y-88747600D03*
D13*
X197917000Y-88747600D03*
D12*
X192989000Y-93624000D03*
D14*
X192989000Y-101244000D03*
D12*
X212903000Y-126848000D03*
D13*
X197663000Y-126848000D03*
D12*
X210058000Y-107899000D03*
D13*
X194818000Y-107899000D03*
D12*
X219431000Y-146024000D03*
D13*
X204191000Y-146024000D03*
D12*
X187604000Y-126898000D03*
D13*
X172364000Y-126898000D03*
D12*
X176606000Y-107848000D03*
D13*
X191846000Y-107848000D03*
D12*
X188265000Y-88747600D03*
D13*
X173025000Y-88747600D03*
D12*
X185699000Y-146024000D03*
D13*
X170459000Y-146024000D03*
D12*
X169266000Y-126848000D03*
D13*
X154026000Y-126848000D03*
D12*
X171349000Y-107925000D03*
D13*
X156109000Y-107925000D03*
D12*
X170332000Y-88722200D03*
D13*
X155092000Y-88722200D03*
D12*
X157505000Y-145923000D03*
D13*
X142265000Y-145923000D03*
D12*
X151028000Y-126898000D03*
D13*
X135788000Y-126898000D03*
D12*
X152578000Y-107899000D03*
D13*
X137338000Y-107899000D03*
D12*
X152832000Y-88823800D03*
D13*
X137592000Y-88823800D03*
D12*
X129108000Y-145999000D03*
D13*
X113868000Y-145999000D03*
D12*
X128626000Y-126848000D03*
D13*
X113386000Y-126848000D03*
D12*
X128803000Y-107899000D03*
D13*
X113563000Y-107899000D03*
D12*
X130150000Y-88773000D03*
D13*
X114910000Y-88773000D03*
D12*
X105308400Y-146126000D03*
D13*
X90068400Y-146126000D03*
D12*
X108762800Y-126848000D03*
D13*
X93522800Y-126848000D03*
D12*
X105105200Y-107950000D03*
D13*
X89865200Y-107950000D03*
D12*
X107873800Y-88823800D03*
D13*
X92633800Y-88823800D03*
D12*
X86106000Y-145923000D03*
D13*
X70866000Y-145923000D03*
D12*
X82651600Y-126898000D03*
D13*
X67411600Y-126898000D03*
D12*
X86004400Y-107823000D03*
D13*
X70764400Y-107823000D03*
D12*
X83058000Y-88900000D03*
D13*
X67818000Y-88900000D03*
D12*
X66751200Y-145898000D03*
D13*
X51511200Y-145898000D03*
D12*
X63804800Y-126898000D03*
D13*
X48564800Y-126898000D03*
D12*
X66852800Y-107925000D03*
D13*
X51612800Y-107925000D03*
D12*
X65278000Y-88823800D03*
D13*
X50038000Y-88823800D03*
D10*
X162864000Y-130378000D03*
X165404000Y-130378000D03*
D11*
X161594000Y-140538000D03*
X167944000Y-137998000D03*
D10*
X162789000Y-111404000D03*
X165329000Y-111404000D03*
D11*
X161519000Y-121564000D03*
X167869000Y-119024000D03*
D10*
X162763000Y-92329000D03*
X165303000Y-92329000D03*
D11*
X161493000Y-102489000D03*
X167843000Y-99949000D03*
D10*
X143815000Y-130403000D03*
X146355000Y-130403000D03*
D11*
X142545000Y-140563000D03*
X148895000Y-138023000D03*
D10*
X143739000Y-111379000D03*
X146279000Y-111379000D03*
D11*
X142469000Y-121539000D03*
X148819000Y-118999000D03*
D10*
X143739000Y-92354400D03*
X146279000Y-92354400D03*
D11*
X142469000Y-102514400D03*
X148819000Y-99974400D03*
D10*
X96139000Y-130328000D03*
X98679000Y-130328000D03*
D11*
X94869000Y-140488000D03*
X101219000Y-137948000D03*
D10*
X96139000Y-111379000D03*
X98679000Y-111379000D03*
D11*
X94869000Y-121539000D03*
X101219000Y-118999000D03*
D10*
X96113600Y-92329000D03*
X98653600Y-92329000D03*
D11*
X94843600Y-102489000D03*
X101193600Y-99949000D03*
D10*
X77139800Y-130429000D03*
X79679800Y-130429000D03*
D11*
X75869800Y-140589000D03*
X82219800Y-138049000D03*
D10*
X77063600Y-111379000D03*
X79603600Y-111379000D03*
D11*
X75793600Y-121539000D03*
X82143600Y-118999000D03*
D10*
X77063600Y-92329000D03*
X79603600Y-92329000D03*
D11*
X75793600Y-102489000D03*
X82143600Y-99949000D03*
D10*
X58089800Y-130429000D03*
X60629800Y-130429000D03*
D11*
X56819800Y-140589000D03*
X63169800Y-138049000D03*
D10*
X58089800Y-111404000D03*
X60629800Y-111404000D03*
D11*
X56819800Y-121564000D03*
X63169800Y-119024000D03*
D10*
X58013600Y-92303600D03*
X60553600Y-92303600D03*
D11*
X56743600Y-102463600D03*
X63093600Y-99923600D03*
D12*
X193040000Y-131699000D03*
D14*
X193040000Y-139319000D03*
D12*
X192989000Y-112420000D03*
D14*
X192989000Y-120040000D03*
D12*
X192659000Y-150698000D03*
D14*
X192659000Y-158318000D03*
D12*
X174066000Y-131623000D03*
D14*
X174066000Y-139243000D03*
D12*
X174015000Y-112471000D03*
D14*
X174015000Y-120091000D03*
D12*
X174117000Y-93472000D03*
D14*
X174117000Y-101092000D03*
D12*
X169189000Y-150596000D03*
D14*
X169189000Y-158216000D03*
D12*
X154965000Y-131648000D03*
D14*
X154965000Y-139268000D03*
D12*
X154864000Y-112649000D03*
D14*
X154864000Y-120269000D03*
D12*
X154838000Y-93421000D03*
D14*
X154838000Y-101041000D03*
D12*
X140868000Y-150749000D03*
D14*
X140868000Y-158369000D03*
D12*
X135865000Y-131648000D03*
D14*
X135865000Y-139268000D03*
D12*
X135814000Y-112598000D03*
D14*
X135814000Y-120218000D03*
D12*
X135941000Y-93777000D03*
D14*
X135941000Y-101397000D03*
D12*
X112090000Y-150825000D03*
D14*
X112090000Y-158445000D03*
D12*
X111912000Y-131597000D03*
D14*
X111912000Y-139217000D03*
D12*
X112039000Y-112598000D03*
D14*
X112039000Y-120218000D03*
D12*
X111989000Y-93599000D03*
D14*
X111989000Y-101219000D03*
D12*
X88290400Y-150444000D03*
D14*
X88290400Y-158064000D03*
D12*
X88239600Y-131801000D03*
D14*
X88239600Y-139421000D03*
D12*
X88214200Y-112649000D03*
D14*
X88214200Y-120269000D03*
D12*
X88265000Y-93472000D03*
D14*
X88265000Y-101092000D03*
D12*
X69088000Y-150622000D03*
D14*
X69088000Y-158242000D03*
D12*
X69215000Y-131826000D03*
D14*
X69215000Y-139446000D03*
D12*
X69240400Y-112598000D03*
D14*
X69240400Y-120218000D03*
D12*
X69342000Y-93726000D03*
D14*
X69342000Y-101346000D03*
D12*
X50190400Y-150317000D03*
D14*
X50190400Y-157937000D03*
D12*
X50165000Y-131826000D03*
D14*
X50165000Y-139446000D03*
D12*
X50165000Y-112903000D03*
D14*
X50165000Y-120523000D03*
D12*
X50165000Y-93345000D03*
D14*
X50165000Y-100965000D03*
D12*
X193167000Y-73914000D03*
D14*
X193167000Y-81534000D03*
D12*
X192786000Y-54864000D03*
D14*
X192786000Y-62484000D03*
D12*
X173863000Y-74041000D03*
D14*
X173863000Y-81661000D03*
D12*
X173736000Y-55118000D03*
D14*
X173736000Y-62738000D03*
D12*
X155067000Y-74041000D03*
D14*
X155067000Y-81661000D03*
D12*
X154686000Y-54864000D03*
D14*
X154686000Y-62484000D03*
D12*
X136017000Y-74295000D03*
D14*
X136017000Y-81915000D03*
D12*
X140716000Y-54864000D03*
D14*
X140716000Y-62484000D03*
D12*
X112141000Y-74422000D03*
D14*
X112141000Y-82042000D03*
D12*
X112268000Y-55118000D03*
D14*
X112268000Y-62738000D03*
D12*
X88392000Y-74676000D03*
D14*
X88392000Y-82296000D03*
D12*
X88392000Y-55118000D03*
D14*
X88392000Y-62738000D03*
D12*
X69342000Y-74676000D03*
D14*
X69342000Y-82296000D03*
D12*
X69342000Y-55118000D03*
D14*
X69342000Y-62738000D03*
D12*
X47142400Y-84937600D03*
D14*
X47142400Y-92557600D03*
D12*
X47142400Y-74676000D03*
D14*
X47142400Y-82296000D03*
D10*
X162712000Y-54229000D03*
X165252000Y-54229000D03*
D11*
X161442000Y-64389000D03*
X167792000Y-61849000D03*
D10*
X181737000Y-54279800D03*
X184277000Y-54279800D03*
D11*
X180467000Y-64439800D03*
X186817000Y-61899800D03*
D10*
X162839000Y-73253600D03*
X165379000Y-73253600D03*
D11*
X161569000Y-83413600D03*
X167919000Y-80873600D03*
D10*
X143789000Y-73202800D03*
X146329000Y-73202800D03*
D11*
X142519000Y-83362800D03*
X148869000Y-80822800D03*
D10*
X143764000Y-54229000D03*
X146304000Y-54229000D03*
D11*
X142494000Y-64389000D03*
X148844000Y-61849000D03*
D10*
X96139000Y-73304400D03*
X98679000Y-73304400D03*
D11*
X94869000Y-83464400D03*
X101219000Y-80924400D03*
D10*
X96139000Y-54229000D03*
X98679000Y-54229000D03*
D11*
X94869000Y-64389000D03*
X101219000Y-61849000D03*
D10*
X77139800Y-73304400D03*
X79679800Y-73304400D03*
D11*
X75869800Y-83464400D03*
X82219800Y-80924400D03*
D10*
X77165200Y-54203600D03*
X79705200Y-54203600D03*
D11*
X75895200Y-64363600D03*
X82245200Y-61823600D03*
D10*
X58115200Y-73304400D03*
X60655200Y-73304400D03*
D11*
X56845200Y-83464400D03*
X63195200Y-80924400D03*
D10*
X58064400Y-54254400D03*
X60604400Y-54254400D03*
D11*
X56794400Y-64414400D03*
X63144400Y-61874400D03*
D12*
X209677000Y-68834000D03*
D13*
X194437000Y-68834000D03*
D12*
X210617000Y-50800000D03*
D13*
X195377000Y-50800000D03*
D12*
X190551000Y-68884800D03*
D13*
X175311000Y-68884800D03*
D12*
X191364000Y-50800000D03*
D13*
X176124000Y-50800000D03*
D12*
X171679000Y-69037200D03*
D13*
X156439000Y-69037200D03*
D12*
X172364000Y-50749200D03*
D13*
X157124000Y-50749200D03*
D12*
X152883000Y-68884800D03*
D13*
X137643000Y-68884800D03*
D12*
X153416000Y-50800000D03*
D13*
X138176000Y-50800000D03*
D12*
X128956000Y-68961000D03*
D13*
X113716000Y-68961000D03*
D12*
X128880000Y-50749200D03*
D13*
X113640000Y-50749200D03*
D12*
X104546400Y-69062600D03*
D13*
X89306400Y-69062600D03*
D12*
X105664000Y-50800000D03*
D13*
X90424000Y-50800000D03*
D12*
X86309200Y-69062600D03*
D13*
X71069200Y-69062600D03*
D12*
X86614000Y-50698400D03*
D13*
X71374000Y-50698400D03*
D12*
X66929000Y-68834000D03*
D13*
X51689000Y-68834000D03*
D12*
X67056000Y-50800000D03*
D13*
X51816000Y-50800000D03*
D18*
X86614000Y-50698400D02*
X83210400Y-50698400D01*
X83210400Y-50698400D02*
X79705200Y-54203600D01*
X105664000Y-50800000D02*
X102108000Y-50800000D01*
X102108000Y-50800000D02*
X98679000Y-54229000D01*
X153416000Y-50800000D02*
X149733000Y-50800000D01*
X149733000Y-50800000D02*
X146304000Y-54229000D01*
X172364000Y-50749200D02*
X168731800Y-50749200D01*
X168731800Y-50749200D02*
X165252000Y-54229000D01*
X191364000Y-50800000D02*
X187756800Y-50800000D01*
X187756800Y-50800000D02*
X184277000Y-54279800D01*
X210617000Y-50800000D02*
X206883000Y-50800000D01*
X206883000Y-50800000D02*
X203454000Y-54229000D01*
X128956000Y-68961000D02*
X127830700Y-68961000D01*
X122453000Y-73279000D02*
X123512700Y-73279000D01*
X123512700Y-73279000D02*
X127830700Y-68961000D01*
X154686000Y-62484000D02*
X153560700Y-62484000D01*
X140716000Y-62484000D02*
X145293200Y-62484000D01*
X145293200Y-62484000D02*
X146124200Y-63315000D01*
X146124200Y-63315000D02*
X152729700Y-63315000D01*
X152729700Y-63315000D02*
X153560700Y-62484000D01*
X140153400Y-62484000D02*
X140716000Y-62484000D01*
X140153400Y-62484000D02*
X139590700Y-62484000D01*
X88392000Y-62738000D02*
X87266700Y-62738000D01*
X69342000Y-62738000D02*
X78999200Y-62738000D01*
X78999200Y-62738000D02*
X79572200Y-63311000D01*
X79572200Y-63311000D02*
X86693700Y-63311000D01*
X86693700Y-63311000D02*
X87266700Y-62738000D01*
X173736000Y-62738000D02*
X172610700Y-62738000D01*
X154686000Y-62484000D02*
X164292000Y-62484000D01*
X164292000Y-62484000D02*
X165097200Y-63289200D01*
X165097200Y-63289200D02*
X172059500Y-63289200D01*
X172059500Y-63289200D02*
X172610700Y-62738000D01*
X112268000Y-62738000D02*
X111142700Y-62738000D01*
X88392000Y-62738000D02*
X97922200Y-62738000D01*
X97922200Y-62738000D02*
X98499200Y-63315000D01*
X98499200Y-63315000D02*
X110565700Y-63315000D01*
X110565700Y-63315000D02*
X111142700Y-62738000D01*
X112268000Y-62738000D02*
X121798200Y-62738000D01*
X121798200Y-62738000D02*
X122375200Y-63315000D01*
X122375200Y-63315000D02*
X138759700Y-63315000D01*
X138759700Y-63315000D02*
X139590700Y-62484000D01*
X212090000Y-62484000D02*
X210964700Y-62484000D01*
X192786000Y-62484000D02*
X203727900Y-62484000D01*
X203727900Y-62484000D02*
X204525700Y-63281800D01*
X204525700Y-63281800D02*
X210166900Y-63281800D01*
X210166900Y-63281800D02*
X210964700Y-62484000D01*
X192223400Y-62484000D02*
X192786000Y-62484000D01*
X192223400Y-62484000D02*
X191660700Y-62484000D01*
X173736000Y-62738000D02*
X183418600Y-62738000D01*
X183418600Y-62738000D02*
X184021500Y-63340900D01*
X184021500Y-63340900D02*
X190803800Y-63340900D01*
X190803800Y-63340900D02*
X191660700Y-62484000D01*
X47142400Y-84937600D02*
X55372000Y-84937600D01*
X55372000Y-84937600D02*
X56845200Y-83464400D01*
X69342000Y-82296000D02*
X68216700Y-82296000D01*
X47142400Y-92557600D02*
X48267700Y-92557600D01*
X48267700Y-92557600D02*
X50193600Y-90631700D01*
X50193600Y-90631700D02*
X59881000Y-90631700D01*
X59881000Y-90631700D02*
X68216700Y-82296000D01*
X88392000Y-82296000D02*
X87266700Y-82296000D01*
X69342000Y-82296000D02*
X70467300Y-82296000D01*
X70467300Y-82296000D02*
X70764700Y-81998600D01*
X70764700Y-81998600D02*
X78584100Y-81998600D01*
X78584100Y-81998600D02*
X78943700Y-82358200D01*
X78943700Y-82358200D02*
X87204500Y-82358200D01*
X87204500Y-82358200D02*
X87266700Y-82296000D01*
X212090000Y-81534000D02*
X210964700Y-81534000D01*
X193167000Y-81534000D02*
X203561500Y-81534000D01*
X203561500Y-81534000D02*
X204301800Y-82274300D01*
X204301800Y-82274300D02*
X210224400Y-82274300D01*
X210224400Y-82274300D02*
X210964700Y-81534000D01*
X192604400Y-81534000D02*
X193167000Y-81534000D01*
X173863000Y-81661000D02*
X172737700Y-81661000D01*
X155067000Y-81661000D02*
X165693200Y-81661000D01*
X165693200Y-81661000D02*
X166338800Y-82306600D01*
X166338800Y-82306600D02*
X172092100Y-82306600D01*
X172092100Y-82306600D02*
X172737700Y-81661000D01*
X154504400Y-81661000D02*
X155067000Y-81661000D01*
X112141000Y-82042000D02*
X111015700Y-82042000D01*
X88392000Y-82296000D02*
X89517300Y-82296000D01*
X89517300Y-82296000D02*
X89814700Y-81998600D01*
X89814700Y-81998600D02*
X97583300Y-81998600D01*
X97583300Y-81998600D02*
X97977500Y-82392800D01*
X97977500Y-82392800D02*
X110664900Y-82392800D01*
X110664900Y-82392800D02*
X111015700Y-82042000D01*
X136017000Y-81915000D02*
X134891700Y-81915000D01*
X112141000Y-82042000D02*
X113266300Y-82042000D01*
X113266300Y-82042000D02*
X113351200Y-81957100D01*
X113351200Y-81957100D02*
X121789100Y-81957100D01*
X121789100Y-81957100D02*
X122167300Y-82335300D01*
X122167300Y-82335300D02*
X134471400Y-82335300D01*
X134471400Y-82335300D02*
X134891700Y-81915000D01*
X192604400Y-81534000D02*
X192041700Y-81534000D01*
X173863000Y-81661000D02*
X184301900Y-81661000D01*
X184301900Y-81661000D02*
X184898700Y-82257800D01*
X184898700Y-82257800D02*
X191317900Y-82257800D01*
X191317900Y-82257800D02*
X192041700Y-81534000D01*
X154504400Y-81661000D02*
X153941700Y-81661000D01*
X136017000Y-81915000D02*
X145251300Y-81915000D01*
X145251300Y-81915000D02*
X145628500Y-82292200D01*
X145628500Y-82292200D02*
X153310500Y-82292200D01*
X153310500Y-82292200D02*
X153941700Y-81661000D01*
X213512000Y-68986400D02*
X213512000Y-51664200D01*
X213512000Y-51664200D02*
X214427000Y-50749200D01*
X194437000Y-68834000D02*
X195569100Y-69966100D01*
X195569100Y-69966100D02*
X212532300Y-69966100D01*
X212532300Y-69966100D02*
X213512000Y-68986400D01*
X215494000Y-88747600D02*
X214318600Y-87572200D01*
X214318600Y-87572200D02*
X199092400Y-87572200D01*
X199092400Y-87572200D02*
X197917000Y-88747600D01*
X175311000Y-68884800D02*
X176443700Y-70017500D01*
X176443700Y-70017500D02*
X193253500Y-70017500D01*
X193253500Y-70017500D02*
X194437000Y-68834000D01*
X137643000Y-68884800D02*
X138769600Y-70011400D01*
X138769600Y-70011400D02*
X155464800Y-70011400D01*
X155464800Y-70011400D02*
X156439000Y-69037200D01*
X157124000Y-50749200D02*
X156042900Y-49668100D01*
X156042900Y-49668100D02*
X139307900Y-49668100D01*
X139307900Y-49668100D02*
X138176000Y-50800000D01*
X214376000Y-125702400D02*
X214500400Y-125702400D01*
X214500400Y-125702400D02*
X215646000Y-126848000D01*
X197663000Y-126848000D02*
X198808600Y-125702400D01*
X198808600Y-125702400D02*
X214376000Y-125702400D01*
X214376000Y-125702400D02*
X214376000Y-107848000D01*
X191846000Y-107848000D02*
X194767000Y-107848000D01*
X194767000Y-107848000D02*
X194818000Y-107899000D01*
X173025000Y-88747600D02*
X171876300Y-89896300D01*
X171876300Y-89896300D02*
X156266100Y-89896300D01*
X156266100Y-89896300D02*
X155092000Y-88722200D01*
X137592000Y-88823800D02*
X138761700Y-87654100D01*
X138761700Y-87654100D02*
X154023900Y-87654100D01*
X154023900Y-87654100D02*
X155092000Y-88722200D01*
X113386000Y-126848000D02*
X112260500Y-125722500D01*
X112260500Y-125722500D02*
X94648300Y-125722500D01*
X94648300Y-125722500D02*
X93522800Y-126848000D01*
X113386000Y-126848000D02*
X114529000Y-125705000D01*
X114529000Y-125705000D02*
X134595000Y-125705000D01*
X134595000Y-125705000D02*
X135788000Y-126898000D01*
X70764400Y-107823000D02*
X71904100Y-108962700D01*
X71904100Y-108962700D02*
X88852500Y-108962700D01*
X88852500Y-108962700D02*
X89865200Y-107950000D01*
X70764400Y-107823000D02*
X69537000Y-109050400D01*
X69537000Y-109050400D02*
X52738200Y-109050400D01*
X52738200Y-109050400D02*
X51612800Y-107925000D01*
X49690200Y-128023400D02*
X48564800Y-126898000D01*
X67411600Y-126898000D02*
X66286200Y-128023400D01*
X66286200Y-128023400D02*
X49690200Y-128023400D01*
X51511200Y-145898000D02*
X49027700Y-143414500D01*
X49027700Y-143414500D02*
X49027700Y-128685900D01*
X49027700Y-128685900D02*
X49690200Y-128023400D01*
X214427000Y-50749200D02*
X213352400Y-49674600D01*
X213352400Y-49674600D02*
X196502400Y-49674600D01*
X196502400Y-49674600D02*
X195377000Y-50800000D01*
X154026000Y-126848000D02*
X152850600Y-128023400D01*
X152850600Y-128023400D02*
X136913400Y-128023400D01*
X136913400Y-128023400D02*
X135788000Y-126898000D01*
X51816000Y-50800000D02*
X52951400Y-49664600D01*
X52951400Y-49664600D02*
X70340200Y-49664600D01*
X70340200Y-49664600D02*
X71374000Y-50698400D01*
X70866000Y-145923000D02*
X71993200Y-147050200D01*
X71993200Y-147050200D02*
X89144200Y-147050200D01*
X89144200Y-147050200D02*
X90068400Y-146126000D01*
X71069200Y-69062600D02*
X72241600Y-70235000D01*
X72241600Y-70235000D02*
X88134000Y-70235000D01*
X88134000Y-70235000D02*
X89306400Y-69062600D01*
X51689000Y-68834000D02*
X52846300Y-69991300D01*
X52846300Y-69991300D02*
X70140500Y-69991300D01*
X70140500Y-69991300D02*
X71069200Y-69062600D01*
X194818000Y-107899000D02*
X195976300Y-106740700D01*
X195976300Y-106740700D02*
X213268700Y-106740700D01*
X213268700Y-106740700D02*
X214376000Y-107848000D01*
X137338000Y-107899000D02*
X138474000Y-106763000D01*
X138474000Y-106763000D02*
X154947000Y-106763000D01*
X154947000Y-106763000D02*
X156109000Y-107925000D01*
X214113100Y-139265300D02*
X219964000Y-133414400D01*
X219964000Y-133414400D02*
X219964000Y-130353000D01*
X210439000Y-149478000D02*
X210439000Y-142939400D01*
X210439000Y-142939400D02*
X214113100Y-139265300D01*
X214113100Y-139265300D02*
X206962500Y-132114700D01*
X206962500Y-132114700D02*
X202624700Y-132114700D01*
X202624700Y-132114700D02*
X200939000Y-130429000D01*
X181813000Y-92252800D02*
X182999300Y-91066500D01*
X182999300Y-91066500D02*
X199575100Y-91066500D01*
X199575100Y-91066500D02*
X200863000Y-92354400D01*
X120015000Y-54229000D02*
X121192400Y-53051600D01*
X121192400Y-53051600D02*
X142586600Y-53051600D01*
X142586600Y-53051600D02*
X143764000Y-54229000D01*
X162864000Y-130378000D02*
X164059700Y-129182300D01*
X164059700Y-129182300D02*
X180769300Y-129182300D01*
X180769300Y-129182300D02*
X181940000Y-130353000D01*
X162864000Y-130378000D02*
X161717200Y-129231200D01*
X161717200Y-129231200D02*
X144986800Y-129231200D01*
X144986800Y-129231200D02*
X143815000Y-130403000D01*
X217256000Y-72014700D02*
X202102100Y-72014700D01*
X202102100Y-72014700D02*
X200914000Y-73202800D01*
X219913000Y-73253600D02*
X218674100Y-72014700D01*
X218674100Y-72014700D02*
X217256000Y-72014700D01*
X219964000Y-54229000D02*
X217898600Y-56294400D01*
X217898600Y-56294400D02*
X217898600Y-61870600D01*
X217898600Y-61870600D02*
X217256000Y-62513200D01*
X217256000Y-62513200D02*
X217256000Y-72014700D01*
X181864000Y-73202800D02*
X183034700Y-72032100D01*
X183034700Y-72032100D02*
X199743300Y-72032100D01*
X199743300Y-72032100D02*
X200914000Y-73202800D01*
X162839000Y-73253600D02*
X164009800Y-72082800D01*
X164009800Y-72082800D02*
X180744000Y-72082800D01*
X180744000Y-72082800D02*
X181864000Y-73202800D01*
X200939000Y-130429000D02*
X199648600Y-129138600D01*
X199648600Y-129138600D02*
X183154400Y-129138600D01*
X183154400Y-129138600D02*
X181940000Y-130353000D01*
X181889000Y-111303000D02*
X180817900Y-110231900D01*
X180817900Y-110231900D02*
X163961100Y-110231900D01*
X163961100Y-110231900D02*
X162789000Y-111404000D01*
X162763000Y-92329000D02*
X163933700Y-91158300D01*
X163933700Y-91158300D02*
X180718500Y-91158300D01*
X180718500Y-91158300D02*
X181813000Y-92252800D01*
X162763000Y-92329000D02*
X161566600Y-91132600D01*
X161566600Y-91132600D02*
X144960800Y-91132600D01*
X144960800Y-91132600D02*
X143739000Y-92354400D01*
X96139000Y-111379000D02*
X97309600Y-110208400D01*
X97309600Y-110208400D02*
X118819400Y-110208400D01*
X118819400Y-110208400D02*
X119964000Y-111353000D01*
X77063600Y-111379000D02*
X78234200Y-110208400D01*
X78234200Y-110208400D02*
X94968400Y-110208400D01*
X94968400Y-110208400D02*
X96139000Y-111379000D01*
X58013600Y-149403000D02*
X59224800Y-150614200D01*
X59224800Y-150614200D02*
X67099800Y-150614200D01*
X67099800Y-150614200D02*
X68235000Y-149479000D01*
X68235000Y-149479000D02*
X77064000Y-149479000D01*
X58115200Y-73304400D02*
X59285900Y-72133700D01*
X59285900Y-72133700D02*
X75969100Y-72133700D01*
X75969100Y-72133700D02*
X77139800Y-73304400D01*
X48801300Y-59628000D02*
X48801300Y-67576100D01*
X48801300Y-67576100D02*
X54529600Y-73304400D01*
X54529600Y-73304400D02*
X58115200Y-73304400D01*
X58064400Y-54254400D02*
X54174900Y-54254400D01*
X54174900Y-54254400D02*
X48801300Y-59628000D01*
X48188800Y-59628000D02*
X48801300Y-59628000D01*
X77063600Y-92329000D02*
X75816700Y-91082100D01*
X75816700Y-91082100D02*
X59235100Y-91082100D01*
X59235100Y-91082100D02*
X58013600Y-92303600D01*
X77139800Y-130429000D02*
X78326300Y-129242500D01*
X78326300Y-129242500D02*
X95053500Y-129242500D01*
X95053500Y-129242500D02*
X96139000Y-130328000D01*
X77139800Y-130429000D02*
X75958500Y-129247700D01*
X75958500Y-129247700D02*
X59271100Y-129247700D01*
X59271100Y-129247700D02*
X58089800Y-130429000D01*
X77064000Y-149479000D02*
X78250200Y-148292800D01*
X78250200Y-148292800D02*
X94979200Y-148292800D01*
X94979200Y-148292800D02*
X96139400Y-149453000D01*
X58089800Y-111404000D02*
X59260400Y-110233400D01*
X59260400Y-110233400D02*
X75918000Y-110233400D01*
X75918000Y-110233400D02*
X77063600Y-111379000D01*
X96139000Y-73304400D02*
X94954200Y-72119600D01*
X94954200Y-72119600D02*
X78324600Y-72119600D01*
X78324600Y-72119600D02*
X77139800Y-73304400D01*
X47188500Y-59628000D02*
X48188800Y-59628000D01*
X135941000Y-101397000D02*
X137066300Y-101397000D01*
X137066300Y-101397000D02*
X137418100Y-101045200D01*
X137418100Y-101045200D02*
X147077400Y-101045200D01*
X147077400Y-101045200D02*
X147437400Y-101405200D01*
X147437400Y-101405200D02*
X153348500Y-101405200D01*
X153348500Y-101405200D02*
X153712700Y-101041000D01*
X113114300Y-101219000D02*
X113303100Y-101030200D01*
X113303100Y-101030200D02*
X123785100Y-101030200D01*
X123785100Y-101030200D02*
X124151900Y-101397000D01*
X124151900Y-101397000D02*
X135941000Y-101397000D01*
X154838000Y-101041000D02*
X153712700Y-101041000D01*
X212039000Y-101295000D02*
X210913700Y-101295000D01*
X192426400Y-101244000D02*
X192611900Y-101058500D01*
X192611900Y-101058500D02*
X204737400Y-101058500D01*
X204737400Y-101058500D02*
X205081700Y-101402800D01*
X205081700Y-101402800D02*
X210805900Y-101402800D01*
X210805900Y-101402800D02*
X210913700Y-101295000D01*
X192426400Y-101244000D02*
X191863700Y-101244000D01*
X192989000Y-101244000D02*
X192426400Y-101244000D01*
X173554400Y-101092000D02*
X173733600Y-100912800D01*
X173733600Y-100912800D02*
X185541700Y-100912800D01*
X185541700Y-100912800D02*
X185928900Y-101300000D01*
X185928900Y-101300000D02*
X191807700Y-101300000D01*
X191807700Y-101300000D02*
X191863700Y-101244000D01*
X173554400Y-101092000D02*
X172991700Y-101092000D01*
X174117000Y-101092000D02*
X173554400Y-101092000D01*
X69342000Y-101346000D02*
X68216700Y-101346000D01*
X50165000Y-100965000D02*
X59425100Y-100965000D01*
X59425100Y-100965000D02*
X59866700Y-101406600D01*
X59866700Y-101406600D02*
X68156100Y-101406600D01*
X68156100Y-101406600D02*
X68216700Y-101346000D01*
X88265000Y-101092000D02*
X87139700Y-101092000D01*
X69342000Y-101346000D02*
X70467300Y-101346000D01*
X70467300Y-101346000D02*
X70769500Y-101043800D01*
X70769500Y-101043800D02*
X79297900Y-101043800D01*
X79297900Y-101043800D02*
X79632800Y-101378700D01*
X79632800Y-101378700D02*
X86853000Y-101378700D01*
X86853000Y-101378700D02*
X87139700Y-101092000D01*
X154838000Y-101041000D02*
X166619900Y-101041000D01*
X166619900Y-101041000D02*
X166983800Y-101404900D01*
X166983800Y-101404900D02*
X172678800Y-101404900D01*
X172678800Y-101404900D02*
X172991700Y-101092000D01*
X111989000Y-101219000D02*
X113114300Y-101219000D01*
X111426400Y-101219000D02*
X111989000Y-101219000D01*
X111426400Y-101219000D02*
X110863700Y-101219000D01*
X88265000Y-101092000D02*
X89390300Y-101092000D01*
X89390300Y-101092000D02*
X89475200Y-101007100D01*
X89475200Y-101007100D02*
X98391600Y-101007100D01*
X98391600Y-101007100D02*
X98759900Y-101375400D01*
X98759900Y-101375400D02*
X110707300Y-101375400D01*
X110707300Y-101375400D02*
X110863700Y-101219000D01*
X112039000Y-120218000D02*
X110913700Y-120218000D01*
X88214200Y-120269000D02*
X89339500Y-120269000D01*
X89339500Y-120269000D02*
X89525100Y-120083400D01*
X89525100Y-120083400D02*
X98792100Y-120083400D01*
X98792100Y-120083400D02*
X99143900Y-120435200D01*
X99143900Y-120435200D02*
X110696500Y-120435200D01*
X110696500Y-120435200D02*
X110913700Y-120218000D01*
X87651600Y-120269000D02*
X88214200Y-120269000D01*
X192989000Y-120040000D02*
X191863700Y-120040000D01*
X173452400Y-120091000D02*
X173538800Y-120004600D01*
X173538800Y-120004600D02*
X182870400Y-120004600D01*
X182870400Y-120004600D02*
X183257100Y-120391300D01*
X183257100Y-120391300D02*
X191512400Y-120391300D01*
X191512400Y-120391300D02*
X191863700Y-120040000D01*
X173452400Y-120091000D02*
X172889700Y-120091000D01*
X174015000Y-120091000D02*
X173452400Y-120091000D01*
X154864000Y-120269000D02*
X155989300Y-120269000D01*
X155989300Y-120269000D02*
X156171800Y-120086500D01*
X156171800Y-120086500D02*
X164221600Y-120086500D01*
X164221600Y-120086500D02*
X164584800Y-120449700D01*
X164584800Y-120449700D02*
X172531000Y-120449700D01*
X172531000Y-120449700D02*
X172889700Y-120091000D01*
X154301400Y-120269000D02*
X154864000Y-120269000D01*
X69240400Y-120218000D02*
X68115100Y-120218000D01*
X50165000Y-120523000D02*
X51290300Y-120523000D01*
X51290300Y-120523000D02*
X51722700Y-120090600D01*
X51722700Y-120090600D02*
X61830200Y-120090600D01*
X61830200Y-120090600D02*
X62204900Y-120465300D01*
X62204900Y-120465300D02*
X67867800Y-120465300D01*
X67867800Y-120465300D02*
X68115100Y-120218000D01*
X212090000Y-120091000D02*
X210964700Y-120091000D01*
X192989000Y-120040000D02*
X203910500Y-120040000D01*
X203910500Y-120040000D02*
X204370800Y-120500300D01*
X204370800Y-120500300D02*
X210555400Y-120500300D01*
X210555400Y-120500300D02*
X210964700Y-120091000D01*
X154301400Y-120269000D02*
X153738700Y-120269000D01*
X135814000Y-120218000D02*
X134688700Y-120218000D01*
X112039000Y-120218000D02*
X113164300Y-120218000D01*
X113164300Y-120218000D02*
X113346800Y-120035500D01*
X113346800Y-120035500D02*
X122971400Y-120035500D01*
X122971400Y-120035500D02*
X123341000Y-120405100D01*
X123341000Y-120405100D02*
X134501600Y-120405100D01*
X134501600Y-120405100D02*
X134688700Y-120218000D01*
X135814000Y-120218000D02*
X136939300Y-120218000D01*
X136939300Y-120218000D02*
X137118500Y-120038800D01*
X137118500Y-120038800D02*
X145148900Y-120038800D01*
X145148900Y-120038800D02*
X145575300Y-120465200D01*
X145575300Y-120465200D02*
X153542500Y-120465200D01*
X153542500Y-120465200D02*
X153738700Y-120269000D01*
X87651600Y-120269000D02*
X87088900Y-120269000D01*
X69240400Y-120218000D02*
X70365700Y-120218000D01*
X70365700Y-120218000D02*
X70544900Y-120038800D01*
X70544900Y-120038800D02*
X78473500Y-120038800D01*
X78473500Y-120038800D02*
X78899900Y-120465200D01*
X78899900Y-120465200D02*
X86892700Y-120465200D01*
X86892700Y-120465200D02*
X87088900Y-120269000D01*
X211988000Y-139294000D02*
X210862700Y-139294000D01*
X192477400Y-139319000D02*
X192663000Y-139133400D01*
X192663000Y-139133400D02*
X203682300Y-139133400D01*
X203682300Y-139133400D02*
X204044100Y-139495200D01*
X204044100Y-139495200D02*
X210661500Y-139495200D01*
X210661500Y-139495200D02*
X210862700Y-139294000D01*
X192477400Y-139319000D02*
X191914700Y-139319000D01*
X193040000Y-139319000D02*
X192477400Y-139319000D01*
X173503400Y-139243000D02*
X173689000Y-139057400D01*
X173689000Y-139057400D02*
X185697300Y-139057400D01*
X185697300Y-139057400D02*
X186067100Y-139427200D01*
X186067100Y-139427200D02*
X191806500Y-139427200D01*
X191806500Y-139427200D02*
X191914700Y-139319000D01*
X173503400Y-139243000D02*
X172940700Y-139243000D01*
X174066000Y-139243000D02*
X173503400Y-139243000D01*
X69215000Y-139446000D02*
X68089700Y-139446000D01*
X50165000Y-139446000D02*
X51290300Y-139446000D01*
X51290300Y-139446000D02*
X51592500Y-139143800D01*
X51592500Y-139143800D02*
X59554700Y-139143800D01*
X59554700Y-139143800D02*
X59918300Y-139507400D01*
X59918300Y-139507400D02*
X68028300Y-139507400D01*
X68028300Y-139507400D02*
X68089700Y-139446000D01*
X88239600Y-139421000D02*
X87114300Y-139421000D01*
X69215000Y-139446000D02*
X70340300Y-139446000D01*
X70340300Y-139446000D02*
X70642500Y-139143800D01*
X70642500Y-139143800D02*
X79390100Y-139143800D01*
X79390100Y-139143800D02*
X79767200Y-139520900D01*
X79767200Y-139520900D02*
X87014400Y-139520900D01*
X87014400Y-139520900D02*
X87114300Y-139421000D01*
X135865000Y-139268000D02*
X134739700Y-139268000D01*
X111912000Y-139217000D02*
X113037300Y-139217000D01*
X113037300Y-139217000D02*
X113216500Y-139037800D01*
X113216500Y-139037800D02*
X121347900Y-139037800D01*
X121347900Y-139037800D02*
X121774300Y-139464200D01*
X121774300Y-139464200D02*
X134543500Y-139464200D01*
X134543500Y-139464200D02*
X134739700Y-139268000D01*
X111349400Y-139217000D02*
X111912000Y-139217000D01*
X111349400Y-139217000D02*
X110786700Y-139217000D01*
X88239600Y-139421000D02*
X89364900Y-139421000D01*
X89364900Y-139421000D02*
X89745900Y-139040000D01*
X89745900Y-139040000D02*
X97601100Y-139040000D01*
X97601100Y-139040000D02*
X97974400Y-139413300D01*
X97974400Y-139413300D02*
X110590400Y-139413300D01*
X110590400Y-139413300D02*
X110786700Y-139217000D01*
X154402400Y-139268000D02*
X154591200Y-139079200D01*
X154591200Y-139079200D02*
X164179100Y-139079200D01*
X164179100Y-139079200D02*
X164527300Y-139427400D01*
X164527300Y-139427400D02*
X172756300Y-139427400D01*
X172756300Y-139427400D02*
X172940700Y-139243000D01*
X154402400Y-139268000D02*
X153839700Y-139268000D01*
X154965000Y-139268000D02*
X154402400Y-139268000D01*
X135865000Y-139268000D02*
X136990300Y-139268000D01*
X136990300Y-139268000D02*
X137172800Y-139085500D01*
X137172800Y-139085500D02*
X147532800Y-139085500D01*
X147532800Y-139085500D02*
X147902300Y-139455000D01*
X147902300Y-139455000D02*
X153652700Y-139455000D01*
X153652700Y-139455000D02*
X153839700Y-139268000D01*
X112090000Y-158445000D02*
X113215300Y-158445000D01*
X113215300Y-158445000D02*
X113512800Y-158147500D01*
X113512800Y-158147500D02*
X123354600Y-158147500D01*
X123354600Y-158147500D02*
X123720900Y-158513800D01*
X123720900Y-158513800D02*
X139597900Y-158513800D01*
X139597900Y-158513800D02*
X139742700Y-158369000D01*
X112090000Y-158445000D02*
X104607300Y-158445000D01*
X104607300Y-158445000D02*
X101761600Y-155599300D01*
X101761600Y-155599300D02*
X99783100Y-155599300D01*
X99783100Y-155599300D02*
X97929300Y-157453100D01*
X97929300Y-157453100D02*
X88290400Y-157453100D01*
X140868000Y-158369000D02*
X139742700Y-158369000D01*
X169189000Y-158216000D02*
X168063700Y-158216000D01*
X140868000Y-158369000D02*
X141993300Y-158369000D01*
X141993300Y-158369000D02*
X142175800Y-158186500D01*
X142175800Y-158186500D02*
X152174400Y-158186500D01*
X152174400Y-158186500D02*
X152569400Y-158581500D01*
X152569400Y-158581500D02*
X167698200Y-158581500D01*
X167698200Y-158581500D02*
X168063700Y-158216000D01*
X192659000Y-158318000D02*
X191533700Y-158318000D01*
X169189000Y-158216000D02*
X170314300Y-158216000D01*
X170314300Y-158216000D02*
X170399200Y-158131100D01*
X170399200Y-158131100D02*
X180592200Y-158131100D01*
X180592200Y-158131100D02*
X180984000Y-158522900D01*
X180984000Y-158522900D02*
X191328800Y-158522900D01*
X191328800Y-158522900D02*
X191533700Y-158318000D01*
X88290400Y-157453100D02*
X84514000Y-157453100D01*
X84514000Y-157453100D02*
X82686200Y-155625300D01*
X82686200Y-155625300D02*
X80707700Y-155625300D01*
X80707700Y-155625300D02*
X78853900Y-157479100D01*
X78853900Y-157479100D02*
X69088000Y-157479100D01*
X88290400Y-157453100D02*
X88290400Y-158064000D01*
X50190400Y-157937000D02*
X59269600Y-157937000D01*
X59269600Y-157937000D02*
X61657300Y-155549300D01*
X61657300Y-155549300D02*
X63635800Y-155549300D01*
X63635800Y-155549300D02*
X65565600Y-157479100D01*
X65565600Y-157479100D02*
X69088000Y-157479100D01*
X69088000Y-158242000D02*
X69088000Y-157479100D01*
X107873800Y-88823800D02*
X102158800Y-88823800D01*
X102158800Y-88823800D02*
X98653600Y-92329000D01*
X130150000Y-88773000D02*
X129024700Y-88773000D01*
X122479000Y-92303600D02*
X125494100Y-92303600D01*
X125494100Y-92303600D02*
X129024700Y-88773000D01*
X213157000Y-88747600D02*
X207009800Y-88747600D01*
X207009800Y-88747600D02*
X203403000Y-92354400D01*
X128803000Y-107899000D02*
X127677700Y-107899000D01*
X122504000Y-111353000D02*
X124223700Y-111353000D01*
X124223700Y-111353000D02*
X127677700Y-107899000D01*
X176606000Y-107848000D02*
X180974000Y-107848000D01*
X180974000Y-107848000D02*
X184429000Y-111303000D01*
X108762800Y-126848000D02*
X102159000Y-126848000D01*
X102159000Y-126848000D02*
X98679000Y-130328000D01*
X128626000Y-126848000D02*
X127500700Y-126848000D01*
X122478000Y-130378000D02*
X123970700Y-130378000D01*
X123970700Y-130378000D02*
X127500700Y-126848000D01*
X212903000Y-126848000D02*
X207060000Y-126848000D01*
X207060000Y-126848000D02*
X203479000Y-130429000D01*
X66751200Y-145898000D02*
X64058600Y-145898000D01*
X64058600Y-145898000D02*
X60553600Y-149403000D01*
X105308400Y-146126000D02*
X102006400Y-146126000D01*
X102006400Y-146126000D02*
X98679400Y-149453000D01*
X129108000Y-145999000D02*
X127982700Y-145999000D01*
X122479000Y-149453000D02*
X124528700Y-149453000D01*
X124528700Y-149453000D02*
X127982700Y-145999000D01*
X157505000Y-145923000D02*
X156379700Y-145923000D01*
X151079000Y-149504000D02*
X152798700Y-149504000D01*
X152798700Y-149504000D02*
X156379700Y-145923000D01*
X132482000Y-164186000D02*
X70256600Y-164186000D01*
X70256600Y-164186000D02*
X63093600Y-157023000D01*
X134482000Y-164186000D02*
X132361900Y-162065900D01*
X132361900Y-162065900D02*
X87110900Y-162065900D01*
X87110900Y-162065900D02*
X82144000Y-157099000D01*
X136482000Y-164186000D02*
X133851800Y-161555800D01*
X133851800Y-161555800D02*
X105702200Y-161555800D01*
X105702200Y-161555800D02*
X101219400Y-157073000D01*
X212039000Y-93675000D02*
X212039000Y-95808600D01*
X212039000Y-95808600D02*
X218694000Y-102463600D01*
X224993000Y-80873600D02*
X224993000Y-61900000D01*
X224993000Y-61900000D02*
X225044000Y-61849000D01*
X225044000Y-99923600D02*
X220959700Y-104007900D01*
X220959700Y-104007900D02*
X106785800Y-104007900D01*
X106785800Y-104007900D02*
X101035700Y-109758000D01*
X101035700Y-109758000D02*
X50943500Y-109758000D01*
X50943500Y-109758000D02*
X47431500Y-113270000D01*
X46431200Y-113270000D02*
X47431500Y-113270000D01*
X229667000Y-50749200D02*
X225983800Y-50749200D01*
X225983800Y-50749200D02*
X222504000Y-54229000D01*
X230734000Y-88747600D02*
X226060000Y-88747600D01*
X226060000Y-88747600D02*
X222504000Y-92303600D01*
X229616000Y-107848000D02*
X226010000Y-107848000D01*
X226010000Y-107848000D02*
X222504000Y-111354000D01*
X230886000Y-126848000D02*
X226009000Y-126848000D01*
X226009000Y-126848000D02*
X222504000Y-130353000D01*
M02*
