%TF.GenerationSoftware,KiCad,Pcbnew,5.1.5+dfsg1-2build2*%
%TF.CreationDate,2021-08-29T11:58:19+02:00*%
%TF.ProjectId,BFK9kv2-left,42464b39-6b76-4322-9d6c-6566742e6b69,rev?*%
%TF.SameCoordinates,Original*%
%TF.FileFunction,Legend,Top*%
%TF.FilePolarity,Positive*%
%FSLAX46Y46*%
G04 Gerber Fmt 4.6, Leading zero omitted, Abs format (unit mm)*
G04 Created by KiCad (PCBNEW 5.1.5+dfsg1-2build2) date 2021-08-29 11:58:19*
%MOMM*%
%LPD*%
G04 APERTURE LIST*
%ADD10C,0.120000*%
%ADD11C,0.150000*%
%ADD12C,1.792600*%
%ADD13C,2.302000*%
%ADD14C,1.852000*%
%ADD15C,4.102000*%
%ADD16O,1.702000X1.702000*%
%ADD17C,1.702000*%
%ADD18R,1.702000X1.702000*%
%ADD19C,5.702000*%
%ADD20O,1.452000X1.452000*%
%ADD21R,1.452000X1.452000*%
G04 APERTURE END LIST*
D10*
X228234000Y-66309000D02*
X228234000Y-52309000D01*
X228234000Y-66309000D02*
X214234000Y-66309000D01*
X214234000Y-66309000D02*
X214234000Y-52309000D01*
X214234000Y-52309000D02*
X228234000Y-52309000D01*
X104409400Y-161533000D02*
X104409400Y-147533000D01*
X104409400Y-161533000D02*
X90409400Y-161533000D01*
X90409400Y-161533000D02*
X90409400Y-147533000D01*
X90409400Y-147533000D02*
X104409400Y-147533000D01*
X85334000Y-161559000D02*
X85334000Y-147559000D01*
X85334000Y-161559000D02*
X71334000Y-161559000D01*
X71334000Y-161559000D02*
X71334000Y-147559000D01*
X71334000Y-147559000D02*
X85334000Y-147559000D01*
X209184000Y-66309000D02*
X209184000Y-52309000D01*
X209184000Y-66309000D02*
X195184000Y-66309000D01*
X195184000Y-66309000D02*
X195184000Y-52309000D01*
X195184000Y-52309000D02*
X209184000Y-52309000D01*
X218709000Y-161558000D02*
X218709000Y-147558000D01*
X218709000Y-161558000D02*
X204709000Y-161558000D01*
X204709000Y-161558000D02*
X204709000Y-147558000D01*
X204709000Y-147558000D02*
X218709000Y-147558000D01*
X185384000Y-161533000D02*
X185384000Y-147533000D01*
X185384000Y-161533000D02*
X171384000Y-161533000D01*
X171384000Y-161533000D02*
X171384000Y-147533000D01*
X171384000Y-147533000D02*
X185384000Y-147533000D01*
X156809000Y-161584000D02*
X156809000Y-147584000D01*
X156809000Y-161584000D02*
X142809000Y-161584000D01*
X142809000Y-161584000D02*
X142809000Y-147584000D01*
X142809000Y-147584000D02*
X156809000Y-147584000D01*
X66283600Y-161483000D02*
X66283600Y-147483000D01*
X66283600Y-161483000D02*
X52283600Y-161483000D01*
X52283600Y-161483000D02*
X52283600Y-147483000D01*
X52283600Y-147483000D02*
X66283600Y-147483000D01*
X228234000Y-142433000D02*
X228234000Y-128433000D01*
X228234000Y-142433000D02*
X214234000Y-142433000D01*
X214234000Y-142433000D02*
X214234000Y-128433000D01*
X214234000Y-128433000D02*
X228234000Y-128433000D01*
X190210000Y-142433000D02*
X190210000Y-128433000D01*
X190210000Y-142433000D02*
X176210000Y-142433000D01*
X176210000Y-142433000D02*
X176210000Y-128433000D01*
X176210000Y-128433000D02*
X190210000Y-128433000D01*
X128208000Y-142458000D02*
X128208000Y-128458000D01*
X128208000Y-142458000D02*
X114208000Y-142458000D01*
X114208000Y-142458000D02*
X114208000Y-128458000D01*
X114208000Y-128458000D02*
X128208000Y-128458000D01*
X228234000Y-123434000D02*
X228234000Y-109434000D01*
X228234000Y-123434000D02*
X214234000Y-123434000D01*
X214234000Y-123434000D02*
X214234000Y-109434000D01*
X214234000Y-109434000D02*
X228234000Y-109434000D01*
X209184000Y-123484000D02*
X209184000Y-109484000D01*
X209184000Y-123484000D02*
X195184000Y-123484000D01*
X195184000Y-123484000D02*
X195184000Y-109484000D01*
X195184000Y-109484000D02*
X209184000Y-109484000D01*
X190159000Y-123383000D02*
X190159000Y-109383000D01*
X190159000Y-123383000D02*
X176159000Y-123383000D01*
X176159000Y-123383000D02*
X176159000Y-109383000D01*
X176159000Y-109383000D02*
X190159000Y-109383000D01*
X128234000Y-123433000D02*
X128234000Y-109433000D01*
X128234000Y-123433000D02*
X114234000Y-123433000D01*
X114234000Y-123433000D02*
X114234000Y-109433000D01*
X114234000Y-109433000D02*
X128234000Y-109433000D01*
X228234000Y-104383600D02*
X228234000Y-90383600D01*
X228234000Y-104383600D02*
X214234000Y-104383600D01*
X214234000Y-104383600D02*
X214234000Y-90383600D01*
X214234000Y-90383600D02*
X228234000Y-90383600D01*
X190083000Y-104332800D02*
X190083000Y-90332800D01*
X190083000Y-104332800D02*
X176083000Y-104332800D01*
X176083000Y-104332800D02*
X176083000Y-90332800D01*
X176083000Y-90332800D02*
X190083000Y-90332800D01*
X128209000Y-104383600D02*
X128209000Y-90383600D01*
X128209000Y-104383600D02*
X114209000Y-104383600D01*
X114209000Y-104383600D02*
X114209000Y-90383600D01*
X114209000Y-90383600D02*
X128209000Y-90383600D01*
X228183000Y-85333600D02*
X228183000Y-71333600D01*
X228183000Y-85333600D02*
X214183000Y-85333600D01*
X214183000Y-85333600D02*
X214183000Y-71333600D01*
X214183000Y-71333600D02*
X228183000Y-71333600D01*
X209184000Y-85282800D02*
X209184000Y-71282800D01*
X209184000Y-85282800D02*
X195184000Y-85282800D01*
X195184000Y-85282800D02*
X195184000Y-71282800D01*
X195184000Y-71282800D02*
X209184000Y-71282800D01*
X190134000Y-85282800D02*
X190134000Y-71282800D01*
X190134000Y-85282800D02*
X176134000Y-85282800D01*
X176134000Y-85282800D02*
X176134000Y-71282800D01*
X176134000Y-71282800D02*
X190134000Y-71282800D01*
X128183000Y-85359000D02*
X128183000Y-71359000D01*
X128183000Y-85359000D02*
X114183000Y-85359000D01*
X114183000Y-85359000D02*
X114183000Y-71359000D01*
X114183000Y-71359000D02*
X128183000Y-71359000D01*
X128285000Y-66309000D02*
X128285000Y-52309000D01*
X128285000Y-66309000D02*
X114285000Y-66309000D01*
X114285000Y-66309000D02*
X114285000Y-52309000D01*
X114285000Y-52309000D02*
X128285000Y-52309000D01*
X128209000Y-161533000D02*
X128209000Y-147533000D01*
X128209000Y-161533000D02*
X114209000Y-161533000D01*
X114209000Y-161533000D02*
X114209000Y-147533000D01*
X114209000Y-147533000D02*
X128209000Y-147533000D01*
X209209000Y-142509000D02*
X209209000Y-128509000D01*
X209209000Y-142509000D02*
X195209000Y-142509000D01*
X195209000Y-142509000D02*
X195209000Y-128509000D01*
X195209000Y-128509000D02*
X209209000Y-128509000D01*
X209133000Y-104434400D02*
X209133000Y-90434400D01*
X209133000Y-104434400D02*
X195133000Y-104434400D01*
X195133000Y-104434400D02*
X195133000Y-90434400D01*
X195133000Y-90434400D02*
X209133000Y-90434400D01*
X171134000Y-142458000D02*
X171134000Y-128458000D01*
X171134000Y-142458000D02*
X157134000Y-142458000D01*
X157134000Y-142458000D02*
X157134000Y-128458000D01*
X157134000Y-128458000D02*
X171134000Y-128458000D01*
X171059000Y-123484000D02*
X171059000Y-109484000D01*
X171059000Y-123484000D02*
X157059000Y-123484000D01*
X157059000Y-123484000D02*
X157059000Y-109484000D01*
X157059000Y-109484000D02*
X171059000Y-109484000D01*
X171033000Y-104409000D02*
X171033000Y-90409000D01*
X171033000Y-104409000D02*
X157033000Y-104409000D01*
X157033000Y-104409000D02*
X157033000Y-90409000D01*
X157033000Y-90409000D02*
X171033000Y-90409000D01*
X152085000Y-142483000D02*
X152085000Y-128483000D01*
X152085000Y-142483000D02*
X138085000Y-142483000D01*
X138085000Y-142483000D02*
X138085000Y-128483000D01*
X138085000Y-128483000D02*
X152085000Y-128483000D01*
X152009000Y-123459000D02*
X152009000Y-109459000D01*
X152009000Y-123459000D02*
X138009000Y-123459000D01*
X138009000Y-123459000D02*
X138009000Y-109459000D01*
X138009000Y-109459000D02*
X152009000Y-109459000D01*
X152009000Y-104434400D02*
X152009000Y-90434400D01*
X152009000Y-104434400D02*
X138009000Y-104434400D01*
X138009000Y-104434400D02*
X138009000Y-90434400D01*
X138009000Y-90434400D02*
X152009000Y-90434400D01*
X104409000Y-142408000D02*
X104409000Y-128408000D01*
X104409000Y-142408000D02*
X90409000Y-142408000D01*
X90409000Y-142408000D02*
X90409000Y-128408000D01*
X90409000Y-128408000D02*
X104409000Y-128408000D01*
X104409000Y-123459000D02*
X104409000Y-109459000D01*
X104409000Y-123459000D02*
X90409000Y-123459000D01*
X90409000Y-123459000D02*
X90409000Y-109459000D01*
X90409000Y-109459000D02*
X104409000Y-109459000D01*
X104383600Y-104409000D02*
X104383600Y-90409000D01*
X104383600Y-104409000D02*
X90383600Y-104409000D01*
X90383600Y-104409000D02*
X90383600Y-90409000D01*
X90383600Y-90409000D02*
X104383600Y-90409000D01*
X85409800Y-142509000D02*
X85409800Y-128509000D01*
X85409800Y-142509000D02*
X71409800Y-142509000D01*
X71409800Y-142509000D02*
X71409800Y-128509000D01*
X71409800Y-128509000D02*
X85409800Y-128509000D01*
X85333600Y-123459000D02*
X85333600Y-109459000D01*
X85333600Y-123459000D02*
X71333600Y-123459000D01*
X71333600Y-123459000D02*
X71333600Y-109459000D01*
X71333600Y-109459000D02*
X85333600Y-109459000D01*
X85333600Y-104409000D02*
X85333600Y-90409000D01*
X85333600Y-104409000D02*
X71333600Y-104409000D01*
X71333600Y-104409000D02*
X71333600Y-90409000D01*
X71333600Y-90409000D02*
X85333600Y-90409000D01*
X66359800Y-142509000D02*
X66359800Y-128509000D01*
X66359800Y-142509000D02*
X52359800Y-142509000D01*
X52359800Y-142509000D02*
X52359800Y-128509000D01*
X52359800Y-128509000D02*
X66359800Y-128509000D01*
X66359800Y-123484000D02*
X66359800Y-109484000D01*
X66359800Y-123484000D02*
X52359800Y-123484000D01*
X52359800Y-123484000D02*
X52359800Y-109484000D01*
X52359800Y-109484000D02*
X66359800Y-109484000D01*
X66283600Y-104383600D02*
X66283600Y-90383600D01*
X66283600Y-104383600D02*
X52283600Y-104383600D01*
X52283600Y-104383600D02*
X52283600Y-90383600D01*
X52283600Y-90383600D02*
X66283600Y-90383600D01*
X170982000Y-66309000D02*
X170982000Y-52309000D01*
X170982000Y-66309000D02*
X156982000Y-66309000D01*
X156982000Y-66309000D02*
X156982000Y-52309000D01*
X156982000Y-52309000D02*
X170982000Y-52309000D01*
X190007000Y-66359800D02*
X190007000Y-52359800D01*
X190007000Y-66359800D02*
X176007000Y-66359800D01*
X176007000Y-66359800D02*
X176007000Y-52359800D01*
X176007000Y-52359800D02*
X190007000Y-52359800D01*
X171109000Y-85333600D02*
X171109000Y-71333600D01*
X171109000Y-85333600D02*
X157109000Y-85333600D01*
X157109000Y-85333600D02*
X157109000Y-71333600D01*
X157109000Y-71333600D02*
X171109000Y-71333600D01*
X152059000Y-85282800D02*
X152059000Y-71282800D01*
X152059000Y-85282800D02*
X138059000Y-85282800D01*
X138059000Y-85282800D02*
X138059000Y-71282800D01*
X138059000Y-71282800D02*
X152059000Y-71282800D01*
X152034000Y-66309000D02*
X152034000Y-52309000D01*
X152034000Y-66309000D02*
X138034000Y-66309000D01*
X138034000Y-66309000D02*
X138034000Y-52309000D01*
X138034000Y-52309000D02*
X152034000Y-52309000D01*
X104409000Y-85384400D02*
X104409000Y-71384400D01*
X104409000Y-85384400D02*
X90409000Y-85384400D01*
X90409000Y-85384400D02*
X90409000Y-71384400D01*
X90409000Y-71384400D02*
X104409000Y-71384400D01*
X104409000Y-66309000D02*
X104409000Y-52309000D01*
X104409000Y-66309000D02*
X90409000Y-66309000D01*
X90409000Y-66309000D02*
X90409000Y-52309000D01*
X90409000Y-52309000D02*
X104409000Y-52309000D01*
X85409800Y-85384400D02*
X85409800Y-71384400D01*
X85409800Y-85384400D02*
X71409800Y-85384400D01*
X71409800Y-85384400D02*
X71409800Y-71384400D01*
X71409800Y-71384400D02*
X85409800Y-71384400D01*
X85435200Y-66283600D02*
X85435200Y-52283600D01*
X85435200Y-66283600D02*
X71435200Y-66283600D01*
X71435200Y-66283600D02*
X71435200Y-52283600D01*
X71435200Y-52283600D02*
X85435200Y-52283600D01*
X66385200Y-85384400D02*
X66385200Y-71384400D01*
X66385200Y-85384400D02*
X52385200Y-85384400D01*
X52385200Y-85384400D02*
X52385200Y-71384400D01*
X52385200Y-71384400D02*
X66385200Y-71384400D01*
X66334400Y-66334400D02*
X66334400Y-52334400D01*
X66334400Y-66334400D02*
X52334400Y-66334400D01*
X52334400Y-66334400D02*
X52334400Y-52334400D01*
X52334400Y-52334400D02*
X66334400Y-52334400D01*
D11*
X219400666Y-68423880D02*
X219400666Y-67423880D01*
X219972095Y-68423880D02*
X219543523Y-67852452D01*
X219972095Y-67423880D02*
X219400666Y-67995309D01*
X220924476Y-68423880D02*
X220353047Y-68423880D01*
X220638761Y-68423880D02*
X220638761Y-67423880D01*
X220543523Y-67566738D01*
X220448285Y-67661976D01*
X220353047Y-67709595D01*
X221353047Y-68042928D02*
X222114952Y-68042928D01*
X222638761Y-68423880D02*
X222829238Y-68423880D01*
X222924476Y-68376261D01*
X222972095Y-68328642D01*
X223067333Y-68185785D01*
X223114952Y-67995309D01*
X223114952Y-67614357D01*
X223067333Y-67519119D01*
X223019714Y-67471500D01*
X222924476Y-67423880D01*
X222734000Y-67423880D01*
X222638761Y-67471500D01*
X222591142Y-67519119D01*
X222543523Y-67614357D01*
X222543523Y-67852452D01*
X222591142Y-67947690D01*
X222638761Y-67995309D01*
X222734000Y-68042928D01*
X222924476Y-68042928D01*
X223019714Y-67995309D01*
X223067333Y-67947690D01*
X223114952Y-67852452D01*
X95576066Y-163647880D02*
X95576066Y-162647880D01*
X96147495Y-163647880D02*
X95718923Y-163076452D01*
X96147495Y-162647880D02*
X95576066Y-163219309D01*
X97004638Y-162647880D02*
X96814161Y-162647880D01*
X96718923Y-162695500D01*
X96671304Y-162743119D01*
X96576066Y-162885976D01*
X96528447Y-163076452D01*
X96528447Y-163457404D01*
X96576066Y-163552642D01*
X96623685Y-163600261D01*
X96718923Y-163647880D01*
X96909400Y-163647880D01*
X97004638Y-163600261D01*
X97052257Y-163552642D01*
X97099876Y-163457404D01*
X97099876Y-163219309D01*
X97052257Y-163124071D01*
X97004638Y-163076452D01*
X96909400Y-163028833D01*
X96718923Y-163028833D01*
X96623685Y-163076452D01*
X96576066Y-163124071D01*
X96528447Y-163219309D01*
X97528447Y-163266928D02*
X98290352Y-163266928D01*
X98671304Y-162647880D02*
X99290352Y-162647880D01*
X98957019Y-163028833D01*
X99099876Y-163028833D01*
X99195114Y-163076452D01*
X99242733Y-163124071D01*
X99290352Y-163219309D01*
X99290352Y-163457404D01*
X99242733Y-163552642D01*
X99195114Y-163600261D01*
X99099876Y-163647880D01*
X98814161Y-163647880D01*
X98718923Y-163600261D01*
X98671304Y-163552642D01*
X76500666Y-163673880D02*
X76500666Y-162673880D01*
X77072095Y-163673880D02*
X76643523Y-163102452D01*
X77072095Y-162673880D02*
X76500666Y-163245309D01*
X77929238Y-162673880D02*
X77738761Y-162673880D01*
X77643523Y-162721500D01*
X77595904Y-162769119D01*
X77500666Y-162911976D01*
X77453047Y-163102452D01*
X77453047Y-163483404D01*
X77500666Y-163578642D01*
X77548285Y-163626261D01*
X77643523Y-163673880D01*
X77834000Y-163673880D01*
X77929238Y-163626261D01*
X77976857Y-163578642D01*
X78024476Y-163483404D01*
X78024476Y-163245309D01*
X77976857Y-163150071D01*
X77929238Y-163102452D01*
X77834000Y-163054833D01*
X77643523Y-163054833D01*
X77548285Y-163102452D01*
X77500666Y-163150071D01*
X77453047Y-163245309D01*
X78453047Y-163292928D02*
X79214952Y-163292928D01*
X79643523Y-162769119D02*
X79691142Y-162721500D01*
X79786380Y-162673880D01*
X80024476Y-162673880D01*
X80119714Y-162721500D01*
X80167333Y-162769119D01*
X80214952Y-162864357D01*
X80214952Y-162959595D01*
X80167333Y-163102452D01*
X79595904Y-163673880D01*
X80214952Y-163673880D01*
X200350666Y-68423880D02*
X200350666Y-67423880D01*
X200922095Y-68423880D02*
X200493523Y-67852452D01*
X200922095Y-67423880D02*
X200350666Y-67995309D01*
X201874476Y-68423880D02*
X201303047Y-68423880D01*
X201588761Y-68423880D02*
X201588761Y-67423880D01*
X201493523Y-67566738D01*
X201398285Y-67661976D01*
X201303047Y-67709595D01*
X202303047Y-68042928D02*
X203064952Y-68042928D01*
X203684000Y-67852452D02*
X203588761Y-67804833D01*
X203541142Y-67757214D01*
X203493523Y-67661976D01*
X203493523Y-67614357D01*
X203541142Y-67519119D01*
X203588761Y-67471500D01*
X203684000Y-67423880D01*
X203874476Y-67423880D01*
X203969714Y-67471500D01*
X204017333Y-67519119D01*
X204064952Y-67614357D01*
X204064952Y-67661976D01*
X204017333Y-67757214D01*
X203969714Y-67804833D01*
X203874476Y-67852452D01*
X203684000Y-67852452D01*
X203588761Y-67900071D01*
X203541142Y-67947690D01*
X203493523Y-68042928D01*
X203493523Y-68233404D01*
X203541142Y-68328642D01*
X203588761Y-68376261D01*
X203684000Y-68423880D01*
X203874476Y-68423880D01*
X203969714Y-68376261D01*
X204017333Y-68328642D01*
X204064952Y-68233404D01*
X204064952Y-68042928D01*
X204017333Y-67947690D01*
X203969714Y-67900071D01*
X203874476Y-67852452D01*
X209875666Y-163672880D02*
X209875666Y-162672880D01*
X210447095Y-163672880D02*
X210018523Y-163101452D01*
X210447095Y-162672880D02*
X209875666Y-163244309D01*
X211304238Y-162672880D02*
X211113761Y-162672880D01*
X211018523Y-162720500D01*
X210970904Y-162768119D01*
X210875666Y-162910976D01*
X210828047Y-163101452D01*
X210828047Y-163482404D01*
X210875666Y-163577642D01*
X210923285Y-163625261D01*
X211018523Y-163672880D01*
X211209000Y-163672880D01*
X211304238Y-163625261D01*
X211351857Y-163577642D01*
X211399476Y-163482404D01*
X211399476Y-163244309D01*
X211351857Y-163149071D01*
X211304238Y-163101452D01*
X211209000Y-163053833D01*
X211018523Y-163053833D01*
X210923285Y-163101452D01*
X210875666Y-163149071D01*
X210828047Y-163244309D01*
X211828047Y-163291928D02*
X212589952Y-163291928D01*
X212970904Y-162672880D02*
X213637571Y-162672880D01*
X213209000Y-163672880D01*
X176550666Y-163647880D02*
X176550666Y-162647880D01*
X177122095Y-163647880D02*
X176693523Y-163076452D01*
X177122095Y-162647880D02*
X176550666Y-163219309D01*
X177979238Y-162647880D02*
X177788761Y-162647880D01*
X177693523Y-162695500D01*
X177645904Y-162743119D01*
X177550666Y-162885976D01*
X177503047Y-163076452D01*
X177503047Y-163457404D01*
X177550666Y-163552642D01*
X177598285Y-163600261D01*
X177693523Y-163647880D01*
X177884000Y-163647880D01*
X177979238Y-163600261D01*
X178026857Y-163552642D01*
X178074476Y-163457404D01*
X178074476Y-163219309D01*
X178026857Y-163124071D01*
X177979238Y-163076452D01*
X177884000Y-163028833D01*
X177693523Y-163028833D01*
X177598285Y-163076452D01*
X177550666Y-163124071D01*
X177503047Y-163219309D01*
X178503047Y-163266928D02*
X179264952Y-163266928D01*
X180169714Y-162647880D02*
X179979238Y-162647880D01*
X179884000Y-162695500D01*
X179836380Y-162743119D01*
X179741142Y-162885976D01*
X179693523Y-163076452D01*
X179693523Y-163457404D01*
X179741142Y-163552642D01*
X179788761Y-163600261D01*
X179884000Y-163647880D01*
X180074476Y-163647880D01*
X180169714Y-163600261D01*
X180217333Y-163552642D01*
X180264952Y-163457404D01*
X180264952Y-163219309D01*
X180217333Y-163124071D01*
X180169714Y-163076452D01*
X180074476Y-163028833D01*
X179884000Y-163028833D01*
X179788761Y-163076452D01*
X179741142Y-163124071D01*
X179693523Y-163219309D01*
X147975666Y-163698880D02*
X147975666Y-162698880D01*
X148547095Y-163698880D02*
X148118523Y-163127452D01*
X148547095Y-162698880D02*
X147975666Y-163270309D01*
X149404238Y-162698880D02*
X149213761Y-162698880D01*
X149118523Y-162746500D01*
X149070904Y-162794119D01*
X148975666Y-162936976D01*
X148928047Y-163127452D01*
X148928047Y-163508404D01*
X148975666Y-163603642D01*
X149023285Y-163651261D01*
X149118523Y-163698880D01*
X149309000Y-163698880D01*
X149404238Y-163651261D01*
X149451857Y-163603642D01*
X149499476Y-163508404D01*
X149499476Y-163270309D01*
X149451857Y-163175071D01*
X149404238Y-163127452D01*
X149309000Y-163079833D01*
X149118523Y-163079833D01*
X149023285Y-163127452D01*
X148975666Y-163175071D01*
X148928047Y-163270309D01*
X149928047Y-163317928D02*
X150689952Y-163317928D01*
X151642333Y-162698880D02*
X151166142Y-162698880D01*
X151118523Y-163175071D01*
X151166142Y-163127452D01*
X151261380Y-163079833D01*
X151499476Y-163079833D01*
X151594714Y-163127452D01*
X151642333Y-163175071D01*
X151689952Y-163270309D01*
X151689952Y-163508404D01*
X151642333Y-163603642D01*
X151594714Y-163651261D01*
X151499476Y-163698880D01*
X151261380Y-163698880D01*
X151166142Y-163651261D01*
X151118523Y-163603642D01*
X57450266Y-163597880D02*
X57450266Y-162597880D01*
X58021695Y-163597880D02*
X57593123Y-163026452D01*
X58021695Y-162597880D02*
X57450266Y-163169309D01*
X58878838Y-162597880D02*
X58688361Y-162597880D01*
X58593123Y-162645500D01*
X58545504Y-162693119D01*
X58450266Y-162835976D01*
X58402647Y-163026452D01*
X58402647Y-163407404D01*
X58450266Y-163502642D01*
X58497885Y-163550261D01*
X58593123Y-163597880D01*
X58783600Y-163597880D01*
X58878838Y-163550261D01*
X58926457Y-163502642D01*
X58974076Y-163407404D01*
X58974076Y-163169309D01*
X58926457Y-163074071D01*
X58878838Y-163026452D01*
X58783600Y-162978833D01*
X58593123Y-162978833D01*
X58497885Y-163026452D01*
X58450266Y-163074071D01*
X58402647Y-163169309D01*
X59402647Y-163216928D02*
X60164552Y-163216928D01*
X61164552Y-163597880D02*
X60593123Y-163597880D01*
X60878838Y-163597880D02*
X60878838Y-162597880D01*
X60783600Y-162740738D01*
X60688361Y-162835976D01*
X60593123Y-162883595D01*
X219400666Y-144547880D02*
X219400666Y-143547880D01*
X219972095Y-144547880D02*
X219543523Y-143976452D01*
X219972095Y-143547880D02*
X219400666Y-144119309D01*
X220876857Y-143547880D02*
X220400666Y-143547880D01*
X220353047Y-144024071D01*
X220400666Y-143976452D01*
X220495904Y-143928833D01*
X220734000Y-143928833D01*
X220829238Y-143976452D01*
X220876857Y-144024071D01*
X220924476Y-144119309D01*
X220924476Y-144357404D01*
X220876857Y-144452642D01*
X220829238Y-144500261D01*
X220734000Y-144547880D01*
X220495904Y-144547880D01*
X220400666Y-144500261D01*
X220353047Y-144452642D01*
X221353047Y-144166928D02*
X222114952Y-144166928D01*
X222638761Y-144547880D02*
X222829238Y-144547880D01*
X222924476Y-144500261D01*
X222972095Y-144452642D01*
X223067333Y-144309785D01*
X223114952Y-144119309D01*
X223114952Y-143738357D01*
X223067333Y-143643119D01*
X223019714Y-143595500D01*
X222924476Y-143547880D01*
X222734000Y-143547880D01*
X222638761Y-143595500D01*
X222591142Y-143643119D01*
X222543523Y-143738357D01*
X222543523Y-143976452D01*
X222591142Y-144071690D01*
X222638761Y-144119309D01*
X222734000Y-144166928D01*
X222924476Y-144166928D01*
X223019714Y-144119309D01*
X223067333Y-144071690D01*
X223114952Y-143976452D01*
X181376666Y-144547880D02*
X181376666Y-143547880D01*
X181948095Y-144547880D02*
X181519523Y-143976452D01*
X181948095Y-143547880D02*
X181376666Y-144119309D01*
X182852857Y-143547880D02*
X182376666Y-143547880D01*
X182329047Y-144024071D01*
X182376666Y-143976452D01*
X182471904Y-143928833D01*
X182710000Y-143928833D01*
X182805238Y-143976452D01*
X182852857Y-144024071D01*
X182900476Y-144119309D01*
X182900476Y-144357404D01*
X182852857Y-144452642D01*
X182805238Y-144500261D01*
X182710000Y-144547880D01*
X182471904Y-144547880D01*
X182376666Y-144500261D01*
X182329047Y-144452642D01*
X183329047Y-144166928D02*
X184090952Y-144166928D01*
X184471904Y-143547880D02*
X185138571Y-143547880D01*
X184710000Y-144547880D01*
X119374666Y-144572880D02*
X119374666Y-143572880D01*
X119946095Y-144572880D02*
X119517523Y-144001452D01*
X119946095Y-143572880D02*
X119374666Y-144144309D01*
X120850857Y-143572880D02*
X120374666Y-143572880D01*
X120327047Y-144049071D01*
X120374666Y-144001452D01*
X120469904Y-143953833D01*
X120708000Y-143953833D01*
X120803238Y-144001452D01*
X120850857Y-144049071D01*
X120898476Y-144144309D01*
X120898476Y-144382404D01*
X120850857Y-144477642D01*
X120803238Y-144525261D01*
X120708000Y-144572880D01*
X120469904Y-144572880D01*
X120374666Y-144525261D01*
X120327047Y-144477642D01*
X121327047Y-144191928D02*
X122088952Y-144191928D01*
X122993714Y-143906214D02*
X122993714Y-144572880D01*
X122755619Y-143525261D02*
X122517523Y-144239547D01*
X123136571Y-144239547D01*
X219400666Y-125548880D02*
X219400666Y-124548880D01*
X219972095Y-125548880D02*
X219543523Y-124977452D01*
X219972095Y-124548880D02*
X219400666Y-125120309D01*
X220829238Y-124882214D02*
X220829238Y-125548880D01*
X220591142Y-124501261D02*
X220353047Y-125215547D01*
X220972095Y-125215547D01*
X221353047Y-125167928D02*
X222114952Y-125167928D01*
X222638761Y-125548880D02*
X222829238Y-125548880D01*
X222924476Y-125501261D01*
X222972095Y-125453642D01*
X223067333Y-125310785D01*
X223114952Y-125120309D01*
X223114952Y-124739357D01*
X223067333Y-124644119D01*
X223019714Y-124596500D01*
X222924476Y-124548880D01*
X222734000Y-124548880D01*
X222638761Y-124596500D01*
X222591142Y-124644119D01*
X222543523Y-124739357D01*
X222543523Y-124977452D01*
X222591142Y-125072690D01*
X222638761Y-125120309D01*
X222734000Y-125167928D01*
X222924476Y-125167928D01*
X223019714Y-125120309D01*
X223067333Y-125072690D01*
X223114952Y-124977452D01*
X200350666Y-125598880D02*
X200350666Y-124598880D01*
X200922095Y-125598880D02*
X200493523Y-125027452D01*
X200922095Y-124598880D02*
X200350666Y-125170309D01*
X201779238Y-124932214D02*
X201779238Y-125598880D01*
X201541142Y-124551261D02*
X201303047Y-125265547D01*
X201922095Y-125265547D01*
X202303047Y-125217928D02*
X203064952Y-125217928D01*
X203684000Y-125027452D02*
X203588761Y-124979833D01*
X203541142Y-124932214D01*
X203493523Y-124836976D01*
X203493523Y-124789357D01*
X203541142Y-124694119D01*
X203588761Y-124646500D01*
X203684000Y-124598880D01*
X203874476Y-124598880D01*
X203969714Y-124646500D01*
X204017333Y-124694119D01*
X204064952Y-124789357D01*
X204064952Y-124836976D01*
X204017333Y-124932214D01*
X203969714Y-124979833D01*
X203874476Y-125027452D01*
X203684000Y-125027452D01*
X203588761Y-125075071D01*
X203541142Y-125122690D01*
X203493523Y-125217928D01*
X203493523Y-125408404D01*
X203541142Y-125503642D01*
X203588761Y-125551261D01*
X203684000Y-125598880D01*
X203874476Y-125598880D01*
X203969714Y-125551261D01*
X204017333Y-125503642D01*
X204064952Y-125408404D01*
X204064952Y-125217928D01*
X204017333Y-125122690D01*
X203969714Y-125075071D01*
X203874476Y-125027452D01*
X181325666Y-125497880D02*
X181325666Y-124497880D01*
X181897095Y-125497880D02*
X181468523Y-124926452D01*
X181897095Y-124497880D02*
X181325666Y-125069309D01*
X182754238Y-124831214D02*
X182754238Y-125497880D01*
X182516142Y-124450261D02*
X182278047Y-125164547D01*
X182897095Y-125164547D01*
X183278047Y-125116928D02*
X184039952Y-125116928D01*
X184420904Y-124497880D02*
X185087571Y-124497880D01*
X184659000Y-125497880D01*
X119400666Y-125547880D02*
X119400666Y-124547880D01*
X119972095Y-125547880D02*
X119543523Y-124976452D01*
X119972095Y-124547880D02*
X119400666Y-125119309D01*
X120829238Y-124881214D02*
X120829238Y-125547880D01*
X120591142Y-124500261D02*
X120353047Y-125214547D01*
X120972095Y-125214547D01*
X121353047Y-125166928D02*
X122114952Y-125166928D01*
X123019714Y-124881214D02*
X123019714Y-125547880D01*
X122781619Y-124500261D02*
X122543523Y-125214547D01*
X123162571Y-125214547D01*
X219400666Y-106498480D02*
X219400666Y-105498480D01*
X219972095Y-106498480D02*
X219543523Y-105927052D01*
X219972095Y-105498480D02*
X219400666Y-106069909D01*
X220305428Y-105498480D02*
X220924476Y-105498480D01*
X220591142Y-105879433D01*
X220734000Y-105879433D01*
X220829238Y-105927052D01*
X220876857Y-105974671D01*
X220924476Y-106069909D01*
X220924476Y-106308004D01*
X220876857Y-106403242D01*
X220829238Y-106450861D01*
X220734000Y-106498480D01*
X220448285Y-106498480D01*
X220353047Y-106450861D01*
X220305428Y-106403242D01*
X221353047Y-106117528D02*
X222114952Y-106117528D01*
X222638761Y-106498480D02*
X222829238Y-106498480D01*
X222924476Y-106450861D01*
X222972095Y-106403242D01*
X223067333Y-106260385D01*
X223114952Y-106069909D01*
X223114952Y-105688957D01*
X223067333Y-105593719D01*
X223019714Y-105546100D01*
X222924476Y-105498480D01*
X222734000Y-105498480D01*
X222638761Y-105546100D01*
X222591142Y-105593719D01*
X222543523Y-105688957D01*
X222543523Y-105927052D01*
X222591142Y-106022290D01*
X222638761Y-106069909D01*
X222734000Y-106117528D01*
X222924476Y-106117528D01*
X223019714Y-106069909D01*
X223067333Y-106022290D01*
X223114952Y-105927052D01*
X181249666Y-106447680D02*
X181249666Y-105447680D01*
X181821095Y-106447680D02*
X181392523Y-105876252D01*
X181821095Y-105447680D02*
X181249666Y-106019109D01*
X182154428Y-105447680D02*
X182773476Y-105447680D01*
X182440142Y-105828633D01*
X182583000Y-105828633D01*
X182678238Y-105876252D01*
X182725857Y-105923871D01*
X182773476Y-106019109D01*
X182773476Y-106257204D01*
X182725857Y-106352442D01*
X182678238Y-106400061D01*
X182583000Y-106447680D01*
X182297285Y-106447680D01*
X182202047Y-106400061D01*
X182154428Y-106352442D01*
X183202047Y-106066728D02*
X183963952Y-106066728D01*
X184344904Y-105447680D02*
X185011571Y-105447680D01*
X184583000Y-106447680D01*
X124100066Y-106447680D02*
X124100066Y-105447680D01*
X124671495Y-106447680D02*
X124242923Y-105876252D01*
X124671495Y-105447680D02*
X124100066Y-106019109D01*
X125004828Y-105447680D02*
X125623876Y-105447680D01*
X125290542Y-105828633D01*
X125433400Y-105828633D01*
X125528638Y-105876252D01*
X125576257Y-105923871D01*
X125623876Y-106019109D01*
X125623876Y-106257204D01*
X125576257Y-106352442D01*
X125528638Y-106400061D01*
X125433400Y-106447680D01*
X125147685Y-106447680D01*
X125052447Y-106400061D01*
X125004828Y-106352442D01*
X126052447Y-106066728D02*
X126814352Y-106066728D01*
X127719114Y-105781014D02*
X127719114Y-106447680D01*
X127481019Y-105400061D02*
X127242923Y-106114347D01*
X127861971Y-106114347D01*
X219349666Y-87448480D02*
X219349666Y-86448480D01*
X219921095Y-87448480D02*
X219492523Y-86877052D01*
X219921095Y-86448480D02*
X219349666Y-87019909D01*
X220302047Y-86543719D02*
X220349666Y-86496100D01*
X220444904Y-86448480D01*
X220683000Y-86448480D01*
X220778238Y-86496100D01*
X220825857Y-86543719D01*
X220873476Y-86638957D01*
X220873476Y-86734195D01*
X220825857Y-86877052D01*
X220254428Y-87448480D01*
X220873476Y-87448480D01*
X221302047Y-87067528D02*
X222063952Y-87067528D01*
X222587761Y-87448480D02*
X222778238Y-87448480D01*
X222873476Y-87400861D01*
X222921095Y-87353242D01*
X223016333Y-87210385D01*
X223063952Y-87019909D01*
X223063952Y-86638957D01*
X223016333Y-86543719D01*
X222968714Y-86496100D01*
X222873476Y-86448480D01*
X222683000Y-86448480D01*
X222587761Y-86496100D01*
X222540142Y-86543719D01*
X222492523Y-86638957D01*
X222492523Y-86877052D01*
X222540142Y-86972290D01*
X222587761Y-87019909D01*
X222683000Y-87067528D01*
X222873476Y-87067528D01*
X222968714Y-87019909D01*
X223016333Y-86972290D01*
X223063952Y-86877052D01*
X200350666Y-87397680D02*
X200350666Y-86397680D01*
X200922095Y-87397680D02*
X200493523Y-86826252D01*
X200922095Y-86397680D02*
X200350666Y-86969109D01*
X201303047Y-86492919D02*
X201350666Y-86445300D01*
X201445904Y-86397680D01*
X201684000Y-86397680D01*
X201779238Y-86445300D01*
X201826857Y-86492919D01*
X201874476Y-86588157D01*
X201874476Y-86683395D01*
X201826857Y-86826252D01*
X201255428Y-87397680D01*
X201874476Y-87397680D01*
X202303047Y-87016728D02*
X203064952Y-87016728D01*
X203684000Y-86826252D02*
X203588761Y-86778633D01*
X203541142Y-86731014D01*
X203493523Y-86635776D01*
X203493523Y-86588157D01*
X203541142Y-86492919D01*
X203588761Y-86445300D01*
X203684000Y-86397680D01*
X203874476Y-86397680D01*
X203969714Y-86445300D01*
X204017333Y-86492919D01*
X204064952Y-86588157D01*
X204064952Y-86635776D01*
X204017333Y-86731014D01*
X203969714Y-86778633D01*
X203874476Y-86826252D01*
X203684000Y-86826252D01*
X203588761Y-86873871D01*
X203541142Y-86921490D01*
X203493523Y-87016728D01*
X203493523Y-87207204D01*
X203541142Y-87302442D01*
X203588761Y-87350061D01*
X203684000Y-87397680D01*
X203874476Y-87397680D01*
X203969714Y-87350061D01*
X204017333Y-87302442D01*
X204064952Y-87207204D01*
X204064952Y-87016728D01*
X204017333Y-86921490D01*
X203969714Y-86873871D01*
X203874476Y-86826252D01*
X181300666Y-87397680D02*
X181300666Y-86397680D01*
X181872095Y-87397680D02*
X181443523Y-86826252D01*
X181872095Y-86397680D02*
X181300666Y-86969109D01*
X182253047Y-86492919D02*
X182300666Y-86445300D01*
X182395904Y-86397680D01*
X182634000Y-86397680D01*
X182729238Y-86445300D01*
X182776857Y-86492919D01*
X182824476Y-86588157D01*
X182824476Y-86683395D01*
X182776857Y-86826252D01*
X182205428Y-87397680D01*
X182824476Y-87397680D01*
X183253047Y-87016728D02*
X184014952Y-87016728D01*
X184395904Y-86397680D02*
X185062571Y-86397680D01*
X184634000Y-87397680D01*
X119349666Y-87473880D02*
X119349666Y-86473880D01*
X119921095Y-87473880D02*
X119492523Y-86902452D01*
X119921095Y-86473880D02*
X119349666Y-87045309D01*
X120302047Y-86569119D02*
X120349666Y-86521500D01*
X120444904Y-86473880D01*
X120683000Y-86473880D01*
X120778238Y-86521500D01*
X120825857Y-86569119D01*
X120873476Y-86664357D01*
X120873476Y-86759595D01*
X120825857Y-86902452D01*
X120254428Y-87473880D01*
X120873476Y-87473880D01*
X121302047Y-87092928D02*
X122063952Y-87092928D01*
X122968714Y-86807214D02*
X122968714Y-87473880D01*
X122730619Y-86426261D02*
X122492523Y-87140547D01*
X123111571Y-87140547D01*
X119451666Y-68423880D02*
X119451666Y-67423880D01*
X120023095Y-68423880D02*
X119594523Y-67852452D01*
X120023095Y-67423880D02*
X119451666Y-67995309D01*
X120975476Y-68423880D02*
X120404047Y-68423880D01*
X120689761Y-68423880D02*
X120689761Y-67423880D01*
X120594523Y-67566738D01*
X120499285Y-67661976D01*
X120404047Y-67709595D01*
X121404047Y-68042928D02*
X122165952Y-68042928D01*
X123070714Y-67757214D02*
X123070714Y-68423880D01*
X122832619Y-67376261D02*
X122594523Y-68090547D01*
X123213571Y-68090547D01*
X87079576Y-84526180D02*
X87079576Y-83526180D01*
X87412909Y-84240466D01*
X87746242Y-83526180D01*
X87746242Y-84526180D01*
X88746242Y-84526180D02*
X88174814Y-84526180D01*
X88460528Y-84526180D02*
X88460528Y-83526180D01*
X88365290Y-83669038D01*
X88270052Y-83764276D01*
X88174814Y-83811895D01*
X87079576Y-122646380D02*
X87079576Y-121646380D01*
X87412909Y-122360666D01*
X87746242Y-121646380D01*
X87746242Y-122646380D01*
X88174814Y-121741619D02*
X88222433Y-121694000D01*
X88317671Y-121646380D01*
X88555766Y-121646380D01*
X88651004Y-121694000D01*
X88698623Y-121741619D01*
X88746242Y-121836857D01*
X88746242Y-121932095D01*
X88698623Y-122074952D01*
X88127195Y-122646380D01*
X88746242Y-122646380D01*
X192255476Y-122611380D02*
X192255476Y-121611380D01*
X192588809Y-122325666D01*
X192922142Y-121611380D01*
X192922142Y-122611380D01*
X193826904Y-121944714D02*
X193826904Y-122611380D01*
X193588809Y-121563761D02*
X193350714Y-122278047D01*
X193969761Y-122278047D01*
X192255476Y-84531280D02*
X192255476Y-83531280D01*
X192588809Y-84245566D01*
X192922142Y-83531280D01*
X192922142Y-84531280D01*
X193303095Y-83531280D02*
X193922142Y-83531280D01*
X193588809Y-83912233D01*
X193731666Y-83912233D01*
X193826904Y-83959852D01*
X193874523Y-84007471D01*
X193922142Y-84102709D01*
X193922142Y-84340804D01*
X193874523Y-84436042D01*
X193826904Y-84483661D01*
X193731666Y-84531280D01*
X193445952Y-84531280D01*
X193350714Y-84483661D01*
X193303095Y-84436042D01*
X119375666Y-163647880D02*
X119375666Y-162647880D01*
X119947095Y-163647880D02*
X119518523Y-163076452D01*
X119947095Y-162647880D02*
X119375666Y-163219309D01*
X120804238Y-162647880D02*
X120613761Y-162647880D01*
X120518523Y-162695500D01*
X120470904Y-162743119D01*
X120375666Y-162885976D01*
X120328047Y-163076452D01*
X120328047Y-163457404D01*
X120375666Y-163552642D01*
X120423285Y-163600261D01*
X120518523Y-163647880D01*
X120709000Y-163647880D01*
X120804238Y-163600261D01*
X120851857Y-163552642D01*
X120899476Y-163457404D01*
X120899476Y-163219309D01*
X120851857Y-163124071D01*
X120804238Y-163076452D01*
X120709000Y-163028833D01*
X120518523Y-163028833D01*
X120423285Y-163076452D01*
X120375666Y-163124071D01*
X120328047Y-163219309D01*
X121328047Y-163266928D02*
X122089952Y-163266928D01*
X122994714Y-162981214D02*
X122994714Y-163647880D01*
X122756619Y-162600261D02*
X122518523Y-163314547D01*
X123137571Y-163314547D01*
X200375666Y-144623880D02*
X200375666Y-143623880D01*
X200947095Y-144623880D02*
X200518523Y-144052452D01*
X200947095Y-143623880D02*
X200375666Y-144195309D01*
X201851857Y-143623880D02*
X201375666Y-143623880D01*
X201328047Y-144100071D01*
X201375666Y-144052452D01*
X201470904Y-144004833D01*
X201709000Y-144004833D01*
X201804238Y-144052452D01*
X201851857Y-144100071D01*
X201899476Y-144195309D01*
X201899476Y-144433404D01*
X201851857Y-144528642D01*
X201804238Y-144576261D01*
X201709000Y-144623880D01*
X201470904Y-144623880D01*
X201375666Y-144576261D01*
X201328047Y-144528642D01*
X202328047Y-144242928D02*
X203089952Y-144242928D01*
X203709000Y-144052452D02*
X203613761Y-144004833D01*
X203566142Y-143957214D01*
X203518523Y-143861976D01*
X203518523Y-143814357D01*
X203566142Y-143719119D01*
X203613761Y-143671500D01*
X203709000Y-143623880D01*
X203899476Y-143623880D01*
X203994714Y-143671500D01*
X204042333Y-143719119D01*
X204089952Y-143814357D01*
X204089952Y-143861976D01*
X204042333Y-143957214D01*
X203994714Y-144004833D01*
X203899476Y-144052452D01*
X203709000Y-144052452D01*
X203613761Y-144100071D01*
X203566142Y-144147690D01*
X203518523Y-144242928D01*
X203518523Y-144433404D01*
X203566142Y-144528642D01*
X203613761Y-144576261D01*
X203709000Y-144623880D01*
X203899476Y-144623880D01*
X203994714Y-144576261D01*
X204042333Y-144528642D01*
X204089952Y-144433404D01*
X204089952Y-144242928D01*
X204042333Y-144147690D01*
X203994714Y-144100071D01*
X203899476Y-144052452D01*
X200299666Y-106549280D02*
X200299666Y-105549280D01*
X200871095Y-106549280D02*
X200442523Y-105977852D01*
X200871095Y-105549280D02*
X200299666Y-106120709D01*
X201204428Y-105549280D02*
X201823476Y-105549280D01*
X201490142Y-105930233D01*
X201633000Y-105930233D01*
X201728238Y-105977852D01*
X201775857Y-106025471D01*
X201823476Y-106120709D01*
X201823476Y-106358804D01*
X201775857Y-106454042D01*
X201728238Y-106501661D01*
X201633000Y-106549280D01*
X201347285Y-106549280D01*
X201252047Y-106501661D01*
X201204428Y-106454042D01*
X202252047Y-106168328D02*
X203013952Y-106168328D01*
X203633000Y-105977852D02*
X203537761Y-105930233D01*
X203490142Y-105882614D01*
X203442523Y-105787376D01*
X203442523Y-105739757D01*
X203490142Y-105644519D01*
X203537761Y-105596900D01*
X203633000Y-105549280D01*
X203823476Y-105549280D01*
X203918714Y-105596900D01*
X203966333Y-105644519D01*
X204013952Y-105739757D01*
X204013952Y-105787376D01*
X203966333Y-105882614D01*
X203918714Y-105930233D01*
X203823476Y-105977852D01*
X203633000Y-105977852D01*
X203537761Y-106025471D01*
X203490142Y-106073090D01*
X203442523Y-106168328D01*
X203442523Y-106358804D01*
X203490142Y-106454042D01*
X203537761Y-106501661D01*
X203633000Y-106549280D01*
X203823476Y-106549280D01*
X203918714Y-106501661D01*
X203966333Y-106454042D01*
X204013952Y-106358804D01*
X204013952Y-106168328D01*
X203966333Y-106073090D01*
X203918714Y-106025471D01*
X203823476Y-105977852D01*
X162300666Y-144572880D02*
X162300666Y-143572880D01*
X162872095Y-144572880D02*
X162443523Y-144001452D01*
X162872095Y-143572880D02*
X162300666Y-144144309D01*
X163776857Y-143572880D02*
X163300666Y-143572880D01*
X163253047Y-144049071D01*
X163300666Y-144001452D01*
X163395904Y-143953833D01*
X163634000Y-143953833D01*
X163729238Y-144001452D01*
X163776857Y-144049071D01*
X163824476Y-144144309D01*
X163824476Y-144382404D01*
X163776857Y-144477642D01*
X163729238Y-144525261D01*
X163634000Y-144572880D01*
X163395904Y-144572880D01*
X163300666Y-144525261D01*
X163253047Y-144477642D01*
X164253047Y-144191928D02*
X165014952Y-144191928D01*
X165919714Y-143572880D02*
X165729238Y-143572880D01*
X165634000Y-143620500D01*
X165586380Y-143668119D01*
X165491142Y-143810976D01*
X165443523Y-144001452D01*
X165443523Y-144382404D01*
X165491142Y-144477642D01*
X165538761Y-144525261D01*
X165634000Y-144572880D01*
X165824476Y-144572880D01*
X165919714Y-144525261D01*
X165967333Y-144477642D01*
X166014952Y-144382404D01*
X166014952Y-144144309D01*
X165967333Y-144049071D01*
X165919714Y-144001452D01*
X165824476Y-143953833D01*
X165634000Y-143953833D01*
X165538761Y-144001452D01*
X165491142Y-144049071D01*
X165443523Y-144144309D01*
X162225666Y-125598880D02*
X162225666Y-124598880D01*
X162797095Y-125598880D02*
X162368523Y-125027452D01*
X162797095Y-124598880D02*
X162225666Y-125170309D01*
X163654238Y-124932214D02*
X163654238Y-125598880D01*
X163416142Y-124551261D02*
X163178047Y-125265547D01*
X163797095Y-125265547D01*
X164178047Y-125217928D02*
X164939952Y-125217928D01*
X165844714Y-124598880D02*
X165654238Y-124598880D01*
X165559000Y-124646500D01*
X165511380Y-124694119D01*
X165416142Y-124836976D01*
X165368523Y-125027452D01*
X165368523Y-125408404D01*
X165416142Y-125503642D01*
X165463761Y-125551261D01*
X165559000Y-125598880D01*
X165749476Y-125598880D01*
X165844714Y-125551261D01*
X165892333Y-125503642D01*
X165939952Y-125408404D01*
X165939952Y-125170309D01*
X165892333Y-125075071D01*
X165844714Y-125027452D01*
X165749476Y-124979833D01*
X165559000Y-124979833D01*
X165463761Y-125027452D01*
X165416142Y-125075071D01*
X165368523Y-125170309D01*
X162199666Y-106523880D02*
X162199666Y-105523880D01*
X162771095Y-106523880D02*
X162342523Y-105952452D01*
X162771095Y-105523880D02*
X162199666Y-106095309D01*
X163104428Y-105523880D02*
X163723476Y-105523880D01*
X163390142Y-105904833D01*
X163533000Y-105904833D01*
X163628238Y-105952452D01*
X163675857Y-106000071D01*
X163723476Y-106095309D01*
X163723476Y-106333404D01*
X163675857Y-106428642D01*
X163628238Y-106476261D01*
X163533000Y-106523880D01*
X163247285Y-106523880D01*
X163152047Y-106476261D01*
X163104428Y-106428642D01*
X164152047Y-106142928D02*
X164913952Y-106142928D01*
X165818714Y-105523880D02*
X165628238Y-105523880D01*
X165533000Y-105571500D01*
X165485380Y-105619119D01*
X165390142Y-105761976D01*
X165342523Y-105952452D01*
X165342523Y-106333404D01*
X165390142Y-106428642D01*
X165437761Y-106476261D01*
X165533000Y-106523880D01*
X165723476Y-106523880D01*
X165818714Y-106476261D01*
X165866333Y-106428642D01*
X165913952Y-106333404D01*
X165913952Y-106095309D01*
X165866333Y-106000071D01*
X165818714Y-105952452D01*
X165723476Y-105904833D01*
X165533000Y-105904833D01*
X165437761Y-105952452D01*
X165390142Y-106000071D01*
X165342523Y-106095309D01*
X143251666Y-144597880D02*
X143251666Y-143597880D01*
X143823095Y-144597880D02*
X143394523Y-144026452D01*
X143823095Y-143597880D02*
X143251666Y-144169309D01*
X144727857Y-143597880D02*
X144251666Y-143597880D01*
X144204047Y-144074071D01*
X144251666Y-144026452D01*
X144346904Y-143978833D01*
X144585000Y-143978833D01*
X144680238Y-144026452D01*
X144727857Y-144074071D01*
X144775476Y-144169309D01*
X144775476Y-144407404D01*
X144727857Y-144502642D01*
X144680238Y-144550261D01*
X144585000Y-144597880D01*
X144346904Y-144597880D01*
X144251666Y-144550261D01*
X144204047Y-144502642D01*
X145204047Y-144216928D02*
X145965952Y-144216928D01*
X146918333Y-143597880D02*
X146442142Y-143597880D01*
X146394523Y-144074071D01*
X146442142Y-144026452D01*
X146537380Y-143978833D01*
X146775476Y-143978833D01*
X146870714Y-144026452D01*
X146918333Y-144074071D01*
X146965952Y-144169309D01*
X146965952Y-144407404D01*
X146918333Y-144502642D01*
X146870714Y-144550261D01*
X146775476Y-144597880D01*
X146537380Y-144597880D01*
X146442142Y-144550261D01*
X146394523Y-144502642D01*
X143175666Y-125573880D02*
X143175666Y-124573880D01*
X143747095Y-125573880D02*
X143318523Y-125002452D01*
X143747095Y-124573880D02*
X143175666Y-125145309D01*
X144604238Y-124907214D02*
X144604238Y-125573880D01*
X144366142Y-124526261D02*
X144128047Y-125240547D01*
X144747095Y-125240547D01*
X145128047Y-125192928D02*
X145889952Y-125192928D01*
X146842333Y-124573880D02*
X146366142Y-124573880D01*
X146318523Y-125050071D01*
X146366142Y-125002452D01*
X146461380Y-124954833D01*
X146699476Y-124954833D01*
X146794714Y-125002452D01*
X146842333Y-125050071D01*
X146889952Y-125145309D01*
X146889952Y-125383404D01*
X146842333Y-125478642D01*
X146794714Y-125526261D01*
X146699476Y-125573880D01*
X146461380Y-125573880D01*
X146366142Y-125526261D01*
X146318523Y-125478642D01*
X143175666Y-106549280D02*
X143175666Y-105549280D01*
X143747095Y-106549280D02*
X143318523Y-105977852D01*
X143747095Y-105549280D02*
X143175666Y-106120709D01*
X144080428Y-105549280D02*
X144699476Y-105549280D01*
X144366142Y-105930233D01*
X144509000Y-105930233D01*
X144604238Y-105977852D01*
X144651857Y-106025471D01*
X144699476Y-106120709D01*
X144699476Y-106358804D01*
X144651857Y-106454042D01*
X144604238Y-106501661D01*
X144509000Y-106549280D01*
X144223285Y-106549280D01*
X144128047Y-106501661D01*
X144080428Y-106454042D01*
X145128047Y-106168328D02*
X145889952Y-106168328D01*
X146842333Y-105549280D02*
X146366142Y-105549280D01*
X146318523Y-106025471D01*
X146366142Y-105977852D01*
X146461380Y-105930233D01*
X146699476Y-105930233D01*
X146794714Y-105977852D01*
X146842333Y-106025471D01*
X146889952Y-106120709D01*
X146889952Y-106358804D01*
X146842333Y-106454042D01*
X146794714Y-106501661D01*
X146699476Y-106549280D01*
X146461380Y-106549280D01*
X146366142Y-106501661D01*
X146318523Y-106454042D01*
X95575666Y-144522880D02*
X95575666Y-143522880D01*
X96147095Y-144522880D02*
X95718523Y-143951452D01*
X96147095Y-143522880D02*
X95575666Y-144094309D01*
X97051857Y-143522880D02*
X96575666Y-143522880D01*
X96528047Y-143999071D01*
X96575666Y-143951452D01*
X96670904Y-143903833D01*
X96909000Y-143903833D01*
X97004238Y-143951452D01*
X97051857Y-143999071D01*
X97099476Y-144094309D01*
X97099476Y-144332404D01*
X97051857Y-144427642D01*
X97004238Y-144475261D01*
X96909000Y-144522880D01*
X96670904Y-144522880D01*
X96575666Y-144475261D01*
X96528047Y-144427642D01*
X97528047Y-144141928D02*
X98289952Y-144141928D01*
X98670904Y-143522880D02*
X99289952Y-143522880D01*
X98956619Y-143903833D01*
X99099476Y-143903833D01*
X99194714Y-143951452D01*
X99242333Y-143999071D01*
X99289952Y-144094309D01*
X99289952Y-144332404D01*
X99242333Y-144427642D01*
X99194714Y-144475261D01*
X99099476Y-144522880D01*
X98813761Y-144522880D01*
X98718523Y-144475261D01*
X98670904Y-144427642D01*
X95575666Y-125573880D02*
X95575666Y-124573880D01*
X96147095Y-125573880D02*
X95718523Y-125002452D01*
X96147095Y-124573880D02*
X95575666Y-125145309D01*
X97004238Y-124907214D02*
X97004238Y-125573880D01*
X96766142Y-124526261D02*
X96528047Y-125240547D01*
X97147095Y-125240547D01*
X97528047Y-125192928D02*
X98289952Y-125192928D01*
X98670904Y-124573880D02*
X99289952Y-124573880D01*
X98956619Y-124954833D01*
X99099476Y-124954833D01*
X99194714Y-125002452D01*
X99242333Y-125050071D01*
X99289952Y-125145309D01*
X99289952Y-125383404D01*
X99242333Y-125478642D01*
X99194714Y-125526261D01*
X99099476Y-125573880D01*
X98813761Y-125573880D01*
X98718523Y-125526261D01*
X98670904Y-125478642D01*
X95550266Y-106523880D02*
X95550266Y-105523880D01*
X96121695Y-106523880D02*
X95693123Y-105952452D01*
X96121695Y-105523880D02*
X95550266Y-106095309D01*
X96455028Y-105523880D02*
X97074076Y-105523880D01*
X96740742Y-105904833D01*
X96883600Y-105904833D01*
X96978838Y-105952452D01*
X97026457Y-106000071D01*
X97074076Y-106095309D01*
X97074076Y-106333404D01*
X97026457Y-106428642D01*
X96978838Y-106476261D01*
X96883600Y-106523880D01*
X96597885Y-106523880D01*
X96502647Y-106476261D01*
X96455028Y-106428642D01*
X97502647Y-106142928D02*
X98264552Y-106142928D01*
X98645504Y-105523880D02*
X99264552Y-105523880D01*
X98931219Y-105904833D01*
X99074076Y-105904833D01*
X99169314Y-105952452D01*
X99216933Y-106000071D01*
X99264552Y-106095309D01*
X99264552Y-106333404D01*
X99216933Y-106428642D01*
X99169314Y-106476261D01*
X99074076Y-106523880D01*
X98788361Y-106523880D01*
X98693123Y-106476261D01*
X98645504Y-106428642D01*
X76576466Y-144623880D02*
X76576466Y-143623880D01*
X77147895Y-144623880D02*
X76719323Y-144052452D01*
X77147895Y-143623880D02*
X76576466Y-144195309D01*
X78052657Y-143623880D02*
X77576466Y-143623880D01*
X77528847Y-144100071D01*
X77576466Y-144052452D01*
X77671704Y-144004833D01*
X77909800Y-144004833D01*
X78005038Y-144052452D01*
X78052657Y-144100071D01*
X78100276Y-144195309D01*
X78100276Y-144433404D01*
X78052657Y-144528642D01*
X78005038Y-144576261D01*
X77909800Y-144623880D01*
X77671704Y-144623880D01*
X77576466Y-144576261D01*
X77528847Y-144528642D01*
X78528847Y-144242928D02*
X79290752Y-144242928D01*
X79719323Y-143719119D02*
X79766942Y-143671500D01*
X79862180Y-143623880D01*
X80100276Y-143623880D01*
X80195514Y-143671500D01*
X80243133Y-143719119D01*
X80290752Y-143814357D01*
X80290752Y-143909595D01*
X80243133Y-144052452D01*
X79671704Y-144623880D01*
X80290752Y-144623880D01*
X76500266Y-125573880D02*
X76500266Y-124573880D01*
X77071695Y-125573880D02*
X76643123Y-125002452D01*
X77071695Y-124573880D02*
X76500266Y-125145309D01*
X77928838Y-124907214D02*
X77928838Y-125573880D01*
X77690742Y-124526261D02*
X77452647Y-125240547D01*
X78071695Y-125240547D01*
X78452647Y-125192928D02*
X79214552Y-125192928D01*
X79643123Y-124669119D02*
X79690742Y-124621500D01*
X79785980Y-124573880D01*
X80024076Y-124573880D01*
X80119314Y-124621500D01*
X80166933Y-124669119D01*
X80214552Y-124764357D01*
X80214552Y-124859595D01*
X80166933Y-125002452D01*
X79595504Y-125573880D01*
X80214552Y-125573880D01*
X76500266Y-106523880D02*
X76500266Y-105523880D01*
X77071695Y-106523880D02*
X76643123Y-105952452D01*
X77071695Y-105523880D02*
X76500266Y-106095309D01*
X77405028Y-105523880D02*
X78024076Y-105523880D01*
X77690742Y-105904833D01*
X77833600Y-105904833D01*
X77928838Y-105952452D01*
X77976457Y-106000071D01*
X78024076Y-106095309D01*
X78024076Y-106333404D01*
X77976457Y-106428642D01*
X77928838Y-106476261D01*
X77833600Y-106523880D01*
X77547885Y-106523880D01*
X77452647Y-106476261D01*
X77405028Y-106428642D01*
X78452647Y-106142928D02*
X79214552Y-106142928D01*
X79643123Y-105619119D02*
X79690742Y-105571500D01*
X79785980Y-105523880D01*
X80024076Y-105523880D01*
X80119314Y-105571500D01*
X80166933Y-105619119D01*
X80214552Y-105714357D01*
X80214552Y-105809595D01*
X80166933Y-105952452D01*
X79595504Y-106523880D01*
X80214552Y-106523880D01*
X57526466Y-144623880D02*
X57526466Y-143623880D01*
X58097895Y-144623880D02*
X57669323Y-144052452D01*
X58097895Y-143623880D02*
X57526466Y-144195309D01*
X59002657Y-143623880D02*
X58526466Y-143623880D01*
X58478847Y-144100071D01*
X58526466Y-144052452D01*
X58621704Y-144004833D01*
X58859800Y-144004833D01*
X58955038Y-144052452D01*
X59002657Y-144100071D01*
X59050276Y-144195309D01*
X59050276Y-144433404D01*
X59002657Y-144528642D01*
X58955038Y-144576261D01*
X58859800Y-144623880D01*
X58621704Y-144623880D01*
X58526466Y-144576261D01*
X58478847Y-144528642D01*
X59478847Y-144242928D02*
X60240752Y-144242928D01*
X61240752Y-144623880D02*
X60669323Y-144623880D01*
X60955038Y-144623880D02*
X60955038Y-143623880D01*
X60859800Y-143766738D01*
X60764561Y-143861976D01*
X60669323Y-143909595D01*
X57526466Y-125598880D02*
X57526466Y-124598880D01*
X58097895Y-125598880D02*
X57669323Y-125027452D01*
X58097895Y-124598880D02*
X57526466Y-125170309D01*
X58955038Y-124932214D02*
X58955038Y-125598880D01*
X58716942Y-124551261D02*
X58478847Y-125265547D01*
X59097895Y-125265547D01*
X59478847Y-125217928D02*
X60240752Y-125217928D01*
X61240752Y-125598880D02*
X60669323Y-125598880D01*
X60955038Y-125598880D02*
X60955038Y-124598880D01*
X60859800Y-124741738D01*
X60764561Y-124836976D01*
X60669323Y-124884595D01*
X57450266Y-106498480D02*
X57450266Y-105498480D01*
X58021695Y-106498480D02*
X57593123Y-105927052D01*
X58021695Y-105498480D02*
X57450266Y-106069909D01*
X58355028Y-105498480D02*
X58974076Y-105498480D01*
X58640742Y-105879433D01*
X58783600Y-105879433D01*
X58878838Y-105927052D01*
X58926457Y-105974671D01*
X58974076Y-106069909D01*
X58974076Y-106308004D01*
X58926457Y-106403242D01*
X58878838Y-106450861D01*
X58783600Y-106498480D01*
X58497885Y-106498480D01*
X58402647Y-106450861D01*
X58355028Y-106403242D01*
X59402647Y-106117528D02*
X60164552Y-106117528D01*
X61164552Y-106498480D02*
X60593123Y-106498480D01*
X60878838Y-106498480D02*
X60878838Y-105498480D01*
X60783600Y-105641338D01*
X60688361Y-105736576D01*
X60593123Y-105784195D01*
X162148666Y-68423880D02*
X162148666Y-67423880D01*
X162720095Y-68423880D02*
X162291523Y-67852452D01*
X162720095Y-67423880D02*
X162148666Y-67995309D01*
X163672476Y-68423880D02*
X163101047Y-68423880D01*
X163386761Y-68423880D02*
X163386761Y-67423880D01*
X163291523Y-67566738D01*
X163196285Y-67661976D01*
X163101047Y-67709595D01*
X164101047Y-68042928D02*
X164862952Y-68042928D01*
X165767714Y-67423880D02*
X165577238Y-67423880D01*
X165482000Y-67471500D01*
X165434380Y-67519119D01*
X165339142Y-67661976D01*
X165291523Y-67852452D01*
X165291523Y-68233404D01*
X165339142Y-68328642D01*
X165386761Y-68376261D01*
X165482000Y-68423880D01*
X165672476Y-68423880D01*
X165767714Y-68376261D01*
X165815333Y-68328642D01*
X165862952Y-68233404D01*
X165862952Y-67995309D01*
X165815333Y-67900071D01*
X165767714Y-67852452D01*
X165672476Y-67804833D01*
X165482000Y-67804833D01*
X165386761Y-67852452D01*
X165339142Y-67900071D01*
X165291523Y-67995309D01*
X181173666Y-68474680D02*
X181173666Y-67474680D01*
X181745095Y-68474680D02*
X181316523Y-67903252D01*
X181745095Y-67474680D02*
X181173666Y-68046109D01*
X182697476Y-68474680D02*
X182126047Y-68474680D01*
X182411761Y-68474680D02*
X182411761Y-67474680D01*
X182316523Y-67617538D01*
X182221285Y-67712776D01*
X182126047Y-67760395D01*
X183126047Y-68093728D02*
X183887952Y-68093728D01*
X184268904Y-67474680D02*
X184935571Y-67474680D01*
X184507000Y-68474680D01*
X162275666Y-87448480D02*
X162275666Y-86448480D01*
X162847095Y-87448480D02*
X162418523Y-86877052D01*
X162847095Y-86448480D02*
X162275666Y-87019909D01*
X163228047Y-86543719D02*
X163275666Y-86496100D01*
X163370904Y-86448480D01*
X163609000Y-86448480D01*
X163704238Y-86496100D01*
X163751857Y-86543719D01*
X163799476Y-86638957D01*
X163799476Y-86734195D01*
X163751857Y-86877052D01*
X163180428Y-87448480D01*
X163799476Y-87448480D01*
X164228047Y-87067528D02*
X164989952Y-87067528D01*
X165894714Y-86448480D02*
X165704238Y-86448480D01*
X165609000Y-86496100D01*
X165561380Y-86543719D01*
X165466142Y-86686576D01*
X165418523Y-86877052D01*
X165418523Y-87258004D01*
X165466142Y-87353242D01*
X165513761Y-87400861D01*
X165609000Y-87448480D01*
X165799476Y-87448480D01*
X165894714Y-87400861D01*
X165942333Y-87353242D01*
X165989952Y-87258004D01*
X165989952Y-87019909D01*
X165942333Y-86924671D01*
X165894714Y-86877052D01*
X165799476Y-86829433D01*
X165609000Y-86829433D01*
X165513761Y-86877052D01*
X165466142Y-86924671D01*
X165418523Y-87019909D01*
X143225666Y-87397680D02*
X143225666Y-86397680D01*
X143797095Y-87397680D02*
X143368523Y-86826252D01*
X143797095Y-86397680D02*
X143225666Y-86969109D01*
X144178047Y-86492919D02*
X144225666Y-86445300D01*
X144320904Y-86397680D01*
X144559000Y-86397680D01*
X144654238Y-86445300D01*
X144701857Y-86492919D01*
X144749476Y-86588157D01*
X144749476Y-86683395D01*
X144701857Y-86826252D01*
X144130428Y-87397680D01*
X144749476Y-87397680D01*
X145178047Y-87016728D02*
X145939952Y-87016728D01*
X146892333Y-86397680D02*
X146416142Y-86397680D01*
X146368523Y-86873871D01*
X146416142Y-86826252D01*
X146511380Y-86778633D01*
X146749476Y-86778633D01*
X146844714Y-86826252D01*
X146892333Y-86873871D01*
X146939952Y-86969109D01*
X146939952Y-87207204D01*
X146892333Y-87302442D01*
X146844714Y-87350061D01*
X146749476Y-87397680D01*
X146511380Y-87397680D01*
X146416142Y-87350061D01*
X146368523Y-87302442D01*
X143200666Y-68423880D02*
X143200666Y-67423880D01*
X143772095Y-68423880D02*
X143343523Y-67852452D01*
X143772095Y-67423880D02*
X143200666Y-67995309D01*
X144724476Y-68423880D02*
X144153047Y-68423880D01*
X144438761Y-68423880D02*
X144438761Y-67423880D01*
X144343523Y-67566738D01*
X144248285Y-67661976D01*
X144153047Y-67709595D01*
X145153047Y-68042928D02*
X145914952Y-68042928D01*
X146867333Y-67423880D02*
X146391142Y-67423880D01*
X146343523Y-67900071D01*
X146391142Y-67852452D01*
X146486380Y-67804833D01*
X146724476Y-67804833D01*
X146819714Y-67852452D01*
X146867333Y-67900071D01*
X146914952Y-67995309D01*
X146914952Y-68233404D01*
X146867333Y-68328642D01*
X146819714Y-68376261D01*
X146724476Y-68423880D01*
X146486380Y-68423880D01*
X146391142Y-68376261D01*
X146343523Y-68328642D01*
X95575666Y-87499280D02*
X95575666Y-86499280D01*
X96147095Y-87499280D02*
X95718523Y-86927852D01*
X96147095Y-86499280D02*
X95575666Y-87070709D01*
X96528047Y-86594519D02*
X96575666Y-86546900D01*
X96670904Y-86499280D01*
X96909000Y-86499280D01*
X97004238Y-86546900D01*
X97051857Y-86594519D01*
X97099476Y-86689757D01*
X97099476Y-86784995D01*
X97051857Y-86927852D01*
X96480428Y-87499280D01*
X97099476Y-87499280D01*
X97528047Y-87118328D02*
X98289952Y-87118328D01*
X98670904Y-86499280D02*
X99289952Y-86499280D01*
X98956619Y-86880233D01*
X99099476Y-86880233D01*
X99194714Y-86927852D01*
X99242333Y-86975471D01*
X99289952Y-87070709D01*
X99289952Y-87308804D01*
X99242333Y-87404042D01*
X99194714Y-87451661D01*
X99099476Y-87499280D01*
X98813761Y-87499280D01*
X98718523Y-87451661D01*
X98670904Y-87404042D01*
X95575666Y-68423880D02*
X95575666Y-67423880D01*
X96147095Y-68423880D02*
X95718523Y-67852452D01*
X96147095Y-67423880D02*
X95575666Y-67995309D01*
X97099476Y-68423880D02*
X96528047Y-68423880D01*
X96813761Y-68423880D02*
X96813761Y-67423880D01*
X96718523Y-67566738D01*
X96623285Y-67661976D01*
X96528047Y-67709595D01*
X97528047Y-68042928D02*
X98289952Y-68042928D01*
X98670904Y-67423880D02*
X99289952Y-67423880D01*
X98956619Y-67804833D01*
X99099476Y-67804833D01*
X99194714Y-67852452D01*
X99242333Y-67900071D01*
X99289952Y-67995309D01*
X99289952Y-68233404D01*
X99242333Y-68328642D01*
X99194714Y-68376261D01*
X99099476Y-68423880D01*
X98813761Y-68423880D01*
X98718523Y-68376261D01*
X98670904Y-68328642D01*
X76576466Y-87499280D02*
X76576466Y-86499280D01*
X77147895Y-87499280D02*
X76719323Y-86927852D01*
X77147895Y-86499280D02*
X76576466Y-87070709D01*
X77528847Y-86594519D02*
X77576466Y-86546900D01*
X77671704Y-86499280D01*
X77909800Y-86499280D01*
X78005038Y-86546900D01*
X78052657Y-86594519D01*
X78100276Y-86689757D01*
X78100276Y-86784995D01*
X78052657Y-86927852D01*
X77481228Y-87499280D01*
X78100276Y-87499280D01*
X78528847Y-87118328D02*
X79290752Y-87118328D01*
X79719323Y-86594519D02*
X79766942Y-86546900D01*
X79862180Y-86499280D01*
X80100276Y-86499280D01*
X80195514Y-86546900D01*
X80243133Y-86594519D01*
X80290752Y-86689757D01*
X80290752Y-86784995D01*
X80243133Y-86927852D01*
X79671704Y-87499280D01*
X80290752Y-87499280D01*
X76601866Y-68398480D02*
X76601866Y-67398480D01*
X77173295Y-68398480D02*
X76744723Y-67827052D01*
X77173295Y-67398480D02*
X76601866Y-67969909D01*
X78125676Y-68398480D02*
X77554247Y-68398480D01*
X77839961Y-68398480D02*
X77839961Y-67398480D01*
X77744723Y-67541338D01*
X77649485Y-67636576D01*
X77554247Y-67684195D01*
X78554247Y-68017528D02*
X79316152Y-68017528D01*
X79744723Y-67493719D02*
X79792342Y-67446100D01*
X79887580Y-67398480D01*
X80125676Y-67398480D01*
X80220914Y-67446100D01*
X80268533Y-67493719D01*
X80316152Y-67588957D01*
X80316152Y-67684195D01*
X80268533Y-67827052D01*
X79697104Y-68398480D01*
X80316152Y-68398480D01*
X57551866Y-87499280D02*
X57551866Y-86499280D01*
X58123295Y-87499280D02*
X57694723Y-86927852D01*
X58123295Y-86499280D02*
X57551866Y-87070709D01*
X58504247Y-86594519D02*
X58551866Y-86546900D01*
X58647104Y-86499280D01*
X58885200Y-86499280D01*
X58980438Y-86546900D01*
X59028057Y-86594519D01*
X59075676Y-86689757D01*
X59075676Y-86784995D01*
X59028057Y-86927852D01*
X58456628Y-87499280D01*
X59075676Y-87499280D01*
X59504247Y-87118328D02*
X60266152Y-87118328D01*
X61266152Y-87499280D02*
X60694723Y-87499280D01*
X60980438Y-87499280D02*
X60980438Y-86499280D01*
X60885200Y-86642138D01*
X60789961Y-86737376D01*
X60694723Y-86784995D01*
X57501066Y-68449280D02*
X57501066Y-67449280D01*
X58072495Y-68449280D02*
X57643923Y-67877852D01*
X58072495Y-67449280D02*
X57501066Y-68020709D01*
X59024876Y-68449280D02*
X58453447Y-68449280D01*
X58739161Y-68449280D02*
X58739161Y-67449280D01*
X58643923Y-67592138D01*
X58548685Y-67687376D01*
X58453447Y-67734995D01*
X59453447Y-68068328D02*
X60215352Y-68068328D01*
X61215352Y-68449280D02*
X60643923Y-68449280D01*
X60929638Y-68449280D02*
X60929638Y-67449280D01*
X60834400Y-67592138D01*
X60739161Y-67687376D01*
X60643923Y-67734995D01*
%LPC*%
D12*
X219964000Y-54229000D03*
X222504000Y-54229000D03*
D13*
X218694000Y-64389000D03*
X225044000Y-61849000D03*
D14*
X216154000Y-59309000D03*
X226314000Y-59309000D03*
D15*
X221234000Y-59309000D03*
D12*
X96139400Y-149453000D03*
X98679400Y-149453000D03*
D13*
X94869400Y-159613000D03*
X101219400Y-157073000D03*
D14*
X92329400Y-154533000D03*
X102489400Y-154533000D03*
D15*
X97409400Y-154533000D03*
D12*
X77064000Y-149479000D03*
X79604000Y-149479000D03*
D13*
X75794000Y-159639000D03*
X82144000Y-157099000D03*
D14*
X73254000Y-154559000D03*
X83414000Y-154559000D03*
D15*
X78334000Y-154559000D03*
D12*
X200914000Y-54229000D03*
X203454000Y-54229000D03*
D13*
X199644000Y-64389000D03*
X205994000Y-61849000D03*
D14*
X197104000Y-59309000D03*
X207264000Y-59309000D03*
D15*
X202184000Y-59309000D03*
D16*
X230886000Y-126848000D03*
D17*
X215646000Y-126848000D03*
D16*
X229616000Y-107848000D03*
D17*
X214376000Y-107848000D03*
D16*
X230734000Y-88747600D03*
D17*
X215494000Y-88747600D03*
D16*
X228752000Y-68986400D03*
D17*
X213512000Y-68986400D03*
D16*
X229667000Y-50749200D03*
D17*
X214427000Y-50749200D03*
D12*
X210439000Y-149478000D03*
X212979000Y-149478000D03*
D13*
X209169000Y-159638000D03*
X215519000Y-157098000D03*
D14*
X206629000Y-154558000D03*
X216789000Y-154558000D03*
D15*
X211709000Y-154558000D03*
D12*
X177114000Y-149453000D03*
X179654000Y-149453000D03*
D13*
X175844000Y-159613000D03*
X182194000Y-157073000D03*
D14*
X173304000Y-154533000D03*
X183464000Y-154533000D03*
D15*
X178384000Y-154533000D03*
D12*
X148539000Y-149504000D03*
X151079000Y-149504000D03*
D13*
X147269000Y-159664000D03*
X153619000Y-157124000D03*
D14*
X144729000Y-154584000D03*
X154889000Y-154584000D03*
D15*
X149809000Y-154584000D03*
D12*
X58013600Y-149403000D03*
X60553600Y-149403000D03*
D13*
X56743600Y-159563000D03*
X63093600Y-157023000D03*
D14*
X54203600Y-154483000D03*
X64363600Y-154483000D03*
D15*
X59283600Y-154483000D03*
D12*
X219964000Y-130353000D03*
X222504000Y-130353000D03*
D13*
X218694000Y-140513000D03*
X225044000Y-137973000D03*
D14*
X216154000Y-135433000D03*
X226314000Y-135433000D03*
D15*
X221234000Y-135433000D03*
D12*
X181940000Y-130353000D03*
X184480000Y-130353000D03*
D13*
X180670000Y-140513000D03*
X187020000Y-137973000D03*
D14*
X178130000Y-135433000D03*
X188290000Y-135433000D03*
D15*
X183210000Y-135433000D03*
D12*
X119938000Y-130378000D03*
X122478000Y-130378000D03*
D13*
X118668000Y-140538000D03*
X125018000Y-137998000D03*
D14*
X116128000Y-135458000D03*
X126288000Y-135458000D03*
D15*
X121208000Y-135458000D03*
D12*
X219964000Y-111354000D03*
X222504000Y-111354000D03*
D13*
X218694000Y-121514000D03*
X225044000Y-118974000D03*
D14*
X216154000Y-116434000D03*
X226314000Y-116434000D03*
D15*
X221234000Y-116434000D03*
D12*
X200914000Y-111404000D03*
X203454000Y-111404000D03*
D13*
X199644000Y-121564000D03*
X205994000Y-119024000D03*
D14*
X197104000Y-116484000D03*
X207264000Y-116484000D03*
D15*
X202184000Y-116484000D03*
D12*
X181889000Y-111303000D03*
X184429000Y-111303000D03*
D13*
X180619000Y-121463000D03*
X186969000Y-118923000D03*
D14*
X178079000Y-116383000D03*
X188239000Y-116383000D03*
D15*
X183159000Y-116383000D03*
D12*
X119964000Y-111353000D03*
X122504000Y-111353000D03*
D13*
X118694000Y-121513000D03*
X125044000Y-118973000D03*
D14*
X116154000Y-116433000D03*
X126314000Y-116433000D03*
D15*
X121234000Y-116433000D03*
D12*
X219964000Y-92303600D03*
X222504000Y-92303600D03*
D13*
X218694000Y-102463600D03*
X225044000Y-99923600D03*
D14*
X216154000Y-97383600D03*
X226314000Y-97383600D03*
D15*
X221234000Y-97383600D03*
D12*
X181813000Y-92252800D03*
X184353000Y-92252800D03*
D13*
X180543000Y-102412800D03*
X186893000Y-99872800D03*
D14*
X178003000Y-97332800D03*
X188163000Y-97332800D03*
D15*
X183083000Y-97332800D03*
D12*
X119939000Y-92303600D03*
X122479000Y-92303600D03*
D13*
X118669000Y-102463600D03*
X125019000Y-99923600D03*
D14*
X116129000Y-97383600D03*
X126289000Y-97383600D03*
D15*
X121209000Y-97383600D03*
D12*
X219913000Y-73253600D03*
X222453000Y-73253600D03*
D13*
X218643000Y-83413600D03*
X224993000Y-80873600D03*
D14*
X216103000Y-78333600D03*
X226263000Y-78333600D03*
D15*
X221183000Y-78333600D03*
D12*
X200914000Y-73202800D03*
X203454000Y-73202800D03*
D13*
X199644000Y-83362800D03*
X205994000Y-80822800D03*
D14*
X197104000Y-78282800D03*
X207264000Y-78282800D03*
D15*
X202184000Y-78282800D03*
D12*
X181864000Y-73202800D03*
X184404000Y-73202800D03*
D13*
X180594000Y-83362800D03*
X186944000Y-80822800D03*
D14*
X178054000Y-78282800D03*
X188214000Y-78282800D03*
D15*
X183134000Y-78282800D03*
D12*
X119913000Y-73279000D03*
X122453000Y-73279000D03*
D13*
X118643000Y-83439000D03*
X124993000Y-80899000D03*
D14*
X116103000Y-78359000D03*
X126263000Y-78359000D03*
D15*
X121183000Y-78359000D03*
D12*
X120015000Y-54229000D03*
X122555000Y-54229000D03*
D13*
X118745000Y-64389000D03*
X125095000Y-61849000D03*
D14*
X116205000Y-59309000D03*
X126365000Y-59309000D03*
D15*
X121285000Y-59309000D03*
D16*
X211988000Y-131674000D03*
D18*
X211988000Y-139294000D03*
D16*
X212090000Y-112471000D03*
D18*
X212090000Y-120091000D03*
D16*
X212039000Y-93675000D03*
D18*
X212039000Y-101295000D03*
D16*
X212090000Y-73914000D03*
D18*
X212090000Y-81534000D03*
D16*
X212090000Y-54864000D03*
D18*
X212090000Y-62484000D03*
D19*
X87889100Y-87873800D03*
X87889100Y-125994000D03*
X193065000Y-125959000D03*
X193065000Y-87878900D03*
D20*
X47188500Y-55628000D03*
X47188500Y-57628000D03*
X47188500Y-59628000D03*
D21*
X47188500Y-61628000D03*
D20*
X132482000Y-164186000D03*
X134482000Y-164186000D03*
X136482000Y-164186000D03*
X138482000Y-164186000D03*
X140482000Y-164186000D03*
X142482000Y-164186000D03*
X144482000Y-164186000D03*
D21*
X146482000Y-164186000D03*
D20*
X46431200Y-115270000D03*
X46431200Y-113270000D03*
X46431200Y-111270000D03*
X46431200Y-109270000D03*
X46431200Y-107270000D03*
X46431200Y-105270000D03*
X46431200Y-103270000D03*
D21*
X46431200Y-101270000D03*
D12*
X119939000Y-149453000D03*
X122479000Y-149453000D03*
D13*
X118669000Y-159613000D03*
X125019000Y-157073000D03*
D14*
X116129000Y-154533000D03*
X126289000Y-154533000D03*
D15*
X121209000Y-154533000D03*
D12*
X200939000Y-130429000D03*
X203479000Y-130429000D03*
D13*
X199669000Y-140589000D03*
X206019000Y-138049000D03*
D14*
X197129000Y-135509000D03*
X207289000Y-135509000D03*
D15*
X202209000Y-135509000D03*
D12*
X200863000Y-92354400D03*
X203403000Y-92354400D03*
D13*
X199593000Y-102514400D03*
X205943000Y-99974400D03*
D14*
X197053000Y-97434400D03*
X207213000Y-97434400D03*
D15*
X202133000Y-97434400D03*
D16*
X213157000Y-88747600D03*
D17*
X197917000Y-88747600D03*
D16*
X192989000Y-93624000D03*
D18*
X192989000Y-101244000D03*
D16*
X212903000Y-126848000D03*
D17*
X197663000Y-126848000D03*
D16*
X210058000Y-107899000D03*
D17*
X194818000Y-107899000D03*
D16*
X219431000Y-146024000D03*
D17*
X204191000Y-146024000D03*
D16*
X187604000Y-126898000D03*
D17*
X172364000Y-126898000D03*
D16*
X176606000Y-107848000D03*
D17*
X191846000Y-107848000D03*
D16*
X188265000Y-88747600D03*
D17*
X173025000Y-88747600D03*
D16*
X185699000Y-146024000D03*
D17*
X170459000Y-146024000D03*
D16*
X169266000Y-126848000D03*
D17*
X154026000Y-126848000D03*
D16*
X171349000Y-107925000D03*
D17*
X156109000Y-107925000D03*
D16*
X170332000Y-88722200D03*
D17*
X155092000Y-88722200D03*
D16*
X157505000Y-145923000D03*
D17*
X142265000Y-145923000D03*
D16*
X151028000Y-126898000D03*
D17*
X135788000Y-126898000D03*
D16*
X152578000Y-107899000D03*
D17*
X137338000Y-107899000D03*
D16*
X152832000Y-88823800D03*
D17*
X137592000Y-88823800D03*
D16*
X129108000Y-145999000D03*
D17*
X113868000Y-145999000D03*
D16*
X128626000Y-126848000D03*
D17*
X113386000Y-126848000D03*
D16*
X128803000Y-107899000D03*
D17*
X113563000Y-107899000D03*
D16*
X130150000Y-88773000D03*
D17*
X114910000Y-88773000D03*
D16*
X105308400Y-146126000D03*
D17*
X90068400Y-146126000D03*
D16*
X108762800Y-126848000D03*
D17*
X93522800Y-126848000D03*
D16*
X105105200Y-107950000D03*
D17*
X89865200Y-107950000D03*
D16*
X107873800Y-88823800D03*
D17*
X92633800Y-88823800D03*
D16*
X86106000Y-145923000D03*
D17*
X70866000Y-145923000D03*
D16*
X82651600Y-126898000D03*
D17*
X67411600Y-126898000D03*
D16*
X86004400Y-107823000D03*
D17*
X70764400Y-107823000D03*
D16*
X83058000Y-88900000D03*
D17*
X67818000Y-88900000D03*
D16*
X66751200Y-145898000D03*
D17*
X51511200Y-145898000D03*
D16*
X63804800Y-126898000D03*
D17*
X48564800Y-126898000D03*
D16*
X66852800Y-107925000D03*
D17*
X51612800Y-107925000D03*
D16*
X65278000Y-88823800D03*
D17*
X50038000Y-88823800D03*
D12*
X162864000Y-130378000D03*
X165404000Y-130378000D03*
D13*
X161594000Y-140538000D03*
X167944000Y-137998000D03*
D14*
X159054000Y-135458000D03*
X169214000Y-135458000D03*
D15*
X164134000Y-135458000D03*
D12*
X162789000Y-111404000D03*
X165329000Y-111404000D03*
D13*
X161519000Y-121564000D03*
X167869000Y-119024000D03*
D14*
X158979000Y-116484000D03*
X169139000Y-116484000D03*
D15*
X164059000Y-116484000D03*
D12*
X162763000Y-92329000D03*
X165303000Y-92329000D03*
D13*
X161493000Y-102489000D03*
X167843000Y-99949000D03*
D14*
X158953000Y-97409000D03*
X169113000Y-97409000D03*
D15*
X164033000Y-97409000D03*
D12*
X143815000Y-130403000D03*
X146355000Y-130403000D03*
D13*
X142545000Y-140563000D03*
X148895000Y-138023000D03*
D14*
X140005000Y-135483000D03*
X150165000Y-135483000D03*
D15*
X145085000Y-135483000D03*
D12*
X143739000Y-111379000D03*
X146279000Y-111379000D03*
D13*
X142469000Y-121539000D03*
X148819000Y-118999000D03*
D14*
X139929000Y-116459000D03*
X150089000Y-116459000D03*
D15*
X145009000Y-116459000D03*
D12*
X143739000Y-92354400D03*
X146279000Y-92354400D03*
D13*
X142469000Y-102514400D03*
X148819000Y-99974400D03*
D14*
X139929000Y-97434400D03*
X150089000Y-97434400D03*
D15*
X145009000Y-97434400D03*
D12*
X96139000Y-130328000D03*
X98679000Y-130328000D03*
D13*
X94869000Y-140488000D03*
X101219000Y-137948000D03*
D14*
X92329000Y-135408000D03*
X102489000Y-135408000D03*
D15*
X97409000Y-135408000D03*
D12*
X96139000Y-111379000D03*
X98679000Y-111379000D03*
D13*
X94869000Y-121539000D03*
X101219000Y-118999000D03*
D14*
X92329000Y-116459000D03*
X102489000Y-116459000D03*
D15*
X97409000Y-116459000D03*
D12*
X96113600Y-92329000D03*
X98653600Y-92329000D03*
D13*
X94843600Y-102489000D03*
X101193600Y-99949000D03*
D14*
X92303600Y-97409000D03*
X102463600Y-97409000D03*
D15*
X97383600Y-97409000D03*
D12*
X77139800Y-130429000D03*
X79679800Y-130429000D03*
D13*
X75869800Y-140589000D03*
X82219800Y-138049000D03*
D14*
X73329800Y-135509000D03*
X83489800Y-135509000D03*
D15*
X78409800Y-135509000D03*
D12*
X77063600Y-111379000D03*
X79603600Y-111379000D03*
D13*
X75793600Y-121539000D03*
X82143600Y-118999000D03*
D14*
X73253600Y-116459000D03*
X83413600Y-116459000D03*
D15*
X78333600Y-116459000D03*
D12*
X77063600Y-92329000D03*
X79603600Y-92329000D03*
D13*
X75793600Y-102489000D03*
X82143600Y-99949000D03*
D14*
X73253600Y-97409000D03*
X83413600Y-97409000D03*
D15*
X78333600Y-97409000D03*
D12*
X58089800Y-130429000D03*
X60629800Y-130429000D03*
D13*
X56819800Y-140589000D03*
X63169800Y-138049000D03*
D14*
X54279800Y-135509000D03*
X64439800Y-135509000D03*
D15*
X59359800Y-135509000D03*
D12*
X58089800Y-111404000D03*
X60629800Y-111404000D03*
D13*
X56819800Y-121564000D03*
X63169800Y-119024000D03*
D14*
X54279800Y-116484000D03*
X64439800Y-116484000D03*
D15*
X59359800Y-116484000D03*
D12*
X58013600Y-92303600D03*
X60553600Y-92303600D03*
D13*
X56743600Y-102463600D03*
X63093600Y-99923600D03*
D14*
X54203600Y-97383600D03*
X64363600Y-97383600D03*
D15*
X59283600Y-97383600D03*
D16*
X193040000Y-131699000D03*
D18*
X193040000Y-139319000D03*
D16*
X192989000Y-112420000D03*
D18*
X192989000Y-120040000D03*
D16*
X192659000Y-150698000D03*
D18*
X192659000Y-158318000D03*
D16*
X174066000Y-131623000D03*
D18*
X174066000Y-139243000D03*
D16*
X174015000Y-112471000D03*
D18*
X174015000Y-120091000D03*
D16*
X174117000Y-93472000D03*
D18*
X174117000Y-101092000D03*
D16*
X169189000Y-150596000D03*
D18*
X169189000Y-158216000D03*
D16*
X154965000Y-131648000D03*
D18*
X154965000Y-139268000D03*
D16*
X154864000Y-112649000D03*
D18*
X154864000Y-120269000D03*
D16*
X154838000Y-93421000D03*
D18*
X154838000Y-101041000D03*
D16*
X140868000Y-150749000D03*
D18*
X140868000Y-158369000D03*
D16*
X135865000Y-131648000D03*
D18*
X135865000Y-139268000D03*
D16*
X135814000Y-112598000D03*
D18*
X135814000Y-120218000D03*
D16*
X135941000Y-93777000D03*
D18*
X135941000Y-101397000D03*
D16*
X112090000Y-150825000D03*
D18*
X112090000Y-158445000D03*
D16*
X111912000Y-131597000D03*
D18*
X111912000Y-139217000D03*
D16*
X112039000Y-112598000D03*
D18*
X112039000Y-120218000D03*
D16*
X111989000Y-93599000D03*
D18*
X111989000Y-101219000D03*
D16*
X88290400Y-150444000D03*
D18*
X88290400Y-158064000D03*
D16*
X88239600Y-131801000D03*
D18*
X88239600Y-139421000D03*
D16*
X88214200Y-112649000D03*
D18*
X88214200Y-120269000D03*
D16*
X88265000Y-93472000D03*
D18*
X88265000Y-101092000D03*
D16*
X69088000Y-150622000D03*
D18*
X69088000Y-158242000D03*
D16*
X69215000Y-131826000D03*
D18*
X69215000Y-139446000D03*
D16*
X69240400Y-112598000D03*
D18*
X69240400Y-120218000D03*
D16*
X69342000Y-93726000D03*
D18*
X69342000Y-101346000D03*
D16*
X50190400Y-150317000D03*
D18*
X50190400Y-157937000D03*
D16*
X50165000Y-131826000D03*
D18*
X50165000Y-139446000D03*
D16*
X50165000Y-112903000D03*
D18*
X50165000Y-120523000D03*
D16*
X50165000Y-93345000D03*
D18*
X50165000Y-100965000D03*
D16*
X193167000Y-73914000D03*
D18*
X193167000Y-81534000D03*
D16*
X192786000Y-54864000D03*
D18*
X192786000Y-62484000D03*
D16*
X173863000Y-74041000D03*
D18*
X173863000Y-81661000D03*
D16*
X173736000Y-55118000D03*
D18*
X173736000Y-62738000D03*
D16*
X155067000Y-74041000D03*
D18*
X155067000Y-81661000D03*
D16*
X154686000Y-54864000D03*
D18*
X154686000Y-62484000D03*
D16*
X136017000Y-74295000D03*
D18*
X136017000Y-81915000D03*
D16*
X140716000Y-54864000D03*
D18*
X140716000Y-62484000D03*
D16*
X112141000Y-74422000D03*
D18*
X112141000Y-82042000D03*
D16*
X112268000Y-55118000D03*
D18*
X112268000Y-62738000D03*
D16*
X88392000Y-74676000D03*
D18*
X88392000Y-82296000D03*
D16*
X88392000Y-55118000D03*
D18*
X88392000Y-62738000D03*
D16*
X69342000Y-74676000D03*
D18*
X69342000Y-82296000D03*
D16*
X69342000Y-55118000D03*
D18*
X69342000Y-62738000D03*
D16*
X47142400Y-84937600D03*
D18*
X47142400Y-92557600D03*
D16*
X47142400Y-74676000D03*
D18*
X47142400Y-82296000D03*
D12*
X162712000Y-54229000D03*
X165252000Y-54229000D03*
D13*
X161442000Y-64389000D03*
X167792000Y-61849000D03*
D14*
X158902000Y-59309000D03*
X169062000Y-59309000D03*
D15*
X163982000Y-59309000D03*
D12*
X181737000Y-54279800D03*
X184277000Y-54279800D03*
D13*
X180467000Y-64439800D03*
X186817000Y-61899800D03*
D14*
X177927000Y-59359800D03*
X188087000Y-59359800D03*
D15*
X183007000Y-59359800D03*
D12*
X162839000Y-73253600D03*
X165379000Y-73253600D03*
D13*
X161569000Y-83413600D03*
X167919000Y-80873600D03*
D14*
X159029000Y-78333600D03*
X169189000Y-78333600D03*
D15*
X164109000Y-78333600D03*
D12*
X143789000Y-73202800D03*
X146329000Y-73202800D03*
D13*
X142519000Y-83362800D03*
X148869000Y-80822800D03*
D14*
X139979000Y-78282800D03*
X150139000Y-78282800D03*
D15*
X145059000Y-78282800D03*
D12*
X143764000Y-54229000D03*
X146304000Y-54229000D03*
D13*
X142494000Y-64389000D03*
X148844000Y-61849000D03*
D14*
X139954000Y-59309000D03*
X150114000Y-59309000D03*
D15*
X145034000Y-59309000D03*
D12*
X96139000Y-73304400D03*
X98679000Y-73304400D03*
D13*
X94869000Y-83464400D03*
X101219000Y-80924400D03*
D14*
X92329000Y-78384400D03*
X102489000Y-78384400D03*
D15*
X97409000Y-78384400D03*
D12*
X96139000Y-54229000D03*
X98679000Y-54229000D03*
D13*
X94869000Y-64389000D03*
X101219000Y-61849000D03*
D14*
X92329000Y-59309000D03*
X102489000Y-59309000D03*
D15*
X97409000Y-59309000D03*
D12*
X77139800Y-73304400D03*
X79679800Y-73304400D03*
D13*
X75869800Y-83464400D03*
X82219800Y-80924400D03*
D14*
X73329800Y-78384400D03*
X83489800Y-78384400D03*
D15*
X78409800Y-78384400D03*
D12*
X77165200Y-54203600D03*
X79705200Y-54203600D03*
D13*
X75895200Y-64363600D03*
X82245200Y-61823600D03*
D14*
X73355200Y-59283600D03*
X83515200Y-59283600D03*
D15*
X78435200Y-59283600D03*
D12*
X58115200Y-73304400D03*
X60655200Y-73304400D03*
D13*
X56845200Y-83464400D03*
X63195200Y-80924400D03*
D14*
X54305200Y-78384400D03*
X64465200Y-78384400D03*
D15*
X59385200Y-78384400D03*
D12*
X58064400Y-54254400D03*
X60604400Y-54254400D03*
D13*
X56794400Y-64414400D03*
X63144400Y-61874400D03*
D14*
X54254400Y-59334400D03*
X64414400Y-59334400D03*
D15*
X59334400Y-59334400D03*
D16*
X209677000Y-68834000D03*
D17*
X194437000Y-68834000D03*
D16*
X210617000Y-50800000D03*
D17*
X195377000Y-50800000D03*
D16*
X190551000Y-68884800D03*
D17*
X175311000Y-68884800D03*
D16*
X191364000Y-50800000D03*
D17*
X176124000Y-50800000D03*
D16*
X171679000Y-69037200D03*
D17*
X156439000Y-69037200D03*
D16*
X172364000Y-50749200D03*
D17*
X157124000Y-50749200D03*
D16*
X152883000Y-68884800D03*
D17*
X137643000Y-68884800D03*
D16*
X153416000Y-50800000D03*
D17*
X138176000Y-50800000D03*
D16*
X128956000Y-68961000D03*
D17*
X113716000Y-68961000D03*
D16*
X128880000Y-50749200D03*
D17*
X113640000Y-50749200D03*
D16*
X104546400Y-69062600D03*
D17*
X89306400Y-69062600D03*
D16*
X105664000Y-50800000D03*
D17*
X90424000Y-50800000D03*
D16*
X86309200Y-69062600D03*
D17*
X71069200Y-69062600D03*
D16*
X86614000Y-50698400D03*
D17*
X71374000Y-50698400D03*
D16*
X66929000Y-68834000D03*
D17*
X51689000Y-68834000D03*
D16*
X67056000Y-50800000D03*
D17*
X51816000Y-50800000D03*
M02*
