%TF.GenerationSoftware,KiCad,Pcbnew,5.1.5+dfsg1-2build2*%
%TF.CreationDate,2021-08-29T11:58:19+02:00*%
%TF.ProjectId,BFK9kv2-left,42464b39-6b76-4322-9d6c-6566742e6b69,rev?*%
%TF.SameCoordinates,Original*%
%TF.FileFunction,Legend,Bot*%
%TF.FilePolarity,Positive*%
%FSLAX46Y46*%
G04 Gerber Fmt 4.6, Leading zero omitted, Abs format (unit mm)*
G04 Created by KiCad (PCBNEW 5.1.5+dfsg1-2build2) date 2021-08-29 11:58:19*
%MOMM*%
%LPD*%
G04 APERTURE LIST*
%ADD10C,0.300000*%
%ADD11C,0.150000*%
%ADD12C,0.120000*%
%ADD13C,1.792600*%
%ADD14C,2.302000*%
%ADD15C,1.852000*%
%ADD16C,4.102000*%
%ADD17O,1.702000X1.702000*%
%ADD18C,1.702000*%
%ADD19R,1.702000X1.702000*%
%ADD20C,5.702000*%
%ADD21O,1.452000X1.452000*%
%ADD22R,1.452000X1.452000*%
%ADD23R,0.902000X1.002000*%
G04 APERTURE END LIST*
D10*
X51617891Y-56159791D02*
X51617891Y-54659791D01*
X50760748Y-56159791D01*
X50760748Y-54659791D01*
X49189320Y-56016934D02*
X49260748Y-56088362D01*
X49475034Y-56159791D01*
X49617891Y-56159791D01*
X49832177Y-56088362D01*
X49975034Y-55945505D01*
X50046462Y-55802648D01*
X50117891Y-55516934D01*
X50117891Y-55302648D01*
X50046462Y-55016934D01*
X49975034Y-54874077D01*
X49832177Y-54731220D01*
X49617891Y-54659791D01*
X49475034Y-54659791D01*
X49260748Y-54731220D01*
X49189320Y-54802648D01*
X50202720Y-58572791D02*
X50202720Y-57072791D01*
X49702720Y-58144220D01*
X49202720Y-57072791D01*
X49202720Y-58572791D01*
D11*
X49756462Y-73113591D02*
X49613605Y-73161210D01*
X49565986Y-73208829D01*
X49518367Y-73304067D01*
X49518367Y-73446924D01*
X49565986Y-73542162D01*
X49613605Y-73589781D01*
X49708843Y-73637400D01*
X50089796Y-73637400D01*
X50089796Y-72637400D01*
X49756462Y-72637400D01*
X49661224Y-72685020D01*
X49613605Y-72732639D01*
X49565986Y-72827877D01*
X49565986Y-72923115D01*
X49613605Y-73018353D01*
X49661224Y-73065972D01*
X49756462Y-73113591D01*
X50089796Y-73113591D01*
X48518367Y-73542162D02*
X48565986Y-73589781D01*
X48708843Y-73637400D01*
X48804081Y-73637400D01*
X48946939Y-73589781D01*
X49042177Y-73494543D01*
X49089796Y-73399305D01*
X49137415Y-73208829D01*
X49137415Y-73065972D01*
X49089796Y-72875496D01*
X49042177Y-72780258D01*
X48946939Y-72685020D01*
X48804081Y-72637400D01*
X48708843Y-72637400D01*
X48565986Y-72685020D01*
X48518367Y-72732639D01*
X47946939Y-73065972D02*
X48042177Y-73018353D01*
X48089796Y-72970734D01*
X48137415Y-72875496D01*
X48137415Y-72827877D01*
X48089796Y-72732639D01*
X48042177Y-72685020D01*
X47946939Y-72637400D01*
X47756462Y-72637400D01*
X47661224Y-72685020D01*
X47613605Y-72732639D01*
X47565986Y-72827877D01*
X47565986Y-72875496D01*
X47613605Y-72970734D01*
X47661224Y-73018353D01*
X47756462Y-73065972D01*
X47946939Y-73065972D01*
X48042177Y-73113591D01*
X48089796Y-73161210D01*
X48137415Y-73256448D01*
X48137415Y-73446924D01*
X48089796Y-73542162D01*
X48042177Y-73589781D01*
X47946939Y-73637400D01*
X47756462Y-73637400D01*
X47661224Y-73589781D01*
X47613605Y-73542162D01*
X47565986Y-73446924D01*
X47565986Y-73256448D01*
X47613605Y-73161210D01*
X47661224Y-73113591D01*
X47756462Y-73065972D01*
X46613605Y-73637400D02*
X47185034Y-73637400D01*
X46899320Y-73637400D02*
X46899320Y-72637400D01*
X46994558Y-72780258D01*
X47089796Y-72875496D01*
X47185034Y-72923115D01*
X46280272Y-72637400D02*
X45613605Y-72637400D01*
X46042177Y-73637400D01*
D10*
X50146377Y-60553991D02*
X50146377Y-59053991D01*
X49574948Y-59053991D01*
X49432091Y-59125420D01*
X49360662Y-59196848D01*
X49289234Y-59339705D01*
X49289234Y-59553991D01*
X49360662Y-59696848D01*
X49432091Y-59768277D01*
X49574948Y-59839705D01*
X50146377Y-59839705D01*
X49284462Y-61233620D02*
X49427320Y-61162191D01*
X49641605Y-61162191D01*
X49855891Y-61233620D01*
X49998748Y-61376477D01*
X50070177Y-61519334D01*
X50141605Y-61805048D01*
X50141605Y-62019334D01*
X50070177Y-62305048D01*
X49998748Y-62447905D01*
X49855891Y-62590762D01*
X49641605Y-62662191D01*
X49498748Y-62662191D01*
X49284462Y-62590762D01*
X49213034Y-62519334D01*
X49213034Y-62019334D01*
X49498748Y-62019334D01*
D11*
X142635266Y-161672542D02*
X142682885Y-161720161D01*
X142825742Y-161767780D01*
X142920980Y-161767780D01*
X143063838Y-161720161D01*
X143159076Y-161624923D01*
X143206695Y-161529685D01*
X143254314Y-161339209D01*
X143254314Y-161196352D01*
X143206695Y-161005876D01*
X143159076Y-160910638D01*
X143063838Y-160815400D01*
X142920980Y-160767780D01*
X142825742Y-160767780D01*
X142682885Y-160815400D01*
X142635266Y-160863019D01*
X142063838Y-161196352D02*
X142159076Y-161148733D01*
X142206695Y-161101114D01*
X142254314Y-161005876D01*
X142254314Y-160958257D01*
X142206695Y-160863019D01*
X142159076Y-160815400D01*
X142063838Y-160767780D01*
X141873361Y-160767780D01*
X141778123Y-160815400D01*
X141730504Y-160863019D01*
X141682885Y-160958257D01*
X141682885Y-161005876D01*
X141730504Y-161101114D01*
X141778123Y-161148733D01*
X141873361Y-161196352D01*
X142063838Y-161196352D01*
X142159076Y-161243971D01*
X142206695Y-161291590D01*
X142254314Y-161386828D01*
X142254314Y-161577304D01*
X142206695Y-161672542D01*
X142159076Y-161720161D01*
X142063838Y-161767780D01*
X141873361Y-161767780D01*
X141778123Y-161720161D01*
X141730504Y-161672542D01*
X141682885Y-161577304D01*
X141682885Y-161386828D01*
X141730504Y-161291590D01*
X141778123Y-161243971D01*
X141873361Y-161196352D01*
X140577866Y-161697942D02*
X140625485Y-161745561D01*
X140768342Y-161793180D01*
X140863580Y-161793180D01*
X141006438Y-161745561D01*
X141101676Y-161650323D01*
X141149295Y-161555085D01*
X141196914Y-161364609D01*
X141196914Y-161221752D01*
X141149295Y-161031276D01*
X141101676Y-160936038D01*
X141006438Y-160840800D01*
X140863580Y-160793180D01*
X140768342Y-160793180D01*
X140625485Y-160840800D01*
X140577866Y-160888419D01*
X140244533Y-160793180D02*
X139577866Y-160793180D01*
X140006438Y-161793180D01*
X138723666Y-161697942D02*
X138771285Y-161745561D01*
X138914142Y-161793180D01*
X139009380Y-161793180D01*
X139152238Y-161745561D01*
X139247476Y-161650323D01*
X139295095Y-161555085D01*
X139342714Y-161364609D01*
X139342714Y-161221752D01*
X139295095Y-161031276D01*
X139247476Y-160936038D01*
X139152238Y-160840800D01*
X139009380Y-160793180D01*
X138914142Y-160793180D01*
X138771285Y-160840800D01*
X138723666Y-160888419D01*
X137866523Y-160793180D02*
X138057000Y-160793180D01*
X138152238Y-160840800D01*
X138199857Y-160888419D01*
X138295095Y-161031276D01*
X138342714Y-161221752D01*
X138342714Y-161602704D01*
X138295095Y-161697942D01*
X138247476Y-161745561D01*
X138152238Y-161793180D01*
X137961761Y-161793180D01*
X137866523Y-161745561D01*
X137818904Y-161697942D01*
X137771285Y-161602704D01*
X137771285Y-161364609D01*
X137818904Y-161269371D01*
X137866523Y-161221752D01*
X137961761Y-161174133D01*
X138152238Y-161174133D01*
X138247476Y-161221752D01*
X138295095Y-161269371D01*
X138342714Y-161364609D01*
X136742466Y-161697942D02*
X136790085Y-161745561D01*
X136932942Y-161793180D01*
X137028180Y-161793180D01*
X137171038Y-161745561D01*
X137266276Y-161650323D01*
X137313895Y-161555085D01*
X137361514Y-161364609D01*
X137361514Y-161221752D01*
X137313895Y-161031276D01*
X137266276Y-160936038D01*
X137171038Y-160840800D01*
X137028180Y-160793180D01*
X136932942Y-160793180D01*
X136790085Y-160840800D01*
X136742466Y-160888419D01*
X135837704Y-160793180D02*
X136313895Y-160793180D01*
X136361514Y-161269371D01*
X136313895Y-161221752D01*
X136218657Y-161174133D01*
X135980561Y-161174133D01*
X135885323Y-161221752D01*
X135837704Y-161269371D01*
X135790085Y-161364609D01*
X135790085Y-161602704D01*
X135837704Y-161697942D01*
X135885323Y-161745561D01*
X135980561Y-161793180D01*
X136218657Y-161793180D01*
X136313895Y-161745561D01*
X136361514Y-161697942D01*
X134685066Y-161672542D02*
X134732685Y-161720161D01*
X134875542Y-161767780D01*
X134970780Y-161767780D01*
X135113638Y-161720161D01*
X135208876Y-161624923D01*
X135256495Y-161529685D01*
X135304114Y-161339209D01*
X135304114Y-161196352D01*
X135256495Y-161005876D01*
X135208876Y-160910638D01*
X135113638Y-160815400D01*
X134970780Y-160767780D01*
X134875542Y-160767780D01*
X134732685Y-160815400D01*
X134685066Y-160863019D01*
X133827923Y-161101114D02*
X133827923Y-161767780D01*
X134066019Y-160720161D02*
X134304114Y-161434447D01*
X133685066Y-161434447D01*
X132678466Y-161697942D02*
X132726085Y-161745561D01*
X132868942Y-161793180D01*
X132964180Y-161793180D01*
X133107038Y-161745561D01*
X133202276Y-161650323D01*
X133249895Y-161555085D01*
X133297514Y-161364609D01*
X133297514Y-161221752D01*
X133249895Y-161031276D01*
X133202276Y-160936038D01*
X133107038Y-160840800D01*
X132964180Y-160793180D01*
X132868942Y-160793180D01*
X132726085Y-160840800D01*
X132678466Y-160888419D01*
X132345133Y-160793180D02*
X131726085Y-160793180D01*
X132059419Y-161174133D01*
X131916561Y-161174133D01*
X131821323Y-161221752D01*
X131773704Y-161269371D01*
X131726085Y-161364609D01*
X131726085Y-161602704D01*
X131773704Y-161697942D01*
X131821323Y-161745561D01*
X131916561Y-161793180D01*
X132202276Y-161793180D01*
X132297514Y-161745561D01*
X132345133Y-161697942D01*
X130671866Y-161697942D02*
X130719485Y-161745561D01*
X130862342Y-161793180D01*
X130957580Y-161793180D01*
X131100438Y-161745561D01*
X131195676Y-161650323D01*
X131243295Y-161555085D01*
X131290914Y-161364609D01*
X131290914Y-161221752D01*
X131243295Y-161031276D01*
X131195676Y-160936038D01*
X131100438Y-160840800D01*
X130957580Y-160793180D01*
X130862342Y-160793180D01*
X130719485Y-160840800D01*
X130671866Y-160888419D01*
X130290914Y-160888419D02*
X130243295Y-160840800D01*
X130148057Y-160793180D01*
X129909961Y-160793180D01*
X129814723Y-160840800D01*
X129767104Y-160888419D01*
X129719485Y-160983657D01*
X129719485Y-161078895D01*
X129767104Y-161221752D01*
X130338533Y-161793180D01*
X129719485Y-161793180D01*
X128512866Y-161723342D02*
X128560485Y-161770961D01*
X128703342Y-161818580D01*
X128798580Y-161818580D01*
X128941438Y-161770961D01*
X129036676Y-161675723D01*
X129084295Y-161580485D01*
X129131914Y-161390009D01*
X129131914Y-161247152D01*
X129084295Y-161056676D01*
X129036676Y-160961438D01*
X128941438Y-160866200D01*
X128798580Y-160818580D01*
X128703342Y-160818580D01*
X128560485Y-160866200D01*
X128512866Y-160913819D01*
X127560485Y-161818580D02*
X128131914Y-161818580D01*
X127846200Y-161818580D02*
X127846200Y-160818580D01*
X127941438Y-160961438D01*
X128036676Y-161056676D01*
X128131914Y-161104295D01*
X48579066Y-113691942D02*
X48626685Y-113739561D01*
X48769542Y-113787180D01*
X48864780Y-113787180D01*
X49007638Y-113739561D01*
X49102876Y-113644323D01*
X49150495Y-113549085D01*
X49198114Y-113358609D01*
X49198114Y-113215752D01*
X49150495Y-113025276D01*
X49102876Y-112930038D01*
X49007638Y-112834800D01*
X48864780Y-112787180D01*
X48769542Y-112787180D01*
X48626685Y-112834800D01*
X48579066Y-112882419D01*
X48245733Y-112787180D02*
X47579066Y-112787180D01*
X48007638Y-113787180D01*
X48629866Y-111780580D02*
X48963200Y-111304390D01*
X49201295Y-111780580D02*
X49201295Y-110780580D01*
X48820342Y-110780580D01*
X48725104Y-110828200D01*
X48677485Y-110875819D01*
X48629866Y-110971057D01*
X48629866Y-111113914D01*
X48677485Y-111209152D01*
X48725104Y-111256771D01*
X48820342Y-111304390D01*
X49201295Y-111304390D01*
X47772723Y-110780580D02*
X47963200Y-110780580D01*
X48058438Y-110828200D01*
X48106057Y-110875819D01*
X48201295Y-111018676D01*
X48248914Y-111209152D01*
X48248914Y-111590104D01*
X48201295Y-111685342D01*
X48153676Y-111732961D01*
X48058438Y-111780580D01*
X47867961Y-111780580D01*
X47772723Y-111732961D01*
X47725104Y-111685342D01*
X47677485Y-111590104D01*
X47677485Y-111352009D01*
X47725104Y-111256771D01*
X47772723Y-111209152D01*
X47867961Y-111161533D01*
X48058438Y-111161533D01*
X48153676Y-111209152D01*
X48201295Y-111256771D01*
X48248914Y-111352009D01*
X48629866Y-109748580D02*
X48963200Y-109272390D01*
X49201295Y-109748580D02*
X49201295Y-108748580D01*
X48820342Y-108748580D01*
X48725104Y-108796200D01*
X48677485Y-108843819D01*
X48629866Y-108939057D01*
X48629866Y-109081914D01*
X48677485Y-109177152D01*
X48725104Y-109224771D01*
X48820342Y-109272390D01*
X49201295Y-109272390D01*
X47725104Y-108748580D02*
X48201295Y-108748580D01*
X48248914Y-109224771D01*
X48201295Y-109177152D01*
X48106057Y-109129533D01*
X47867961Y-109129533D01*
X47772723Y-109177152D01*
X47725104Y-109224771D01*
X47677485Y-109320009D01*
X47677485Y-109558104D01*
X47725104Y-109653342D01*
X47772723Y-109700961D01*
X47867961Y-109748580D01*
X48106057Y-109748580D01*
X48201295Y-109700961D01*
X48248914Y-109653342D01*
X48680666Y-107640380D02*
X49014000Y-107164190D01*
X49252095Y-107640380D02*
X49252095Y-106640380D01*
X48871142Y-106640380D01*
X48775904Y-106688000D01*
X48728285Y-106735619D01*
X48680666Y-106830857D01*
X48680666Y-106973714D01*
X48728285Y-107068952D01*
X48775904Y-107116571D01*
X48871142Y-107164190D01*
X49252095Y-107164190D01*
X47823523Y-106973714D02*
X47823523Y-107640380D01*
X48061619Y-106592761D02*
X48299714Y-107307047D01*
X47680666Y-107307047D01*
X48655266Y-105760780D02*
X48988600Y-105284590D01*
X49226695Y-105760780D02*
X49226695Y-104760780D01*
X48845742Y-104760780D01*
X48750504Y-104808400D01*
X48702885Y-104856019D01*
X48655266Y-104951257D01*
X48655266Y-105094114D01*
X48702885Y-105189352D01*
X48750504Y-105236971D01*
X48845742Y-105284590D01*
X49226695Y-105284590D01*
X48321933Y-104760780D02*
X47702885Y-104760780D01*
X48036219Y-105141733D01*
X47893361Y-105141733D01*
X47798123Y-105189352D01*
X47750504Y-105236971D01*
X47702885Y-105332209D01*
X47702885Y-105570304D01*
X47750504Y-105665542D01*
X47798123Y-105713161D01*
X47893361Y-105760780D01*
X48179076Y-105760780D01*
X48274314Y-105713161D01*
X48321933Y-105665542D01*
X48655266Y-103703380D02*
X48988600Y-103227190D01*
X49226695Y-103703380D02*
X49226695Y-102703380D01*
X48845742Y-102703380D01*
X48750504Y-102751000D01*
X48702885Y-102798619D01*
X48655266Y-102893857D01*
X48655266Y-103036714D01*
X48702885Y-103131952D01*
X48750504Y-103179571D01*
X48845742Y-103227190D01*
X49226695Y-103227190D01*
X48274314Y-102798619D02*
X48226695Y-102751000D01*
X48131457Y-102703380D01*
X47893361Y-102703380D01*
X47798123Y-102751000D01*
X47750504Y-102798619D01*
X47702885Y-102893857D01*
X47702885Y-102989095D01*
X47750504Y-103131952D01*
X48321933Y-103703380D01*
X47702885Y-103703380D01*
X48629866Y-101747580D02*
X48963200Y-101271390D01*
X49201295Y-101747580D02*
X49201295Y-100747580D01*
X48820342Y-100747580D01*
X48725104Y-100795200D01*
X48677485Y-100842819D01*
X48629866Y-100938057D01*
X48629866Y-101080914D01*
X48677485Y-101176152D01*
X48725104Y-101223771D01*
X48820342Y-101271390D01*
X49201295Y-101271390D01*
X47677485Y-101747580D02*
X48248914Y-101747580D01*
X47963200Y-101747580D02*
X47963200Y-100747580D01*
X48058438Y-100890438D01*
X48153676Y-100985676D01*
X48248914Y-101033295D01*
D12*
X229846000Y-126848000D02*
X226536000Y-126848000D01*
X216686000Y-126848000D02*
X219996000Y-126848000D01*
X226536000Y-128218000D02*
X219996000Y-128218000D01*
X226536000Y-125478000D02*
X226536000Y-128218000D01*
X219996000Y-125478000D02*
X226536000Y-125478000D01*
X219996000Y-128218000D02*
X219996000Y-125478000D01*
X228576000Y-107848000D02*
X225266000Y-107848000D01*
X215416000Y-107848000D02*
X218726000Y-107848000D01*
X225266000Y-109218000D02*
X218726000Y-109218000D01*
X225266000Y-106478000D02*
X225266000Y-109218000D01*
X218726000Y-106478000D02*
X225266000Y-106478000D01*
X218726000Y-109218000D02*
X218726000Y-106478000D01*
X229694000Y-88747600D02*
X226384000Y-88747600D01*
X216534000Y-88747600D02*
X219844000Y-88747600D01*
X226384000Y-90117600D02*
X219844000Y-90117600D01*
X226384000Y-87377600D02*
X226384000Y-90117600D01*
X219844000Y-87377600D02*
X226384000Y-87377600D01*
X219844000Y-90117600D02*
X219844000Y-87377600D01*
X227712000Y-68986400D02*
X224402000Y-68986400D01*
X214552000Y-68986400D02*
X217862000Y-68986400D01*
X224402000Y-70356400D02*
X217862000Y-70356400D01*
X224402000Y-67616400D02*
X224402000Y-70356400D01*
X217862000Y-67616400D02*
X224402000Y-67616400D01*
X217862000Y-70356400D02*
X217862000Y-67616400D01*
X228627000Y-50749200D02*
X225317000Y-50749200D01*
X215467000Y-50749200D02*
X218777000Y-50749200D01*
X225317000Y-52119200D02*
X218777000Y-52119200D01*
X225317000Y-49379200D02*
X225317000Y-52119200D01*
X218777000Y-49379200D02*
X225317000Y-49379200D01*
X218777000Y-52119200D02*
X218777000Y-49379200D01*
X213108000Y-137004000D02*
X210868000Y-137004000D01*
X213108000Y-136764000D02*
X210868000Y-136764000D01*
X213108000Y-136884000D02*
X210868000Y-136884000D01*
X211988000Y-132714000D02*
X211988000Y-133364000D01*
X211988000Y-138254000D02*
X211988000Y-137604000D01*
X213108000Y-133364000D02*
X213108000Y-137604000D01*
X210868000Y-133364000D02*
X213108000Y-133364000D01*
X210868000Y-137604000D02*
X210868000Y-133364000D01*
X213108000Y-137604000D02*
X210868000Y-137604000D01*
X213210000Y-117801000D02*
X210970000Y-117801000D01*
X213210000Y-117561000D02*
X210970000Y-117561000D01*
X213210000Y-117681000D02*
X210970000Y-117681000D01*
X212090000Y-113511000D02*
X212090000Y-114161000D01*
X212090000Y-119051000D02*
X212090000Y-118401000D01*
X213210000Y-114161000D02*
X213210000Y-118401000D01*
X210970000Y-114161000D02*
X213210000Y-114161000D01*
X210970000Y-118401000D02*
X210970000Y-114161000D01*
X213210000Y-118401000D02*
X210970000Y-118401000D01*
X213159000Y-99005000D02*
X210919000Y-99005000D01*
X213159000Y-98765000D02*
X210919000Y-98765000D01*
X213159000Y-98885000D02*
X210919000Y-98885000D01*
X212039000Y-94715000D02*
X212039000Y-95365000D01*
X212039000Y-100255000D02*
X212039000Y-99605000D01*
X213159000Y-95365000D02*
X213159000Y-99605000D01*
X210919000Y-95365000D02*
X213159000Y-95365000D01*
X210919000Y-99605000D02*
X210919000Y-95365000D01*
X213159000Y-99605000D02*
X210919000Y-99605000D01*
X213210000Y-79244000D02*
X210970000Y-79244000D01*
X213210000Y-79004000D02*
X210970000Y-79004000D01*
X213210000Y-79124000D02*
X210970000Y-79124000D01*
X212090000Y-74954000D02*
X212090000Y-75604000D01*
X212090000Y-80494000D02*
X212090000Y-79844000D01*
X213210000Y-75604000D02*
X213210000Y-79844000D01*
X210970000Y-75604000D02*
X213210000Y-75604000D01*
X210970000Y-79844000D02*
X210970000Y-75604000D01*
X213210000Y-79844000D02*
X210970000Y-79844000D01*
X213210000Y-60194000D02*
X210970000Y-60194000D01*
X213210000Y-59954000D02*
X210970000Y-59954000D01*
X213210000Y-60074000D02*
X210970000Y-60074000D01*
X212090000Y-55904000D02*
X212090000Y-56554000D01*
X212090000Y-61444000D02*
X212090000Y-60794000D01*
X213210000Y-56554000D02*
X213210000Y-60794000D01*
X210970000Y-56554000D02*
X213210000Y-56554000D01*
X210970000Y-60794000D02*
X210970000Y-56554000D01*
X213210000Y-60794000D02*
X210970000Y-60794000D01*
X46128500Y-62688000D02*
X47188500Y-62688000D01*
X46128500Y-61628000D02*
X46128500Y-62688000D01*
X46128500Y-60628000D02*
X48248500Y-60628000D01*
X48248500Y-60628000D02*
X48248500Y-54568000D01*
X46128500Y-60628000D02*
X46128500Y-54568000D01*
X46128500Y-54568000D02*
X48248500Y-54568000D01*
X46996500Y-65546948D02*
X46996500Y-66069452D01*
X45576500Y-65546948D02*
X45576500Y-66069452D01*
X48526500Y-66069452D02*
X48526500Y-65546948D01*
X49946500Y-66069452D02*
X49946500Y-65546948D01*
X46348500Y-69648200D02*
X46348500Y-71108200D01*
X49508500Y-69648200D02*
X49508500Y-71808200D01*
X49508500Y-69648200D02*
X48578500Y-69648200D01*
X46348500Y-69648200D02*
X47278500Y-69648200D01*
X147542000Y-165246000D02*
X147542000Y-164186000D01*
X146482000Y-165246000D02*
X147542000Y-165246000D01*
X145482000Y-165246000D02*
X145482000Y-163126000D01*
X145482000Y-163126000D02*
X131422000Y-163126000D01*
X145482000Y-165246000D02*
X131422000Y-165246000D01*
X131422000Y-165246000D02*
X131422000Y-163126000D01*
X47491200Y-100210000D02*
X46431200Y-100210000D01*
X47491200Y-101270000D02*
X47491200Y-100210000D01*
X47491200Y-102270000D02*
X45371200Y-102270000D01*
X45371200Y-102270000D02*
X45371200Y-116330000D01*
X47491200Y-102270000D02*
X47491200Y-116330000D01*
X47491200Y-116330000D02*
X45371200Y-116330000D01*
X212117000Y-88747600D02*
X208807000Y-88747600D01*
X198957000Y-88747600D02*
X202267000Y-88747600D01*
X208807000Y-90117600D02*
X202267000Y-90117600D01*
X208807000Y-87377600D02*
X208807000Y-90117600D01*
X202267000Y-87377600D02*
X208807000Y-87377600D01*
X202267000Y-90117600D02*
X202267000Y-87377600D01*
X194109000Y-98954000D02*
X191869000Y-98954000D01*
X194109000Y-98714000D02*
X191869000Y-98714000D01*
X194109000Y-98834000D02*
X191869000Y-98834000D01*
X192989000Y-94664000D02*
X192989000Y-95314000D01*
X192989000Y-100204000D02*
X192989000Y-99554000D01*
X194109000Y-95314000D02*
X194109000Y-99554000D01*
X191869000Y-95314000D02*
X194109000Y-95314000D01*
X191869000Y-99554000D02*
X191869000Y-95314000D01*
X194109000Y-99554000D02*
X191869000Y-99554000D01*
X211863000Y-126848000D02*
X208553000Y-126848000D01*
X198703000Y-126848000D02*
X202013000Y-126848000D01*
X208553000Y-128218000D02*
X202013000Y-128218000D01*
X208553000Y-125478000D02*
X208553000Y-128218000D01*
X202013000Y-125478000D02*
X208553000Y-125478000D01*
X202013000Y-128218000D02*
X202013000Y-125478000D01*
X209018000Y-107899000D02*
X205708000Y-107899000D01*
X195858000Y-107899000D02*
X199168000Y-107899000D01*
X205708000Y-109269000D02*
X199168000Y-109269000D01*
X205708000Y-106529000D02*
X205708000Y-109269000D01*
X199168000Y-106529000D02*
X205708000Y-106529000D01*
X199168000Y-109269000D02*
X199168000Y-106529000D01*
X218391000Y-146024000D02*
X215081000Y-146024000D01*
X205231000Y-146024000D02*
X208541000Y-146024000D01*
X215081000Y-147394000D02*
X208541000Y-147394000D01*
X215081000Y-144654000D02*
X215081000Y-147394000D01*
X208541000Y-144654000D02*
X215081000Y-144654000D01*
X208541000Y-147394000D02*
X208541000Y-144654000D01*
X186564000Y-126898000D02*
X183254000Y-126898000D01*
X173404000Y-126898000D02*
X176714000Y-126898000D01*
X183254000Y-128268000D02*
X176714000Y-128268000D01*
X183254000Y-125528000D02*
X183254000Y-128268000D01*
X176714000Y-125528000D02*
X183254000Y-125528000D01*
X176714000Y-128268000D02*
X176714000Y-125528000D01*
X177646000Y-107848000D02*
X180956000Y-107848000D01*
X190806000Y-107848000D02*
X187496000Y-107848000D01*
X180956000Y-106478000D02*
X187496000Y-106478000D01*
X180956000Y-109218000D02*
X180956000Y-106478000D01*
X187496000Y-109218000D02*
X180956000Y-109218000D01*
X187496000Y-106478000D02*
X187496000Y-109218000D01*
X187225000Y-88747600D02*
X183915000Y-88747600D01*
X174065000Y-88747600D02*
X177375000Y-88747600D01*
X183915000Y-90117600D02*
X177375000Y-90117600D01*
X183915000Y-87377600D02*
X183915000Y-90117600D01*
X177375000Y-87377600D02*
X183915000Y-87377600D01*
X177375000Y-90117600D02*
X177375000Y-87377600D01*
X184659000Y-146024000D02*
X181349000Y-146024000D01*
X171499000Y-146024000D02*
X174809000Y-146024000D01*
X181349000Y-147394000D02*
X174809000Y-147394000D01*
X181349000Y-144654000D02*
X181349000Y-147394000D01*
X174809000Y-144654000D02*
X181349000Y-144654000D01*
X174809000Y-147394000D02*
X174809000Y-144654000D01*
X168226000Y-126848000D02*
X164916000Y-126848000D01*
X155066000Y-126848000D02*
X158376000Y-126848000D01*
X164916000Y-128218000D02*
X158376000Y-128218000D01*
X164916000Y-125478000D02*
X164916000Y-128218000D01*
X158376000Y-125478000D02*
X164916000Y-125478000D01*
X158376000Y-128218000D02*
X158376000Y-125478000D01*
X170309000Y-107925000D02*
X166999000Y-107925000D01*
X157149000Y-107925000D02*
X160459000Y-107925000D01*
X166999000Y-109295000D02*
X160459000Y-109295000D01*
X166999000Y-106555000D02*
X166999000Y-109295000D01*
X160459000Y-106555000D02*
X166999000Y-106555000D01*
X160459000Y-109295000D02*
X160459000Y-106555000D01*
X169292000Y-88722200D02*
X165982000Y-88722200D01*
X156132000Y-88722200D02*
X159442000Y-88722200D01*
X165982000Y-90092200D02*
X159442000Y-90092200D01*
X165982000Y-87352200D02*
X165982000Y-90092200D01*
X159442000Y-87352200D02*
X165982000Y-87352200D01*
X159442000Y-90092200D02*
X159442000Y-87352200D01*
X156465000Y-145923000D02*
X153155000Y-145923000D01*
X143305000Y-145923000D02*
X146615000Y-145923000D01*
X153155000Y-147293000D02*
X146615000Y-147293000D01*
X153155000Y-144553000D02*
X153155000Y-147293000D01*
X146615000Y-144553000D02*
X153155000Y-144553000D01*
X146615000Y-147293000D02*
X146615000Y-144553000D01*
X149988000Y-126898000D02*
X146678000Y-126898000D01*
X136828000Y-126898000D02*
X140138000Y-126898000D01*
X146678000Y-128268000D02*
X140138000Y-128268000D01*
X146678000Y-125528000D02*
X146678000Y-128268000D01*
X140138000Y-125528000D02*
X146678000Y-125528000D01*
X140138000Y-128268000D02*
X140138000Y-125528000D01*
X151538000Y-107899000D02*
X148228000Y-107899000D01*
X138378000Y-107899000D02*
X141688000Y-107899000D01*
X148228000Y-109269000D02*
X141688000Y-109269000D01*
X148228000Y-106529000D02*
X148228000Y-109269000D01*
X141688000Y-106529000D02*
X148228000Y-106529000D01*
X141688000Y-109269000D02*
X141688000Y-106529000D01*
X151792000Y-88823800D02*
X148482000Y-88823800D01*
X138632000Y-88823800D02*
X141942000Y-88823800D01*
X148482000Y-90193800D02*
X141942000Y-90193800D01*
X148482000Y-87453800D02*
X148482000Y-90193800D01*
X141942000Y-87453800D02*
X148482000Y-87453800D01*
X141942000Y-90193800D02*
X141942000Y-87453800D01*
X128068000Y-145999000D02*
X124758000Y-145999000D01*
X114908000Y-145999000D02*
X118218000Y-145999000D01*
X124758000Y-147369000D02*
X118218000Y-147369000D01*
X124758000Y-144629000D02*
X124758000Y-147369000D01*
X118218000Y-144629000D02*
X124758000Y-144629000D01*
X118218000Y-147369000D02*
X118218000Y-144629000D01*
X127586000Y-126848000D02*
X124276000Y-126848000D01*
X114426000Y-126848000D02*
X117736000Y-126848000D01*
X124276000Y-128218000D02*
X117736000Y-128218000D01*
X124276000Y-125478000D02*
X124276000Y-128218000D01*
X117736000Y-125478000D02*
X124276000Y-125478000D01*
X117736000Y-128218000D02*
X117736000Y-125478000D01*
X127763000Y-107899000D02*
X124453000Y-107899000D01*
X114603000Y-107899000D02*
X117913000Y-107899000D01*
X124453000Y-109269000D02*
X117913000Y-109269000D01*
X124453000Y-106529000D02*
X124453000Y-109269000D01*
X117913000Y-106529000D02*
X124453000Y-106529000D01*
X117913000Y-109269000D02*
X117913000Y-106529000D01*
X129110000Y-88773000D02*
X125800000Y-88773000D01*
X115950000Y-88773000D02*
X119260000Y-88773000D01*
X125800000Y-90143000D02*
X119260000Y-90143000D01*
X125800000Y-87403000D02*
X125800000Y-90143000D01*
X119260000Y-87403000D02*
X125800000Y-87403000D01*
X119260000Y-90143000D02*
X119260000Y-87403000D01*
X104268400Y-146126000D02*
X100958400Y-146126000D01*
X91108400Y-146126000D02*
X94418400Y-146126000D01*
X100958400Y-147496000D02*
X94418400Y-147496000D01*
X100958400Y-144756000D02*
X100958400Y-147496000D01*
X94418400Y-144756000D02*
X100958400Y-144756000D01*
X94418400Y-147496000D02*
X94418400Y-144756000D01*
X107722800Y-126848000D02*
X104412800Y-126848000D01*
X94562800Y-126848000D02*
X97872800Y-126848000D01*
X104412800Y-128218000D02*
X97872800Y-128218000D01*
X104412800Y-125478000D02*
X104412800Y-128218000D01*
X97872800Y-125478000D02*
X104412800Y-125478000D01*
X97872800Y-128218000D02*
X97872800Y-125478000D01*
X104065200Y-107950000D02*
X100755200Y-107950000D01*
X90905200Y-107950000D02*
X94215200Y-107950000D01*
X100755200Y-109320000D02*
X94215200Y-109320000D01*
X100755200Y-106580000D02*
X100755200Y-109320000D01*
X94215200Y-106580000D02*
X100755200Y-106580000D01*
X94215200Y-109320000D02*
X94215200Y-106580000D01*
X106833800Y-88823800D02*
X103523800Y-88823800D01*
X93673800Y-88823800D02*
X96983800Y-88823800D01*
X103523800Y-90193800D02*
X96983800Y-90193800D01*
X103523800Y-87453800D02*
X103523800Y-90193800D01*
X96983800Y-87453800D02*
X103523800Y-87453800D01*
X96983800Y-90193800D02*
X96983800Y-87453800D01*
X85066000Y-145923000D02*
X81756000Y-145923000D01*
X71906000Y-145923000D02*
X75216000Y-145923000D01*
X81756000Y-147293000D02*
X75216000Y-147293000D01*
X81756000Y-144553000D02*
X81756000Y-147293000D01*
X75216000Y-144553000D02*
X81756000Y-144553000D01*
X75216000Y-147293000D02*
X75216000Y-144553000D01*
X81611600Y-126898000D02*
X78301600Y-126898000D01*
X68451600Y-126898000D02*
X71761600Y-126898000D01*
X78301600Y-128268000D02*
X71761600Y-128268000D01*
X78301600Y-125528000D02*
X78301600Y-128268000D01*
X71761600Y-125528000D02*
X78301600Y-125528000D01*
X71761600Y-128268000D02*
X71761600Y-125528000D01*
X84964400Y-107823000D02*
X81654400Y-107823000D01*
X71804400Y-107823000D02*
X75114400Y-107823000D01*
X81654400Y-109193000D02*
X75114400Y-109193000D01*
X81654400Y-106453000D02*
X81654400Y-109193000D01*
X75114400Y-106453000D02*
X81654400Y-106453000D01*
X75114400Y-109193000D02*
X75114400Y-106453000D01*
X82018000Y-88900000D02*
X78708000Y-88900000D01*
X68858000Y-88900000D02*
X72168000Y-88900000D01*
X78708000Y-90270000D02*
X72168000Y-90270000D01*
X78708000Y-87530000D02*
X78708000Y-90270000D01*
X72168000Y-87530000D02*
X78708000Y-87530000D01*
X72168000Y-90270000D02*
X72168000Y-87530000D01*
X65711200Y-145898000D02*
X62401200Y-145898000D01*
X52551200Y-145898000D02*
X55861200Y-145898000D01*
X62401200Y-147268000D02*
X55861200Y-147268000D01*
X62401200Y-144528000D02*
X62401200Y-147268000D01*
X55861200Y-144528000D02*
X62401200Y-144528000D01*
X55861200Y-147268000D02*
X55861200Y-144528000D01*
X62764800Y-126898000D02*
X59454800Y-126898000D01*
X49604800Y-126898000D02*
X52914800Y-126898000D01*
X59454800Y-128268000D02*
X52914800Y-128268000D01*
X59454800Y-125528000D02*
X59454800Y-128268000D01*
X52914800Y-125528000D02*
X59454800Y-125528000D01*
X52914800Y-128268000D02*
X52914800Y-125528000D01*
X65812800Y-107925000D02*
X62502800Y-107925000D01*
X52652800Y-107925000D02*
X55962800Y-107925000D01*
X62502800Y-109295000D02*
X55962800Y-109295000D01*
X62502800Y-106555000D02*
X62502800Y-109295000D01*
X55962800Y-106555000D02*
X62502800Y-106555000D01*
X55962800Y-109295000D02*
X55962800Y-106555000D01*
X64238000Y-88823800D02*
X60928000Y-88823800D01*
X51078000Y-88823800D02*
X54388000Y-88823800D01*
X60928000Y-90193800D02*
X54388000Y-90193800D01*
X60928000Y-87453800D02*
X60928000Y-90193800D01*
X54388000Y-87453800D02*
X60928000Y-87453800D01*
X54388000Y-90193800D02*
X54388000Y-87453800D01*
X194160000Y-137029000D02*
X191920000Y-137029000D01*
X194160000Y-136789000D02*
X191920000Y-136789000D01*
X194160000Y-136909000D02*
X191920000Y-136909000D01*
X193040000Y-132739000D02*
X193040000Y-133389000D01*
X193040000Y-138279000D02*
X193040000Y-137629000D01*
X194160000Y-133389000D02*
X194160000Y-137629000D01*
X191920000Y-133389000D02*
X194160000Y-133389000D01*
X191920000Y-137629000D02*
X191920000Y-133389000D01*
X194160000Y-137629000D02*
X191920000Y-137629000D01*
X194109000Y-117750000D02*
X191869000Y-117750000D01*
X194109000Y-117510000D02*
X191869000Y-117510000D01*
X194109000Y-117630000D02*
X191869000Y-117630000D01*
X192989000Y-113460000D02*
X192989000Y-114110000D01*
X192989000Y-119000000D02*
X192989000Y-118350000D01*
X194109000Y-114110000D02*
X194109000Y-118350000D01*
X191869000Y-114110000D02*
X194109000Y-114110000D01*
X191869000Y-118350000D02*
X191869000Y-114110000D01*
X194109000Y-118350000D02*
X191869000Y-118350000D01*
X193779000Y-156028000D02*
X191539000Y-156028000D01*
X193779000Y-155788000D02*
X191539000Y-155788000D01*
X193779000Y-155908000D02*
X191539000Y-155908000D01*
X192659000Y-151738000D02*
X192659000Y-152388000D01*
X192659000Y-157278000D02*
X192659000Y-156628000D01*
X193779000Y-152388000D02*
X193779000Y-156628000D01*
X191539000Y-152388000D02*
X193779000Y-152388000D01*
X191539000Y-156628000D02*
X191539000Y-152388000D01*
X193779000Y-156628000D02*
X191539000Y-156628000D01*
X175186000Y-136953000D02*
X172946000Y-136953000D01*
X175186000Y-136713000D02*
X172946000Y-136713000D01*
X175186000Y-136833000D02*
X172946000Y-136833000D01*
X174066000Y-132663000D02*
X174066000Y-133313000D01*
X174066000Y-138203000D02*
X174066000Y-137553000D01*
X175186000Y-133313000D02*
X175186000Y-137553000D01*
X172946000Y-133313000D02*
X175186000Y-133313000D01*
X172946000Y-137553000D02*
X172946000Y-133313000D01*
X175186000Y-137553000D02*
X172946000Y-137553000D01*
X175135000Y-117801000D02*
X172895000Y-117801000D01*
X175135000Y-117561000D02*
X172895000Y-117561000D01*
X175135000Y-117681000D02*
X172895000Y-117681000D01*
X174015000Y-113511000D02*
X174015000Y-114161000D01*
X174015000Y-119051000D02*
X174015000Y-118401000D01*
X175135000Y-114161000D02*
X175135000Y-118401000D01*
X172895000Y-114161000D02*
X175135000Y-114161000D01*
X172895000Y-118401000D02*
X172895000Y-114161000D01*
X175135000Y-118401000D02*
X172895000Y-118401000D01*
X175237000Y-98802000D02*
X172997000Y-98802000D01*
X175237000Y-98562000D02*
X172997000Y-98562000D01*
X175237000Y-98682000D02*
X172997000Y-98682000D01*
X174117000Y-94512000D02*
X174117000Y-95162000D01*
X174117000Y-100052000D02*
X174117000Y-99402000D01*
X175237000Y-95162000D02*
X175237000Y-99402000D01*
X172997000Y-95162000D02*
X175237000Y-95162000D01*
X172997000Y-99402000D02*
X172997000Y-95162000D01*
X175237000Y-99402000D02*
X172997000Y-99402000D01*
X170309000Y-155926000D02*
X168069000Y-155926000D01*
X170309000Y-155686000D02*
X168069000Y-155686000D01*
X170309000Y-155806000D02*
X168069000Y-155806000D01*
X169189000Y-151636000D02*
X169189000Y-152286000D01*
X169189000Y-157176000D02*
X169189000Y-156526000D01*
X170309000Y-152286000D02*
X170309000Y-156526000D01*
X168069000Y-152286000D02*
X170309000Y-152286000D01*
X168069000Y-156526000D02*
X168069000Y-152286000D01*
X170309000Y-156526000D02*
X168069000Y-156526000D01*
X156085000Y-136978000D02*
X153845000Y-136978000D01*
X156085000Y-136738000D02*
X153845000Y-136738000D01*
X156085000Y-136858000D02*
X153845000Y-136858000D01*
X154965000Y-132688000D02*
X154965000Y-133338000D01*
X154965000Y-138228000D02*
X154965000Y-137578000D01*
X156085000Y-133338000D02*
X156085000Y-137578000D01*
X153845000Y-133338000D02*
X156085000Y-133338000D01*
X153845000Y-137578000D02*
X153845000Y-133338000D01*
X156085000Y-137578000D02*
X153845000Y-137578000D01*
X155984000Y-117979000D02*
X153744000Y-117979000D01*
X155984000Y-117739000D02*
X153744000Y-117739000D01*
X155984000Y-117859000D02*
X153744000Y-117859000D01*
X154864000Y-113689000D02*
X154864000Y-114339000D01*
X154864000Y-119229000D02*
X154864000Y-118579000D01*
X155984000Y-114339000D02*
X155984000Y-118579000D01*
X153744000Y-114339000D02*
X155984000Y-114339000D01*
X153744000Y-118579000D02*
X153744000Y-114339000D01*
X155984000Y-118579000D02*
X153744000Y-118579000D01*
X155958000Y-98751000D02*
X153718000Y-98751000D01*
X155958000Y-98511000D02*
X153718000Y-98511000D01*
X155958000Y-98631000D02*
X153718000Y-98631000D01*
X154838000Y-94461000D02*
X154838000Y-95111000D01*
X154838000Y-100001000D02*
X154838000Y-99351000D01*
X155958000Y-95111000D02*
X155958000Y-99351000D01*
X153718000Y-95111000D02*
X155958000Y-95111000D01*
X153718000Y-99351000D02*
X153718000Y-95111000D01*
X155958000Y-99351000D02*
X153718000Y-99351000D01*
X141988000Y-156079000D02*
X139748000Y-156079000D01*
X141988000Y-155839000D02*
X139748000Y-155839000D01*
X141988000Y-155959000D02*
X139748000Y-155959000D01*
X140868000Y-151789000D02*
X140868000Y-152439000D01*
X140868000Y-157329000D02*
X140868000Y-156679000D01*
X141988000Y-152439000D02*
X141988000Y-156679000D01*
X139748000Y-152439000D02*
X141988000Y-152439000D01*
X139748000Y-156679000D02*
X139748000Y-152439000D01*
X141988000Y-156679000D02*
X139748000Y-156679000D01*
X136985000Y-136978000D02*
X134745000Y-136978000D01*
X136985000Y-136738000D02*
X134745000Y-136738000D01*
X136985000Y-136858000D02*
X134745000Y-136858000D01*
X135865000Y-132688000D02*
X135865000Y-133338000D01*
X135865000Y-138228000D02*
X135865000Y-137578000D01*
X136985000Y-133338000D02*
X136985000Y-137578000D01*
X134745000Y-133338000D02*
X136985000Y-133338000D01*
X134745000Y-137578000D02*
X134745000Y-133338000D01*
X136985000Y-137578000D02*
X134745000Y-137578000D01*
X136934000Y-117928000D02*
X134694000Y-117928000D01*
X136934000Y-117688000D02*
X134694000Y-117688000D01*
X136934000Y-117808000D02*
X134694000Y-117808000D01*
X135814000Y-113638000D02*
X135814000Y-114288000D01*
X135814000Y-119178000D02*
X135814000Y-118528000D01*
X136934000Y-114288000D02*
X136934000Y-118528000D01*
X134694000Y-114288000D02*
X136934000Y-114288000D01*
X134694000Y-118528000D02*
X134694000Y-114288000D01*
X136934000Y-118528000D02*
X134694000Y-118528000D01*
X137061000Y-99107000D02*
X134821000Y-99107000D01*
X137061000Y-98867000D02*
X134821000Y-98867000D01*
X137061000Y-98987000D02*
X134821000Y-98987000D01*
X135941000Y-94817000D02*
X135941000Y-95467000D01*
X135941000Y-100357000D02*
X135941000Y-99707000D01*
X137061000Y-95467000D02*
X137061000Y-99707000D01*
X134821000Y-95467000D02*
X137061000Y-95467000D01*
X134821000Y-99707000D02*
X134821000Y-95467000D01*
X137061000Y-99707000D02*
X134821000Y-99707000D01*
X113210000Y-156155000D02*
X110970000Y-156155000D01*
X113210000Y-155915000D02*
X110970000Y-155915000D01*
X113210000Y-156035000D02*
X110970000Y-156035000D01*
X112090000Y-151865000D02*
X112090000Y-152515000D01*
X112090000Y-157405000D02*
X112090000Y-156755000D01*
X113210000Y-152515000D02*
X113210000Y-156755000D01*
X110970000Y-152515000D02*
X113210000Y-152515000D01*
X110970000Y-156755000D02*
X110970000Y-152515000D01*
X113210000Y-156755000D02*
X110970000Y-156755000D01*
X113032000Y-136927000D02*
X110792000Y-136927000D01*
X113032000Y-136687000D02*
X110792000Y-136687000D01*
X113032000Y-136807000D02*
X110792000Y-136807000D01*
X111912000Y-132637000D02*
X111912000Y-133287000D01*
X111912000Y-138177000D02*
X111912000Y-137527000D01*
X113032000Y-133287000D02*
X113032000Y-137527000D01*
X110792000Y-133287000D02*
X113032000Y-133287000D01*
X110792000Y-137527000D02*
X110792000Y-133287000D01*
X113032000Y-137527000D02*
X110792000Y-137527000D01*
X113159000Y-117928000D02*
X110919000Y-117928000D01*
X113159000Y-117688000D02*
X110919000Y-117688000D01*
X113159000Y-117808000D02*
X110919000Y-117808000D01*
X112039000Y-113638000D02*
X112039000Y-114288000D01*
X112039000Y-119178000D02*
X112039000Y-118528000D01*
X113159000Y-114288000D02*
X113159000Y-118528000D01*
X110919000Y-114288000D02*
X113159000Y-114288000D01*
X110919000Y-118528000D02*
X110919000Y-114288000D01*
X113159000Y-118528000D02*
X110919000Y-118528000D01*
X113109000Y-98929000D02*
X110869000Y-98929000D01*
X113109000Y-98689000D02*
X110869000Y-98689000D01*
X113109000Y-98809000D02*
X110869000Y-98809000D01*
X111989000Y-94639000D02*
X111989000Y-95289000D01*
X111989000Y-100179000D02*
X111989000Y-99529000D01*
X113109000Y-95289000D02*
X113109000Y-99529000D01*
X110869000Y-95289000D02*
X113109000Y-95289000D01*
X110869000Y-99529000D02*
X110869000Y-95289000D01*
X113109000Y-99529000D02*
X110869000Y-99529000D01*
X89410400Y-155774000D02*
X87170400Y-155774000D01*
X89410400Y-155534000D02*
X87170400Y-155534000D01*
X89410400Y-155654000D02*
X87170400Y-155654000D01*
X88290400Y-151484000D02*
X88290400Y-152134000D01*
X88290400Y-157024000D02*
X88290400Y-156374000D01*
X89410400Y-152134000D02*
X89410400Y-156374000D01*
X87170400Y-152134000D02*
X89410400Y-152134000D01*
X87170400Y-156374000D02*
X87170400Y-152134000D01*
X89410400Y-156374000D02*
X87170400Y-156374000D01*
X89359600Y-137131000D02*
X87119600Y-137131000D01*
X89359600Y-136891000D02*
X87119600Y-136891000D01*
X89359600Y-137011000D02*
X87119600Y-137011000D01*
X88239600Y-132841000D02*
X88239600Y-133491000D01*
X88239600Y-138381000D02*
X88239600Y-137731000D01*
X89359600Y-133491000D02*
X89359600Y-137731000D01*
X87119600Y-133491000D02*
X89359600Y-133491000D01*
X87119600Y-137731000D02*
X87119600Y-133491000D01*
X89359600Y-137731000D02*
X87119600Y-137731000D01*
X89334200Y-117979000D02*
X87094200Y-117979000D01*
X89334200Y-117739000D02*
X87094200Y-117739000D01*
X89334200Y-117859000D02*
X87094200Y-117859000D01*
X88214200Y-113689000D02*
X88214200Y-114339000D01*
X88214200Y-119229000D02*
X88214200Y-118579000D01*
X89334200Y-114339000D02*
X89334200Y-118579000D01*
X87094200Y-114339000D02*
X89334200Y-114339000D01*
X87094200Y-118579000D02*
X87094200Y-114339000D01*
X89334200Y-118579000D02*
X87094200Y-118579000D01*
X89385000Y-98802000D02*
X87145000Y-98802000D01*
X89385000Y-98562000D02*
X87145000Y-98562000D01*
X89385000Y-98682000D02*
X87145000Y-98682000D01*
X88265000Y-94512000D02*
X88265000Y-95162000D01*
X88265000Y-100052000D02*
X88265000Y-99402000D01*
X89385000Y-95162000D02*
X89385000Y-99402000D01*
X87145000Y-95162000D02*
X89385000Y-95162000D01*
X87145000Y-99402000D02*
X87145000Y-95162000D01*
X89385000Y-99402000D02*
X87145000Y-99402000D01*
X70208000Y-155952000D02*
X67968000Y-155952000D01*
X70208000Y-155712000D02*
X67968000Y-155712000D01*
X70208000Y-155832000D02*
X67968000Y-155832000D01*
X69088000Y-151662000D02*
X69088000Y-152312000D01*
X69088000Y-157202000D02*
X69088000Y-156552000D01*
X70208000Y-152312000D02*
X70208000Y-156552000D01*
X67968000Y-152312000D02*
X70208000Y-152312000D01*
X67968000Y-156552000D02*
X67968000Y-152312000D01*
X70208000Y-156552000D02*
X67968000Y-156552000D01*
X70335000Y-137156000D02*
X68095000Y-137156000D01*
X70335000Y-136916000D02*
X68095000Y-136916000D01*
X70335000Y-137036000D02*
X68095000Y-137036000D01*
X69215000Y-132866000D02*
X69215000Y-133516000D01*
X69215000Y-138406000D02*
X69215000Y-137756000D01*
X70335000Y-133516000D02*
X70335000Y-137756000D01*
X68095000Y-133516000D02*
X70335000Y-133516000D01*
X68095000Y-137756000D02*
X68095000Y-133516000D01*
X70335000Y-137756000D02*
X68095000Y-137756000D01*
X70360400Y-117928000D02*
X68120400Y-117928000D01*
X70360400Y-117688000D02*
X68120400Y-117688000D01*
X70360400Y-117808000D02*
X68120400Y-117808000D01*
X69240400Y-113638000D02*
X69240400Y-114288000D01*
X69240400Y-119178000D02*
X69240400Y-118528000D01*
X70360400Y-114288000D02*
X70360400Y-118528000D01*
X68120400Y-114288000D02*
X70360400Y-114288000D01*
X68120400Y-118528000D02*
X68120400Y-114288000D01*
X70360400Y-118528000D02*
X68120400Y-118528000D01*
X70462000Y-99056000D02*
X68222000Y-99056000D01*
X70462000Y-98816000D02*
X68222000Y-98816000D01*
X70462000Y-98936000D02*
X68222000Y-98936000D01*
X69342000Y-94766000D02*
X69342000Y-95416000D01*
X69342000Y-100306000D02*
X69342000Y-99656000D01*
X70462000Y-95416000D02*
X70462000Y-99656000D01*
X68222000Y-95416000D02*
X70462000Y-95416000D01*
X68222000Y-99656000D02*
X68222000Y-95416000D01*
X70462000Y-99656000D02*
X68222000Y-99656000D01*
X51310400Y-155647000D02*
X49070400Y-155647000D01*
X51310400Y-155407000D02*
X49070400Y-155407000D01*
X51310400Y-155527000D02*
X49070400Y-155527000D01*
X50190400Y-151357000D02*
X50190400Y-152007000D01*
X50190400Y-156897000D02*
X50190400Y-156247000D01*
X51310400Y-152007000D02*
X51310400Y-156247000D01*
X49070400Y-152007000D02*
X51310400Y-152007000D01*
X49070400Y-156247000D02*
X49070400Y-152007000D01*
X51310400Y-156247000D02*
X49070400Y-156247000D01*
X51285000Y-137156000D02*
X49045000Y-137156000D01*
X51285000Y-136916000D02*
X49045000Y-136916000D01*
X51285000Y-137036000D02*
X49045000Y-137036000D01*
X50165000Y-132866000D02*
X50165000Y-133516000D01*
X50165000Y-138406000D02*
X50165000Y-137756000D01*
X51285000Y-133516000D02*
X51285000Y-137756000D01*
X49045000Y-133516000D02*
X51285000Y-133516000D01*
X49045000Y-137756000D02*
X49045000Y-133516000D01*
X51285000Y-137756000D02*
X49045000Y-137756000D01*
X51285000Y-118233000D02*
X49045000Y-118233000D01*
X51285000Y-117993000D02*
X49045000Y-117993000D01*
X51285000Y-118113000D02*
X49045000Y-118113000D01*
X50165000Y-113943000D02*
X50165000Y-114593000D01*
X50165000Y-119483000D02*
X50165000Y-118833000D01*
X51285000Y-114593000D02*
X51285000Y-118833000D01*
X49045000Y-114593000D02*
X51285000Y-114593000D01*
X49045000Y-118833000D02*
X49045000Y-114593000D01*
X51285000Y-118833000D02*
X49045000Y-118833000D01*
X51285000Y-98675000D02*
X49045000Y-98675000D01*
X51285000Y-98435000D02*
X49045000Y-98435000D01*
X51285000Y-98555000D02*
X49045000Y-98555000D01*
X50165000Y-94385000D02*
X50165000Y-95035000D01*
X50165000Y-99925000D02*
X50165000Y-99275000D01*
X51285000Y-95035000D02*
X51285000Y-99275000D01*
X49045000Y-95035000D02*
X51285000Y-95035000D01*
X49045000Y-99275000D02*
X49045000Y-95035000D01*
X51285000Y-99275000D02*
X49045000Y-99275000D01*
X194287000Y-79244000D02*
X192047000Y-79244000D01*
X194287000Y-79004000D02*
X192047000Y-79004000D01*
X194287000Y-79124000D02*
X192047000Y-79124000D01*
X193167000Y-74954000D02*
X193167000Y-75604000D01*
X193167000Y-80494000D02*
X193167000Y-79844000D01*
X194287000Y-75604000D02*
X194287000Y-79844000D01*
X192047000Y-75604000D02*
X194287000Y-75604000D01*
X192047000Y-79844000D02*
X192047000Y-75604000D01*
X194287000Y-79844000D02*
X192047000Y-79844000D01*
X193906000Y-60194000D02*
X191666000Y-60194000D01*
X193906000Y-59954000D02*
X191666000Y-59954000D01*
X193906000Y-60074000D02*
X191666000Y-60074000D01*
X192786000Y-55904000D02*
X192786000Y-56554000D01*
X192786000Y-61444000D02*
X192786000Y-60794000D01*
X193906000Y-56554000D02*
X193906000Y-60794000D01*
X191666000Y-56554000D02*
X193906000Y-56554000D01*
X191666000Y-60794000D02*
X191666000Y-56554000D01*
X193906000Y-60794000D02*
X191666000Y-60794000D01*
X174983000Y-79371000D02*
X172743000Y-79371000D01*
X174983000Y-79131000D02*
X172743000Y-79131000D01*
X174983000Y-79251000D02*
X172743000Y-79251000D01*
X173863000Y-75081000D02*
X173863000Y-75731000D01*
X173863000Y-80621000D02*
X173863000Y-79971000D01*
X174983000Y-75731000D02*
X174983000Y-79971000D01*
X172743000Y-75731000D02*
X174983000Y-75731000D01*
X172743000Y-79971000D02*
X172743000Y-75731000D01*
X174983000Y-79971000D02*
X172743000Y-79971000D01*
X174856000Y-60448000D02*
X172616000Y-60448000D01*
X174856000Y-60208000D02*
X172616000Y-60208000D01*
X174856000Y-60328000D02*
X172616000Y-60328000D01*
X173736000Y-56158000D02*
X173736000Y-56808000D01*
X173736000Y-61698000D02*
X173736000Y-61048000D01*
X174856000Y-56808000D02*
X174856000Y-61048000D01*
X172616000Y-56808000D02*
X174856000Y-56808000D01*
X172616000Y-61048000D02*
X172616000Y-56808000D01*
X174856000Y-61048000D02*
X172616000Y-61048000D01*
X156187000Y-79371000D02*
X153947000Y-79371000D01*
X156187000Y-79131000D02*
X153947000Y-79131000D01*
X156187000Y-79251000D02*
X153947000Y-79251000D01*
X155067000Y-75081000D02*
X155067000Y-75731000D01*
X155067000Y-80621000D02*
X155067000Y-79971000D01*
X156187000Y-75731000D02*
X156187000Y-79971000D01*
X153947000Y-75731000D02*
X156187000Y-75731000D01*
X153947000Y-79971000D02*
X153947000Y-75731000D01*
X156187000Y-79971000D02*
X153947000Y-79971000D01*
X155806000Y-60194000D02*
X153566000Y-60194000D01*
X155806000Y-59954000D02*
X153566000Y-59954000D01*
X155806000Y-60074000D02*
X153566000Y-60074000D01*
X154686000Y-55904000D02*
X154686000Y-56554000D01*
X154686000Y-61444000D02*
X154686000Y-60794000D01*
X155806000Y-56554000D02*
X155806000Y-60794000D01*
X153566000Y-56554000D02*
X155806000Y-56554000D01*
X153566000Y-60794000D02*
X153566000Y-56554000D01*
X155806000Y-60794000D02*
X153566000Y-60794000D01*
X137137000Y-79625000D02*
X134897000Y-79625000D01*
X137137000Y-79385000D02*
X134897000Y-79385000D01*
X137137000Y-79505000D02*
X134897000Y-79505000D01*
X136017000Y-75335000D02*
X136017000Y-75985000D01*
X136017000Y-80875000D02*
X136017000Y-80225000D01*
X137137000Y-75985000D02*
X137137000Y-80225000D01*
X134897000Y-75985000D02*
X137137000Y-75985000D01*
X134897000Y-80225000D02*
X134897000Y-75985000D01*
X137137000Y-80225000D02*
X134897000Y-80225000D01*
X141836000Y-60194000D02*
X139596000Y-60194000D01*
X141836000Y-59954000D02*
X139596000Y-59954000D01*
X141836000Y-60074000D02*
X139596000Y-60074000D01*
X140716000Y-55904000D02*
X140716000Y-56554000D01*
X140716000Y-61444000D02*
X140716000Y-60794000D01*
X141836000Y-56554000D02*
X141836000Y-60794000D01*
X139596000Y-56554000D02*
X141836000Y-56554000D01*
X139596000Y-60794000D02*
X139596000Y-56554000D01*
X141836000Y-60794000D02*
X139596000Y-60794000D01*
X113261000Y-79752000D02*
X111021000Y-79752000D01*
X113261000Y-79512000D02*
X111021000Y-79512000D01*
X113261000Y-79632000D02*
X111021000Y-79632000D01*
X112141000Y-75462000D02*
X112141000Y-76112000D01*
X112141000Y-81002000D02*
X112141000Y-80352000D01*
X113261000Y-76112000D02*
X113261000Y-80352000D01*
X111021000Y-76112000D02*
X113261000Y-76112000D01*
X111021000Y-80352000D02*
X111021000Y-76112000D01*
X113261000Y-80352000D02*
X111021000Y-80352000D01*
X113388000Y-60448000D02*
X111148000Y-60448000D01*
X113388000Y-60208000D02*
X111148000Y-60208000D01*
X113388000Y-60328000D02*
X111148000Y-60328000D01*
X112268000Y-56158000D02*
X112268000Y-56808000D01*
X112268000Y-61698000D02*
X112268000Y-61048000D01*
X113388000Y-56808000D02*
X113388000Y-61048000D01*
X111148000Y-56808000D02*
X113388000Y-56808000D01*
X111148000Y-61048000D02*
X111148000Y-56808000D01*
X113388000Y-61048000D02*
X111148000Y-61048000D01*
X89512000Y-80006000D02*
X87272000Y-80006000D01*
X89512000Y-79766000D02*
X87272000Y-79766000D01*
X89512000Y-79886000D02*
X87272000Y-79886000D01*
X88392000Y-75716000D02*
X88392000Y-76366000D01*
X88392000Y-81256000D02*
X88392000Y-80606000D01*
X89512000Y-76366000D02*
X89512000Y-80606000D01*
X87272000Y-76366000D02*
X89512000Y-76366000D01*
X87272000Y-80606000D02*
X87272000Y-76366000D01*
X89512000Y-80606000D02*
X87272000Y-80606000D01*
X89512000Y-60448000D02*
X87272000Y-60448000D01*
X89512000Y-60208000D02*
X87272000Y-60208000D01*
X89512000Y-60328000D02*
X87272000Y-60328000D01*
X88392000Y-56158000D02*
X88392000Y-56808000D01*
X88392000Y-61698000D02*
X88392000Y-61048000D01*
X89512000Y-56808000D02*
X89512000Y-61048000D01*
X87272000Y-56808000D02*
X89512000Y-56808000D01*
X87272000Y-61048000D02*
X87272000Y-56808000D01*
X89512000Y-61048000D02*
X87272000Y-61048000D01*
X70462000Y-80006000D02*
X68222000Y-80006000D01*
X70462000Y-79766000D02*
X68222000Y-79766000D01*
X70462000Y-79886000D02*
X68222000Y-79886000D01*
X69342000Y-75716000D02*
X69342000Y-76366000D01*
X69342000Y-81256000D02*
X69342000Y-80606000D01*
X70462000Y-76366000D02*
X70462000Y-80606000D01*
X68222000Y-76366000D02*
X70462000Y-76366000D01*
X68222000Y-80606000D02*
X68222000Y-76366000D01*
X70462000Y-80606000D02*
X68222000Y-80606000D01*
X70462000Y-60448000D02*
X68222000Y-60448000D01*
X70462000Y-60208000D02*
X68222000Y-60208000D01*
X70462000Y-60328000D02*
X68222000Y-60328000D01*
X69342000Y-56158000D02*
X69342000Y-56808000D01*
X69342000Y-61698000D02*
X69342000Y-61048000D01*
X70462000Y-56808000D02*
X70462000Y-61048000D01*
X68222000Y-56808000D02*
X70462000Y-56808000D01*
X68222000Y-61048000D02*
X68222000Y-56808000D01*
X70462000Y-61048000D02*
X68222000Y-61048000D01*
X48262400Y-90267600D02*
X46022400Y-90267600D01*
X48262400Y-90027600D02*
X46022400Y-90027600D01*
X48262400Y-90147600D02*
X46022400Y-90147600D01*
X47142400Y-85977600D02*
X47142400Y-86627600D01*
X47142400Y-91517600D02*
X47142400Y-90867600D01*
X48262400Y-86627600D02*
X48262400Y-90867600D01*
X46022400Y-86627600D02*
X48262400Y-86627600D01*
X46022400Y-90867600D02*
X46022400Y-86627600D01*
X48262400Y-90867600D02*
X46022400Y-90867600D01*
X48262400Y-80006000D02*
X46022400Y-80006000D01*
X48262400Y-79766000D02*
X46022400Y-79766000D01*
X48262400Y-79886000D02*
X46022400Y-79886000D01*
X47142400Y-75716000D02*
X47142400Y-76366000D01*
X47142400Y-81256000D02*
X47142400Y-80606000D01*
X48262400Y-76366000D02*
X48262400Y-80606000D01*
X46022400Y-76366000D02*
X48262400Y-76366000D01*
X46022400Y-80606000D02*
X46022400Y-76366000D01*
X48262400Y-80606000D02*
X46022400Y-80606000D01*
X208637000Y-68834000D02*
X205327000Y-68834000D01*
X195477000Y-68834000D02*
X198787000Y-68834000D01*
X205327000Y-70204000D02*
X198787000Y-70204000D01*
X205327000Y-67464000D02*
X205327000Y-70204000D01*
X198787000Y-67464000D02*
X205327000Y-67464000D01*
X198787000Y-70204000D02*
X198787000Y-67464000D01*
X209577000Y-50800000D02*
X206267000Y-50800000D01*
X196417000Y-50800000D02*
X199727000Y-50800000D01*
X206267000Y-52170000D02*
X199727000Y-52170000D01*
X206267000Y-49430000D02*
X206267000Y-52170000D01*
X199727000Y-49430000D02*
X206267000Y-49430000D01*
X199727000Y-52170000D02*
X199727000Y-49430000D01*
X189511000Y-68884800D02*
X186201000Y-68884800D01*
X176351000Y-68884800D02*
X179661000Y-68884800D01*
X186201000Y-70254800D02*
X179661000Y-70254800D01*
X186201000Y-67514800D02*
X186201000Y-70254800D01*
X179661000Y-67514800D02*
X186201000Y-67514800D01*
X179661000Y-70254800D02*
X179661000Y-67514800D01*
X190324000Y-50800000D02*
X187014000Y-50800000D01*
X177164000Y-50800000D02*
X180474000Y-50800000D01*
X187014000Y-52170000D02*
X180474000Y-52170000D01*
X187014000Y-49430000D02*
X187014000Y-52170000D01*
X180474000Y-49430000D02*
X187014000Y-49430000D01*
X180474000Y-52170000D02*
X180474000Y-49430000D01*
X170639000Y-69037200D02*
X167329000Y-69037200D01*
X157479000Y-69037200D02*
X160789000Y-69037200D01*
X167329000Y-70407200D02*
X160789000Y-70407200D01*
X167329000Y-67667200D02*
X167329000Y-70407200D01*
X160789000Y-67667200D02*
X167329000Y-67667200D01*
X160789000Y-70407200D02*
X160789000Y-67667200D01*
X171324000Y-50749200D02*
X168014000Y-50749200D01*
X158164000Y-50749200D02*
X161474000Y-50749200D01*
X168014000Y-52119200D02*
X161474000Y-52119200D01*
X168014000Y-49379200D02*
X168014000Y-52119200D01*
X161474000Y-49379200D02*
X168014000Y-49379200D01*
X161474000Y-52119200D02*
X161474000Y-49379200D01*
X151843000Y-68884800D02*
X148533000Y-68884800D01*
X138683000Y-68884800D02*
X141993000Y-68884800D01*
X148533000Y-70254800D02*
X141993000Y-70254800D01*
X148533000Y-67514800D02*
X148533000Y-70254800D01*
X141993000Y-67514800D02*
X148533000Y-67514800D01*
X141993000Y-70254800D02*
X141993000Y-67514800D01*
X152376000Y-50800000D02*
X149066000Y-50800000D01*
X139216000Y-50800000D02*
X142526000Y-50800000D01*
X149066000Y-52170000D02*
X142526000Y-52170000D01*
X149066000Y-49430000D02*
X149066000Y-52170000D01*
X142526000Y-49430000D02*
X149066000Y-49430000D01*
X142526000Y-52170000D02*
X142526000Y-49430000D01*
X127916000Y-68961000D02*
X124606000Y-68961000D01*
X114756000Y-68961000D02*
X118066000Y-68961000D01*
X124606000Y-70331000D02*
X118066000Y-70331000D01*
X124606000Y-67591000D02*
X124606000Y-70331000D01*
X118066000Y-67591000D02*
X124606000Y-67591000D01*
X118066000Y-70331000D02*
X118066000Y-67591000D01*
X127840000Y-50749200D02*
X124530000Y-50749200D01*
X114680000Y-50749200D02*
X117990000Y-50749200D01*
X124530000Y-52119200D02*
X117990000Y-52119200D01*
X124530000Y-49379200D02*
X124530000Y-52119200D01*
X117990000Y-49379200D02*
X124530000Y-49379200D01*
X117990000Y-52119200D02*
X117990000Y-49379200D01*
X103506400Y-69062600D02*
X100196400Y-69062600D01*
X90346400Y-69062600D02*
X93656400Y-69062600D01*
X100196400Y-70432600D02*
X93656400Y-70432600D01*
X100196400Y-67692600D02*
X100196400Y-70432600D01*
X93656400Y-67692600D02*
X100196400Y-67692600D01*
X93656400Y-70432600D02*
X93656400Y-67692600D01*
X104624000Y-50800000D02*
X101314000Y-50800000D01*
X91464000Y-50800000D02*
X94774000Y-50800000D01*
X101314000Y-52170000D02*
X94774000Y-52170000D01*
X101314000Y-49430000D02*
X101314000Y-52170000D01*
X94774000Y-49430000D02*
X101314000Y-49430000D01*
X94774000Y-52170000D02*
X94774000Y-49430000D01*
X85269200Y-69062600D02*
X81959200Y-69062600D01*
X72109200Y-69062600D02*
X75419200Y-69062600D01*
X81959200Y-70432600D02*
X75419200Y-70432600D01*
X81959200Y-67692600D02*
X81959200Y-70432600D01*
X75419200Y-67692600D02*
X81959200Y-67692600D01*
X75419200Y-70432600D02*
X75419200Y-67692600D01*
X85574000Y-50698400D02*
X82264000Y-50698400D01*
X72414000Y-50698400D02*
X75724000Y-50698400D01*
X82264000Y-52068400D02*
X75724000Y-52068400D01*
X82264000Y-49328400D02*
X82264000Y-52068400D01*
X75724000Y-49328400D02*
X82264000Y-49328400D01*
X75724000Y-52068400D02*
X75724000Y-49328400D01*
X65889000Y-68834000D02*
X62579000Y-68834000D01*
X52729000Y-68834000D02*
X56039000Y-68834000D01*
X62579000Y-70204000D02*
X56039000Y-70204000D01*
X62579000Y-67464000D02*
X62579000Y-70204000D01*
X56039000Y-67464000D02*
X62579000Y-67464000D01*
X56039000Y-70204000D02*
X56039000Y-67464000D01*
X66016000Y-50800000D02*
X62706000Y-50800000D01*
X52856000Y-50800000D02*
X56166000Y-50800000D01*
X62706000Y-52170000D02*
X56166000Y-52170000D01*
X62706000Y-49430000D02*
X62706000Y-52170000D01*
X56166000Y-49430000D02*
X62706000Y-49430000D01*
X56166000Y-52170000D02*
X56166000Y-49430000D01*
D11*
X223908857Y-129670380D02*
X224242190Y-129194190D01*
X224480285Y-129670380D02*
X224480285Y-128670380D01*
X224099333Y-128670380D01*
X224004095Y-128718000D01*
X223956476Y-128765619D01*
X223908857Y-128860857D01*
X223908857Y-129003714D01*
X223956476Y-129098952D01*
X224004095Y-129146571D01*
X224099333Y-129194190D01*
X224480285Y-129194190D01*
X223004095Y-128670380D02*
X223480285Y-128670380D01*
X223527904Y-129146571D01*
X223480285Y-129098952D01*
X223385047Y-129051333D01*
X223146952Y-129051333D01*
X223051714Y-129098952D01*
X223004095Y-129146571D01*
X222956476Y-129241809D01*
X222956476Y-129479904D01*
X223004095Y-129575142D01*
X223051714Y-129622761D01*
X223146952Y-129670380D01*
X223385047Y-129670380D01*
X223480285Y-129622761D01*
X223527904Y-129575142D01*
X222099333Y-129003714D02*
X222099333Y-129670380D01*
X222337428Y-128622761D02*
X222575523Y-129337047D01*
X221956476Y-129337047D01*
X222638857Y-110670380D02*
X222972190Y-110194190D01*
X223210285Y-110670380D02*
X223210285Y-109670380D01*
X222829333Y-109670380D01*
X222734095Y-109718000D01*
X222686476Y-109765619D01*
X222638857Y-109860857D01*
X222638857Y-110003714D01*
X222686476Y-110098952D01*
X222734095Y-110146571D01*
X222829333Y-110194190D01*
X223210285Y-110194190D01*
X221734095Y-109670380D02*
X222210285Y-109670380D01*
X222257904Y-110146571D01*
X222210285Y-110098952D01*
X222115047Y-110051333D01*
X221876952Y-110051333D01*
X221781714Y-110098952D01*
X221734095Y-110146571D01*
X221686476Y-110241809D01*
X221686476Y-110479904D01*
X221734095Y-110575142D01*
X221781714Y-110622761D01*
X221876952Y-110670380D01*
X222115047Y-110670380D01*
X222210285Y-110622761D01*
X222257904Y-110575142D01*
X221353142Y-109670380D02*
X220734095Y-109670380D01*
X221067428Y-110051333D01*
X220924571Y-110051333D01*
X220829333Y-110098952D01*
X220781714Y-110146571D01*
X220734095Y-110241809D01*
X220734095Y-110479904D01*
X220781714Y-110575142D01*
X220829333Y-110622761D01*
X220924571Y-110670380D01*
X221210285Y-110670380D01*
X221305523Y-110622761D01*
X221353142Y-110575142D01*
X223756857Y-91569980D02*
X224090190Y-91093790D01*
X224328285Y-91569980D02*
X224328285Y-90569980D01*
X223947333Y-90569980D01*
X223852095Y-90617600D01*
X223804476Y-90665219D01*
X223756857Y-90760457D01*
X223756857Y-90903314D01*
X223804476Y-90998552D01*
X223852095Y-91046171D01*
X223947333Y-91093790D01*
X224328285Y-91093790D01*
X222852095Y-90569980D02*
X223328285Y-90569980D01*
X223375904Y-91046171D01*
X223328285Y-90998552D01*
X223233047Y-90950933D01*
X222994952Y-90950933D01*
X222899714Y-90998552D01*
X222852095Y-91046171D01*
X222804476Y-91141409D01*
X222804476Y-91379504D01*
X222852095Y-91474742D01*
X222899714Y-91522361D01*
X222994952Y-91569980D01*
X223233047Y-91569980D01*
X223328285Y-91522361D01*
X223375904Y-91474742D01*
X222423523Y-90665219D02*
X222375904Y-90617600D01*
X222280666Y-90569980D01*
X222042571Y-90569980D01*
X221947333Y-90617600D01*
X221899714Y-90665219D01*
X221852095Y-90760457D01*
X221852095Y-90855695D01*
X221899714Y-90998552D01*
X222471142Y-91569980D01*
X221852095Y-91569980D01*
X221774857Y-71808780D02*
X222108190Y-71332590D01*
X222346285Y-71808780D02*
X222346285Y-70808780D01*
X221965333Y-70808780D01*
X221870095Y-70856400D01*
X221822476Y-70904019D01*
X221774857Y-70999257D01*
X221774857Y-71142114D01*
X221822476Y-71237352D01*
X221870095Y-71284971D01*
X221965333Y-71332590D01*
X222346285Y-71332590D01*
X220870095Y-70808780D02*
X221346285Y-70808780D01*
X221393904Y-71284971D01*
X221346285Y-71237352D01*
X221251047Y-71189733D01*
X221012952Y-71189733D01*
X220917714Y-71237352D01*
X220870095Y-71284971D01*
X220822476Y-71380209D01*
X220822476Y-71618304D01*
X220870095Y-71713542D01*
X220917714Y-71761161D01*
X221012952Y-71808780D01*
X221251047Y-71808780D01*
X221346285Y-71761161D01*
X221393904Y-71713542D01*
X219870095Y-71808780D02*
X220441523Y-71808780D01*
X220155809Y-71808780D02*
X220155809Y-70808780D01*
X220251047Y-70951638D01*
X220346285Y-71046876D01*
X220441523Y-71094495D01*
X222689857Y-53571580D02*
X223023190Y-53095390D01*
X223261285Y-53571580D02*
X223261285Y-52571580D01*
X222880333Y-52571580D01*
X222785095Y-52619200D01*
X222737476Y-52666819D01*
X222689857Y-52762057D01*
X222689857Y-52904914D01*
X222737476Y-53000152D01*
X222785095Y-53047771D01*
X222880333Y-53095390D01*
X223261285Y-53095390D01*
X221785095Y-52571580D02*
X222261285Y-52571580D01*
X222308904Y-53047771D01*
X222261285Y-53000152D01*
X222166047Y-52952533D01*
X221927952Y-52952533D01*
X221832714Y-53000152D01*
X221785095Y-53047771D01*
X221737476Y-53143009D01*
X221737476Y-53381104D01*
X221785095Y-53476342D01*
X221832714Y-53523961D01*
X221927952Y-53571580D01*
X222166047Y-53571580D01*
X222261285Y-53523961D01*
X222308904Y-53476342D01*
X221118428Y-52571580D02*
X221023190Y-52571580D01*
X220927952Y-52619200D01*
X220880333Y-52666819D01*
X220832714Y-52762057D01*
X220785095Y-52952533D01*
X220785095Y-53190628D01*
X220832714Y-53381104D01*
X220880333Y-53476342D01*
X220927952Y-53523961D01*
X221023190Y-53571580D01*
X221118428Y-53571580D01*
X221213666Y-53523961D01*
X221261285Y-53476342D01*
X221308904Y-53381104D01*
X221356523Y-53190628D01*
X221356523Y-52952533D01*
X221308904Y-52762057D01*
X221261285Y-52666819D01*
X221213666Y-52619200D01*
X221118428Y-52571580D01*
X214560380Y-134269714D02*
X213560380Y-134269714D01*
X213560380Y-134507809D01*
X213608000Y-134650666D01*
X213703238Y-134745904D01*
X213798476Y-134793523D01*
X213988952Y-134841142D01*
X214131809Y-134841142D01*
X214322285Y-134793523D01*
X214417523Y-134745904D01*
X214512761Y-134650666D01*
X214560380Y-134507809D01*
X214560380Y-134269714D01*
X213560380Y-135745904D02*
X213560380Y-135269714D01*
X214036571Y-135222095D01*
X213988952Y-135269714D01*
X213941333Y-135364952D01*
X213941333Y-135603047D01*
X213988952Y-135698285D01*
X214036571Y-135745904D01*
X214131809Y-135793523D01*
X214369904Y-135793523D01*
X214465142Y-135745904D01*
X214512761Y-135698285D01*
X214560380Y-135603047D01*
X214560380Y-135364952D01*
X214512761Y-135269714D01*
X214465142Y-135222095D01*
X213655619Y-136174476D02*
X213608000Y-136222095D01*
X213560380Y-136317333D01*
X213560380Y-136555428D01*
X213608000Y-136650666D01*
X213655619Y-136698285D01*
X213750857Y-136745904D01*
X213846095Y-136745904D01*
X213988952Y-136698285D01*
X214560380Y-136126857D01*
X214560380Y-136745904D01*
X214240380Y-139032095D02*
X213240380Y-139032095D01*
X214240380Y-139603523D02*
X213668952Y-139174952D01*
X213240380Y-139603523D02*
X213811809Y-139032095D01*
X214662380Y-115066714D02*
X213662380Y-115066714D01*
X213662380Y-115304809D01*
X213710000Y-115447666D01*
X213805238Y-115542904D01*
X213900476Y-115590523D01*
X214090952Y-115638142D01*
X214233809Y-115638142D01*
X214424285Y-115590523D01*
X214519523Y-115542904D01*
X214614761Y-115447666D01*
X214662380Y-115304809D01*
X214662380Y-115066714D01*
X213662380Y-116542904D02*
X213662380Y-116066714D01*
X214138571Y-116019095D01*
X214090952Y-116066714D01*
X214043333Y-116161952D01*
X214043333Y-116400047D01*
X214090952Y-116495285D01*
X214138571Y-116542904D01*
X214233809Y-116590523D01*
X214471904Y-116590523D01*
X214567142Y-116542904D01*
X214614761Y-116495285D01*
X214662380Y-116400047D01*
X214662380Y-116161952D01*
X214614761Y-116066714D01*
X214567142Y-116019095D01*
X214662380Y-117542904D02*
X214662380Y-116971476D01*
X214662380Y-117257190D02*
X213662380Y-117257190D01*
X213805238Y-117161952D01*
X213900476Y-117066714D01*
X213948095Y-116971476D01*
X214342380Y-119829095D02*
X213342380Y-119829095D01*
X214342380Y-120400523D02*
X213770952Y-119971952D01*
X213342380Y-120400523D02*
X213913809Y-119829095D01*
X214611380Y-96270714D02*
X213611380Y-96270714D01*
X213611380Y-96508809D01*
X213659000Y-96651666D01*
X213754238Y-96746904D01*
X213849476Y-96794523D01*
X214039952Y-96842142D01*
X214182809Y-96842142D01*
X214373285Y-96794523D01*
X214468523Y-96746904D01*
X214563761Y-96651666D01*
X214611380Y-96508809D01*
X214611380Y-96270714D01*
X213611380Y-97746904D02*
X213611380Y-97270714D01*
X214087571Y-97223095D01*
X214039952Y-97270714D01*
X213992333Y-97365952D01*
X213992333Y-97604047D01*
X214039952Y-97699285D01*
X214087571Y-97746904D01*
X214182809Y-97794523D01*
X214420904Y-97794523D01*
X214516142Y-97746904D01*
X214563761Y-97699285D01*
X214611380Y-97604047D01*
X214611380Y-97365952D01*
X214563761Y-97270714D01*
X214516142Y-97223095D01*
X213611380Y-98413571D02*
X213611380Y-98508809D01*
X213659000Y-98604047D01*
X213706619Y-98651666D01*
X213801857Y-98699285D01*
X213992333Y-98746904D01*
X214230428Y-98746904D01*
X214420904Y-98699285D01*
X214516142Y-98651666D01*
X214563761Y-98604047D01*
X214611380Y-98508809D01*
X214611380Y-98413571D01*
X214563761Y-98318333D01*
X214516142Y-98270714D01*
X214420904Y-98223095D01*
X214230428Y-98175476D01*
X213992333Y-98175476D01*
X213801857Y-98223095D01*
X213706619Y-98270714D01*
X213659000Y-98318333D01*
X213611380Y-98413571D01*
X214291380Y-101033095D02*
X213291380Y-101033095D01*
X214291380Y-101604523D02*
X213719952Y-101175952D01*
X213291380Y-101604523D02*
X213862809Y-101033095D01*
X214662380Y-76509714D02*
X213662380Y-76509714D01*
X213662380Y-76747809D01*
X213710000Y-76890666D01*
X213805238Y-76985904D01*
X213900476Y-77033523D01*
X214090952Y-77081142D01*
X214233809Y-77081142D01*
X214424285Y-77033523D01*
X214519523Y-76985904D01*
X214614761Y-76890666D01*
X214662380Y-76747809D01*
X214662380Y-76509714D01*
X213995714Y-77938285D02*
X214662380Y-77938285D01*
X213614761Y-77700190D02*
X214329047Y-77462095D01*
X214329047Y-78081142D01*
X214662380Y-78509714D02*
X214662380Y-78700190D01*
X214614761Y-78795428D01*
X214567142Y-78843047D01*
X214424285Y-78938285D01*
X214233809Y-78985904D01*
X213852857Y-78985904D01*
X213757619Y-78938285D01*
X213710000Y-78890666D01*
X213662380Y-78795428D01*
X213662380Y-78604952D01*
X213710000Y-78509714D01*
X213757619Y-78462095D01*
X213852857Y-78414476D01*
X214090952Y-78414476D01*
X214186190Y-78462095D01*
X214233809Y-78509714D01*
X214281428Y-78604952D01*
X214281428Y-78795428D01*
X214233809Y-78890666D01*
X214186190Y-78938285D01*
X214090952Y-78985904D01*
X214342380Y-81272095D02*
X213342380Y-81272095D01*
X214342380Y-81843523D02*
X213770952Y-81414952D01*
X213342380Y-81843523D02*
X213913809Y-81272095D01*
X214662380Y-57459714D02*
X213662380Y-57459714D01*
X213662380Y-57697809D01*
X213710000Y-57840666D01*
X213805238Y-57935904D01*
X213900476Y-57983523D01*
X214090952Y-58031142D01*
X214233809Y-58031142D01*
X214424285Y-57983523D01*
X214519523Y-57935904D01*
X214614761Y-57840666D01*
X214662380Y-57697809D01*
X214662380Y-57459714D01*
X213995714Y-58888285D02*
X214662380Y-58888285D01*
X213614761Y-58650190D02*
X214329047Y-58412095D01*
X214329047Y-59031142D01*
X214090952Y-59554952D02*
X214043333Y-59459714D01*
X213995714Y-59412095D01*
X213900476Y-59364476D01*
X213852857Y-59364476D01*
X213757619Y-59412095D01*
X213710000Y-59459714D01*
X213662380Y-59554952D01*
X213662380Y-59745428D01*
X213710000Y-59840666D01*
X213757619Y-59888285D01*
X213852857Y-59935904D01*
X213900476Y-59935904D01*
X213995714Y-59888285D01*
X214043333Y-59840666D01*
X214090952Y-59745428D01*
X214090952Y-59554952D01*
X214138571Y-59459714D01*
X214186190Y-59412095D01*
X214281428Y-59364476D01*
X214471904Y-59364476D01*
X214567142Y-59412095D01*
X214614761Y-59459714D01*
X214662380Y-59554952D01*
X214662380Y-59745428D01*
X214614761Y-59840666D01*
X214567142Y-59888285D01*
X214471904Y-59935904D01*
X214281428Y-59935904D01*
X214186190Y-59888285D01*
X214138571Y-59840666D01*
X214090952Y-59745428D01*
X214342380Y-62222095D02*
X213342380Y-62222095D01*
X214342380Y-62793523D02*
X213770952Y-62364952D01*
X213342380Y-62793523D02*
X213913809Y-62222095D01*
X47623433Y-52876180D02*
X47623433Y-53590466D01*
X47671052Y-53733323D01*
X47766290Y-53828561D01*
X47909147Y-53876180D01*
X48004385Y-53876180D01*
X47242480Y-52876180D02*
X46623433Y-52876180D01*
X46956766Y-53257133D01*
X46813909Y-53257133D01*
X46718671Y-53304752D01*
X46671052Y-53352371D01*
X46623433Y-53447609D01*
X46623433Y-53685704D01*
X46671052Y-53780942D01*
X46718671Y-53828561D01*
X46813909Y-53876180D01*
X47099623Y-53876180D01*
X47194861Y-53828561D01*
X47242480Y-53780942D01*
X45088880Y-65165342D02*
X44612690Y-64832009D01*
X45088880Y-64593914D02*
X44088880Y-64593914D01*
X44088880Y-64974866D01*
X44136500Y-65070104D01*
X44184119Y-65117723D01*
X44279357Y-65165342D01*
X44422214Y-65165342D01*
X44517452Y-65117723D01*
X44565071Y-65070104D01*
X44612690Y-64974866D01*
X44612690Y-64593914D01*
X44422214Y-66022485D02*
X45088880Y-66022485D01*
X44041261Y-65784390D02*
X44755547Y-65546295D01*
X44755547Y-66165342D01*
X45088880Y-66593914D02*
X45088880Y-66784390D01*
X45041261Y-66879628D01*
X44993642Y-66927247D01*
X44850785Y-67022485D01*
X44660309Y-67070104D01*
X44279357Y-67070104D01*
X44184119Y-67022485D01*
X44136500Y-66974866D01*
X44088880Y-66879628D01*
X44088880Y-66689152D01*
X44136500Y-66593914D01*
X44184119Y-66546295D01*
X44279357Y-66498676D01*
X44517452Y-66498676D01*
X44612690Y-66546295D01*
X44660309Y-66593914D01*
X44707928Y-66689152D01*
X44707928Y-66879628D01*
X44660309Y-66974866D01*
X44612690Y-67022485D01*
X44517452Y-67070104D01*
X51338880Y-65165342D02*
X50862690Y-64832009D01*
X51338880Y-64593914D02*
X50338880Y-64593914D01*
X50338880Y-64974866D01*
X50386500Y-65070104D01*
X50434119Y-65117723D01*
X50529357Y-65165342D01*
X50672214Y-65165342D01*
X50767452Y-65117723D01*
X50815071Y-65070104D01*
X50862690Y-64974866D01*
X50862690Y-64593914D01*
X50672214Y-66022485D02*
X51338880Y-66022485D01*
X50291261Y-65784390D02*
X51005547Y-65546295D01*
X51005547Y-66165342D01*
X50767452Y-66689152D02*
X50719833Y-66593914D01*
X50672214Y-66546295D01*
X50576976Y-66498676D01*
X50529357Y-66498676D01*
X50434119Y-66546295D01*
X50386500Y-66593914D01*
X50338880Y-66689152D01*
X50338880Y-66879628D01*
X50386500Y-66974866D01*
X50434119Y-67022485D01*
X50529357Y-67070104D01*
X50576976Y-67070104D01*
X50672214Y-67022485D01*
X50719833Y-66974866D01*
X50767452Y-66879628D01*
X50767452Y-66689152D01*
X50815071Y-66593914D01*
X50862690Y-66546295D01*
X50957928Y-66498676D01*
X51148404Y-66498676D01*
X51243642Y-66546295D01*
X51291261Y-66593914D01*
X51338880Y-66689152D01*
X51338880Y-66879628D01*
X51291261Y-66974866D01*
X51243642Y-67022485D01*
X51148404Y-67070104D01*
X50957928Y-67070104D01*
X50862690Y-67022485D01*
X50815071Y-66974866D01*
X50767452Y-66879628D01*
X49880880Y-70503438D02*
X49928500Y-70598676D01*
X50023738Y-70693914D01*
X50166595Y-70836771D01*
X50214214Y-70932009D01*
X50214214Y-71027247D01*
X49976119Y-70979628D02*
X50023738Y-71074866D01*
X50118976Y-71170104D01*
X50309452Y-71217723D01*
X50642785Y-71217723D01*
X50833261Y-71170104D01*
X50928500Y-71074866D01*
X50976119Y-70979628D01*
X50976119Y-70789152D01*
X50928500Y-70693914D01*
X50833261Y-70598676D01*
X50642785Y-70551057D01*
X50309452Y-70551057D01*
X50118976Y-70598676D01*
X50023738Y-70693914D01*
X49976119Y-70789152D01*
X49976119Y-70979628D01*
X49976119Y-69598676D02*
X49976119Y-70170104D01*
X49976119Y-69884390D02*
X50976119Y-69884390D01*
X50833261Y-69979628D01*
X50738023Y-70074866D01*
X50690404Y-70170104D01*
X149089619Y-164519333D02*
X148375333Y-164519333D01*
X148232476Y-164566952D01*
X148137238Y-164662190D01*
X148089619Y-164805047D01*
X148089619Y-164900285D01*
X148994380Y-164090761D02*
X149042000Y-164043142D01*
X149089619Y-163947904D01*
X149089619Y-163709809D01*
X149042000Y-163614571D01*
X148994380Y-163566952D01*
X148899142Y-163519333D01*
X148803904Y-163519333D01*
X148661047Y-163566952D01*
X148089619Y-164138380D01*
X148089619Y-163519333D01*
X46764533Y-98662380D02*
X46764533Y-99376666D01*
X46812152Y-99519523D01*
X46907390Y-99614761D01*
X47050247Y-99662380D01*
X47145485Y-99662380D01*
X45764533Y-99662380D02*
X46335961Y-99662380D01*
X46050247Y-99662380D02*
X46050247Y-98662380D01*
X46145485Y-98805238D01*
X46240723Y-98900476D01*
X46335961Y-98948095D01*
X206179857Y-91569980D02*
X206513190Y-91093790D01*
X206751285Y-91569980D02*
X206751285Y-90569980D01*
X206370333Y-90569980D01*
X206275095Y-90617600D01*
X206227476Y-90665219D01*
X206179857Y-90760457D01*
X206179857Y-90903314D01*
X206227476Y-90998552D01*
X206275095Y-91046171D01*
X206370333Y-91093790D01*
X206751285Y-91093790D01*
X205322714Y-90903314D02*
X205322714Y-91569980D01*
X205560809Y-90522361D02*
X205798904Y-91236647D01*
X205179857Y-91236647D01*
X204322714Y-90569980D02*
X204798904Y-90569980D01*
X204846523Y-91046171D01*
X204798904Y-90998552D01*
X204703666Y-90950933D01*
X204465571Y-90950933D01*
X204370333Y-90998552D01*
X204322714Y-91046171D01*
X204275095Y-91141409D01*
X204275095Y-91379504D01*
X204322714Y-91474742D01*
X204370333Y-91522361D01*
X204465571Y-91569980D01*
X204703666Y-91569980D01*
X204798904Y-91522361D01*
X204846523Y-91474742D01*
X195561380Y-96219714D02*
X194561380Y-96219714D01*
X194561380Y-96457809D01*
X194609000Y-96600666D01*
X194704238Y-96695904D01*
X194799476Y-96743523D01*
X194989952Y-96791142D01*
X195132809Y-96791142D01*
X195323285Y-96743523D01*
X195418523Y-96695904D01*
X195513761Y-96600666D01*
X195561380Y-96457809D01*
X195561380Y-96219714D01*
X194894714Y-97648285D02*
X195561380Y-97648285D01*
X194513761Y-97410190D02*
X195228047Y-97172095D01*
X195228047Y-97791142D01*
X194561380Y-98648285D02*
X194561380Y-98172095D01*
X195037571Y-98124476D01*
X194989952Y-98172095D01*
X194942333Y-98267333D01*
X194942333Y-98505428D01*
X194989952Y-98600666D01*
X195037571Y-98648285D01*
X195132809Y-98695904D01*
X195370904Y-98695904D01*
X195466142Y-98648285D01*
X195513761Y-98600666D01*
X195561380Y-98505428D01*
X195561380Y-98267333D01*
X195513761Y-98172095D01*
X195466142Y-98124476D01*
X195241380Y-100982095D02*
X194241380Y-100982095D01*
X195241380Y-101553523D02*
X194669952Y-101124952D01*
X194241380Y-101553523D02*
X194812809Y-100982095D01*
X205925857Y-129670380D02*
X206259190Y-129194190D01*
X206497285Y-129670380D02*
X206497285Y-128670380D01*
X206116333Y-128670380D01*
X206021095Y-128718000D01*
X205973476Y-128765619D01*
X205925857Y-128860857D01*
X205925857Y-129003714D01*
X205973476Y-129098952D01*
X206021095Y-129146571D01*
X206116333Y-129194190D01*
X206497285Y-129194190D01*
X205068714Y-129003714D02*
X205068714Y-129670380D01*
X205306809Y-128622761D02*
X205544904Y-129337047D01*
X204925857Y-129337047D01*
X204640142Y-128670380D02*
X203973476Y-128670380D01*
X204402047Y-129670380D01*
X203080857Y-110721380D02*
X203414190Y-110245190D01*
X203652285Y-110721380D02*
X203652285Y-109721380D01*
X203271333Y-109721380D01*
X203176095Y-109769000D01*
X203128476Y-109816619D01*
X203080857Y-109911857D01*
X203080857Y-110054714D01*
X203128476Y-110149952D01*
X203176095Y-110197571D01*
X203271333Y-110245190D01*
X203652285Y-110245190D01*
X202223714Y-110054714D02*
X202223714Y-110721380D01*
X202461809Y-109673761D02*
X202699904Y-110388047D01*
X202080857Y-110388047D01*
X201271333Y-109721380D02*
X201461809Y-109721380D01*
X201557047Y-109769000D01*
X201604666Y-109816619D01*
X201699904Y-109959476D01*
X201747523Y-110149952D01*
X201747523Y-110530904D01*
X201699904Y-110626142D01*
X201652285Y-110673761D01*
X201557047Y-110721380D01*
X201366571Y-110721380D01*
X201271333Y-110673761D01*
X201223714Y-110626142D01*
X201176095Y-110530904D01*
X201176095Y-110292809D01*
X201223714Y-110197571D01*
X201271333Y-110149952D01*
X201366571Y-110102333D01*
X201557047Y-110102333D01*
X201652285Y-110149952D01*
X201699904Y-110197571D01*
X201747523Y-110292809D01*
X212453857Y-148846380D02*
X212787190Y-148370190D01*
X213025285Y-148846380D02*
X213025285Y-147846380D01*
X212644333Y-147846380D01*
X212549095Y-147894000D01*
X212501476Y-147941619D01*
X212453857Y-148036857D01*
X212453857Y-148179714D01*
X212501476Y-148274952D01*
X212549095Y-148322571D01*
X212644333Y-148370190D01*
X213025285Y-148370190D01*
X211596714Y-148179714D02*
X211596714Y-148846380D01*
X211834809Y-147798761D02*
X212072904Y-148513047D01*
X211453857Y-148513047D01*
X210644333Y-148179714D02*
X210644333Y-148846380D01*
X210882428Y-147798761D02*
X211120523Y-148513047D01*
X210501476Y-148513047D01*
X180626857Y-129720380D02*
X180960190Y-129244190D01*
X181198285Y-129720380D02*
X181198285Y-128720380D01*
X180817333Y-128720380D01*
X180722095Y-128768000D01*
X180674476Y-128815619D01*
X180626857Y-128910857D01*
X180626857Y-129053714D01*
X180674476Y-129148952D01*
X180722095Y-129196571D01*
X180817333Y-129244190D01*
X181198285Y-129244190D01*
X179769714Y-129053714D02*
X179769714Y-129720380D01*
X180007809Y-128672761D02*
X180245904Y-129387047D01*
X179626857Y-129387047D01*
X179341142Y-128720380D02*
X178722095Y-128720380D01*
X179055428Y-129101333D01*
X178912571Y-129101333D01*
X178817333Y-129148952D01*
X178769714Y-129196571D01*
X178722095Y-129291809D01*
X178722095Y-129529904D01*
X178769714Y-129625142D01*
X178817333Y-129672761D01*
X178912571Y-129720380D01*
X179198285Y-129720380D01*
X179293523Y-129672761D01*
X179341142Y-129625142D01*
X184868857Y-105930380D02*
X185202190Y-105454190D01*
X185440285Y-105930380D02*
X185440285Y-104930380D01*
X185059333Y-104930380D01*
X184964095Y-104978000D01*
X184916476Y-105025619D01*
X184868857Y-105120857D01*
X184868857Y-105263714D01*
X184916476Y-105358952D01*
X184964095Y-105406571D01*
X185059333Y-105454190D01*
X185440285Y-105454190D01*
X184011714Y-105263714D02*
X184011714Y-105930380D01*
X184249809Y-104882761D02*
X184487904Y-105597047D01*
X183868857Y-105597047D01*
X183535523Y-105025619D02*
X183487904Y-104978000D01*
X183392666Y-104930380D01*
X183154571Y-104930380D01*
X183059333Y-104978000D01*
X183011714Y-105025619D01*
X182964095Y-105120857D01*
X182964095Y-105216095D01*
X183011714Y-105358952D01*
X183583142Y-105930380D01*
X182964095Y-105930380D01*
X181287857Y-91569980D02*
X181621190Y-91093790D01*
X181859285Y-91569980D02*
X181859285Y-90569980D01*
X181478333Y-90569980D01*
X181383095Y-90617600D01*
X181335476Y-90665219D01*
X181287857Y-90760457D01*
X181287857Y-90903314D01*
X181335476Y-90998552D01*
X181383095Y-91046171D01*
X181478333Y-91093790D01*
X181859285Y-91093790D01*
X180430714Y-90903314D02*
X180430714Y-91569980D01*
X180668809Y-90522361D02*
X180906904Y-91236647D01*
X180287857Y-91236647D01*
X179383095Y-91569980D02*
X179954523Y-91569980D01*
X179668809Y-91569980D02*
X179668809Y-90569980D01*
X179764047Y-90712838D01*
X179859285Y-90808076D01*
X179954523Y-90855695D01*
X178721857Y-148846380D02*
X179055190Y-148370190D01*
X179293285Y-148846380D02*
X179293285Y-147846380D01*
X178912333Y-147846380D01*
X178817095Y-147894000D01*
X178769476Y-147941619D01*
X178721857Y-148036857D01*
X178721857Y-148179714D01*
X178769476Y-148274952D01*
X178817095Y-148322571D01*
X178912333Y-148370190D01*
X179293285Y-148370190D01*
X177864714Y-148179714D02*
X177864714Y-148846380D01*
X178102809Y-147798761D02*
X178340904Y-148513047D01*
X177721857Y-148513047D01*
X177150428Y-147846380D02*
X177055190Y-147846380D01*
X176959952Y-147894000D01*
X176912333Y-147941619D01*
X176864714Y-148036857D01*
X176817095Y-148227333D01*
X176817095Y-148465428D01*
X176864714Y-148655904D01*
X176912333Y-148751142D01*
X176959952Y-148798761D01*
X177055190Y-148846380D01*
X177150428Y-148846380D01*
X177245666Y-148798761D01*
X177293285Y-148751142D01*
X177340904Y-148655904D01*
X177388523Y-148465428D01*
X177388523Y-148227333D01*
X177340904Y-148036857D01*
X177293285Y-147941619D01*
X177245666Y-147894000D01*
X177150428Y-147846380D01*
X162288857Y-129670380D02*
X162622190Y-129194190D01*
X162860285Y-129670380D02*
X162860285Y-128670380D01*
X162479333Y-128670380D01*
X162384095Y-128718000D01*
X162336476Y-128765619D01*
X162288857Y-128860857D01*
X162288857Y-129003714D01*
X162336476Y-129098952D01*
X162384095Y-129146571D01*
X162479333Y-129194190D01*
X162860285Y-129194190D01*
X161955523Y-128670380D02*
X161336476Y-128670380D01*
X161669809Y-129051333D01*
X161526952Y-129051333D01*
X161431714Y-129098952D01*
X161384095Y-129146571D01*
X161336476Y-129241809D01*
X161336476Y-129479904D01*
X161384095Y-129575142D01*
X161431714Y-129622761D01*
X161526952Y-129670380D01*
X161812666Y-129670380D01*
X161907904Y-129622761D01*
X161955523Y-129575142D01*
X160860285Y-129670380D02*
X160669809Y-129670380D01*
X160574571Y-129622761D01*
X160526952Y-129575142D01*
X160431714Y-129432285D01*
X160384095Y-129241809D01*
X160384095Y-128860857D01*
X160431714Y-128765619D01*
X160479333Y-128718000D01*
X160574571Y-128670380D01*
X160765047Y-128670380D01*
X160860285Y-128718000D01*
X160907904Y-128765619D01*
X160955523Y-128860857D01*
X160955523Y-129098952D01*
X160907904Y-129194190D01*
X160860285Y-129241809D01*
X160765047Y-129289428D01*
X160574571Y-129289428D01*
X160479333Y-129241809D01*
X160431714Y-129194190D01*
X160384095Y-129098952D01*
X164371857Y-110747380D02*
X164705190Y-110271190D01*
X164943285Y-110747380D02*
X164943285Y-109747380D01*
X164562333Y-109747380D01*
X164467095Y-109795000D01*
X164419476Y-109842619D01*
X164371857Y-109937857D01*
X164371857Y-110080714D01*
X164419476Y-110175952D01*
X164467095Y-110223571D01*
X164562333Y-110271190D01*
X164943285Y-110271190D01*
X164038523Y-109747380D02*
X163419476Y-109747380D01*
X163752809Y-110128333D01*
X163609952Y-110128333D01*
X163514714Y-110175952D01*
X163467095Y-110223571D01*
X163419476Y-110318809D01*
X163419476Y-110556904D01*
X163467095Y-110652142D01*
X163514714Y-110699761D01*
X163609952Y-110747380D01*
X163895666Y-110747380D01*
X163990904Y-110699761D01*
X164038523Y-110652142D01*
X162848047Y-110175952D02*
X162943285Y-110128333D01*
X162990904Y-110080714D01*
X163038523Y-109985476D01*
X163038523Y-109937857D01*
X162990904Y-109842619D01*
X162943285Y-109795000D01*
X162848047Y-109747380D01*
X162657571Y-109747380D01*
X162562333Y-109795000D01*
X162514714Y-109842619D01*
X162467095Y-109937857D01*
X162467095Y-109985476D01*
X162514714Y-110080714D01*
X162562333Y-110128333D01*
X162657571Y-110175952D01*
X162848047Y-110175952D01*
X162943285Y-110223571D01*
X162990904Y-110271190D01*
X163038523Y-110366428D01*
X163038523Y-110556904D01*
X162990904Y-110652142D01*
X162943285Y-110699761D01*
X162848047Y-110747380D01*
X162657571Y-110747380D01*
X162562333Y-110699761D01*
X162514714Y-110652142D01*
X162467095Y-110556904D01*
X162467095Y-110366428D01*
X162514714Y-110271190D01*
X162562333Y-110223571D01*
X162657571Y-110175952D01*
X163354857Y-91544580D02*
X163688190Y-91068390D01*
X163926285Y-91544580D02*
X163926285Y-90544580D01*
X163545333Y-90544580D01*
X163450095Y-90592200D01*
X163402476Y-90639819D01*
X163354857Y-90735057D01*
X163354857Y-90877914D01*
X163402476Y-90973152D01*
X163450095Y-91020771D01*
X163545333Y-91068390D01*
X163926285Y-91068390D01*
X163021523Y-90544580D02*
X162402476Y-90544580D01*
X162735809Y-90925533D01*
X162592952Y-90925533D01*
X162497714Y-90973152D01*
X162450095Y-91020771D01*
X162402476Y-91116009D01*
X162402476Y-91354104D01*
X162450095Y-91449342D01*
X162497714Y-91496961D01*
X162592952Y-91544580D01*
X162878666Y-91544580D01*
X162973904Y-91496961D01*
X163021523Y-91449342D01*
X162069142Y-90544580D02*
X161402476Y-90544580D01*
X161831047Y-91544580D01*
X150527857Y-148745380D02*
X150861190Y-148269190D01*
X151099285Y-148745380D02*
X151099285Y-147745380D01*
X150718333Y-147745380D01*
X150623095Y-147793000D01*
X150575476Y-147840619D01*
X150527857Y-147935857D01*
X150527857Y-148078714D01*
X150575476Y-148173952D01*
X150623095Y-148221571D01*
X150718333Y-148269190D01*
X151099285Y-148269190D01*
X150194523Y-147745380D02*
X149575476Y-147745380D01*
X149908809Y-148126333D01*
X149765952Y-148126333D01*
X149670714Y-148173952D01*
X149623095Y-148221571D01*
X149575476Y-148316809D01*
X149575476Y-148554904D01*
X149623095Y-148650142D01*
X149670714Y-148697761D01*
X149765952Y-148745380D01*
X150051666Y-148745380D01*
X150146904Y-148697761D01*
X150194523Y-148650142D01*
X148718333Y-147745380D02*
X148908809Y-147745380D01*
X149004047Y-147793000D01*
X149051666Y-147840619D01*
X149146904Y-147983476D01*
X149194523Y-148173952D01*
X149194523Y-148554904D01*
X149146904Y-148650142D01*
X149099285Y-148697761D01*
X149004047Y-148745380D01*
X148813571Y-148745380D01*
X148718333Y-148697761D01*
X148670714Y-148650142D01*
X148623095Y-148554904D01*
X148623095Y-148316809D01*
X148670714Y-148221571D01*
X148718333Y-148173952D01*
X148813571Y-148126333D01*
X149004047Y-148126333D01*
X149099285Y-148173952D01*
X149146904Y-148221571D01*
X149194523Y-148316809D01*
X144050857Y-129720380D02*
X144384190Y-129244190D01*
X144622285Y-129720380D02*
X144622285Y-128720380D01*
X144241333Y-128720380D01*
X144146095Y-128768000D01*
X144098476Y-128815619D01*
X144050857Y-128910857D01*
X144050857Y-129053714D01*
X144098476Y-129148952D01*
X144146095Y-129196571D01*
X144241333Y-129244190D01*
X144622285Y-129244190D01*
X143717523Y-128720380D02*
X143098476Y-128720380D01*
X143431809Y-129101333D01*
X143288952Y-129101333D01*
X143193714Y-129148952D01*
X143146095Y-129196571D01*
X143098476Y-129291809D01*
X143098476Y-129529904D01*
X143146095Y-129625142D01*
X143193714Y-129672761D01*
X143288952Y-129720380D01*
X143574666Y-129720380D01*
X143669904Y-129672761D01*
X143717523Y-129625142D01*
X142193714Y-128720380D02*
X142669904Y-128720380D01*
X142717523Y-129196571D01*
X142669904Y-129148952D01*
X142574666Y-129101333D01*
X142336571Y-129101333D01*
X142241333Y-129148952D01*
X142193714Y-129196571D01*
X142146095Y-129291809D01*
X142146095Y-129529904D01*
X142193714Y-129625142D01*
X142241333Y-129672761D01*
X142336571Y-129720380D01*
X142574666Y-129720380D01*
X142669904Y-129672761D01*
X142717523Y-129625142D01*
X145600857Y-110721380D02*
X145934190Y-110245190D01*
X146172285Y-110721380D02*
X146172285Y-109721380D01*
X145791333Y-109721380D01*
X145696095Y-109769000D01*
X145648476Y-109816619D01*
X145600857Y-109911857D01*
X145600857Y-110054714D01*
X145648476Y-110149952D01*
X145696095Y-110197571D01*
X145791333Y-110245190D01*
X146172285Y-110245190D01*
X145267523Y-109721380D02*
X144648476Y-109721380D01*
X144981809Y-110102333D01*
X144838952Y-110102333D01*
X144743714Y-110149952D01*
X144696095Y-110197571D01*
X144648476Y-110292809D01*
X144648476Y-110530904D01*
X144696095Y-110626142D01*
X144743714Y-110673761D01*
X144838952Y-110721380D01*
X145124666Y-110721380D01*
X145219904Y-110673761D01*
X145267523Y-110626142D01*
X143791333Y-110054714D02*
X143791333Y-110721380D01*
X144029428Y-109673761D02*
X144267523Y-110388047D01*
X143648476Y-110388047D01*
X145854857Y-91646180D02*
X146188190Y-91169990D01*
X146426285Y-91646180D02*
X146426285Y-90646180D01*
X146045333Y-90646180D01*
X145950095Y-90693800D01*
X145902476Y-90741419D01*
X145854857Y-90836657D01*
X145854857Y-90979514D01*
X145902476Y-91074752D01*
X145950095Y-91122371D01*
X146045333Y-91169990D01*
X146426285Y-91169990D01*
X145521523Y-90646180D02*
X144902476Y-90646180D01*
X145235809Y-91027133D01*
X145092952Y-91027133D01*
X144997714Y-91074752D01*
X144950095Y-91122371D01*
X144902476Y-91217609D01*
X144902476Y-91455704D01*
X144950095Y-91550942D01*
X144997714Y-91598561D01*
X145092952Y-91646180D01*
X145378666Y-91646180D01*
X145473904Y-91598561D01*
X145521523Y-91550942D01*
X144569142Y-90646180D02*
X143950095Y-90646180D01*
X144283428Y-91027133D01*
X144140571Y-91027133D01*
X144045333Y-91074752D01*
X143997714Y-91122371D01*
X143950095Y-91217609D01*
X143950095Y-91455704D01*
X143997714Y-91550942D01*
X144045333Y-91598561D01*
X144140571Y-91646180D01*
X144426285Y-91646180D01*
X144521523Y-91598561D01*
X144569142Y-91550942D01*
X122130857Y-148821380D02*
X122464190Y-148345190D01*
X122702285Y-148821380D02*
X122702285Y-147821380D01*
X122321333Y-147821380D01*
X122226095Y-147869000D01*
X122178476Y-147916619D01*
X122130857Y-148011857D01*
X122130857Y-148154714D01*
X122178476Y-148249952D01*
X122226095Y-148297571D01*
X122321333Y-148345190D01*
X122702285Y-148345190D01*
X121797523Y-147821380D02*
X121178476Y-147821380D01*
X121511809Y-148202333D01*
X121368952Y-148202333D01*
X121273714Y-148249952D01*
X121226095Y-148297571D01*
X121178476Y-148392809D01*
X121178476Y-148630904D01*
X121226095Y-148726142D01*
X121273714Y-148773761D01*
X121368952Y-148821380D01*
X121654666Y-148821380D01*
X121749904Y-148773761D01*
X121797523Y-148726142D01*
X120797523Y-147916619D02*
X120749904Y-147869000D01*
X120654666Y-147821380D01*
X120416571Y-147821380D01*
X120321333Y-147869000D01*
X120273714Y-147916619D01*
X120226095Y-148011857D01*
X120226095Y-148107095D01*
X120273714Y-148249952D01*
X120845142Y-148821380D01*
X120226095Y-148821380D01*
X121648857Y-129670380D02*
X121982190Y-129194190D01*
X122220285Y-129670380D02*
X122220285Y-128670380D01*
X121839333Y-128670380D01*
X121744095Y-128718000D01*
X121696476Y-128765619D01*
X121648857Y-128860857D01*
X121648857Y-129003714D01*
X121696476Y-129098952D01*
X121744095Y-129146571D01*
X121839333Y-129194190D01*
X122220285Y-129194190D01*
X121315523Y-128670380D02*
X120696476Y-128670380D01*
X121029809Y-129051333D01*
X120886952Y-129051333D01*
X120791714Y-129098952D01*
X120744095Y-129146571D01*
X120696476Y-129241809D01*
X120696476Y-129479904D01*
X120744095Y-129575142D01*
X120791714Y-129622761D01*
X120886952Y-129670380D01*
X121172666Y-129670380D01*
X121267904Y-129622761D01*
X121315523Y-129575142D01*
X119744095Y-129670380D02*
X120315523Y-129670380D01*
X120029809Y-129670380D02*
X120029809Y-128670380D01*
X120125047Y-128813238D01*
X120220285Y-128908476D01*
X120315523Y-128956095D01*
X121825857Y-110721380D02*
X122159190Y-110245190D01*
X122397285Y-110721380D02*
X122397285Y-109721380D01*
X122016333Y-109721380D01*
X121921095Y-109769000D01*
X121873476Y-109816619D01*
X121825857Y-109911857D01*
X121825857Y-110054714D01*
X121873476Y-110149952D01*
X121921095Y-110197571D01*
X122016333Y-110245190D01*
X122397285Y-110245190D01*
X121492523Y-109721380D02*
X120873476Y-109721380D01*
X121206809Y-110102333D01*
X121063952Y-110102333D01*
X120968714Y-110149952D01*
X120921095Y-110197571D01*
X120873476Y-110292809D01*
X120873476Y-110530904D01*
X120921095Y-110626142D01*
X120968714Y-110673761D01*
X121063952Y-110721380D01*
X121349666Y-110721380D01*
X121444904Y-110673761D01*
X121492523Y-110626142D01*
X120254428Y-109721380D02*
X120159190Y-109721380D01*
X120063952Y-109769000D01*
X120016333Y-109816619D01*
X119968714Y-109911857D01*
X119921095Y-110102333D01*
X119921095Y-110340428D01*
X119968714Y-110530904D01*
X120016333Y-110626142D01*
X120063952Y-110673761D01*
X120159190Y-110721380D01*
X120254428Y-110721380D01*
X120349666Y-110673761D01*
X120397285Y-110626142D01*
X120444904Y-110530904D01*
X120492523Y-110340428D01*
X120492523Y-110102333D01*
X120444904Y-109911857D01*
X120397285Y-109816619D01*
X120349666Y-109769000D01*
X120254428Y-109721380D01*
X123172857Y-91595380D02*
X123506190Y-91119190D01*
X123744285Y-91595380D02*
X123744285Y-90595380D01*
X123363333Y-90595380D01*
X123268095Y-90643000D01*
X123220476Y-90690619D01*
X123172857Y-90785857D01*
X123172857Y-90928714D01*
X123220476Y-91023952D01*
X123268095Y-91071571D01*
X123363333Y-91119190D01*
X123744285Y-91119190D01*
X122791904Y-90690619D02*
X122744285Y-90643000D01*
X122649047Y-90595380D01*
X122410952Y-90595380D01*
X122315714Y-90643000D01*
X122268095Y-90690619D01*
X122220476Y-90785857D01*
X122220476Y-90881095D01*
X122268095Y-91023952D01*
X122839523Y-91595380D01*
X122220476Y-91595380D01*
X121744285Y-91595380D02*
X121553809Y-91595380D01*
X121458571Y-91547761D01*
X121410952Y-91500142D01*
X121315714Y-91357285D01*
X121268095Y-91166809D01*
X121268095Y-90785857D01*
X121315714Y-90690619D01*
X121363333Y-90643000D01*
X121458571Y-90595380D01*
X121649047Y-90595380D01*
X121744285Y-90643000D01*
X121791904Y-90690619D01*
X121839523Y-90785857D01*
X121839523Y-91023952D01*
X121791904Y-91119190D01*
X121744285Y-91166809D01*
X121649047Y-91214428D01*
X121458571Y-91214428D01*
X121363333Y-91166809D01*
X121315714Y-91119190D01*
X121268095Y-91023952D01*
X98331257Y-148948380D02*
X98664590Y-148472190D01*
X98902685Y-148948380D02*
X98902685Y-147948380D01*
X98521733Y-147948380D01*
X98426495Y-147996000D01*
X98378876Y-148043619D01*
X98331257Y-148138857D01*
X98331257Y-148281714D01*
X98378876Y-148376952D01*
X98426495Y-148424571D01*
X98521733Y-148472190D01*
X98902685Y-148472190D01*
X97950304Y-148043619D02*
X97902685Y-147996000D01*
X97807447Y-147948380D01*
X97569352Y-147948380D01*
X97474114Y-147996000D01*
X97426495Y-148043619D01*
X97378876Y-148138857D01*
X97378876Y-148234095D01*
X97426495Y-148376952D01*
X97997923Y-148948380D01*
X97378876Y-148948380D01*
X96807447Y-148376952D02*
X96902685Y-148329333D01*
X96950304Y-148281714D01*
X96997923Y-148186476D01*
X96997923Y-148138857D01*
X96950304Y-148043619D01*
X96902685Y-147996000D01*
X96807447Y-147948380D01*
X96616971Y-147948380D01*
X96521733Y-147996000D01*
X96474114Y-148043619D01*
X96426495Y-148138857D01*
X96426495Y-148186476D01*
X96474114Y-148281714D01*
X96521733Y-148329333D01*
X96616971Y-148376952D01*
X96807447Y-148376952D01*
X96902685Y-148424571D01*
X96950304Y-148472190D01*
X96997923Y-148567428D01*
X96997923Y-148757904D01*
X96950304Y-148853142D01*
X96902685Y-148900761D01*
X96807447Y-148948380D01*
X96616971Y-148948380D01*
X96521733Y-148900761D01*
X96474114Y-148853142D01*
X96426495Y-148757904D01*
X96426495Y-148567428D01*
X96474114Y-148472190D01*
X96521733Y-148424571D01*
X96616971Y-148376952D01*
X101785657Y-129670380D02*
X102118990Y-129194190D01*
X102357085Y-129670380D02*
X102357085Y-128670380D01*
X101976133Y-128670380D01*
X101880895Y-128718000D01*
X101833276Y-128765619D01*
X101785657Y-128860857D01*
X101785657Y-129003714D01*
X101833276Y-129098952D01*
X101880895Y-129146571D01*
X101976133Y-129194190D01*
X102357085Y-129194190D01*
X101404704Y-128765619D02*
X101357085Y-128718000D01*
X101261847Y-128670380D01*
X101023752Y-128670380D01*
X100928514Y-128718000D01*
X100880895Y-128765619D01*
X100833276Y-128860857D01*
X100833276Y-128956095D01*
X100880895Y-129098952D01*
X101452323Y-129670380D01*
X100833276Y-129670380D01*
X100499942Y-128670380D02*
X99833276Y-128670380D01*
X100261847Y-129670380D01*
X98128057Y-110772380D02*
X98461390Y-110296190D01*
X98699485Y-110772380D02*
X98699485Y-109772380D01*
X98318533Y-109772380D01*
X98223295Y-109820000D01*
X98175676Y-109867619D01*
X98128057Y-109962857D01*
X98128057Y-110105714D01*
X98175676Y-110200952D01*
X98223295Y-110248571D01*
X98318533Y-110296190D01*
X98699485Y-110296190D01*
X97747104Y-109867619D02*
X97699485Y-109820000D01*
X97604247Y-109772380D01*
X97366152Y-109772380D01*
X97270914Y-109820000D01*
X97223295Y-109867619D01*
X97175676Y-109962857D01*
X97175676Y-110058095D01*
X97223295Y-110200952D01*
X97794723Y-110772380D01*
X97175676Y-110772380D01*
X96318533Y-109772380D02*
X96509009Y-109772380D01*
X96604247Y-109820000D01*
X96651866Y-109867619D01*
X96747104Y-110010476D01*
X96794723Y-110200952D01*
X96794723Y-110581904D01*
X96747104Y-110677142D01*
X96699485Y-110724761D01*
X96604247Y-110772380D01*
X96413771Y-110772380D01*
X96318533Y-110724761D01*
X96270914Y-110677142D01*
X96223295Y-110581904D01*
X96223295Y-110343809D01*
X96270914Y-110248571D01*
X96318533Y-110200952D01*
X96413771Y-110153333D01*
X96604247Y-110153333D01*
X96699485Y-110200952D01*
X96747104Y-110248571D01*
X96794723Y-110343809D01*
X100896657Y-91646180D02*
X101229990Y-91169990D01*
X101468085Y-91646180D02*
X101468085Y-90646180D01*
X101087133Y-90646180D01*
X100991895Y-90693800D01*
X100944276Y-90741419D01*
X100896657Y-90836657D01*
X100896657Y-90979514D01*
X100944276Y-91074752D01*
X100991895Y-91122371D01*
X101087133Y-91169990D01*
X101468085Y-91169990D01*
X100515704Y-90741419D02*
X100468085Y-90693800D01*
X100372847Y-90646180D01*
X100134752Y-90646180D01*
X100039514Y-90693800D01*
X99991895Y-90741419D01*
X99944276Y-90836657D01*
X99944276Y-90931895D01*
X99991895Y-91074752D01*
X100563323Y-91646180D01*
X99944276Y-91646180D01*
X99039514Y-90646180D02*
X99515704Y-90646180D01*
X99563323Y-91122371D01*
X99515704Y-91074752D01*
X99420466Y-91027133D01*
X99182371Y-91027133D01*
X99087133Y-91074752D01*
X99039514Y-91122371D01*
X98991895Y-91217609D01*
X98991895Y-91455704D01*
X99039514Y-91550942D01*
X99087133Y-91598561D01*
X99182371Y-91646180D01*
X99420466Y-91646180D01*
X99515704Y-91598561D01*
X99563323Y-91550942D01*
X79128857Y-148745380D02*
X79462190Y-148269190D01*
X79700285Y-148745380D02*
X79700285Y-147745380D01*
X79319333Y-147745380D01*
X79224095Y-147793000D01*
X79176476Y-147840619D01*
X79128857Y-147935857D01*
X79128857Y-148078714D01*
X79176476Y-148173952D01*
X79224095Y-148221571D01*
X79319333Y-148269190D01*
X79700285Y-148269190D01*
X78747904Y-147840619D02*
X78700285Y-147793000D01*
X78605047Y-147745380D01*
X78366952Y-147745380D01*
X78271714Y-147793000D01*
X78224095Y-147840619D01*
X78176476Y-147935857D01*
X78176476Y-148031095D01*
X78224095Y-148173952D01*
X78795523Y-148745380D01*
X78176476Y-148745380D01*
X77319333Y-148078714D02*
X77319333Y-148745380D01*
X77557428Y-147697761D02*
X77795523Y-148412047D01*
X77176476Y-148412047D01*
X75674457Y-129720380D02*
X76007790Y-129244190D01*
X76245885Y-129720380D02*
X76245885Y-128720380D01*
X75864933Y-128720380D01*
X75769695Y-128768000D01*
X75722076Y-128815619D01*
X75674457Y-128910857D01*
X75674457Y-129053714D01*
X75722076Y-129148952D01*
X75769695Y-129196571D01*
X75864933Y-129244190D01*
X76245885Y-129244190D01*
X75293504Y-128815619D02*
X75245885Y-128768000D01*
X75150647Y-128720380D01*
X74912552Y-128720380D01*
X74817314Y-128768000D01*
X74769695Y-128815619D01*
X74722076Y-128910857D01*
X74722076Y-129006095D01*
X74769695Y-129148952D01*
X75341123Y-129720380D01*
X74722076Y-129720380D01*
X74388742Y-128720380D02*
X73769695Y-128720380D01*
X74103028Y-129101333D01*
X73960171Y-129101333D01*
X73864933Y-129148952D01*
X73817314Y-129196571D01*
X73769695Y-129291809D01*
X73769695Y-129529904D01*
X73817314Y-129625142D01*
X73864933Y-129672761D01*
X73960171Y-129720380D01*
X74245885Y-129720380D01*
X74341123Y-129672761D01*
X74388742Y-129625142D01*
X79027257Y-110645380D02*
X79360590Y-110169190D01*
X79598685Y-110645380D02*
X79598685Y-109645380D01*
X79217733Y-109645380D01*
X79122495Y-109693000D01*
X79074876Y-109740619D01*
X79027257Y-109835857D01*
X79027257Y-109978714D01*
X79074876Y-110073952D01*
X79122495Y-110121571D01*
X79217733Y-110169190D01*
X79598685Y-110169190D01*
X78646304Y-109740619D02*
X78598685Y-109693000D01*
X78503447Y-109645380D01*
X78265352Y-109645380D01*
X78170114Y-109693000D01*
X78122495Y-109740619D01*
X78074876Y-109835857D01*
X78074876Y-109931095D01*
X78122495Y-110073952D01*
X78693923Y-110645380D01*
X78074876Y-110645380D01*
X77693923Y-109740619D02*
X77646304Y-109693000D01*
X77551066Y-109645380D01*
X77312971Y-109645380D01*
X77217733Y-109693000D01*
X77170114Y-109740619D01*
X77122495Y-109835857D01*
X77122495Y-109931095D01*
X77170114Y-110073952D01*
X77741542Y-110645380D01*
X77122495Y-110645380D01*
X76080857Y-91722380D02*
X76414190Y-91246190D01*
X76652285Y-91722380D02*
X76652285Y-90722380D01*
X76271333Y-90722380D01*
X76176095Y-90770000D01*
X76128476Y-90817619D01*
X76080857Y-90912857D01*
X76080857Y-91055714D01*
X76128476Y-91150952D01*
X76176095Y-91198571D01*
X76271333Y-91246190D01*
X76652285Y-91246190D01*
X75699904Y-90817619D02*
X75652285Y-90770000D01*
X75557047Y-90722380D01*
X75318952Y-90722380D01*
X75223714Y-90770000D01*
X75176095Y-90817619D01*
X75128476Y-90912857D01*
X75128476Y-91008095D01*
X75176095Y-91150952D01*
X75747523Y-91722380D01*
X75128476Y-91722380D01*
X74176095Y-91722380D02*
X74747523Y-91722380D01*
X74461809Y-91722380D02*
X74461809Y-90722380D01*
X74557047Y-90865238D01*
X74652285Y-90960476D01*
X74747523Y-91008095D01*
X59774057Y-148720380D02*
X60107390Y-148244190D01*
X60345485Y-148720380D02*
X60345485Y-147720380D01*
X59964533Y-147720380D01*
X59869295Y-147768000D01*
X59821676Y-147815619D01*
X59774057Y-147910857D01*
X59774057Y-148053714D01*
X59821676Y-148148952D01*
X59869295Y-148196571D01*
X59964533Y-148244190D01*
X60345485Y-148244190D01*
X59393104Y-147815619D02*
X59345485Y-147768000D01*
X59250247Y-147720380D01*
X59012152Y-147720380D01*
X58916914Y-147768000D01*
X58869295Y-147815619D01*
X58821676Y-147910857D01*
X58821676Y-148006095D01*
X58869295Y-148148952D01*
X59440723Y-148720380D01*
X58821676Y-148720380D01*
X58202628Y-147720380D02*
X58107390Y-147720380D01*
X58012152Y-147768000D01*
X57964533Y-147815619D01*
X57916914Y-147910857D01*
X57869295Y-148101333D01*
X57869295Y-148339428D01*
X57916914Y-148529904D01*
X57964533Y-148625142D01*
X58012152Y-148672761D01*
X58107390Y-148720380D01*
X58202628Y-148720380D01*
X58297866Y-148672761D01*
X58345485Y-148625142D01*
X58393104Y-148529904D01*
X58440723Y-148339428D01*
X58440723Y-148101333D01*
X58393104Y-147910857D01*
X58345485Y-147815619D01*
X58297866Y-147768000D01*
X58202628Y-147720380D01*
X56827657Y-129720380D02*
X57160990Y-129244190D01*
X57399085Y-129720380D02*
X57399085Y-128720380D01*
X57018133Y-128720380D01*
X56922895Y-128768000D01*
X56875276Y-128815619D01*
X56827657Y-128910857D01*
X56827657Y-129053714D01*
X56875276Y-129148952D01*
X56922895Y-129196571D01*
X57018133Y-129244190D01*
X57399085Y-129244190D01*
X55875276Y-129720380D02*
X56446704Y-129720380D01*
X56160990Y-129720380D02*
X56160990Y-128720380D01*
X56256228Y-128863238D01*
X56351466Y-128958476D01*
X56446704Y-129006095D01*
X55399085Y-129720380D02*
X55208609Y-129720380D01*
X55113371Y-129672761D01*
X55065752Y-129625142D01*
X54970514Y-129482285D01*
X54922895Y-129291809D01*
X54922895Y-128910857D01*
X54970514Y-128815619D01*
X55018133Y-128768000D01*
X55113371Y-128720380D01*
X55303847Y-128720380D01*
X55399085Y-128768000D01*
X55446704Y-128815619D01*
X55494323Y-128910857D01*
X55494323Y-129148952D01*
X55446704Y-129244190D01*
X55399085Y-129291809D01*
X55303847Y-129339428D01*
X55113371Y-129339428D01*
X55018133Y-129291809D01*
X54970514Y-129244190D01*
X54922895Y-129148952D01*
X59875657Y-110747380D02*
X60208990Y-110271190D01*
X60447085Y-110747380D02*
X60447085Y-109747380D01*
X60066133Y-109747380D01*
X59970895Y-109795000D01*
X59923276Y-109842619D01*
X59875657Y-109937857D01*
X59875657Y-110080714D01*
X59923276Y-110175952D01*
X59970895Y-110223571D01*
X60066133Y-110271190D01*
X60447085Y-110271190D01*
X58923276Y-110747380D02*
X59494704Y-110747380D01*
X59208990Y-110747380D02*
X59208990Y-109747380D01*
X59304228Y-109890238D01*
X59399466Y-109985476D01*
X59494704Y-110033095D01*
X58351847Y-110175952D02*
X58447085Y-110128333D01*
X58494704Y-110080714D01*
X58542323Y-109985476D01*
X58542323Y-109937857D01*
X58494704Y-109842619D01*
X58447085Y-109795000D01*
X58351847Y-109747380D01*
X58161371Y-109747380D01*
X58066133Y-109795000D01*
X58018514Y-109842619D01*
X57970895Y-109937857D01*
X57970895Y-109985476D01*
X58018514Y-110080714D01*
X58066133Y-110128333D01*
X58161371Y-110175952D01*
X58351847Y-110175952D01*
X58447085Y-110223571D01*
X58494704Y-110271190D01*
X58542323Y-110366428D01*
X58542323Y-110556904D01*
X58494704Y-110652142D01*
X58447085Y-110699761D01*
X58351847Y-110747380D01*
X58161371Y-110747380D01*
X58066133Y-110699761D01*
X58018514Y-110652142D01*
X57970895Y-110556904D01*
X57970895Y-110366428D01*
X58018514Y-110271190D01*
X58066133Y-110223571D01*
X58161371Y-110175952D01*
X58300857Y-91646180D02*
X58634190Y-91169990D01*
X58872285Y-91646180D02*
X58872285Y-90646180D01*
X58491333Y-90646180D01*
X58396095Y-90693800D01*
X58348476Y-90741419D01*
X58300857Y-90836657D01*
X58300857Y-90979514D01*
X58348476Y-91074752D01*
X58396095Y-91122371D01*
X58491333Y-91169990D01*
X58872285Y-91169990D01*
X57348476Y-91646180D02*
X57919904Y-91646180D01*
X57634190Y-91646180D02*
X57634190Y-90646180D01*
X57729428Y-90789038D01*
X57824666Y-90884276D01*
X57919904Y-90931895D01*
X57015142Y-90646180D02*
X56348476Y-90646180D01*
X56777047Y-91646180D01*
X195612380Y-134294714D02*
X194612380Y-134294714D01*
X194612380Y-134532809D01*
X194660000Y-134675666D01*
X194755238Y-134770904D01*
X194850476Y-134818523D01*
X195040952Y-134866142D01*
X195183809Y-134866142D01*
X195374285Y-134818523D01*
X195469523Y-134770904D01*
X195564761Y-134675666D01*
X195612380Y-134532809D01*
X195612380Y-134294714D01*
X194945714Y-135723285D02*
X195612380Y-135723285D01*
X194564761Y-135485190D02*
X195279047Y-135247095D01*
X195279047Y-135866142D01*
X194612380Y-136151857D02*
X194612380Y-136818523D01*
X195612380Y-136389952D01*
X195292380Y-139057095D02*
X194292380Y-139057095D01*
X195292380Y-139628523D02*
X194720952Y-139199952D01*
X194292380Y-139628523D02*
X194863809Y-139057095D01*
X195561380Y-115015714D02*
X194561380Y-115015714D01*
X194561380Y-115253809D01*
X194609000Y-115396666D01*
X194704238Y-115491904D01*
X194799476Y-115539523D01*
X194989952Y-115587142D01*
X195132809Y-115587142D01*
X195323285Y-115539523D01*
X195418523Y-115491904D01*
X195513761Y-115396666D01*
X195561380Y-115253809D01*
X195561380Y-115015714D01*
X194894714Y-116444285D02*
X195561380Y-116444285D01*
X194513761Y-116206190D02*
X195228047Y-115968095D01*
X195228047Y-116587142D01*
X194561380Y-117396666D02*
X194561380Y-117206190D01*
X194609000Y-117110952D01*
X194656619Y-117063333D01*
X194799476Y-116968095D01*
X194989952Y-116920476D01*
X195370904Y-116920476D01*
X195466142Y-116968095D01*
X195513761Y-117015714D01*
X195561380Y-117110952D01*
X195561380Y-117301428D01*
X195513761Y-117396666D01*
X195466142Y-117444285D01*
X195370904Y-117491904D01*
X195132809Y-117491904D01*
X195037571Y-117444285D01*
X194989952Y-117396666D01*
X194942333Y-117301428D01*
X194942333Y-117110952D01*
X194989952Y-117015714D01*
X195037571Y-116968095D01*
X195132809Y-116920476D01*
X195241380Y-119778095D02*
X194241380Y-119778095D01*
X195241380Y-120349523D02*
X194669952Y-119920952D01*
X194241380Y-120349523D02*
X194812809Y-119778095D01*
X195231380Y-153293714D02*
X194231380Y-153293714D01*
X194231380Y-153531809D01*
X194279000Y-153674666D01*
X194374238Y-153769904D01*
X194469476Y-153817523D01*
X194659952Y-153865142D01*
X194802809Y-153865142D01*
X194993285Y-153817523D01*
X195088523Y-153769904D01*
X195183761Y-153674666D01*
X195231380Y-153531809D01*
X195231380Y-153293714D01*
X194564714Y-154722285D02*
X195231380Y-154722285D01*
X194183761Y-154484190D02*
X194898047Y-154246095D01*
X194898047Y-154865142D01*
X194564714Y-155674666D02*
X195231380Y-155674666D01*
X194183761Y-155436571D02*
X194898047Y-155198476D01*
X194898047Y-155817523D01*
X194911380Y-158056095D02*
X193911380Y-158056095D01*
X194911380Y-158627523D02*
X194339952Y-158198952D01*
X193911380Y-158627523D02*
X194482809Y-158056095D01*
X176638380Y-134218714D02*
X175638380Y-134218714D01*
X175638380Y-134456809D01*
X175686000Y-134599666D01*
X175781238Y-134694904D01*
X175876476Y-134742523D01*
X176066952Y-134790142D01*
X176209809Y-134790142D01*
X176400285Y-134742523D01*
X176495523Y-134694904D01*
X176590761Y-134599666D01*
X176638380Y-134456809D01*
X176638380Y-134218714D01*
X175971714Y-135647285D02*
X176638380Y-135647285D01*
X175590761Y-135409190D02*
X176305047Y-135171095D01*
X176305047Y-135790142D01*
X175638380Y-136075857D02*
X175638380Y-136694904D01*
X176019333Y-136361571D01*
X176019333Y-136504428D01*
X176066952Y-136599666D01*
X176114571Y-136647285D01*
X176209809Y-136694904D01*
X176447904Y-136694904D01*
X176543142Y-136647285D01*
X176590761Y-136599666D01*
X176638380Y-136504428D01*
X176638380Y-136218714D01*
X176590761Y-136123476D01*
X176543142Y-136075857D01*
X176318380Y-138981095D02*
X175318380Y-138981095D01*
X176318380Y-139552523D02*
X175746952Y-139123952D01*
X175318380Y-139552523D02*
X175889809Y-138981095D01*
X176587380Y-115066714D02*
X175587380Y-115066714D01*
X175587380Y-115304809D01*
X175635000Y-115447666D01*
X175730238Y-115542904D01*
X175825476Y-115590523D01*
X176015952Y-115638142D01*
X176158809Y-115638142D01*
X176349285Y-115590523D01*
X176444523Y-115542904D01*
X176539761Y-115447666D01*
X176587380Y-115304809D01*
X176587380Y-115066714D01*
X175920714Y-116495285D02*
X176587380Y-116495285D01*
X175539761Y-116257190D02*
X176254047Y-116019095D01*
X176254047Y-116638142D01*
X175682619Y-116971476D02*
X175635000Y-117019095D01*
X175587380Y-117114333D01*
X175587380Y-117352428D01*
X175635000Y-117447666D01*
X175682619Y-117495285D01*
X175777857Y-117542904D01*
X175873095Y-117542904D01*
X176015952Y-117495285D01*
X176587380Y-116923857D01*
X176587380Y-117542904D01*
X176267380Y-119829095D02*
X175267380Y-119829095D01*
X176267380Y-120400523D02*
X175695952Y-119971952D01*
X175267380Y-120400523D02*
X175838809Y-119829095D01*
X176689380Y-96067714D02*
X175689380Y-96067714D01*
X175689380Y-96305809D01*
X175737000Y-96448666D01*
X175832238Y-96543904D01*
X175927476Y-96591523D01*
X176117952Y-96639142D01*
X176260809Y-96639142D01*
X176451285Y-96591523D01*
X176546523Y-96543904D01*
X176641761Y-96448666D01*
X176689380Y-96305809D01*
X176689380Y-96067714D01*
X176022714Y-97496285D02*
X176689380Y-97496285D01*
X175641761Y-97258190D02*
X176356047Y-97020095D01*
X176356047Y-97639142D01*
X176689380Y-98543904D02*
X176689380Y-97972476D01*
X176689380Y-98258190D02*
X175689380Y-98258190D01*
X175832238Y-98162952D01*
X175927476Y-98067714D01*
X175975095Y-97972476D01*
X176369380Y-100830095D02*
X175369380Y-100830095D01*
X176369380Y-101401523D02*
X175797952Y-100972952D01*
X175369380Y-101401523D02*
X175940809Y-100830095D01*
X171761380Y-153191714D02*
X170761380Y-153191714D01*
X170761380Y-153429809D01*
X170809000Y-153572666D01*
X170904238Y-153667904D01*
X170999476Y-153715523D01*
X171189952Y-153763142D01*
X171332809Y-153763142D01*
X171523285Y-153715523D01*
X171618523Y-153667904D01*
X171713761Y-153572666D01*
X171761380Y-153429809D01*
X171761380Y-153191714D01*
X171094714Y-154620285D02*
X171761380Y-154620285D01*
X170713761Y-154382190D02*
X171428047Y-154144095D01*
X171428047Y-154763142D01*
X170761380Y-155334571D02*
X170761380Y-155429809D01*
X170809000Y-155525047D01*
X170856619Y-155572666D01*
X170951857Y-155620285D01*
X171142333Y-155667904D01*
X171380428Y-155667904D01*
X171570904Y-155620285D01*
X171666142Y-155572666D01*
X171713761Y-155525047D01*
X171761380Y-155429809D01*
X171761380Y-155334571D01*
X171713761Y-155239333D01*
X171666142Y-155191714D01*
X171570904Y-155144095D01*
X171380428Y-155096476D01*
X171142333Y-155096476D01*
X170951857Y-155144095D01*
X170856619Y-155191714D01*
X170809000Y-155239333D01*
X170761380Y-155334571D01*
X171441380Y-157954095D02*
X170441380Y-157954095D01*
X171441380Y-158525523D02*
X170869952Y-158096952D01*
X170441380Y-158525523D02*
X171012809Y-157954095D01*
X157537380Y-134243714D02*
X156537380Y-134243714D01*
X156537380Y-134481809D01*
X156585000Y-134624666D01*
X156680238Y-134719904D01*
X156775476Y-134767523D01*
X156965952Y-134815142D01*
X157108809Y-134815142D01*
X157299285Y-134767523D01*
X157394523Y-134719904D01*
X157489761Y-134624666D01*
X157537380Y-134481809D01*
X157537380Y-134243714D01*
X156537380Y-135148476D02*
X156537380Y-135767523D01*
X156918333Y-135434190D01*
X156918333Y-135577047D01*
X156965952Y-135672285D01*
X157013571Y-135719904D01*
X157108809Y-135767523D01*
X157346904Y-135767523D01*
X157442142Y-135719904D01*
X157489761Y-135672285D01*
X157537380Y-135577047D01*
X157537380Y-135291333D01*
X157489761Y-135196095D01*
X157442142Y-135148476D01*
X157537380Y-136243714D02*
X157537380Y-136434190D01*
X157489761Y-136529428D01*
X157442142Y-136577047D01*
X157299285Y-136672285D01*
X157108809Y-136719904D01*
X156727857Y-136719904D01*
X156632619Y-136672285D01*
X156585000Y-136624666D01*
X156537380Y-136529428D01*
X156537380Y-136338952D01*
X156585000Y-136243714D01*
X156632619Y-136196095D01*
X156727857Y-136148476D01*
X156965952Y-136148476D01*
X157061190Y-136196095D01*
X157108809Y-136243714D01*
X157156428Y-136338952D01*
X157156428Y-136529428D01*
X157108809Y-136624666D01*
X157061190Y-136672285D01*
X156965952Y-136719904D01*
X157217380Y-139006095D02*
X156217380Y-139006095D01*
X157217380Y-139577523D02*
X156645952Y-139148952D01*
X156217380Y-139577523D02*
X156788809Y-139006095D01*
X157436380Y-115244714D02*
X156436380Y-115244714D01*
X156436380Y-115482809D01*
X156484000Y-115625666D01*
X156579238Y-115720904D01*
X156674476Y-115768523D01*
X156864952Y-115816142D01*
X157007809Y-115816142D01*
X157198285Y-115768523D01*
X157293523Y-115720904D01*
X157388761Y-115625666D01*
X157436380Y-115482809D01*
X157436380Y-115244714D01*
X156436380Y-116149476D02*
X156436380Y-116768523D01*
X156817333Y-116435190D01*
X156817333Y-116578047D01*
X156864952Y-116673285D01*
X156912571Y-116720904D01*
X157007809Y-116768523D01*
X157245904Y-116768523D01*
X157341142Y-116720904D01*
X157388761Y-116673285D01*
X157436380Y-116578047D01*
X157436380Y-116292333D01*
X157388761Y-116197095D01*
X157341142Y-116149476D01*
X156864952Y-117339952D02*
X156817333Y-117244714D01*
X156769714Y-117197095D01*
X156674476Y-117149476D01*
X156626857Y-117149476D01*
X156531619Y-117197095D01*
X156484000Y-117244714D01*
X156436380Y-117339952D01*
X156436380Y-117530428D01*
X156484000Y-117625666D01*
X156531619Y-117673285D01*
X156626857Y-117720904D01*
X156674476Y-117720904D01*
X156769714Y-117673285D01*
X156817333Y-117625666D01*
X156864952Y-117530428D01*
X156864952Y-117339952D01*
X156912571Y-117244714D01*
X156960190Y-117197095D01*
X157055428Y-117149476D01*
X157245904Y-117149476D01*
X157341142Y-117197095D01*
X157388761Y-117244714D01*
X157436380Y-117339952D01*
X157436380Y-117530428D01*
X157388761Y-117625666D01*
X157341142Y-117673285D01*
X157245904Y-117720904D01*
X157055428Y-117720904D01*
X156960190Y-117673285D01*
X156912571Y-117625666D01*
X156864952Y-117530428D01*
X157116380Y-120007095D02*
X156116380Y-120007095D01*
X157116380Y-120578523D02*
X156544952Y-120149952D01*
X156116380Y-120578523D02*
X156687809Y-120007095D01*
X157410380Y-96016714D02*
X156410380Y-96016714D01*
X156410380Y-96254809D01*
X156458000Y-96397666D01*
X156553238Y-96492904D01*
X156648476Y-96540523D01*
X156838952Y-96588142D01*
X156981809Y-96588142D01*
X157172285Y-96540523D01*
X157267523Y-96492904D01*
X157362761Y-96397666D01*
X157410380Y-96254809D01*
X157410380Y-96016714D01*
X156410380Y-96921476D02*
X156410380Y-97540523D01*
X156791333Y-97207190D01*
X156791333Y-97350047D01*
X156838952Y-97445285D01*
X156886571Y-97492904D01*
X156981809Y-97540523D01*
X157219904Y-97540523D01*
X157315142Y-97492904D01*
X157362761Y-97445285D01*
X157410380Y-97350047D01*
X157410380Y-97064333D01*
X157362761Y-96969095D01*
X157315142Y-96921476D01*
X156410380Y-97873857D02*
X156410380Y-98540523D01*
X157410380Y-98111952D01*
X157090380Y-100779095D02*
X156090380Y-100779095D01*
X157090380Y-101350523D02*
X156518952Y-100921952D01*
X156090380Y-101350523D02*
X156661809Y-100779095D01*
X143440380Y-153344714D02*
X142440380Y-153344714D01*
X142440380Y-153582809D01*
X142488000Y-153725666D01*
X142583238Y-153820904D01*
X142678476Y-153868523D01*
X142868952Y-153916142D01*
X143011809Y-153916142D01*
X143202285Y-153868523D01*
X143297523Y-153820904D01*
X143392761Y-153725666D01*
X143440380Y-153582809D01*
X143440380Y-153344714D01*
X142440380Y-154249476D02*
X142440380Y-154868523D01*
X142821333Y-154535190D01*
X142821333Y-154678047D01*
X142868952Y-154773285D01*
X142916571Y-154820904D01*
X143011809Y-154868523D01*
X143249904Y-154868523D01*
X143345142Y-154820904D01*
X143392761Y-154773285D01*
X143440380Y-154678047D01*
X143440380Y-154392333D01*
X143392761Y-154297095D01*
X143345142Y-154249476D01*
X142440380Y-155725666D02*
X142440380Y-155535190D01*
X142488000Y-155439952D01*
X142535619Y-155392333D01*
X142678476Y-155297095D01*
X142868952Y-155249476D01*
X143249904Y-155249476D01*
X143345142Y-155297095D01*
X143392761Y-155344714D01*
X143440380Y-155439952D01*
X143440380Y-155630428D01*
X143392761Y-155725666D01*
X143345142Y-155773285D01*
X143249904Y-155820904D01*
X143011809Y-155820904D01*
X142916571Y-155773285D01*
X142868952Y-155725666D01*
X142821333Y-155630428D01*
X142821333Y-155439952D01*
X142868952Y-155344714D01*
X142916571Y-155297095D01*
X143011809Y-155249476D01*
X143120380Y-158107095D02*
X142120380Y-158107095D01*
X143120380Y-158678523D02*
X142548952Y-158249952D01*
X142120380Y-158678523D02*
X142691809Y-158107095D01*
X138437380Y-134243714D02*
X137437380Y-134243714D01*
X137437380Y-134481809D01*
X137485000Y-134624666D01*
X137580238Y-134719904D01*
X137675476Y-134767523D01*
X137865952Y-134815142D01*
X138008809Y-134815142D01*
X138199285Y-134767523D01*
X138294523Y-134719904D01*
X138389761Y-134624666D01*
X138437380Y-134481809D01*
X138437380Y-134243714D01*
X137437380Y-135148476D02*
X137437380Y-135767523D01*
X137818333Y-135434190D01*
X137818333Y-135577047D01*
X137865952Y-135672285D01*
X137913571Y-135719904D01*
X138008809Y-135767523D01*
X138246904Y-135767523D01*
X138342142Y-135719904D01*
X138389761Y-135672285D01*
X138437380Y-135577047D01*
X138437380Y-135291333D01*
X138389761Y-135196095D01*
X138342142Y-135148476D01*
X137437380Y-136672285D02*
X137437380Y-136196095D01*
X137913571Y-136148476D01*
X137865952Y-136196095D01*
X137818333Y-136291333D01*
X137818333Y-136529428D01*
X137865952Y-136624666D01*
X137913571Y-136672285D01*
X138008809Y-136719904D01*
X138246904Y-136719904D01*
X138342142Y-136672285D01*
X138389761Y-136624666D01*
X138437380Y-136529428D01*
X138437380Y-136291333D01*
X138389761Y-136196095D01*
X138342142Y-136148476D01*
X138117380Y-139006095D02*
X137117380Y-139006095D01*
X138117380Y-139577523D02*
X137545952Y-139148952D01*
X137117380Y-139577523D02*
X137688809Y-139006095D01*
X138386380Y-115193714D02*
X137386380Y-115193714D01*
X137386380Y-115431809D01*
X137434000Y-115574666D01*
X137529238Y-115669904D01*
X137624476Y-115717523D01*
X137814952Y-115765142D01*
X137957809Y-115765142D01*
X138148285Y-115717523D01*
X138243523Y-115669904D01*
X138338761Y-115574666D01*
X138386380Y-115431809D01*
X138386380Y-115193714D01*
X137386380Y-116098476D02*
X137386380Y-116717523D01*
X137767333Y-116384190D01*
X137767333Y-116527047D01*
X137814952Y-116622285D01*
X137862571Y-116669904D01*
X137957809Y-116717523D01*
X138195904Y-116717523D01*
X138291142Y-116669904D01*
X138338761Y-116622285D01*
X138386380Y-116527047D01*
X138386380Y-116241333D01*
X138338761Y-116146095D01*
X138291142Y-116098476D01*
X137719714Y-117574666D02*
X138386380Y-117574666D01*
X137338761Y-117336571D02*
X138053047Y-117098476D01*
X138053047Y-117717523D01*
X138066380Y-119956095D02*
X137066380Y-119956095D01*
X138066380Y-120527523D02*
X137494952Y-120098952D01*
X137066380Y-120527523D02*
X137637809Y-119956095D01*
X138513380Y-96372714D02*
X137513380Y-96372714D01*
X137513380Y-96610809D01*
X137561000Y-96753666D01*
X137656238Y-96848904D01*
X137751476Y-96896523D01*
X137941952Y-96944142D01*
X138084809Y-96944142D01*
X138275285Y-96896523D01*
X138370523Y-96848904D01*
X138465761Y-96753666D01*
X138513380Y-96610809D01*
X138513380Y-96372714D01*
X137513380Y-97277476D02*
X137513380Y-97896523D01*
X137894333Y-97563190D01*
X137894333Y-97706047D01*
X137941952Y-97801285D01*
X137989571Y-97848904D01*
X138084809Y-97896523D01*
X138322904Y-97896523D01*
X138418142Y-97848904D01*
X138465761Y-97801285D01*
X138513380Y-97706047D01*
X138513380Y-97420333D01*
X138465761Y-97325095D01*
X138418142Y-97277476D01*
X137513380Y-98229857D02*
X137513380Y-98848904D01*
X137894333Y-98515571D01*
X137894333Y-98658428D01*
X137941952Y-98753666D01*
X137989571Y-98801285D01*
X138084809Y-98848904D01*
X138322904Y-98848904D01*
X138418142Y-98801285D01*
X138465761Y-98753666D01*
X138513380Y-98658428D01*
X138513380Y-98372714D01*
X138465761Y-98277476D01*
X138418142Y-98229857D01*
X138193380Y-101135095D02*
X137193380Y-101135095D01*
X138193380Y-101706523D02*
X137621952Y-101277952D01*
X137193380Y-101706523D02*
X137764809Y-101135095D01*
X114662380Y-153420714D02*
X113662380Y-153420714D01*
X113662380Y-153658809D01*
X113710000Y-153801666D01*
X113805238Y-153896904D01*
X113900476Y-153944523D01*
X114090952Y-153992142D01*
X114233809Y-153992142D01*
X114424285Y-153944523D01*
X114519523Y-153896904D01*
X114614761Y-153801666D01*
X114662380Y-153658809D01*
X114662380Y-153420714D01*
X113662380Y-154325476D02*
X113662380Y-154944523D01*
X114043333Y-154611190D01*
X114043333Y-154754047D01*
X114090952Y-154849285D01*
X114138571Y-154896904D01*
X114233809Y-154944523D01*
X114471904Y-154944523D01*
X114567142Y-154896904D01*
X114614761Y-154849285D01*
X114662380Y-154754047D01*
X114662380Y-154468333D01*
X114614761Y-154373095D01*
X114567142Y-154325476D01*
X113757619Y-155325476D02*
X113710000Y-155373095D01*
X113662380Y-155468333D01*
X113662380Y-155706428D01*
X113710000Y-155801666D01*
X113757619Y-155849285D01*
X113852857Y-155896904D01*
X113948095Y-155896904D01*
X114090952Y-155849285D01*
X114662380Y-155277857D01*
X114662380Y-155896904D01*
X114342380Y-158183095D02*
X113342380Y-158183095D01*
X114342380Y-158754523D02*
X113770952Y-158325952D01*
X113342380Y-158754523D02*
X113913809Y-158183095D01*
X114484380Y-134192714D02*
X113484380Y-134192714D01*
X113484380Y-134430809D01*
X113532000Y-134573666D01*
X113627238Y-134668904D01*
X113722476Y-134716523D01*
X113912952Y-134764142D01*
X114055809Y-134764142D01*
X114246285Y-134716523D01*
X114341523Y-134668904D01*
X114436761Y-134573666D01*
X114484380Y-134430809D01*
X114484380Y-134192714D01*
X113484380Y-135097476D02*
X113484380Y-135716523D01*
X113865333Y-135383190D01*
X113865333Y-135526047D01*
X113912952Y-135621285D01*
X113960571Y-135668904D01*
X114055809Y-135716523D01*
X114293904Y-135716523D01*
X114389142Y-135668904D01*
X114436761Y-135621285D01*
X114484380Y-135526047D01*
X114484380Y-135240333D01*
X114436761Y-135145095D01*
X114389142Y-135097476D01*
X114484380Y-136668904D02*
X114484380Y-136097476D01*
X114484380Y-136383190D02*
X113484380Y-136383190D01*
X113627238Y-136287952D01*
X113722476Y-136192714D01*
X113770095Y-136097476D01*
X114164380Y-138955095D02*
X113164380Y-138955095D01*
X114164380Y-139526523D02*
X113592952Y-139097952D01*
X113164380Y-139526523D02*
X113735809Y-138955095D01*
X114611380Y-115193714D02*
X113611380Y-115193714D01*
X113611380Y-115431809D01*
X113659000Y-115574666D01*
X113754238Y-115669904D01*
X113849476Y-115717523D01*
X114039952Y-115765142D01*
X114182809Y-115765142D01*
X114373285Y-115717523D01*
X114468523Y-115669904D01*
X114563761Y-115574666D01*
X114611380Y-115431809D01*
X114611380Y-115193714D01*
X113611380Y-116098476D02*
X113611380Y-116717523D01*
X113992333Y-116384190D01*
X113992333Y-116527047D01*
X114039952Y-116622285D01*
X114087571Y-116669904D01*
X114182809Y-116717523D01*
X114420904Y-116717523D01*
X114516142Y-116669904D01*
X114563761Y-116622285D01*
X114611380Y-116527047D01*
X114611380Y-116241333D01*
X114563761Y-116146095D01*
X114516142Y-116098476D01*
X113611380Y-117336571D02*
X113611380Y-117431809D01*
X113659000Y-117527047D01*
X113706619Y-117574666D01*
X113801857Y-117622285D01*
X113992333Y-117669904D01*
X114230428Y-117669904D01*
X114420904Y-117622285D01*
X114516142Y-117574666D01*
X114563761Y-117527047D01*
X114611380Y-117431809D01*
X114611380Y-117336571D01*
X114563761Y-117241333D01*
X114516142Y-117193714D01*
X114420904Y-117146095D01*
X114230428Y-117098476D01*
X113992333Y-117098476D01*
X113801857Y-117146095D01*
X113706619Y-117193714D01*
X113659000Y-117241333D01*
X113611380Y-117336571D01*
X114291380Y-119956095D02*
X113291380Y-119956095D01*
X114291380Y-120527523D02*
X113719952Y-120098952D01*
X113291380Y-120527523D02*
X113862809Y-119956095D01*
X114561380Y-96194714D02*
X113561380Y-96194714D01*
X113561380Y-96432809D01*
X113609000Y-96575666D01*
X113704238Y-96670904D01*
X113799476Y-96718523D01*
X113989952Y-96766142D01*
X114132809Y-96766142D01*
X114323285Y-96718523D01*
X114418523Y-96670904D01*
X114513761Y-96575666D01*
X114561380Y-96432809D01*
X114561380Y-96194714D01*
X113656619Y-97147095D02*
X113609000Y-97194714D01*
X113561380Y-97289952D01*
X113561380Y-97528047D01*
X113609000Y-97623285D01*
X113656619Y-97670904D01*
X113751857Y-97718523D01*
X113847095Y-97718523D01*
X113989952Y-97670904D01*
X114561380Y-97099476D01*
X114561380Y-97718523D01*
X114561380Y-98194714D02*
X114561380Y-98385190D01*
X114513761Y-98480428D01*
X114466142Y-98528047D01*
X114323285Y-98623285D01*
X114132809Y-98670904D01*
X113751857Y-98670904D01*
X113656619Y-98623285D01*
X113609000Y-98575666D01*
X113561380Y-98480428D01*
X113561380Y-98289952D01*
X113609000Y-98194714D01*
X113656619Y-98147095D01*
X113751857Y-98099476D01*
X113989952Y-98099476D01*
X114085190Y-98147095D01*
X114132809Y-98194714D01*
X114180428Y-98289952D01*
X114180428Y-98480428D01*
X114132809Y-98575666D01*
X114085190Y-98623285D01*
X113989952Y-98670904D01*
X114241380Y-100957095D02*
X113241380Y-100957095D01*
X114241380Y-101528523D02*
X113669952Y-101099952D01*
X113241380Y-101528523D02*
X113812809Y-100957095D01*
X90862780Y-153039714D02*
X89862780Y-153039714D01*
X89862780Y-153277809D01*
X89910400Y-153420666D01*
X90005638Y-153515904D01*
X90100876Y-153563523D01*
X90291352Y-153611142D01*
X90434209Y-153611142D01*
X90624685Y-153563523D01*
X90719923Y-153515904D01*
X90815161Y-153420666D01*
X90862780Y-153277809D01*
X90862780Y-153039714D01*
X89958019Y-153992095D02*
X89910400Y-154039714D01*
X89862780Y-154134952D01*
X89862780Y-154373047D01*
X89910400Y-154468285D01*
X89958019Y-154515904D01*
X90053257Y-154563523D01*
X90148495Y-154563523D01*
X90291352Y-154515904D01*
X90862780Y-153944476D01*
X90862780Y-154563523D01*
X90291352Y-155134952D02*
X90243733Y-155039714D01*
X90196114Y-154992095D01*
X90100876Y-154944476D01*
X90053257Y-154944476D01*
X89958019Y-154992095D01*
X89910400Y-155039714D01*
X89862780Y-155134952D01*
X89862780Y-155325428D01*
X89910400Y-155420666D01*
X89958019Y-155468285D01*
X90053257Y-155515904D01*
X90100876Y-155515904D01*
X90196114Y-155468285D01*
X90243733Y-155420666D01*
X90291352Y-155325428D01*
X90291352Y-155134952D01*
X90338971Y-155039714D01*
X90386590Y-154992095D01*
X90481828Y-154944476D01*
X90672304Y-154944476D01*
X90767542Y-154992095D01*
X90815161Y-155039714D01*
X90862780Y-155134952D01*
X90862780Y-155325428D01*
X90815161Y-155420666D01*
X90767542Y-155468285D01*
X90672304Y-155515904D01*
X90481828Y-155515904D01*
X90386590Y-155468285D01*
X90338971Y-155420666D01*
X90291352Y-155325428D01*
X90542780Y-157802095D02*
X89542780Y-157802095D01*
X90542780Y-158373523D02*
X89971352Y-157944952D01*
X89542780Y-158373523D02*
X90114209Y-157802095D01*
X90811980Y-134396714D02*
X89811980Y-134396714D01*
X89811980Y-134634809D01*
X89859600Y-134777666D01*
X89954838Y-134872904D01*
X90050076Y-134920523D01*
X90240552Y-134968142D01*
X90383409Y-134968142D01*
X90573885Y-134920523D01*
X90669123Y-134872904D01*
X90764361Y-134777666D01*
X90811980Y-134634809D01*
X90811980Y-134396714D01*
X89907219Y-135349095D02*
X89859600Y-135396714D01*
X89811980Y-135491952D01*
X89811980Y-135730047D01*
X89859600Y-135825285D01*
X89907219Y-135872904D01*
X90002457Y-135920523D01*
X90097695Y-135920523D01*
X90240552Y-135872904D01*
X90811980Y-135301476D01*
X90811980Y-135920523D01*
X89811980Y-136253857D02*
X89811980Y-136920523D01*
X90811980Y-136491952D01*
X90491980Y-139159095D02*
X89491980Y-139159095D01*
X90491980Y-139730523D02*
X89920552Y-139301952D01*
X89491980Y-139730523D02*
X90063409Y-139159095D01*
X89881819Y-117673285D02*
X90881819Y-117673285D01*
X90881819Y-117435190D01*
X90834200Y-117292333D01*
X90738961Y-117197095D01*
X90643723Y-117149476D01*
X90453247Y-117101857D01*
X90310390Y-117101857D01*
X90119914Y-117149476D01*
X90024676Y-117197095D01*
X89929438Y-117292333D01*
X89881819Y-117435190D01*
X89881819Y-117673285D01*
X90786580Y-116720904D02*
X90834200Y-116673285D01*
X90881819Y-116578047D01*
X90881819Y-116339952D01*
X90834200Y-116244714D01*
X90786580Y-116197095D01*
X90691342Y-116149476D01*
X90596104Y-116149476D01*
X90453247Y-116197095D01*
X89881819Y-116768523D01*
X89881819Y-116149476D01*
X90881819Y-115292333D02*
X90881819Y-115482809D01*
X90834200Y-115578047D01*
X90786580Y-115625666D01*
X90643723Y-115720904D01*
X90453247Y-115768523D01*
X90072295Y-115768523D01*
X89977057Y-115720904D01*
X89929438Y-115673285D01*
X89881819Y-115578047D01*
X89881819Y-115387571D01*
X89929438Y-115292333D01*
X89977057Y-115244714D01*
X90072295Y-115197095D01*
X90310390Y-115197095D01*
X90405628Y-115244714D01*
X90453247Y-115292333D01*
X90500866Y-115387571D01*
X90500866Y-115578047D01*
X90453247Y-115673285D01*
X90405628Y-115720904D01*
X90310390Y-115768523D01*
X89561819Y-120530904D02*
X90561819Y-120530904D01*
X89561819Y-119959476D02*
X90133247Y-120388047D01*
X90561819Y-119959476D02*
X89990390Y-120530904D01*
X90837380Y-96067714D02*
X89837380Y-96067714D01*
X89837380Y-96305809D01*
X89885000Y-96448666D01*
X89980238Y-96543904D01*
X90075476Y-96591523D01*
X90265952Y-96639142D01*
X90408809Y-96639142D01*
X90599285Y-96591523D01*
X90694523Y-96543904D01*
X90789761Y-96448666D01*
X90837380Y-96305809D01*
X90837380Y-96067714D01*
X89932619Y-97020095D02*
X89885000Y-97067714D01*
X89837380Y-97162952D01*
X89837380Y-97401047D01*
X89885000Y-97496285D01*
X89932619Y-97543904D01*
X90027857Y-97591523D01*
X90123095Y-97591523D01*
X90265952Y-97543904D01*
X90837380Y-96972476D01*
X90837380Y-97591523D01*
X89837380Y-98496285D02*
X89837380Y-98020095D01*
X90313571Y-97972476D01*
X90265952Y-98020095D01*
X90218333Y-98115333D01*
X90218333Y-98353428D01*
X90265952Y-98448666D01*
X90313571Y-98496285D01*
X90408809Y-98543904D01*
X90646904Y-98543904D01*
X90742142Y-98496285D01*
X90789761Y-98448666D01*
X90837380Y-98353428D01*
X90837380Y-98115333D01*
X90789761Y-98020095D01*
X90742142Y-97972476D01*
X90517380Y-100830095D02*
X89517380Y-100830095D01*
X90517380Y-101401523D02*
X89945952Y-100972952D01*
X89517380Y-101401523D02*
X90088809Y-100830095D01*
X71660380Y-153217714D02*
X70660380Y-153217714D01*
X70660380Y-153455809D01*
X70708000Y-153598666D01*
X70803238Y-153693904D01*
X70898476Y-153741523D01*
X71088952Y-153789142D01*
X71231809Y-153789142D01*
X71422285Y-153741523D01*
X71517523Y-153693904D01*
X71612761Y-153598666D01*
X71660380Y-153455809D01*
X71660380Y-153217714D01*
X70755619Y-154170095D02*
X70708000Y-154217714D01*
X70660380Y-154312952D01*
X70660380Y-154551047D01*
X70708000Y-154646285D01*
X70755619Y-154693904D01*
X70850857Y-154741523D01*
X70946095Y-154741523D01*
X71088952Y-154693904D01*
X71660380Y-154122476D01*
X71660380Y-154741523D01*
X70993714Y-155598666D02*
X71660380Y-155598666D01*
X70612761Y-155360571D02*
X71327047Y-155122476D01*
X71327047Y-155741523D01*
X71340380Y-157980095D02*
X70340380Y-157980095D01*
X71340380Y-158551523D02*
X70768952Y-158122952D01*
X70340380Y-158551523D02*
X70911809Y-157980095D01*
X71787380Y-134421714D02*
X70787380Y-134421714D01*
X70787380Y-134659809D01*
X70835000Y-134802666D01*
X70930238Y-134897904D01*
X71025476Y-134945523D01*
X71215952Y-134993142D01*
X71358809Y-134993142D01*
X71549285Y-134945523D01*
X71644523Y-134897904D01*
X71739761Y-134802666D01*
X71787380Y-134659809D01*
X71787380Y-134421714D01*
X70882619Y-135374095D02*
X70835000Y-135421714D01*
X70787380Y-135516952D01*
X70787380Y-135755047D01*
X70835000Y-135850285D01*
X70882619Y-135897904D01*
X70977857Y-135945523D01*
X71073095Y-135945523D01*
X71215952Y-135897904D01*
X71787380Y-135326476D01*
X71787380Y-135945523D01*
X70787380Y-136278857D02*
X70787380Y-136897904D01*
X71168333Y-136564571D01*
X71168333Y-136707428D01*
X71215952Y-136802666D01*
X71263571Y-136850285D01*
X71358809Y-136897904D01*
X71596904Y-136897904D01*
X71692142Y-136850285D01*
X71739761Y-136802666D01*
X71787380Y-136707428D01*
X71787380Y-136421714D01*
X71739761Y-136326476D01*
X71692142Y-136278857D01*
X71467380Y-139184095D02*
X70467380Y-139184095D01*
X71467380Y-139755523D02*
X70895952Y-139326952D01*
X70467380Y-139755523D02*
X71038809Y-139184095D01*
X71812780Y-115193714D02*
X70812780Y-115193714D01*
X70812780Y-115431809D01*
X70860400Y-115574666D01*
X70955638Y-115669904D01*
X71050876Y-115717523D01*
X71241352Y-115765142D01*
X71384209Y-115765142D01*
X71574685Y-115717523D01*
X71669923Y-115669904D01*
X71765161Y-115574666D01*
X71812780Y-115431809D01*
X71812780Y-115193714D01*
X70908019Y-116146095D02*
X70860400Y-116193714D01*
X70812780Y-116288952D01*
X70812780Y-116527047D01*
X70860400Y-116622285D01*
X70908019Y-116669904D01*
X71003257Y-116717523D01*
X71098495Y-116717523D01*
X71241352Y-116669904D01*
X71812780Y-116098476D01*
X71812780Y-116717523D01*
X70908019Y-117098476D02*
X70860400Y-117146095D01*
X70812780Y-117241333D01*
X70812780Y-117479428D01*
X70860400Y-117574666D01*
X70908019Y-117622285D01*
X71003257Y-117669904D01*
X71098495Y-117669904D01*
X71241352Y-117622285D01*
X71812780Y-117050857D01*
X71812780Y-117669904D01*
X71492780Y-119956095D02*
X70492780Y-119956095D01*
X71492780Y-120527523D02*
X70921352Y-120098952D01*
X70492780Y-120527523D02*
X71064209Y-119956095D01*
X71914380Y-96321714D02*
X70914380Y-96321714D01*
X70914380Y-96559809D01*
X70962000Y-96702666D01*
X71057238Y-96797904D01*
X71152476Y-96845523D01*
X71342952Y-96893142D01*
X71485809Y-96893142D01*
X71676285Y-96845523D01*
X71771523Y-96797904D01*
X71866761Y-96702666D01*
X71914380Y-96559809D01*
X71914380Y-96321714D01*
X71009619Y-97274095D02*
X70962000Y-97321714D01*
X70914380Y-97416952D01*
X70914380Y-97655047D01*
X70962000Y-97750285D01*
X71009619Y-97797904D01*
X71104857Y-97845523D01*
X71200095Y-97845523D01*
X71342952Y-97797904D01*
X71914380Y-97226476D01*
X71914380Y-97845523D01*
X71914380Y-98797904D02*
X71914380Y-98226476D01*
X71914380Y-98512190D02*
X70914380Y-98512190D01*
X71057238Y-98416952D01*
X71152476Y-98321714D01*
X71200095Y-98226476D01*
X71594380Y-101084095D02*
X70594380Y-101084095D01*
X71594380Y-101655523D02*
X71022952Y-101226952D01*
X70594380Y-101655523D02*
X71165809Y-101084095D01*
X52762780Y-152912714D02*
X51762780Y-152912714D01*
X51762780Y-153150809D01*
X51810400Y-153293666D01*
X51905638Y-153388904D01*
X52000876Y-153436523D01*
X52191352Y-153484142D01*
X52334209Y-153484142D01*
X52524685Y-153436523D01*
X52619923Y-153388904D01*
X52715161Y-153293666D01*
X52762780Y-153150809D01*
X52762780Y-152912714D01*
X51858019Y-153865095D02*
X51810400Y-153912714D01*
X51762780Y-154007952D01*
X51762780Y-154246047D01*
X51810400Y-154341285D01*
X51858019Y-154388904D01*
X51953257Y-154436523D01*
X52048495Y-154436523D01*
X52191352Y-154388904D01*
X52762780Y-153817476D01*
X52762780Y-154436523D01*
X51762780Y-155055571D02*
X51762780Y-155150809D01*
X51810400Y-155246047D01*
X51858019Y-155293666D01*
X51953257Y-155341285D01*
X52143733Y-155388904D01*
X52381828Y-155388904D01*
X52572304Y-155341285D01*
X52667542Y-155293666D01*
X52715161Y-155246047D01*
X52762780Y-155150809D01*
X52762780Y-155055571D01*
X52715161Y-154960333D01*
X52667542Y-154912714D01*
X52572304Y-154865095D01*
X52381828Y-154817476D01*
X52143733Y-154817476D01*
X51953257Y-154865095D01*
X51858019Y-154912714D01*
X51810400Y-154960333D01*
X51762780Y-155055571D01*
X52442780Y-157675095D02*
X51442780Y-157675095D01*
X52442780Y-158246523D02*
X51871352Y-157817952D01*
X51442780Y-158246523D02*
X52014209Y-157675095D01*
X52737380Y-134421714D02*
X51737380Y-134421714D01*
X51737380Y-134659809D01*
X51785000Y-134802666D01*
X51880238Y-134897904D01*
X51975476Y-134945523D01*
X52165952Y-134993142D01*
X52308809Y-134993142D01*
X52499285Y-134945523D01*
X52594523Y-134897904D01*
X52689761Y-134802666D01*
X52737380Y-134659809D01*
X52737380Y-134421714D01*
X52737380Y-135945523D02*
X52737380Y-135374095D01*
X52737380Y-135659809D02*
X51737380Y-135659809D01*
X51880238Y-135564571D01*
X51975476Y-135469333D01*
X52023095Y-135374095D01*
X52737380Y-136421714D02*
X52737380Y-136612190D01*
X52689761Y-136707428D01*
X52642142Y-136755047D01*
X52499285Y-136850285D01*
X52308809Y-136897904D01*
X51927857Y-136897904D01*
X51832619Y-136850285D01*
X51785000Y-136802666D01*
X51737380Y-136707428D01*
X51737380Y-136516952D01*
X51785000Y-136421714D01*
X51832619Y-136374095D01*
X51927857Y-136326476D01*
X52165952Y-136326476D01*
X52261190Y-136374095D01*
X52308809Y-136421714D01*
X52356428Y-136516952D01*
X52356428Y-136707428D01*
X52308809Y-136802666D01*
X52261190Y-136850285D01*
X52165952Y-136897904D01*
X52417380Y-139184095D02*
X51417380Y-139184095D01*
X52417380Y-139755523D02*
X51845952Y-139326952D01*
X51417380Y-139755523D02*
X51988809Y-139184095D01*
X52737380Y-115498714D02*
X51737380Y-115498714D01*
X51737380Y-115736809D01*
X51785000Y-115879666D01*
X51880238Y-115974904D01*
X51975476Y-116022523D01*
X52165952Y-116070142D01*
X52308809Y-116070142D01*
X52499285Y-116022523D01*
X52594523Y-115974904D01*
X52689761Y-115879666D01*
X52737380Y-115736809D01*
X52737380Y-115498714D01*
X52737380Y-117022523D02*
X52737380Y-116451095D01*
X52737380Y-116736809D02*
X51737380Y-116736809D01*
X51880238Y-116641571D01*
X51975476Y-116546333D01*
X52023095Y-116451095D01*
X52165952Y-117593952D02*
X52118333Y-117498714D01*
X52070714Y-117451095D01*
X51975476Y-117403476D01*
X51927857Y-117403476D01*
X51832619Y-117451095D01*
X51785000Y-117498714D01*
X51737380Y-117593952D01*
X51737380Y-117784428D01*
X51785000Y-117879666D01*
X51832619Y-117927285D01*
X51927857Y-117974904D01*
X51975476Y-117974904D01*
X52070714Y-117927285D01*
X52118333Y-117879666D01*
X52165952Y-117784428D01*
X52165952Y-117593952D01*
X52213571Y-117498714D01*
X52261190Y-117451095D01*
X52356428Y-117403476D01*
X52546904Y-117403476D01*
X52642142Y-117451095D01*
X52689761Y-117498714D01*
X52737380Y-117593952D01*
X52737380Y-117784428D01*
X52689761Y-117879666D01*
X52642142Y-117927285D01*
X52546904Y-117974904D01*
X52356428Y-117974904D01*
X52261190Y-117927285D01*
X52213571Y-117879666D01*
X52165952Y-117784428D01*
X52417380Y-120261095D02*
X51417380Y-120261095D01*
X52417380Y-120832523D02*
X51845952Y-120403952D01*
X51417380Y-120832523D02*
X51988809Y-120261095D01*
X52737380Y-95940714D02*
X51737380Y-95940714D01*
X51737380Y-96178809D01*
X51785000Y-96321666D01*
X51880238Y-96416904D01*
X51975476Y-96464523D01*
X52165952Y-96512142D01*
X52308809Y-96512142D01*
X52499285Y-96464523D01*
X52594523Y-96416904D01*
X52689761Y-96321666D01*
X52737380Y-96178809D01*
X52737380Y-95940714D01*
X52737380Y-97464523D02*
X52737380Y-96893095D01*
X52737380Y-97178809D02*
X51737380Y-97178809D01*
X51880238Y-97083571D01*
X51975476Y-96988333D01*
X52023095Y-96893095D01*
X51737380Y-97797857D02*
X51737380Y-98464523D01*
X52737380Y-98035952D01*
X52417380Y-100703095D02*
X51417380Y-100703095D01*
X52417380Y-101274523D02*
X51845952Y-100845952D01*
X51417380Y-101274523D02*
X51988809Y-100703095D01*
X194834619Y-78938285D02*
X195834619Y-78938285D01*
X195834619Y-78700190D01*
X195787000Y-78557333D01*
X195691761Y-78462095D01*
X195596523Y-78414476D01*
X195406047Y-78366857D01*
X195263190Y-78366857D01*
X195072714Y-78414476D01*
X194977476Y-78462095D01*
X194882238Y-78557333D01*
X194834619Y-78700190D01*
X194834619Y-78938285D01*
X194834619Y-77414476D02*
X194834619Y-77985904D01*
X194834619Y-77700190D02*
X195834619Y-77700190D01*
X195691761Y-77795428D01*
X195596523Y-77890666D01*
X195548904Y-77985904D01*
X195834619Y-76557333D02*
X195834619Y-76747809D01*
X195787000Y-76843047D01*
X195739380Y-76890666D01*
X195596523Y-76985904D01*
X195406047Y-77033523D01*
X195025095Y-77033523D01*
X194929857Y-76985904D01*
X194882238Y-76938285D01*
X194834619Y-76843047D01*
X194834619Y-76652571D01*
X194882238Y-76557333D01*
X194929857Y-76509714D01*
X195025095Y-76462095D01*
X195263190Y-76462095D01*
X195358428Y-76509714D01*
X195406047Y-76557333D01*
X195453666Y-76652571D01*
X195453666Y-76843047D01*
X195406047Y-76938285D01*
X195358428Y-76985904D01*
X195263190Y-77033523D01*
X194514619Y-81795904D02*
X195514619Y-81795904D01*
X194514619Y-81224476D02*
X195086047Y-81653047D01*
X195514619Y-81224476D02*
X194943190Y-81795904D01*
X195358380Y-57459714D02*
X194358380Y-57459714D01*
X194358380Y-57697809D01*
X194406000Y-57840666D01*
X194501238Y-57935904D01*
X194596476Y-57983523D01*
X194786952Y-58031142D01*
X194929809Y-58031142D01*
X195120285Y-57983523D01*
X195215523Y-57935904D01*
X195310761Y-57840666D01*
X195358380Y-57697809D01*
X195358380Y-57459714D01*
X195358380Y-58983523D02*
X195358380Y-58412095D01*
X195358380Y-58697809D02*
X194358380Y-58697809D01*
X194501238Y-58602571D01*
X194596476Y-58507333D01*
X194644095Y-58412095D01*
X194358380Y-59888285D02*
X194358380Y-59412095D01*
X194834571Y-59364476D01*
X194786952Y-59412095D01*
X194739333Y-59507333D01*
X194739333Y-59745428D01*
X194786952Y-59840666D01*
X194834571Y-59888285D01*
X194929809Y-59935904D01*
X195167904Y-59935904D01*
X195263142Y-59888285D01*
X195310761Y-59840666D01*
X195358380Y-59745428D01*
X195358380Y-59507333D01*
X195310761Y-59412095D01*
X195263142Y-59364476D01*
X195038380Y-62222095D02*
X194038380Y-62222095D01*
X195038380Y-62793523D02*
X194466952Y-62364952D01*
X194038380Y-62793523D02*
X194609809Y-62222095D01*
X175530619Y-79065285D02*
X176530619Y-79065285D01*
X176530619Y-78827190D01*
X176483000Y-78684333D01*
X176387761Y-78589095D01*
X176292523Y-78541476D01*
X176102047Y-78493857D01*
X175959190Y-78493857D01*
X175768714Y-78541476D01*
X175673476Y-78589095D01*
X175578238Y-78684333D01*
X175530619Y-78827190D01*
X175530619Y-79065285D01*
X175530619Y-77541476D02*
X175530619Y-78112904D01*
X175530619Y-77827190D02*
X176530619Y-77827190D01*
X176387761Y-77922428D01*
X176292523Y-78017666D01*
X176244904Y-78112904D01*
X176197285Y-76684333D02*
X175530619Y-76684333D01*
X176578238Y-76922428D02*
X175863952Y-77160523D01*
X175863952Y-76541476D01*
X175210619Y-81922904D02*
X176210619Y-81922904D01*
X175210619Y-81351476D02*
X175782047Y-81780047D01*
X176210619Y-81351476D02*
X175639190Y-81922904D01*
X175403619Y-60142285D02*
X176403619Y-60142285D01*
X176403619Y-59904190D01*
X176356000Y-59761333D01*
X176260761Y-59666095D01*
X176165523Y-59618476D01*
X175975047Y-59570857D01*
X175832190Y-59570857D01*
X175641714Y-59618476D01*
X175546476Y-59666095D01*
X175451238Y-59761333D01*
X175403619Y-59904190D01*
X175403619Y-60142285D01*
X175403619Y-58618476D02*
X175403619Y-59189904D01*
X175403619Y-58904190D02*
X176403619Y-58904190D01*
X176260761Y-58999428D01*
X176165523Y-59094666D01*
X176117904Y-59189904D01*
X176403619Y-58285142D02*
X176403619Y-57666095D01*
X176022666Y-57999428D01*
X176022666Y-57856571D01*
X175975047Y-57761333D01*
X175927428Y-57713714D01*
X175832190Y-57666095D01*
X175594095Y-57666095D01*
X175498857Y-57713714D01*
X175451238Y-57761333D01*
X175403619Y-57856571D01*
X175403619Y-58142285D01*
X175451238Y-58237523D01*
X175498857Y-58285142D01*
X175083619Y-62999904D02*
X176083619Y-62999904D01*
X175083619Y-62428476D02*
X175655047Y-62857047D01*
X176083619Y-62428476D02*
X175512190Y-62999904D01*
X156734619Y-79065285D02*
X157734619Y-79065285D01*
X157734619Y-78827190D01*
X157687000Y-78684333D01*
X157591761Y-78589095D01*
X157496523Y-78541476D01*
X157306047Y-78493857D01*
X157163190Y-78493857D01*
X156972714Y-78541476D01*
X156877476Y-78589095D01*
X156782238Y-78684333D01*
X156734619Y-78827190D01*
X156734619Y-79065285D01*
X156734619Y-77541476D02*
X156734619Y-78112904D01*
X156734619Y-77827190D02*
X157734619Y-77827190D01*
X157591761Y-77922428D01*
X157496523Y-78017666D01*
X157448904Y-78112904D01*
X157639380Y-77160523D02*
X157687000Y-77112904D01*
X157734619Y-77017666D01*
X157734619Y-76779571D01*
X157687000Y-76684333D01*
X157639380Y-76636714D01*
X157544142Y-76589095D01*
X157448904Y-76589095D01*
X157306047Y-76636714D01*
X156734619Y-77208142D01*
X156734619Y-76589095D01*
X156414619Y-81922904D02*
X157414619Y-81922904D01*
X156414619Y-81351476D02*
X156986047Y-81780047D01*
X157414619Y-81351476D02*
X156843190Y-81922904D01*
X156353619Y-59888285D02*
X157353619Y-59888285D01*
X157353619Y-59650190D01*
X157306000Y-59507333D01*
X157210761Y-59412095D01*
X157115523Y-59364476D01*
X156925047Y-59316857D01*
X156782190Y-59316857D01*
X156591714Y-59364476D01*
X156496476Y-59412095D01*
X156401238Y-59507333D01*
X156353619Y-59650190D01*
X156353619Y-59888285D01*
X156353619Y-58364476D02*
X156353619Y-58935904D01*
X156353619Y-58650190D02*
X157353619Y-58650190D01*
X157210761Y-58745428D01*
X157115523Y-58840666D01*
X157067904Y-58935904D01*
X156353619Y-57412095D02*
X156353619Y-57983523D01*
X156353619Y-57697809D02*
X157353619Y-57697809D01*
X157210761Y-57793047D01*
X157115523Y-57888285D01*
X157067904Y-57983523D01*
X156033619Y-62745904D02*
X157033619Y-62745904D01*
X156033619Y-62174476D02*
X156605047Y-62603047D01*
X157033619Y-62174476D02*
X156462190Y-62745904D01*
X137684619Y-79319285D02*
X138684619Y-79319285D01*
X138684619Y-79081190D01*
X138637000Y-78938333D01*
X138541761Y-78843095D01*
X138446523Y-78795476D01*
X138256047Y-78747857D01*
X138113190Y-78747857D01*
X137922714Y-78795476D01*
X137827476Y-78843095D01*
X137732238Y-78938333D01*
X137684619Y-79081190D01*
X137684619Y-79319285D01*
X137684619Y-77795476D02*
X137684619Y-78366904D01*
X137684619Y-78081190D02*
X138684619Y-78081190D01*
X138541761Y-78176428D01*
X138446523Y-78271666D01*
X138398904Y-78366904D01*
X138684619Y-77176428D02*
X138684619Y-77081190D01*
X138637000Y-76985952D01*
X138589380Y-76938333D01*
X138494142Y-76890714D01*
X138303666Y-76843095D01*
X138065571Y-76843095D01*
X137875095Y-76890714D01*
X137779857Y-76938333D01*
X137732238Y-76985952D01*
X137684619Y-77081190D01*
X137684619Y-77176428D01*
X137732238Y-77271666D01*
X137779857Y-77319285D01*
X137875095Y-77366904D01*
X138065571Y-77414523D01*
X138303666Y-77414523D01*
X138494142Y-77366904D01*
X138589380Y-77319285D01*
X138637000Y-77271666D01*
X138684619Y-77176428D01*
X137364619Y-82176904D02*
X138364619Y-82176904D01*
X137364619Y-81605476D02*
X137936047Y-82034047D01*
X138364619Y-81605476D02*
X137793190Y-82176904D01*
X142383619Y-59412095D02*
X143383619Y-59412095D01*
X143383619Y-59174000D01*
X143336000Y-59031142D01*
X143240761Y-58935904D01*
X143145523Y-58888285D01*
X142955047Y-58840666D01*
X142812190Y-58840666D01*
X142621714Y-58888285D01*
X142526476Y-58935904D01*
X142431238Y-59031142D01*
X142383619Y-59174000D01*
X142383619Y-59412095D01*
X142383619Y-58364476D02*
X142383619Y-58174000D01*
X142431238Y-58078761D01*
X142478857Y-58031142D01*
X142621714Y-57935904D01*
X142812190Y-57888285D01*
X143193142Y-57888285D01*
X143288380Y-57935904D01*
X143336000Y-57983523D01*
X143383619Y-58078761D01*
X143383619Y-58269238D01*
X143336000Y-58364476D01*
X143288380Y-58412095D01*
X143193142Y-58459714D01*
X142955047Y-58459714D01*
X142859809Y-58412095D01*
X142812190Y-58364476D01*
X142764571Y-58269238D01*
X142764571Y-58078761D01*
X142812190Y-57983523D01*
X142859809Y-57935904D01*
X142955047Y-57888285D01*
X142063619Y-62745904D02*
X143063619Y-62745904D01*
X142063619Y-62174476D02*
X142635047Y-62603047D01*
X143063619Y-62174476D02*
X142492190Y-62745904D01*
X113808619Y-78970095D02*
X114808619Y-78970095D01*
X114808619Y-78732000D01*
X114761000Y-78589142D01*
X114665761Y-78493904D01*
X114570523Y-78446285D01*
X114380047Y-78398666D01*
X114237190Y-78398666D01*
X114046714Y-78446285D01*
X113951476Y-78493904D01*
X113856238Y-78589142D01*
X113808619Y-78732000D01*
X113808619Y-78970095D01*
X114380047Y-77827238D02*
X114427666Y-77922476D01*
X114475285Y-77970095D01*
X114570523Y-78017714D01*
X114618142Y-78017714D01*
X114713380Y-77970095D01*
X114761000Y-77922476D01*
X114808619Y-77827238D01*
X114808619Y-77636761D01*
X114761000Y-77541523D01*
X114713380Y-77493904D01*
X114618142Y-77446285D01*
X114570523Y-77446285D01*
X114475285Y-77493904D01*
X114427666Y-77541523D01*
X114380047Y-77636761D01*
X114380047Y-77827238D01*
X114332428Y-77922476D01*
X114284809Y-77970095D01*
X114189571Y-78017714D01*
X113999095Y-78017714D01*
X113903857Y-77970095D01*
X113856238Y-77922476D01*
X113808619Y-77827238D01*
X113808619Y-77636761D01*
X113856238Y-77541523D01*
X113903857Y-77493904D01*
X113999095Y-77446285D01*
X114189571Y-77446285D01*
X114284809Y-77493904D01*
X114332428Y-77541523D01*
X114380047Y-77636761D01*
X113488619Y-82303904D02*
X114488619Y-82303904D01*
X113488619Y-81732476D02*
X114060047Y-82161047D01*
X114488619Y-81732476D02*
X113917190Y-82303904D01*
X113935619Y-59666095D02*
X114935619Y-59666095D01*
X114935619Y-59428000D01*
X114888000Y-59285142D01*
X114792761Y-59189904D01*
X114697523Y-59142285D01*
X114507047Y-59094666D01*
X114364190Y-59094666D01*
X114173714Y-59142285D01*
X114078476Y-59189904D01*
X113983238Y-59285142D01*
X113935619Y-59428000D01*
X113935619Y-59666095D01*
X114935619Y-58761333D02*
X114935619Y-58094666D01*
X113935619Y-58523238D01*
X113615619Y-62999904D02*
X114615619Y-62999904D01*
X113615619Y-62428476D02*
X114187047Y-62857047D01*
X114615619Y-62428476D02*
X114044190Y-62999904D01*
X90059619Y-79224095D02*
X91059619Y-79224095D01*
X91059619Y-78986000D01*
X91012000Y-78843142D01*
X90916761Y-78747904D01*
X90821523Y-78700285D01*
X90631047Y-78652666D01*
X90488190Y-78652666D01*
X90297714Y-78700285D01*
X90202476Y-78747904D01*
X90107238Y-78843142D01*
X90059619Y-78986000D01*
X90059619Y-79224095D01*
X91059619Y-77795523D02*
X91059619Y-77986000D01*
X91012000Y-78081238D01*
X90964380Y-78128857D01*
X90821523Y-78224095D01*
X90631047Y-78271714D01*
X90250095Y-78271714D01*
X90154857Y-78224095D01*
X90107238Y-78176476D01*
X90059619Y-78081238D01*
X90059619Y-77890761D01*
X90107238Y-77795523D01*
X90154857Y-77747904D01*
X90250095Y-77700285D01*
X90488190Y-77700285D01*
X90583428Y-77747904D01*
X90631047Y-77795523D01*
X90678666Y-77890761D01*
X90678666Y-78081238D01*
X90631047Y-78176476D01*
X90583428Y-78224095D01*
X90488190Y-78271714D01*
X89739619Y-82557904D02*
X90739619Y-82557904D01*
X89739619Y-81986476D02*
X90311047Y-82415047D01*
X90739619Y-81986476D02*
X90168190Y-82557904D01*
X90059619Y-59666095D02*
X91059619Y-59666095D01*
X91059619Y-59428000D01*
X91012000Y-59285142D01*
X90916761Y-59189904D01*
X90821523Y-59142285D01*
X90631047Y-59094666D01*
X90488190Y-59094666D01*
X90297714Y-59142285D01*
X90202476Y-59189904D01*
X90107238Y-59285142D01*
X90059619Y-59428000D01*
X90059619Y-59666095D01*
X91059619Y-58189904D02*
X91059619Y-58666095D01*
X90583428Y-58713714D01*
X90631047Y-58666095D01*
X90678666Y-58570857D01*
X90678666Y-58332761D01*
X90631047Y-58237523D01*
X90583428Y-58189904D01*
X90488190Y-58142285D01*
X90250095Y-58142285D01*
X90154857Y-58189904D01*
X90107238Y-58237523D01*
X90059619Y-58332761D01*
X90059619Y-58570857D01*
X90107238Y-58666095D01*
X90154857Y-58713714D01*
X89739619Y-62999904D02*
X90739619Y-62999904D01*
X89739619Y-62428476D02*
X90311047Y-62857047D01*
X90739619Y-62428476D02*
X90168190Y-62999904D01*
X71009619Y-79224095D02*
X72009619Y-79224095D01*
X72009619Y-78986000D01*
X71962000Y-78843142D01*
X71866761Y-78747904D01*
X71771523Y-78700285D01*
X71581047Y-78652666D01*
X71438190Y-78652666D01*
X71247714Y-78700285D01*
X71152476Y-78747904D01*
X71057238Y-78843142D01*
X71009619Y-78986000D01*
X71009619Y-79224095D01*
X71676285Y-77795523D02*
X71009619Y-77795523D01*
X72057238Y-78033619D02*
X71342952Y-78271714D01*
X71342952Y-77652666D01*
X70689619Y-82557904D02*
X71689619Y-82557904D01*
X70689619Y-81986476D02*
X71261047Y-82415047D01*
X71689619Y-81986476D02*
X71118190Y-82557904D01*
X71009619Y-59666095D02*
X72009619Y-59666095D01*
X72009619Y-59428000D01*
X71962000Y-59285142D01*
X71866761Y-59189904D01*
X71771523Y-59142285D01*
X71581047Y-59094666D01*
X71438190Y-59094666D01*
X71247714Y-59142285D01*
X71152476Y-59189904D01*
X71057238Y-59285142D01*
X71009619Y-59428000D01*
X71009619Y-59666095D01*
X72009619Y-58761333D02*
X72009619Y-58142285D01*
X71628666Y-58475619D01*
X71628666Y-58332761D01*
X71581047Y-58237523D01*
X71533428Y-58189904D01*
X71438190Y-58142285D01*
X71200095Y-58142285D01*
X71104857Y-58189904D01*
X71057238Y-58237523D01*
X71009619Y-58332761D01*
X71009619Y-58618476D01*
X71057238Y-58713714D01*
X71104857Y-58761333D01*
X70689619Y-62999904D02*
X71689619Y-62999904D01*
X70689619Y-62428476D02*
X71261047Y-62857047D01*
X71689619Y-62428476D02*
X71118190Y-62999904D01*
X48810019Y-89485695D02*
X49810019Y-89485695D01*
X49810019Y-89247600D01*
X49762400Y-89104742D01*
X49667161Y-89009504D01*
X49571923Y-88961885D01*
X49381447Y-88914266D01*
X49238590Y-88914266D01*
X49048114Y-88961885D01*
X48952876Y-89009504D01*
X48857638Y-89104742D01*
X48810019Y-89247600D01*
X48810019Y-89485695D01*
X49714780Y-88533314D02*
X49762400Y-88485695D01*
X49810019Y-88390457D01*
X49810019Y-88152361D01*
X49762400Y-88057123D01*
X49714780Y-88009504D01*
X49619542Y-87961885D01*
X49524304Y-87961885D01*
X49381447Y-88009504D01*
X48810019Y-88580933D01*
X48810019Y-87961885D01*
X48490019Y-92819504D02*
X49490019Y-92819504D01*
X48490019Y-92248076D02*
X49061447Y-92676647D01*
X49490019Y-92248076D02*
X48918590Y-92819504D01*
X49714780Y-77747904D02*
X48714780Y-77747904D01*
X48714780Y-77986000D01*
X48762400Y-78128857D01*
X48857638Y-78224095D01*
X48952876Y-78271714D01*
X49143352Y-78319333D01*
X49286209Y-78319333D01*
X49476685Y-78271714D01*
X49571923Y-78224095D01*
X49667161Y-78128857D01*
X49714780Y-77986000D01*
X49714780Y-77747904D01*
X49714780Y-79271714D02*
X49714780Y-78700285D01*
X49714780Y-78986000D02*
X48714780Y-78986000D01*
X48857638Y-78890761D01*
X48952876Y-78795523D01*
X49000495Y-78700285D01*
X49394780Y-82034095D02*
X48394780Y-82034095D01*
X49394780Y-82605523D02*
X48823352Y-82176952D01*
X48394780Y-82605523D02*
X48966209Y-82034095D01*
X202699857Y-71656380D02*
X203033190Y-71180190D01*
X203271285Y-71656380D02*
X203271285Y-70656380D01*
X202890333Y-70656380D01*
X202795095Y-70704000D01*
X202747476Y-70751619D01*
X202699857Y-70846857D01*
X202699857Y-70989714D01*
X202747476Y-71084952D01*
X202795095Y-71132571D01*
X202890333Y-71180190D01*
X203271285Y-71180190D01*
X201747476Y-71656380D02*
X202318904Y-71656380D01*
X202033190Y-71656380D02*
X202033190Y-70656380D01*
X202128428Y-70799238D01*
X202223666Y-70894476D01*
X202318904Y-70942095D01*
X200890333Y-70656380D02*
X201080809Y-70656380D01*
X201176047Y-70704000D01*
X201223666Y-70751619D01*
X201318904Y-70894476D01*
X201366523Y-71084952D01*
X201366523Y-71465904D01*
X201318904Y-71561142D01*
X201271285Y-71608761D01*
X201176047Y-71656380D01*
X200985571Y-71656380D01*
X200890333Y-71608761D01*
X200842714Y-71561142D01*
X200795095Y-71465904D01*
X200795095Y-71227809D01*
X200842714Y-71132571D01*
X200890333Y-71084952D01*
X200985571Y-71037333D01*
X201176047Y-71037333D01*
X201271285Y-71084952D01*
X201318904Y-71132571D01*
X201366523Y-71227809D01*
X203639857Y-53622380D02*
X203973190Y-53146190D01*
X204211285Y-53622380D02*
X204211285Y-52622380D01*
X203830333Y-52622380D01*
X203735095Y-52670000D01*
X203687476Y-52717619D01*
X203639857Y-52812857D01*
X203639857Y-52955714D01*
X203687476Y-53050952D01*
X203735095Y-53098571D01*
X203830333Y-53146190D01*
X204211285Y-53146190D01*
X202687476Y-53622380D02*
X203258904Y-53622380D01*
X202973190Y-53622380D02*
X202973190Y-52622380D01*
X203068428Y-52765238D01*
X203163666Y-52860476D01*
X203258904Y-52908095D01*
X201782714Y-52622380D02*
X202258904Y-52622380D01*
X202306523Y-53098571D01*
X202258904Y-53050952D01*
X202163666Y-53003333D01*
X201925571Y-53003333D01*
X201830333Y-53050952D01*
X201782714Y-53098571D01*
X201735095Y-53193809D01*
X201735095Y-53431904D01*
X201782714Y-53527142D01*
X201830333Y-53574761D01*
X201925571Y-53622380D01*
X202163666Y-53622380D01*
X202258904Y-53574761D01*
X202306523Y-53527142D01*
X183573857Y-71707180D02*
X183907190Y-71230990D01*
X184145285Y-71707180D02*
X184145285Y-70707180D01*
X183764333Y-70707180D01*
X183669095Y-70754800D01*
X183621476Y-70802419D01*
X183573857Y-70897657D01*
X183573857Y-71040514D01*
X183621476Y-71135752D01*
X183669095Y-71183371D01*
X183764333Y-71230990D01*
X184145285Y-71230990D01*
X182621476Y-71707180D02*
X183192904Y-71707180D01*
X182907190Y-71707180D02*
X182907190Y-70707180D01*
X183002428Y-70850038D01*
X183097666Y-70945276D01*
X183192904Y-70992895D01*
X181764333Y-71040514D02*
X181764333Y-71707180D01*
X182002428Y-70659561D02*
X182240523Y-71373847D01*
X181621476Y-71373847D01*
X184386857Y-53622380D02*
X184720190Y-53146190D01*
X184958285Y-53622380D02*
X184958285Y-52622380D01*
X184577333Y-52622380D01*
X184482095Y-52670000D01*
X184434476Y-52717619D01*
X184386857Y-52812857D01*
X184386857Y-52955714D01*
X184434476Y-53050952D01*
X184482095Y-53098571D01*
X184577333Y-53146190D01*
X184958285Y-53146190D01*
X183434476Y-53622380D02*
X184005904Y-53622380D01*
X183720190Y-53622380D02*
X183720190Y-52622380D01*
X183815428Y-52765238D01*
X183910666Y-52860476D01*
X184005904Y-52908095D01*
X183101142Y-52622380D02*
X182482095Y-52622380D01*
X182815428Y-53003333D01*
X182672571Y-53003333D01*
X182577333Y-53050952D01*
X182529714Y-53098571D01*
X182482095Y-53193809D01*
X182482095Y-53431904D01*
X182529714Y-53527142D01*
X182577333Y-53574761D01*
X182672571Y-53622380D01*
X182958285Y-53622380D01*
X183053523Y-53574761D01*
X183101142Y-53527142D01*
X164701857Y-71859580D02*
X165035190Y-71383390D01*
X165273285Y-71859580D02*
X165273285Y-70859580D01*
X164892333Y-70859580D01*
X164797095Y-70907200D01*
X164749476Y-70954819D01*
X164701857Y-71050057D01*
X164701857Y-71192914D01*
X164749476Y-71288152D01*
X164797095Y-71335771D01*
X164892333Y-71383390D01*
X165273285Y-71383390D01*
X163749476Y-71859580D02*
X164320904Y-71859580D01*
X164035190Y-71859580D02*
X164035190Y-70859580D01*
X164130428Y-71002438D01*
X164225666Y-71097676D01*
X164320904Y-71145295D01*
X163368523Y-70954819D02*
X163320904Y-70907200D01*
X163225666Y-70859580D01*
X162987571Y-70859580D01*
X162892333Y-70907200D01*
X162844714Y-70954819D01*
X162797095Y-71050057D01*
X162797095Y-71145295D01*
X162844714Y-71288152D01*
X163416142Y-71859580D01*
X162797095Y-71859580D01*
X165386857Y-53571580D02*
X165720190Y-53095390D01*
X165958285Y-53571580D02*
X165958285Y-52571580D01*
X165577333Y-52571580D01*
X165482095Y-52619200D01*
X165434476Y-52666819D01*
X165386857Y-52762057D01*
X165386857Y-52904914D01*
X165434476Y-53000152D01*
X165482095Y-53047771D01*
X165577333Y-53095390D01*
X165958285Y-53095390D01*
X164434476Y-53571580D02*
X165005904Y-53571580D01*
X164720190Y-53571580D02*
X164720190Y-52571580D01*
X164815428Y-52714438D01*
X164910666Y-52809676D01*
X165005904Y-52857295D01*
X163482095Y-53571580D02*
X164053523Y-53571580D01*
X163767809Y-53571580D02*
X163767809Y-52571580D01*
X163863047Y-52714438D01*
X163958285Y-52809676D01*
X164053523Y-52857295D01*
X145905857Y-71707180D02*
X146239190Y-71230990D01*
X146477285Y-71707180D02*
X146477285Y-70707180D01*
X146096333Y-70707180D01*
X146001095Y-70754800D01*
X145953476Y-70802419D01*
X145905857Y-70897657D01*
X145905857Y-71040514D01*
X145953476Y-71135752D01*
X146001095Y-71183371D01*
X146096333Y-71230990D01*
X146477285Y-71230990D01*
X144953476Y-71707180D02*
X145524904Y-71707180D01*
X145239190Y-71707180D02*
X145239190Y-70707180D01*
X145334428Y-70850038D01*
X145429666Y-70945276D01*
X145524904Y-70992895D01*
X144334428Y-70707180D02*
X144239190Y-70707180D01*
X144143952Y-70754800D01*
X144096333Y-70802419D01*
X144048714Y-70897657D01*
X144001095Y-71088133D01*
X144001095Y-71326228D01*
X144048714Y-71516704D01*
X144096333Y-71611942D01*
X144143952Y-71659561D01*
X144239190Y-71707180D01*
X144334428Y-71707180D01*
X144429666Y-71659561D01*
X144477285Y-71611942D01*
X144524904Y-71516704D01*
X144572523Y-71326228D01*
X144572523Y-71088133D01*
X144524904Y-70897657D01*
X144477285Y-70802419D01*
X144429666Y-70754800D01*
X144334428Y-70707180D01*
X145962666Y-53622380D02*
X146296000Y-53146190D01*
X146534095Y-53622380D02*
X146534095Y-52622380D01*
X146153142Y-52622380D01*
X146057904Y-52670000D01*
X146010285Y-52717619D01*
X145962666Y-52812857D01*
X145962666Y-52955714D01*
X146010285Y-53050952D01*
X146057904Y-53098571D01*
X146153142Y-53146190D01*
X146534095Y-53146190D01*
X145486476Y-53622380D02*
X145296000Y-53622380D01*
X145200761Y-53574761D01*
X145153142Y-53527142D01*
X145057904Y-53384285D01*
X145010285Y-53193809D01*
X145010285Y-52812857D01*
X145057904Y-52717619D01*
X145105523Y-52670000D01*
X145200761Y-52622380D01*
X145391238Y-52622380D01*
X145486476Y-52670000D01*
X145534095Y-52717619D01*
X145581714Y-52812857D01*
X145581714Y-53050952D01*
X145534095Y-53146190D01*
X145486476Y-53193809D01*
X145391238Y-53241428D01*
X145200761Y-53241428D01*
X145105523Y-53193809D01*
X145057904Y-53146190D01*
X145010285Y-53050952D01*
X121502666Y-71783380D02*
X121836000Y-71307190D01*
X122074095Y-71783380D02*
X122074095Y-70783380D01*
X121693142Y-70783380D01*
X121597904Y-70831000D01*
X121550285Y-70878619D01*
X121502666Y-70973857D01*
X121502666Y-71116714D01*
X121550285Y-71211952D01*
X121597904Y-71259571D01*
X121693142Y-71307190D01*
X122074095Y-71307190D01*
X120931238Y-71211952D02*
X121026476Y-71164333D01*
X121074095Y-71116714D01*
X121121714Y-71021476D01*
X121121714Y-70973857D01*
X121074095Y-70878619D01*
X121026476Y-70831000D01*
X120931238Y-70783380D01*
X120740761Y-70783380D01*
X120645523Y-70831000D01*
X120597904Y-70878619D01*
X120550285Y-70973857D01*
X120550285Y-71021476D01*
X120597904Y-71116714D01*
X120645523Y-71164333D01*
X120740761Y-71211952D01*
X120931238Y-71211952D01*
X121026476Y-71259571D01*
X121074095Y-71307190D01*
X121121714Y-71402428D01*
X121121714Y-71592904D01*
X121074095Y-71688142D01*
X121026476Y-71735761D01*
X120931238Y-71783380D01*
X120740761Y-71783380D01*
X120645523Y-71735761D01*
X120597904Y-71688142D01*
X120550285Y-71592904D01*
X120550285Y-71402428D01*
X120597904Y-71307190D01*
X120645523Y-71259571D01*
X120740761Y-71211952D01*
X121426666Y-53571580D02*
X121760000Y-53095390D01*
X121998095Y-53571580D02*
X121998095Y-52571580D01*
X121617142Y-52571580D01*
X121521904Y-52619200D01*
X121474285Y-52666819D01*
X121426666Y-52762057D01*
X121426666Y-52904914D01*
X121474285Y-53000152D01*
X121521904Y-53047771D01*
X121617142Y-53095390D01*
X121998095Y-53095390D01*
X121093333Y-52571580D02*
X120426666Y-52571580D01*
X120855238Y-53571580D01*
X97093066Y-71884980D02*
X97426400Y-71408790D01*
X97664495Y-71884980D02*
X97664495Y-70884980D01*
X97283542Y-70884980D01*
X97188304Y-70932600D01*
X97140685Y-70980219D01*
X97093066Y-71075457D01*
X97093066Y-71218314D01*
X97140685Y-71313552D01*
X97188304Y-71361171D01*
X97283542Y-71408790D01*
X97664495Y-71408790D01*
X96235923Y-70884980D02*
X96426400Y-70884980D01*
X96521638Y-70932600D01*
X96569257Y-70980219D01*
X96664495Y-71123076D01*
X96712114Y-71313552D01*
X96712114Y-71694504D01*
X96664495Y-71789742D01*
X96616876Y-71837361D01*
X96521638Y-71884980D01*
X96331161Y-71884980D01*
X96235923Y-71837361D01*
X96188304Y-71789742D01*
X96140685Y-71694504D01*
X96140685Y-71456409D01*
X96188304Y-71361171D01*
X96235923Y-71313552D01*
X96331161Y-71265933D01*
X96521638Y-71265933D01*
X96616876Y-71313552D01*
X96664495Y-71361171D01*
X96712114Y-71456409D01*
X98210666Y-53622380D02*
X98544000Y-53146190D01*
X98782095Y-53622380D02*
X98782095Y-52622380D01*
X98401142Y-52622380D01*
X98305904Y-52670000D01*
X98258285Y-52717619D01*
X98210666Y-52812857D01*
X98210666Y-52955714D01*
X98258285Y-53050952D01*
X98305904Y-53098571D01*
X98401142Y-53146190D01*
X98782095Y-53146190D01*
X97305904Y-52622380D02*
X97782095Y-52622380D01*
X97829714Y-53098571D01*
X97782095Y-53050952D01*
X97686857Y-53003333D01*
X97448761Y-53003333D01*
X97353523Y-53050952D01*
X97305904Y-53098571D01*
X97258285Y-53193809D01*
X97258285Y-53431904D01*
X97305904Y-53527142D01*
X97353523Y-53574761D01*
X97448761Y-53622380D01*
X97686857Y-53622380D01*
X97782095Y-53574761D01*
X97829714Y-53527142D01*
X78855866Y-71884980D02*
X79189200Y-71408790D01*
X79427295Y-71884980D02*
X79427295Y-70884980D01*
X79046342Y-70884980D01*
X78951104Y-70932600D01*
X78903485Y-70980219D01*
X78855866Y-71075457D01*
X78855866Y-71218314D01*
X78903485Y-71313552D01*
X78951104Y-71361171D01*
X79046342Y-71408790D01*
X79427295Y-71408790D01*
X77998723Y-71218314D02*
X77998723Y-71884980D01*
X78236819Y-70837361D02*
X78474914Y-71551647D01*
X77855866Y-71551647D01*
X79160666Y-53520780D02*
X79494000Y-53044590D01*
X79732095Y-53520780D02*
X79732095Y-52520780D01*
X79351142Y-52520780D01*
X79255904Y-52568400D01*
X79208285Y-52616019D01*
X79160666Y-52711257D01*
X79160666Y-52854114D01*
X79208285Y-52949352D01*
X79255904Y-52996971D01*
X79351142Y-53044590D01*
X79732095Y-53044590D01*
X78827333Y-52520780D02*
X78208285Y-52520780D01*
X78541619Y-52901733D01*
X78398761Y-52901733D01*
X78303523Y-52949352D01*
X78255904Y-52996971D01*
X78208285Y-53092209D01*
X78208285Y-53330304D01*
X78255904Y-53425542D01*
X78303523Y-53473161D01*
X78398761Y-53520780D01*
X78684476Y-53520780D01*
X78779714Y-53473161D01*
X78827333Y-53425542D01*
X59475666Y-71656380D02*
X59809000Y-71180190D01*
X60047095Y-71656380D02*
X60047095Y-70656380D01*
X59666142Y-70656380D01*
X59570904Y-70704000D01*
X59523285Y-70751619D01*
X59475666Y-70846857D01*
X59475666Y-70989714D01*
X59523285Y-71084952D01*
X59570904Y-71132571D01*
X59666142Y-71180190D01*
X60047095Y-71180190D01*
X59094714Y-70751619D02*
X59047095Y-70704000D01*
X58951857Y-70656380D01*
X58713761Y-70656380D01*
X58618523Y-70704000D01*
X58570904Y-70751619D01*
X58523285Y-70846857D01*
X58523285Y-70942095D01*
X58570904Y-71084952D01*
X59142333Y-71656380D01*
X58523285Y-71656380D01*
X59602666Y-53622380D02*
X59936000Y-53146190D01*
X60174095Y-53622380D02*
X60174095Y-52622380D01*
X59793142Y-52622380D01*
X59697904Y-52670000D01*
X59650285Y-52717619D01*
X59602666Y-52812857D01*
X59602666Y-52955714D01*
X59650285Y-53050952D01*
X59697904Y-53098571D01*
X59793142Y-53146190D01*
X60174095Y-53146190D01*
X58650285Y-53622380D02*
X59221714Y-53622380D01*
X58936000Y-53622380D02*
X58936000Y-52622380D01*
X59031238Y-52765238D01*
X59126476Y-52860476D01*
X59221714Y-52908095D01*
%LPC*%
D13*
X219964000Y-54229000D03*
X222504000Y-54229000D03*
D14*
X218694000Y-64389000D03*
X225044000Y-61849000D03*
D15*
X216154000Y-59309000D03*
X226314000Y-59309000D03*
D16*
X221234000Y-59309000D03*
D13*
X96139400Y-149453000D03*
X98679400Y-149453000D03*
D14*
X94869400Y-159613000D03*
X101219400Y-157073000D03*
D15*
X92329400Y-154533000D03*
X102489400Y-154533000D03*
D16*
X97409400Y-154533000D03*
D13*
X77064000Y-149479000D03*
X79604000Y-149479000D03*
D14*
X75794000Y-159639000D03*
X82144000Y-157099000D03*
D15*
X73254000Y-154559000D03*
X83414000Y-154559000D03*
D16*
X78334000Y-154559000D03*
D13*
X200914000Y-54229000D03*
X203454000Y-54229000D03*
D14*
X199644000Y-64389000D03*
X205994000Y-61849000D03*
D15*
X197104000Y-59309000D03*
X207264000Y-59309000D03*
D16*
X202184000Y-59309000D03*
D17*
X230886000Y-126848000D03*
D18*
X215646000Y-126848000D03*
D17*
X229616000Y-107848000D03*
D18*
X214376000Y-107848000D03*
D17*
X230734000Y-88747600D03*
D18*
X215494000Y-88747600D03*
D17*
X228752000Y-68986400D03*
D18*
X213512000Y-68986400D03*
D17*
X229667000Y-50749200D03*
D18*
X214427000Y-50749200D03*
D13*
X210439000Y-149478000D03*
X212979000Y-149478000D03*
D14*
X209169000Y-159638000D03*
X215519000Y-157098000D03*
D15*
X206629000Y-154558000D03*
X216789000Y-154558000D03*
D16*
X211709000Y-154558000D03*
D13*
X177114000Y-149453000D03*
X179654000Y-149453000D03*
D14*
X175844000Y-159613000D03*
X182194000Y-157073000D03*
D15*
X173304000Y-154533000D03*
X183464000Y-154533000D03*
D16*
X178384000Y-154533000D03*
D13*
X148539000Y-149504000D03*
X151079000Y-149504000D03*
D14*
X147269000Y-159664000D03*
X153619000Y-157124000D03*
D15*
X144729000Y-154584000D03*
X154889000Y-154584000D03*
D16*
X149809000Y-154584000D03*
D13*
X58013600Y-149403000D03*
X60553600Y-149403000D03*
D14*
X56743600Y-159563000D03*
X63093600Y-157023000D03*
D15*
X54203600Y-154483000D03*
X64363600Y-154483000D03*
D16*
X59283600Y-154483000D03*
D13*
X219964000Y-130353000D03*
X222504000Y-130353000D03*
D14*
X218694000Y-140513000D03*
X225044000Y-137973000D03*
D15*
X216154000Y-135433000D03*
X226314000Y-135433000D03*
D16*
X221234000Y-135433000D03*
D13*
X181940000Y-130353000D03*
X184480000Y-130353000D03*
D14*
X180670000Y-140513000D03*
X187020000Y-137973000D03*
D15*
X178130000Y-135433000D03*
X188290000Y-135433000D03*
D16*
X183210000Y-135433000D03*
D13*
X119938000Y-130378000D03*
X122478000Y-130378000D03*
D14*
X118668000Y-140538000D03*
X125018000Y-137998000D03*
D15*
X116128000Y-135458000D03*
X126288000Y-135458000D03*
D16*
X121208000Y-135458000D03*
D13*
X219964000Y-111354000D03*
X222504000Y-111354000D03*
D14*
X218694000Y-121514000D03*
X225044000Y-118974000D03*
D15*
X216154000Y-116434000D03*
X226314000Y-116434000D03*
D16*
X221234000Y-116434000D03*
D13*
X200914000Y-111404000D03*
X203454000Y-111404000D03*
D14*
X199644000Y-121564000D03*
X205994000Y-119024000D03*
D15*
X197104000Y-116484000D03*
X207264000Y-116484000D03*
D16*
X202184000Y-116484000D03*
D13*
X181889000Y-111303000D03*
X184429000Y-111303000D03*
D14*
X180619000Y-121463000D03*
X186969000Y-118923000D03*
D15*
X178079000Y-116383000D03*
X188239000Y-116383000D03*
D16*
X183159000Y-116383000D03*
D13*
X119964000Y-111353000D03*
X122504000Y-111353000D03*
D14*
X118694000Y-121513000D03*
X125044000Y-118973000D03*
D15*
X116154000Y-116433000D03*
X126314000Y-116433000D03*
D16*
X121234000Y-116433000D03*
D13*
X219964000Y-92303600D03*
X222504000Y-92303600D03*
D14*
X218694000Y-102463600D03*
X225044000Y-99923600D03*
D15*
X216154000Y-97383600D03*
X226314000Y-97383600D03*
D16*
X221234000Y-97383600D03*
D13*
X181813000Y-92252800D03*
X184353000Y-92252800D03*
D14*
X180543000Y-102412800D03*
X186893000Y-99872800D03*
D15*
X178003000Y-97332800D03*
X188163000Y-97332800D03*
D16*
X183083000Y-97332800D03*
D13*
X119939000Y-92303600D03*
X122479000Y-92303600D03*
D14*
X118669000Y-102463600D03*
X125019000Y-99923600D03*
D15*
X116129000Y-97383600D03*
X126289000Y-97383600D03*
D16*
X121209000Y-97383600D03*
D13*
X219913000Y-73253600D03*
X222453000Y-73253600D03*
D14*
X218643000Y-83413600D03*
X224993000Y-80873600D03*
D15*
X216103000Y-78333600D03*
X226263000Y-78333600D03*
D16*
X221183000Y-78333600D03*
D13*
X200914000Y-73202800D03*
X203454000Y-73202800D03*
D14*
X199644000Y-83362800D03*
X205994000Y-80822800D03*
D15*
X197104000Y-78282800D03*
X207264000Y-78282800D03*
D16*
X202184000Y-78282800D03*
D13*
X181864000Y-73202800D03*
X184404000Y-73202800D03*
D14*
X180594000Y-83362800D03*
X186944000Y-80822800D03*
D15*
X178054000Y-78282800D03*
X188214000Y-78282800D03*
D16*
X183134000Y-78282800D03*
D13*
X119913000Y-73279000D03*
X122453000Y-73279000D03*
D14*
X118643000Y-83439000D03*
X124993000Y-80899000D03*
D15*
X116103000Y-78359000D03*
X126263000Y-78359000D03*
D16*
X121183000Y-78359000D03*
D13*
X120015000Y-54229000D03*
X122555000Y-54229000D03*
D14*
X118745000Y-64389000D03*
X125095000Y-61849000D03*
D15*
X116205000Y-59309000D03*
X126365000Y-59309000D03*
D16*
X121285000Y-59309000D03*
D17*
X211988000Y-131674000D03*
D19*
X211988000Y-139294000D03*
D17*
X212090000Y-112471000D03*
D19*
X212090000Y-120091000D03*
D17*
X212039000Y-93675000D03*
D19*
X212039000Y-101295000D03*
D17*
X212090000Y-73914000D03*
D19*
X212090000Y-81534000D03*
D17*
X212090000Y-54864000D03*
D19*
X212090000Y-62484000D03*
D20*
X87889100Y-87873800D03*
X87889100Y-125994000D03*
X193065000Y-125959000D03*
X193065000Y-87878900D03*
D21*
X47188500Y-55628000D03*
X47188500Y-57628000D03*
X47188500Y-59628000D03*
D22*
X47188500Y-61628000D03*
D11*
G36*
X46792005Y-66208511D02*
G01*
X46818425Y-66212430D01*
X46844335Y-66218920D01*
X46869483Y-66227918D01*
X46893628Y-66239338D01*
X46916538Y-66253069D01*
X46937992Y-66268980D01*
X46957782Y-66286918D01*
X46975720Y-66306708D01*
X46991631Y-66328162D01*
X47005362Y-66351072D01*
X47016782Y-66375217D01*
X47025780Y-66400365D01*
X47032270Y-66426275D01*
X47036189Y-66452695D01*
X47037500Y-66479373D01*
X47037500Y-67187027D01*
X47036189Y-67213705D01*
X47032270Y-67240125D01*
X47025780Y-67266035D01*
X47016782Y-67291183D01*
X47005362Y-67315328D01*
X46991631Y-67338238D01*
X46975720Y-67359692D01*
X46957782Y-67379482D01*
X46937992Y-67397420D01*
X46916538Y-67413331D01*
X46893628Y-67427062D01*
X46869483Y-67438482D01*
X46844335Y-67447480D01*
X46818425Y-67453970D01*
X46792005Y-67457889D01*
X46765327Y-67459200D01*
X45807673Y-67459200D01*
X45780995Y-67457889D01*
X45754575Y-67453970D01*
X45728665Y-67447480D01*
X45703517Y-67438482D01*
X45679372Y-67427062D01*
X45656462Y-67413331D01*
X45635008Y-67397420D01*
X45615218Y-67379482D01*
X45597280Y-67359692D01*
X45581369Y-67338238D01*
X45567638Y-67315328D01*
X45556218Y-67291183D01*
X45547220Y-67266035D01*
X45540730Y-67240125D01*
X45536811Y-67213705D01*
X45535500Y-67187027D01*
X45535500Y-66479373D01*
X45536811Y-66452695D01*
X45540730Y-66426275D01*
X45547220Y-66400365D01*
X45556218Y-66375217D01*
X45567638Y-66351072D01*
X45581369Y-66328162D01*
X45597280Y-66306708D01*
X45615218Y-66286918D01*
X45635008Y-66268980D01*
X45656462Y-66253069D01*
X45679372Y-66239338D01*
X45703517Y-66227918D01*
X45728665Y-66218920D01*
X45754575Y-66212430D01*
X45780995Y-66208511D01*
X45807673Y-66207200D01*
X46765327Y-66207200D01*
X46792005Y-66208511D01*
G37*
G36*
X46792005Y-64158511D02*
G01*
X46818425Y-64162430D01*
X46844335Y-64168920D01*
X46869483Y-64177918D01*
X46893628Y-64189338D01*
X46916538Y-64203069D01*
X46937992Y-64218980D01*
X46957782Y-64236918D01*
X46975720Y-64256708D01*
X46991631Y-64278162D01*
X47005362Y-64301072D01*
X47016782Y-64325217D01*
X47025780Y-64350365D01*
X47032270Y-64376275D01*
X47036189Y-64402695D01*
X47037500Y-64429373D01*
X47037500Y-65137027D01*
X47036189Y-65163705D01*
X47032270Y-65190125D01*
X47025780Y-65216035D01*
X47016782Y-65241183D01*
X47005362Y-65265328D01*
X46991631Y-65288238D01*
X46975720Y-65309692D01*
X46957782Y-65329482D01*
X46937992Y-65347420D01*
X46916538Y-65363331D01*
X46893628Y-65377062D01*
X46869483Y-65388482D01*
X46844335Y-65397480D01*
X46818425Y-65403970D01*
X46792005Y-65407889D01*
X46765327Y-65409200D01*
X45807673Y-65409200D01*
X45780995Y-65407889D01*
X45754575Y-65403970D01*
X45728665Y-65397480D01*
X45703517Y-65388482D01*
X45679372Y-65377062D01*
X45656462Y-65363331D01*
X45635008Y-65347420D01*
X45615218Y-65329482D01*
X45597280Y-65309692D01*
X45581369Y-65288238D01*
X45567638Y-65265328D01*
X45556218Y-65241183D01*
X45547220Y-65216035D01*
X45540730Y-65190125D01*
X45536811Y-65163705D01*
X45535500Y-65137027D01*
X45535500Y-64429373D01*
X45536811Y-64402695D01*
X45540730Y-64376275D01*
X45547220Y-64350365D01*
X45556218Y-64325217D01*
X45567638Y-64301072D01*
X45581369Y-64278162D01*
X45597280Y-64256708D01*
X45615218Y-64236918D01*
X45635008Y-64218980D01*
X45656462Y-64203069D01*
X45679372Y-64189338D01*
X45703517Y-64177918D01*
X45728665Y-64168920D01*
X45754575Y-64162430D01*
X45780995Y-64158511D01*
X45807673Y-64157200D01*
X46765327Y-64157200D01*
X46792005Y-64158511D01*
G37*
G36*
X49742005Y-64158511D02*
G01*
X49768425Y-64162430D01*
X49794335Y-64168920D01*
X49819483Y-64177918D01*
X49843628Y-64189338D01*
X49866538Y-64203069D01*
X49887992Y-64218980D01*
X49907782Y-64236918D01*
X49925720Y-64256708D01*
X49941631Y-64278162D01*
X49955362Y-64301072D01*
X49966782Y-64325217D01*
X49975780Y-64350365D01*
X49982270Y-64376275D01*
X49986189Y-64402695D01*
X49987500Y-64429373D01*
X49987500Y-65137027D01*
X49986189Y-65163705D01*
X49982270Y-65190125D01*
X49975780Y-65216035D01*
X49966782Y-65241183D01*
X49955362Y-65265328D01*
X49941631Y-65288238D01*
X49925720Y-65309692D01*
X49907782Y-65329482D01*
X49887992Y-65347420D01*
X49866538Y-65363331D01*
X49843628Y-65377062D01*
X49819483Y-65388482D01*
X49794335Y-65397480D01*
X49768425Y-65403970D01*
X49742005Y-65407889D01*
X49715327Y-65409200D01*
X48757673Y-65409200D01*
X48730995Y-65407889D01*
X48704575Y-65403970D01*
X48678665Y-65397480D01*
X48653517Y-65388482D01*
X48629372Y-65377062D01*
X48606462Y-65363331D01*
X48585008Y-65347420D01*
X48565218Y-65329482D01*
X48547280Y-65309692D01*
X48531369Y-65288238D01*
X48517638Y-65265328D01*
X48506218Y-65241183D01*
X48497220Y-65216035D01*
X48490730Y-65190125D01*
X48486811Y-65163705D01*
X48485500Y-65137027D01*
X48485500Y-64429373D01*
X48486811Y-64402695D01*
X48490730Y-64376275D01*
X48497220Y-64350365D01*
X48506218Y-64325217D01*
X48517638Y-64301072D01*
X48531369Y-64278162D01*
X48547280Y-64256708D01*
X48565218Y-64236918D01*
X48585008Y-64218980D01*
X48606462Y-64203069D01*
X48629372Y-64189338D01*
X48653517Y-64177918D01*
X48678665Y-64168920D01*
X48704575Y-64162430D01*
X48730995Y-64158511D01*
X48757673Y-64157200D01*
X49715327Y-64157200D01*
X49742005Y-64158511D01*
G37*
G36*
X49742005Y-66208511D02*
G01*
X49768425Y-66212430D01*
X49794335Y-66218920D01*
X49819483Y-66227918D01*
X49843628Y-66239338D01*
X49866538Y-66253069D01*
X49887992Y-66268980D01*
X49907782Y-66286918D01*
X49925720Y-66306708D01*
X49941631Y-66328162D01*
X49955362Y-66351072D01*
X49966782Y-66375217D01*
X49975780Y-66400365D01*
X49982270Y-66426275D01*
X49986189Y-66452695D01*
X49987500Y-66479373D01*
X49987500Y-67187027D01*
X49986189Y-67213705D01*
X49982270Y-67240125D01*
X49975780Y-67266035D01*
X49966782Y-67291183D01*
X49955362Y-67315328D01*
X49941631Y-67338238D01*
X49925720Y-67359692D01*
X49907782Y-67379482D01*
X49887992Y-67397420D01*
X49866538Y-67413331D01*
X49843628Y-67427062D01*
X49819483Y-67438482D01*
X49794335Y-67447480D01*
X49768425Y-67453970D01*
X49742005Y-67457889D01*
X49715327Y-67459200D01*
X48757673Y-67459200D01*
X48730995Y-67457889D01*
X48704575Y-67453970D01*
X48678665Y-67447480D01*
X48653517Y-67438482D01*
X48629372Y-67427062D01*
X48606462Y-67413331D01*
X48585008Y-67397420D01*
X48565218Y-67379482D01*
X48547280Y-67359692D01*
X48531369Y-67338238D01*
X48517638Y-67315328D01*
X48506218Y-67291183D01*
X48497220Y-67266035D01*
X48490730Y-67240125D01*
X48486811Y-67213705D01*
X48485500Y-67187027D01*
X48485500Y-66479373D01*
X48486811Y-66452695D01*
X48490730Y-66426275D01*
X48497220Y-66400365D01*
X48506218Y-66375217D01*
X48517638Y-66351072D01*
X48531369Y-66328162D01*
X48547280Y-66306708D01*
X48565218Y-66286918D01*
X48585008Y-66268980D01*
X48606462Y-66253069D01*
X48629372Y-66239338D01*
X48653517Y-66227918D01*
X48678665Y-66218920D01*
X48704575Y-66212430D01*
X48730995Y-66208511D01*
X48757673Y-66207200D01*
X49715327Y-66207200D01*
X49742005Y-66208511D01*
G37*
D23*
X47928500Y-69408200D03*
X46978500Y-71408200D03*
X48878500Y-71408200D03*
D21*
X132482000Y-164186000D03*
X134482000Y-164186000D03*
X136482000Y-164186000D03*
X138482000Y-164186000D03*
X140482000Y-164186000D03*
X142482000Y-164186000D03*
X144482000Y-164186000D03*
D22*
X146482000Y-164186000D03*
D21*
X46431200Y-115270000D03*
X46431200Y-113270000D03*
X46431200Y-111270000D03*
X46431200Y-109270000D03*
X46431200Y-107270000D03*
X46431200Y-105270000D03*
X46431200Y-103270000D03*
D22*
X46431200Y-101270000D03*
D13*
X119939000Y-149453000D03*
X122479000Y-149453000D03*
D14*
X118669000Y-159613000D03*
X125019000Y-157073000D03*
D15*
X116129000Y-154533000D03*
X126289000Y-154533000D03*
D16*
X121209000Y-154533000D03*
D13*
X200939000Y-130429000D03*
X203479000Y-130429000D03*
D14*
X199669000Y-140589000D03*
X206019000Y-138049000D03*
D15*
X197129000Y-135509000D03*
X207289000Y-135509000D03*
D16*
X202209000Y-135509000D03*
D13*
X200863000Y-92354400D03*
X203403000Y-92354400D03*
D14*
X199593000Y-102514400D03*
X205943000Y-99974400D03*
D15*
X197053000Y-97434400D03*
X207213000Y-97434400D03*
D16*
X202133000Y-97434400D03*
D17*
X213157000Y-88747600D03*
D18*
X197917000Y-88747600D03*
D17*
X192989000Y-93624000D03*
D19*
X192989000Y-101244000D03*
D17*
X212903000Y-126848000D03*
D18*
X197663000Y-126848000D03*
D17*
X210058000Y-107899000D03*
D18*
X194818000Y-107899000D03*
D17*
X219431000Y-146024000D03*
D18*
X204191000Y-146024000D03*
D17*
X187604000Y-126898000D03*
D18*
X172364000Y-126898000D03*
D17*
X176606000Y-107848000D03*
D18*
X191846000Y-107848000D03*
D17*
X188265000Y-88747600D03*
D18*
X173025000Y-88747600D03*
D17*
X185699000Y-146024000D03*
D18*
X170459000Y-146024000D03*
D17*
X169266000Y-126848000D03*
D18*
X154026000Y-126848000D03*
D17*
X171349000Y-107925000D03*
D18*
X156109000Y-107925000D03*
D17*
X170332000Y-88722200D03*
D18*
X155092000Y-88722200D03*
D17*
X157505000Y-145923000D03*
D18*
X142265000Y-145923000D03*
D17*
X151028000Y-126898000D03*
D18*
X135788000Y-126898000D03*
D17*
X152578000Y-107899000D03*
D18*
X137338000Y-107899000D03*
D17*
X152832000Y-88823800D03*
D18*
X137592000Y-88823800D03*
D17*
X129108000Y-145999000D03*
D18*
X113868000Y-145999000D03*
D17*
X128626000Y-126848000D03*
D18*
X113386000Y-126848000D03*
D17*
X128803000Y-107899000D03*
D18*
X113563000Y-107899000D03*
D17*
X130150000Y-88773000D03*
D18*
X114910000Y-88773000D03*
D17*
X105308400Y-146126000D03*
D18*
X90068400Y-146126000D03*
D17*
X108762800Y-126848000D03*
D18*
X93522800Y-126848000D03*
D17*
X105105200Y-107950000D03*
D18*
X89865200Y-107950000D03*
D17*
X107873800Y-88823800D03*
D18*
X92633800Y-88823800D03*
D17*
X86106000Y-145923000D03*
D18*
X70866000Y-145923000D03*
D17*
X82651600Y-126898000D03*
D18*
X67411600Y-126898000D03*
D17*
X86004400Y-107823000D03*
D18*
X70764400Y-107823000D03*
D17*
X83058000Y-88900000D03*
D18*
X67818000Y-88900000D03*
D17*
X66751200Y-145898000D03*
D18*
X51511200Y-145898000D03*
D17*
X63804800Y-126898000D03*
D18*
X48564800Y-126898000D03*
D17*
X66852800Y-107925000D03*
D18*
X51612800Y-107925000D03*
D17*
X65278000Y-88823800D03*
D18*
X50038000Y-88823800D03*
D13*
X162864000Y-130378000D03*
X165404000Y-130378000D03*
D14*
X161594000Y-140538000D03*
X167944000Y-137998000D03*
D15*
X159054000Y-135458000D03*
X169214000Y-135458000D03*
D16*
X164134000Y-135458000D03*
D13*
X162789000Y-111404000D03*
X165329000Y-111404000D03*
D14*
X161519000Y-121564000D03*
X167869000Y-119024000D03*
D15*
X158979000Y-116484000D03*
X169139000Y-116484000D03*
D16*
X164059000Y-116484000D03*
D13*
X162763000Y-92329000D03*
X165303000Y-92329000D03*
D14*
X161493000Y-102489000D03*
X167843000Y-99949000D03*
D15*
X158953000Y-97409000D03*
X169113000Y-97409000D03*
D16*
X164033000Y-97409000D03*
D13*
X143815000Y-130403000D03*
X146355000Y-130403000D03*
D14*
X142545000Y-140563000D03*
X148895000Y-138023000D03*
D15*
X140005000Y-135483000D03*
X150165000Y-135483000D03*
D16*
X145085000Y-135483000D03*
D13*
X143739000Y-111379000D03*
X146279000Y-111379000D03*
D14*
X142469000Y-121539000D03*
X148819000Y-118999000D03*
D15*
X139929000Y-116459000D03*
X150089000Y-116459000D03*
D16*
X145009000Y-116459000D03*
D13*
X143739000Y-92354400D03*
X146279000Y-92354400D03*
D14*
X142469000Y-102514400D03*
X148819000Y-99974400D03*
D15*
X139929000Y-97434400D03*
X150089000Y-97434400D03*
D16*
X145009000Y-97434400D03*
D13*
X96139000Y-130328000D03*
X98679000Y-130328000D03*
D14*
X94869000Y-140488000D03*
X101219000Y-137948000D03*
D15*
X92329000Y-135408000D03*
X102489000Y-135408000D03*
D16*
X97409000Y-135408000D03*
D13*
X96139000Y-111379000D03*
X98679000Y-111379000D03*
D14*
X94869000Y-121539000D03*
X101219000Y-118999000D03*
D15*
X92329000Y-116459000D03*
X102489000Y-116459000D03*
D16*
X97409000Y-116459000D03*
D13*
X96113600Y-92329000D03*
X98653600Y-92329000D03*
D14*
X94843600Y-102489000D03*
X101193600Y-99949000D03*
D15*
X92303600Y-97409000D03*
X102463600Y-97409000D03*
D16*
X97383600Y-97409000D03*
D13*
X77139800Y-130429000D03*
X79679800Y-130429000D03*
D14*
X75869800Y-140589000D03*
X82219800Y-138049000D03*
D15*
X73329800Y-135509000D03*
X83489800Y-135509000D03*
D16*
X78409800Y-135509000D03*
D13*
X77063600Y-111379000D03*
X79603600Y-111379000D03*
D14*
X75793600Y-121539000D03*
X82143600Y-118999000D03*
D15*
X73253600Y-116459000D03*
X83413600Y-116459000D03*
D16*
X78333600Y-116459000D03*
D13*
X77063600Y-92329000D03*
X79603600Y-92329000D03*
D14*
X75793600Y-102489000D03*
X82143600Y-99949000D03*
D15*
X73253600Y-97409000D03*
X83413600Y-97409000D03*
D16*
X78333600Y-97409000D03*
D13*
X58089800Y-130429000D03*
X60629800Y-130429000D03*
D14*
X56819800Y-140589000D03*
X63169800Y-138049000D03*
D15*
X54279800Y-135509000D03*
X64439800Y-135509000D03*
D16*
X59359800Y-135509000D03*
D13*
X58089800Y-111404000D03*
X60629800Y-111404000D03*
D14*
X56819800Y-121564000D03*
X63169800Y-119024000D03*
D15*
X54279800Y-116484000D03*
X64439800Y-116484000D03*
D16*
X59359800Y-116484000D03*
D13*
X58013600Y-92303600D03*
X60553600Y-92303600D03*
D14*
X56743600Y-102463600D03*
X63093600Y-99923600D03*
D15*
X54203600Y-97383600D03*
X64363600Y-97383600D03*
D16*
X59283600Y-97383600D03*
D17*
X193040000Y-131699000D03*
D19*
X193040000Y-139319000D03*
D17*
X192989000Y-112420000D03*
D19*
X192989000Y-120040000D03*
D17*
X192659000Y-150698000D03*
D19*
X192659000Y-158318000D03*
D17*
X174066000Y-131623000D03*
D19*
X174066000Y-139243000D03*
D17*
X174015000Y-112471000D03*
D19*
X174015000Y-120091000D03*
D17*
X174117000Y-93472000D03*
D19*
X174117000Y-101092000D03*
D17*
X169189000Y-150596000D03*
D19*
X169189000Y-158216000D03*
D17*
X154965000Y-131648000D03*
D19*
X154965000Y-139268000D03*
D17*
X154864000Y-112649000D03*
D19*
X154864000Y-120269000D03*
D17*
X154838000Y-93421000D03*
D19*
X154838000Y-101041000D03*
D17*
X140868000Y-150749000D03*
D19*
X140868000Y-158369000D03*
D17*
X135865000Y-131648000D03*
D19*
X135865000Y-139268000D03*
D17*
X135814000Y-112598000D03*
D19*
X135814000Y-120218000D03*
D17*
X135941000Y-93777000D03*
D19*
X135941000Y-101397000D03*
D17*
X112090000Y-150825000D03*
D19*
X112090000Y-158445000D03*
D17*
X111912000Y-131597000D03*
D19*
X111912000Y-139217000D03*
D17*
X112039000Y-112598000D03*
D19*
X112039000Y-120218000D03*
D17*
X111989000Y-93599000D03*
D19*
X111989000Y-101219000D03*
D17*
X88290400Y-150444000D03*
D19*
X88290400Y-158064000D03*
D17*
X88239600Y-131801000D03*
D19*
X88239600Y-139421000D03*
D17*
X88214200Y-112649000D03*
D19*
X88214200Y-120269000D03*
D17*
X88265000Y-93472000D03*
D19*
X88265000Y-101092000D03*
D17*
X69088000Y-150622000D03*
D19*
X69088000Y-158242000D03*
D17*
X69215000Y-131826000D03*
D19*
X69215000Y-139446000D03*
D17*
X69240400Y-112598000D03*
D19*
X69240400Y-120218000D03*
D17*
X69342000Y-93726000D03*
D19*
X69342000Y-101346000D03*
D17*
X50190400Y-150317000D03*
D19*
X50190400Y-157937000D03*
D17*
X50165000Y-131826000D03*
D19*
X50165000Y-139446000D03*
D17*
X50165000Y-112903000D03*
D19*
X50165000Y-120523000D03*
D17*
X50165000Y-93345000D03*
D19*
X50165000Y-100965000D03*
D17*
X193167000Y-73914000D03*
D19*
X193167000Y-81534000D03*
D17*
X192786000Y-54864000D03*
D19*
X192786000Y-62484000D03*
D17*
X173863000Y-74041000D03*
D19*
X173863000Y-81661000D03*
D17*
X173736000Y-55118000D03*
D19*
X173736000Y-62738000D03*
D17*
X155067000Y-74041000D03*
D19*
X155067000Y-81661000D03*
D17*
X154686000Y-54864000D03*
D19*
X154686000Y-62484000D03*
D17*
X136017000Y-74295000D03*
D19*
X136017000Y-81915000D03*
D17*
X140716000Y-54864000D03*
D19*
X140716000Y-62484000D03*
D17*
X112141000Y-74422000D03*
D19*
X112141000Y-82042000D03*
D17*
X112268000Y-55118000D03*
D19*
X112268000Y-62738000D03*
D17*
X88392000Y-74676000D03*
D19*
X88392000Y-82296000D03*
D17*
X88392000Y-55118000D03*
D19*
X88392000Y-62738000D03*
D17*
X69342000Y-74676000D03*
D19*
X69342000Y-82296000D03*
D17*
X69342000Y-55118000D03*
D19*
X69342000Y-62738000D03*
D17*
X47142400Y-84937600D03*
D19*
X47142400Y-92557600D03*
D17*
X47142400Y-74676000D03*
D19*
X47142400Y-82296000D03*
D13*
X162712000Y-54229000D03*
X165252000Y-54229000D03*
D14*
X161442000Y-64389000D03*
X167792000Y-61849000D03*
D15*
X158902000Y-59309000D03*
X169062000Y-59309000D03*
D16*
X163982000Y-59309000D03*
D13*
X181737000Y-54279800D03*
X184277000Y-54279800D03*
D14*
X180467000Y-64439800D03*
X186817000Y-61899800D03*
D15*
X177927000Y-59359800D03*
X188087000Y-59359800D03*
D16*
X183007000Y-59359800D03*
D13*
X162839000Y-73253600D03*
X165379000Y-73253600D03*
D14*
X161569000Y-83413600D03*
X167919000Y-80873600D03*
D15*
X159029000Y-78333600D03*
X169189000Y-78333600D03*
D16*
X164109000Y-78333600D03*
D13*
X143789000Y-73202800D03*
X146329000Y-73202800D03*
D14*
X142519000Y-83362800D03*
X148869000Y-80822800D03*
D15*
X139979000Y-78282800D03*
X150139000Y-78282800D03*
D16*
X145059000Y-78282800D03*
D13*
X143764000Y-54229000D03*
X146304000Y-54229000D03*
D14*
X142494000Y-64389000D03*
X148844000Y-61849000D03*
D15*
X139954000Y-59309000D03*
X150114000Y-59309000D03*
D16*
X145034000Y-59309000D03*
D13*
X96139000Y-73304400D03*
X98679000Y-73304400D03*
D14*
X94869000Y-83464400D03*
X101219000Y-80924400D03*
D15*
X92329000Y-78384400D03*
X102489000Y-78384400D03*
D16*
X97409000Y-78384400D03*
D13*
X96139000Y-54229000D03*
X98679000Y-54229000D03*
D14*
X94869000Y-64389000D03*
X101219000Y-61849000D03*
D15*
X92329000Y-59309000D03*
X102489000Y-59309000D03*
D16*
X97409000Y-59309000D03*
D13*
X77139800Y-73304400D03*
X79679800Y-73304400D03*
D14*
X75869800Y-83464400D03*
X82219800Y-80924400D03*
D15*
X73329800Y-78384400D03*
X83489800Y-78384400D03*
D16*
X78409800Y-78384400D03*
D13*
X77165200Y-54203600D03*
X79705200Y-54203600D03*
D14*
X75895200Y-64363600D03*
X82245200Y-61823600D03*
D15*
X73355200Y-59283600D03*
X83515200Y-59283600D03*
D16*
X78435200Y-59283600D03*
D13*
X58115200Y-73304400D03*
X60655200Y-73304400D03*
D14*
X56845200Y-83464400D03*
X63195200Y-80924400D03*
D15*
X54305200Y-78384400D03*
X64465200Y-78384400D03*
D16*
X59385200Y-78384400D03*
D13*
X58064400Y-54254400D03*
X60604400Y-54254400D03*
D14*
X56794400Y-64414400D03*
X63144400Y-61874400D03*
D15*
X54254400Y-59334400D03*
X64414400Y-59334400D03*
D16*
X59334400Y-59334400D03*
D17*
X209677000Y-68834000D03*
D18*
X194437000Y-68834000D03*
D17*
X210617000Y-50800000D03*
D18*
X195377000Y-50800000D03*
D17*
X190551000Y-68884800D03*
D18*
X175311000Y-68884800D03*
D17*
X191364000Y-50800000D03*
D18*
X176124000Y-50800000D03*
D17*
X171679000Y-69037200D03*
D18*
X156439000Y-69037200D03*
D17*
X172364000Y-50749200D03*
D18*
X157124000Y-50749200D03*
D17*
X152883000Y-68884800D03*
D18*
X137643000Y-68884800D03*
D17*
X153416000Y-50800000D03*
D18*
X138176000Y-50800000D03*
D17*
X128956000Y-68961000D03*
D18*
X113716000Y-68961000D03*
D17*
X128880000Y-50749200D03*
D18*
X113640000Y-50749200D03*
D17*
X104546400Y-69062600D03*
D18*
X89306400Y-69062600D03*
D17*
X105664000Y-50800000D03*
D18*
X90424000Y-50800000D03*
D17*
X86309200Y-69062600D03*
D18*
X71069200Y-69062600D03*
D17*
X86614000Y-50698400D03*
D18*
X71374000Y-50698400D03*
D17*
X66929000Y-68834000D03*
D18*
X51689000Y-68834000D03*
D17*
X67056000Y-50800000D03*
D18*
X51816000Y-50800000D03*
M02*
