%TF.GenerationSoftware,KiCad,Pcbnew,5.1.5+dfsg1-2build2*%
%TF.CreationDate,2021-08-29T12:06:32+02:00*%
%TF.ProjectId,BFK9kv2-right,42464b39-6b76-4322-9d72-696768742e6b,rev?*%
%TF.SameCoordinates,Original*%
%TF.FileFunction,Copper,L2,Bot*%
%TF.FilePolarity,Positive*%
%FSLAX46Y46*%
G04 Gerber Fmt 4.6, Leading zero omitted, Abs format (unit mm)*
G04 Created by KiCad (PCBNEW 5.1.5+dfsg1-2build2) date 2021-08-29 12:06:32*
%MOMM*%
%LPD*%
G04 APERTURE LIST*
%ADD10C,5.600000*%
%ADD11C,1.690600*%
%ADD12C,2.200000*%
%ADD13O,1.350000X1.350000*%
%ADD14R,1.350000X1.350000*%
%ADD15C,0.150000*%
%ADD16R,0.800000X0.900000*%
%ADD17O,1.600000X1.600000*%
%ADD18C,1.600000*%
%ADD19R,1.600000X1.600000*%
%ADD20C,0.250000*%
G04 APERTURE END LIST*
D10*
X87889100Y-87873800D03*
X87889100Y-125994000D03*
X190932000Y-125984000D03*
X190942000Y-87878900D03*
D11*
X177165000Y-73329800D03*
X179705000Y-73329800D03*
D12*
X175895000Y-83489800D03*
X182245000Y-80949800D03*
D11*
X174777000Y-92354400D03*
X177317000Y-92354400D03*
D12*
X173507000Y-102514400D03*
X179857000Y-99974400D03*
D13*
X225243000Y-73052400D03*
X225243000Y-75052400D03*
X225243000Y-77052400D03*
D14*
X225243000Y-79052400D03*
%TA.AperFunction,SMDPad,CuDef*%
D15*
G36*
X224307505Y-83683804D02*
G01*
X224331773Y-83687404D01*
X224355572Y-83693365D01*
X224378671Y-83701630D01*
X224400850Y-83712120D01*
X224421893Y-83724732D01*
X224441599Y-83739347D01*
X224459777Y-83755823D01*
X224476253Y-83774001D01*
X224490868Y-83793707D01*
X224503480Y-83814750D01*
X224513970Y-83836929D01*
X224522235Y-83860028D01*
X224528196Y-83883827D01*
X224531796Y-83908095D01*
X224533000Y-83932599D01*
X224533000Y-84582601D01*
X224531796Y-84607105D01*
X224528196Y-84631373D01*
X224522235Y-84655172D01*
X224513970Y-84678271D01*
X224503480Y-84700450D01*
X224490868Y-84721493D01*
X224476253Y-84741199D01*
X224459777Y-84759377D01*
X224441599Y-84775853D01*
X224421893Y-84790468D01*
X224400850Y-84803080D01*
X224378671Y-84813570D01*
X224355572Y-84821835D01*
X224331773Y-84827796D01*
X224307505Y-84831396D01*
X224283001Y-84832600D01*
X223382999Y-84832600D01*
X223358495Y-84831396D01*
X223334227Y-84827796D01*
X223310428Y-84821835D01*
X223287329Y-84813570D01*
X223265150Y-84803080D01*
X223244107Y-84790468D01*
X223224401Y-84775853D01*
X223206223Y-84759377D01*
X223189747Y-84741199D01*
X223175132Y-84721493D01*
X223162520Y-84700450D01*
X223152030Y-84678271D01*
X223143765Y-84655172D01*
X223137804Y-84631373D01*
X223134204Y-84607105D01*
X223133000Y-84582601D01*
X223133000Y-83932599D01*
X223134204Y-83908095D01*
X223137804Y-83883827D01*
X223143765Y-83860028D01*
X223152030Y-83836929D01*
X223162520Y-83814750D01*
X223175132Y-83793707D01*
X223189747Y-83774001D01*
X223206223Y-83755823D01*
X223224401Y-83739347D01*
X223244107Y-83724732D01*
X223265150Y-83712120D01*
X223287329Y-83701630D01*
X223310428Y-83693365D01*
X223334227Y-83687404D01*
X223358495Y-83683804D01*
X223382999Y-83682600D01*
X224283001Y-83682600D01*
X224307505Y-83683804D01*
G37*
%TD.AperFunction*%
%TA.AperFunction,SMDPad,CuDef*%
G36*
X224307505Y-81633804D02*
G01*
X224331773Y-81637404D01*
X224355572Y-81643365D01*
X224378671Y-81651630D01*
X224400850Y-81662120D01*
X224421893Y-81674732D01*
X224441599Y-81689347D01*
X224459777Y-81705823D01*
X224476253Y-81724001D01*
X224490868Y-81743707D01*
X224503480Y-81764750D01*
X224513970Y-81786929D01*
X224522235Y-81810028D01*
X224528196Y-81833827D01*
X224531796Y-81858095D01*
X224533000Y-81882599D01*
X224533000Y-82532601D01*
X224531796Y-82557105D01*
X224528196Y-82581373D01*
X224522235Y-82605172D01*
X224513970Y-82628271D01*
X224503480Y-82650450D01*
X224490868Y-82671493D01*
X224476253Y-82691199D01*
X224459777Y-82709377D01*
X224441599Y-82725853D01*
X224421893Y-82740468D01*
X224400850Y-82753080D01*
X224378671Y-82763570D01*
X224355572Y-82771835D01*
X224331773Y-82777796D01*
X224307505Y-82781396D01*
X224283001Y-82782600D01*
X223382999Y-82782600D01*
X223358495Y-82781396D01*
X223334227Y-82777796D01*
X223310428Y-82771835D01*
X223287329Y-82763570D01*
X223265150Y-82753080D01*
X223244107Y-82740468D01*
X223224401Y-82725853D01*
X223206223Y-82709377D01*
X223189747Y-82691199D01*
X223175132Y-82671493D01*
X223162520Y-82650450D01*
X223152030Y-82628271D01*
X223143765Y-82605172D01*
X223137804Y-82581373D01*
X223134204Y-82557105D01*
X223133000Y-82532601D01*
X223133000Y-81882599D01*
X223134204Y-81858095D01*
X223137804Y-81833827D01*
X223143765Y-81810028D01*
X223152030Y-81786929D01*
X223162520Y-81764750D01*
X223175132Y-81743707D01*
X223189747Y-81724001D01*
X223206223Y-81705823D01*
X223224401Y-81689347D01*
X223244107Y-81674732D01*
X223265150Y-81662120D01*
X223287329Y-81651630D01*
X223310428Y-81643365D01*
X223334227Y-81637404D01*
X223358495Y-81633804D01*
X223382999Y-81632600D01*
X224283001Y-81632600D01*
X224307505Y-81633804D01*
G37*
%TD.AperFunction*%
%TA.AperFunction,SMDPad,CuDef*%
G36*
X227257505Y-81633804D02*
G01*
X227281773Y-81637404D01*
X227305572Y-81643365D01*
X227328671Y-81651630D01*
X227350850Y-81662120D01*
X227371893Y-81674732D01*
X227391599Y-81689347D01*
X227409777Y-81705823D01*
X227426253Y-81724001D01*
X227440868Y-81743707D01*
X227453480Y-81764750D01*
X227463970Y-81786929D01*
X227472235Y-81810028D01*
X227478196Y-81833827D01*
X227481796Y-81858095D01*
X227483000Y-81882599D01*
X227483000Y-82532601D01*
X227481796Y-82557105D01*
X227478196Y-82581373D01*
X227472235Y-82605172D01*
X227463970Y-82628271D01*
X227453480Y-82650450D01*
X227440868Y-82671493D01*
X227426253Y-82691199D01*
X227409777Y-82709377D01*
X227391599Y-82725853D01*
X227371893Y-82740468D01*
X227350850Y-82753080D01*
X227328671Y-82763570D01*
X227305572Y-82771835D01*
X227281773Y-82777796D01*
X227257505Y-82781396D01*
X227233001Y-82782600D01*
X226332999Y-82782600D01*
X226308495Y-82781396D01*
X226284227Y-82777796D01*
X226260428Y-82771835D01*
X226237329Y-82763570D01*
X226215150Y-82753080D01*
X226194107Y-82740468D01*
X226174401Y-82725853D01*
X226156223Y-82709377D01*
X226139747Y-82691199D01*
X226125132Y-82671493D01*
X226112520Y-82650450D01*
X226102030Y-82628271D01*
X226093765Y-82605172D01*
X226087804Y-82581373D01*
X226084204Y-82557105D01*
X226083000Y-82532601D01*
X226083000Y-81882599D01*
X226084204Y-81858095D01*
X226087804Y-81833827D01*
X226093765Y-81810028D01*
X226102030Y-81786929D01*
X226112520Y-81764750D01*
X226125132Y-81743707D01*
X226139747Y-81724001D01*
X226156223Y-81705823D01*
X226174401Y-81689347D01*
X226194107Y-81674732D01*
X226215150Y-81662120D01*
X226237329Y-81651630D01*
X226260428Y-81643365D01*
X226284227Y-81637404D01*
X226308495Y-81633804D01*
X226332999Y-81632600D01*
X227233001Y-81632600D01*
X227257505Y-81633804D01*
G37*
%TD.AperFunction*%
%TA.AperFunction,SMDPad,CuDef*%
G36*
X227257505Y-83683804D02*
G01*
X227281773Y-83687404D01*
X227305572Y-83693365D01*
X227328671Y-83701630D01*
X227350850Y-83712120D01*
X227371893Y-83724732D01*
X227391599Y-83739347D01*
X227409777Y-83755823D01*
X227426253Y-83774001D01*
X227440868Y-83793707D01*
X227453480Y-83814750D01*
X227463970Y-83836929D01*
X227472235Y-83860028D01*
X227478196Y-83883827D01*
X227481796Y-83908095D01*
X227483000Y-83932599D01*
X227483000Y-84582601D01*
X227481796Y-84607105D01*
X227478196Y-84631373D01*
X227472235Y-84655172D01*
X227463970Y-84678271D01*
X227453480Y-84700450D01*
X227440868Y-84721493D01*
X227426253Y-84741199D01*
X227409777Y-84759377D01*
X227391599Y-84775853D01*
X227371893Y-84790468D01*
X227350850Y-84803080D01*
X227328671Y-84813570D01*
X227305572Y-84821835D01*
X227281773Y-84827796D01*
X227257505Y-84831396D01*
X227233001Y-84832600D01*
X226332999Y-84832600D01*
X226308495Y-84831396D01*
X226284227Y-84827796D01*
X226260428Y-84821835D01*
X226237329Y-84813570D01*
X226215150Y-84803080D01*
X226194107Y-84790468D01*
X226174401Y-84775853D01*
X226156223Y-84759377D01*
X226139747Y-84741199D01*
X226125132Y-84721493D01*
X226112520Y-84700450D01*
X226102030Y-84678271D01*
X226093765Y-84655172D01*
X226087804Y-84631373D01*
X226084204Y-84607105D01*
X226083000Y-84582601D01*
X226083000Y-83932599D01*
X226084204Y-83908095D01*
X226087804Y-83883827D01*
X226093765Y-83860028D01*
X226102030Y-83836929D01*
X226112520Y-83814750D01*
X226125132Y-83793707D01*
X226139747Y-83774001D01*
X226156223Y-83755823D01*
X226174401Y-83739347D01*
X226194107Y-83724732D01*
X226215150Y-83712120D01*
X226237329Y-83701630D01*
X226260428Y-83693365D01*
X226284227Y-83687404D01*
X226308495Y-83683804D01*
X226332999Y-83682600D01*
X227233001Y-83682600D01*
X227257505Y-83683804D01*
G37*
%TD.AperFunction*%
D16*
X225983000Y-86832600D03*
X225033000Y-88832600D03*
X226933000Y-88832600D03*
D13*
X132482000Y-164186000D03*
X134482000Y-164186000D03*
X136482000Y-164186000D03*
X138482000Y-164186000D03*
X140482000Y-164186000D03*
X142482000Y-164186000D03*
X144482000Y-164186000D03*
D14*
X146482000Y-164186000D03*
D13*
X46431200Y-115270000D03*
X46431200Y-113270000D03*
X46431200Y-111270000D03*
X46431200Y-109270000D03*
X46431200Y-107270000D03*
X46431200Y-105270000D03*
X46431200Y-103270000D03*
D14*
X46431200Y-101270000D03*
D11*
X219989000Y-149504000D03*
X222529000Y-149504000D03*
D12*
X218719000Y-159664000D03*
X225069000Y-157124000D03*
D11*
X158090000Y-149504000D03*
X160630000Y-149504000D03*
D12*
X156820000Y-159664000D03*
X163170000Y-157124000D03*
D11*
X129515000Y-149504000D03*
X132055000Y-149504000D03*
D12*
X128245000Y-159664000D03*
X134595000Y-157124000D03*
D11*
X100940000Y-149479000D03*
X103480000Y-149479000D03*
D12*
X99670000Y-159639000D03*
X106020000Y-157099000D03*
D11*
X67614800Y-149504000D03*
X70154800Y-149504000D03*
D12*
X66344800Y-159664000D03*
X72694800Y-157124000D03*
D11*
X200939000Y-130429000D03*
X203479000Y-130429000D03*
D12*
X199669000Y-140589000D03*
X206019000Y-138049000D03*
D11*
X220015000Y-130505000D03*
X222555000Y-130505000D03*
D12*
X218745000Y-140665000D03*
X225095000Y-138125000D03*
D11*
X210464000Y-111404000D03*
X213004000Y-111404000D03*
D12*
X209194000Y-121564000D03*
X215544000Y-119024000D03*
D17*
X219304000Y-107950000D03*
D18*
X204064000Y-107950000D03*
D17*
X199398000Y-107996000D03*
D19*
X191778000Y-107996000D03*
D17*
X211480000Y-126949000D03*
D18*
X196240000Y-126949000D03*
D17*
X230505000Y-127000000D03*
D18*
X215265000Y-127000000D03*
D17*
X228981000Y-146050000D03*
D18*
X213741000Y-146050000D03*
D17*
X184429000Y-126949000D03*
D18*
X169189000Y-126949000D03*
D17*
X171882000Y-107899000D03*
D18*
X187122000Y-107899000D03*
D17*
X185166000Y-88900000D03*
D18*
X169926000Y-88900000D03*
D17*
X209550000Y-146050000D03*
D18*
X194310000Y-146050000D03*
D17*
X161290000Y-126873000D03*
D18*
X146050000Y-126873000D03*
D17*
X161900000Y-107925000D03*
D18*
X146660000Y-107925000D03*
D17*
X160909000Y-88773000D03*
D18*
X145669000Y-88773000D03*
D17*
X190881000Y-145923000D03*
D18*
X175641000Y-145923000D03*
D17*
X143180000Y-126924000D03*
D18*
X127940000Y-126924000D03*
D17*
X143129000Y-107950000D03*
D18*
X127889000Y-107950000D03*
D17*
X143383000Y-88773000D03*
D18*
X128143000Y-88773000D03*
D17*
X167259000Y-146050000D03*
D18*
X152019000Y-146050000D03*
D17*
X125324000Y-126924000D03*
D18*
X110084000Y-126924000D03*
D17*
X124079000Y-107950000D03*
D18*
X108839000Y-107950000D03*
D17*
X125476000Y-88773000D03*
D18*
X110236000Y-88773000D03*
D17*
X138684000Y-146177000D03*
D18*
X123444000Y-146177000D03*
D17*
X107696000Y-126898000D03*
D18*
X92456000Y-126898000D03*
D17*
X105156000Y-107950000D03*
D18*
X89916000Y-107950000D03*
D17*
X107873800Y-88823800D03*
D18*
X92633800Y-88823800D03*
D17*
X109982000Y-145923000D03*
D18*
X94742000Y-145923000D03*
D17*
X83058000Y-126949000D03*
D18*
X67818000Y-126949000D03*
D17*
X86106000Y-107874000D03*
D18*
X70866000Y-107874000D03*
D17*
X83058000Y-88900000D03*
D18*
X67818000Y-88900000D03*
D17*
X76454000Y-145923000D03*
D18*
X61214000Y-145923000D03*
D17*
X65379600Y-126924000D03*
D18*
X50139600Y-126924000D03*
D17*
X66852800Y-107925000D03*
D18*
X51612800Y-107925000D03*
D17*
X65278000Y-88823800D03*
D18*
X50038000Y-88823800D03*
D11*
X177165000Y-130429000D03*
X179705000Y-130429000D03*
D12*
X175895000Y-140589000D03*
X182245000Y-138049000D03*
D11*
X177165000Y-111354000D03*
X179705000Y-111354000D03*
D12*
X175895000Y-121514000D03*
X182245000Y-118974000D03*
D11*
X200965000Y-149479000D03*
X203505000Y-149479000D03*
D12*
X199695000Y-159639000D03*
X206045000Y-157099000D03*
D11*
X153314000Y-130429000D03*
X155854000Y-130429000D03*
D12*
X152044000Y-140589000D03*
X158394000Y-138049000D03*
D11*
X153340000Y-111404000D03*
X155880000Y-111404000D03*
D12*
X152070000Y-121564000D03*
X158420000Y-119024000D03*
D11*
X153340000Y-92379800D03*
X155880000Y-92379800D03*
D12*
X152070000Y-102539800D03*
X158420000Y-99999800D03*
D11*
X181915000Y-149504000D03*
X184455000Y-149504000D03*
D12*
X180645000Y-159664000D03*
X186995000Y-157124000D03*
D11*
X134315000Y-130454000D03*
X136855000Y-130454000D03*
D12*
X133045000Y-140614000D03*
X139395000Y-138074000D03*
D11*
X134290000Y-111430000D03*
X136830000Y-111430000D03*
D12*
X133020000Y-121590000D03*
X139370000Y-119050000D03*
D11*
X134290000Y-92303600D03*
X136830000Y-92303600D03*
D12*
X133020000Y-102463600D03*
X139370000Y-99923600D03*
D11*
X115341000Y-130480000D03*
X117881000Y-130480000D03*
D12*
X114071000Y-140640000D03*
X120421000Y-138100000D03*
D11*
X115240000Y-111404000D03*
X117780000Y-111404000D03*
D12*
X113970000Y-121564000D03*
X120320000Y-119024000D03*
D11*
X115240000Y-92354400D03*
X117780000Y-92354400D03*
D12*
X113970000Y-102514400D03*
X120320000Y-99974400D03*
D11*
X96164400Y-130480000D03*
X98704400Y-130480000D03*
D12*
X94894400Y-140640000D03*
X101244400Y-138100000D03*
D11*
X96189800Y-111379000D03*
X98729800Y-111379000D03*
D12*
X94919800Y-121539000D03*
X101269800Y-118999000D03*
D11*
X96215200Y-92329000D03*
X98755200Y-92329000D03*
D12*
X94945200Y-102489000D03*
X101295200Y-99949000D03*
D11*
X77139800Y-130429000D03*
X79679800Y-130429000D03*
D12*
X75869800Y-140589000D03*
X82219800Y-138049000D03*
D11*
X77165200Y-111430000D03*
X79705200Y-111430000D03*
D12*
X75895200Y-121590000D03*
X82245200Y-119050000D03*
D11*
X77114400Y-92329000D03*
X79654400Y-92329000D03*
D12*
X75844400Y-102489000D03*
X82194400Y-99949000D03*
D11*
X58089800Y-130429000D03*
X60629800Y-130429000D03*
D12*
X56819800Y-140589000D03*
X63169800Y-138049000D03*
D11*
X58089800Y-111404000D03*
X60629800Y-111404000D03*
D12*
X56819800Y-121564000D03*
X63169800Y-119024000D03*
D11*
X58115200Y-92354400D03*
X60655200Y-92354400D03*
D12*
X56845200Y-102514400D03*
X63195200Y-99974400D03*
D17*
X193040000Y-131699000D03*
D19*
X193040000Y-139319000D03*
D17*
X196520000Y-142799000D03*
D19*
X188900000Y-142799000D03*
D17*
X212090000Y-150749000D03*
D19*
X212090000Y-158369000D03*
D17*
X169291000Y-131699000D03*
D19*
X169291000Y-139319000D03*
D17*
X169291000Y-112522000D03*
D19*
X169291000Y-120142000D03*
D17*
X166878000Y-93472000D03*
D19*
X166878000Y-101092000D03*
D17*
X193040000Y-150622000D03*
D19*
X193040000Y-158242000D03*
D17*
X145415000Y-131699000D03*
D19*
X145415000Y-139319000D03*
D17*
X145415000Y-112649000D03*
D19*
X145415000Y-120269000D03*
D17*
X145415000Y-93472000D03*
D19*
X145415000Y-101092000D03*
D17*
X174244000Y-150749000D03*
D19*
X174244000Y-158369000D03*
D17*
X126365000Y-131699000D03*
D19*
X126365000Y-139319000D03*
D17*
X126365000Y-112649000D03*
D19*
X126365000Y-120269000D03*
D17*
X126492000Y-93726000D03*
D19*
X126492000Y-101346000D03*
D17*
X150241000Y-150876000D03*
D19*
X150241000Y-158496000D03*
D17*
X107315000Y-131699000D03*
D19*
X107315000Y-139319000D03*
D17*
X107315000Y-112649000D03*
D19*
X107315000Y-120269000D03*
D17*
X107315000Y-93599000D03*
D19*
X107315000Y-101219000D03*
D17*
X121666000Y-150495000D03*
D19*
X121666000Y-158115000D03*
D17*
X88265000Y-131953000D03*
D19*
X88265000Y-139573000D03*
D17*
X88265000Y-112649000D03*
D19*
X88265000Y-120269000D03*
D17*
X88265000Y-93472000D03*
D19*
X88265000Y-101092000D03*
D17*
X92964000Y-150622000D03*
D19*
X92964000Y-158242000D03*
D17*
X69215000Y-131826000D03*
D19*
X69215000Y-139446000D03*
D17*
X69342000Y-112649000D03*
D19*
X69342000Y-120269000D03*
D17*
X69342000Y-93726000D03*
D19*
X69342000Y-101346000D03*
D17*
X56502300Y-145834000D03*
D19*
X48882300Y-145834000D03*
D17*
X50165000Y-131826000D03*
D19*
X50165000Y-139446000D03*
D17*
X50165000Y-112903000D03*
D19*
X50165000Y-120523000D03*
D17*
X50165000Y-93345000D03*
D19*
X50165000Y-100965000D03*
D17*
X207518000Y-83566000D03*
D19*
X207518000Y-91186000D03*
D17*
X199527000Y-49672200D03*
D19*
X191907000Y-49672200D03*
D17*
X169164000Y-74168000D03*
D19*
X169164000Y-81788000D03*
D17*
X169164000Y-55118000D03*
D19*
X169164000Y-62738000D03*
D17*
X145542000Y-74168000D03*
D19*
X145542000Y-81788000D03*
D17*
X145542000Y-54864000D03*
D19*
X145542000Y-62484000D03*
D17*
X126492000Y-74422000D03*
D19*
X126492000Y-82042000D03*
D17*
X126238000Y-55118000D03*
D19*
X126238000Y-62738000D03*
D17*
X107442000Y-74422000D03*
D19*
X107442000Y-82042000D03*
D17*
X107442000Y-55118000D03*
D19*
X107442000Y-62738000D03*
D17*
X88392000Y-74676000D03*
D19*
X88392000Y-82296000D03*
D17*
X88392000Y-55118000D03*
D19*
X88392000Y-62738000D03*
D17*
X69342000Y-74676000D03*
D19*
X69342000Y-82296000D03*
D17*
X69342000Y-55118000D03*
D19*
X69342000Y-62738000D03*
D17*
X50292000Y-74676000D03*
D19*
X50292000Y-82296000D03*
D17*
X50292000Y-55118000D03*
D19*
X50292000Y-62738000D03*
D11*
X153314000Y-54229000D03*
X155854000Y-54229000D03*
D12*
X152044000Y-64389000D03*
X158394000Y-61849000D03*
D11*
X115214000Y-73279000D03*
X117754000Y-73279000D03*
D12*
X113944000Y-83439000D03*
X120294000Y-80899000D03*
D11*
X210490000Y-54254400D03*
X213030000Y-54254400D03*
D12*
X209220000Y-64414400D03*
X215570000Y-61874400D03*
D11*
X215265000Y-82854800D03*
X217805000Y-82854800D03*
D12*
X213995000Y-93014800D03*
X220345000Y-90474800D03*
D11*
X177165000Y-54279800D03*
X179705000Y-54279800D03*
D12*
X175895000Y-64439800D03*
X182245000Y-61899800D03*
D11*
X153314000Y-73380600D03*
X155854000Y-73380600D03*
D12*
X152044000Y-83540600D03*
X158394000Y-81000600D03*
D11*
X134264000Y-73329800D03*
X136804000Y-73329800D03*
D12*
X132994000Y-83489800D03*
X139344000Y-80949800D03*
D11*
X134366000Y-54229000D03*
X136906000Y-54229000D03*
D12*
X133096000Y-64389000D03*
X139446000Y-61849000D03*
D11*
X115189000Y-54229000D03*
X117729000Y-54229000D03*
D12*
X113919000Y-64389000D03*
X120269000Y-61849000D03*
D11*
X96139000Y-73304400D03*
X98679000Y-73304400D03*
D12*
X94869000Y-83464400D03*
X101219000Y-80924400D03*
D11*
X96139000Y-54229000D03*
X98679000Y-54229000D03*
D12*
X94869000Y-64389000D03*
X101219000Y-61849000D03*
D11*
X77139800Y-73304400D03*
X79679800Y-73304400D03*
D12*
X75869800Y-83464400D03*
X82219800Y-80924400D03*
D11*
X77165200Y-54203600D03*
X79705200Y-54203600D03*
D12*
X75895200Y-64363600D03*
X82245200Y-61823600D03*
D11*
X58115200Y-73304400D03*
X60655200Y-73304400D03*
D12*
X56845200Y-83464400D03*
X63195200Y-80924400D03*
D11*
X58064400Y-54254400D03*
X60604400Y-54254400D03*
D12*
X56794400Y-64414400D03*
X63144400Y-61874400D03*
D17*
X199814000Y-85049400D03*
D18*
X199814000Y-69809400D03*
D17*
X219354000Y-49936400D03*
D18*
X204114000Y-49936400D03*
D17*
X185852000Y-69011800D03*
D18*
X170612000Y-69011800D03*
D17*
X186080000Y-49936400D03*
D18*
X170840000Y-49936400D03*
D17*
X162154000Y-69164200D03*
D18*
X146914000Y-69164200D03*
D17*
X162306000Y-50800000D03*
D18*
X147066000Y-50800000D03*
D17*
X143358000Y-69011800D03*
D18*
X128118000Y-69011800D03*
D17*
X144018000Y-50800000D03*
D18*
X128778000Y-50800000D03*
D17*
X124257000Y-68961000D03*
D18*
X109017000Y-68961000D03*
D17*
X125222000Y-50800000D03*
D18*
X109982000Y-50800000D03*
D17*
X104546400Y-69062600D03*
D18*
X89306400Y-69062600D03*
D17*
X105664000Y-50800000D03*
D18*
X90424000Y-50800000D03*
D17*
X86309200Y-69062600D03*
D18*
X71069200Y-69062600D03*
D17*
X86614000Y-50698400D03*
D18*
X71374000Y-50698400D03*
D17*
X66929000Y-68834000D03*
D18*
X51689000Y-68834000D03*
D17*
X67056000Y-50800000D03*
D18*
X51816000Y-50800000D03*
D20*
X67056000Y-50800000D02*
X64058800Y-50800000D01*
X64058800Y-50800000D02*
X60604400Y-54254400D01*
X105664000Y-50800000D02*
X102108000Y-50800000D01*
X102108000Y-50800000D02*
X98679000Y-54229000D01*
X125222000Y-50800000D02*
X121158000Y-50800000D01*
X121158000Y-50800000D02*
X117729000Y-54229000D01*
X162306000Y-50800000D02*
X159283000Y-50800000D01*
X159283000Y-50800000D02*
X155854000Y-54229000D01*
X186080000Y-49936400D02*
X184048400Y-49936400D01*
X184048400Y-49936400D02*
X179705000Y-54279800D01*
X219354000Y-49936400D02*
X217348000Y-49936400D01*
X217348000Y-49936400D02*
X213030000Y-54254400D01*
X66929000Y-68834000D02*
X65125600Y-68834000D01*
X65125600Y-68834000D02*
X60655200Y-73304400D01*
X86309200Y-69062600D02*
X83921600Y-69062600D01*
X83921600Y-69062600D02*
X79679800Y-73304400D01*
X104546400Y-69062600D02*
X102920800Y-69062600D01*
X102920800Y-69062600D02*
X98679000Y-73304400D01*
X124257000Y-68961000D02*
X122072000Y-68961000D01*
X122072000Y-68961000D02*
X117754000Y-73279000D01*
X143358000Y-69011800D02*
X141122000Y-69011800D01*
X141122000Y-69011800D02*
X136804000Y-73329800D01*
X185852000Y-69011800D02*
X184023000Y-69011800D01*
X184023000Y-69011800D02*
X179705000Y-73329800D01*
X162154000Y-69164200D02*
X160070400Y-69164200D01*
X160070400Y-69164200D02*
X155854000Y-73380600D01*
X50292000Y-55118000D02*
X50292000Y-57912000D01*
X50292000Y-57912000D02*
X56794400Y-64414400D01*
X50292000Y-62738000D02*
X50292000Y-63863300D01*
X50292000Y-63863300D02*
X46431200Y-67724100D01*
X46431200Y-67724100D02*
X46431200Y-101270000D01*
X50292000Y-74676000D02*
X50292000Y-76911200D01*
X50292000Y-76911200D02*
X56845200Y-83464400D01*
X50292000Y-82296000D02*
X50292000Y-83421300D01*
X50292000Y-83421300D02*
X48235600Y-85477700D01*
X48235600Y-85477700D02*
X48235600Y-101465600D01*
X48235600Y-101465600D02*
X46431200Y-103270000D01*
X69342000Y-55118000D02*
X69342000Y-57810400D01*
X69342000Y-57810400D02*
X75895200Y-64363600D01*
X69342000Y-74676000D02*
X69342000Y-76936600D01*
X69342000Y-76936600D02*
X75869800Y-83464400D01*
X88392000Y-55118000D02*
X88392000Y-57912000D01*
X88392000Y-57912000D02*
X94869000Y-64389000D01*
X88392000Y-74676000D02*
X88392000Y-76987400D01*
X88392000Y-76987400D02*
X94869000Y-83464400D01*
X107442000Y-55118000D02*
X107442000Y-57912000D01*
X107442000Y-57912000D02*
X113919000Y-64389000D01*
X107442000Y-74422000D02*
X107442000Y-76937000D01*
X107442000Y-76937000D02*
X113944000Y-83439000D01*
X126238000Y-55118000D02*
X126238000Y-57531000D01*
X126238000Y-57531000D02*
X133096000Y-64389000D01*
X126492000Y-74422000D02*
X126492000Y-76987800D01*
X126492000Y-76987800D02*
X132994000Y-83489800D01*
X145542000Y-54864000D02*
X145542000Y-57887000D01*
X145542000Y-57887000D02*
X152044000Y-64389000D01*
X145542000Y-74168000D02*
X145542000Y-77038600D01*
X145542000Y-77038600D02*
X152044000Y-83540600D01*
X169164000Y-55118000D02*
X169164000Y-57708800D01*
X169164000Y-57708800D02*
X175895000Y-64439800D01*
X169164000Y-74168000D02*
X169164000Y-76758800D01*
X169164000Y-76758800D02*
X175895000Y-83489800D01*
X213995000Y-93014800D02*
X207518000Y-86537800D01*
X207518000Y-86537800D02*
X207518000Y-83566000D01*
X50139600Y-126924000D02*
X55480200Y-132264600D01*
X55480200Y-132264600D02*
X55480200Y-135069300D01*
X55480200Y-135069300D02*
X61214000Y-140803100D01*
X61214000Y-140803100D02*
X61214000Y-145923000D01*
X164493000Y-131645000D02*
X169189000Y-126949000D01*
X152193700Y-131645000D02*
X164493000Y-131645000D01*
X175641000Y-145923000D02*
X175641000Y-142793000D01*
X175641000Y-142793000D02*
X164493000Y-131645000D01*
X146050000Y-126873000D02*
X150822000Y-131645000D01*
X150822000Y-131645000D02*
X152193700Y-131645000D01*
X152193700Y-131645000D02*
X152193700Y-138267600D01*
X152193700Y-138267600D02*
X153507700Y-139581600D01*
X153507700Y-139581600D02*
X153507700Y-144561300D01*
X153507700Y-144561300D02*
X152019000Y-146050000D01*
X146660000Y-107925000D02*
X144289600Y-110295400D01*
X144289600Y-110295400D02*
X144289600Y-125112600D01*
X144289600Y-125112600D02*
X146050000Y-126873000D01*
X146660000Y-107925000D02*
X144277400Y-105542400D01*
X144277400Y-105542400D02*
X144277400Y-90164600D01*
X144277400Y-90164600D02*
X145669000Y-88773000D01*
X90424000Y-50800000D02*
X89400200Y-51823800D01*
X89400200Y-51823800D02*
X72499400Y-51823800D01*
X72499400Y-51823800D02*
X71374000Y-50698400D01*
X106839400Y-50800000D02*
X106839400Y-50377900D01*
X106839400Y-50377900D02*
X106136100Y-49674600D01*
X106136100Y-49674600D02*
X91549400Y-49674600D01*
X91549400Y-49674600D02*
X90424000Y-50800000D01*
X51816000Y-50800000D02*
X49127700Y-53488300D01*
X49127700Y-53488300D02*
X49127700Y-58194400D01*
X49127700Y-58194400D02*
X51689000Y-60755700D01*
X51689000Y-60755700D02*
X51689000Y-68834000D01*
X106839400Y-50800000D02*
X106839400Y-51294700D01*
X106839400Y-51294700D02*
X106316600Y-51817500D01*
X106316600Y-51817500D02*
X106316600Y-66260600D01*
X106316600Y-66260600D02*
X109017000Y-68961000D01*
X106839400Y-50800000D02*
X109982000Y-50800000D01*
X128778000Y-50800000D02*
X129903400Y-49674600D01*
X129903400Y-49674600D02*
X145940600Y-49674600D01*
X145940600Y-49674600D02*
X147066000Y-50800000D01*
X168027400Y-52749000D02*
X168027400Y-66427200D01*
X168027400Y-66427200D02*
X170612000Y-69011800D01*
X170840000Y-49936400D02*
X168027400Y-52749000D01*
X168027400Y-52749000D02*
X164929800Y-49651400D01*
X164929800Y-49651400D02*
X148214600Y-49651400D01*
X148214600Y-49651400D02*
X147066000Y-50800000D01*
X67818000Y-88900000D02*
X67818000Y-104826000D01*
X67818000Y-104826000D02*
X70866000Y-107874000D01*
X199814000Y-69809400D02*
X199929900Y-69809400D01*
X199929900Y-69809400D02*
X204114000Y-65625300D01*
X204114000Y-65625300D02*
X204114000Y-49936400D01*
X170612000Y-69011800D02*
X168038600Y-71585200D01*
X168038600Y-71585200D02*
X168038600Y-87012600D01*
X168038600Y-87012600D02*
X169926000Y-88900000D01*
X67818000Y-126949000D02*
X67818000Y-110922000D01*
X67818000Y-110922000D02*
X70866000Y-107874000D01*
X123444000Y-146177000D02*
X114170300Y-136903300D01*
X114170300Y-136903300D02*
X114170300Y-131010300D01*
X114170300Y-131010300D02*
X110084000Y-126924000D01*
X225983000Y-86832600D02*
X225983000Y-104552300D01*
X225983000Y-104552300D02*
X219917600Y-110617700D01*
X219917600Y-110617700D02*
X219917600Y-122347400D01*
X219917600Y-122347400D02*
X215265000Y-127000000D01*
X213741000Y-146050000D02*
X213741000Y-128524000D01*
X213741000Y-128524000D02*
X215265000Y-127000000D01*
X94742000Y-145923000D02*
X96321400Y-144343600D01*
X96321400Y-144343600D02*
X96321400Y-137829300D01*
X96321400Y-137829300D02*
X92456000Y-133963900D01*
X92456000Y-133963900D02*
X92456000Y-126898000D01*
X96164400Y-130480000D02*
X96164400Y-130907600D01*
X96164400Y-130907600D02*
X99768600Y-134511800D01*
X99768600Y-134511800D02*
X99768600Y-148307600D01*
X99768600Y-148307600D02*
X100940000Y-149479000D01*
X153340000Y-111404000D02*
X152283800Y-112460200D01*
X152283800Y-112460200D02*
X152283800Y-119756900D01*
X152283800Y-119756900D02*
X153506500Y-120979600D01*
X153506500Y-120979600D02*
X153506500Y-130236500D01*
X153506500Y-130236500D02*
X153314000Y-130429000D01*
X177343100Y-130250900D02*
X177343100Y-118724400D01*
X177343100Y-118724400D02*
X176067800Y-117449100D01*
X176067800Y-117449100D02*
X176067800Y-112451200D01*
X176067800Y-112451200D02*
X177165000Y-111354000D01*
X177165000Y-130429000D02*
X177343100Y-130250900D01*
X200939000Y-130429000D02*
X183737400Y-130429000D01*
X183737400Y-130429000D02*
X182555800Y-131610600D01*
X182555800Y-131610600D02*
X178702800Y-131610600D01*
X178702800Y-131610600D02*
X177343100Y-130250900D01*
X96215200Y-92329000D02*
X95155000Y-93389200D01*
X95155000Y-93389200D02*
X95155000Y-100473100D01*
X95155000Y-100473100D02*
X96408800Y-101726900D01*
X96408800Y-101726900D02*
X96408800Y-111160000D01*
X96408800Y-111160000D02*
X96189800Y-111379000D01*
X96139000Y-73304400D02*
X95041800Y-74401600D01*
X95041800Y-74401600D02*
X95041800Y-79399500D01*
X95041800Y-79399500D02*
X96355200Y-80712900D01*
X96355200Y-80712900D02*
X96355200Y-92189000D01*
X96355200Y-92189000D02*
X96215200Y-92329000D01*
X220015000Y-130505000D02*
X218958800Y-131561200D01*
X218958800Y-131561200D02*
X218958800Y-138857900D01*
X218958800Y-138857900D02*
X220181500Y-140080600D01*
X220181500Y-140080600D02*
X220181500Y-149311500D01*
X220181500Y-149311500D02*
X219989000Y-149504000D01*
X58115200Y-73304400D02*
X57059000Y-74360600D01*
X57059000Y-74360600D02*
X57059000Y-79634500D01*
X57059000Y-79634500D02*
X58286400Y-80861900D01*
X58286400Y-80861900D02*
X58286400Y-92183200D01*
X58286400Y-92183200D02*
X58115200Y-92354400D01*
X58064400Y-54254400D02*
X57004200Y-55314600D01*
X57004200Y-55314600D02*
X57004200Y-62249700D01*
X57004200Y-62249700D02*
X58253300Y-63498800D01*
X58253300Y-63498800D02*
X58253300Y-73166300D01*
X58253300Y-73166300D02*
X58115200Y-73304400D01*
X95041800Y-55326200D02*
X96139000Y-54229000D01*
X96139000Y-73304400D02*
X96335600Y-73107800D01*
X96335600Y-73107800D02*
X96335600Y-61617900D01*
X96335600Y-61617900D02*
X95041800Y-60324100D01*
X95041800Y-60324100D02*
X95041800Y-55326200D01*
X95041800Y-55326200D02*
X92748500Y-53032900D01*
X92748500Y-53032900D02*
X78335900Y-53032900D01*
X78335900Y-53032900D02*
X77165200Y-54203600D01*
X152253800Y-55289200D02*
X152253800Y-62325900D01*
X152253800Y-62325900D02*
X153477900Y-63550000D01*
X153477900Y-63550000D02*
X153477900Y-73216700D01*
X153477900Y-73216700D02*
X153314000Y-73380600D01*
X153314000Y-54229000D02*
X152253800Y-55289200D01*
X152253800Y-55289200D02*
X149994100Y-53029500D01*
X149994100Y-53029500D02*
X135565500Y-53029500D01*
X135565500Y-53029500D02*
X134366000Y-54229000D01*
X215265000Y-82854800D02*
X214204800Y-83915000D01*
X214204800Y-83915000D02*
X214204800Y-90196300D01*
X214204800Y-90196300D02*
X215436300Y-91427800D01*
X215436300Y-91427800D02*
X215436300Y-93672600D01*
X215436300Y-93672600D02*
X213936500Y-95172400D01*
X213936500Y-95172400D02*
X210474400Y-95172400D01*
X210474400Y-95172400D02*
X208180300Y-97466500D01*
X208180300Y-97466500D02*
X208180300Y-109120300D01*
X208180300Y-109120300D02*
X210464000Y-111404000D01*
X174777000Y-92354400D02*
X177334800Y-89796600D01*
X177334800Y-89796600D02*
X177334800Y-81628800D01*
X177334800Y-81628800D02*
X176105300Y-80399300D01*
X176105300Y-80399300D02*
X176105300Y-74389500D01*
X176105300Y-74389500D02*
X177165000Y-73329800D01*
X177165000Y-111354000D02*
X177165000Y-101992300D01*
X177165000Y-101992300D02*
X173716800Y-98544100D01*
X173716800Y-98544100D02*
X173716800Y-93414600D01*
X173716800Y-93414600D02*
X174777000Y-92354400D01*
X115341000Y-130480000D02*
X115341000Y-130907600D01*
X115341000Y-130907600D02*
X118945200Y-134511800D01*
X118945200Y-134511800D02*
X118945200Y-138934200D01*
X118945200Y-138934200D02*
X129515000Y-149504000D01*
X77139800Y-130429000D02*
X76055100Y-131513700D01*
X76055100Y-131513700D02*
X76055100Y-136987800D01*
X76055100Y-136987800D02*
X77300800Y-138233500D01*
X77300800Y-138233500D02*
X77300800Y-141190100D01*
X77300800Y-141190100D02*
X70313400Y-148177500D01*
X70313400Y-148177500D02*
X68941300Y-148177500D01*
X68941300Y-148177500D02*
X67614800Y-149504000D01*
X58089800Y-130429000D02*
X58286400Y-130232400D01*
X58286400Y-130232400D02*
X58286400Y-118792900D01*
X58286400Y-118792900D02*
X56992600Y-117499100D01*
X56992600Y-117499100D02*
X56992600Y-112501200D01*
X56992600Y-112501200D02*
X58089800Y-111404000D01*
X134290000Y-92303600D02*
X134480100Y-92113500D01*
X134480100Y-92113500D02*
X134480100Y-80738200D01*
X134480100Y-80738200D02*
X133166800Y-79424900D01*
X133166800Y-79424900D02*
X133166800Y-74427000D01*
X133166800Y-74427000D02*
X134264000Y-73329800D01*
X153314000Y-73380600D02*
X152245800Y-74448800D01*
X152245800Y-74448800D02*
X152245800Y-81417500D01*
X152245800Y-81417500D02*
X153503900Y-82675600D01*
X153503900Y-82675600D02*
X153503900Y-92215900D01*
X153503900Y-92215900D02*
X153340000Y-92379800D01*
X177165000Y-54279800D02*
X176104800Y-55340000D01*
X176104800Y-55340000D02*
X176104800Y-62376700D01*
X176104800Y-62376700D02*
X177328900Y-63600800D01*
X177328900Y-63600800D02*
X177328900Y-73165900D01*
X177328900Y-73165900D02*
X177165000Y-73329800D01*
X50165000Y-93345000D02*
X50165000Y-95834200D01*
X50165000Y-95834200D02*
X56845200Y-102514400D01*
X46431200Y-105270000D02*
X47431500Y-105270000D01*
X50165000Y-100965000D02*
X50165000Y-102090300D01*
X50165000Y-102090300D02*
X47431500Y-104823800D01*
X47431500Y-104823800D02*
X47431500Y-105270000D01*
X50165000Y-112903000D02*
X50165000Y-114909200D01*
X50165000Y-114909200D02*
X56819800Y-121564000D01*
X188900000Y-142799000D02*
X188900000Y-141673700D01*
X169291000Y-120142000D02*
X169291000Y-124214300D01*
X169291000Y-124214300D02*
X177137700Y-132061000D01*
X177137700Y-132061000D02*
X178298600Y-132061000D01*
X178298600Y-132061000D02*
X187911300Y-141673700D01*
X187911300Y-141673700D02*
X188900000Y-141673700D01*
X46431200Y-107270000D02*
X48589400Y-109428200D01*
X48589400Y-109428200D02*
X48589400Y-117822100D01*
X48589400Y-117822100D02*
X50165000Y-119397700D01*
X50165000Y-120523000D02*
X50165000Y-119397700D01*
X50165000Y-131826000D02*
X50165000Y-133934200D01*
X50165000Y-133934200D02*
X56819800Y-140589000D01*
X46431200Y-109270000D02*
X48139100Y-110977900D01*
X48139100Y-110977900D02*
X48139100Y-136294800D01*
X48139100Y-136294800D02*
X50165000Y-138320700D01*
X50165000Y-139446000D02*
X50165000Y-138320700D01*
X56502300Y-145834000D02*
X57627600Y-145834000D01*
X57627600Y-145834000D02*
X66344800Y-154551200D01*
X66344800Y-154551200D02*
X66344800Y-159664000D01*
X48882300Y-145834000D02*
X48882300Y-144708700D01*
X48882300Y-144708700D02*
X47688700Y-143515100D01*
X47688700Y-143515100D02*
X47688700Y-112527500D01*
X47688700Y-112527500D02*
X46431200Y-111270000D01*
X193040000Y-158242000D02*
X191914700Y-158242000D01*
X174244000Y-158369000D02*
X175369300Y-158369000D01*
X175369300Y-158369000D02*
X178142300Y-161142000D01*
X178142300Y-161142000D02*
X189014700Y-161142000D01*
X189014700Y-161142000D02*
X191914700Y-158242000D01*
X69342000Y-93726000D02*
X69342000Y-95986600D01*
X69342000Y-95986600D02*
X75844400Y-102489000D01*
X69342000Y-112649000D02*
X69342000Y-115036800D01*
X69342000Y-115036800D02*
X75895200Y-121590000D01*
X69215000Y-131826000D02*
X69215000Y-133934200D01*
X69215000Y-133934200D02*
X75869800Y-140589000D01*
X92964000Y-150622000D02*
X92964000Y-152933000D01*
X92964000Y-152933000D02*
X99670000Y-159639000D01*
X88265000Y-93472000D02*
X88265000Y-95808800D01*
X88265000Y-95808800D02*
X94945200Y-102489000D01*
X88265000Y-112649000D02*
X88265000Y-114884200D01*
X88265000Y-114884200D02*
X94919800Y-121539000D01*
X88265000Y-131953000D02*
X88265000Y-134010600D01*
X88265000Y-134010600D02*
X94894400Y-140640000D01*
X121666000Y-150495000D02*
X121666000Y-153085000D01*
X121666000Y-153085000D02*
X128245000Y-159664000D01*
X107315000Y-93599000D02*
X107315000Y-95859400D01*
X107315000Y-95859400D02*
X113970000Y-102514400D01*
X107315000Y-112649000D02*
X107315000Y-114909000D01*
X107315000Y-114909000D02*
X113970000Y-121564000D01*
X107315000Y-131699000D02*
X107315000Y-133884000D01*
X107315000Y-133884000D02*
X114071000Y-140640000D01*
X150241000Y-150876000D02*
X150241000Y-153085000D01*
X150241000Y-153085000D02*
X156820000Y-159664000D01*
X126492000Y-93726000D02*
X126492000Y-95935600D01*
X126492000Y-95935600D02*
X133020000Y-102463600D01*
X126365000Y-112649000D02*
X126365000Y-114935000D01*
X126365000Y-114935000D02*
X133020000Y-121590000D01*
X126365000Y-131699000D02*
X126365000Y-133934000D01*
X126365000Y-133934000D02*
X133045000Y-140614000D01*
X174244000Y-150749000D02*
X174244000Y-153263000D01*
X174244000Y-153263000D02*
X180645000Y-159664000D01*
X145415000Y-93472000D02*
X145415000Y-95884800D01*
X145415000Y-95884800D02*
X152070000Y-102539800D01*
X145415000Y-112649000D02*
X145415000Y-114909000D01*
X145415000Y-114909000D02*
X152070000Y-121564000D01*
X152044000Y-140589000D02*
X145415000Y-133960000D01*
X145415000Y-133960000D02*
X145415000Y-131699000D01*
X193040000Y-150622000D02*
X193040000Y-152984000D01*
X193040000Y-152984000D02*
X199695000Y-159639000D01*
X166878000Y-93472000D02*
X166878000Y-95885400D01*
X166878000Y-95885400D02*
X173507000Y-102514400D01*
X169291000Y-112522000D02*
X169291000Y-114910000D01*
X169291000Y-114910000D02*
X175895000Y-121514000D01*
X169291000Y-131699000D02*
X169291000Y-133985000D01*
X169291000Y-133985000D02*
X175895000Y-140589000D01*
X212090000Y-150749000D02*
X212090000Y-153035000D01*
X212090000Y-153035000D02*
X218719000Y-159664000D01*
X199398000Y-107996000D02*
X200763300Y-107996000D01*
X200763300Y-107996000D02*
X208743700Y-115976400D01*
X208743700Y-115976400D02*
X208743700Y-121113700D01*
X208743700Y-121113700D02*
X209194000Y-121564000D01*
X193040000Y-131699000D02*
X193040000Y-133960000D01*
X193040000Y-133960000D02*
X199669000Y-140589000D01*
X65278000Y-88823800D02*
X64152700Y-88823800D01*
X64152700Y-88823800D02*
X64152700Y-88856900D01*
X64152700Y-88856900D02*
X60655200Y-92354400D01*
X83058000Y-88900000D02*
X83058000Y-90025300D01*
X83058000Y-90025300D02*
X81958100Y-90025300D01*
X81958100Y-90025300D02*
X79654400Y-92329000D01*
X143383000Y-88773000D02*
X140360600Y-88773000D01*
X140360600Y-88773000D02*
X136830000Y-92303600D01*
X160909000Y-88773000D02*
X159486800Y-88773000D01*
X159486800Y-88773000D02*
X155880000Y-92379800D01*
X185166000Y-88900000D02*
X180771400Y-88900000D01*
X180771400Y-88900000D02*
X177317000Y-92354400D01*
X219304000Y-107950000D02*
X218178700Y-107950000D01*
X218178700Y-107950000D02*
X214724700Y-111404000D01*
X214724700Y-111404000D02*
X213004000Y-111404000D01*
X66852800Y-107925000D02*
X64108800Y-107925000D01*
X64108800Y-107925000D02*
X60629800Y-111404000D01*
X86106000Y-107874000D02*
X83261200Y-107874000D01*
X83261200Y-107874000D02*
X79705200Y-111430000D01*
X105156000Y-107950000D02*
X102158800Y-107950000D01*
X102158800Y-107950000D02*
X98729800Y-111379000D01*
X124079000Y-107950000D02*
X121234000Y-107950000D01*
X121234000Y-107950000D02*
X117780000Y-111404000D01*
X143129000Y-107950000D02*
X140310000Y-107950000D01*
X140310000Y-107950000D02*
X136830000Y-111430000D01*
X161900000Y-107925000D02*
X159359000Y-107925000D01*
X159359000Y-107925000D02*
X155880000Y-111404000D01*
X65379600Y-126924000D02*
X64134800Y-126924000D01*
X64134800Y-126924000D02*
X60629800Y-130429000D01*
X83058000Y-126949000D02*
X83058000Y-128074300D01*
X83058000Y-128074300D02*
X82034500Y-128074300D01*
X82034500Y-128074300D02*
X79679800Y-130429000D01*
X107696000Y-126898000D02*
X106570700Y-126898000D01*
X106570700Y-126898000D02*
X102988700Y-130480000D01*
X102988700Y-130480000D02*
X98704400Y-130480000D01*
X125324000Y-126924000D02*
X121437000Y-126924000D01*
X121437000Y-126924000D02*
X117881000Y-130480000D01*
X143180000Y-126924000D02*
X140385000Y-126924000D01*
X140385000Y-126924000D02*
X136855000Y-130454000D01*
X161290000Y-126873000D02*
X159410000Y-126873000D01*
X159410000Y-126873000D02*
X155854000Y-130429000D01*
X184429000Y-126949000D02*
X183185000Y-126949000D01*
X183185000Y-126949000D02*
X179705000Y-130429000D01*
X211480000Y-126949000D02*
X206959000Y-126949000D01*
X206959000Y-126949000D02*
X203479000Y-130429000D01*
X76454000Y-145923000D02*
X75328700Y-145923000D01*
X75328700Y-145923000D02*
X71747700Y-149504000D01*
X71747700Y-149504000D02*
X70154800Y-149504000D01*
X109982000Y-145923000D02*
X107036000Y-145923000D01*
X107036000Y-145923000D02*
X103480000Y-149479000D01*
X167259000Y-146050000D02*
X164084000Y-146050000D01*
X164084000Y-146050000D02*
X160630000Y-149504000D01*
X190881000Y-145923000D02*
X188036000Y-145923000D01*
X188036000Y-145923000D02*
X184455000Y-149504000D01*
X209550000Y-146050000D02*
X206934000Y-146050000D01*
X206934000Y-146050000D02*
X203505000Y-149479000D01*
X228981000Y-146050000D02*
X225983000Y-146050000D01*
X225983000Y-146050000D02*
X222529000Y-149504000D01*
X63169800Y-138049000D02*
X63169800Y-135825400D01*
X63169800Y-135825400D02*
X59449600Y-132105200D01*
X59449600Y-132105200D02*
X59449600Y-122744200D01*
X59449600Y-122744200D02*
X63169800Y-119024000D01*
X72694800Y-157124000D02*
X72694800Y-155102500D01*
X72694800Y-155102500D02*
X69201900Y-151609600D01*
X69201900Y-151609600D02*
X68061200Y-151609600D01*
X68061200Y-151609600D02*
X63169800Y-146718200D01*
X63169800Y-146718200D02*
X63169800Y-138049000D01*
X63195200Y-99974400D02*
X63195200Y-96987700D01*
X63195200Y-96987700D02*
X66424100Y-93758800D01*
X66424100Y-93758800D02*
X66424100Y-84153300D01*
X66424100Y-84153300D02*
X63195200Y-80924400D01*
X63169800Y-119024000D02*
X63169800Y-116911600D01*
X63169800Y-116911600D02*
X59414600Y-113156400D01*
X59414600Y-113156400D02*
X59414600Y-103755000D01*
X59414600Y-103755000D02*
X63195200Y-99974400D01*
X63144400Y-61874400D02*
X59440000Y-65578800D01*
X59440000Y-65578800D02*
X59440000Y-75056800D01*
X59440000Y-75056800D02*
X63195200Y-78812000D01*
X63195200Y-78812000D02*
X63195200Y-80924400D01*
X82219800Y-80924400D02*
X78439200Y-84705000D01*
X78439200Y-84705000D02*
X78439200Y-94081400D01*
X78439200Y-94081400D02*
X82194400Y-97836600D01*
X82194400Y-97836600D02*
X82194400Y-99949000D01*
X82245200Y-61823600D02*
X78464600Y-65604200D01*
X78464600Y-65604200D02*
X78464600Y-75056800D01*
X78464600Y-75056800D02*
X82219800Y-78812000D01*
X82219800Y-78812000D02*
X82219800Y-80924400D01*
X106020000Y-157099000D02*
X111999800Y-163078800D01*
X111999800Y-163078800D02*
X133374800Y-163078800D01*
X133374800Y-163078800D02*
X134482000Y-164186000D01*
X82219800Y-138049000D02*
X82411300Y-138049000D01*
X82411300Y-138049000D02*
X101461300Y-157099000D01*
X101461300Y-157099000D02*
X106020000Y-157099000D01*
X82245200Y-119050000D02*
X78464600Y-122830600D01*
X78464600Y-122830600D02*
X78464600Y-132181400D01*
X78464600Y-132181400D02*
X82219800Y-135936600D01*
X82219800Y-135936600D02*
X82219800Y-138049000D01*
X82194400Y-99949000D02*
X78490000Y-103653400D01*
X78490000Y-103653400D02*
X78490000Y-113182400D01*
X78490000Y-113182400D02*
X82245200Y-116937600D01*
X82245200Y-116937600D02*
X82245200Y-119050000D01*
X136482000Y-164186000D02*
X136482000Y-163185700D01*
X134595000Y-157124000D02*
X134595000Y-161298700D01*
X134595000Y-161298700D02*
X136482000Y-163185700D01*
X101244400Y-138100000D02*
X105209800Y-142065400D01*
X105209800Y-142065400D02*
X116435600Y-142065400D01*
X116435600Y-142065400D02*
X126232700Y-151862500D01*
X126232700Y-151862500D02*
X131445900Y-151862500D01*
X131445900Y-151862500D02*
X134595000Y-155011600D01*
X134595000Y-155011600D02*
X134595000Y-157124000D01*
X101244400Y-138100000D02*
X101244400Y-135350700D01*
X101244400Y-135350700D02*
X97489400Y-131595700D01*
X97489400Y-131595700D02*
X97489400Y-122779400D01*
X97489400Y-122779400D02*
X101269800Y-118999000D01*
X101295200Y-99949000D02*
X97516400Y-103727800D01*
X97516400Y-103727800D02*
X97516400Y-113133200D01*
X97516400Y-113133200D02*
X101269800Y-116886600D01*
X101269800Y-116886600D02*
X101269800Y-118999000D01*
X101219000Y-61849000D02*
X97463800Y-65604200D01*
X97463800Y-65604200D02*
X97463800Y-75056800D01*
X97463800Y-75056800D02*
X101219000Y-78812000D01*
X101219000Y-78812000D02*
X101219000Y-80924400D01*
X101219000Y-80924400D02*
X101219000Y-99872800D01*
X101219000Y-99872800D02*
X101295200Y-99949000D01*
X120421000Y-138100000D02*
X120421000Y-135350700D01*
X120421000Y-135350700D02*
X116665800Y-131595500D01*
X116665800Y-131595500D02*
X116665800Y-122678200D01*
X116665800Y-122678200D02*
X120320000Y-119024000D01*
X120421000Y-138100000D02*
X122307900Y-138100000D01*
X122307900Y-138100000D02*
X138482000Y-154274100D01*
X138482000Y-154274100D02*
X138482000Y-164186000D01*
X120320000Y-99974400D02*
X116564800Y-103729600D01*
X116564800Y-103729600D02*
X116564800Y-113156400D01*
X116564800Y-113156400D02*
X120320000Y-116911600D01*
X120320000Y-116911600D02*
X120320000Y-119024000D01*
X120294000Y-80899000D02*
X120294000Y-99948400D01*
X120294000Y-99948400D02*
X120320000Y-99974400D01*
X120269000Y-61849000D02*
X116538800Y-65579200D01*
X116538800Y-65579200D02*
X116538800Y-75031400D01*
X116538800Y-75031400D02*
X120294000Y-78786600D01*
X120294000Y-78786600D02*
X120294000Y-80899000D01*
X139395000Y-138074000D02*
X140482000Y-139161000D01*
X140482000Y-139161000D02*
X140482000Y-164186000D01*
X139370000Y-119050000D02*
X135639800Y-122780200D01*
X135639800Y-122780200D02*
X135639800Y-132206400D01*
X135639800Y-132206400D02*
X139395000Y-135961600D01*
X139395000Y-135961600D02*
X139395000Y-138074000D01*
X139370000Y-99923600D02*
X135614800Y-103678800D01*
X135614800Y-103678800D02*
X135614800Y-113182400D01*
X135614800Y-113182400D02*
X139370000Y-116937600D01*
X139370000Y-116937600D02*
X139370000Y-119050000D01*
X139344000Y-80949800D02*
X135614800Y-84679000D01*
X135614800Y-84679000D02*
X135614800Y-94056000D01*
X135614800Y-94056000D02*
X139370000Y-97811200D01*
X139370000Y-97811200D02*
X139370000Y-99923600D01*
X139446000Y-61849000D02*
X135588800Y-65706200D01*
X135588800Y-65706200D02*
X135588800Y-75082200D01*
X135588800Y-75082200D02*
X139344000Y-78837400D01*
X139344000Y-78837400D02*
X139344000Y-80949800D01*
X158420000Y-99999800D02*
X154664800Y-103755000D01*
X154664800Y-103755000D02*
X154664800Y-113156400D01*
X154664800Y-113156400D02*
X158420000Y-116911600D01*
X158420000Y-116911600D02*
X158420000Y-119024000D01*
X158394000Y-81000600D02*
X154664800Y-84729800D01*
X154664800Y-84729800D02*
X154664800Y-94132200D01*
X154664800Y-94132200D02*
X158420000Y-97887400D01*
X158420000Y-97887400D02*
X158420000Y-99999800D01*
X158394000Y-138049000D02*
X158394000Y-141277300D01*
X158394000Y-141277300D02*
X152453900Y-147217400D01*
X152453900Y-147217400D02*
X152302000Y-147217400D01*
X152302000Y-147217400D02*
X142482000Y-157037400D01*
X142482000Y-157037400D02*
X142482000Y-164186000D01*
X158394000Y-61849000D02*
X154638800Y-65604200D01*
X154638800Y-65604200D02*
X154638800Y-75133000D01*
X154638800Y-75133000D02*
X158394000Y-78888200D01*
X158394000Y-78888200D02*
X158394000Y-81000600D01*
X182245000Y-138049000D02*
X182245000Y-140910500D01*
X182245000Y-140910500D02*
X175950000Y-147205500D01*
X175950000Y-147205500D02*
X175557100Y-147205500D01*
X175557100Y-147205500D02*
X160343300Y-162419300D01*
X160343300Y-162419300D02*
X146248700Y-162419300D01*
X146248700Y-162419300D02*
X144482000Y-164186000D01*
X182245000Y-80949800D02*
X182245000Y-85523300D01*
X182245000Y-85523300D02*
X176101800Y-91666500D01*
X176101800Y-91666500D02*
X176101800Y-94106800D01*
X176101800Y-94106800D02*
X179857000Y-97862000D01*
X179857000Y-97862000D02*
X179857000Y-99974400D01*
X182245000Y-61899800D02*
X178489800Y-65655000D01*
X178489800Y-65655000D02*
X178489800Y-75082200D01*
X178489800Y-75082200D02*
X182245000Y-78837400D01*
X182245000Y-78837400D02*
X182245000Y-80949800D01*
X179857000Y-99974400D02*
X182245000Y-102362400D01*
X182245000Y-102362400D02*
X182245000Y-118974000D01*
X146482000Y-164186000D02*
X159215500Y-164186000D01*
X159215500Y-164186000D02*
X175269900Y-148131600D01*
X175269900Y-148131600D02*
X175906700Y-148131600D01*
X175906700Y-148131600D02*
X179650800Y-144387500D01*
X179650800Y-144387500D02*
X199680500Y-144387500D01*
X199680500Y-144387500D02*
X206019000Y-138049000D01*
X215544000Y-119024000D02*
X213290600Y-121277400D01*
X213290600Y-121277400D02*
X213290600Y-131218100D01*
X213290600Y-131218100D02*
X206459700Y-138049000D01*
X206459700Y-138049000D02*
X206019000Y-138049000D01*
X220345000Y-90474800D02*
X222366200Y-92496000D01*
X222366200Y-92496000D02*
X222366200Y-107073700D01*
X222366200Y-107073700D02*
X218877500Y-110562400D01*
X218877500Y-110562400D02*
X218877500Y-116148900D01*
X218877500Y-116148900D02*
X216002400Y-119024000D01*
X216002400Y-119024000D02*
X215544000Y-119024000D01*
X215570000Y-61874400D02*
X215570000Y-62511300D01*
X215570000Y-62511300D02*
X222339800Y-69281100D01*
X222339800Y-69281100D02*
X222339800Y-81302800D01*
X222339800Y-81302800D02*
X220345000Y-83297600D01*
X220345000Y-83297600D02*
X220345000Y-90474800D01*
X225033000Y-88832600D02*
X224307700Y-88832600D01*
X224307700Y-88832600D02*
X222756200Y-87281100D01*
X222756200Y-87281100D02*
X222756200Y-83284400D01*
X222756200Y-83284400D02*
X223833000Y-82207600D01*
X225243000Y-79052400D02*
X225243000Y-80052700D01*
X225243000Y-80052700D02*
X223833000Y-81462700D01*
X223833000Y-81462700D02*
X223833000Y-82207600D01*
X223833000Y-84257600D02*
X226783000Y-84257600D01*
X226933000Y-88832600D02*
X226933000Y-84407600D01*
X226933000Y-84407600D02*
X226783000Y-84257600D01*
X226783000Y-82207600D02*
X226783000Y-76592400D01*
X226783000Y-76592400D02*
X225243000Y-75052400D01*
M02*
