%TF.GenerationSoftware,KiCad,Pcbnew,5.1.5+dfsg1-2build2*%
%TF.CreationDate,2021-08-29T12:06:32+02:00*%
%TF.ProjectId,BFK9kv2-right,42464b39-6b76-4322-9d72-696768742e6b,rev?*%
%TF.SameCoordinates,Original*%
%TF.FileFunction,Legend,Bot*%
%TF.FilePolarity,Positive*%
%FSLAX46Y46*%
G04 Gerber Fmt 4.6, Leading zero omitted, Abs format (unit mm)*
G04 Created by KiCad (PCBNEW 5.1.5+dfsg1-2build2) date 2021-08-29 12:06:32*
%MOMM*%
%LPD*%
G04 APERTURE LIST*
%ADD10C,0.150000*%
%ADD11C,0.300000*%
%ADD12C,0.120000*%
%ADD13C,5.702000*%
%ADD14C,1.792600*%
%ADD15C,2.302000*%
%ADD16C,1.852000*%
%ADD17C,4.102000*%
%ADD18O,1.452000X1.452000*%
%ADD19R,1.452000X1.452000*%
%ADD20R,0.902000X1.002000*%
%ADD21O,1.702000X1.702000*%
%ADD22C,1.702000*%
%ADD23R,1.702000X1.702000*%
G04 APERTURE END LIST*
D10*
X227810462Y-90537991D02*
X227667605Y-90585610D01*
X227619986Y-90633229D01*
X227572367Y-90728467D01*
X227572367Y-90871324D01*
X227619986Y-90966562D01*
X227667605Y-91014181D01*
X227762843Y-91061800D01*
X228143796Y-91061800D01*
X228143796Y-90061800D01*
X227810462Y-90061800D01*
X227715224Y-90109420D01*
X227667605Y-90157039D01*
X227619986Y-90252277D01*
X227619986Y-90347515D01*
X227667605Y-90442753D01*
X227715224Y-90490372D01*
X227810462Y-90537991D01*
X228143796Y-90537991D01*
X226572367Y-90966562D02*
X226619986Y-91014181D01*
X226762843Y-91061800D01*
X226858081Y-91061800D01*
X227000939Y-91014181D01*
X227096177Y-90918943D01*
X227143796Y-90823705D01*
X227191415Y-90633229D01*
X227191415Y-90490372D01*
X227143796Y-90299896D01*
X227096177Y-90204658D01*
X227000939Y-90109420D01*
X226858081Y-90061800D01*
X226762843Y-90061800D01*
X226619986Y-90109420D01*
X226572367Y-90157039D01*
X226000939Y-90490372D02*
X226096177Y-90442753D01*
X226143796Y-90395134D01*
X226191415Y-90299896D01*
X226191415Y-90252277D01*
X226143796Y-90157039D01*
X226096177Y-90109420D01*
X226000939Y-90061800D01*
X225810462Y-90061800D01*
X225715224Y-90109420D01*
X225667605Y-90157039D01*
X225619986Y-90252277D01*
X225619986Y-90299896D01*
X225667605Y-90395134D01*
X225715224Y-90442753D01*
X225810462Y-90490372D01*
X226000939Y-90490372D01*
X226096177Y-90537991D01*
X226143796Y-90585610D01*
X226191415Y-90680848D01*
X226191415Y-90871324D01*
X226143796Y-90966562D01*
X226096177Y-91014181D01*
X226000939Y-91061800D01*
X225810462Y-91061800D01*
X225715224Y-91014181D01*
X225667605Y-90966562D01*
X225619986Y-90871324D01*
X225619986Y-90680848D01*
X225667605Y-90585610D01*
X225715224Y-90537991D01*
X225810462Y-90490372D01*
X224667605Y-91061800D02*
X225239034Y-91061800D01*
X224953320Y-91061800D02*
X224953320Y-90061800D01*
X225048558Y-90204658D01*
X225143796Y-90299896D01*
X225239034Y-90347515D01*
X224334272Y-90061800D02*
X223667605Y-90061800D01*
X224096177Y-91061800D01*
X221376500Y-82597381D02*
X221376500Y-82025953D01*
X221376500Y-82311667D02*
X220376500Y-82311667D01*
X220519358Y-82216429D01*
X220614596Y-82121191D01*
X220662215Y-82025953D01*
X220376500Y-83216429D02*
X220376500Y-83311667D01*
X220424120Y-83406905D01*
X220471739Y-83454524D01*
X220566977Y-83502143D01*
X220757453Y-83549762D01*
X220995548Y-83549762D01*
X221186024Y-83502143D01*
X221281262Y-83454524D01*
X221328881Y-83406905D01*
X221376500Y-83311667D01*
X221376500Y-83216429D01*
X221328881Y-83121191D01*
X221281262Y-83073572D01*
X221186024Y-83025953D01*
X220995548Y-82978334D01*
X220757453Y-82978334D01*
X220566977Y-83025953D01*
X220471739Y-83073572D01*
X220424120Y-83121191D01*
X220376500Y-83216429D01*
X221376500Y-83978334D02*
X220376500Y-83978334D01*
X220995548Y-84073572D02*
X221376500Y-84359286D01*
X220709834Y-84359286D02*
X221090786Y-83978334D01*
X229523634Y-81803715D02*
X230190300Y-81803715D01*
X229142681Y-81565620D02*
X229856967Y-81327524D01*
X229856967Y-81946572D01*
X229190300Y-82232286D02*
X229190300Y-82898953D01*
X230190300Y-82470381D01*
X229190300Y-83470381D02*
X229190300Y-83565620D01*
X229237920Y-83660858D01*
X229285539Y-83708477D01*
X229380777Y-83756096D01*
X229571253Y-83803715D01*
X229809348Y-83803715D01*
X229999824Y-83756096D01*
X230095062Y-83708477D01*
X230142681Y-83660858D01*
X230190300Y-83565620D01*
X230190300Y-83470381D01*
X230142681Y-83375143D01*
X230095062Y-83327524D01*
X229999824Y-83279905D01*
X229809348Y-83232286D01*
X229571253Y-83232286D01*
X229380777Y-83279905D01*
X229285539Y-83327524D01*
X229237920Y-83375143D01*
X229190300Y-83470381D01*
X230190300Y-84803715D02*
X229714110Y-84470381D01*
X230190300Y-84232286D02*
X229190300Y-84232286D01*
X229190300Y-84613239D01*
X229237920Y-84708477D01*
X229285539Y-84756096D01*
X229380777Y-84803715D01*
X229523634Y-84803715D01*
X229618872Y-84756096D01*
X229666491Y-84708477D01*
X229714110Y-84613239D01*
X229714110Y-84232286D01*
D11*
X231043491Y-73584191D02*
X231043491Y-72084191D01*
X230186348Y-73584191D01*
X230186348Y-72084191D01*
X228614920Y-73441334D02*
X228686348Y-73512762D01*
X228900634Y-73584191D01*
X229043491Y-73584191D01*
X229257777Y-73512762D01*
X229400634Y-73369905D01*
X229472062Y-73227048D01*
X229543491Y-72941334D01*
X229543491Y-72727048D01*
X229472062Y-72441334D01*
X229400634Y-72298477D01*
X229257777Y-72155620D01*
X229043491Y-72084191D01*
X228900634Y-72084191D01*
X228686348Y-72155620D01*
X228614920Y-72227048D01*
X231164034Y-75997191D02*
X231164034Y-74497191D01*
X230664034Y-75568620D01*
X230164034Y-74497191D01*
X230164034Y-75997191D01*
X228592605Y-75854334D02*
X228664034Y-75925762D01*
X228878320Y-75997191D01*
X229021177Y-75997191D01*
X229235462Y-75925762D01*
X229378320Y-75782905D01*
X229449748Y-75640048D01*
X229521177Y-75354334D01*
X229521177Y-75140048D01*
X229449748Y-74854334D01*
X229378320Y-74711477D01*
X229235462Y-74568620D01*
X229021177Y-74497191D01*
X228878320Y-74497191D01*
X228664034Y-74568620D01*
X228592605Y-74640048D01*
X227949748Y-74497191D02*
X227949748Y-75711477D01*
X227878320Y-75854334D01*
X227806891Y-75925762D01*
X227664034Y-75997191D01*
X227378320Y-75997191D01*
X227235462Y-75925762D01*
X227164034Y-75854334D01*
X227092605Y-75711477D01*
X227092605Y-74497191D01*
X231179120Y-77978391D02*
X231179120Y-76478391D01*
X230607691Y-76478391D01*
X230464834Y-76549820D01*
X230393405Y-76621248D01*
X230321977Y-76764105D01*
X230321977Y-76978391D01*
X230393405Y-77121248D01*
X230464834Y-77192677D01*
X230607691Y-77264105D01*
X231179120Y-77264105D01*
X229821977Y-76478391D02*
X229464834Y-77978391D01*
X229179120Y-76906962D01*
X228893405Y-77978391D01*
X228536262Y-76478391D01*
X227107691Y-77978391D02*
X227607691Y-77264105D01*
X227964834Y-77978391D02*
X227964834Y-76478391D01*
X227393405Y-76478391D01*
X227250548Y-76549820D01*
X227179120Y-76621248D01*
X227107691Y-76764105D01*
X227107691Y-76978391D01*
X227179120Y-77121248D01*
X227250548Y-77192677D01*
X227393405Y-77264105D01*
X227964834Y-77264105D01*
X230245777Y-78658020D02*
X230388634Y-78586591D01*
X230602920Y-78586591D01*
X230817205Y-78658020D01*
X230960062Y-78800877D01*
X231031491Y-78943734D01*
X231102920Y-79229448D01*
X231102920Y-79443734D01*
X231031491Y-79729448D01*
X230960062Y-79872305D01*
X230817205Y-80015162D01*
X230602920Y-80086591D01*
X230460062Y-80086591D01*
X230245777Y-80015162D01*
X230174348Y-79943734D01*
X230174348Y-79443734D01*
X230460062Y-79443734D01*
X229531491Y-80086591D02*
X229531491Y-78586591D01*
X228674348Y-80086591D01*
X228674348Y-78586591D01*
X227960062Y-80086591D02*
X227960062Y-78586591D01*
X227602920Y-78586591D01*
X227388634Y-78658020D01*
X227245777Y-78800877D01*
X227174348Y-78943734D01*
X227102920Y-79229448D01*
X227102920Y-79443734D01*
X227174348Y-79729448D01*
X227245777Y-79872305D01*
X227388634Y-80015162D01*
X227602920Y-80086591D01*
X227960062Y-80086591D01*
D10*
X146724666Y-162358342D02*
X146772285Y-162405961D01*
X146915142Y-162453580D01*
X147010380Y-162453580D01*
X147153238Y-162405961D01*
X147248476Y-162310723D01*
X147296095Y-162215485D01*
X147343714Y-162025009D01*
X147343714Y-161882152D01*
X147296095Y-161691676D01*
X147248476Y-161596438D01*
X147153238Y-161501200D01*
X147010380Y-161453580D01*
X146915142Y-161453580D01*
X146772285Y-161501200D01*
X146724666Y-161548819D01*
X146153238Y-161882152D02*
X146248476Y-161834533D01*
X146296095Y-161786914D01*
X146343714Y-161691676D01*
X146343714Y-161644057D01*
X146296095Y-161548819D01*
X146248476Y-161501200D01*
X146153238Y-161453580D01*
X145962761Y-161453580D01*
X145867523Y-161501200D01*
X145819904Y-161548819D01*
X145772285Y-161644057D01*
X145772285Y-161691676D01*
X145819904Y-161786914D01*
X145867523Y-161834533D01*
X145962761Y-161882152D01*
X146153238Y-161882152D01*
X146248476Y-161929771D01*
X146296095Y-161977390D01*
X146343714Y-162072628D01*
X146343714Y-162263104D01*
X146296095Y-162358342D01*
X146248476Y-162405961D01*
X146153238Y-162453580D01*
X145962761Y-162453580D01*
X145867523Y-162405961D01*
X145819904Y-162358342D01*
X145772285Y-162263104D01*
X145772285Y-162072628D01*
X145819904Y-161977390D01*
X145867523Y-161929771D01*
X145962761Y-161882152D01*
X144667266Y-162383742D02*
X144714885Y-162431361D01*
X144857742Y-162478980D01*
X144952980Y-162478980D01*
X145095838Y-162431361D01*
X145191076Y-162336123D01*
X145238695Y-162240885D01*
X145286314Y-162050409D01*
X145286314Y-161907552D01*
X145238695Y-161717076D01*
X145191076Y-161621838D01*
X145095838Y-161526600D01*
X144952980Y-161478980D01*
X144857742Y-161478980D01*
X144714885Y-161526600D01*
X144667266Y-161574219D01*
X144333933Y-161478980D02*
X143667266Y-161478980D01*
X144095838Y-162478980D01*
X142813066Y-162383742D02*
X142860685Y-162431361D01*
X143003542Y-162478980D01*
X143098780Y-162478980D01*
X143241638Y-162431361D01*
X143336876Y-162336123D01*
X143384495Y-162240885D01*
X143432114Y-162050409D01*
X143432114Y-161907552D01*
X143384495Y-161717076D01*
X143336876Y-161621838D01*
X143241638Y-161526600D01*
X143098780Y-161478980D01*
X143003542Y-161478980D01*
X142860685Y-161526600D01*
X142813066Y-161574219D01*
X141955923Y-161478980D02*
X142146400Y-161478980D01*
X142241638Y-161526600D01*
X142289257Y-161574219D01*
X142384495Y-161717076D01*
X142432114Y-161907552D01*
X142432114Y-162288504D01*
X142384495Y-162383742D01*
X142336876Y-162431361D01*
X142241638Y-162478980D01*
X142051161Y-162478980D01*
X141955923Y-162431361D01*
X141908304Y-162383742D01*
X141860685Y-162288504D01*
X141860685Y-162050409D01*
X141908304Y-161955171D01*
X141955923Y-161907552D01*
X142051161Y-161859933D01*
X142241638Y-161859933D01*
X142336876Y-161907552D01*
X142384495Y-161955171D01*
X142432114Y-162050409D01*
X140831866Y-162383742D02*
X140879485Y-162431361D01*
X141022342Y-162478980D01*
X141117580Y-162478980D01*
X141260438Y-162431361D01*
X141355676Y-162336123D01*
X141403295Y-162240885D01*
X141450914Y-162050409D01*
X141450914Y-161907552D01*
X141403295Y-161717076D01*
X141355676Y-161621838D01*
X141260438Y-161526600D01*
X141117580Y-161478980D01*
X141022342Y-161478980D01*
X140879485Y-161526600D01*
X140831866Y-161574219D01*
X139927104Y-161478980D02*
X140403295Y-161478980D01*
X140450914Y-161955171D01*
X140403295Y-161907552D01*
X140308057Y-161859933D01*
X140069961Y-161859933D01*
X139974723Y-161907552D01*
X139927104Y-161955171D01*
X139879485Y-162050409D01*
X139879485Y-162288504D01*
X139927104Y-162383742D01*
X139974723Y-162431361D01*
X140069961Y-162478980D01*
X140308057Y-162478980D01*
X140403295Y-162431361D01*
X140450914Y-162383742D01*
X138774466Y-162358342D02*
X138822085Y-162405961D01*
X138964942Y-162453580D01*
X139060180Y-162453580D01*
X139203038Y-162405961D01*
X139298276Y-162310723D01*
X139345895Y-162215485D01*
X139393514Y-162025009D01*
X139393514Y-161882152D01*
X139345895Y-161691676D01*
X139298276Y-161596438D01*
X139203038Y-161501200D01*
X139060180Y-161453580D01*
X138964942Y-161453580D01*
X138822085Y-161501200D01*
X138774466Y-161548819D01*
X137917323Y-161786914D02*
X137917323Y-162453580D01*
X138155419Y-161405961D02*
X138393514Y-162120247D01*
X137774466Y-162120247D01*
X136767866Y-162383742D02*
X136815485Y-162431361D01*
X136958342Y-162478980D01*
X137053580Y-162478980D01*
X137196438Y-162431361D01*
X137291676Y-162336123D01*
X137339295Y-162240885D01*
X137386914Y-162050409D01*
X137386914Y-161907552D01*
X137339295Y-161717076D01*
X137291676Y-161621838D01*
X137196438Y-161526600D01*
X137053580Y-161478980D01*
X136958342Y-161478980D01*
X136815485Y-161526600D01*
X136767866Y-161574219D01*
X136434533Y-161478980D02*
X135815485Y-161478980D01*
X136148819Y-161859933D01*
X136005961Y-161859933D01*
X135910723Y-161907552D01*
X135863104Y-161955171D01*
X135815485Y-162050409D01*
X135815485Y-162288504D01*
X135863104Y-162383742D01*
X135910723Y-162431361D01*
X136005961Y-162478980D01*
X136291676Y-162478980D01*
X136386914Y-162431361D01*
X136434533Y-162383742D01*
X134761266Y-162383742D02*
X134808885Y-162431361D01*
X134951742Y-162478980D01*
X135046980Y-162478980D01*
X135189838Y-162431361D01*
X135285076Y-162336123D01*
X135332695Y-162240885D01*
X135380314Y-162050409D01*
X135380314Y-161907552D01*
X135332695Y-161717076D01*
X135285076Y-161621838D01*
X135189838Y-161526600D01*
X135046980Y-161478980D01*
X134951742Y-161478980D01*
X134808885Y-161526600D01*
X134761266Y-161574219D01*
X134380314Y-161574219D02*
X134332695Y-161526600D01*
X134237457Y-161478980D01*
X133999361Y-161478980D01*
X133904123Y-161526600D01*
X133856504Y-161574219D01*
X133808885Y-161669457D01*
X133808885Y-161764695D01*
X133856504Y-161907552D01*
X134427933Y-162478980D01*
X133808885Y-162478980D01*
X132602266Y-162409142D02*
X132649885Y-162456761D01*
X132792742Y-162504380D01*
X132887980Y-162504380D01*
X133030838Y-162456761D01*
X133126076Y-162361523D01*
X133173695Y-162266285D01*
X133221314Y-162075809D01*
X133221314Y-161932952D01*
X133173695Y-161742476D01*
X133126076Y-161647238D01*
X133030838Y-161552000D01*
X132887980Y-161504380D01*
X132792742Y-161504380D01*
X132649885Y-161552000D01*
X132602266Y-161599619D01*
X131649885Y-162504380D02*
X132221314Y-162504380D01*
X131935600Y-162504380D02*
X131935600Y-161504380D01*
X132030838Y-161647238D01*
X132126076Y-161742476D01*
X132221314Y-161790095D01*
X49299714Y-115717580D02*
X49299714Y-114717580D01*
X48728285Y-115717580D01*
X48728285Y-114717580D01*
X47680666Y-115622342D02*
X47728285Y-115669961D01*
X47871142Y-115717580D01*
X47966380Y-115717580D01*
X48109238Y-115669961D01*
X48204476Y-115574723D01*
X48252095Y-115479485D01*
X48299714Y-115289009D01*
X48299714Y-115146152D01*
X48252095Y-114955676D01*
X48204476Y-114860438D01*
X48109238Y-114765200D01*
X47966380Y-114717580D01*
X47871142Y-114717580D01*
X47728285Y-114765200D01*
X47680666Y-114812819D01*
X49198114Y-113787180D02*
X49198114Y-112787180D01*
X48626685Y-113787180D01*
X48626685Y-112787180D01*
X47579066Y-113691942D02*
X47626685Y-113739561D01*
X47769542Y-113787180D01*
X47864780Y-113787180D01*
X48007638Y-113739561D01*
X48102876Y-113644323D01*
X48150495Y-113549085D01*
X48198114Y-113358609D01*
X48198114Y-113215752D01*
X48150495Y-113025276D01*
X48102876Y-112930038D01*
X48007638Y-112834800D01*
X47864780Y-112787180D01*
X47769542Y-112787180D01*
X47626685Y-112834800D01*
X47579066Y-112882419D01*
X48629866Y-111780580D02*
X48963200Y-111304390D01*
X49201295Y-111780580D02*
X49201295Y-110780580D01*
X48820342Y-110780580D01*
X48725104Y-110828200D01*
X48677485Y-110875819D01*
X48629866Y-110971057D01*
X48629866Y-111113914D01*
X48677485Y-111209152D01*
X48725104Y-111256771D01*
X48820342Y-111304390D01*
X49201295Y-111304390D01*
X47772723Y-110780580D02*
X47963200Y-110780580D01*
X48058438Y-110828200D01*
X48106057Y-110875819D01*
X48201295Y-111018676D01*
X48248914Y-111209152D01*
X48248914Y-111590104D01*
X48201295Y-111685342D01*
X48153676Y-111732961D01*
X48058438Y-111780580D01*
X47867961Y-111780580D01*
X47772723Y-111732961D01*
X47725104Y-111685342D01*
X47677485Y-111590104D01*
X47677485Y-111352009D01*
X47725104Y-111256771D01*
X47772723Y-111209152D01*
X47867961Y-111161533D01*
X48058438Y-111161533D01*
X48153676Y-111209152D01*
X48201295Y-111256771D01*
X48248914Y-111352009D01*
X48629866Y-109748580D02*
X48963200Y-109272390D01*
X49201295Y-109748580D02*
X49201295Y-108748580D01*
X48820342Y-108748580D01*
X48725104Y-108796200D01*
X48677485Y-108843819D01*
X48629866Y-108939057D01*
X48629866Y-109081914D01*
X48677485Y-109177152D01*
X48725104Y-109224771D01*
X48820342Y-109272390D01*
X49201295Y-109272390D01*
X47725104Y-108748580D02*
X48201295Y-108748580D01*
X48248914Y-109224771D01*
X48201295Y-109177152D01*
X48106057Y-109129533D01*
X47867961Y-109129533D01*
X47772723Y-109177152D01*
X47725104Y-109224771D01*
X47677485Y-109320009D01*
X47677485Y-109558104D01*
X47725104Y-109653342D01*
X47772723Y-109700961D01*
X47867961Y-109748580D01*
X48106057Y-109748580D01*
X48201295Y-109700961D01*
X48248914Y-109653342D01*
X48680666Y-107640380D02*
X49014000Y-107164190D01*
X49252095Y-107640380D02*
X49252095Y-106640380D01*
X48871142Y-106640380D01*
X48775904Y-106688000D01*
X48728285Y-106735619D01*
X48680666Y-106830857D01*
X48680666Y-106973714D01*
X48728285Y-107068952D01*
X48775904Y-107116571D01*
X48871142Y-107164190D01*
X49252095Y-107164190D01*
X47823523Y-106973714D02*
X47823523Y-107640380D01*
X48061619Y-106592761D02*
X48299714Y-107307047D01*
X47680666Y-107307047D01*
X48655266Y-105760780D02*
X48988600Y-105284590D01*
X49226695Y-105760780D02*
X49226695Y-104760780D01*
X48845742Y-104760780D01*
X48750504Y-104808400D01*
X48702885Y-104856019D01*
X48655266Y-104951257D01*
X48655266Y-105094114D01*
X48702885Y-105189352D01*
X48750504Y-105236971D01*
X48845742Y-105284590D01*
X49226695Y-105284590D01*
X48321933Y-104760780D02*
X47702885Y-104760780D01*
X48036219Y-105141733D01*
X47893361Y-105141733D01*
X47798123Y-105189352D01*
X47750504Y-105236971D01*
X47702885Y-105332209D01*
X47702885Y-105570304D01*
X47750504Y-105665542D01*
X47798123Y-105713161D01*
X47893361Y-105760780D01*
X48179076Y-105760780D01*
X48274314Y-105713161D01*
X48321933Y-105665542D01*
X48655266Y-103703380D02*
X48988600Y-103227190D01*
X49226695Y-103703380D02*
X49226695Y-102703380D01*
X48845742Y-102703380D01*
X48750504Y-102751000D01*
X48702885Y-102798619D01*
X48655266Y-102893857D01*
X48655266Y-103036714D01*
X48702885Y-103131952D01*
X48750504Y-103179571D01*
X48845742Y-103227190D01*
X49226695Y-103227190D01*
X48274314Y-102798619D02*
X48226695Y-102751000D01*
X48131457Y-102703380D01*
X47893361Y-102703380D01*
X47798123Y-102751000D01*
X47750504Y-102798619D01*
X47702885Y-102893857D01*
X47702885Y-102989095D01*
X47750504Y-103131952D01*
X48321933Y-103703380D01*
X47702885Y-103703380D01*
X48629866Y-101747580D02*
X48963200Y-101271390D01*
X49201295Y-101747580D02*
X49201295Y-100747580D01*
X48820342Y-100747580D01*
X48725104Y-100795200D01*
X48677485Y-100842819D01*
X48629866Y-100938057D01*
X48629866Y-101080914D01*
X48677485Y-101176152D01*
X48725104Y-101223771D01*
X48820342Y-101271390D01*
X49201295Y-101271390D01*
X47677485Y-101747580D02*
X48248914Y-101747580D01*
X47963200Y-101747580D02*
X47963200Y-100747580D01*
X48058438Y-100890438D01*
X48153676Y-100985676D01*
X48248914Y-101033295D01*
D12*
X224183000Y-80112400D02*
X225243000Y-80112400D01*
X224183000Y-79052400D02*
X224183000Y-80112400D01*
X224183000Y-78052400D02*
X226303000Y-78052400D01*
X226303000Y-78052400D02*
X226303000Y-71992400D01*
X224183000Y-78052400D02*
X224183000Y-71992400D01*
X224183000Y-71992400D02*
X226303000Y-71992400D01*
X224543000Y-82971348D02*
X224543000Y-83493852D01*
X223123000Y-82971348D02*
X223123000Y-83493852D01*
X226073000Y-83493852D02*
X226073000Y-82971348D01*
X227493000Y-83493852D02*
X227493000Y-82971348D01*
X224403000Y-87072600D02*
X224403000Y-88532600D01*
X227563000Y-87072600D02*
X227563000Y-89232600D01*
X227563000Y-87072600D02*
X226633000Y-87072600D01*
X224403000Y-87072600D02*
X225333000Y-87072600D01*
X147542000Y-165246000D02*
X147542000Y-164186000D01*
X146482000Y-165246000D02*
X147542000Y-165246000D01*
X145482000Y-165246000D02*
X145482000Y-163126000D01*
X145482000Y-163126000D02*
X131422000Y-163126000D01*
X145482000Y-165246000D02*
X131422000Y-165246000D01*
X131422000Y-165246000D02*
X131422000Y-163126000D01*
X47491200Y-100210000D02*
X46431200Y-100210000D01*
X47491200Y-101270000D02*
X47491200Y-100210000D01*
X47491200Y-102270000D02*
X45371200Y-102270000D01*
X45371200Y-102270000D02*
X45371200Y-116330000D01*
X47491200Y-102270000D02*
X47491200Y-116330000D01*
X47491200Y-116330000D02*
X45371200Y-116330000D01*
X218264000Y-107950000D02*
X214954000Y-107950000D01*
X205104000Y-107950000D02*
X208414000Y-107950000D01*
X214954000Y-109320000D02*
X208414000Y-109320000D01*
X214954000Y-106580000D02*
X214954000Y-109320000D01*
X208414000Y-106580000D02*
X214954000Y-106580000D01*
X208414000Y-109320000D02*
X208414000Y-106580000D01*
X194068000Y-109116000D02*
X194068000Y-106876000D01*
X194308000Y-109116000D02*
X194308000Y-106876000D01*
X194188000Y-109116000D02*
X194188000Y-106876000D01*
X198358000Y-107996000D02*
X197708000Y-107996000D01*
X192818000Y-107996000D02*
X193468000Y-107996000D01*
X197708000Y-109116000D02*
X193468000Y-109116000D01*
X197708000Y-106876000D02*
X197708000Y-109116000D01*
X193468000Y-106876000D02*
X197708000Y-106876000D01*
X193468000Y-109116000D02*
X193468000Y-106876000D01*
X210440000Y-126949000D02*
X207130000Y-126949000D01*
X197280000Y-126949000D02*
X200590000Y-126949000D01*
X207130000Y-128319000D02*
X200590000Y-128319000D01*
X207130000Y-125579000D02*
X207130000Y-128319000D01*
X200590000Y-125579000D02*
X207130000Y-125579000D01*
X200590000Y-128319000D02*
X200590000Y-125579000D01*
X229465000Y-127000000D02*
X226155000Y-127000000D01*
X216305000Y-127000000D02*
X219615000Y-127000000D01*
X226155000Y-128370000D02*
X219615000Y-128370000D01*
X226155000Y-125630000D02*
X226155000Y-128370000D01*
X219615000Y-125630000D02*
X226155000Y-125630000D01*
X219615000Y-128370000D02*
X219615000Y-125630000D01*
X227941000Y-146050000D02*
X224631000Y-146050000D01*
X214781000Y-146050000D02*
X218091000Y-146050000D01*
X224631000Y-147420000D02*
X218091000Y-147420000D01*
X224631000Y-144680000D02*
X224631000Y-147420000D01*
X218091000Y-144680000D02*
X224631000Y-144680000D01*
X218091000Y-147420000D02*
X218091000Y-144680000D01*
X183389000Y-126949000D02*
X180079000Y-126949000D01*
X170229000Y-126949000D02*
X173539000Y-126949000D01*
X180079000Y-128319000D02*
X173539000Y-128319000D01*
X180079000Y-125579000D02*
X180079000Y-128319000D01*
X173539000Y-125579000D02*
X180079000Y-125579000D01*
X173539000Y-128319000D02*
X173539000Y-125579000D01*
X172922000Y-107899000D02*
X176232000Y-107899000D01*
X186082000Y-107899000D02*
X182772000Y-107899000D01*
X176232000Y-106529000D02*
X182772000Y-106529000D01*
X176232000Y-109269000D02*
X176232000Y-106529000D01*
X182772000Y-109269000D02*
X176232000Y-109269000D01*
X182772000Y-106529000D02*
X182772000Y-109269000D01*
X184126000Y-88900000D02*
X180816000Y-88900000D01*
X170966000Y-88900000D02*
X174276000Y-88900000D01*
X180816000Y-90270000D02*
X174276000Y-90270000D01*
X180816000Y-87530000D02*
X180816000Y-90270000D01*
X174276000Y-87530000D02*
X180816000Y-87530000D01*
X174276000Y-90270000D02*
X174276000Y-87530000D01*
X208510000Y-146050000D02*
X205200000Y-146050000D01*
X195350000Y-146050000D02*
X198660000Y-146050000D01*
X205200000Y-147420000D02*
X198660000Y-147420000D01*
X205200000Y-144680000D02*
X205200000Y-147420000D01*
X198660000Y-144680000D02*
X205200000Y-144680000D01*
X198660000Y-147420000D02*
X198660000Y-144680000D01*
X160250000Y-126873000D02*
X156940000Y-126873000D01*
X147090000Y-126873000D02*
X150400000Y-126873000D01*
X156940000Y-128243000D02*
X150400000Y-128243000D01*
X156940000Y-125503000D02*
X156940000Y-128243000D01*
X150400000Y-125503000D02*
X156940000Y-125503000D01*
X150400000Y-128243000D02*
X150400000Y-125503000D01*
X160860000Y-107925000D02*
X157550000Y-107925000D01*
X147700000Y-107925000D02*
X151010000Y-107925000D01*
X157550000Y-109295000D02*
X151010000Y-109295000D01*
X157550000Y-106555000D02*
X157550000Y-109295000D01*
X151010000Y-106555000D02*
X157550000Y-106555000D01*
X151010000Y-109295000D02*
X151010000Y-106555000D01*
X159869000Y-88773000D02*
X156559000Y-88773000D01*
X146709000Y-88773000D02*
X150019000Y-88773000D01*
X156559000Y-90143000D02*
X150019000Y-90143000D01*
X156559000Y-87403000D02*
X156559000Y-90143000D01*
X150019000Y-87403000D02*
X156559000Y-87403000D01*
X150019000Y-90143000D02*
X150019000Y-87403000D01*
X189841000Y-145923000D02*
X186531000Y-145923000D01*
X176681000Y-145923000D02*
X179991000Y-145923000D01*
X186531000Y-147293000D02*
X179991000Y-147293000D01*
X186531000Y-144553000D02*
X186531000Y-147293000D01*
X179991000Y-144553000D02*
X186531000Y-144553000D01*
X179991000Y-147293000D02*
X179991000Y-144553000D01*
X142140000Y-126924000D02*
X138830000Y-126924000D01*
X128980000Y-126924000D02*
X132290000Y-126924000D01*
X138830000Y-128294000D02*
X132290000Y-128294000D01*
X138830000Y-125554000D02*
X138830000Y-128294000D01*
X132290000Y-125554000D02*
X138830000Y-125554000D01*
X132290000Y-128294000D02*
X132290000Y-125554000D01*
X142089000Y-107950000D02*
X138779000Y-107950000D01*
X128929000Y-107950000D02*
X132239000Y-107950000D01*
X138779000Y-109320000D02*
X132239000Y-109320000D01*
X138779000Y-106580000D02*
X138779000Y-109320000D01*
X132239000Y-106580000D02*
X138779000Y-106580000D01*
X132239000Y-109320000D02*
X132239000Y-106580000D01*
X142343000Y-88773000D02*
X139033000Y-88773000D01*
X129183000Y-88773000D02*
X132493000Y-88773000D01*
X139033000Y-90143000D02*
X132493000Y-90143000D01*
X139033000Y-87403000D02*
X139033000Y-90143000D01*
X132493000Y-87403000D02*
X139033000Y-87403000D01*
X132493000Y-90143000D02*
X132493000Y-87403000D01*
X166219000Y-146050000D02*
X162909000Y-146050000D01*
X153059000Y-146050000D02*
X156369000Y-146050000D01*
X162909000Y-147420000D02*
X156369000Y-147420000D01*
X162909000Y-144680000D02*
X162909000Y-147420000D01*
X156369000Y-144680000D02*
X162909000Y-144680000D01*
X156369000Y-147420000D02*
X156369000Y-144680000D01*
X124284000Y-126924000D02*
X120974000Y-126924000D01*
X111124000Y-126924000D02*
X114434000Y-126924000D01*
X120974000Y-128294000D02*
X114434000Y-128294000D01*
X120974000Y-125554000D02*
X120974000Y-128294000D01*
X114434000Y-125554000D02*
X120974000Y-125554000D01*
X114434000Y-128294000D02*
X114434000Y-125554000D01*
X123039000Y-107950000D02*
X119729000Y-107950000D01*
X109879000Y-107950000D02*
X113189000Y-107950000D01*
X119729000Y-109320000D02*
X113189000Y-109320000D01*
X119729000Y-106580000D02*
X119729000Y-109320000D01*
X113189000Y-106580000D02*
X119729000Y-106580000D01*
X113189000Y-109320000D02*
X113189000Y-106580000D01*
X124436000Y-88773000D02*
X121126000Y-88773000D01*
X111276000Y-88773000D02*
X114586000Y-88773000D01*
X121126000Y-90143000D02*
X114586000Y-90143000D01*
X121126000Y-87403000D02*
X121126000Y-90143000D01*
X114586000Y-87403000D02*
X121126000Y-87403000D01*
X114586000Y-90143000D02*
X114586000Y-87403000D01*
X137644000Y-146177000D02*
X134334000Y-146177000D01*
X124484000Y-146177000D02*
X127794000Y-146177000D01*
X134334000Y-147547000D02*
X127794000Y-147547000D01*
X134334000Y-144807000D02*
X134334000Y-147547000D01*
X127794000Y-144807000D02*
X134334000Y-144807000D01*
X127794000Y-147547000D02*
X127794000Y-144807000D01*
X106656000Y-126898000D02*
X103346000Y-126898000D01*
X93496000Y-126898000D02*
X96806000Y-126898000D01*
X103346000Y-128268000D02*
X96806000Y-128268000D01*
X103346000Y-125528000D02*
X103346000Y-128268000D01*
X96806000Y-125528000D02*
X103346000Y-125528000D01*
X96806000Y-128268000D02*
X96806000Y-125528000D01*
X104116000Y-107950000D02*
X100806000Y-107950000D01*
X90956000Y-107950000D02*
X94266000Y-107950000D01*
X100806000Y-109320000D02*
X94266000Y-109320000D01*
X100806000Y-106580000D02*
X100806000Y-109320000D01*
X94266000Y-106580000D02*
X100806000Y-106580000D01*
X94266000Y-109320000D02*
X94266000Y-106580000D01*
X106833800Y-88823800D02*
X103523800Y-88823800D01*
X93673800Y-88823800D02*
X96983800Y-88823800D01*
X103523800Y-90193800D02*
X96983800Y-90193800D01*
X103523800Y-87453800D02*
X103523800Y-90193800D01*
X96983800Y-87453800D02*
X103523800Y-87453800D01*
X96983800Y-90193800D02*
X96983800Y-87453800D01*
X108942000Y-145923000D02*
X105632000Y-145923000D01*
X95782000Y-145923000D02*
X99092000Y-145923000D01*
X105632000Y-147293000D02*
X99092000Y-147293000D01*
X105632000Y-144553000D02*
X105632000Y-147293000D01*
X99092000Y-144553000D02*
X105632000Y-144553000D01*
X99092000Y-147293000D02*
X99092000Y-144553000D01*
X82018000Y-126949000D02*
X78708000Y-126949000D01*
X68858000Y-126949000D02*
X72168000Y-126949000D01*
X78708000Y-128319000D02*
X72168000Y-128319000D01*
X78708000Y-125579000D02*
X78708000Y-128319000D01*
X72168000Y-125579000D02*
X78708000Y-125579000D01*
X72168000Y-128319000D02*
X72168000Y-125579000D01*
X85066000Y-107874000D02*
X81756000Y-107874000D01*
X71906000Y-107874000D02*
X75216000Y-107874000D01*
X81756000Y-109244000D02*
X75216000Y-109244000D01*
X81756000Y-106504000D02*
X81756000Y-109244000D01*
X75216000Y-106504000D02*
X81756000Y-106504000D01*
X75216000Y-109244000D02*
X75216000Y-106504000D01*
X82018000Y-88900000D02*
X78708000Y-88900000D01*
X68858000Y-88900000D02*
X72168000Y-88900000D01*
X78708000Y-90270000D02*
X72168000Y-90270000D01*
X78708000Y-87530000D02*
X78708000Y-90270000D01*
X72168000Y-87530000D02*
X78708000Y-87530000D01*
X72168000Y-90270000D02*
X72168000Y-87530000D01*
X75414000Y-145923000D02*
X72104000Y-145923000D01*
X62254000Y-145923000D02*
X65564000Y-145923000D01*
X72104000Y-147293000D02*
X65564000Y-147293000D01*
X72104000Y-144553000D02*
X72104000Y-147293000D01*
X65564000Y-144553000D02*
X72104000Y-144553000D01*
X65564000Y-147293000D02*
X65564000Y-144553000D01*
X64339600Y-126924000D02*
X61029600Y-126924000D01*
X51179600Y-126924000D02*
X54489600Y-126924000D01*
X61029600Y-128294000D02*
X54489600Y-128294000D01*
X61029600Y-125554000D02*
X61029600Y-128294000D01*
X54489600Y-125554000D02*
X61029600Y-125554000D01*
X54489600Y-128294000D02*
X54489600Y-125554000D01*
X65812800Y-107925000D02*
X62502800Y-107925000D01*
X52652800Y-107925000D02*
X55962800Y-107925000D01*
X62502800Y-109295000D02*
X55962800Y-109295000D01*
X62502800Y-106555000D02*
X62502800Y-109295000D01*
X55962800Y-106555000D02*
X62502800Y-106555000D01*
X55962800Y-109295000D02*
X55962800Y-106555000D01*
X64238000Y-88823800D02*
X60928000Y-88823800D01*
X51078000Y-88823800D02*
X54388000Y-88823800D01*
X60928000Y-90193800D02*
X54388000Y-90193800D01*
X60928000Y-87453800D02*
X60928000Y-90193800D01*
X54388000Y-87453800D02*
X60928000Y-87453800D01*
X54388000Y-90193800D02*
X54388000Y-87453800D01*
X194160000Y-137029000D02*
X191920000Y-137029000D01*
X194160000Y-136789000D02*
X191920000Y-136789000D01*
X194160000Y-136909000D02*
X191920000Y-136909000D01*
X193040000Y-132739000D02*
X193040000Y-133389000D01*
X193040000Y-138279000D02*
X193040000Y-137629000D01*
X194160000Y-133389000D02*
X194160000Y-137629000D01*
X191920000Y-133389000D02*
X194160000Y-133389000D01*
X191920000Y-137629000D02*
X191920000Y-133389000D01*
X194160000Y-137629000D02*
X191920000Y-137629000D01*
X191190000Y-143919000D02*
X191190000Y-141679000D01*
X191430000Y-143919000D02*
X191430000Y-141679000D01*
X191310000Y-143919000D02*
X191310000Y-141679000D01*
X195480000Y-142799000D02*
X194830000Y-142799000D01*
X189940000Y-142799000D02*
X190590000Y-142799000D01*
X194830000Y-143919000D02*
X190590000Y-143919000D01*
X194830000Y-141679000D02*
X194830000Y-143919000D01*
X190590000Y-141679000D02*
X194830000Y-141679000D01*
X190590000Y-143919000D02*
X190590000Y-141679000D01*
X213210000Y-156079000D02*
X210970000Y-156079000D01*
X213210000Y-155839000D02*
X210970000Y-155839000D01*
X213210000Y-155959000D02*
X210970000Y-155959000D01*
X212090000Y-151789000D02*
X212090000Y-152439000D01*
X212090000Y-157329000D02*
X212090000Y-156679000D01*
X213210000Y-152439000D02*
X213210000Y-156679000D01*
X210970000Y-152439000D02*
X213210000Y-152439000D01*
X210970000Y-156679000D02*
X210970000Y-152439000D01*
X213210000Y-156679000D02*
X210970000Y-156679000D01*
X170411000Y-137029000D02*
X168171000Y-137029000D01*
X170411000Y-136789000D02*
X168171000Y-136789000D01*
X170411000Y-136909000D02*
X168171000Y-136909000D01*
X169291000Y-132739000D02*
X169291000Y-133389000D01*
X169291000Y-138279000D02*
X169291000Y-137629000D01*
X170411000Y-133389000D02*
X170411000Y-137629000D01*
X168171000Y-133389000D02*
X170411000Y-133389000D01*
X168171000Y-137629000D02*
X168171000Y-133389000D01*
X170411000Y-137629000D02*
X168171000Y-137629000D01*
X170411000Y-117852000D02*
X168171000Y-117852000D01*
X170411000Y-117612000D02*
X168171000Y-117612000D01*
X170411000Y-117732000D02*
X168171000Y-117732000D01*
X169291000Y-113562000D02*
X169291000Y-114212000D01*
X169291000Y-119102000D02*
X169291000Y-118452000D01*
X170411000Y-114212000D02*
X170411000Y-118452000D01*
X168171000Y-114212000D02*
X170411000Y-114212000D01*
X168171000Y-118452000D02*
X168171000Y-114212000D01*
X170411000Y-118452000D02*
X168171000Y-118452000D01*
X167998000Y-98802000D02*
X165758000Y-98802000D01*
X167998000Y-98562000D02*
X165758000Y-98562000D01*
X167998000Y-98682000D02*
X165758000Y-98682000D01*
X166878000Y-94512000D02*
X166878000Y-95162000D01*
X166878000Y-100052000D02*
X166878000Y-99402000D01*
X167998000Y-95162000D02*
X167998000Y-99402000D01*
X165758000Y-95162000D02*
X167998000Y-95162000D01*
X165758000Y-99402000D02*
X165758000Y-95162000D01*
X167998000Y-99402000D02*
X165758000Y-99402000D01*
X194160000Y-155952000D02*
X191920000Y-155952000D01*
X194160000Y-155712000D02*
X191920000Y-155712000D01*
X194160000Y-155832000D02*
X191920000Y-155832000D01*
X193040000Y-151662000D02*
X193040000Y-152312000D01*
X193040000Y-157202000D02*
X193040000Y-156552000D01*
X194160000Y-152312000D02*
X194160000Y-156552000D01*
X191920000Y-152312000D02*
X194160000Y-152312000D01*
X191920000Y-156552000D02*
X191920000Y-152312000D01*
X194160000Y-156552000D02*
X191920000Y-156552000D01*
X146535000Y-137029000D02*
X144295000Y-137029000D01*
X146535000Y-136789000D02*
X144295000Y-136789000D01*
X146535000Y-136909000D02*
X144295000Y-136909000D01*
X145415000Y-132739000D02*
X145415000Y-133389000D01*
X145415000Y-138279000D02*
X145415000Y-137629000D01*
X146535000Y-133389000D02*
X146535000Y-137629000D01*
X144295000Y-133389000D02*
X146535000Y-133389000D01*
X144295000Y-137629000D02*
X144295000Y-133389000D01*
X146535000Y-137629000D02*
X144295000Y-137629000D01*
X146535000Y-117979000D02*
X144295000Y-117979000D01*
X146535000Y-117739000D02*
X144295000Y-117739000D01*
X146535000Y-117859000D02*
X144295000Y-117859000D01*
X145415000Y-113689000D02*
X145415000Y-114339000D01*
X145415000Y-119229000D02*
X145415000Y-118579000D01*
X146535000Y-114339000D02*
X146535000Y-118579000D01*
X144295000Y-114339000D02*
X146535000Y-114339000D01*
X144295000Y-118579000D02*
X144295000Y-114339000D01*
X146535000Y-118579000D02*
X144295000Y-118579000D01*
X146535000Y-98802000D02*
X144295000Y-98802000D01*
X146535000Y-98562000D02*
X144295000Y-98562000D01*
X146535000Y-98682000D02*
X144295000Y-98682000D01*
X145415000Y-94512000D02*
X145415000Y-95162000D01*
X145415000Y-100052000D02*
X145415000Y-99402000D01*
X146535000Y-95162000D02*
X146535000Y-99402000D01*
X144295000Y-95162000D02*
X146535000Y-95162000D01*
X144295000Y-99402000D02*
X144295000Y-95162000D01*
X146535000Y-99402000D02*
X144295000Y-99402000D01*
X175364000Y-156079000D02*
X173124000Y-156079000D01*
X175364000Y-155839000D02*
X173124000Y-155839000D01*
X175364000Y-155959000D02*
X173124000Y-155959000D01*
X174244000Y-151789000D02*
X174244000Y-152439000D01*
X174244000Y-157329000D02*
X174244000Y-156679000D01*
X175364000Y-152439000D02*
X175364000Y-156679000D01*
X173124000Y-152439000D02*
X175364000Y-152439000D01*
X173124000Y-156679000D02*
X173124000Y-152439000D01*
X175364000Y-156679000D02*
X173124000Y-156679000D01*
X127485000Y-137029000D02*
X125245000Y-137029000D01*
X127485000Y-136789000D02*
X125245000Y-136789000D01*
X127485000Y-136909000D02*
X125245000Y-136909000D01*
X126365000Y-132739000D02*
X126365000Y-133389000D01*
X126365000Y-138279000D02*
X126365000Y-137629000D01*
X127485000Y-133389000D02*
X127485000Y-137629000D01*
X125245000Y-133389000D02*
X127485000Y-133389000D01*
X125245000Y-137629000D02*
X125245000Y-133389000D01*
X127485000Y-137629000D02*
X125245000Y-137629000D01*
X127485000Y-117979000D02*
X125245000Y-117979000D01*
X127485000Y-117739000D02*
X125245000Y-117739000D01*
X127485000Y-117859000D02*
X125245000Y-117859000D01*
X126365000Y-113689000D02*
X126365000Y-114339000D01*
X126365000Y-119229000D02*
X126365000Y-118579000D01*
X127485000Y-114339000D02*
X127485000Y-118579000D01*
X125245000Y-114339000D02*
X127485000Y-114339000D01*
X125245000Y-118579000D02*
X125245000Y-114339000D01*
X127485000Y-118579000D02*
X125245000Y-118579000D01*
X127612000Y-99056000D02*
X125372000Y-99056000D01*
X127612000Y-98816000D02*
X125372000Y-98816000D01*
X127612000Y-98936000D02*
X125372000Y-98936000D01*
X126492000Y-94766000D02*
X126492000Y-95416000D01*
X126492000Y-100306000D02*
X126492000Y-99656000D01*
X127612000Y-95416000D02*
X127612000Y-99656000D01*
X125372000Y-95416000D02*
X127612000Y-95416000D01*
X125372000Y-99656000D02*
X125372000Y-95416000D01*
X127612000Y-99656000D02*
X125372000Y-99656000D01*
X151361000Y-156206000D02*
X149121000Y-156206000D01*
X151361000Y-155966000D02*
X149121000Y-155966000D01*
X151361000Y-156086000D02*
X149121000Y-156086000D01*
X150241000Y-151916000D02*
X150241000Y-152566000D01*
X150241000Y-157456000D02*
X150241000Y-156806000D01*
X151361000Y-152566000D02*
X151361000Y-156806000D01*
X149121000Y-152566000D02*
X151361000Y-152566000D01*
X149121000Y-156806000D02*
X149121000Y-152566000D01*
X151361000Y-156806000D02*
X149121000Y-156806000D01*
X108435000Y-137029000D02*
X106195000Y-137029000D01*
X108435000Y-136789000D02*
X106195000Y-136789000D01*
X108435000Y-136909000D02*
X106195000Y-136909000D01*
X107315000Y-132739000D02*
X107315000Y-133389000D01*
X107315000Y-138279000D02*
X107315000Y-137629000D01*
X108435000Y-133389000D02*
X108435000Y-137629000D01*
X106195000Y-133389000D02*
X108435000Y-133389000D01*
X106195000Y-137629000D02*
X106195000Y-133389000D01*
X108435000Y-137629000D02*
X106195000Y-137629000D01*
X108435000Y-117979000D02*
X106195000Y-117979000D01*
X108435000Y-117739000D02*
X106195000Y-117739000D01*
X108435000Y-117859000D02*
X106195000Y-117859000D01*
X107315000Y-113689000D02*
X107315000Y-114339000D01*
X107315000Y-119229000D02*
X107315000Y-118579000D01*
X108435000Y-114339000D02*
X108435000Y-118579000D01*
X106195000Y-114339000D02*
X108435000Y-114339000D01*
X106195000Y-118579000D02*
X106195000Y-114339000D01*
X108435000Y-118579000D02*
X106195000Y-118579000D01*
X108435000Y-98929000D02*
X106195000Y-98929000D01*
X108435000Y-98689000D02*
X106195000Y-98689000D01*
X108435000Y-98809000D02*
X106195000Y-98809000D01*
X107315000Y-94639000D02*
X107315000Y-95289000D01*
X107315000Y-100179000D02*
X107315000Y-99529000D01*
X108435000Y-95289000D02*
X108435000Y-99529000D01*
X106195000Y-95289000D02*
X108435000Y-95289000D01*
X106195000Y-99529000D02*
X106195000Y-95289000D01*
X108435000Y-99529000D02*
X106195000Y-99529000D01*
X122786000Y-155825000D02*
X120546000Y-155825000D01*
X122786000Y-155585000D02*
X120546000Y-155585000D01*
X122786000Y-155705000D02*
X120546000Y-155705000D01*
X121666000Y-151535000D02*
X121666000Y-152185000D01*
X121666000Y-157075000D02*
X121666000Y-156425000D01*
X122786000Y-152185000D02*
X122786000Y-156425000D01*
X120546000Y-152185000D02*
X122786000Y-152185000D01*
X120546000Y-156425000D02*
X120546000Y-152185000D01*
X122786000Y-156425000D02*
X120546000Y-156425000D01*
X89385000Y-137283000D02*
X87145000Y-137283000D01*
X89385000Y-137043000D02*
X87145000Y-137043000D01*
X89385000Y-137163000D02*
X87145000Y-137163000D01*
X88265000Y-132993000D02*
X88265000Y-133643000D01*
X88265000Y-138533000D02*
X88265000Y-137883000D01*
X89385000Y-133643000D02*
X89385000Y-137883000D01*
X87145000Y-133643000D02*
X89385000Y-133643000D01*
X87145000Y-137883000D02*
X87145000Y-133643000D01*
X89385000Y-137883000D02*
X87145000Y-137883000D01*
X89385000Y-117979000D02*
X87145000Y-117979000D01*
X89385000Y-117739000D02*
X87145000Y-117739000D01*
X89385000Y-117859000D02*
X87145000Y-117859000D01*
X88265000Y-113689000D02*
X88265000Y-114339000D01*
X88265000Y-119229000D02*
X88265000Y-118579000D01*
X89385000Y-114339000D02*
X89385000Y-118579000D01*
X87145000Y-114339000D02*
X89385000Y-114339000D01*
X87145000Y-118579000D02*
X87145000Y-114339000D01*
X89385000Y-118579000D02*
X87145000Y-118579000D01*
X89385000Y-98802000D02*
X87145000Y-98802000D01*
X89385000Y-98562000D02*
X87145000Y-98562000D01*
X89385000Y-98682000D02*
X87145000Y-98682000D01*
X88265000Y-94512000D02*
X88265000Y-95162000D01*
X88265000Y-100052000D02*
X88265000Y-99402000D01*
X89385000Y-95162000D02*
X89385000Y-99402000D01*
X87145000Y-95162000D02*
X89385000Y-95162000D01*
X87145000Y-99402000D02*
X87145000Y-95162000D01*
X89385000Y-99402000D02*
X87145000Y-99402000D01*
X94084000Y-155952000D02*
X91844000Y-155952000D01*
X94084000Y-155712000D02*
X91844000Y-155712000D01*
X94084000Y-155832000D02*
X91844000Y-155832000D01*
X92964000Y-151662000D02*
X92964000Y-152312000D01*
X92964000Y-157202000D02*
X92964000Y-156552000D01*
X94084000Y-152312000D02*
X94084000Y-156552000D01*
X91844000Y-152312000D02*
X94084000Y-152312000D01*
X91844000Y-156552000D02*
X91844000Y-152312000D01*
X94084000Y-156552000D02*
X91844000Y-156552000D01*
X70335000Y-137156000D02*
X68095000Y-137156000D01*
X70335000Y-136916000D02*
X68095000Y-136916000D01*
X70335000Y-137036000D02*
X68095000Y-137036000D01*
X69215000Y-132866000D02*
X69215000Y-133516000D01*
X69215000Y-138406000D02*
X69215000Y-137756000D01*
X70335000Y-133516000D02*
X70335000Y-137756000D01*
X68095000Y-133516000D02*
X70335000Y-133516000D01*
X68095000Y-137756000D02*
X68095000Y-133516000D01*
X70335000Y-137756000D02*
X68095000Y-137756000D01*
X70462000Y-117979000D02*
X68222000Y-117979000D01*
X70462000Y-117739000D02*
X68222000Y-117739000D01*
X70462000Y-117859000D02*
X68222000Y-117859000D01*
X69342000Y-113689000D02*
X69342000Y-114339000D01*
X69342000Y-119229000D02*
X69342000Y-118579000D01*
X70462000Y-114339000D02*
X70462000Y-118579000D01*
X68222000Y-114339000D02*
X70462000Y-114339000D01*
X68222000Y-118579000D02*
X68222000Y-114339000D01*
X70462000Y-118579000D02*
X68222000Y-118579000D01*
X70462000Y-99056000D02*
X68222000Y-99056000D01*
X70462000Y-98816000D02*
X68222000Y-98816000D01*
X70462000Y-98936000D02*
X68222000Y-98936000D01*
X69342000Y-94766000D02*
X69342000Y-95416000D01*
X69342000Y-100306000D02*
X69342000Y-99656000D01*
X70462000Y-95416000D02*
X70462000Y-99656000D01*
X68222000Y-95416000D02*
X70462000Y-95416000D01*
X68222000Y-99656000D02*
X68222000Y-95416000D01*
X70462000Y-99656000D02*
X68222000Y-99656000D01*
X51172300Y-146954000D02*
X51172300Y-144714000D01*
X51412300Y-146954000D02*
X51412300Y-144714000D01*
X51292300Y-146954000D02*
X51292300Y-144714000D01*
X55462300Y-145834000D02*
X54812300Y-145834000D01*
X49922300Y-145834000D02*
X50572300Y-145834000D01*
X54812300Y-146954000D02*
X50572300Y-146954000D01*
X54812300Y-144714000D02*
X54812300Y-146954000D01*
X50572300Y-144714000D02*
X54812300Y-144714000D01*
X50572300Y-146954000D02*
X50572300Y-144714000D01*
X51285000Y-137156000D02*
X49045000Y-137156000D01*
X51285000Y-136916000D02*
X49045000Y-136916000D01*
X51285000Y-137036000D02*
X49045000Y-137036000D01*
X50165000Y-132866000D02*
X50165000Y-133516000D01*
X50165000Y-138406000D02*
X50165000Y-137756000D01*
X51285000Y-133516000D02*
X51285000Y-137756000D01*
X49045000Y-133516000D02*
X51285000Y-133516000D01*
X49045000Y-137756000D02*
X49045000Y-133516000D01*
X51285000Y-137756000D02*
X49045000Y-137756000D01*
X51285000Y-118233000D02*
X49045000Y-118233000D01*
X51285000Y-117993000D02*
X49045000Y-117993000D01*
X51285000Y-118113000D02*
X49045000Y-118113000D01*
X50165000Y-113943000D02*
X50165000Y-114593000D01*
X50165000Y-119483000D02*
X50165000Y-118833000D01*
X51285000Y-114593000D02*
X51285000Y-118833000D01*
X49045000Y-114593000D02*
X51285000Y-114593000D01*
X49045000Y-118833000D02*
X49045000Y-114593000D01*
X51285000Y-118833000D02*
X49045000Y-118833000D01*
X51285000Y-98675000D02*
X49045000Y-98675000D01*
X51285000Y-98435000D02*
X49045000Y-98435000D01*
X51285000Y-98555000D02*
X49045000Y-98555000D01*
X50165000Y-94385000D02*
X50165000Y-95035000D01*
X50165000Y-99925000D02*
X50165000Y-99275000D01*
X51285000Y-95035000D02*
X51285000Y-99275000D01*
X49045000Y-95035000D02*
X51285000Y-95035000D01*
X49045000Y-99275000D02*
X49045000Y-95035000D01*
X51285000Y-99275000D02*
X49045000Y-99275000D01*
X208638000Y-88896000D02*
X206398000Y-88896000D01*
X208638000Y-88656000D02*
X206398000Y-88656000D01*
X208638000Y-88776000D02*
X206398000Y-88776000D01*
X207518000Y-84606000D02*
X207518000Y-85256000D01*
X207518000Y-90146000D02*
X207518000Y-89496000D01*
X208638000Y-85256000D02*
X208638000Y-89496000D01*
X206398000Y-85256000D02*
X208638000Y-85256000D01*
X206398000Y-89496000D02*
X206398000Y-85256000D01*
X208638000Y-89496000D02*
X206398000Y-89496000D01*
X194197000Y-50792200D02*
X194197000Y-48552200D01*
X194437000Y-50792200D02*
X194437000Y-48552200D01*
X194317000Y-50792200D02*
X194317000Y-48552200D01*
X198487000Y-49672200D02*
X197837000Y-49672200D01*
X192947000Y-49672200D02*
X193597000Y-49672200D01*
X197837000Y-50792200D02*
X193597000Y-50792200D01*
X197837000Y-48552200D02*
X197837000Y-50792200D01*
X193597000Y-48552200D02*
X197837000Y-48552200D01*
X193597000Y-50792200D02*
X193597000Y-48552200D01*
X170284000Y-79498000D02*
X168044000Y-79498000D01*
X170284000Y-79258000D02*
X168044000Y-79258000D01*
X170284000Y-79378000D02*
X168044000Y-79378000D01*
X169164000Y-75208000D02*
X169164000Y-75858000D01*
X169164000Y-80748000D02*
X169164000Y-80098000D01*
X170284000Y-75858000D02*
X170284000Y-80098000D01*
X168044000Y-75858000D02*
X170284000Y-75858000D01*
X168044000Y-80098000D02*
X168044000Y-75858000D01*
X170284000Y-80098000D02*
X168044000Y-80098000D01*
X170284000Y-60448000D02*
X168044000Y-60448000D01*
X170284000Y-60208000D02*
X168044000Y-60208000D01*
X170284000Y-60328000D02*
X168044000Y-60328000D01*
X169164000Y-56158000D02*
X169164000Y-56808000D01*
X169164000Y-61698000D02*
X169164000Y-61048000D01*
X170284000Y-56808000D02*
X170284000Y-61048000D01*
X168044000Y-56808000D02*
X170284000Y-56808000D01*
X168044000Y-61048000D02*
X168044000Y-56808000D01*
X170284000Y-61048000D02*
X168044000Y-61048000D01*
X146662000Y-79498000D02*
X144422000Y-79498000D01*
X146662000Y-79258000D02*
X144422000Y-79258000D01*
X146662000Y-79378000D02*
X144422000Y-79378000D01*
X145542000Y-75208000D02*
X145542000Y-75858000D01*
X145542000Y-80748000D02*
X145542000Y-80098000D01*
X146662000Y-75858000D02*
X146662000Y-80098000D01*
X144422000Y-75858000D02*
X146662000Y-75858000D01*
X144422000Y-80098000D02*
X144422000Y-75858000D01*
X146662000Y-80098000D02*
X144422000Y-80098000D01*
X146662000Y-60194000D02*
X144422000Y-60194000D01*
X146662000Y-59954000D02*
X144422000Y-59954000D01*
X146662000Y-60074000D02*
X144422000Y-60074000D01*
X145542000Y-55904000D02*
X145542000Y-56554000D01*
X145542000Y-61444000D02*
X145542000Y-60794000D01*
X146662000Y-56554000D02*
X146662000Y-60794000D01*
X144422000Y-56554000D02*
X146662000Y-56554000D01*
X144422000Y-60794000D02*
X144422000Y-56554000D01*
X146662000Y-60794000D02*
X144422000Y-60794000D01*
X127612000Y-79752000D02*
X125372000Y-79752000D01*
X127612000Y-79512000D02*
X125372000Y-79512000D01*
X127612000Y-79632000D02*
X125372000Y-79632000D01*
X126492000Y-75462000D02*
X126492000Y-76112000D01*
X126492000Y-81002000D02*
X126492000Y-80352000D01*
X127612000Y-76112000D02*
X127612000Y-80352000D01*
X125372000Y-76112000D02*
X127612000Y-76112000D01*
X125372000Y-80352000D02*
X125372000Y-76112000D01*
X127612000Y-80352000D02*
X125372000Y-80352000D01*
X127358000Y-60448000D02*
X125118000Y-60448000D01*
X127358000Y-60208000D02*
X125118000Y-60208000D01*
X127358000Y-60328000D02*
X125118000Y-60328000D01*
X126238000Y-56158000D02*
X126238000Y-56808000D01*
X126238000Y-61698000D02*
X126238000Y-61048000D01*
X127358000Y-56808000D02*
X127358000Y-61048000D01*
X125118000Y-56808000D02*
X127358000Y-56808000D01*
X125118000Y-61048000D02*
X125118000Y-56808000D01*
X127358000Y-61048000D02*
X125118000Y-61048000D01*
X108562000Y-79752000D02*
X106322000Y-79752000D01*
X108562000Y-79512000D02*
X106322000Y-79512000D01*
X108562000Y-79632000D02*
X106322000Y-79632000D01*
X107442000Y-75462000D02*
X107442000Y-76112000D01*
X107442000Y-81002000D02*
X107442000Y-80352000D01*
X108562000Y-76112000D02*
X108562000Y-80352000D01*
X106322000Y-76112000D02*
X108562000Y-76112000D01*
X106322000Y-80352000D02*
X106322000Y-76112000D01*
X108562000Y-80352000D02*
X106322000Y-80352000D01*
X108562000Y-60448000D02*
X106322000Y-60448000D01*
X108562000Y-60208000D02*
X106322000Y-60208000D01*
X108562000Y-60328000D02*
X106322000Y-60328000D01*
X107442000Y-56158000D02*
X107442000Y-56808000D01*
X107442000Y-61698000D02*
X107442000Y-61048000D01*
X108562000Y-56808000D02*
X108562000Y-61048000D01*
X106322000Y-56808000D02*
X108562000Y-56808000D01*
X106322000Y-61048000D02*
X106322000Y-56808000D01*
X108562000Y-61048000D02*
X106322000Y-61048000D01*
X89512000Y-80006000D02*
X87272000Y-80006000D01*
X89512000Y-79766000D02*
X87272000Y-79766000D01*
X89512000Y-79886000D02*
X87272000Y-79886000D01*
X88392000Y-75716000D02*
X88392000Y-76366000D01*
X88392000Y-81256000D02*
X88392000Y-80606000D01*
X89512000Y-76366000D02*
X89512000Y-80606000D01*
X87272000Y-76366000D02*
X89512000Y-76366000D01*
X87272000Y-80606000D02*
X87272000Y-76366000D01*
X89512000Y-80606000D02*
X87272000Y-80606000D01*
X89512000Y-60448000D02*
X87272000Y-60448000D01*
X89512000Y-60208000D02*
X87272000Y-60208000D01*
X89512000Y-60328000D02*
X87272000Y-60328000D01*
X88392000Y-56158000D02*
X88392000Y-56808000D01*
X88392000Y-61698000D02*
X88392000Y-61048000D01*
X89512000Y-56808000D02*
X89512000Y-61048000D01*
X87272000Y-56808000D02*
X89512000Y-56808000D01*
X87272000Y-61048000D02*
X87272000Y-56808000D01*
X89512000Y-61048000D02*
X87272000Y-61048000D01*
X70462000Y-80006000D02*
X68222000Y-80006000D01*
X70462000Y-79766000D02*
X68222000Y-79766000D01*
X70462000Y-79886000D02*
X68222000Y-79886000D01*
X69342000Y-75716000D02*
X69342000Y-76366000D01*
X69342000Y-81256000D02*
X69342000Y-80606000D01*
X70462000Y-76366000D02*
X70462000Y-80606000D01*
X68222000Y-76366000D02*
X70462000Y-76366000D01*
X68222000Y-80606000D02*
X68222000Y-76366000D01*
X70462000Y-80606000D02*
X68222000Y-80606000D01*
X70462000Y-60448000D02*
X68222000Y-60448000D01*
X70462000Y-60208000D02*
X68222000Y-60208000D01*
X70462000Y-60328000D02*
X68222000Y-60328000D01*
X69342000Y-56158000D02*
X69342000Y-56808000D01*
X69342000Y-61698000D02*
X69342000Y-61048000D01*
X70462000Y-56808000D02*
X70462000Y-61048000D01*
X68222000Y-56808000D02*
X70462000Y-56808000D01*
X68222000Y-61048000D02*
X68222000Y-56808000D01*
X70462000Y-61048000D02*
X68222000Y-61048000D01*
X51412000Y-80006000D02*
X49172000Y-80006000D01*
X51412000Y-79766000D02*
X49172000Y-79766000D01*
X51412000Y-79886000D02*
X49172000Y-79886000D01*
X50292000Y-75716000D02*
X50292000Y-76366000D01*
X50292000Y-81256000D02*
X50292000Y-80606000D01*
X51412000Y-76366000D02*
X51412000Y-80606000D01*
X49172000Y-76366000D02*
X51412000Y-76366000D01*
X49172000Y-80606000D02*
X49172000Y-76366000D01*
X51412000Y-80606000D02*
X49172000Y-80606000D01*
X51412000Y-60448000D02*
X49172000Y-60448000D01*
X51412000Y-60208000D02*
X49172000Y-60208000D01*
X51412000Y-60328000D02*
X49172000Y-60328000D01*
X50292000Y-56158000D02*
X50292000Y-56808000D01*
X50292000Y-61698000D02*
X50292000Y-61048000D01*
X51412000Y-56808000D02*
X51412000Y-61048000D01*
X49172000Y-56808000D02*
X51412000Y-56808000D01*
X49172000Y-61048000D02*
X49172000Y-56808000D01*
X51412000Y-61048000D02*
X49172000Y-61048000D01*
X199814000Y-84009400D02*
X199814000Y-80699400D01*
X199814000Y-70849400D02*
X199814000Y-74159400D01*
X198444000Y-80699400D02*
X198444000Y-74159400D01*
X201184000Y-80699400D02*
X198444000Y-80699400D01*
X201184000Y-74159400D02*
X201184000Y-80699400D01*
X198444000Y-74159400D02*
X201184000Y-74159400D01*
X218314000Y-49936400D02*
X215004000Y-49936400D01*
X205154000Y-49936400D02*
X208464000Y-49936400D01*
X215004000Y-51306400D02*
X208464000Y-51306400D01*
X215004000Y-48566400D02*
X215004000Y-51306400D01*
X208464000Y-48566400D02*
X215004000Y-48566400D01*
X208464000Y-51306400D02*
X208464000Y-48566400D01*
X184812000Y-69011800D02*
X181502000Y-69011800D01*
X171652000Y-69011800D02*
X174962000Y-69011800D01*
X181502000Y-70381800D02*
X174962000Y-70381800D01*
X181502000Y-67641800D02*
X181502000Y-70381800D01*
X174962000Y-67641800D02*
X181502000Y-67641800D01*
X174962000Y-70381800D02*
X174962000Y-67641800D01*
X185040000Y-49936400D02*
X181730000Y-49936400D01*
X171880000Y-49936400D02*
X175190000Y-49936400D01*
X181730000Y-51306400D02*
X175190000Y-51306400D01*
X181730000Y-48566400D02*
X181730000Y-51306400D01*
X175190000Y-48566400D02*
X181730000Y-48566400D01*
X175190000Y-51306400D02*
X175190000Y-48566400D01*
X161114000Y-69164200D02*
X157804000Y-69164200D01*
X147954000Y-69164200D02*
X151264000Y-69164200D01*
X157804000Y-70534200D02*
X151264000Y-70534200D01*
X157804000Y-67794200D02*
X157804000Y-70534200D01*
X151264000Y-67794200D02*
X157804000Y-67794200D01*
X151264000Y-70534200D02*
X151264000Y-67794200D01*
X161266000Y-50800000D02*
X157956000Y-50800000D01*
X148106000Y-50800000D02*
X151416000Y-50800000D01*
X157956000Y-52170000D02*
X151416000Y-52170000D01*
X157956000Y-49430000D02*
X157956000Y-52170000D01*
X151416000Y-49430000D02*
X157956000Y-49430000D01*
X151416000Y-52170000D02*
X151416000Y-49430000D01*
X142318000Y-69011800D02*
X139008000Y-69011800D01*
X129158000Y-69011800D02*
X132468000Y-69011800D01*
X139008000Y-70381800D02*
X132468000Y-70381800D01*
X139008000Y-67641800D02*
X139008000Y-70381800D01*
X132468000Y-67641800D02*
X139008000Y-67641800D01*
X132468000Y-70381800D02*
X132468000Y-67641800D01*
X142978000Y-50800000D02*
X139668000Y-50800000D01*
X129818000Y-50800000D02*
X133128000Y-50800000D01*
X139668000Y-52170000D02*
X133128000Y-52170000D01*
X139668000Y-49430000D02*
X139668000Y-52170000D01*
X133128000Y-49430000D02*
X139668000Y-49430000D01*
X133128000Y-52170000D02*
X133128000Y-49430000D01*
X123217000Y-68961000D02*
X119907000Y-68961000D01*
X110057000Y-68961000D02*
X113367000Y-68961000D01*
X119907000Y-70331000D02*
X113367000Y-70331000D01*
X119907000Y-67591000D02*
X119907000Y-70331000D01*
X113367000Y-67591000D02*
X119907000Y-67591000D01*
X113367000Y-70331000D02*
X113367000Y-67591000D01*
X124182000Y-50800000D02*
X120872000Y-50800000D01*
X111022000Y-50800000D02*
X114332000Y-50800000D01*
X120872000Y-52170000D02*
X114332000Y-52170000D01*
X120872000Y-49430000D02*
X120872000Y-52170000D01*
X114332000Y-49430000D02*
X120872000Y-49430000D01*
X114332000Y-52170000D02*
X114332000Y-49430000D01*
X103506400Y-69062600D02*
X100196400Y-69062600D01*
X90346400Y-69062600D02*
X93656400Y-69062600D01*
X100196400Y-70432600D02*
X93656400Y-70432600D01*
X100196400Y-67692600D02*
X100196400Y-70432600D01*
X93656400Y-67692600D02*
X100196400Y-67692600D01*
X93656400Y-70432600D02*
X93656400Y-67692600D01*
X104624000Y-50800000D02*
X101314000Y-50800000D01*
X91464000Y-50800000D02*
X94774000Y-50800000D01*
X101314000Y-52170000D02*
X94774000Y-52170000D01*
X101314000Y-49430000D02*
X101314000Y-52170000D01*
X94774000Y-49430000D02*
X101314000Y-49430000D01*
X94774000Y-52170000D02*
X94774000Y-49430000D01*
X85269200Y-69062600D02*
X81959200Y-69062600D01*
X72109200Y-69062600D02*
X75419200Y-69062600D01*
X81959200Y-70432600D02*
X75419200Y-70432600D01*
X81959200Y-67692600D02*
X81959200Y-70432600D01*
X75419200Y-67692600D02*
X81959200Y-67692600D01*
X75419200Y-70432600D02*
X75419200Y-67692600D01*
X85574000Y-50698400D02*
X82264000Y-50698400D01*
X72414000Y-50698400D02*
X75724000Y-50698400D01*
X82264000Y-52068400D02*
X75724000Y-52068400D01*
X82264000Y-49328400D02*
X82264000Y-52068400D01*
X75724000Y-49328400D02*
X82264000Y-49328400D01*
X75724000Y-52068400D02*
X75724000Y-49328400D01*
X65889000Y-68834000D02*
X62579000Y-68834000D01*
X52729000Y-68834000D02*
X56039000Y-68834000D01*
X62579000Y-70204000D02*
X56039000Y-70204000D01*
X62579000Y-67464000D02*
X62579000Y-70204000D01*
X56039000Y-67464000D02*
X62579000Y-67464000D01*
X56039000Y-70204000D02*
X56039000Y-67464000D01*
X66016000Y-50800000D02*
X62706000Y-50800000D01*
X52856000Y-50800000D02*
X56166000Y-50800000D01*
X62706000Y-52170000D02*
X56166000Y-52170000D01*
X62706000Y-49430000D02*
X62706000Y-52170000D01*
X56166000Y-49430000D02*
X62706000Y-49430000D01*
X56166000Y-52170000D02*
X56166000Y-49430000D01*
D10*
X225677933Y-70300580D02*
X225677933Y-71014866D01*
X225725552Y-71157723D01*
X225820790Y-71252961D01*
X225963647Y-71300580D01*
X226058885Y-71300580D01*
X225296980Y-70300580D02*
X224677933Y-70300580D01*
X225011266Y-70681533D01*
X224868409Y-70681533D01*
X224773171Y-70729152D01*
X224725552Y-70776771D01*
X224677933Y-70872009D01*
X224677933Y-71110104D01*
X224725552Y-71205342D01*
X224773171Y-71252961D01*
X224868409Y-71300580D01*
X225154123Y-71300580D01*
X225249361Y-71252961D01*
X225296980Y-71205342D01*
X222635380Y-82589742D02*
X222159190Y-82256409D01*
X222635380Y-82018314D02*
X221635380Y-82018314D01*
X221635380Y-82399266D01*
X221683000Y-82494504D01*
X221730619Y-82542123D01*
X221825857Y-82589742D01*
X221968714Y-82589742D01*
X222063952Y-82542123D01*
X222111571Y-82494504D01*
X222159190Y-82399266D01*
X222159190Y-82018314D01*
X221968714Y-83446885D02*
X222635380Y-83446885D01*
X221587761Y-83208790D02*
X222302047Y-82970695D01*
X222302047Y-83589742D01*
X222635380Y-84018314D02*
X222635380Y-84208790D01*
X222587761Y-84304028D01*
X222540142Y-84351647D01*
X222397285Y-84446885D01*
X222206809Y-84494504D01*
X221825857Y-84494504D01*
X221730619Y-84446885D01*
X221683000Y-84399266D01*
X221635380Y-84304028D01*
X221635380Y-84113552D01*
X221683000Y-84018314D01*
X221730619Y-83970695D01*
X221825857Y-83923076D01*
X222063952Y-83923076D01*
X222159190Y-83970695D01*
X222206809Y-84018314D01*
X222254428Y-84113552D01*
X222254428Y-84304028D01*
X222206809Y-84399266D01*
X222159190Y-84446885D01*
X222063952Y-84494504D01*
X228885380Y-82589742D02*
X228409190Y-82256409D01*
X228885380Y-82018314D02*
X227885380Y-82018314D01*
X227885380Y-82399266D01*
X227933000Y-82494504D01*
X227980619Y-82542123D01*
X228075857Y-82589742D01*
X228218714Y-82589742D01*
X228313952Y-82542123D01*
X228361571Y-82494504D01*
X228409190Y-82399266D01*
X228409190Y-82018314D01*
X228218714Y-83446885D02*
X228885380Y-83446885D01*
X227837761Y-83208790D02*
X228552047Y-82970695D01*
X228552047Y-83589742D01*
X228313952Y-84113552D02*
X228266333Y-84018314D01*
X228218714Y-83970695D01*
X228123476Y-83923076D01*
X228075857Y-83923076D01*
X227980619Y-83970695D01*
X227933000Y-84018314D01*
X227885380Y-84113552D01*
X227885380Y-84304028D01*
X227933000Y-84399266D01*
X227980619Y-84446885D01*
X228075857Y-84494504D01*
X228123476Y-84494504D01*
X228218714Y-84446885D01*
X228266333Y-84399266D01*
X228313952Y-84304028D01*
X228313952Y-84113552D01*
X228361571Y-84018314D01*
X228409190Y-83970695D01*
X228504428Y-83923076D01*
X228694904Y-83923076D01*
X228790142Y-83970695D01*
X228837761Y-84018314D01*
X228885380Y-84113552D01*
X228885380Y-84304028D01*
X228837761Y-84399266D01*
X228790142Y-84446885D01*
X228694904Y-84494504D01*
X228504428Y-84494504D01*
X228409190Y-84446885D01*
X228361571Y-84399266D01*
X228313952Y-84304028D01*
X227935380Y-87927838D02*
X227983000Y-88023076D01*
X228078238Y-88118314D01*
X228221095Y-88261171D01*
X228268714Y-88356409D01*
X228268714Y-88451647D01*
X228030619Y-88404028D02*
X228078238Y-88499266D01*
X228173476Y-88594504D01*
X228363952Y-88642123D01*
X228697285Y-88642123D01*
X228887761Y-88594504D01*
X228983000Y-88499266D01*
X229030619Y-88404028D01*
X229030619Y-88213552D01*
X228983000Y-88118314D01*
X228887761Y-88023076D01*
X228697285Y-87975457D01*
X228363952Y-87975457D01*
X228173476Y-88023076D01*
X228078238Y-88118314D01*
X228030619Y-88213552D01*
X228030619Y-88404028D01*
X228030619Y-87023076D02*
X228030619Y-87594504D01*
X228030619Y-87308790D02*
X229030619Y-87308790D01*
X228887761Y-87404028D01*
X228792523Y-87499266D01*
X228744904Y-87594504D01*
X149089619Y-164519333D02*
X148375333Y-164519333D01*
X148232476Y-164566952D01*
X148137238Y-164662190D01*
X148089619Y-164805047D01*
X148089619Y-164900285D01*
X148994380Y-164090761D02*
X149042000Y-164043142D01*
X149089619Y-163947904D01*
X149089619Y-163709809D01*
X149042000Y-163614571D01*
X148994380Y-163566952D01*
X148899142Y-163519333D01*
X148803904Y-163519333D01*
X148661047Y-163566952D01*
X148089619Y-164138380D01*
X148089619Y-163519333D01*
X46764533Y-98662380D02*
X46764533Y-99376666D01*
X46812152Y-99519523D01*
X46907390Y-99614761D01*
X47050247Y-99662380D01*
X47145485Y-99662380D01*
X45764533Y-99662380D02*
X46335961Y-99662380D01*
X46050247Y-99662380D02*
X46050247Y-98662380D01*
X46145485Y-98805238D01*
X46240723Y-98900476D01*
X46335961Y-98948095D01*
X212326857Y-110772380D02*
X212660190Y-110296190D01*
X212898285Y-110772380D02*
X212898285Y-109772380D01*
X212517333Y-109772380D01*
X212422095Y-109820000D01*
X212374476Y-109867619D01*
X212326857Y-109962857D01*
X212326857Y-110105714D01*
X212374476Y-110200952D01*
X212422095Y-110248571D01*
X212517333Y-110296190D01*
X212898285Y-110296190D01*
X211469714Y-110105714D02*
X211469714Y-110772380D01*
X211707809Y-109724761D02*
X211945904Y-110439047D01*
X211326857Y-110439047D01*
X210469714Y-109772380D02*
X210945904Y-109772380D01*
X210993523Y-110248571D01*
X210945904Y-110200952D01*
X210850666Y-110153333D01*
X210612571Y-110153333D01*
X210517333Y-110200952D01*
X210469714Y-110248571D01*
X210422095Y-110343809D01*
X210422095Y-110581904D01*
X210469714Y-110677142D01*
X210517333Y-110724761D01*
X210612571Y-110772380D01*
X210850666Y-110772380D01*
X210945904Y-110724761D01*
X210993523Y-110677142D01*
X196802285Y-110568380D02*
X196802285Y-109568380D01*
X196564190Y-109568380D01*
X196421333Y-109616000D01*
X196326095Y-109711238D01*
X196278476Y-109806476D01*
X196230857Y-109996952D01*
X196230857Y-110139809D01*
X196278476Y-110330285D01*
X196326095Y-110425523D01*
X196421333Y-110520761D01*
X196564190Y-110568380D01*
X196802285Y-110568380D01*
X195373714Y-109901714D02*
X195373714Y-110568380D01*
X195611809Y-109520761D02*
X195849904Y-110235047D01*
X195230857Y-110235047D01*
X194373714Y-109568380D02*
X194849904Y-109568380D01*
X194897523Y-110044571D01*
X194849904Y-109996952D01*
X194754666Y-109949333D01*
X194516571Y-109949333D01*
X194421333Y-109996952D01*
X194373714Y-110044571D01*
X194326095Y-110139809D01*
X194326095Y-110377904D01*
X194373714Y-110473142D01*
X194421333Y-110520761D01*
X194516571Y-110568380D01*
X194754666Y-110568380D01*
X194849904Y-110520761D01*
X194897523Y-110473142D01*
X192039904Y-110248380D02*
X192039904Y-109248380D01*
X191468476Y-110248380D02*
X191897047Y-109676952D01*
X191468476Y-109248380D02*
X192039904Y-109819809D01*
X204502857Y-129771380D02*
X204836190Y-129295190D01*
X205074285Y-129771380D02*
X205074285Y-128771380D01*
X204693333Y-128771380D01*
X204598095Y-128819000D01*
X204550476Y-128866619D01*
X204502857Y-128961857D01*
X204502857Y-129104714D01*
X204550476Y-129199952D01*
X204598095Y-129247571D01*
X204693333Y-129295190D01*
X205074285Y-129295190D01*
X203645714Y-129104714D02*
X203645714Y-129771380D01*
X203883809Y-128723761D02*
X204121904Y-129438047D01*
X203502857Y-129438047D01*
X203217142Y-128771380D02*
X202550476Y-128771380D01*
X202979047Y-129771380D01*
X223527857Y-129822380D02*
X223861190Y-129346190D01*
X224099285Y-129822380D02*
X224099285Y-128822380D01*
X223718333Y-128822380D01*
X223623095Y-128870000D01*
X223575476Y-128917619D01*
X223527857Y-129012857D01*
X223527857Y-129155714D01*
X223575476Y-129250952D01*
X223623095Y-129298571D01*
X223718333Y-129346190D01*
X224099285Y-129346190D01*
X222670714Y-129155714D02*
X222670714Y-129822380D01*
X222908809Y-128774761D02*
X223146904Y-129489047D01*
X222527857Y-129489047D01*
X221718333Y-128822380D02*
X221908809Y-128822380D01*
X222004047Y-128870000D01*
X222051666Y-128917619D01*
X222146904Y-129060476D01*
X222194523Y-129250952D01*
X222194523Y-129631904D01*
X222146904Y-129727142D01*
X222099285Y-129774761D01*
X222004047Y-129822380D01*
X221813571Y-129822380D01*
X221718333Y-129774761D01*
X221670714Y-129727142D01*
X221623095Y-129631904D01*
X221623095Y-129393809D01*
X221670714Y-129298571D01*
X221718333Y-129250952D01*
X221813571Y-129203333D01*
X222004047Y-129203333D01*
X222099285Y-129250952D01*
X222146904Y-129298571D01*
X222194523Y-129393809D01*
X222003857Y-148872380D02*
X222337190Y-148396190D01*
X222575285Y-148872380D02*
X222575285Y-147872380D01*
X222194333Y-147872380D01*
X222099095Y-147920000D01*
X222051476Y-147967619D01*
X222003857Y-148062857D01*
X222003857Y-148205714D01*
X222051476Y-148300952D01*
X222099095Y-148348571D01*
X222194333Y-148396190D01*
X222575285Y-148396190D01*
X221146714Y-148205714D02*
X221146714Y-148872380D01*
X221384809Y-147824761D02*
X221622904Y-148539047D01*
X221003857Y-148539047D01*
X220194333Y-148205714D02*
X220194333Y-148872380D01*
X220432428Y-147824761D02*
X220670523Y-148539047D01*
X220051476Y-148539047D01*
X177451857Y-129771380D02*
X177785190Y-129295190D01*
X178023285Y-129771380D02*
X178023285Y-128771380D01*
X177642333Y-128771380D01*
X177547095Y-128819000D01*
X177499476Y-128866619D01*
X177451857Y-128961857D01*
X177451857Y-129104714D01*
X177499476Y-129199952D01*
X177547095Y-129247571D01*
X177642333Y-129295190D01*
X178023285Y-129295190D01*
X176594714Y-129104714D02*
X176594714Y-129771380D01*
X176832809Y-128723761D02*
X177070904Y-129438047D01*
X176451857Y-129438047D01*
X176166142Y-128771380D02*
X175547095Y-128771380D01*
X175880428Y-129152333D01*
X175737571Y-129152333D01*
X175642333Y-129199952D01*
X175594714Y-129247571D01*
X175547095Y-129342809D01*
X175547095Y-129580904D01*
X175594714Y-129676142D01*
X175642333Y-129723761D01*
X175737571Y-129771380D01*
X176023285Y-129771380D01*
X176118523Y-129723761D01*
X176166142Y-129676142D01*
X180144857Y-105981380D02*
X180478190Y-105505190D01*
X180716285Y-105981380D02*
X180716285Y-104981380D01*
X180335333Y-104981380D01*
X180240095Y-105029000D01*
X180192476Y-105076619D01*
X180144857Y-105171857D01*
X180144857Y-105314714D01*
X180192476Y-105409952D01*
X180240095Y-105457571D01*
X180335333Y-105505190D01*
X180716285Y-105505190D01*
X179287714Y-105314714D02*
X179287714Y-105981380D01*
X179525809Y-104933761D02*
X179763904Y-105648047D01*
X179144857Y-105648047D01*
X178811523Y-105076619D02*
X178763904Y-105029000D01*
X178668666Y-104981380D01*
X178430571Y-104981380D01*
X178335333Y-105029000D01*
X178287714Y-105076619D01*
X178240095Y-105171857D01*
X178240095Y-105267095D01*
X178287714Y-105409952D01*
X178859142Y-105981380D01*
X178240095Y-105981380D01*
X178188857Y-91722380D02*
X178522190Y-91246190D01*
X178760285Y-91722380D02*
X178760285Y-90722380D01*
X178379333Y-90722380D01*
X178284095Y-90770000D01*
X178236476Y-90817619D01*
X178188857Y-90912857D01*
X178188857Y-91055714D01*
X178236476Y-91150952D01*
X178284095Y-91198571D01*
X178379333Y-91246190D01*
X178760285Y-91246190D01*
X177331714Y-91055714D02*
X177331714Y-91722380D01*
X177569809Y-90674761D02*
X177807904Y-91389047D01*
X177188857Y-91389047D01*
X176284095Y-91722380D02*
X176855523Y-91722380D01*
X176569809Y-91722380D02*
X176569809Y-90722380D01*
X176665047Y-90865238D01*
X176760285Y-90960476D01*
X176855523Y-91008095D01*
X202572857Y-148872380D02*
X202906190Y-148396190D01*
X203144285Y-148872380D02*
X203144285Y-147872380D01*
X202763333Y-147872380D01*
X202668095Y-147920000D01*
X202620476Y-147967619D01*
X202572857Y-148062857D01*
X202572857Y-148205714D01*
X202620476Y-148300952D01*
X202668095Y-148348571D01*
X202763333Y-148396190D01*
X203144285Y-148396190D01*
X201715714Y-148205714D02*
X201715714Y-148872380D01*
X201953809Y-147824761D02*
X202191904Y-148539047D01*
X201572857Y-148539047D01*
X201001428Y-147872380D02*
X200906190Y-147872380D01*
X200810952Y-147920000D01*
X200763333Y-147967619D01*
X200715714Y-148062857D01*
X200668095Y-148253333D01*
X200668095Y-148491428D01*
X200715714Y-148681904D01*
X200763333Y-148777142D01*
X200810952Y-148824761D01*
X200906190Y-148872380D01*
X201001428Y-148872380D01*
X201096666Y-148824761D01*
X201144285Y-148777142D01*
X201191904Y-148681904D01*
X201239523Y-148491428D01*
X201239523Y-148253333D01*
X201191904Y-148062857D01*
X201144285Y-147967619D01*
X201096666Y-147920000D01*
X201001428Y-147872380D01*
X154312857Y-129695380D02*
X154646190Y-129219190D01*
X154884285Y-129695380D02*
X154884285Y-128695380D01*
X154503333Y-128695380D01*
X154408095Y-128743000D01*
X154360476Y-128790619D01*
X154312857Y-128885857D01*
X154312857Y-129028714D01*
X154360476Y-129123952D01*
X154408095Y-129171571D01*
X154503333Y-129219190D01*
X154884285Y-129219190D01*
X153979523Y-128695380D02*
X153360476Y-128695380D01*
X153693809Y-129076333D01*
X153550952Y-129076333D01*
X153455714Y-129123952D01*
X153408095Y-129171571D01*
X153360476Y-129266809D01*
X153360476Y-129504904D01*
X153408095Y-129600142D01*
X153455714Y-129647761D01*
X153550952Y-129695380D01*
X153836666Y-129695380D01*
X153931904Y-129647761D01*
X153979523Y-129600142D01*
X152884285Y-129695380D02*
X152693809Y-129695380D01*
X152598571Y-129647761D01*
X152550952Y-129600142D01*
X152455714Y-129457285D01*
X152408095Y-129266809D01*
X152408095Y-128885857D01*
X152455714Y-128790619D01*
X152503333Y-128743000D01*
X152598571Y-128695380D01*
X152789047Y-128695380D01*
X152884285Y-128743000D01*
X152931904Y-128790619D01*
X152979523Y-128885857D01*
X152979523Y-129123952D01*
X152931904Y-129219190D01*
X152884285Y-129266809D01*
X152789047Y-129314428D01*
X152598571Y-129314428D01*
X152503333Y-129266809D01*
X152455714Y-129219190D01*
X152408095Y-129123952D01*
X154922857Y-110747380D02*
X155256190Y-110271190D01*
X155494285Y-110747380D02*
X155494285Y-109747380D01*
X155113333Y-109747380D01*
X155018095Y-109795000D01*
X154970476Y-109842619D01*
X154922857Y-109937857D01*
X154922857Y-110080714D01*
X154970476Y-110175952D01*
X155018095Y-110223571D01*
X155113333Y-110271190D01*
X155494285Y-110271190D01*
X154589523Y-109747380D02*
X153970476Y-109747380D01*
X154303809Y-110128333D01*
X154160952Y-110128333D01*
X154065714Y-110175952D01*
X154018095Y-110223571D01*
X153970476Y-110318809D01*
X153970476Y-110556904D01*
X154018095Y-110652142D01*
X154065714Y-110699761D01*
X154160952Y-110747380D01*
X154446666Y-110747380D01*
X154541904Y-110699761D01*
X154589523Y-110652142D01*
X153399047Y-110175952D02*
X153494285Y-110128333D01*
X153541904Y-110080714D01*
X153589523Y-109985476D01*
X153589523Y-109937857D01*
X153541904Y-109842619D01*
X153494285Y-109795000D01*
X153399047Y-109747380D01*
X153208571Y-109747380D01*
X153113333Y-109795000D01*
X153065714Y-109842619D01*
X153018095Y-109937857D01*
X153018095Y-109985476D01*
X153065714Y-110080714D01*
X153113333Y-110128333D01*
X153208571Y-110175952D01*
X153399047Y-110175952D01*
X153494285Y-110223571D01*
X153541904Y-110271190D01*
X153589523Y-110366428D01*
X153589523Y-110556904D01*
X153541904Y-110652142D01*
X153494285Y-110699761D01*
X153399047Y-110747380D01*
X153208571Y-110747380D01*
X153113333Y-110699761D01*
X153065714Y-110652142D01*
X153018095Y-110556904D01*
X153018095Y-110366428D01*
X153065714Y-110271190D01*
X153113333Y-110223571D01*
X153208571Y-110175952D01*
X153931857Y-91595380D02*
X154265190Y-91119190D01*
X154503285Y-91595380D02*
X154503285Y-90595380D01*
X154122333Y-90595380D01*
X154027095Y-90643000D01*
X153979476Y-90690619D01*
X153931857Y-90785857D01*
X153931857Y-90928714D01*
X153979476Y-91023952D01*
X154027095Y-91071571D01*
X154122333Y-91119190D01*
X154503285Y-91119190D01*
X153598523Y-90595380D02*
X152979476Y-90595380D01*
X153312809Y-90976333D01*
X153169952Y-90976333D01*
X153074714Y-91023952D01*
X153027095Y-91071571D01*
X152979476Y-91166809D01*
X152979476Y-91404904D01*
X153027095Y-91500142D01*
X153074714Y-91547761D01*
X153169952Y-91595380D01*
X153455666Y-91595380D01*
X153550904Y-91547761D01*
X153598523Y-91500142D01*
X152646142Y-90595380D02*
X151979476Y-90595380D01*
X152408047Y-91595380D01*
X183903857Y-148745380D02*
X184237190Y-148269190D01*
X184475285Y-148745380D02*
X184475285Y-147745380D01*
X184094333Y-147745380D01*
X183999095Y-147793000D01*
X183951476Y-147840619D01*
X183903857Y-147935857D01*
X183903857Y-148078714D01*
X183951476Y-148173952D01*
X183999095Y-148221571D01*
X184094333Y-148269190D01*
X184475285Y-148269190D01*
X183570523Y-147745380D02*
X182951476Y-147745380D01*
X183284809Y-148126333D01*
X183141952Y-148126333D01*
X183046714Y-148173952D01*
X182999095Y-148221571D01*
X182951476Y-148316809D01*
X182951476Y-148554904D01*
X182999095Y-148650142D01*
X183046714Y-148697761D01*
X183141952Y-148745380D01*
X183427666Y-148745380D01*
X183522904Y-148697761D01*
X183570523Y-148650142D01*
X182094333Y-147745380D02*
X182284809Y-147745380D01*
X182380047Y-147793000D01*
X182427666Y-147840619D01*
X182522904Y-147983476D01*
X182570523Y-148173952D01*
X182570523Y-148554904D01*
X182522904Y-148650142D01*
X182475285Y-148697761D01*
X182380047Y-148745380D01*
X182189571Y-148745380D01*
X182094333Y-148697761D01*
X182046714Y-148650142D01*
X181999095Y-148554904D01*
X181999095Y-148316809D01*
X182046714Y-148221571D01*
X182094333Y-148173952D01*
X182189571Y-148126333D01*
X182380047Y-148126333D01*
X182475285Y-148173952D01*
X182522904Y-148221571D01*
X182570523Y-148316809D01*
X136202857Y-129746380D02*
X136536190Y-129270190D01*
X136774285Y-129746380D02*
X136774285Y-128746380D01*
X136393333Y-128746380D01*
X136298095Y-128794000D01*
X136250476Y-128841619D01*
X136202857Y-128936857D01*
X136202857Y-129079714D01*
X136250476Y-129174952D01*
X136298095Y-129222571D01*
X136393333Y-129270190D01*
X136774285Y-129270190D01*
X135869523Y-128746380D02*
X135250476Y-128746380D01*
X135583809Y-129127333D01*
X135440952Y-129127333D01*
X135345714Y-129174952D01*
X135298095Y-129222571D01*
X135250476Y-129317809D01*
X135250476Y-129555904D01*
X135298095Y-129651142D01*
X135345714Y-129698761D01*
X135440952Y-129746380D01*
X135726666Y-129746380D01*
X135821904Y-129698761D01*
X135869523Y-129651142D01*
X134345714Y-128746380D02*
X134821904Y-128746380D01*
X134869523Y-129222571D01*
X134821904Y-129174952D01*
X134726666Y-129127333D01*
X134488571Y-129127333D01*
X134393333Y-129174952D01*
X134345714Y-129222571D01*
X134298095Y-129317809D01*
X134298095Y-129555904D01*
X134345714Y-129651142D01*
X134393333Y-129698761D01*
X134488571Y-129746380D01*
X134726666Y-129746380D01*
X134821904Y-129698761D01*
X134869523Y-129651142D01*
X136151857Y-110772380D02*
X136485190Y-110296190D01*
X136723285Y-110772380D02*
X136723285Y-109772380D01*
X136342333Y-109772380D01*
X136247095Y-109820000D01*
X136199476Y-109867619D01*
X136151857Y-109962857D01*
X136151857Y-110105714D01*
X136199476Y-110200952D01*
X136247095Y-110248571D01*
X136342333Y-110296190D01*
X136723285Y-110296190D01*
X135818523Y-109772380D02*
X135199476Y-109772380D01*
X135532809Y-110153333D01*
X135389952Y-110153333D01*
X135294714Y-110200952D01*
X135247095Y-110248571D01*
X135199476Y-110343809D01*
X135199476Y-110581904D01*
X135247095Y-110677142D01*
X135294714Y-110724761D01*
X135389952Y-110772380D01*
X135675666Y-110772380D01*
X135770904Y-110724761D01*
X135818523Y-110677142D01*
X134342333Y-110105714D02*
X134342333Y-110772380D01*
X134580428Y-109724761D02*
X134818523Y-110439047D01*
X134199476Y-110439047D01*
X136405857Y-91595380D02*
X136739190Y-91119190D01*
X136977285Y-91595380D02*
X136977285Y-90595380D01*
X136596333Y-90595380D01*
X136501095Y-90643000D01*
X136453476Y-90690619D01*
X136405857Y-90785857D01*
X136405857Y-90928714D01*
X136453476Y-91023952D01*
X136501095Y-91071571D01*
X136596333Y-91119190D01*
X136977285Y-91119190D01*
X136072523Y-90595380D02*
X135453476Y-90595380D01*
X135786809Y-90976333D01*
X135643952Y-90976333D01*
X135548714Y-91023952D01*
X135501095Y-91071571D01*
X135453476Y-91166809D01*
X135453476Y-91404904D01*
X135501095Y-91500142D01*
X135548714Y-91547761D01*
X135643952Y-91595380D01*
X135929666Y-91595380D01*
X136024904Y-91547761D01*
X136072523Y-91500142D01*
X135120142Y-90595380D02*
X134501095Y-90595380D01*
X134834428Y-90976333D01*
X134691571Y-90976333D01*
X134596333Y-91023952D01*
X134548714Y-91071571D01*
X134501095Y-91166809D01*
X134501095Y-91404904D01*
X134548714Y-91500142D01*
X134596333Y-91547761D01*
X134691571Y-91595380D01*
X134977285Y-91595380D01*
X135072523Y-91547761D01*
X135120142Y-91500142D01*
X160281857Y-148872380D02*
X160615190Y-148396190D01*
X160853285Y-148872380D02*
X160853285Y-147872380D01*
X160472333Y-147872380D01*
X160377095Y-147920000D01*
X160329476Y-147967619D01*
X160281857Y-148062857D01*
X160281857Y-148205714D01*
X160329476Y-148300952D01*
X160377095Y-148348571D01*
X160472333Y-148396190D01*
X160853285Y-148396190D01*
X159948523Y-147872380D02*
X159329476Y-147872380D01*
X159662809Y-148253333D01*
X159519952Y-148253333D01*
X159424714Y-148300952D01*
X159377095Y-148348571D01*
X159329476Y-148443809D01*
X159329476Y-148681904D01*
X159377095Y-148777142D01*
X159424714Y-148824761D01*
X159519952Y-148872380D01*
X159805666Y-148872380D01*
X159900904Y-148824761D01*
X159948523Y-148777142D01*
X158948523Y-147967619D02*
X158900904Y-147920000D01*
X158805666Y-147872380D01*
X158567571Y-147872380D01*
X158472333Y-147920000D01*
X158424714Y-147967619D01*
X158377095Y-148062857D01*
X158377095Y-148158095D01*
X158424714Y-148300952D01*
X158996142Y-148872380D01*
X158377095Y-148872380D01*
X118346857Y-129746380D02*
X118680190Y-129270190D01*
X118918285Y-129746380D02*
X118918285Y-128746380D01*
X118537333Y-128746380D01*
X118442095Y-128794000D01*
X118394476Y-128841619D01*
X118346857Y-128936857D01*
X118346857Y-129079714D01*
X118394476Y-129174952D01*
X118442095Y-129222571D01*
X118537333Y-129270190D01*
X118918285Y-129270190D01*
X118013523Y-128746380D02*
X117394476Y-128746380D01*
X117727809Y-129127333D01*
X117584952Y-129127333D01*
X117489714Y-129174952D01*
X117442095Y-129222571D01*
X117394476Y-129317809D01*
X117394476Y-129555904D01*
X117442095Y-129651142D01*
X117489714Y-129698761D01*
X117584952Y-129746380D01*
X117870666Y-129746380D01*
X117965904Y-129698761D01*
X118013523Y-129651142D01*
X116442095Y-129746380D02*
X117013523Y-129746380D01*
X116727809Y-129746380D02*
X116727809Y-128746380D01*
X116823047Y-128889238D01*
X116918285Y-128984476D01*
X117013523Y-129032095D01*
X117101857Y-110772380D02*
X117435190Y-110296190D01*
X117673285Y-110772380D02*
X117673285Y-109772380D01*
X117292333Y-109772380D01*
X117197095Y-109820000D01*
X117149476Y-109867619D01*
X117101857Y-109962857D01*
X117101857Y-110105714D01*
X117149476Y-110200952D01*
X117197095Y-110248571D01*
X117292333Y-110296190D01*
X117673285Y-110296190D01*
X116768523Y-109772380D02*
X116149476Y-109772380D01*
X116482809Y-110153333D01*
X116339952Y-110153333D01*
X116244714Y-110200952D01*
X116197095Y-110248571D01*
X116149476Y-110343809D01*
X116149476Y-110581904D01*
X116197095Y-110677142D01*
X116244714Y-110724761D01*
X116339952Y-110772380D01*
X116625666Y-110772380D01*
X116720904Y-110724761D01*
X116768523Y-110677142D01*
X115530428Y-109772380D02*
X115435190Y-109772380D01*
X115339952Y-109820000D01*
X115292333Y-109867619D01*
X115244714Y-109962857D01*
X115197095Y-110153333D01*
X115197095Y-110391428D01*
X115244714Y-110581904D01*
X115292333Y-110677142D01*
X115339952Y-110724761D01*
X115435190Y-110772380D01*
X115530428Y-110772380D01*
X115625666Y-110724761D01*
X115673285Y-110677142D01*
X115720904Y-110581904D01*
X115768523Y-110391428D01*
X115768523Y-110153333D01*
X115720904Y-109962857D01*
X115673285Y-109867619D01*
X115625666Y-109820000D01*
X115530428Y-109772380D01*
X118498857Y-91595380D02*
X118832190Y-91119190D01*
X119070285Y-91595380D02*
X119070285Y-90595380D01*
X118689333Y-90595380D01*
X118594095Y-90643000D01*
X118546476Y-90690619D01*
X118498857Y-90785857D01*
X118498857Y-90928714D01*
X118546476Y-91023952D01*
X118594095Y-91071571D01*
X118689333Y-91119190D01*
X119070285Y-91119190D01*
X118117904Y-90690619D02*
X118070285Y-90643000D01*
X117975047Y-90595380D01*
X117736952Y-90595380D01*
X117641714Y-90643000D01*
X117594095Y-90690619D01*
X117546476Y-90785857D01*
X117546476Y-90881095D01*
X117594095Y-91023952D01*
X118165523Y-91595380D01*
X117546476Y-91595380D01*
X117070285Y-91595380D02*
X116879809Y-91595380D01*
X116784571Y-91547761D01*
X116736952Y-91500142D01*
X116641714Y-91357285D01*
X116594095Y-91166809D01*
X116594095Y-90785857D01*
X116641714Y-90690619D01*
X116689333Y-90643000D01*
X116784571Y-90595380D01*
X116975047Y-90595380D01*
X117070285Y-90643000D01*
X117117904Y-90690619D01*
X117165523Y-90785857D01*
X117165523Y-91023952D01*
X117117904Y-91119190D01*
X117070285Y-91166809D01*
X116975047Y-91214428D01*
X116784571Y-91214428D01*
X116689333Y-91166809D01*
X116641714Y-91119190D01*
X116594095Y-91023952D01*
X131706857Y-148999380D02*
X132040190Y-148523190D01*
X132278285Y-148999380D02*
X132278285Y-147999380D01*
X131897333Y-147999380D01*
X131802095Y-148047000D01*
X131754476Y-148094619D01*
X131706857Y-148189857D01*
X131706857Y-148332714D01*
X131754476Y-148427952D01*
X131802095Y-148475571D01*
X131897333Y-148523190D01*
X132278285Y-148523190D01*
X131325904Y-148094619D02*
X131278285Y-148047000D01*
X131183047Y-147999380D01*
X130944952Y-147999380D01*
X130849714Y-148047000D01*
X130802095Y-148094619D01*
X130754476Y-148189857D01*
X130754476Y-148285095D01*
X130802095Y-148427952D01*
X131373523Y-148999380D01*
X130754476Y-148999380D01*
X130183047Y-148427952D02*
X130278285Y-148380333D01*
X130325904Y-148332714D01*
X130373523Y-148237476D01*
X130373523Y-148189857D01*
X130325904Y-148094619D01*
X130278285Y-148047000D01*
X130183047Y-147999380D01*
X129992571Y-147999380D01*
X129897333Y-148047000D01*
X129849714Y-148094619D01*
X129802095Y-148189857D01*
X129802095Y-148237476D01*
X129849714Y-148332714D01*
X129897333Y-148380333D01*
X129992571Y-148427952D01*
X130183047Y-148427952D01*
X130278285Y-148475571D01*
X130325904Y-148523190D01*
X130373523Y-148618428D01*
X130373523Y-148808904D01*
X130325904Y-148904142D01*
X130278285Y-148951761D01*
X130183047Y-148999380D01*
X129992571Y-148999380D01*
X129897333Y-148951761D01*
X129849714Y-148904142D01*
X129802095Y-148808904D01*
X129802095Y-148618428D01*
X129849714Y-148523190D01*
X129897333Y-148475571D01*
X129992571Y-148427952D01*
X100718857Y-129720380D02*
X101052190Y-129244190D01*
X101290285Y-129720380D02*
X101290285Y-128720380D01*
X100909333Y-128720380D01*
X100814095Y-128768000D01*
X100766476Y-128815619D01*
X100718857Y-128910857D01*
X100718857Y-129053714D01*
X100766476Y-129148952D01*
X100814095Y-129196571D01*
X100909333Y-129244190D01*
X101290285Y-129244190D01*
X100337904Y-128815619D02*
X100290285Y-128768000D01*
X100195047Y-128720380D01*
X99956952Y-128720380D01*
X99861714Y-128768000D01*
X99814095Y-128815619D01*
X99766476Y-128910857D01*
X99766476Y-129006095D01*
X99814095Y-129148952D01*
X100385523Y-129720380D01*
X99766476Y-129720380D01*
X99433142Y-128720380D02*
X98766476Y-128720380D01*
X99195047Y-129720380D01*
X98178857Y-110772380D02*
X98512190Y-110296190D01*
X98750285Y-110772380D02*
X98750285Y-109772380D01*
X98369333Y-109772380D01*
X98274095Y-109820000D01*
X98226476Y-109867619D01*
X98178857Y-109962857D01*
X98178857Y-110105714D01*
X98226476Y-110200952D01*
X98274095Y-110248571D01*
X98369333Y-110296190D01*
X98750285Y-110296190D01*
X97797904Y-109867619D02*
X97750285Y-109820000D01*
X97655047Y-109772380D01*
X97416952Y-109772380D01*
X97321714Y-109820000D01*
X97274095Y-109867619D01*
X97226476Y-109962857D01*
X97226476Y-110058095D01*
X97274095Y-110200952D01*
X97845523Y-110772380D01*
X97226476Y-110772380D01*
X96369333Y-109772380D02*
X96559809Y-109772380D01*
X96655047Y-109820000D01*
X96702666Y-109867619D01*
X96797904Y-110010476D01*
X96845523Y-110200952D01*
X96845523Y-110581904D01*
X96797904Y-110677142D01*
X96750285Y-110724761D01*
X96655047Y-110772380D01*
X96464571Y-110772380D01*
X96369333Y-110724761D01*
X96321714Y-110677142D01*
X96274095Y-110581904D01*
X96274095Y-110343809D01*
X96321714Y-110248571D01*
X96369333Y-110200952D01*
X96464571Y-110153333D01*
X96655047Y-110153333D01*
X96750285Y-110200952D01*
X96797904Y-110248571D01*
X96845523Y-110343809D01*
X100896657Y-91646180D02*
X101229990Y-91169990D01*
X101468085Y-91646180D02*
X101468085Y-90646180D01*
X101087133Y-90646180D01*
X100991895Y-90693800D01*
X100944276Y-90741419D01*
X100896657Y-90836657D01*
X100896657Y-90979514D01*
X100944276Y-91074752D01*
X100991895Y-91122371D01*
X101087133Y-91169990D01*
X101468085Y-91169990D01*
X100515704Y-90741419D02*
X100468085Y-90693800D01*
X100372847Y-90646180D01*
X100134752Y-90646180D01*
X100039514Y-90693800D01*
X99991895Y-90741419D01*
X99944276Y-90836657D01*
X99944276Y-90931895D01*
X99991895Y-91074752D01*
X100563323Y-91646180D01*
X99944276Y-91646180D01*
X99039514Y-90646180D02*
X99515704Y-90646180D01*
X99563323Y-91122371D01*
X99515704Y-91074752D01*
X99420466Y-91027133D01*
X99182371Y-91027133D01*
X99087133Y-91074752D01*
X99039514Y-91122371D01*
X98991895Y-91217609D01*
X98991895Y-91455704D01*
X99039514Y-91550942D01*
X99087133Y-91598561D01*
X99182371Y-91646180D01*
X99420466Y-91646180D01*
X99515704Y-91598561D01*
X99563323Y-91550942D01*
X103004857Y-148745380D02*
X103338190Y-148269190D01*
X103576285Y-148745380D02*
X103576285Y-147745380D01*
X103195333Y-147745380D01*
X103100095Y-147793000D01*
X103052476Y-147840619D01*
X103004857Y-147935857D01*
X103004857Y-148078714D01*
X103052476Y-148173952D01*
X103100095Y-148221571D01*
X103195333Y-148269190D01*
X103576285Y-148269190D01*
X102623904Y-147840619D02*
X102576285Y-147793000D01*
X102481047Y-147745380D01*
X102242952Y-147745380D01*
X102147714Y-147793000D01*
X102100095Y-147840619D01*
X102052476Y-147935857D01*
X102052476Y-148031095D01*
X102100095Y-148173952D01*
X102671523Y-148745380D01*
X102052476Y-148745380D01*
X101195333Y-148078714D02*
X101195333Y-148745380D01*
X101433428Y-147697761D02*
X101671523Y-148412047D01*
X101052476Y-148412047D01*
X76080857Y-129771380D02*
X76414190Y-129295190D01*
X76652285Y-129771380D02*
X76652285Y-128771380D01*
X76271333Y-128771380D01*
X76176095Y-128819000D01*
X76128476Y-128866619D01*
X76080857Y-128961857D01*
X76080857Y-129104714D01*
X76128476Y-129199952D01*
X76176095Y-129247571D01*
X76271333Y-129295190D01*
X76652285Y-129295190D01*
X75699904Y-128866619D02*
X75652285Y-128819000D01*
X75557047Y-128771380D01*
X75318952Y-128771380D01*
X75223714Y-128819000D01*
X75176095Y-128866619D01*
X75128476Y-128961857D01*
X75128476Y-129057095D01*
X75176095Y-129199952D01*
X75747523Y-129771380D01*
X75128476Y-129771380D01*
X74795142Y-128771380D02*
X74176095Y-128771380D01*
X74509428Y-129152333D01*
X74366571Y-129152333D01*
X74271333Y-129199952D01*
X74223714Y-129247571D01*
X74176095Y-129342809D01*
X74176095Y-129580904D01*
X74223714Y-129676142D01*
X74271333Y-129723761D01*
X74366571Y-129771380D01*
X74652285Y-129771380D01*
X74747523Y-129723761D01*
X74795142Y-129676142D01*
X79128857Y-110696380D02*
X79462190Y-110220190D01*
X79700285Y-110696380D02*
X79700285Y-109696380D01*
X79319333Y-109696380D01*
X79224095Y-109744000D01*
X79176476Y-109791619D01*
X79128857Y-109886857D01*
X79128857Y-110029714D01*
X79176476Y-110124952D01*
X79224095Y-110172571D01*
X79319333Y-110220190D01*
X79700285Y-110220190D01*
X78747904Y-109791619D02*
X78700285Y-109744000D01*
X78605047Y-109696380D01*
X78366952Y-109696380D01*
X78271714Y-109744000D01*
X78224095Y-109791619D01*
X78176476Y-109886857D01*
X78176476Y-109982095D01*
X78224095Y-110124952D01*
X78795523Y-110696380D01*
X78176476Y-110696380D01*
X77795523Y-109791619D02*
X77747904Y-109744000D01*
X77652666Y-109696380D01*
X77414571Y-109696380D01*
X77319333Y-109744000D01*
X77271714Y-109791619D01*
X77224095Y-109886857D01*
X77224095Y-109982095D01*
X77271714Y-110124952D01*
X77843142Y-110696380D01*
X77224095Y-110696380D01*
X76080857Y-91722380D02*
X76414190Y-91246190D01*
X76652285Y-91722380D02*
X76652285Y-90722380D01*
X76271333Y-90722380D01*
X76176095Y-90770000D01*
X76128476Y-90817619D01*
X76080857Y-90912857D01*
X76080857Y-91055714D01*
X76128476Y-91150952D01*
X76176095Y-91198571D01*
X76271333Y-91246190D01*
X76652285Y-91246190D01*
X75699904Y-90817619D02*
X75652285Y-90770000D01*
X75557047Y-90722380D01*
X75318952Y-90722380D01*
X75223714Y-90770000D01*
X75176095Y-90817619D01*
X75128476Y-90912857D01*
X75128476Y-91008095D01*
X75176095Y-91150952D01*
X75747523Y-91722380D01*
X75128476Y-91722380D01*
X74176095Y-91722380D02*
X74747523Y-91722380D01*
X74461809Y-91722380D02*
X74461809Y-90722380D01*
X74557047Y-90865238D01*
X74652285Y-90960476D01*
X74747523Y-91008095D01*
X69476857Y-148745380D02*
X69810190Y-148269190D01*
X70048285Y-148745380D02*
X70048285Y-147745380D01*
X69667333Y-147745380D01*
X69572095Y-147793000D01*
X69524476Y-147840619D01*
X69476857Y-147935857D01*
X69476857Y-148078714D01*
X69524476Y-148173952D01*
X69572095Y-148221571D01*
X69667333Y-148269190D01*
X70048285Y-148269190D01*
X69095904Y-147840619D02*
X69048285Y-147793000D01*
X68953047Y-147745380D01*
X68714952Y-147745380D01*
X68619714Y-147793000D01*
X68572095Y-147840619D01*
X68524476Y-147935857D01*
X68524476Y-148031095D01*
X68572095Y-148173952D01*
X69143523Y-148745380D01*
X68524476Y-148745380D01*
X67905428Y-147745380D02*
X67810190Y-147745380D01*
X67714952Y-147793000D01*
X67667333Y-147840619D01*
X67619714Y-147935857D01*
X67572095Y-148126333D01*
X67572095Y-148364428D01*
X67619714Y-148554904D01*
X67667333Y-148650142D01*
X67714952Y-148697761D01*
X67810190Y-148745380D01*
X67905428Y-148745380D01*
X68000666Y-148697761D01*
X68048285Y-148650142D01*
X68095904Y-148554904D01*
X68143523Y-148364428D01*
X68143523Y-148126333D01*
X68095904Y-147935857D01*
X68048285Y-147840619D01*
X68000666Y-147793000D01*
X67905428Y-147745380D01*
X58402457Y-129746380D02*
X58735790Y-129270190D01*
X58973885Y-129746380D02*
X58973885Y-128746380D01*
X58592933Y-128746380D01*
X58497695Y-128794000D01*
X58450076Y-128841619D01*
X58402457Y-128936857D01*
X58402457Y-129079714D01*
X58450076Y-129174952D01*
X58497695Y-129222571D01*
X58592933Y-129270190D01*
X58973885Y-129270190D01*
X57450076Y-129746380D02*
X58021504Y-129746380D01*
X57735790Y-129746380D02*
X57735790Y-128746380D01*
X57831028Y-128889238D01*
X57926266Y-128984476D01*
X58021504Y-129032095D01*
X56973885Y-129746380D02*
X56783409Y-129746380D01*
X56688171Y-129698761D01*
X56640552Y-129651142D01*
X56545314Y-129508285D01*
X56497695Y-129317809D01*
X56497695Y-128936857D01*
X56545314Y-128841619D01*
X56592933Y-128794000D01*
X56688171Y-128746380D01*
X56878647Y-128746380D01*
X56973885Y-128794000D01*
X57021504Y-128841619D01*
X57069123Y-128936857D01*
X57069123Y-129174952D01*
X57021504Y-129270190D01*
X56973885Y-129317809D01*
X56878647Y-129365428D01*
X56688171Y-129365428D01*
X56592933Y-129317809D01*
X56545314Y-129270190D01*
X56497695Y-129174952D01*
X59875657Y-110747380D02*
X60208990Y-110271190D01*
X60447085Y-110747380D02*
X60447085Y-109747380D01*
X60066133Y-109747380D01*
X59970895Y-109795000D01*
X59923276Y-109842619D01*
X59875657Y-109937857D01*
X59875657Y-110080714D01*
X59923276Y-110175952D01*
X59970895Y-110223571D01*
X60066133Y-110271190D01*
X60447085Y-110271190D01*
X58923276Y-110747380D02*
X59494704Y-110747380D01*
X59208990Y-110747380D02*
X59208990Y-109747380D01*
X59304228Y-109890238D01*
X59399466Y-109985476D01*
X59494704Y-110033095D01*
X58351847Y-110175952D02*
X58447085Y-110128333D01*
X58494704Y-110080714D01*
X58542323Y-109985476D01*
X58542323Y-109937857D01*
X58494704Y-109842619D01*
X58447085Y-109795000D01*
X58351847Y-109747380D01*
X58161371Y-109747380D01*
X58066133Y-109795000D01*
X58018514Y-109842619D01*
X57970895Y-109937857D01*
X57970895Y-109985476D01*
X58018514Y-110080714D01*
X58066133Y-110128333D01*
X58161371Y-110175952D01*
X58351847Y-110175952D01*
X58447085Y-110223571D01*
X58494704Y-110271190D01*
X58542323Y-110366428D01*
X58542323Y-110556904D01*
X58494704Y-110652142D01*
X58447085Y-110699761D01*
X58351847Y-110747380D01*
X58161371Y-110747380D01*
X58066133Y-110699761D01*
X58018514Y-110652142D01*
X57970895Y-110556904D01*
X57970895Y-110366428D01*
X58018514Y-110271190D01*
X58066133Y-110223571D01*
X58161371Y-110175952D01*
X58300857Y-91646180D02*
X58634190Y-91169990D01*
X58872285Y-91646180D02*
X58872285Y-90646180D01*
X58491333Y-90646180D01*
X58396095Y-90693800D01*
X58348476Y-90741419D01*
X58300857Y-90836657D01*
X58300857Y-90979514D01*
X58348476Y-91074752D01*
X58396095Y-91122371D01*
X58491333Y-91169990D01*
X58872285Y-91169990D01*
X57348476Y-91646180D02*
X57919904Y-91646180D01*
X57634190Y-91646180D02*
X57634190Y-90646180D01*
X57729428Y-90789038D01*
X57824666Y-90884276D01*
X57919904Y-90931895D01*
X57015142Y-90646180D02*
X56348476Y-90646180D01*
X56777047Y-91646180D01*
X195612380Y-134294714D02*
X194612380Y-134294714D01*
X194612380Y-134532809D01*
X194660000Y-134675666D01*
X194755238Y-134770904D01*
X194850476Y-134818523D01*
X195040952Y-134866142D01*
X195183809Y-134866142D01*
X195374285Y-134818523D01*
X195469523Y-134770904D01*
X195564761Y-134675666D01*
X195612380Y-134532809D01*
X195612380Y-134294714D01*
X194945714Y-135723285D02*
X195612380Y-135723285D01*
X194564761Y-135485190D02*
X195279047Y-135247095D01*
X195279047Y-135866142D01*
X194612380Y-136151857D02*
X194612380Y-136818523D01*
X195612380Y-136389952D01*
X195292380Y-139057095D02*
X194292380Y-139057095D01*
X195292380Y-139628523D02*
X194720952Y-139199952D01*
X194292380Y-139628523D02*
X194863809Y-139057095D01*
X193924285Y-145371380D02*
X193924285Y-144371380D01*
X193686190Y-144371380D01*
X193543333Y-144419000D01*
X193448095Y-144514238D01*
X193400476Y-144609476D01*
X193352857Y-144799952D01*
X193352857Y-144942809D01*
X193400476Y-145133285D01*
X193448095Y-145228523D01*
X193543333Y-145323761D01*
X193686190Y-145371380D01*
X193924285Y-145371380D01*
X192495714Y-144704714D02*
X192495714Y-145371380D01*
X192733809Y-144323761D02*
X192971904Y-145038047D01*
X192352857Y-145038047D01*
X191543333Y-144371380D02*
X191733809Y-144371380D01*
X191829047Y-144419000D01*
X191876666Y-144466619D01*
X191971904Y-144609476D01*
X192019523Y-144799952D01*
X192019523Y-145180904D01*
X191971904Y-145276142D01*
X191924285Y-145323761D01*
X191829047Y-145371380D01*
X191638571Y-145371380D01*
X191543333Y-145323761D01*
X191495714Y-145276142D01*
X191448095Y-145180904D01*
X191448095Y-144942809D01*
X191495714Y-144847571D01*
X191543333Y-144799952D01*
X191638571Y-144752333D01*
X191829047Y-144752333D01*
X191924285Y-144799952D01*
X191971904Y-144847571D01*
X192019523Y-144942809D01*
X189161904Y-145051380D02*
X189161904Y-144051380D01*
X188590476Y-145051380D02*
X189019047Y-144479952D01*
X188590476Y-144051380D02*
X189161904Y-144622809D01*
X214662380Y-153344714D02*
X213662380Y-153344714D01*
X213662380Y-153582809D01*
X213710000Y-153725666D01*
X213805238Y-153820904D01*
X213900476Y-153868523D01*
X214090952Y-153916142D01*
X214233809Y-153916142D01*
X214424285Y-153868523D01*
X214519523Y-153820904D01*
X214614761Y-153725666D01*
X214662380Y-153582809D01*
X214662380Y-153344714D01*
X213995714Y-154773285D02*
X214662380Y-154773285D01*
X213614761Y-154535190D02*
X214329047Y-154297095D01*
X214329047Y-154916142D01*
X213995714Y-155725666D02*
X214662380Y-155725666D01*
X213614761Y-155487571D02*
X214329047Y-155249476D01*
X214329047Y-155868523D01*
X214342380Y-158107095D02*
X213342380Y-158107095D01*
X214342380Y-158678523D02*
X213770952Y-158249952D01*
X213342380Y-158678523D02*
X213913809Y-158107095D01*
X171863380Y-134294714D02*
X170863380Y-134294714D01*
X170863380Y-134532809D01*
X170911000Y-134675666D01*
X171006238Y-134770904D01*
X171101476Y-134818523D01*
X171291952Y-134866142D01*
X171434809Y-134866142D01*
X171625285Y-134818523D01*
X171720523Y-134770904D01*
X171815761Y-134675666D01*
X171863380Y-134532809D01*
X171863380Y-134294714D01*
X171196714Y-135723285D02*
X171863380Y-135723285D01*
X170815761Y-135485190D02*
X171530047Y-135247095D01*
X171530047Y-135866142D01*
X170863380Y-136151857D02*
X170863380Y-136770904D01*
X171244333Y-136437571D01*
X171244333Y-136580428D01*
X171291952Y-136675666D01*
X171339571Y-136723285D01*
X171434809Y-136770904D01*
X171672904Y-136770904D01*
X171768142Y-136723285D01*
X171815761Y-136675666D01*
X171863380Y-136580428D01*
X171863380Y-136294714D01*
X171815761Y-136199476D01*
X171768142Y-136151857D01*
X171543380Y-139057095D02*
X170543380Y-139057095D01*
X171543380Y-139628523D02*
X170971952Y-139199952D01*
X170543380Y-139628523D02*
X171114809Y-139057095D01*
X171863380Y-115117714D02*
X170863380Y-115117714D01*
X170863380Y-115355809D01*
X170911000Y-115498666D01*
X171006238Y-115593904D01*
X171101476Y-115641523D01*
X171291952Y-115689142D01*
X171434809Y-115689142D01*
X171625285Y-115641523D01*
X171720523Y-115593904D01*
X171815761Y-115498666D01*
X171863380Y-115355809D01*
X171863380Y-115117714D01*
X171196714Y-116546285D02*
X171863380Y-116546285D01*
X170815761Y-116308190D02*
X171530047Y-116070095D01*
X171530047Y-116689142D01*
X170958619Y-117022476D02*
X170911000Y-117070095D01*
X170863380Y-117165333D01*
X170863380Y-117403428D01*
X170911000Y-117498666D01*
X170958619Y-117546285D01*
X171053857Y-117593904D01*
X171149095Y-117593904D01*
X171291952Y-117546285D01*
X171863380Y-116974857D01*
X171863380Y-117593904D01*
X171543380Y-119880095D02*
X170543380Y-119880095D01*
X171543380Y-120451523D02*
X170971952Y-120022952D01*
X170543380Y-120451523D02*
X171114809Y-119880095D01*
X169450380Y-96067714D02*
X168450380Y-96067714D01*
X168450380Y-96305809D01*
X168498000Y-96448666D01*
X168593238Y-96543904D01*
X168688476Y-96591523D01*
X168878952Y-96639142D01*
X169021809Y-96639142D01*
X169212285Y-96591523D01*
X169307523Y-96543904D01*
X169402761Y-96448666D01*
X169450380Y-96305809D01*
X169450380Y-96067714D01*
X168783714Y-97496285D02*
X169450380Y-97496285D01*
X168402761Y-97258190D02*
X169117047Y-97020095D01*
X169117047Y-97639142D01*
X169450380Y-98543904D02*
X169450380Y-97972476D01*
X169450380Y-98258190D02*
X168450380Y-98258190D01*
X168593238Y-98162952D01*
X168688476Y-98067714D01*
X168736095Y-97972476D01*
X169130380Y-100830095D02*
X168130380Y-100830095D01*
X169130380Y-101401523D02*
X168558952Y-100972952D01*
X168130380Y-101401523D02*
X168701809Y-100830095D01*
X195612380Y-153217714D02*
X194612380Y-153217714D01*
X194612380Y-153455809D01*
X194660000Y-153598666D01*
X194755238Y-153693904D01*
X194850476Y-153741523D01*
X195040952Y-153789142D01*
X195183809Y-153789142D01*
X195374285Y-153741523D01*
X195469523Y-153693904D01*
X195564761Y-153598666D01*
X195612380Y-153455809D01*
X195612380Y-153217714D01*
X194945714Y-154646285D02*
X195612380Y-154646285D01*
X194564761Y-154408190D02*
X195279047Y-154170095D01*
X195279047Y-154789142D01*
X194612380Y-155360571D02*
X194612380Y-155455809D01*
X194660000Y-155551047D01*
X194707619Y-155598666D01*
X194802857Y-155646285D01*
X194993333Y-155693904D01*
X195231428Y-155693904D01*
X195421904Y-155646285D01*
X195517142Y-155598666D01*
X195564761Y-155551047D01*
X195612380Y-155455809D01*
X195612380Y-155360571D01*
X195564761Y-155265333D01*
X195517142Y-155217714D01*
X195421904Y-155170095D01*
X195231428Y-155122476D01*
X194993333Y-155122476D01*
X194802857Y-155170095D01*
X194707619Y-155217714D01*
X194660000Y-155265333D01*
X194612380Y-155360571D01*
X195292380Y-157980095D02*
X194292380Y-157980095D01*
X195292380Y-158551523D02*
X194720952Y-158122952D01*
X194292380Y-158551523D02*
X194863809Y-157980095D01*
X147987380Y-134294714D02*
X146987380Y-134294714D01*
X146987380Y-134532809D01*
X147035000Y-134675666D01*
X147130238Y-134770904D01*
X147225476Y-134818523D01*
X147415952Y-134866142D01*
X147558809Y-134866142D01*
X147749285Y-134818523D01*
X147844523Y-134770904D01*
X147939761Y-134675666D01*
X147987380Y-134532809D01*
X147987380Y-134294714D01*
X146987380Y-135199476D02*
X146987380Y-135818523D01*
X147368333Y-135485190D01*
X147368333Y-135628047D01*
X147415952Y-135723285D01*
X147463571Y-135770904D01*
X147558809Y-135818523D01*
X147796904Y-135818523D01*
X147892142Y-135770904D01*
X147939761Y-135723285D01*
X147987380Y-135628047D01*
X147987380Y-135342333D01*
X147939761Y-135247095D01*
X147892142Y-135199476D01*
X147987380Y-136294714D02*
X147987380Y-136485190D01*
X147939761Y-136580428D01*
X147892142Y-136628047D01*
X147749285Y-136723285D01*
X147558809Y-136770904D01*
X147177857Y-136770904D01*
X147082619Y-136723285D01*
X147035000Y-136675666D01*
X146987380Y-136580428D01*
X146987380Y-136389952D01*
X147035000Y-136294714D01*
X147082619Y-136247095D01*
X147177857Y-136199476D01*
X147415952Y-136199476D01*
X147511190Y-136247095D01*
X147558809Y-136294714D01*
X147606428Y-136389952D01*
X147606428Y-136580428D01*
X147558809Y-136675666D01*
X147511190Y-136723285D01*
X147415952Y-136770904D01*
X147667380Y-139057095D02*
X146667380Y-139057095D01*
X147667380Y-139628523D02*
X147095952Y-139199952D01*
X146667380Y-139628523D02*
X147238809Y-139057095D01*
X147987380Y-115244714D02*
X146987380Y-115244714D01*
X146987380Y-115482809D01*
X147035000Y-115625666D01*
X147130238Y-115720904D01*
X147225476Y-115768523D01*
X147415952Y-115816142D01*
X147558809Y-115816142D01*
X147749285Y-115768523D01*
X147844523Y-115720904D01*
X147939761Y-115625666D01*
X147987380Y-115482809D01*
X147987380Y-115244714D01*
X146987380Y-116149476D02*
X146987380Y-116768523D01*
X147368333Y-116435190D01*
X147368333Y-116578047D01*
X147415952Y-116673285D01*
X147463571Y-116720904D01*
X147558809Y-116768523D01*
X147796904Y-116768523D01*
X147892142Y-116720904D01*
X147939761Y-116673285D01*
X147987380Y-116578047D01*
X147987380Y-116292333D01*
X147939761Y-116197095D01*
X147892142Y-116149476D01*
X147415952Y-117339952D02*
X147368333Y-117244714D01*
X147320714Y-117197095D01*
X147225476Y-117149476D01*
X147177857Y-117149476D01*
X147082619Y-117197095D01*
X147035000Y-117244714D01*
X146987380Y-117339952D01*
X146987380Y-117530428D01*
X147035000Y-117625666D01*
X147082619Y-117673285D01*
X147177857Y-117720904D01*
X147225476Y-117720904D01*
X147320714Y-117673285D01*
X147368333Y-117625666D01*
X147415952Y-117530428D01*
X147415952Y-117339952D01*
X147463571Y-117244714D01*
X147511190Y-117197095D01*
X147606428Y-117149476D01*
X147796904Y-117149476D01*
X147892142Y-117197095D01*
X147939761Y-117244714D01*
X147987380Y-117339952D01*
X147987380Y-117530428D01*
X147939761Y-117625666D01*
X147892142Y-117673285D01*
X147796904Y-117720904D01*
X147606428Y-117720904D01*
X147511190Y-117673285D01*
X147463571Y-117625666D01*
X147415952Y-117530428D01*
X147667380Y-120007095D02*
X146667380Y-120007095D01*
X147667380Y-120578523D02*
X147095952Y-120149952D01*
X146667380Y-120578523D02*
X147238809Y-120007095D01*
X147987380Y-96067714D02*
X146987380Y-96067714D01*
X146987380Y-96305809D01*
X147035000Y-96448666D01*
X147130238Y-96543904D01*
X147225476Y-96591523D01*
X147415952Y-96639142D01*
X147558809Y-96639142D01*
X147749285Y-96591523D01*
X147844523Y-96543904D01*
X147939761Y-96448666D01*
X147987380Y-96305809D01*
X147987380Y-96067714D01*
X146987380Y-96972476D02*
X146987380Y-97591523D01*
X147368333Y-97258190D01*
X147368333Y-97401047D01*
X147415952Y-97496285D01*
X147463571Y-97543904D01*
X147558809Y-97591523D01*
X147796904Y-97591523D01*
X147892142Y-97543904D01*
X147939761Y-97496285D01*
X147987380Y-97401047D01*
X147987380Y-97115333D01*
X147939761Y-97020095D01*
X147892142Y-96972476D01*
X146987380Y-97924857D02*
X146987380Y-98591523D01*
X147987380Y-98162952D01*
X147667380Y-100830095D02*
X146667380Y-100830095D01*
X147667380Y-101401523D02*
X147095952Y-100972952D01*
X146667380Y-101401523D02*
X147238809Y-100830095D01*
X176816380Y-153344714D02*
X175816380Y-153344714D01*
X175816380Y-153582809D01*
X175864000Y-153725666D01*
X175959238Y-153820904D01*
X176054476Y-153868523D01*
X176244952Y-153916142D01*
X176387809Y-153916142D01*
X176578285Y-153868523D01*
X176673523Y-153820904D01*
X176768761Y-153725666D01*
X176816380Y-153582809D01*
X176816380Y-153344714D01*
X175816380Y-154249476D02*
X175816380Y-154868523D01*
X176197333Y-154535190D01*
X176197333Y-154678047D01*
X176244952Y-154773285D01*
X176292571Y-154820904D01*
X176387809Y-154868523D01*
X176625904Y-154868523D01*
X176721142Y-154820904D01*
X176768761Y-154773285D01*
X176816380Y-154678047D01*
X176816380Y-154392333D01*
X176768761Y-154297095D01*
X176721142Y-154249476D01*
X175816380Y-155725666D02*
X175816380Y-155535190D01*
X175864000Y-155439952D01*
X175911619Y-155392333D01*
X176054476Y-155297095D01*
X176244952Y-155249476D01*
X176625904Y-155249476D01*
X176721142Y-155297095D01*
X176768761Y-155344714D01*
X176816380Y-155439952D01*
X176816380Y-155630428D01*
X176768761Y-155725666D01*
X176721142Y-155773285D01*
X176625904Y-155820904D01*
X176387809Y-155820904D01*
X176292571Y-155773285D01*
X176244952Y-155725666D01*
X176197333Y-155630428D01*
X176197333Y-155439952D01*
X176244952Y-155344714D01*
X176292571Y-155297095D01*
X176387809Y-155249476D01*
X176496380Y-158107095D02*
X175496380Y-158107095D01*
X176496380Y-158678523D02*
X175924952Y-158249952D01*
X175496380Y-158678523D02*
X176067809Y-158107095D01*
X128937380Y-134294714D02*
X127937380Y-134294714D01*
X127937380Y-134532809D01*
X127985000Y-134675666D01*
X128080238Y-134770904D01*
X128175476Y-134818523D01*
X128365952Y-134866142D01*
X128508809Y-134866142D01*
X128699285Y-134818523D01*
X128794523Y-134770904D01*
X128889761Y-134675666D01*
X128937380Y-134532809D01*
X128937380Y-134294714D01*
X127937380Y-135199476D02*
X127937380Y-135818523D01*
X128318333Y-135485190D01*
X128318333Y-135628047D01*
X128365952Y-135723285D01*
X128413571Y-135770904D01*
X128508809Y-135818523D01*
X128746904Y-135818523D01*
X128842142Y-135770904D01*
X128889761Y-135723285D01*
X128937380Y-135628047D01*
X128937380Y-135342333D01*
X128889761Y-135247095D01*
X128842142Y-135199476D01*
X127937380Y-136723285D02*
X127937380Y-136247095D01*
X128413571Y-136199476D01*
X128365952Y-136247095D01*
X128318333Y-136342333D01*
X128318333Y-136580428D01*
X128365952Y-136675666D01*
X128413571Y-136723285D01*
X128508809Y-136770904D01*
X128746904Y-136770904D01*
X128842142Y-136723285D01*
X128889761Y-136675666D01*
X128937380Y-136580428D01*
X128937380Y-136342333D01*
X128889761Y-136247095D01*
X128842142Y-136199476D01*
X128617380Y-139057095D02*
X127617380Y-139057095D01*
X128617380Y-139628523D02*
X128045952Y-139199952D01*
X127617380Y-139628523D02*
X128188809Y-139057095D01*
X128937380Y-115244714D02*
X127937380Y-115244714D01*
X127937380Y-115482809D01*
X127985000Y-115625666D01*
X128080238Y-115720904D01*
X128175476Y-115768523D01*
X128365952Y-115816142D01*
X128508809Y-115816142D01*
X128699285Y-115768523D01*
X128794523Y-115720904D01*
X128889761Y-115625666D01*
X128937380Y-115482809D01*
X128937380Y-115244714D01*
X127937380Y-116149476D02*
X127937380Y-116768523D01*
X128318333Y-116435190D01*
X128318333Y-116578047D01*
X128365952Y-116673285D01*
X128413571Y-116720904D01*
X128508809Y-116768523D01*
X128746904Y-116768523D01*
X128842142Y-116720904D01*
X128889761Y-116673285D01*
X128937380Y-116578047D01*
X128937380Y-116292333D01*
X128889761Y-116197095D01*
X128842142Y-116149476D01*
X128270714Y-117625666D02*
X128937380Y-117625666D01*
X127889761Y-117387571D02*
X128604047Y-117149476D01*
X128604047Y-117768523D01*
X128617380Y-120007095D02*
X127617380Y-120007095D01*
X128617380Y-120578523D02*
X128045952Y-120149952D01*
X127617380Y-120578523D02*
X128188809Y-120007095D01*
X129064380Y-96321714D02*
X128064380Y-96321714D01*
X128064380Y-96559809D01*
X128112000Y-96702666D01*
X128207238Y-96797904D01*
X128302476Y-96845523D01*
X128492952Y-96893142D01*
X128635809Y-96893142D01*
X128826285Y-96845523D01*
X128921523Y-96797904D01*
X129016761Y-96702666D01*
X129064380Y-96559809D01*
X129064380Y-96321714D01*
X128064380Y-97226476D02*
X128064380Y-97845523D01*
X128445333Y-97512190D01*
X128445333Y-97655047D01*
X128492952Y-97750285D01*
X128540571Y-97797904D01*
X128635809Y-97845523D01*
X128873904Y-97845523D01*
X128969142Y-97797904D01*
X129016761Y-97750285D01*
X129064380Y-97655047D01*
X129064380Y-97369333D01*
X129016761Y-97274095D01*
X128969142Y-97226476D01*
X128064380Y-98178857D02*
X128064380Y-98797904D01*
X128445333Y-98464571D01*
X128445333Y-98607428D01*
X128492952Y-98702666D01*
X128540571Y-98750285D01*
X128635809Y-98797904D01*
X128873904Y-98797904D01*
X128969142Y-98750285D01*
X129016761Y-98702666D01*
X129064380Y-98607428D01*
X129064380Y-98321714D01*
X129016761Y-98226476D01*
X128969142Y-98178857D01*
X128744380Y-101084095D02*
X127744380Y-101084095D01*
X128744380Y-101655523D02*
X128172952Y-101226952D01*
X127744380Y-101655523D02*
X128315809Y-101084095D01*
X152813380Y-153471714D02*
X151813380Y-153471714D01*
X151813380Y-153709809D01*
X151861000Y-153852666D01*
X151956238Y-153947904D01*
X152051476Y-153995523D01*
X152241952Y-154043142D01*
X152384809Y-154043142D01*
X152575285Y-153995523D01*
X152670523Y-153947904D01*
X152765761Y-153852666D01*
X152813380Y-153709809D01*
X152813380Y-153471714D01*
X151813380Y-154376476D02*
X151813380Y-154995523D01*
X152194333Y-154662190D01*
X152194333Y-154805047D01*
X152241952Y-154900285D01*
X152289571Y-154947904D01*
X152384809Y-154995523D01*
X152622904Y-154995523D01*
X152718142Y-154947904D01*
X152765761Y-154900285D01*
X152813380Y-154805047D01*
X152813380Y-154519333D01*
X152765761Y-154424095D01*
X152718142Y-154376476D01*
X151908619Y-155376476D02*
X151861000Y-155424095D01*
X151813380Y-155519333D01*
X151813380Y-155757428D01*
X151861000Y-155852666D01*
X151908619Y-155900285D01*
X152003857Y-155947904D01*
X152099095Y-155947904D01*
X152241952Y-155900285D01*
X152813380Y-155328857D01*
X152813380Y-155947904D01*
X152493380Y-158234095D02*
X151493380Y-158234095D01*
X152493380Y-158805523D02*
X151921952Y-158376952D01*
X151493380Y-158805523D02*
X152064809Y-158234095D01*
X109887380Y-134294714D02*
X108887380Y-134294714D01*
X108887380Y-134532809D01*
X108935000Y-134675666D01*
X109030238Y-134770904D01*
X109125476Y-134818523D01*
X109315952Y-134866142D01*
X109458809Y-134866142D01*
X109649285Y-134818523D01*
X109744523Y-134770904D01*
X109839761Y-134675666D01*
X109887380Y-134532809D01*
X109887380Y-134294714D01*
X108887380Y-135199476D02*
X108887380Y-135818523D01*
X109268333Y-135485190D01*
X109268333Y-135628047D01*
X109315952Y-135723285D01*
X109363571Y-135770904D01*
X109458809Y-135818523D01*
X109696904Y-135818523D01*
X109792142Y-135770904D01*
X109839761Y-135723285D01*
X109887380Y-135628047D01*
X109887380Y-135342333D01*
X109839761Y-135247095D01*
X109792142Y-135199476D01*
X109887380Y-136770904D02*
X109887380Y-136199476D01*
X109887380Y-136485190D02*
X108887380Y-136485190D01*
X109030238Y-136389952D01*
X109125476Y-136294714D01*
X109173095Y-136199476D01*
X109567380Y-139057095D02*
X108567380Y-139057095D01*
X109567380Y-139628523D02*
X108995952Y-139199952D01*
X108567380Y-139628523D02*
X109138809Y-139057095D01*
X109887380Y-115244714D02*
X108887380Y-115244714D01*
X108887380Y-115482809D01*
X108935000Y-115625666D01*
X109030238Y-115720904D01*
X109125476Y-115768523D01*
X109315952Y-115816142D01*
X109458809Y-115816142D01*
X109649285Y-115768523D01*
X109744523Y-115720904D01*
X109839761Y-115625666D01*
X109887380Y-115482809D01*
X109887380Y-115244714D01*
X108887380Y-116149476D02*
X108887380Y-116768523D01*
X109268333Y-116435190D01*
X109268333Y-116578047D01*
X109315952Y-116673285D01*
X109363571Y-116720904D01*
X109458809Y-116768523D01*
X109696904Y-116768523D01*
X109792142Y-116720904D01*
X109839761Y-116673285D01*
X109887380Y-116578047D01*
X109887380Y-116292333D01*
X109839761Y-116197095D01*
X109792142Y-116149476D01*
X108887380Y-117387571D02*
X108887380Y-117482809D01*
X108935000Y-117578047D01*
X108982619Y-117625666D01*
X109077857Y-117673285D01*
X109268333Y-117720904D01*
X109506428Y-117720904D01*
X109696904Y-117673285D01*
X109792142Y-117625666D01*
X109839761Y-117578047D01*
X109887380Y-117482809D01*
X109887380Y-117387571D01*
X109839761Y-117292333D01*
X109792142Y-117244714D01*
X109696904Y-117197095D01*
X109506428Y-117149476D01*
X109268333Y-117149476D01*
X109077857Y-117197095D01*
X108982619Y-117244714D01*
X108935000Y-117292333D01*
X108887380Y-117387571D01*
X109567380Y-120007095D02*
X108567380Y-120007095D01*
X109567380Y-120578523D02*
X108995952Y-120149952D01*
X108567380Y-120578523D02*
X109138809Y-120007095D01*
X109887380Y-96194714D02*
X108887380Y-96194714D01*
X108887380Y-96432809D01*
X108935000Y-96575666D01*
X109030238Y-96670904D01*
X109125476Y-96718523D01*
X109315952Y-96766142D01*
X109458809Y-96766142D01*
X109649285Y-96718523D01*
X109744523Y-96670904D01*
X109839761Y-96575666D01*
X109887380Y-96432809D01*
X109887380Y-96194714D01*
X108982619Y-97147095D02*
X108935000Y-97194714D01*
X108887380Y-97289952D01*
X108887380Y-97528047D01*
X108935000Y-97623285D01*
X108982619Y-97670904D01*
X109077857Y-97718523D01*
X109173095Y-97718523D01*
X109315952Y-97670904D01*
X109887380Y-97099476D01*
X109887380Y-97718523D01*
X109887380Y-98194714D02*
X109887380Y-98385190D01*
X109839761Y-98480428D01*
X109792142Y-98528047D01*
X109649285Y-98623285D01*
X109458809Y-98670904D01*
X109077857Y-98670904D01*
X108982619Y-98623285D01*
X108935000Y-98575666D01*
X108887380Y-98480428D01*
X108887380Y-98289952D01*
X108935000Y-98194714D01*
X108982619Y-98147095D01*
X109077857Y-98099476D01*
X109315952Y-98099476D01*
X109411190Y-98147095D01*
X109458809Y-98194714D01*
X109506428Y-98289952D01*
X109506428Y-98480428D01*
X109458809Y-98575666D01*
X109411190Y-98623285D01*
X109315952Y-98670904D01*
X109567380Y-100957095D02*
X108567380Y-100957095D01*
X109567380Y-101528523D02*
X108995952Y-101099952D01*
X108567380Y-101528523D02*
X109138809Y-100957095D01*
X124238380Y-153090714D02*
X123238380Y-153090714D01*
X123238380Y-153328809D01*
X123286000Y-153471666D01*
X123381238Y-153566904D01*
X123476476Y-153614523D01*
X123666952Y-153662142D01*
X123809809Y-153662142D01*
X124000285Y-153614523D01*
X124095523Y-153566904D01*
X124190761Y-153471666D01*
X124238380Y-153328809D01*
X124238380Y-153090714D01*
X123333619Y-154043095D02*
X123286000Y-154090714D01*
X123238380Y-154185952D01*
X123238380Y-154424047D01*
X123286000Y-154519285D01*
X123333619Y-154566904D01*
X123428857Y-154614523D01*
X123524095Y-154614523D01*
X123666952Y-154566904D01*
X124238380Y-153995476D01*
X124238380Y-154614523D01*
X123666952Y-155185952D02*
X123619333Y-155090714D01*
X123571714Y-155043095D01*
X123476476Y-154995476D01*
X123428857Y-154995476D01*
X123333619Y-155043095D01*
X123286000Y-155090714D01*
X123238380Y-155185952D01*
X123238380Y-155376428D01*
X123286000Y-155471666D01*
X123333619Y-155519285D01*
X123428857Y-155566904D01*
X123476476Y-155566904D01*
X123571714Y-155519285D01*
X123619333Y-155471666D01*
X123666952Y-155376428D01*
X123666952Y-155185952D01*
X123714571Y-155090714D01*
X123762190Y-155043095D01*
X123857428Y-154995476D01*
X124047904Y-154995476D01*
X124143142Y-155043095D01*
X124190761Y-155090714D01*
X124238380Y-155185952D01*
X124238380Y-155376428D01*
X124190761Y-155471666D01*
X124143142Y-155519285D01*
X124047904Y-155566904D01*
X123857428Y-155566904D01*
X123762190Y-155519285D01*
X123714571Y-155471666D01*
X123666952Y-155376428D01*
X123918380Y-157853095D02*
X122918380Y-157853095D01*
X123918380Y-158424523D02*
X123346952Y-157995952D01*
X122918380Y-158424523D02*
X123489809Y-157853095D01*
X90837380Y-134548714D02*
X89837380Y-134548714D01*
X89837380Y-134786809D01*
X89885000Y-134929666D01*
X89980238Y-135024904D01*
X90075476Y-135072523D01*
X90265952Y-135120142D01*
X90408809Y-135120142D01*
X90599285Y-135072523D01*
X90694523Y-135024904D01*
X90789761Y-134929666D01*
X90837380Y-134786809D01*
X90837380Y-134548714D01*
X89932619Y-135501095D02*
X89885000Y-135548714D01*
X89837380Y-135643952D01*
X89837380Y-135882047D01*
X89885000Y-135977285D01*
X89932619Y-136024904D01*
X90027857Y-136072523D01*
X90123095Y-136072523D01*
X90265952Y-136024904D01*
X90837380Y-135453476D01*
X90837380Y-136072523D01*
X89837380Y-136405857D02*
X89837380Y-137072523D01*
X90837380Y-136643952D01*
X90517380Y-139311095D02*
X89517380Y-139311095D01*
X90517380Y-139882523D02*
X89945952Y-139453952D01*
X89517380Y-139882523D02*
X90088809Y-139311095D01*
X89932619Y-117673285D02*
X90932619Y-117673285D01*
X90932619Y-117435190D01*
X90885000Y-117292333D01*
X90789761Y-117197095D01*
X90694523Y-117149476D01*
X90504047Y-117101857D01*
X90361190Y-117101857D01*
X90170714Y-117149476D01*
X90075476Y-117197095D01*
X89980238Y-117292333D01*
X89932619Y-117435190D01*
X89932619Y-117673285D01*
X90837380Y-116720904D02*
X90885000Y-116673285D01*
X90932619Y-116578047D01*
X90932619Y-116339952D01*
X90885000Y-116244714D01*
X90837380Y-116197095D01*
X90742142Y-116149476D01*
X90646904Y-116149476D01*
X90504047Y-116197095D01*
X89932619Y-116768523D01*
X89932619Y-116149476D01*
X90932619Y-115292333D02*
X90932619Y-115482809D01*
X90885000Y-115578047D01*
X90837380Y-115625666D01*
X90694523Y-115720904D01*
X90504047Y-115768523D01*
X90123095Y-115768523D01*
X90027857Y-115720904D01*
X89980238Y-115673285D01*
X89932619Y-115578047D01*
X89932619Y-115387571D01*
X89980238Y-115292333D01*
X90027857Y-115244714D01*
X90123095Y-115197095D01*
X90361190Y-115197095D01*
X90456428Y-115244714D01*
X90504047Y-115292333D01*
X90551666Y-115387571D01*
X90551666Y-115578047D01*
X90504047Y-115673285D01*
X90456428Y-115720904D01*
X90361190Y-115768523D01*
X89612619Y-120530904D02*
X90612619Y-120530904D01*
X89612619Y-119959476D02*
X90184047Y-120388047D01*
X90612619Y-119959476D02*
X90041190Y-120530904D01*
X90837380Y-96067714D02*
X89837380Y-96067714D01*
X89837380Y-96305809D01*
X89885000Y-96448666D01*
X89980238Y-96543904D01*
X90075476Y-96591523D01*
X90265952Y-96639142D01*
X90408809Y-96639142D01*
X90599285Y-96591523D01*
X90694523Y-96543904D01*
X90789761Y-96448666D01*
X90837380Y-96305809D01*
X90837380Y-96067714D01*
X89932619Y-97020095D02*
X89885000Y-97067714D01*
X89837380Y-97162952D01*
X89837380Y-97401047D01*
X89885000Y-97496285D01*
X89932619Y-97543904D01*
X90027857Y-97591523D01*
X90123095Y-97591523D01*
X90265952Y-97543904D01*
X90837380Y-96972476D01*
X90837380Y-97591523D01*
X89837380Y-98496285D02*
X89837380Y-98020095D01*
X90313571Y-97972476D01*
X90265952Y-98020095D01*
X90218333Y-98115333D01*
X90218333Y-98353428D01*
X90265952Y-98448666D01*
X90313571Y-98496285D01*
X90408809Y-98543904D01*
X90646904Y-98543904D01*
X90742142Y-98496285D01*
X90789761Y-98448666D01*
X90837380Y-98353428D01*
X90837380Y-98115333D01*
X90789761Y-98020095D01*
X90742142Y-97972476D01*
X90517380Y-100830095D02*
X89517380Y-100830095D01*
X90517380Y-101401523D02*
X89945952Y-100972952D01*
X89517380Y-101401523D02*
X90088809Y-100830095D01*
X95536380Y-153217714D02*
X94536380Y-153217714D01*
X94536380Y-153455809D01*
X94584000Y-153598666D01*
X94679238Y-153693904D01*
X94774476Y-153741523D01*
X94964952Y-153789142D01*
X95107809Y-153789142D01*
X95298285Y-153741523D01*
X95393523Y-153693904D01*
X95488761Y-153598666D01*
X95536380Y-153455809D01*
X95536380Y-153217714D01*
X94631619Y-154170095D02*
X94584000Y-154217714D01*
X94536380Y-154312952D01*
X94536380Y-154551047D01*
X94584000Y-154646285D01*
X94631619Y-154693904D01*
X94726857Y-154741523D01*
X94822095Y-154741523D01*
X94964952Y-154693904D01*
X95536380Y-154122476D01*
X95536380Y-154741523D01*
X94869714Y-155598666D02*
X95536380Y-155598666D01*
X94488761Y-155360571D02*
X95203047Y-155122476D01*
X95203047Y-155741523D01*
X95216380Y-157980095D02*
X94216380Y-157980095D01*
X95216380Y-158551523D02*
X94644952Y-158122952D01*
X94216380Y-158551523D02*
X94787809Y-157980095D01*
X71787380Y-134421714D02*
X70787380Y-134421714D01*
X70787380Y-134659809D01*
X70835000Y-134802666D01*
X70930238Y-134897904D01*
X71025476Y-134945523D01*
X71215952Y-134993142D01*
X71358809Y-134993142D01*
X71549285Y-134945523D01*
X71644523Y-134897904D01*
X71739761Y-134802666D01*
X71787380Y-134659809D01*
X71787380Y-134421714D01*
X70882619Y-135374095D02*
X70835000Y-135421714D01*
X70787380Y-135516952D01*
X70787380Y-135755047D01*
X70835000Y-135850285D01*
X70882619Y-135897904D01*
X70977857Y-135945523D01*
X71073095Y-135945523D01*
X71215952Y-135897904D01*
X71787380Y-135326476D01*
X71787380Y-135945523D01*
X70787380Y-136278857D02*
X70787380Y-136897904D01*
X71168333Y-136564571D01*
X71168333Y-136707428D01*
X71215952Y-136802666D01*
X71263571Y-136850285D01*
X71358809Y-136897904D01*
X71596904Y-136897904D01*
X71692142Y-136850285D01*
X71739761Y-136802666D01*
X71787380Y-136707428D01*
X71787380Y-136421714D01*
X71739761Y-136326476D01*
X71692142Y-136278857D01*
X71467380Y-139184095D02*
X70467380Y-139184095D01*
X71467380Y-139755523D02*
X70895952Y-139326952D01*
X70467380Y-139755523D02*
X71038809Y-139184095D01*
X71914380Y-115244714D02*
X70914380Y-115244714D01*
X70914380Y-115482809D01*
X70962000Y-115625666D01*
X71057238Y-115720904D01*
X71152476Y-115768523D01*
X71342952Y-115816142D01*
X71485809Y-115816142D01*
X71676285Y-115768523D01*
X71771523Y-115720904D01*
X71866761Y-115625666D01*
X71914380Y-115482809D01*
X71914380Y-115244714D01*
X71009619Y-116197095D02*
X70962000Y-116244714D01*
X70914380Y-116339952D01*
X70914380Y-116578047D01*
X70962000Y-116673285D01*
X71009619Y-116720904D01*
X71104857Y-116768523D01*
X71200095Y-116768523D01*
X71342952Y-116720904D01*
X71914380Y-116149476D01*
X71914380Y-116768523D01*
X71009619Y-117149476D02*
X70962000Y-117197095D01*
X70914380Y-117292333D01*
X70914380Y-117530428D01*
X70962000Y-117625666D01*
X71009619Y-117673285D01*
X71104857Y-117720904D01*
X71200095Y-117720904D01*
X71342952Y-117673285D01*
X71914380Y-117101857D01*
X71914380Y-117720904D01*
X71594380Y-120007095D02*
X70594380Y-120007095D01*
X71594380Y-120578523D02*
X71022952Y-120149952D01*
X70594380Y-120578523D02*
X71165809Y-120007095D01*
X71914380Y-96321714D02*
X70914380Y-96321714D01*
X70914380Y-96559809D01*
X70962000Y-96702666D01*
X71057238Y-96797904D01*
X71152476Y-96845523D01*
X71342952Y-96893142D01*
X71485809Y-96893142D01*
X71676285Y-96845523D01*
X71771523Y-96797904D01*
X71866761Y-96702666D01*
X71914380Y-96559809D01*
X71914380Y-96321714D01*
X71009619Y-97274095D02*
X70962000Y-97321714D01*
X70914380Y-97416952D01*
X70914380Y-97655047D01*
X70962000Y-97750285D01*
X71009619Y-97797904D01*
X71104857Y-97845523D01*
X71200095Y-97845523D01*
X71342952Y-97797904D01*
X71914380Y-97226476D01*
X71914380Y-97845523D01*
X71914380Y-98797904D02*
X71914380Y-98226476D01*
X71914380Y-98512190D02*
X70914380Y-98512190D01*
X71057238Y-98416952D01*
X71152476Y-98321714D01*
X71200095Y-98226476D01*
X71594380Y-101084095D02*
X70594380Y-101084095D01*
X71594380Y-101655523D02*
X71022952Y-101226952D01*
X70594380Y-101655523D02*
X71165809Y-101084095D01*
X53906585Y-148406380D02*
X53906585Y-147406380D01*
X53668490Y-147406380D01*
X53525633Y-147454000D01*
X53430395Y-147549238D01*
X53382776Y-147644476D01*
X53335157Y-147834952D01*
X53335157Y-147977809D01*
X53382776Y-148168285D01*
X53430395Y-148263523D01*
X53525633Y-148358761D01*
X53668490Y-148406380D01*
X53906585Y-148406380D01*
X52954204Y-147501619D02*
X52906585Y-147454000D01*
X52811347Y-147406380D01*
X52573252Y-147406380D01*
X52478014Y-147454000D01*
X52430395Y-147501619D01*
X52382776Y-147596857D01*
X52382776Y-147692095D01*
X52430395Y-147834952D01*
X53001823Y-148406380D01*
X52382776Y-148406380D01*
X51763728Y-147406380D02*
X51668490Y-147406380D01*
X51573252Y-147454000D01*
X51525633Y-147501619D01*
X51478014Y-147596857D01*
X51430395Y-147787333D01*
X51430395Y-148025428D01*
X51478014Y-148215904D01*
X51525633Y-148311142D01*
X51573252Y-148358761D01*
X51668490Y-148406380D01*
X51763728Y-148406380D01*
X51858966Y-148358761D01*
X51906585Y-148311142D01*
X51954204Y-148215904D01*
X52001823Y-148025428D01*
X52001823Y-147787333D01*
X51954204Y-147596857D01*
X51906585Y-147501619D01*
X51858966Y-147454000D01*
X51763728Y-147406380D01*
X49144204Y-148086380D02*
X49144204Y-147086380D01*
X48572776Y-148086380D02*
X49001347Y-147514952D01*
X48572776Y-147086380D02*
X49144204Y-147657809D01*
X52737380Y-134421714D02*
X51737380Y-134421714D01*
X51737380Y-134659809D01*
X51785000Y-134802666D01*
X51880238Y-134897904D01*
X51975476Y-134945523D01*
X52165952Y-134993142D01*
X52308809Y-134993142D01*
X52499285Y-134945523D01*
X52594523Y-134897904D01*
X52689761Y-134802666D01*
X52737380Y-134659809D01*
X52737380Y-134421714D01*
X52737380Y-135945523D02*
X52737380Y-135374095D01*
X52737380Y-135659809D02*
X51737380Y-135659809D01*
X51880238Y-135564571D01*
X51975476Y-135469333D01*
X52023095Y-135374095D01*
X52737380Y-136421714D02*
X52737380Y-136612190D01*
X52689761Y-136707428D01*
X52642142Y-136755047D01*
X52499285Y-136850285D01*
X52308809Y-136897904D01*
X51927857Y-136897904D01*
X51832619Y-136850285D01*
X51785000Y-136802666D01*
X51737380Y-136707428D01*
X51737380Y-136516952D01*
X51785000Y-136421714D01*
X51832619Y-136374095D01*
X51927857Y-136326476D01*
X52165952Y-136326476D01*
X52261190Y-136374095D01*
X52308809Y-136421714D01*
X52356428Y-136516952D01*
X52356428Y-136707428D01*
X52308809Y-136802666D01*
X52261190Y-136850285D01*
X52165952Y-136897904D01*
X52417380Y-139184095D02*
X51417380Y-139184095D01*
X52417380Y-139755523D02*
X51845952Y-139326952D01*
X51417380Y-139755523D02*
X51988809Y-139184095D01*
X52737380Y-115498714D02*
X51737380Y-115498714D01*
X51737380Y-115736809D01*
X51785000Y-115879666D01*
X51880238Y-115974904D01*
X51975476Y-116022523D01*
X52165952Y-116070142D01*
X52308809Y-116070142D01*
X52499285Y-116022523D01*
X52594523Y-115974904D01*
X52689761Y-115879666D01*
X52737380Y-115736809D01*
X52737380Y-115498714D01*
X52737380Y-117022523D02*
X52737380Y-116451095D01*
X52737380Y-116736809D02*
X51737380Y-116736809D01*
X51880238Y-116641571D01*
X51975476Y-116546333D01*
X52023095Y-116451095D01*
X52165952Y-117593952D02*
X52118333Y-117498714D01*
X52070714Y-117451095D01*
X51975476Y-117403476D01*
X51927857Y-117403476D01*
X51832619Y-117451095D01*
X51785000Y-117498714D01*
X51737380Y-117593952D01*
X51737380Y-117784428D01*
X51785000Y-117879666D01*
X51832619Y-117927285D01*
X51927857Y-117974904D01*
X51975476Y-117974904D01*
X52070714Y-117927285D01*
X52118333Y-117879666D01*
X52165952Y-117784428D01*
X52165952Y-117593952D01*
X52213571Y-117498714D01*
X52261190Y-117451095D01*
X52356428Y-117403476D01*
X52546904Y-117403476D01*
X52642142Y-117451095D01*
X52689761Y-117498714D01*
X52737380Y-117593952D01*
X52737380Y-117784428D01*
X52689761Y-117879666D01*
X52642142Y-117927285D01*
X52546904Y-117974904D01*
X52356428Y-117974904D01*
X52261190Y-117927285D01*
X52213571Y-117879666D01*
X52165952Y-117784428D01*
X52417380Y-120261095D02*
X51417380Y-120261095D01*
X52417380Y-120832523D02*
X51845952Y-120403952D01*
X51417380Y-120832523D02*
X51988809Y-120261095D01*
X52737380Y-95940714D02*
X51737380Y-95940714D01*
X51737380Y-96178809D01*
X51785000Y-96321666D01*
X51880238Y-96416904D01*
X51975476Y-96464523D01*
X52165952Y-96512142D01*
X52308809Y-96512142D01*
X52499285Y-96464523D01*
X52594523Y-96416904D01*
X52689761Y-96321666D01*
X52737380Y-96178809D01*
X52737380Y-95940714D01*
X52737380Y-97464523D02*
X52737380Y-96893095D01*
X52737380Y-97178809D02*
X51737380Y-97178809D01*
X51880238Y-97083571D01*
X51975476Y-96988333D01*
X52023095Y-96893095D01*
X51737380Y-97797857D02*
X51737380Y-98464523D01*
X52737380Y-98035952D01*
X52417380Y-100703095D02*
X51417380Y-100703095D01*
X52417380Y-101274523D02*
X51845952Y-100845952D01*
X51417380Y-101274523D02*
X51988809Y-100703095D01*
X209185619Y-88590285D02*
X210185619Y-88590285D01*
X210185619Y-88352190D01*
X210138000Y-88209333D01*
X210042761Y-88114095D01*
X209947523Y-88066476D01*
X209757047Y-88018857D01*
X209614190Y-88018857D01*
X209423714Y-88066476D01*
X209328476Y-88114095D01*
X209233238Y-88209333D01*
X209185619Y-88352190D01*
X209185619Y-88590285D01*
X209185619Y-87066476D02*
X209185619Y-87637904D01*
X209185619Y-87352190D02*
X210185619Y-87352190D01*
X210042761Y-87447428D01*
X209947523Y-87542666D01*
X209899904Y-87637904D01*
X210185619Y-86209333D02*
X210185619Y-86399809D01*
X210138000Y-86495047D01*
X210090380Y-86542666D01*
X209947523Y-86637904D01*
X209757047Y-86685523D01*
X209376095Y-86685523D01*
X209280857Y-86637904D01*
X209233238Y-86590285D01*
X209185619Y-86495047D01*
X209185619Y-86304571D01*
X209233238Y-86209333D01*
X209280857Y-86161714D01*
X209376095Y-86114095D01*
X209614190Y-86114095D01*
X209709428Y-86161714D01*
X209757047Y-86209333D01*
X209804666Y-86304571D01*
X209804666Y-86495047D01*
X209757047Y-86590285D01*
X209709428Y-86637904D01*
X209614190Y-86685523D01*
X208865619Y-91447904D02*
X209865619Y-91447904D01*
X208865619Y-90876476D02*
X209437047Y-91305047D01*
X209865619Y-90876476D02*
X209294190Y-91447904D01*
X196931285Y-52244580D02*
X196931285Y-51244580D01*
X196693190Y-51244580D01*
X196550333Y-51292200D01*
X196455095Y-51387438D01*
X196407476Y-51482676D01*
X196359857Y-51673152D01*
X196359857Y-51816009D01*
X196407476Y-52006485D01*
X196455095Y-52101723D01*
X196550333Y-52196961D01*
X196693190Y-52244580D01*
X196931285Y-52244580D01*
X195407476Y-52244580D02*
X195978904Y-52244580D01*
X195693190Y-52244580D02*
X195693190Y-51244580D01*
X195788428Y-51387438D01*
X195883666Y-51482676D01*
X195978904Y-51530295D01*
X194502714Y-51244580D02*
X194978904Y-51244580D01*
X195026523Y-51720771D01*
X194978904Y-51673152D01*
X194883666Y-51625533D01*
X194645571Y-51625533D01*
X194550333Y-51673152D01*
X194502714Y-51720771D01*
X194455095Y-51816009D01*
X194455095Y-52054104D01*
X194502714Y-52149342D01*
X194550333Y-52196961D01*
X194645571Y-52244580D01*
X194883666Y-52244580D01*
X194978904Y-52196961D01*
X195026523Y-52149342D01*
X192168904Y-51924580D02*
X192168904Y-50924580D01*
X191597476Y-51924580D02*
X192026047Y-51353152D01*
X191597476Y-50924580D02*
X192168904Y-51496009D01*
X170831619Y-79192285D02*
X171831619Y-79192285D01*
X171831619Y-78954190D01*
X171784000Y-78811333D01*
X171688761Y-78716095D01*
X171593523Y-78668476D01*
X171403047Y-78620857D01*
X171260190Y-78620857D01*
X171069714Y-78668476D01*
X170974476Y-78716095D01*
X170879238Y-78811333D01*
X170831619Y-78954190D01*
X170831619Y-79192285D01*
X170831619Y-77668476D02*
X170831619Y-78239904D01*
X170831619Y-77954190D02*
X171831619Y-77954190D01*
X171688761Y-78049428D01*
X171593523Y-78144666D01*
X171545904Y-78239904D01*
X171498285Y-76811333D02*
X170831619Y-76811333D01*
X171879238Y-77049428D02*
X171164952Y-77287523D01*
X171164952Y-76668476D01*
X170511619Y-82049904D02*
X171511619Y-82049904D01*
X170511619Y-81478476D02*
X171083047Y-81907047D01*
X171511619Y-81478476D02*
X170940190Y-82049904D01*
X170831619Y-60142285D02*
X171831619Y-60142285D01*
X171831619Y-59904190D01*
X171784000Y-59761333D01*
X171688761Y-59666095D01*
X171593523Y-59618476D01*
X171403047Y-59570857D01*
X171260190Y-59570857D01*
X171069714Y-59618476D01*
X170974476Y-59666095D01*
X170879238Y-59761333D01*
X170831619Y-59904190D01*
X170831619Y-60142285D01*
X170831619Y-58618476D02*
X170831619Y-59189904D01*
X170831619Y-58904190D02*
X171831619Y-58904190D01*
X171688761Y-58999428D01*
X171593523Y-59094666D01*
X171545904Y-59189904D01*
X171831619Y-58285142D02*
X171831619Y-57666095D01*
X171450666Y-57999428D01*
X171450666Y-57856571D01*
X171403047Y-57761333D01*
X171355428Y-57713714D01*
X171260190Y-57666095D01*
X171022095Y-57666095D01*
X170926857Y-57713714D01*
X170879238Y-57761333D01*
X170831619Y-57856571D01*
X170831619Y-58142285D01*
X170879238Y-58237523D01*
X170926857Y-58285142D01*
X170511619Y-62999904D02*
X171511619Y-62999904D01*
X170511619Y-62428476D02*
X171083047Y-62857047D01*
X171511619Y-62428476D02*
X170940190Y-62999904D01*
X147209619Y-79192285D02*
X148209619Y-79192285D01*
X148209619Y-78954190D01*
X148162000Y-78811333D01*
X148066761Y-78716095D01*
X147971523Y-78668476D01*
X147781047Y-78620857D01*
X147638190Y-78620857D01*
X147447714Y-78668476D01*
X147352476Y-78716095D01*
X147257238Y-78811333D01*
X147209619Y-78954190D01*
X147209619Y-79192285D01*
X147209619Y-77668476D02*
X147209619Y-78239904D01*
X147209619Y-77954190D02*
X148209619Y-77954190D01*
X148066761Y-78049428D01*
X147971523Y-78144666D01*
X147923904Y-78239904D01*
X148114380Y-77287523D02*
X148162000Y-77239904D01*
X148209619Y-77144666D01*
X148209619Y-76906571D01*
X148162000Y-76811333D01*
X148114380Y-76763714D01*
X148019142Y-76716095D01*
X147923904Y-76716095D01*
X147781047Y-76763714D01*
X147209619Y-77335142D01*
X147209619Y-76716095D01*
X146889619Y-82049904D02*
X147889619Y-82049904D01*
X146889619Y-81478476D02*
X147461047Y-81907047D01*
X147889619Y-81478476D02*
X147318190Y-82049904D01*
X147209619Y-59888285D02*
X148209619Y-59888285D01*
X148209619Y-59650190D01*
X148162000Y-59507333D01*
X148066761Y-59412095D01*
X147971523Y-59364476D01*
X147781047Y-59316857D01*
X147638190Y-59316857D01*
X147447714Y-59364476D01*
X147352476Y-59412095D01*
X147257238Y-59507333D01*
X147209619Y-59650190D01*
X147209619Y-59888285D01*
X147209619Y-58364476D02*
X147209619Y-58935904D01*
X147209619Y-58650190D02*
X148209619Y-58650190D01*
X148066761Y-58745428D01*
X147971523Y-58840666D01*
X147923904Y-58935904D01*
X147209619Y-57412095D02*
X147209619Y-57983523D01*
X147209619Y-57697809D02*
X148209619Y-57697809D01*
X148066761Y-57793047D01*
X147971523Y-57888285D01*
X147923904Y-57983523D01*
X146889619Y-62745904D02*
X147889619Y-62745904D01*
X146889619Y-62174476D02*
X147461047Y-62603047D01*
X147889619Y-62174476D02*
X147318190Y-62745904D01*
X128159619Y-79446285D02*
X129159619Y-79446285D01*
X129159619Y-79208190D01*
X129112000Y-79065333D01*
X129016761Y-78970095D01*
X128921523Y-78922476D01*
X128731047Y-78874857D01*
X128588190Y-78874857D01*
X128397714Y-78922476D01*
X128302476Y-78970095D01*
X128207238Y-79065333D01*
X128159619Y-79208190D01*
X128159619Y-79446285D01*
X128159619Y-77922476D02*
X128159619Y-78493904D01*
X128159619Y-78208190D02*
X129159619Y-78208190D01*
X129016761Y-78303428D01*
X128921523Y-78398666D01*
X128873904Y-78493904D01*
X129159619Y-77303428D02*
X129159619Y-77208190D01*
X129112000Y-77112952D01*
X129064380Y-77065333D01*
X128969142Y-77017714D01*
X128778666Y-76970095D01*
X128540571Y-76970095D01*
X128350095Y-77017714D01*
X128254857Y-77065333D01*
X128207238Y-77112952D01*
X128159619Y-77208190D01*
X128159619Y-77303428D01*
X128207238Y-77398666D01*
X128254857Y-77446285D01*
X128350095Y-77493904D01*
X128540571Y-77541523D01*
X128778666Y-77541523D01*
X128969142Y-77493904D01*
X129064380Y-77446285D01*
X129112000Y-77398666D01*
X129159619Y-77303428D01*
X127839619Y-82303904D02*
X128839619Y-82303904D01*
X127839619Y-81732476D02*
X128411047Y-82161047D01*
X128839619Y-81732476D02*
X128268190Y-82303904D01*
X127905619Y-59666095D02*
X128905619Y-59666095D01*
X128905619Y-59428000D01*
X128858000Y-59285142D01*
X128762761Y-59189904D01*
X128667523Y-59142285D01*
X128477047Y-59094666D01*
X128334190Y-59094666D01*
X128143714Y-59142285D01*
X128048476Y-59189904D01*
X127953238Y-59285142D01*
X127905619Y-59428000D01*
X127905619Y-59666095D01*
X127905619Y-58618476D02*
X127905619Y-58428000D01*
X127953238Y-58332761D01*
X128000857Y-58285142D01*
X128143714Y-58189904D01*
X128334190Y-58142285D01*
X128715142Y-58142285D01*
X128810380Y-58189904D01*
X128858000Y-58237523D01*
X128905619Y-58332761D01*
X128905619Y-58523238D01*
X128858000Y-58618476D01*
X128810380Y-58666095D01*
X128715142Y-58713714D01*
X128477047Y-58713714D01*
X128381809Y-58666095D01*
X128334190Y-58618476D01*
X128286571Y-58523238D01*
X128286571Y-58332761D01*
X128334190Y-58237523D01*
X128381809Y-58189904D01*
X128477047Y-58142285D01*
X127585619Y-62999904D02*
X128585619Y-62999904D01*
X127585619Y-62428476D02*
X128157047Y-62857047D01*
X128585619Y-62428476D02*
X128014190Y-62999904D01*
X109109619Y-78970095D02*
X110109619Y-78970095D01*
X110109619Y-78732000D01*
X110062000Y-78589142D01*
X109966761Y-78493904D01*
X109871523Y-78446285D01*
X109681047Y-78398666D01*
X109538190Y-78398666D01*
X109347714Y-78446285D01*
X109252476Y-78493904D01*
X109157238Y-78589142D01*
X109109619Y-78732000D01*
X109109619Y-78970095D01*
X109681047Y-77827238D02*
X109728666Y-77922476D01*
X109776285Y-77970095D01*
X109871523Y-78017714D01*
X109919142Y-78017714D01*
X110014380Y-77970095D01*
X110062000Y-77922476D01*
X110109619Y-77827238D01*
X110109619Y-77636761D01*
X110062000Y-77541523D01*
X110014380Y-77493904D01*
X109919142Y-77446285D01*
X109871523Y-77446285D01*
X109776285Y-77493904D01*
X109728666Y-77541523D01*
X109681047Y-77636761D01*
X109681047Y-77827238D01*
X109633428Y-77922476D01*
X109585809Y-77970095D01*
X109490571Y-78017714D01*
X109300095Y-78017714D01*
X109204857Y-77970095D01*
X109157238Y-77922476D01*
X109109619Y-77827238D01*
X109109619Y-77636761D01*
X109157238Y-77541523D01*
X109204857Y-77493904D01*
X109300095Y-77446285D01*
X109490571Y-77446285D01*
X109585809Y-77493904D01*
X109633428Y-77541523D01*
X109681047Y-77636761D01*
X108789619Y-82303904D02*
X109789619Y-82303904D01*
X108789619Y-81732476D02*
X109361047Y-82161047D01*
X109789619Y-81732476D02*
X109218190Y-82303904D01*
X109109619Y-59666095D02*
X110109619Y-59666095D01*
X110109619Y-59428000D01*
X110062000Y-59285142D01*
X109966761Y-59189904D01*
X109871523Y-59142285D01*
X109681047Y-59094666D01*
X109538190Y-59094666D01*
X109347714Y-59142285D01*
X109252476Y-59189904D01*
X109157238Y-59285142D01*
X109109619Y-59428000D01*
X109109619Y-59666095D01*
X110109619Y-58761333D02*
X110109619Y-58094666D01*
X109109619Y-58523238D01*
X108789619Y-62999904D02*
X109789619Y-62999904D01*
X108789619Y-62428476D02*
X109361047Y-62857047D01*
X109789619Y-62428476D02*
X109218190Y-62999904D01*
X90059619Y-79224095D02*
X91059619Y-79224095D01*
X91059619Y-78986000D01*
X91012000Y-78843142D01*
X90916761Y-78747904D01*
X90821523Y-78700285D01*
X90631047Y-78652666D01*
X90488190Y-78652666D01*
X90297714Y-78700285D01*
X90202476Y-78747904D01*
X90107238Y-78843142D01*
X90059619Y-78986000D01*
X90059619Y-79224095D01*
X91059619Y-77795523D02*
X91059619Y-77986000D01*
X91012000Y-78081238D01*
X90964380Y-78128857D01*
X90821523Y-78224095D01*
X90631047Y-78271714D01*
X90250095Y-78271714D01*
X90154857Y-78224095D01*
X90107238Y-78176476D01*
X90059619Y-78081238D01*
X90059619Y-77890761D01*
X90107238Y-77795523D01*
X90154857Y-77747904D01*
X90250095Y-77700285D01*
X90488190Y-77700285D01*
X90583428Y-77747904D01*
X90631047Y-77795523D01*
X90678666Y-77890761D01*
X90678666Y-78081238D01*
X90631047Y-78176476D01*
X90583428Y-78224095D01*
X90488190Y-78271714D01*
X89739619Y-82557904D02*
X90739619Y-82557904D01*
X89739619Y-81986476D02*
X90311047Y-82415047D01*
X90739619Y-81986476D02*
X90168190Y-82557904D01*
X90059619Y-59666095D02*
X91059619Y-59666095D01*
X91059619Y-59428000D01*
X91012000Y-59285142D01*
X90916761Y-59189904D01*
X90821523Y-59142285D01*
X90631047Y-59094666D01*
X90488190Y-59094666D01*
X90297714Y-59142285D01*
X90202476Y-59189904D01*
X90107238Y-59285142D01*
X90059619Y-59428000D01*
X90059619Y-59666095D01*
X91059619Y-58189904D02*
X91059619Y-58666095D01*
X90583428Y-58713714D01*
X90631047Y-58666095D01*
X90678666Y-58570857D01*
X90678666Y-58332761D01*
X90631047Y-58237523D01*
X90583428Y-58189904D01*
X90488190Y-58142285D01*
X90250095Y-58142285D01*
X90154857Y-58189904D01*
X90107238Y-58237523D01*
X90059619Y-58332761D01*
X90059619Y-58570857D01*
X90107238Y-58666095D01*
X90154857Y-58713714D01*
X89739619Y-62999904D02*
X90739619Y-62999904D01*
X89739619Y-62428476D02*
X90311047Y-62857047D01*
X90739619Y-62428476D02*
X90168190Y-62999904D01*
X71009619Y-79224095D02*
X72009619Y-79224095D01*
X72009619Y-78986000D01*
X71962000Y-78843142D01*
X71866761Y-78747904D01*
X71771523Y-78700285D01*
X71581047Y-78652666D01*
X71438190Y-78652666D01*
X71247714Y-78700285D01*
X71152476Y-78747904D01*
X71057238Y-78843142D01*
X71009619Y-78986000D01*
X71009619Y-79224095D01*
X71676285Y-77795523D02*
X71009619Y-77795523D01*
X72057238Y-78033619D02*
X71342952Y-78271714D01*
X71342952Y-77652666D01*
X70689619Y-82557904D02*
X71689619Y-82557904D01*
X70689619Y-81986476D02*
X71261047Y-82415047D01*
X71689619Y-81986476D02*
X71118190Y-82557904D01*
X71009619Y-59666095D02*
X72009619Y-59666095D01*
X72009619Y-59428000D01*
X71962000Y-59285142D01*
X71866761Y-59189904D01*
X71771523Y-59142285D01*
X71581047Y-59094666D01*
X71438190Y-59094666D01*
X71247714Y-59142285D01*
X71152476Y-59189904D01*
X71057238Y-59285142D01*
X71009619Y-59428000D01*
X71009619Y-59666095D01*
X72009619Y-58761333D02*
X72009619Y-58142285D01*
X71628666Y-58475619D01*
X71628666Y-58332761D01*
X71581047Y-58237523D01*
X71533428Y-58189904D01*
X71438190Y-58142285D01*
X71200095Y-58142285D01*
X71104857Y-58189904D01*
X71057238Y-58237523D01*
X71009619Y-58332761D01*
X71009619Y-58618476D01*
X71057238Y-58713714D01*
X71104857Y-58761333D01*
X70689619Y-62999904D02*
X71689619Y-62999904D01*
X70689619Y-62428476D02*
X71261047Y-62857047D01*
X71689619Y-62428476D02*
X71118190Y-62999904D01*
X51959619Y-79224095D02*
X52959619Y-79224095D01*
X52959619Y-78986000D01*
X52912000Y-78843142D01*
X52816761Y-78747904D01*
X52721523Y-78700285D01*
X52531047Y-78652666D01*
X52388190Y-78652666D01*
X52197714Y-78700285D01*
X52102476Y-78747904D01*
X52007238Y-78843142D01*
X51959619Y-78986000D01*
X51959619Y-79224095D01*
X52864380Y-78271714D02*
X52912000Y-78224095D01*
X52959619Y-78128857D01*
X52959619Y-77890761D01*
X52912000Y-77795523D01*
X52864380Y-77747904D01*
X52769142Y-77700285D01*
X52673904Y-77700285D01*
X52531047Y-77747904D01*
X51959619Y-78319333D01*
X51959619Y-77700285D01*
X51639619Y-82557904D02*
X52639619Y-82557904D01*
X51639619Y-81986476D02*
X52211047Y-82415047D01*
X52639619Y-81986476D02*
X52068190Y-82557904D01*
X51959619Y-59666095D02*
X52959619Y-59666095D01*
X52959619Y-59428000D01*
X52912000Y-59285142D01*
X52816761Y-59189904D01*
X52721523Y-59142285D01*
X52531047Y-59094666D01*
X52388190Y-59094666D01*
X52197714Y-59142285D01*
X52102476Y-59189904D01*
X52007238Y-59285142D01*
X51959619Y-59428000D01*
X51959619Y-59666095D01*
X51959619Y-58142285D02*
X51959619Y-58713714D01*
X51959619Y-58428000D02*
X52959619Y-58428000D01*
X52816761Y-58523238D01*
X52721523Y-58618476D01*
X52673904Y-58713714D01*
X51639619Y-62999904D02*
X52639619Y-62999904D01*
X51639619Y-62428476D02*
X52211047Y-62857047D01*
X52639619Y-62428476D02*
X52068190Y-62999904D01*
X197896380Y-76786542D02*
X197420190Y-76453209D01*
X197896380Y-76215114D02*
X196896380Y-76215114D01*
X196896380Y-76596066D01*
X196944000Y-76691304D01*
X196991619Y-76738923D01*
X197086857Y-76786542D01*
X197229714Y-76786542D01*
X197324952Y-76738923D01*
X197372571Y-76691304D01*
X197420190Y-76596066D01*
X197420190Y-76215114D01*
X197896380Y-77738923D02*
X197896380Y-77167495D01*
X197896380Y-77453209D02*
X196896380Y-77453209D01*
X197039238Y-77357971D01*
X197134476Y-77262733D01*
X197182095Y-77167495D01*
X196896380Y-78596066D02*
X196896380Y-78405590D01*
X196944000Y-78310352D01*
X196991619Y-78262733D01*
X197134476Y-78167495D01*
X197324952Y-78119876D01*
X197705904Y-78119876D01*
X197801142Y-78167495D01*
X197848761Y-78215114D01*
X197896380Y-78310352D01*
X197896380Y-78500828D01*
X197848761Y-78596066D01*
X197801142Y-78643685D01*
X197705904Y-78691304D01*
X197467809Y-78691304D01*
X197372571Y-78643685D01*
X197324952Y-78596066D01*
X197277333Y-78500828D01*
X197277333Y-78310352D01*
X197324952Y-78215114D01*
X197372571Y-78167495D01*
X197467809Y-78119876D01*
X212376857Y-52758780D02*
X212710190Y-52282590D01*
X212948285Y-52758780D02*
X212948285Y-51758780D01*
X212567333Y-51758780D01*
X212472095Y-51806400D01*
X212424476Y-51854019D01*
X212376857Y-51949257D01*
X212376857Y-52092114D01*
X212424476Y-52187352D01*
X212472095Y-52234971D01*
X212567333Y-52282590D01*
X212948285Y-52282590D01*
X211424476Y-52758780D02*
X211995904Y-52758780D01*
X211710190Y-52758780D02*
X211710190Y-51758780D01*
X211805428Y-51901638D01*
X211900666Y-51996876D01*
X211995904Y-52044495D01*
X210519714Y-51758780D02*
X210995904Y-51758780D01*
X211043523Y-52234971D01*
X210995904Y-52187352D01*
X210900666Y-52139733D01*
X210662571Y-52139733D01*
X210567333Y-52187352D01*
X210519714Y-52234971D01*
X210472095Y-52330209D01*
X210472095Y-52568304D01*
X210519714Y-52663542D01*
X210567333Y-52711161D01*
X210662571Y-52758780D01*
X210900666Y-52758780D01*
X210995904Y-52711161D01*
X211043523Y-52663542D01*
X178874857Y-71834180D02*
X179208190Y-71357990D01*
X179446285Y-71834180D02*
X179446285Y-70834180D01*
X179065333Y-70834180D01*
X178970095Y-70881800D01*
X178922476Y-70929419D01*
X178874857Y-71024657D01*
X178874857Y-71167514D01*
X178922476Y-71262752D01*
X178970095Y-71310371D01*
X179065333Y-71357990D01*
X179446285Y-71357990D01*
X177922476Y-71834180D02*
X178493904Y-71834180D01*
X178208190Y-71834180D02*
X178208190Y-70834180D01*
X178303428Y-70977038D01*
X178398666Y-71072276D01*
X178493904Y-71119895D01*
X177065333Y-71167514D02*
X177065333Y-71834180D01*
X177303428Y-70786561D02*
X177541523Y-71500847D01*
X176922476Y-71500847D01*
X179102857Y-52758780D02*
X179436190Y-52282590D01*
X179674285Y-52758780D02*
X179674285Y-51758780D01*
X179293333Y-51758780D01*
X179198095Y-51806400D01*
X179150476Y-51854019D01*
X179102857Y-51949257D01*
X179102857Y-52092114D01*
X179150476Y-52187352D01*
X179198095Y-52234971D01*
X179293333Y-52282590D01*
X179674285Y-52282590D01*
X178150476Y-52758780D02*
X178721904Y-52758780D01*
X178436190Y-52758780D02*
X178436190Y-51758780D01*
X178531428Y-51901638D01*
X178626666Y-51996876D01*
X178721904Y-52044495D01*
X177817142Y-51758780D02*
X177198095Y-51758780D01*
X177531428Y-52139733D01*
X177388571Y-52139733D01*
X177293333Y-52187352D01*
X177245714Y-52234971D01*
X177198095Y-52330209D01*
X177198095Y-52568304D01*
X177245714Y-52663542D01*
X177293333Y-52711161D01*
X177388571Y-52758780D01*
X177674285Y-52758780D01*
X177769523Y-52711161D01*
X177817142Y-52663542D01*
X155176857Y-71986580D02*
X155510190Y-71510390D01*
X155748285Y-71986580D02*
X155748285Y-70986580D01*
X155367333Y-70986580D01*
X155272095Y-71034200D01*
X155224476Y-71081819D01*
X155176857Y-71177057D01*
X155176857Y-71319914D01*
X155224476Y-71415152D01*
X155272095Y-71462771D01*
X155367333Y-71510390D01*
X155748285Y-71510390D01*
X154224476Y-71986580D02*
X154795904Y-71986580D01*
X154510190Y-71986580D02*
X154510190Y-70986580D01*
X154605428Y-71129438D01*
X154700666Y-71224676D01*
X154795904Y-71272295D01*
X153843523Y-71081819D02*
X153795904Y-71034200D01*
X153700666Y-70986580D01*
X153462571Y-70986580D01*
X153367333Y-71034200D01*
X153319714Y-71081819D01*
X153272095Y-71177057D01*
X153272095Y-71272295D01*
X153319714Y-71415152D01*
X153891142Y-71986580D01*
X153272095Y-71986580D01*
X155328857Y-53622380D02*
X155662190Y-53146190D01*
X155900285Y-53622380D02*
X155900285Y-52622380D01*
X155519333Y-52622380D01*
X155424095Y-52670000D01*
X155376476Y-52717619D01*
X155328857Y-52812857D01*
X155328857Y-52955714D01*
X155376476Y-53050952D01*
X155424095Y-53098571D01*
X155519333Y-53146190D01*
X155900285Y-53146190D01*
X154376476Y-53622380D02*
X154947904Y-53622380D01*
X154662190Y-53622380D02*
X154662190Y-52622380D01*
X154757428Y-52765238D01*
X154852666Y-52860476D01*
X154947904Y-52908095D01*
X153424095Y-53622380D02*
X153995523Y-53622380D01*
X153709809Y-53622380D02*
X153709809Y-52622380D01*
X153805047Y-52765238D01*
X153900285Y-52860476D01*
X153995523Y-52908095D01*
X136380857Y-71834180D02*
X136714190Y-71357990D01*
X136952285Y-71834180D02*
X136952285Y-70834180D01*
X136571333Y-70834180D01*
X136476095Y-70881800D01*
X136428476Y-70929419D01*
X136380857Y-71024657D01*
X136380857Y-71167514D01*
X136428476Y-71262752D01*
X136476095Y-71310371D01*
X136571333Y-71357990D01*
X136952285Y-71357990D01*
X135428476Y-71834180D02*
X135999904Y-71834180D01*
X135714190Y-71834180D02*
X135714190Y-70834180D01*
X135809428Y-70977038D01*
X135904666Y-71072276D01*
X135999904Y-71119895D01*
X134809428Y-70834180D02*
X134714190Y-70834180D01*
X134618952Y-70881800D01*
X134571333Y-70929419D01*
X134523714Y-71024657D01*
X134476095Y-71215133D01*
X134476095Y-71453228D01*
X134523714Y-71643704D01*
X134571333Y-71738942D01*
X134618952Y-71786561D01*
X134714190Y-71834180D01*
X134809428Y-71834180D01*
X134904666Y-71786561D01*
X134952285Y-71738942D01*
X134999904Y-71643704D01*
X135047523Y-71453228D01*
X135047523Y-71215133D01*
X134999904Y-71024657D01*
X134952285Y-70929419D01*
X134904666Y-70881800D01*
X134809428Y-70834180D01*
X136564666Y-53622380D02*
X136898000Y-53146190D01*
X137136095Y-53622380D02*
X137136095Y-52622380D01*
X136755142Y-52622380D01*
X136659904Y-52670000D01*
X136612285Y-52717619D01*
X136564666Y-52812857D01*
X136564666Y-52955714D01*
X136612285Y-53050952D01*
X136659904Y-53098571D01*
X136755142Y-53146190D01*
X137136095Y-53146190D01*
X136088476Y-53622380D02*
X135898000Y-53622380D01*
X135802761Y-53574761D01*
X135755142Y-53527142D01*
X135659904Y-53384285D01*
X135612285Y-53193809D01*
X135612285Y-52812857D01*
X135659904Y-52717619D01*
X135707523Y-52670000D01*
X135802761Y-52622380D01*
X135993238Y-52622380D01*
X136088476Y-52670000D01*
X136136095Y-52717619D01*
X136183714Y-52812857D01*
X136183714Y-53050952D01*
X136136095Y-53146190D01*
X136088476Y-53193809D01*
X135993238Y-53241428D01*
X135802761Y-53241428D01*
X135707523Y-53193809D01*
X135659904Y-53146190D01*
X135612285Y-53050952D01*
X116803666Y-71783380D02*
X117137000Y-71307190D01*
X117375095Y-71783380D02*
X117375095Y-70783380D01*
X116994142Y-70783380D01*
X116898904Y-70831000D01*
X116851285Y-70878619D01*
X116803666Y-70973857D01*
X116803666Y-71116714D01*
X116851285Y-71211952D01*
X116898904Y-71259571D01*
X116994142Y-71307190D01*
X117375095Y-71307190D01*
X116232238Y-71211952D02*
X116327476Y-71164333D01*
X116375095Y-71116714D01*
X116422714Y-71021476D01*
X116422714Y-70973857D01*
X116375095Y-70878619D01*
X116327476Y-70831000D01*
X116232238Y-70783380D01*
X116041761Y-70783380D01*
X115946523Y-70831000D01*
X115898904Y-70878619D01*
X115851285Y-70973857D01*
X115851285Y-71021476D01*
X115898904Y-71116714D01*
X115946523Y-71164333D01*
X116041761Y-71211952D01*
X116232238Y-71211952D01*
X116327476Y-71259571D01*
X116375095Y-71307190D01*
X116422714Y-71402428D01*
X116422714Y-71592904D01*
X116375095Y-71688142D01*
X116327476Y-71735761D01*
X116232238Y-71783380D01*
X116041761Y-71783380D01*
X115946523Y-71735761D01*
X115898904Y-71688142D01*
X115851285Y-71592904D01*
X115851285Y-71402428D01*
X115898904Y-71307190D01*
X115946523Y-71259571D01*
X116041761Y-71211952D01*
X117768666Y-53622380D02*
X118102000Y-53146190D01*
X118340095Y-53622380D02*
X118340095Y-52622380D01*
X117959142Y-52622380D01*
X117863904Y-52670000D01*
X117816285Y-52717619D01*
X117768666Y-52812857D01*
X117768666Y-52955714D01*
X117816285Y-53050952D01*
X117863904Y-53098571D01*
X117959142Y-53146190D01*
X118340095Y-53146190D01*
X117435333Y-52622380D02*
X116768666Y-52622380D01*
X117197238Y-53622380D01*
X97093066Y-71884980D02*
X97426400Y-71408790D01*
X97664495Y-71884980D02*
X97664495Y-70884980D01*
X97283542Y-70884980D01*
X97188304Y-70932600D01*
X97140685Y-70980219D01*
X97093066Y-71075457D01*
X97093066Y-71218314D01*
X97140685Y-71313552D01*
X97188304Y-71361171D01*
X97283542Y-71408790D01*
X97664495Y-71408790D01*
X96235923Y-70884980D02*
X96426400Y-70884980D01*
X96521638Y-70932600D01*
X96569257Y-70980219D01*
X96664495Y-71123076D01*
X96712114Y-71313552D01*
X96712114Y-71694504D01*
X96664495Y-71789742D01*
X96616876Y-71837361D01*
X96521638Y-71884980D01*
X96331161Y-71884980D01*
X96235923Y-71837361D01*
X96188304Y-71789742D01*
X96140685Y-71694504D01*
X96140685Y-71456409D01*
X96188304Y-71361171D01*
X96235923Y-71313552D01*
X96331161Y-71265933D01*
X96521638Y-71265933D01*
X96616876Y-71313552D01*
X96664495Y-71361171D01*
X96712114Y-71456409D01*
X98210666Y-53622380D02*
X98544000Y-53146190D01*
X98782095Y-53622380D02*
X98782095Y-52622380D01*
X98401142Y-52622380D01*
X98305904Y-52670000D01*
X98258285Y-52717619D01*
X98210666Y-52812857D01*
X98210666Y-52955714D01*
X98258285Y-53050952D01*
X98305904Y-53098571D01*
X98401142Y-53146190D01*
X98782095Y-53146190D01*
X97305904Y-52622380D02*
X97782095Y-52622380D01*
X97829714Y-53098571D01*
X97782095Y-53050952D01*
X97686857Y-53003333D01*
X97448761Y-53003333D01*
X97353523Y-53050952D01*
X97305904Y-53098571D01*
X97258285Y-53193809D01*
X97258285Y-53431904D01*
X97305904Y-53527142D01*
X97353523Y-53574761D01*
X97448761Y-53622380D01*
X97686857Y-53622380D01*
X97782095Y-53574761D01*
X97829714Y-53527142D01*
X78855866Y-71884980D02*
X79189200Y-71408790D01*
X79427295Y-71884980D02*
X79427295Y-70884980D01*
X79046342Y-70884980D01*
X78951104Y-70932600D01*
X78903485Y-70980219D01*
X78855866Y-71075457D01*
X78855866Y-71218314D01*
X78903485Y-71313552D01*
X78951104Y-71361171D01*
X79046342Y-71408790D01*
X79427295Y-71408790D01*
X77998723Y-71218314D02*
X77998723Y-71884980D01*
X78236819Y-70837361D02*
X78474914Y-71551647D01*
X77855866Y-71551647D01*
X79160666Y-53520780D02*
X79494000Y-53044590D01*
X79732095Y-53520780D02*
X79732095Y-52520780D01*
X79351142Y-52520780D01*
X79255904Y-52568400D01*
X79208285Y-52616019D01*
X79160666Y-52711257D01*
X79160666Y-52854114D01*
X79208285Y-52949352D01*
X79255904Y-52996971D01*
X79351142Y-53044590D01*
X79732095Y-53044590D01*
X78827333Y-52520780D02*
X78208285Y-52520780D01*
X78541619Y-52901733D01*
X78398761Y-52901733D01*
X78303523Y-52949352D01*
X78255904Y-52996971D01*
X78208285Y-53092209D01*
X78208285Y-53330304D01*
X78255904Y-53425542D01*
X78303523Y-53473161D01*
X78398761Y-53520780D01*
X78684476Y-53520780D01*
X78779714Y-53473161D01*
X78827333Y-53425542D01*
X59475666Y-71656380D02*
X59809000Y-71180190D01*
X60047095Y-71656380D02*
X60047095Y-70656380D01*
X59666142Y-70656380D01*
X59570904Y-70704000D01*
X59523285Y-70751619D01*
X59475666Y-70846857D01*
X59475666Y-70989714D01*
X59523285Y-71084952D01*
X59570904Y-71132571D01*
X59666142Y-71180190D01*
X60047095Y-71180190D01*
X59094714Y-70751619D02*
X59047095Y-70704000D01*
X58951857Y-70656380D01*
X58713761Y-70656380D01*
X58618523Y-70704000D01*
X58570904Y-70751619D01*
X58523285Y-70846857D01*
X58523285Y-70942095D01*
X58570904Y-71084952D01*
X59142333Y-71656380D01*
X58523285Y-71656380D01*
X59602666Y-53622380D02*
X59936000Y-53146190D01*
X60174095Y-53622380D02*
X60174095Y-52622380D01*
X59793142Y-52622380D01*
X59697904Y-52670000D01*
X59650285Y-52717619D01*
X59602666Y-52812857D01*
X59602666Y-52955714D01*
X59650285Y-53050952D01*
X59697904Y-53098571D01*
X59793142Y-53146190D01*
X60174095Y-53146190D01*
X58650285Y-53622380D02*
X59221714Y-53622380D01*
X58936000Y-53622380D02*
X58936000Y-52622380D01*
X59031238Y-52765238D01*
X59126476Y-52860476D01*
X59221714Y-52908095D01*
%LPC*%
D13*
X87889100Y-87873800D03*
X87889100Y-125994000D03*
X190932000Y-125984000D03*
X190942000Y-87878900D03*
D14*
X177165000Y-73329800D03*
X179705000Y-73329800D03*
D15*
X175895000Y-83489800D03*
X182245000Y-80949800D03*
D16*
X173355000Y-78409800D03*
X183515000Y-78409800D03*
D17*
X178435000Y-78409800D03*
D14*
X174777000Y-92354400D03*
X177317000Y-92354400D03*
D15*
X173507000Y-102514400D03*
X179857000Y-99974400D03*
D16*
X170967000Y-97434400D03*
X181127000Y-97434400D03*
D17*
X176047000Y-97434400D03*
D18*
X225243000Y-73052400D03*
X225243000Y-75052400D03*
X225243000Y-77052400D03*
D19*
X225243000Y-79052400D03*
D10*
G36*
X224338505Y-83632911D02*
G01*
X224364925Y-83636830D01*
X224390835Y-83643320D01*
X224415983Y-83652318D01*
X224440128Y-83663738D01*
X224463038Y-83677469D01*
X224484492Y-83693380D01*
X224504282Y-83711318D01*
X224522220Y-83731108D01*
X224538131Y-83752562D01*
X224551862Y-83775472D01*
X224563282Y-83799617D01*
X224572280Y-83824765D01*
X224578770Y-83850675D01*
X224582689Y-83877095D01*
X224584000Y-83903773D01*
X224584000Y-84611427D01*
X224582689Y-84638105D01*
X224578770Y-84664525D01*
X224572280Y-84690435D01*
X224563282Y-84715583D01*
X224551862Y-84739728D01*
X224538131Y-84762638D01*
X224522220Y-84784092D01*
X224504282Y-84803882D01*
X224484492Y-84821820D01*
X224463038Y-84837731D01*
X224440128Y-84851462D01*
X224415983Y-84862882D01*
X224390835Y-84871880D01*
X224364925Y-84878370D01*
X224338505Y-84882289D01*
X224311827Y-84883600D01*
X223354173Y-84883600D01*
X223327495Y-84882289D01*
X223301075Y-84878370D01*
X223275165Y-84871880D01*
X223250017Y-84862882D01*
X223225872Y-84851462D01*
X223202962Y-84837731D01*
X223181508Y-84821820D01*
X223161718Y-84803882D01*
X223143780Y-84784092D01*
X223127869Y-84762638D01*
X223114138Y-84739728D01*
X223102718Y-84715583D01*
X223093720Y-84690435D01*
X223087230Y-84664525D01*
X223083311Y-84638105D01*
X223082000Y-84611427D01*
X223082000Y-83903773D01*
X223083311Y-83877095D01*
X223087230Y-83850675D01*
X223093720Y-83824765D01*
X223102718Y-83799617D01*
X223114138Y-83775472D01*
X223127869Y-83752562D01*
X223143780Y-83731108D01*
X223161718Y-83711318D01*
X223181508Y-83693380D01*
X223202962Y-83677469D01*
X223225872Y-83663738D01*
X223250017Y-83652318D01*
X223275165Y-83643320D01*
X223301075Y-83636830D01*
X223327495Y-83632911D01*
X223354173Y-83631600D01*
X224311827Y-83631600D01*
X224338505Y-83632911D01*
G37*
G36*
X224338505Y-81582911D02*
G01*
X224364925Y-81586830D01*
X224390835Y-81593320D01*
X224415983Y-81602318D01*
X224440128Y-81613738D01*
X224463038Y-81627469D01*
X224484492Y-81643380D01*
X224504282Y-81661318D01*
X224522220Y-81681108D01*
X224538131Y-81702562D01*
X224551862Y-81725472D01*
X224563282Y-81749617D01*
X224572280Y-81774765D01*
X224578770Y-81800675D01*
X224582689Y-81827095D01*
X224584000Y-81853773D01*
X224584000Y-82561427D01*
X224582689Y-82588105D01*
X224578770Y-82614525D01*
X224572280Y-82640435D01*
X224563282Y-82665583D01*
X224551862Y-82689728D01*
X224538131Y-82712638D01*
X224522220Y-82734092D01*
X224504282Y-82753882D01*
X224484492Y-82771820D01*
X224463038Y-82787731D01*
X224440128Y-82801462D01*
X224415983Y-82812882D01*
X224390835Y-82821880D01*
X224364925Y-82828370D01*
X224338505Y-82832289D01*
X224311827Y-82833600D01*
X223354173Y-82833600D01*
X223327495Y-82832289D01*
X223301075Y-82828370D01*
X223275165Y-82821880D01*
X223250017Y-82812882D01*
X223225872Y-82801462D01*
X223202962Y-82787731D01*
X223181508Y-82771820D01*
X223161718Y-82753882D01*
X223143780Y-82734092D01*
X223127869Y-82712638D01*
X223114138Y-82689728D01*
X223102718Y-82665583D01*
X223093720Y-82640435D01*
X223087230Y-82614525D01*
X223083311Y-82588105D01*
X223082000Y-82561427D01*
X223082000Y-81853773D01*
X223083311Y-81827095D01*
X223087230Y-81800675D01*
X223093720Y-81774765D01*
X223102718Y-81749617D01*
X223114138Y-81725472D01*
X223127869Y-81702562D01*
X223143780Y-81681108D01*
X223161718Y-81661318D01*
X223181508Y-81643380D01*
X223202962Y-81627469D01*
X223225872Y-81613738D01*
X223250017Y-81602318D01*
X223275165Y-81593320D01*
X223301075Y-81586830D01*
X223327495Y-81582911D01*
X223354173Y-81581600D01*
X224311827Y-81581600D01*
X224338505Y-81582911D01*
G37*
G36*
X227288505Y-81582911D02*
G01*
X227314925Y-81586830D01*
X227340835Y-81593320D01*
X227365983Y-81602318D01*
X227390128Y-81613738D01*
X227413038Y-81627469D01*
X227434492Y-81643380D01*
X227454282Y-81661318D01*
X227472220Y-81681108D01*
X227488131Y-81702562D01*
X227501862Y-81725472D01*
X227513282Y-81749617D01*
X227522280Y-81774765D01*
X227528770Y-81800675D01*
X227532689Y-81827095D01*
X227534000Y-81853773D01*
X227534000Y-82561427D01*
X227532689Y-82588105D01*
X227528770Y-82614525D01*
X227522280Y-82640435D01*
X227513282Y-82665583D01*
X227501862Y-82689728D01*
X227488131Y-82712638D01*
X227472220Y-82734092D01*
X227454282Y-82753882D01*
X227434492Y-82771820D01*
X227413038Y-82787731D01*
X227390128Y-82801462D01*
X227365983Y-82812882D01*
X227340835Y-82821880D01*
X227314925Y-82828370D01*
X227288505Y-82832289D01*
X227261827Y-82833600D01*
X226304173Y-82833600D01*
X226277495Y-82832289D01*
X226251075Y-82828370D01*
X226225165Y-82821880D01*
X226200017Y-82812882D01*
X226175872Y-82801462D01*
X226152962Y-82787731D01*
X226131508Y-82771820D01*
X226111718Y-82753882D01*
X226093780Y-82734092D01*
X226077869Y-82712638D01*
X226064138Y-82689728D01*
X226052718Y-82665583D01*
X226043720Y-82640435D01*
X226037230Y-82614525D01*
X226033311Y-82588105D01*
X226032000Y-82561427D01*
X226032000Y-81853773D01*
X226033311Y-81827095D01*
X226037230Y-81800675D01*
X226043720Y-81774765D01*
X226052718Y-81749617D01*
X226064138Y-81725472D01*
X226077869Y-81702562D01*
X226093780Y-81681108D01*
X226111718Y-81661318D01*
X226131508Y-81643380D01*
X226152962Y-81627469D01*
X226175872Y-81613738D01*
X226200017Y-81602318D01*
X226225165Y-81593320D01*
X226251075Y-81586830D01*
X226277495Y-81582911D01*
X226304173Y-81581600D01*
X227261827Y-81581600D01*
X227288505Y-81582911D01*
G37*
G36*
X227288505Y-83632911D02*
G01*
X227314925Y-83636830D01*
X227340835Y-83643320D01*
X227365983Y-83652318D01*
X227390128Y-83663738D01*
X227413038Y-83677469D01*
X227434492Y-83693380D01*
X227454282Y-83711318D01*
X227472220Y-83731108D01*
X227488131Y-83752562D01*
X227501862Y-83775472D01*
X227513282Y-83799617D01*
X227522280Y-83824765D01*
X227528770Y-83850675D01*
X227532689Y-83877095D01*
X227534000Y-83903773D01*
X227534000Y-84611427D01*
X227532689Y-84638105D01*
X227528770Y-84664525D01*
X227522280Y-84690435D01*
X227513282Y-84715583D01*
X227501862Y-84739728D01*
X227488131Y-84762638D01*
X227472220Y-84784092D01*
X227454282Y-84803882D01*
X227434492Y-84821820D01*
X227413038Y-84837731D01*
X227390128Y-84851462D01*
X227365983Y-84862882D01*
X227340835Y-84871880D01*
X227314925Y-84878370D01*
X227288505Y-84882289D01*
X227261827Y-84883600D01*
X226304173Y-84883600D01*
X226277495Y-84882289D01*
X226251075Y-84878370D01*
X226225165Y-84871880D01*
X226200017Y-84862882D01*
X226175872Y-84851462D01*
X226152962Y-84837731D01*
X226131508Y-84821820D01*
X226111718Y-84803882D01*
X226093780Y-84784092D01*
X226077869Y-84762638D01*
X226064138Y-84739728D01*
X226052718Y-84715583D01*
X226043720Y-84690435D01*
X226037230Y-84664525D01*
X226033311Y-84638105D01*
X226032000Y-84611427D01*
X226032000Y-83903773D01*
X226033311Y-83877095D01*
X226037230Y-83850675D01*
X226043720Y-83824765D01*
X226052718Y-83799617D01*
X226064138Y-83775472D01*
X226077869Y-83752562D01*
X226093780Y-83731108D01*
X226111718Y-83711318D01*
X226131508Y-83693380D01*
X226152962Y-83677469D01*
X226175872Y-83663738D01*
X226200017Y-83652318D01*
X226225165Y-83643320D01*
X226251075Y-83636830D01*
X226277495Y-83632911D01*
X226304173Y-83631600D01*
X227261827Y-83631600D01*
X227288505Y-83632911D01*
G37*
D20*
X225983000Y-86832600D03*
X225033000Y-88832600D03*
X226933000Y-88832600D03*
D18*
X132482000Y-164186000D03*
X134482000Y-164186000D03*
X136482000Y-164186000D03*
X138482000Y-164186000D03*
X140482000Y-164186000D03*
X142482000Y-164186000D03*
X144482000Y-164186000D03*
D19*
X146482000Y-164186000D03*
D18*
X46431200Y-115270000D03*
X46431200Y-113270000D03*
X46431200Y-111270000D03*
X46431200Y-109270000D03*
X46431200Y-107270000D03*
X46431200Y-105270000D03*
X46431200Y-103270000D03*
D19*
X46431200Y-101270000D03*
D14*
X219989000Y-149504000D03*
X222529000Y-149504000D03*
D15*
X218719000Y-159664000D03*
X225069000Y-157124000D03*
D16*
X216179000Y-154584000D03*
X226339000Y-154584000D03*
D17*
X221259000Y-154584000D03*
D14*
X158090000Y-149504000D03*
X160630000Y-149504000D03*
D15*
X156820000Y-159664000D03*
X163170000Y-157124000D03*
D16*
X154280000Y-154584000D03*
X164440000Y-154584000D03*
D17*
X159360000Y-154584000D03*
D14*
X129515000Y-149504000D03*
X132055000Y-149504000D03*
D15*
X128245000Y-159664000D03*
X134595000Y-157124000D03*
D16*
X125705000Y-154584000D03*
X135865000Y-154584000D03*
D17*
X130785000Y-154584000D03*
D14*
X100940000Y-149479000D03*
X103480000Y-149479000D03*
D15*
X99670000Y-159639000D03*
X106020000Y-157099000D03*
D16*
X97130000Y-154559000D03*
X107290000Y-154559000D03*
D17*
X102210000Y-154559000D03*
D14*
X67614800Y-149504000D03*
X70154800Y-149504000D03*
D15*
X66344800Y-159664000D03*
X72694800Y-157124000D03*
D16*
X63804800Y-154584000D03*
X73964800Y-154584000D03*
D17*
X68884800Y-154584000D03*
D14*
X200939000Y-130429000D03*
X203479000Y-130429000D03*
D15*
X199669000Y-140589000D03*
X206019000Y-138049000D03*
D16*
X197129000Y-135509000D03*
X207289000Y-135509000D03*
D17*
X202209000Y-135509000D03*
D14*
X220015000Y-130505000D03*
X222555000Y-130505000D03*
D15*
X218745000Y-140665000D03*
X225095000Y-138125000D03*
D16*
X216205000Y-135585000D03*
X226365000Y-135585000D03*
D17*
X221285000Y-135585000D03*
D14*
X210464000Y-111404000D03*
X213004000Y-111404000D03*
D15*
X209194000Y-121564000D03*
X215544000Y-119024000D03*
D16*
X206654000Y-116484000D03*
X216814000Y-116484000D03*
D17*
X211734000Y-116484000D03*
D21*
X219304000Y-107950000D03*
D22*
X204064000Y-107950000D03*
D21*
X199398000Y-107996000D03*
D23*
X191778000Y-107996000D03*
D21*
X211480000Y-126949000D03*
D22*
X196240000Y-126949000D03*
D21*
X230505000Y-127000000D03*
D22*
X215265000Y-127000000D03*
D21*
X228981000Y-146050000D03*
D22*
X213741000Y-146050000D03*
D21*
X184429000Y-126949000D03*
D22*
X169189000Y-126949000D03*
D21*
X171882000Y-107899000D03*
D22*
X187122000Y-107899000D03*
D21*
X185166000Y-88900000D03*
D22*
X169926000Y-88900000D03*
D21*
X209550000Y-146050000D03*
D22*
X194310000Y-146050000D03*
D21*
X161290000Y-126873000D03*
D22*
X146050000Y-126873000D03*
D21*
X161900000Y-107925000D03*
D22*
X146660000Y-107925000D03*
D21*
X160909000Y-88773000D03*
D22*
X145669000Y-88773000D03*
D21*
X190881000Y-145923000D03*
D22*
X175641000Y-145923000D03*
D21*
X143180000Y-126924000D03*
D22*
X127940000Y-126924000D03*
D21*
X143129000Y-107950000D03*
D22*
X127889000Y-107950000D03*
D21*
X143383000Y-88773000D03*
D22*
X128143000Y-88773000D03*
D21*
X167259000Y-146050000D03*
D22*
X152019000Y-146050000D03*
D21*
X125324000Y-126924000D03*
D22*
X110084000Y-126924000D03*
D21*
X124079000Y-107950000D03*
D22*
X108839000Y-107950000D03*
D21*
X125476000Y-88773000D03*
D22*
X110236000Y-88773000D03*
D21*
X138684000Y-146177000D03*
D22*
X123444000Y-146177000D03*
D21*
X107696000Y-126898000D03*
D22*
X92456000Y-126898000D03*
D21*
X105156000Y-107950000D03*
D22*
X89916000Y-107950000D03*
D21*
X107873800Y-88823800D03*
D22*
X92633800Y-88823800D03*
D21*
X109982000Y-145923000D03*
D22*
X94742000Y-145923000D03*
D21*
X83058000Y-126949000D03*
D22*
X67818000Y-126949000D03*
D21*
X86106000Y-107874000D03*
D22*
X70866000Y-107874000D03*
D21*
X83058000Y-88900000D03*
D22*
X67818000Y-88900000D03*
D21*
X76454000Y-145923000D03*
D22*
X61214000Y-145923000D03*
D21*
X65379600Y-126924000D03*
D22*
X50139600Y-126924000D03*
D21*
X66852800Y-107925000D03*
D22*
X51612800Y-107925000D03*
D21*
X65278000Y-88823800D03*
D22*
X50038000Y-88823800D03*
D14*
X177165000Y-130429000D03*
X179705000Y-130429000D03*
D15*
X175895000Y-140589000D03*
X182245000Y-138049000D03*
D16*
X173355000Y-135509000D03*
X183515000Y-135509000D03*
D17*
X178435000Y-135509000D03*
D14*
X177165000Y-111354000D03*
X179705000Y-111354000D03*
D15*
X175895000Y-121514000D03*
X182245000Y-118974000D03*
D16*
X173355000Y-116434000D03*
X183515000Y-116434000D03*
D17*
X178435000Y-116434000D03*
D14*
X200965000Y-149479000D03*
X203505000Y-149479000D03*
D15*
X199695000Y-159639000D03*
X206045000Y-157099000D03*
D16*
X197155000Y-154559000D03*
X207315000Y-154559000D03*
D17*
X202235000Y-154559000D03*
D14*
X153314000Y-130429000D03*
X155854000Y-130429000D03*
D15*
X152044000Y-140589000D03*
X158394000Y-138049000D03*
D16*
X149504000Y-135509000D03*
X159664000Y-135509000D03*
D17*
X154584000Y-135509000D03*
D14*
X153340000Y-111404000D03*
X155880000Y-111404000D03*
D15*
X152070000Y-121564000D03*
X158420000Y-119024000D03*
D16*
X149530000Y-116484000D03*
X159690000Y-116484000D03*
D17*
X154610000Y-116484000D03*
D14*
X153340000Y-92379800D03*
X155880000Y-92379800D03*
D15*
X152070000Y-102539800D03*
X158420000Y-99999800D03*
D16*
X149530000Y-97459800D03*
X159690000Y-97459800D03*
D17*
X154610000Y-97459800D03*
D14*
X181915000Y-149504000D03*
X184455000Y-149504000D03*
D15*
X180645000Y-159664000D03*
X186995000Y-157124000D03*
D16*
X178105000Y-154584000D03*
X188265000Y-154584000D03*
D17*
X183185000Y-154584000D03*
D14*
X134315000Y-130454000D03*
X136855000Y-130454000D03*
D15*
X133045000Y-140614000D03*
X139395000Y-138074000D03*
D16*
X130505000Y-135534000D03*
X140665000Y-135534000D03*
D17*
X135585000Y-135534000D03*
D14*
X134290000Y-111430000D03*
X136830000Y-111430000D03*
D15*
X133020000Y-121590000D03*
X139370000Y-119050000D03*
D16*
X130480000Y-116510000D03*
X140640000Y-116510000D03*
D17*
X135560000Y-116510000D03*
D14*
X134290000Y-92303600D03*
X136830000Y-92303600D03*
D15*
X133020000Y-102463600D03*
X139370000Y-99923600D03*
D16*
X130480000Y-97383600D03*
X140640000Y-97383600D03*
D17*
X135560000Y-97383600D03*
D14*
X115341000Y-130480000D03*
X117881000Y-130480000D03*
D15*
X114071000Y-140640000D03*
X120421000Y-138100000D03*
D16*
X111531000Y-135560000D03*
X121691000Y-135560000D03*
D17*
X116611000Y-135560000D03*
D14*
X115240000Y-111404000D03*
X117780000Y-111404000D03*
D15*
X113970000Y-121564000D03*
X120320000Y-119024000D03*
D16*
X111430000Y-116484000D03*
X121590000Y-116484000D03*
D17*
X116510000Y-116484000D03*
D14*
X115240000Y-92354400D03*
X117780000Y-92354400D03*
D15*
X113970000Y-102514400D03*
X120320000Y-99974400D03*
D16*
X111430000Y-97434400D03*
X121590000Y-97434400D03*
D17*
X116510000Y-97434400D03*
D14*
X96164400Y-130480000D03*
X98704400Y-130480000D03*
D15*
X94894400Y-140640000D03*
X101244400Y-138100000D03*
D16*
X92354400Y-135560000D03*
X102514400Y-135560000D03*
D17*
X97434400Y-135560000D03*
D14*
X96189800Y-111379000D03*
X98729800Y-111379000D03*
D15*
X94919800Y-121539000D03*
X101269800Y-118999000D03*
D16*
X92379800Y-116459000D03*
X102539800Y-116459000D03*
D17*
X97459800Y-116459000D03*
D14*
X96215200Y-92329000D03*
X98755200Y-92329000D03*
D15*
X94945200Y-102489000D03*
X101295200Y-99949000D03*
D16*
X92405200Y-97409000D03*
X102565200Y-97409000D03*
D17*
X97485200Y-97409000D03*
D14*
X77139800Y-130429000D03*
X79679800Y-130429000D03*
D15*
X75869800Y-140589000D03*
X82219800Y-138049000D03*
D16*
X73329800Y-135509000D03*
X83489800Y-135509000D03*
D17*
X78409800Y-135509000D03*
D14*
X77165200Y-111430000D03*
X79705200Y-111430000D03*
D15*
X75895200Y-121590000D03*
X82245200Y-119050000D03*
D16*
X73355200Y-116510000D03*
X83515200Y-116510000D03*
D17*
X78435200Y-116510000D03*
D14*
X77114400Y-92329000D03*
X79654400Y-92329000D03*
D15*
X75844400Y-102489000D03*
X82194400Y-99949000D03*
D16*
X73304400Y-97409000D03*
X83464400Y-97409000D03*
D17*
X78384400Y-97409000D03*
D14*
X58089800Y-130429000D03*
X60629800Y-130429000D03*
D15*
X56819800Y-140589000D03*
X63169800Y-138049000D03*
D16*
X54279800Y-135509000D03*
X64439800Y-135509000D03*
D17*
X59359800Y-135509000D03*
D14*
X58089800Y-111404000D03*
X60629800Y-111404000D03*
D15*
X56819800Y-121564000D03*
X63169800Y-119024000D03*
D16*
X54279800Y-116484000D03*
X64439800Y-116484000D03*
D17*
X59359800Y-116484000D03*
D14*
X58115200Y-92354400D03*
X60655200Y-92354400D03*
D15*
X56845200Y-102514400D03*
X63195200Y-99974400D03*
D16*
X54305200Y-97434400D03*
X64465200Y-97434400D03*
D17*
X59385200Y-97434400D03*
D21*
X193040000Y-131699000D03*
D23*
X193040000Y-139319000D03*
D21*
X196520000Y-142799000D03*
D23*
X188900000Y-142799000D03*
D21*
X212090000Y-150749000D03*
D23*
X212090000Y-158369000D03*
D21*
X169291000Y-131699000D03*
D23*
X169291000Y-139319000D03*
D21*
X169291000Y-112522000D03*
D23*
X169291000Y-120142000D03*
D21*
X166878000Y-93472000D03*
D23*
X166878000Y-101092000D03*
D21*
X193040000Y-150622000D03*
D23*
X193040000Y-158242000D03*
D21*
X145415000Y-131699000D03*
D23*
X145415000Y-139319000D03*
D21*
X145415000Y-112649000D03*
D23*
X145415000Y-120269000D03*
D21*
X145415000Y-93472000D03*
D23*
X145415000Y-101092000D03*
D21*
X174244000Y-150749000D03*
D23*
X174244000Y-158369000D03*
D21*
X126365000Y-131699000D03*
D23*
X126365000Y-139319000D03*
D21*
X126365000Y-112649000D03*
D23*
X126365000Y-120269000D03*
D21*
X126492000Y-93726000D03*
D23*
X126492000Y-101346000D03*
D21*
X150241000Y-150876000D03*
D23*
X150241000Y-158496000D03*
D21*
X107315000Y-131699000D03*
D23*
X107315000Y-139319000D03*
D21*
X107315000Y-112649000D03*
D23*
X107315000Y-120269000D03*
D21*
X107315000Y-93599000D03*
D23*
X107315000Y-101219000D03*
D21*
X121666000Y-150495000D03*
D23*
X121666000Y-158115000D03*
D21*
X88265000Y-131953000D03*
D23*
X88265000Y-139573000D03*
D21*
X88265000Y-112649000D03*
D23*
X88265000Y-120269000D03*
D21*
X88265000Y-93472000D03*
D23*
X88265000Y-101092000D03*
D21*
X92964000Y-150622000D03*
D23*
X92964000Y-158242000D03*
D21*
X69215000Y-131826000D03*
D23*
X69215000Y-139446000D03*
D21*
X69342000Y-112649000D03*
D23*
X69342000Y-120269000D03*
D21*
X69342000Y-93726000D03*
D23*
X69342000Y-101346000D03*
D21*
X56502300Y-145834000D03*
D23*
X48882300Y-145834000D03*
D21*
X50165000Y-131826000D03*
D23*
X50165000Y-139446000D03*
D21*
X50165000Y-112903000D03*
D23*
X50165000Y-120523000D03*
D21*
X50165000Y-93345000D03*
D23*
X50165000Y-100965000D03*
D21*
X207518000Y-83566000D03*
D23*
X207518000Y-91186000D03*
D21*
X199527000Y-49672200D03*
D23*
X191907000Y-49672200D03*
D21*
X169164000Y-74168000D03*
D23*
X169164000Y-81788000D03*
D21*
X169164000Y-55118000D03*
D23*
X169164000Y-62738000D03*
D21*
X145542000Y-74168000D03*
D23*
X145542000Y-81788000D03*
D21*
X145542000Y-54864000D03*
D23*
X145542000Y-62484000D03*
D21*
X126492000Y-74422000D03*
D23*
X126492000Y-82042000D03*
D21*
X126238000Y-55118000D03*
D23*
X126238000Y-62738000D03*
D21*
X107442000Y-74422000D03*
D23*
X107442000Y-82042000D03*
D21*
X107442000Y-55118000D03*
D23*
X107442000Y-62738000D03*
D21*
X88392000Y-74676000D03*
D23*
X88392000Y-82296000D03*
D21*
X88392000Y-55118000D03*
D23*
X88392000Y-62738000D03*
D21*
X69342000Y-74676000D03*
D23*
X69342000Y-82296000D03*
D21*
X69342000Y-55118000D03*
D23*
X69342000Y-62738000D03*
D21*
X50292000Y-74676000D03*
D23*
X50292000Y-82296000D03*
D21*
X50292000Y-55118000D03*
D23*
X50292000Y-62738000D03*
D14*
X153314000Y-54229000D03*
X155854000Y-54229000D03*
D15*
X152044000Y-64389000D03*
X158394000Y-61849000D03*
D16*
X149504000Y-59309000D03*
X159664000Y-59309000D03*
D17*
X154584000Y-59309000D03*
D14*
X115214000Y-73279000D03*
X117754000Y-73279000D03*
D15*
X113944000Y-83439000D03*
X120294000Y-80899000D03*
D16*
X111404000Y-78359000D03*
X121564000Y-78359000D03*
D17*
X116484000Y-78359000D03*
D14*
X210490000Y-54254400D03*
X213030000Y-54254400D03*
D15*
X209220000Y-64414400D03*
X215570000Y-61874400D03*
D16*
X206680000Y-59334400D03*
X216840000Y-59334400D03*
D17*
X211760000Y-59334400D03*
D14*
X215265000Y-82854800D03*
X217805000Y-82854800D03*
D15*
X213995000Y-93014800D03*
X220345000Y-90474800D03*
D16*
X211455000Y-87934800D03*
X221615000Y-87934800D03*
D17*
X216535000Y-87934800D03*
D14*
X177165000Y-54279800D03*
X179705000Y-54279800D03*
D15*
X175895000Y-64439800D03*
X182245000Y-61899800D03*
D16*
X173355000Y-59359800D03*
X183515000Y-59359800D03*
D17*
X178435000Y-59359800D03*
D14*
X153314000Y-73380600D03*
X155854000Y-73380600D03*
D15*
X152044000Y-83540600D03*
X158394000Y-81000600D03*
D16*
X149504000Y-78460600D03*
X159664000Y-78460600D03*
D17*
X154584000Y-78460600D03*
D14*
X134264000Y-73329800D03*
X136804000Y-73329800D03*
D15*
X132994000Y-83489800D03*
X139344000Y-80949800D03*
D16*
X130454000Y-78409800D03*
X140614000Y-78409800D03*
D17*
X135534000Y-78409800D03*
D14*
X134366000Y-54229000D03*
X136906000Y-54229000D03*
D15*
X133096000Y-64389000D03*
X139446000Y-61849000D03*
D16*
X130556000Y-59309000D03*
X140716000Y-59309000D03*
D17*
X135636000Y-59309000D03*
D14*
X115189000Y-54229000D03*
X117729000Y-54229000D03*
D15*
X113919000Y-64389000D03*
X120269000Y-61849000D03*
D16*
X111379000Y-59309000D03*
X121539000Y-59309000D03*
D17*
X116459000Y-59309000D03*
D14*
X96139000Y-73304400D03*
X98679000Y-73304400D03*
D15*
X94869000Y-83464400D03*
X101219000Y-80924400D03*
D16*
X92329000Y-78384400D03*
X102489000Y-78384400D03*
D17*
X97409000Y-78384400D03*
D14*
X96139000Y-54229000D03*
X98679000Y-54229000D03*
D15*
X94869000Y-64389000D03*
X101219000Y-61849000D03*
D16*
X92329000Y-59309000D03*
X102489000Y-59309000D03*
D17*
X97409000Y-59309000D03*
D14*
X77139800Y-73304400D03*
X79679800Y-73304400D03*
D15*
X75869800Y-83464400D03*
X82219800Y-80924400D03*
D16*
X73329800Y-78384400D03*
X83489800Y-78384400D03*
D17*
X78409800Y-78384400D03*
D14*
X77165200Y-54203600D03*
X79705200Y-54203600D03*
D15*
X75895200Y-64363600D03*
X82245200Y-61823600D03*
D16*
X73355200Y-59283600D03*
X83515200Y-59283600D03*
D17*
X78435200Y-59283600D03*
D14*
X58115200Y-73304400D03*
X60655200Y-73304400D03*
D15*
X56845200Y-83464400D03*
X63195200Y-80924400D03*
D16*
X54305200Y-78384400D03*
X64465200Y-78384400D03*
D17*
X59385200Y-78384400D03*
D14*
X58064400Y-54254400D03*
X60604400Y-54254400D03*
D15*
X56794400Y-64414400D03*
X63144400Y-61874400D03*
D16*
X54254400Y-59334400D03*
X64414400Y-59334400D03*
D17*
X59334400Y-59334400D03*
D21*
X199814000Y-85049400D03*
D22*
X199814000Y-69809400D03*
D21*
X219354000Y-49936400D03*
D22*
X204114000Y-49936400D03*
D21*
X185852000Y-69011800D03*
D22*
X170612000Y-69011800D03*
D21*
X186080000Y-49936400D03*
D22*
X170840000Y-49936400D03*
D21*
X162154000Y-69164200D03*
D22*
X146914000Y-69164200D03*
D21*
X162306000Y-50800000D03*
D22*
X147066000Y-50800000D03*
D21*
X143358000Y-69011800D03*
D22*
X128118000Y-69011800D03*
D21*
X144018000Y-50800000D03*
D22*
X128778000Y-50800000D03*
D21*
X124257000Y-68961000D03*
D22*
X109017000Y-68961000D03*
D21*
X125222000Y-50800000D03*
D22*
X109982000Y-50800000D03*
D21*
X104546400Y-69062600D03*
D22*
X89306400Y-69062600D03*
D21*
X105664000Y-50800000D03*
D22*
X90424000Y-50800000D03*
D21*
X86309200Y-69062600D03*
D22*
X71069200Y-69062600D03*
D21*
X86614000Y-50698400D03*
D22*
X71374000Y-50698400D03*
D21*
X66929000Y-68834000D03*
D22*
X51689000Y-68834000D03*
D21*
X67056000Y-50800000D03*
D22*
X51816000Y-50800000D03*
M02*
