%TF.GenerationSoftware,KiCad,Pcbnew,5.1.5+dfsg1-2build2*%
%TF.CreationDate,2021-08-29T12:06:32+02:00*%
%TF.ProjectId,BFK9kv2-right,42464b39-6b76-4322-9d72-696768742e6b,rev?*%
%TF.SameCoordinates,Original*%
%TF.FileFunction,Copper,L1,Top*%
%TF.FilePolarity,Positive*%
%FSLAX46Y46*%
G04 Gerber Fmt 4.6, Leading zero omitted, Abs format (unit mm)*
G04 Created by KiCad (PCBNEW 5.1.5+dfsg1-2build2) date 2021-08-29 12:06:32*
%MOMM*%
%LPD*%
G04 APERTURE LIST*
%ADD10C,5.600000*%
%ADD11C,1.690600*%
%ADD12C,2.200000*%
%ADD13O,1.350000X1.350000*%
%ADD14R,1.350000X1.350000*%
%ADD15O,1.600000X1.600000*%
%ADD16C,1.600000*%
%ADD17R,1.600000X1.600000*%
%ADD18C,0.250000*%
G04 APERTURE END LIST*
D10*
X87889100Y-87873800D03*
X87889100Y-125994000D03*
X190932000Y-125984000D03*
X190942000Y-87878900D03*
D11*
X177165000Y-73329800D03*
X179705000Y-73329800D03*
D12*
X175895000Y-83489800D03*
X182245000Y-80949800D03*
D11*
X174777000Y-92354400D03*
X177317000Y-92354400D03*
D12*
X173507000Y-102514400D03*
X179857000Y-99974400D03*
D13*
X225243000Y-73052400D03*
X225243000Y-75052400D03*
X225243000Y-77052400D03*
D14*
X225243000Y-79052400D03*
D13*
X132482000Y-164186000D03*
X134482000Y-164186000D03*
X136482000Y-164186000D03*
X138482000Y-164186000D03*
X140482000Y-164186000D03*
X142482000Y-164186000D03*
X144482000Y-164186000D03*
D14*
X146482000Y-164186000D03*
D13*
X46431200Y-115270000D03*
X46431200Y-113270000D03*
X46431200Y-111270000D03*
X46431200Y-109270000D03*
X46431200Y-107270000D03*
X46431200Y-105270000D03*
X46431200Y-103270000D03*
D14*
X46431200Y-101270000D03*
D11*
X219989000Y-149504000D03*
X222529000Y-149504000D03*
D12*
X218719000Y-159664000D03*
X225069000Y-157124000D03*
D11*
X158090000Y-149504000D03*
X160630000Y-149504000D03*
D12*
X156820000Y-159664000D03*
X163170000Y-157124000D03*
D11*
X129515000Y-149504000D03*
X132055000Y-149504000D03*
D12*
X128245000Y-159664000D03*
X134595000Y-157124000D03*
D11*
X100940000Y-149479000D03*
X103480000Y-149479000D03*
D12*
X99670000Y-159639000D03*
X106020000Y-157099000D03*
D11*
X67614800Y-149504000D03*
X70154800Y-149504000D03*
D12*
X66344800Y-159664000D03*
X72694800Y-157124000D03*
D11*
X200939000Y-130429000D03*
X203479000Y-130429000D03*
D12*
X199669000Y-140589000D03*
X206019000Y-138049000D03*
D11*
X220015000Y-130505000D03*
X222555000Y-130505000D03*
D12*
X218745000Y-140665000D03*
X225095000Y-138125000D03*
D11*
X210464000Y-111404000D03*
X213004000Y-111404000D03*
D12*
X209194000Y-121564000D03*
X215544000Y-119024000D03*
D15*
X219304000Y-107950000D03*
D16*
X204064000Y-107950000D03*
D15*
X199398000Y-107996000D03*
D17*
X191778000Y-107996000D03*
D15*
X211480000Y-126949000D03*
D16*
X196240000Y-126949000D03*
D15*
X230505000Y-127000000D03*
D16*
X215265000Y-127000000D03*
D15*
X228981000Y-146050000D03*
D16*
X213741000Y-146050000D03*
D15*
X184429000Y-126949000D03*
D16*
X169189000Y-126949000D03*
D15*
X171882000Y-107899000D03*
D16*
X187122000Y-107899000D03*
D15*
X185166000Y-88900000D03*
D16*
X169926000Y-88900000D03*
D15*
X209550000Y-146050000D03*
D16*
X194310000Y-146050000D03*
D15*
X161290000Y-126873000D03*
D16*
X146050000Y-126873000D03*
D15*
X161900000Y-107925000D03*
D16*
X146660000Y-107925000D03*
D15*
X160909000Y-88773000D03*
D16*
X145669000Y-88773000D03*
D15*
X190881000Y-145923000D03*
D16*
X175641000Y-145923000D03*
D15*
X143180000Y-126924000D03*
D16*
X127940000Y-126924000D03*
D15*
X143129000Y-107950000D03*
D16*
X127889000Y-107950000D03*
D15*
X143383000Y-88773000D03*
D16*
X128143000Y-88773000D03*
D15*
X167259000Y-146050000D03*
D16*
X152019000Y-146050000D03*
D15*
X125324000Y-126924000D03*
D16*
X110084000Y-126924000D03*
D15*
X124079000Y-107950000D03*
D16*
X108839000Y-107950000D03*
D15*
X125476000Y-88773000D03*
D16*
X110236000Y-88773000D03*
D15*
X138684000Y-146177000D03*
D16*
X123444000Y-146177000D03*
D15*
X107696000Y-126898000D03*
D16*
X92456000Y-126898000D03*
D15*
X105156000Y-107950000D03*
D16*
X89916000Y-107950000D03*
D15*
X107873800Y-88823800D03*
D16*
X92633800Y-88823800D03*
D15*
X109982000Y-145923000D03*
D16*
X94742000Y-145923000D03*
D15*
X83058000Y-126949000D03*
D16*
X67818000Y-126949000D03*
D15*
X86106000Y-107874000D03*
D16*
X70866000Y-107874000D03*
D15*
X83058000Y-88900000D03*
D16*
X67818000Y-88900000D03*
D15*
X76454000Y-145923000D03*
D16*
X61214000Y-145923000D03*
D15*
X65379600Y-126924000D03*
D16*
X50139600Y-126924000D03*
D15*
X66852800Y-107925000D03*
D16*
X51612800Y-107925000D03*
D15*
X65278000Y-88823800D03*
D16*
X50038000Y-88823800D03*
D11*
X177165000Y-130429000D03*
X179705000Y-130429000D03*
D12*
X175895000Y-140589000D03*
X182245000Y-138049000D03*
D11*
X177165000Y-111354000D03*
X179705000Y-111354000D03*
D12*
X175895000Y-121514000D03*
X182245000Y-118974000D03*
D11*
X200965000Y-149479000D03*
X203505000Y-149479000D03*
D12*
X199695000Y-159639000D03*
X206045000Y-157099000D03*
D11*
X153314000Y-130429000D03*
X155854000Y-130429000D03*
D12*
X152044000Y-140589000D03*
X158394000Y-138049000D03*
D11*
X153340000Y-111404000D03*
X155880000Y-111404000D03*
D12*
X152070000Y-121564000D03*
X158420000Y-119024000D03*
D11*
X153340000Y-92379800D03*
X155880000Y-92379800D03*
D12*
X152070000Y-102539800D03*
X158420000Y-99999800D03*
D11*
X181915000Y-149504000D03*
X184455000Y-149504000D03*
D12*
X180645000Y-159664000D03*
X186995000Y-157124000D03*
D11*
X134315000Y-130454000D03*
X136855000Y-130454000D03*
D12*
X133045000Y-140614000D03*
X139395000Y-138074000D03*
D11*
X134290000Y-111430000D03*
X136830000Y-111430000D03*
D12*
X133020000Y-121590000D03*
X139370000Y-119050000D03*
D11*
X134290000Y-92303600D03*
X136830000Y-92303600D03*
D12*
X133020000Y-102463600D03*
X139370000Y-99923600D03*
D11*
X115341000Y-130480000D03*
X117881000Y-130480000D03*
D12*
X114071000Y-140640000D03*
X120421000Y-138100000D03*
D11*
X115240000Y-111404000D03*
X117780000Y-111404000D03*
D12*
X113970000Y-121564000D03*
X120320000Y-119024000D03*
D11*
X115240000Y-92354400D03*
X117780000Y-92354400D03*
D12*
X113970000Y-102514400D03*
X120320000Y-99974400D03*
D11*
X96164400Y-130480000D03*
X98704400Y-130480000D03*
D12*
X94894400Y-140640000D03*
X101244400Y-138100000D03*
D11*
X96189800Y-111379000D03*
X98729800Y-111379000D03*
D12*
X94919800Y-121539000D03*
X101269800Y-118999000D03*
D11*
X96215200Y-92329000D03*
X98755200Y-92329000D03*
D12*
X94945200Y-102489000D03*
X101295200Y-99949000D03*
D11*
X77139800Y-130429000D03*
X79679800Y-130429000D03*
D12*
X75869800Y-140589000D03*
X82219800Y-138049000D03*
D11*
X77165200Y-111430000D03*
X79705200Y-111430000D03*
D12*
X75895200Y-121590000D03*
X82245200Y-119050000D03*
D11*
X77114400Y-92329000D03*
X79654400Y-92329000D03*
D12*
X75844400Y-102489000D03*
X82194400Y-99949000D03*
D11*
X58089800Y-130429000D03*
X60629800Y-130429000D03*
D12*
X56819800Y-140589000D03*
X63169800Y-138049000D03*
D11*
X58089800Y-111404000D03*
X60629800Y-111404000D03*
D12*
X56819800Y-121564000D03*
X63169800Y-119024000D03*
D11*
X58115200Y-92354400D03*
X60655200Y-92354400D03*
D12*
X56845200Y-102514400D03*
X63195200Y-99974400D03*
D15*
X193040000Y-131699000D03*
D17*
X193040000Y-139319000D03*
D15*
X196520000Y-142799000D03*
D17*
X188900000Y-142799000D03*
D15*
X212090000Y-150749000D03*
D17*
X212090000Y-158369000D03*
D15*
X169291000Y-131699000D03*
D17*
X169291000Y-139319000D03*
D15*
X169291000Y-112522000D03*
D17*
X169291000Y-120142000D03*
D15*
X166878000Y-93472000D03*
D17*
X166878000Y-101092000D03*
D15*
X193040000Y-150622000D03*
D17*
X193040000Y-158242000D03*
D15*
X145415000Y-131699000D03*
D17*
X145415000Y-139319000D03*
D15*
X145415000Y-112649000D03*
D17*
X145415000Y-120269000D03*
D15*
X145415000Y-93472000D03*
D17*
X145415000Y-101092000D03*
D15*
X174244000Y-150749000D03*
D17*
X174244000Y-158369000D03*
D15*
X126365000Y-131699000D03*
D17*
X126365000Y-139319000D03*
D15*
X126365000Y-112649000D03*
D17*
X126365000Y-120269000D03*
D15*
X126492000Y-93726000D03*
D17*
X126492000Y-101346000D03*
D15*
X150241000Y-150876000D03*
D17*
X150241000Y-158496000D03*
D15*
X107315000Y-131699000D03*
D17*
X107315000Y-139319000D03*
D15*
X107315000Y-112649000D03*
D17*
X107315000Y-120269000D03*
D15*
X107315000Y-93599000D03*
D17*
X107315000Y-101219000D03*
D15*
X121666000Y-150495000D03*
D17*
X121666000Y-158115000D03*
D15*
X88265000Y-131953000D03*
D17*
X88265000Y-139573000D03*
D15*
X88265000Y-112649000D03*
D17*
X88265000Y-120269000D03*
D15*
X88265000Y-93472000D03*
D17*
X88265000Y-101092000D03*
D15*
X92964000Y-150622000D03*
D17*
X92964000Y-158242000D03*
D15*
X69215000Y-131826000D03*
D17*
X69215000Y-139446000D03*
D15*
X69342000Y-112649000D03*
D17*
X69342000Y-120269000D03*
D15*
X69342000Y-93726000D03*
D17*
X69342000Y-101346000D03*
D15*
X56502300Y-145834000D03*
D17*
X48882300Y-145834000D03*
D15*
X50165000Y-131826000D03*
D17*
X50165000Y-139446000D03*
D15*
X50165000Y-112903000D03*
D17*
X50165000Y-120523000D03*
D15*
X50165000Y-93345000D03*
D17*
X50165000Y-100965000D03*
D15*
X207518000Y-83566000D03*
D17*
X207518000Y-91186000D03*
D15*
X199527000Y-49672200D03*
D17*
X191907000Y-49672200D03*
D15*
X169164000Y-74168000D03*
D17*
X169164000Y-81788000D03*
D15*
X169164000Y-55118000D03*
D17*
X169164000Y-62738000D03*
D15*
X145542000Y-74168000D03*
D17*
X145542000Y-81788000D03*
D15*
X145542000Y-54864000D03*
D17*
X145542000Y-62484000D03*
D15*
X126492000Y-74422000D03*
D17*
X126492000Y-82042000D03*
D15*
X126238000Y-55118000D03*
D17*
X126238000Y-62738000D03*
D15*
X107442000Y-74422000D03*
D17*
X107442000Y-82042000D03*
D15*
X107442000Y-55118000D03*
D17*
X107442000Y-62738000D03*
D15*
X88392000Y-74676000D03*
D17*
X88392000Y-82296000D03*
D15*
X88392000Y-55118000D03*
D17*
X88392000Y-62738000D03*
D15*
X69342000Y-74676000D03*
D17*
X69342000Y-82296000D03*
D15*
X69342000Y-55118000D03*
D17*
X69342000Y-62738000D03*
D15*
X50292000Y-74676000D03*
D17*
X50292000Y-82296000D03*
D15*
X50292000Y-55118000D03*
D17*
X50292000Y-62738000D03*
D11*
X153314000Y-54229000D03*
X155854000Y-54229000D03*
D12*
X152044000Y-64389000D03*
X158394000Y-61849000D03*
D11*
X115214000Y-73279000D03*
X117754000Y-73279000D03*
D12*
X113944000Y-83439000D03*
X120294000Y-80899000D03*
D11*
X210490000Y-54254400D03*
X213030000Y-54254400D03*
D12*
X209220000Y-64414400D03*
X215570000Y-61874400D03*
D11*
X215265000Y-82854800D03*
X217805000Y-82854800D03*
D12*
X213995000Y-93014800D03*
X220345000Y-90474800D03*
D11*
X177165000Y-54279800D03*
X179705000Y-54279800D03*
D12*
X175895000Y-64439800D03*
X182245000Y-61899800D03*
D11*
X153314000Y-73380600D03*
X155854000Y-73380600D03*
D12*
X152044000Y-83540600D03*
X158394000Y-81000600D03*
D11*
X134264000Y-73329800D03*
X136804000Y-73329800D03*
D12*
X132994000Y-83489800D03*
X139344000Y-80949800D03*
D11*
X134366000Y-54229000D03*
X136906000Y-54229000D03*
D12*
X133096000Y-64389000D03*
X139446000Y-61849000D03*
D11*
X115189000Y-54229000D03*
X117729000Y-54229000D03*
D12*
X113919000Y-64389000D03*
X120269000Y-61849000D03*
D11*
X96139000Y-73304400D03*
X98679000Y-73304400D03*
D12*
X94869000Y-83464400D03*
X101219000Y-80924400D03*
D11*
X96139000Y-54229000D03*
X98679000Y-54229000D03*
D12*
X94869000Y-64389000D03*
X101219000Y-61849000D03*
D11*
X77139800Y-73304400D03*
X79679800Y-73304400D03*
D12*
X75869800Y-83464400D03*
X82219800Y-80924400D03*
D11*
X77165200Y-54203600D03*
X79705200Y-54203600D03*
D12*
X75895200Y-64363600D03*
X82245200Y-61823600D03*
D11*
X58115200Y-73304400D03*
X60655200Y-73304400D03*
D12*
X56845200Y-83464400D03*
X63195200Y-80924400D03*
D11*
X58064400Y-54254400D03*
X60604400Y-54254400D03*
D12*
X56794400Y-64414400D03*
X63144400Y-61874400D03*
D15*
X199814000Y-85049400D03*
D16*
X199814000Y-69809400D03*
D15*
X219354000Y-49936400D03*
D16*
X204114000Y-49936400D03*
D15*
X185852000Y-69011800D03*
D16*
X170612000Y-69011800D03*
D15*
X186080000Y-49936400D03*
D16*
X170840000Y-49936400D03*
D15*
X162154000Y-69164200D03*
D16*
X146914000Y-69164200D03*
D15*
X162306000Y-50800000D03*
D16*
X147066000Y-50800000D03*
D15*
X143358000Y-69011800D03*
D16*
X128118000Y-69011800D03*
D15*
X144018000Y-50800000D03*
D16*
X128778000Y-50800000D03*
D15*
X124257000Y-68961000D03*
D16*
X109017000Y-68961000D03*
D15*
X125222000Y-50800000D03*
D16*
X109982000Y-50800000D03*
D15*
X104546400Y-69062600D03*
D16*
X89306400Y-69062600D03*
D15*
X105664000Y-50800000D03*
D16*
X90424000Y-50800000D03*
D15*
X86309200Y-69062600D03*
D16*
X71069200Y-69062600D03*
D15*
X86614000Y-50698400D03*
D16*
X71374000Y-50698400D03*
D15*
X66929000Y-68834000D03*
D16*
X51689000Y-68834000D03*
D15*
X67056000Y-50800000D03*
D16*
X51816000Y-50800000D03*
D18*
X86614000Y-50698400D02*
X83210400Y-50698400D01*
X83210400Y-50698400D02*
X79705200Y-54203600D01*
X144018000Y-50800000D02*
X140335000Y-50800000D01*
X140335000Y-50800000D02*
X136906000Y-54229000D01*
X217805000Y-82854800D02*
X215610400Y-85049400D01*
X215610400Y-85049400D02*
X199814000Y-85049400D01*
X69342000Y-62738000D02*
X68216700Y-62738000D01*
X50292000Y-62738000D02*
X59771400Y-62738000D01*
X59771400Y-62738000D02*
X60348900Y-63315500D01*
X60348900Y-63315500D02*
X67639200Y-63315500D01*
X67639200Y-63315500D02*
X68216700Y-62738000D01*
X88392000Y-62738000D02*
X87266700Y-62738000D01*
X69342000Y-62738000D02*
X78999200Y-62738000D01*
X78999200Y-62738000D02*
X79572200Y-63311000D01*
X79572200Y-63311000D02*
X86693700Y-63311000D01*
X86693700Y-63311000D02*
X87266700Y-62738000D01*
X107442000Y-62738000D02*
X106316700Y-62738000D01*
X88392000Y-62738000D02*
X98722800Y-62738000D01*
X98722800Y-62738000D02*
X99295000Y-63310200D01*
X99295000Y-63310200D02*
X105744500Y-63310200D01*
X105744500Y-63310200D02*
X106316700Y-62738000D01*
X145542000Y-62484000D02*
X144416700Y-62484000D01*
X126238000Y-62738000D02*
X136149200Y-62738000D01*
X136149200Y-62738000D02*
X136726200Y-63315000D01*
X136726200Y-63315000D02*
X143585700Y-63315000D01*
X143585700Y-63315000D02*
X144416700Y-62484000D01*
X125675400Y-62738000D02*
X126238000Y-62738000D01*
X125675400Y-62738000D02*
X125112700Y-62738000D01*
X107442000Y-62738000D02*
X116972200Y-62738000D01*
X116972200Y-62738000D02*
X117549200Y-63315000D01*
X117549200Y-63315000D02*
X124535700Y-63315000D01*
X124535700Y-63315000D02*
X125112700Y-62738000D01*
X169164000Y-62738000D02*
X169164000Y-61612700D01*
X191907000Y-49672200D02*
X190781700Y-49672200D01*
X190781700Y-49672200D02*
X183974000Y-56479900D01*
X183974000Y-56479900D02*
X174296800Y-56479900D01*
X174296800Y-56479900D02*
X169164000Y-61612700D01*
X169164000Y-62738000D02*
X168038700Y-62738000D01*
X145542000Y-62484000D02*
X154319100Y-62484000D01*
X154319100Y-62484000D02*
X155114300Y-63279200D01*
X155114300Y-63279200D02*
X167497500Y-63279200D01*
X167497500Y-63279200D02*
X168038700Y-62738000D01*
X169164000Y-81788000D02*
X170289300Y-81788000D01*
X207518000Y-91186000D02*
X179687300Y-91186000D01*
X179687300Y-91186000D02*
X170289300Y-81788000D01*
X169164000Y-81788000D02*
X168038700Y-81788000D01*
X168038700Y-81788000D02*
X167373600Y-82453100D01*
X167373600Y-82453100D02*
X153476300Y-82453100D01*
X153476300Y-82453100D02*
X152811200Y-81788000D01*
X152811200Y-81788000D02*
X145542000Y-81788000D01*
X145542000Y-81788000D02*
X144416700Y-81788000D01*
X144416700Y-81788000D02*
X143802400Y-82402300D01*
X143802400Y-82402300D02*
X134426300Y-82402300D01*
X134426300Y-82402300D02*
X134066000Y-82042000D01*
X134066000Y-82042000D02*
X126492000Y-82042000D01*
X107442000Y-82042000D02*
X108567300Y-82042000D01*
X126492000Y-82042000D02*
X125366700Y-82042000D01*
X125366700Y-82042000D02*
X125050100Y-82358600D01*
X125050100Y-82358600D02*
X115383400Y-82358600D01*
X115383400Y-82358600D02*
X115012400Y-81987600D01*
X115012400Y-81987600D02*
X108621700Y-81987600D01*
X108621700Y-81987600D02*
X108567300Y-82042000D01*
X88392000Y-82296000D02*
X89517300Y-82296000D01*
X107442000Y-82042000D02*
X106316700Y-82042000D01*
X106316700Y-82042000D02*
X105981000Y-82377700D01*
X105981000Y-82377700D02*
X96302100Y-82377700D01*
X96302100Y-82377700D02*
X95945500Y-82021100D01*
X95945500Y-82021100D02*
X89792200Y-82021100D01*
X89792200Y-82021100D02*
X89517300Y-82296000D01*
X69342000Y-82296000D02*
X70467300Y-82296000D01*
X88392000Y-82296000D02*
X87266700Y-82296000D01*
X87266700Y-82296000D02*
X87196000Y-82366700D01*
X87196000Y-82366700D02*
X77291900Y-82366700D01*
X77291900Y-82366700D02*
X76946300Y-82021100D01*
X76946300Y-82021100D02*
X70742200Y-82021100D01*
X70742200Y-82021100D02*
X70467300Y-82296000D01*
X50292000Y-82296000D02*
X51417300Y-82296000D01*
X69342000Y-82296000D02*
X68216700Y-82296000D01*
X68216700Y-82296000D02*
X68119900Y-82392800D01*
X68119900Y-82392800D02*
X58293400Y-82392800D01*
X58293400Y-82392800D02*
X57921700Y-82021100D01*
X57921700Y-82021100D02*
X51692200Y-82021100D01*
X51692200Y-82021100D02*
X51417300Y-82296000D01*
X199527000Y-49672200D02*
X200652300Y-49672200D01*
X200652300Y-49672200D02*
X209220000Y-58239900D01*
X209220000Y-58239900D02*
X209220000Y-64414400D01*
X204023500Y-109144100D02*
X204064000Y-109103600D01*
X204064000Y-109103600D02*
X204064000Y-107950000D01*
X187122000Y-107899000D02*
X188367100Y-109144100D01*
X188367100Y-109144100D02*
X204023500Y-109144100D01*
X204023500Y-109144100D02*
X204023500Y-125805700D01*
X204023500Y-125805700D02*
X197383300Y-125805700D01*
X197383300Y-125805700D02*
X196240000Y-126949000D01*
X215265000Y-127000000D02*
X214070700Y-125805700D01*
X214070700Y-125805700D02*
X204023500Y-125805700D01*
X51816000Y-50800000D02*
X52987700Y-49628300D01*
X52987700Y-49628300D02*
X70303900Y-49628300D01*
X70303900Y-49628300D02*
X71374000Y-50698400D01*
X67818000Y-126949000D02*
X66717600Y-128049400D01*
X66717600Y-128049400D02*
X51265000Y-128049400D01*
X51265000Y-128049400D02*
X50139600Y-126924000D01*
X89916000Y-107950000D02*
X91054800Y-109088800D01*
X91054800Y-109088800D02*
X107700200Y-109088800D01*
X107700200Y-109088800D02*
X108839000Y-107950000D01*
X70866000Y-107874000D02*
X71998500Y-109006500D01*
X71998500Y-109006500D02*
X88859500Y-109006500D01*
X88859500Y-109006500D02*
X89916000Y-107950000D01*
X51163400Y-89949200D02*
X50038000Y-88823800D01*
X67818000Y-88900000D02*
X66768800Y-89949200D01*
X66768800Y-89949200D02*
X51163400Y-89949200D01*
X51163400Y-89949200D02*
X49039600Y-92073000D01*
X49039600Y-92073000D02*
X49039600Y-105351800D01*
X49039600Y-105351800D02*
X51612800Y-107925000D01*
X175641000Y-145923000D02*
X176782600Y-147064600D01*
X176782600Y-147064600D02*
X193295400Y-147064600D01*
X193295400Y-147064600D02*
X194310000Y-146050000D01*
X127889000Y-107950000D02*
X129033800Y-106805200D01*
X129033800Y-106805200D02*
X145540200Y-106805200D01*
X145540200Y-106805200D02*
X146660000Y-107925000D01*
X108839000Y-107950000D02*
X109996700Y-109107700D01*
X109996700Y-109107700D02*
X126731300Y-109107700D01*
X126731300Y-109107700D02*
X127889000Y-107950000D01*
X128143000Y-88773000D02*
X126961800Y-87591800D01*
X126961800Y-87591800D02*
X111417200Y-87591800D01*
X111417200Y-87591800D02*
X110236000Y-88773000D01*
X145669000Y-88773000D02*
X144543600Y-89898400D01*
X144543600Y-89898400D02*
X129268400Y-89898400D01*
X129268400Y-89898400D02*
X128143000Y-88773000D01*
X109017000Y-68961000D02*
X110143000Y-70087000D01*
X110143000Y-70087000D02*
X127042800Y-70087000D01*
X127042800Y-70087000D02*
X128118000Y-69011800D01*
X127940000Y-126924000D02*
X126778500Y-128085500D01*
X126778500Y-128085500D02*
X111245500Y-128085500D01*
X111245500Y-128085500D02*
X110084000Y-126924000D01*
X146050000Y-126873000D02*
X144975400Y-125798400D01*
X144975400Y-125798400D02*
X129065600Y-125798400D01*
X129065600Y-125798400D02*
X127940000Y-126924000D01*
X110084000Y-126924000D02*
X108977200Y-128030800D01*
X108977200Y-128030800D02*
X93588800Y-128030800D01*
X93588800Y-128030800D02*
X92456000Y-126898000D01*
X71069200Y-69062600D02*
X72194600Y-70188000D01*
X72194600Y-70188000D02*
X88181000Y-70188000D01*
X88181000Y-70188000D02*
X89306400Y-69062600D01*
X52817700Y-69962700D02*
X70169100Y-69962700D01*
X70169100Y-69962700D02*
X71069200Y-69062600D01*
X51689000Y-68834000D02*
X52817700Y-69962700D01*
X52817700Y-69962700D02*
X49166600Y-73613800D01*
X49166600Y-73613800D02*
X49166600Y-87952400D01*
X49166600Y-87952400D02*
X50038000Y-88823800D01*
X194310000Y-146050000D02*
X195440400Y-144919600D01*
X195440400Y-144919600D02*
X212610600Y-144919600D01*
X212610600Y-144919600D02*
X213741000Y-146050000D01*
X109982000Y-50800000D02*
X111107400Y-49674600D01*
X111107400Y-49674600D02*
X127652600Y-49674600D01*
X127652600Y-49674600D02*
X128778000Y-50800000D01*
X92633800Y-88823800D02*
X93770100Y-87687500D01*
X93770100Y-87687500D02*
X109150500Y-87687500D01*
X109150500Y-87687500D02*
X110236000Y-88773000D01*
X199814000Y-69809400D02*
X199470400Y-70153000D01*
X199470400Y-70153000D02*
X171753200Y-70153000D01*
X171753200Y-70153000D02*
X170612000Y-69011800D01*
X128118000Y-69011800D02*
X129244600Y-70138400D01*
X129244600Y-70138400D02*
X145939800Y-70138400D01*
X145939800Y-70138400D02*
X146914000Y-69164200D01*
X96164400Y-130480000D02*
X94942800Y-129258400D01*
X94942800Y-129258400D02*
X78310400Y-129258400D01*
X78310400Y-129258400D02*
X77139800Y-130429000D01*
X115341000Y-130480000D02*
X114163900Y-129302900D01*
X114163900Y-129302900D02*
X97341500Y-129302900D01*
X97341500Y-129302900D02*
X96164400Y-130480000D01*
X210490000Y-54254400D02*
X210490000Y-54681900D01*
X210490000Y-54681900D02*
X217466600Y-61658500D01*
X217466600Y-61658500D02*
X217466600Y-65890700D01*
X217466600Y-65890700D02*
X224242700Y-72666800D01*
X224242700Y-72666800D02*
X224242700Y-77052400D01*
X225243000Y-77052400D02*
X224242700Y-77052400D01*
X215265000Y-82854800D02*
X217649100Y-80470700D01*
X217649100Y-80470700D02*
X221371400Y-80470700D01*
X221371400Y-80470700D02*
X224242700Y-77599400D01*
X224242700Y-77599400D02*
X224242700Y-77052400D01*
X134290000Y-111430000D02*
X135464900Y-110255100D01*
X135464900Y-110255100D02*
X152191100Y-110255100D01*
X152191100Y-110255100D02*
X153340000Y-111404000D01*
X115240000Y-111404000D02*
X116448600Y-110195400D01*
X116448600Y-110195400D02*
X133055400Y-110195400D01*
X133055400Y-110195400D02*
X134290000Y-111430000D01*
X115214000Y-73279000D02*
X114040700Y-72105700D01*
X114040700Y-72105700D02*
X97337700Y-72105700D01*
X97337700Y-72105700D02*
X96139000Y-73304400D01*
X134264000Y-73329800D02*
X133020600Y-72086400D01*
X133020600Y-72086400D02*
X116406600Y-72086400D01*
X116406600Y-72086400D02*
X115214000Y-73279000D01*
X134290000Y-92303600D02*
X119546600Y-92303600D01*
X119546600Y-92303600D02*
X118323600Y-93526600D01*
X118323600Y-93526600D02*
X116412200Y-93526600D01*
X116412200Y-93526600D02*
X115240000Y-92354400D01*
X153340000Y-92379800D02*
X152049500Y-91089300D01*
X152049500Y-91089300D02*
X135504300Y-91089300D01*
X135504300Y-91089300D02*
X134290000Y-92303600D01*
X77139800Y-130429000D02*
X75944000Y-129233200D01*
X75944000Y-129233200D02*
X59285600Y-129233200D01*
X59285600Y-129233200D02*
X58089800Y-130429000D01*
X181915000Y-149504000D02*
X180705900Y-148294900D01*
X180705900Y-148294900D02*
X159299100Y-148294900D01*
X159299100Y-148294900D02*
X158090000Y-149504000D01*
X200965000Y-149479000D02*
X199817600Y-148331600D01*
X199817600Y-148331600D02*
X183087400Y-148331600D01*
X183087400Y-148331600D02*
X181915000Y-149504000D01*
X96189800Y-111379000D02*
X95063000Y-110252200D01*
X95063000Y-110252200D02*
X78343000Y-110252200D01*
X78343000Y-110252200D02*
X77165200Y-111430000D01*
X115240000Y-111404000D02*
X114033200Y-110197200D01*
X114033200Y-110197200D02*
X97371600Y-110197200D01*
X97371600Y-110197200D02*
X96189800Y-111379000D01*
X219989000Y-149504000D02*
X218789200Y-148304200D01*
X218789200Y-148304200D02*
X202139800Y-148304200D01*
X202139800Y-148304200D02*
X200965000Y-149479000D01*
X216392100Y-129215000D02*
X218725000Y-129215000D01*
X218725000Y-129215000D02*
X220015000Y-130505000D01*
X200939000Y-130429000D02*
X202153000Y-129215000D01*
X202153000Y-129215000D02*
X216392100Y-129215000D01*
X210464000Y-111404000D02*
X214059300Y-114999300D01*
X214059300Y-114999300D02*
X214059300Y-123836900D01*
X214059300Y-123836900D02*
X216392100Y-126169700D01*
X216392100Y-126169700D02*
X216392100Y-129215000D01*
X153314000Y-130429000D02*
X152143300Y-129258300D01*
X152143300Y-129258300D02*
X135510700Y-129258300D01*
X135510700Y-129258300D02*
X134315000Y-130454000D01*
X134315000Y-130454000D02*
X133170300Y-129309300D01*
X133170300Y-129309300D02*
X116511700Y-129309300D01*
X116511700Y-129309300D02*
X115341000Y-130480000D01*
X174777000Y-92354400D02*
X173581100Y-91158500D01*
X173581100Y-91158500D02*
X154561300Y-91158500D01*
X154561300Y-91158500D02*
X153340000Y-92379800D01*
X96139000Y-73304400D02*
X94968300Y-72133700D01*
X94968300Y-72133700D02*
X78310500Y-72133700D01*
X78310500Y-72133700D02*
X77139800Y-73304400D01*
X58115200Y-73304400D02*
X59285900Y-72133700D01*
X59285900Y-72133700D02*
X75969100Y-72133700D01*
X75969100Y-72133700D02*
X77139800Y-73304400D01*
X77114400Y-92329000D02*
X75931200Y-91145800D01*
X75931200Y-91145800D02*
X59323800Y-91145800D01*
X59323800Y-91145800D02*
X58115200Y-92354400D01*
X96139000Y-54229000D02*
X97324200Y-53043800D01*
X97324200Y-53043800D02*
X114003800Y-53043800D01*
X114003800Y-53043800D02*
X115189000Y-54229000D01*
X69342000Y-101346000D02*
X68216700Y-101346000D01*
X50165000Y-100965000D02*
X59475900Y-100965000D01*
X59475900Y-100965000D02*
X59919100Y-101408200D01*
X59919100Y-101408200D02*
X68154500Y-101408200D01*
X68154500Y-101408200D02*
X68216700Y-101346000D01*
X166878000Y-101092000D02*
X168003300Y-101092000D01*
X191778000Y-107996000D02*
X190652700Y-107996000D01*
X190652700Y-107996000D02*
X187668400Y-105011700D01*
X187668400Y-105011700D02*
X171923000Y-105011700D01*
X171923000Y-105011700D02*
X168003300Y-101092000D01*
X166878000Y-101092000D02*
X165752700Y-101092000D01*
X165752700Y-101092000D02*
X165392400Y-101452300D01*
X165392400Y-101452300D02*
X153502300Y-101452300D01*
X153502300Y-101452300D02*
X153142000Y-101092000D01*
X153142000Y-101092000D02*
X145415000Y-101092000D01*
X126492000Y-101346000D02*
X127617300Y-101346000D01*
X145415000Y-101092000D02*
X144289700Y-101092000D01*
X144289700Y-101092000D02*
X143992100Y-101389600D01*
X143992100Y-101389600D02*
X134465800Y-101389600D01*
X134465800Y-101389600D02*
X134062800Y-100986600D01*
X134062800Y-100986600D02*
X127976700Y-100986600D01*
X127976700Y-100986600D02*
X127617300Y-101346000D01*
X107315000Y-101219000D02*
X108440300Y-101219000D01*
X126492000Y-101346000D02*
X125366700Y-101346000D01*
X125366700Y-101346000D02*
X125269900Y-101442800D01*
X125269900Y-101442800D02*
X115418200Y-101442800D01*
X115418200Y-101442800D02*
X115012100Y-101036700D01*
X115012100Y-101036700D02*
X108622600Y-101036700D01*
X108622600Y-101036700D02*
X108440300Y-101219000D01*
X88265000Y-101092000D02*
X89390300Y-101092000D01*
X107315000Y-101219000D02*
X106189700Y-101219000D01*
X106189700Y-101219000D02*
X106023700Y-101385000D01*
X106023700Y-101385000D02*
X96361000Y-101385000D01*
X96361000Y-101385000D02*
X96013600Y-101037600D01*
X96013600Y-101037600D02*
X89444700Y-101037600D01*
X89444700Y-101037600D02*
X89390300Y-101092000D01*
X69342000Y-101346000D02*
X70467300Y-101346000D01*
X88265000Y-101092000D02*
X87139700Y-101092000D01*
X87139700Y-101092000D02*
X86823100Y-101408600D01*
X86823100Y-101408600D02*
X77283800Y-101408600D01*
X77283800Y-101408600D02*
X76869700Y-100994500D01*
X76869700Y-100994500D02*
X70818800Y-100994500D01*
X70818800Y-100994500D02*
X70467300Y-101346000D01*
X144852400Y-120269000D02*
X145204900Y-119916500D01*
X145204900Y-119916500D02*
X154617500Y-119916500D01*
X154617500Y-119916500D02*
X156983700Y-117550300D01*
X156983700Y-117550300D02*
X158962200Y-117550300D01*
X158962200Y-117550300D02*
X161553900Y-120142000D01*
X161553900Y-120142000D02*
X169291000Y-120142000D01*
X144852400Y-120269000D02*
X144289700Y-120269000D01*
X145415000Y-120269000D02*
X144852400Y-120269000D01*
X69342000Y-120269000D02*
X68216700Y-120269000D01*
X50165000Y-120523000D02*
X51290300Y-120523000D01*
X51290300Y-120523000D02*
X51697300Y-120116000D01*
X51697300Y-120116000D02*
X60327700Y-120116000D01*
X60327700Y-120116000D02*
X60696900Y-120485200D01*
X60696900Y-120485200D02*
X68000500Y-120485200D01*
X68000500Y-120485200D02*
X68216700Y-120269000D01*
X126365000Y-120269000D02*
X127490300Y-120269000D01*
X144289700Y-120269000D02*
X144030100Y-120528600D01*
X144030100Y-120528600D02*
X134478400Y-120528600D01*
X134478400Y-120528600D02*
X134100400Y-120150600D01*
X134100400Y-120150600D02*
X127608700Y-120150600D01*
X127608700Y-120150600D02*
X127490300Y-120269000D01*
X107315000Y-120269000D02*
X108440300Y-120269000D01*
X126365000Y-120269000D02*
X125239700Y-120269000D01*
X125239700Y-120269000D02*
X124999600Y-120509100D01*
X124999600Y-120509100D02*
X115434900Y-120509100D01*
X115434900Y-120509100D02*
X115012400Y-120086600D01*
X115012400Y-120086600D02*
X108622700Y-120086600D01*
X108622700Y-120086600D02*
X108440300Y-120269000D01*
X88265000Y-120269000D02*
X89390300Y-120269000D01*
X107315000Y-120269000D02*
X106189700Y-120269000D01*
X106189700Y-120269000D02*
X106023700Y-120435000D01*
X106023700Y-120435000D02*
X96335600Y-120435000D01*
X96335600Y-120435000D02*
X95982500Y-120081900D01*
X95982500Y-120081900D02*
X89577400Y-120081900D01*
X89577400Y-120081900D02*
X89390300Y-120269000D01*
X69342000Y-120269000D02*
X70467300Y-120269000D01*
X88265000Y-120269000D02*
X87139700Y-120269000D01*
X87139700Y-120269000D02*
X86880100Y-120528600D01*
X86880100Y-120528600D02*
X77353600Y-120528600D01*
X77353600Y-120528600D02*
X76975600Y-120150600D01*
X76975600Y-120150600D02*
X70585700Y-120150600D01*
X70585700Y-120150600D02*
X70467300Y-120269000D01*
X69215000Y-139446000D02*
X68089700Y-139446000D01*
X50165000Y-139446000D02*
X51290300Y-139446000D01*
X51290300Y-139446000D02*
X51592500Y-139143800D01*
X51592500Y-139143800D02*
X61328500Y-139143800D01*
X61328500Y-139143800D02*
X61698100Y-139513400D01*
X61698100Y-139513400D02*
X68022300Y-139513400D01*
X68022300Y-139513400D02*
X68089700Y-139446000D01*
X169291000Y-139319000D02*
X170416300Y-139319000D01*
X193040000Y-139319000D02*
X191914700Y-139319000D01*
X191914700Y-139319000D02*
X191748700Y-139485000D01*
X191748700Y-139485000D02*
X177310800Y-139485000D01*
X177310800Y-139485000D02*
X176957700Y-139131900D01*
X176957700Y-139131900D02*
X170603400Y-139131900D01*
X170603400Y-139131900D02*
X170416300Y-139319000D01*
X145415000Y-139319000D02*
X146540300Y-139319000D01*
X169291000Y-139319000D02*
X168165700Y-139319000D01*
X168165700Y-139319000D02*
X167999700Y-139485000D01*
X167999700Y-139485000D02*
X153459800Y-139485000D01*
X153459800Y-139485000D02*
X153106700Y-139131900D01*
X153106700Y-139131900D02*
X146727400Y-139131900D01*
X146727400Y-139131900D02*
X146540300Y-139319000D01*
X126365000Y-139319000D02*
X127490300Y-139319000D01*
X145415000Y-139319000D02*
X144289700Y-139319000D01*
X144289700Y-139319000D02*
X144049600Y-139559100D01*
X144049600Y-139559100D02*
X134509900Y-139559100D01*
X134509900Y-139559100D02*
X134087400Y-139136600D01*
X134087400Y-139136600D02*
X127672700Y-139136600D01*
X127672700Y-139136600D02*
X127490300Y-139319000D01*
X107315000Y-139319000D02*
X108440300Y-139319000D01*
X126365000Y-139319000D02*
X125239700Y-139319000D01*
X125239700Y-139319000D02*
X124980100Y-139578600D01*
X124980100Y-139578600D02*
X115529400Y-139578600D01*
X115529400Y-139578600D02*
X115151400Y-139200600D01*
X115151400Y-139200600D02*
X108558700Y-139200600D01*
X108558700Y-139200600D02*
X108440300Y-139319000D01*
X107315000Y-139319000D02*
X106189700Y-139319000D01*
X88265000Y-139573000D02*
X89390300Y-139573000D01*
X89390300Y-139573000D02*
X89771300Y-139192000D01*
X89771300Y-139192000D02*
X100025000Y-139192000D01*
X100025000Y-139192000D02*
X100396800Y-139563800D01*
X100396800Y-139563800D02*
X105944900Y-139563800D01*
X105944900Y-139563800D02*
X106189700Y-139319000D01*
X70340300Y-139446000D02*
X70642500Y-139143800D01*
X70642500Y-139143800D02*
X78604700Y-139143800D01*
X78604700Y-139143800D02*
X79033900Y-139573000D01*
X79033900Y-139573000D02*
X88265000Y-139573000D01*
X69215000Y-139446000D02*
X70340300Y-139446000D01*
X121666000Y-158115000D02*
X120540700Y-158115000D01*
X92964000Y-157679300D02*
X103456300Y-157679300D01*
X103456300Y-157679300D02*
X104337200Y-158560200D01*
X104337200Y-158560200D02*
X120095500Y-158560200D01*
X120095500Y-158560200D02*
X120540700Y-158115000D01*
X92964000Y-157679300D02*
X92964000Y-157116700D01*
X92964000Y-158242000D02*
X92964000Y-157679300D01*
X48882300Y-145834000D02*
X50007600Y-145834000D01*
X50007600Y-145834000D02*
X51579100Y-147405500D01*
X51579100Y-147405500D02*
X83252800Y-147405500D01*
X83252800Y-147405500D02*
X92964000Y-157116700D01*
X212090000Y-158369000D02*
X210964700Y-158369000D01*
X193040000Y-158242000D02*
X194165300Y-158242000D01*
X194165300Y-158242000D02*
X194230300Y-158177000D01*
X194230300Y-158177000D02*
X203841300Y-158177000D01*
X203841300Y-158177000D02*
X204212300Y-158548000D01*
X204212300Y-158548000D02*
X210785700Y-158548000D01*
X210785700Y-158548000D02*
X210964700Y-158369000D01*
X150241000Y-158496000D02*
X149115700Y-158496000D01*
X121666000Y-158115000D02*
X131968900Y-158115000D01*
X131968900Y-158115000D02*
X132410900Y-158557000D01*
X132410900Y-158557000D02*
X149054700Y-158557000D01*
X149054700Y-158557000D02*
X149115700Y-158496000D01*
X174244000Y-158369000D02*
X173118700Y-158369000D01*
X150241000Y-158496000D02*
X152081300Y-158496000D01*
X152081300Y-158496000D02*
X158359100Y-152218200D01*
X158359100Y-152218200D02*
X166967900Y-152218200D01*
X166967900Y-152218200D02*
X173118700Y-158369000D01*
X196520000Y-142799000D02*
X216611000Y-142799000D01*
X216611000Y-142799000D02*
X218745000Y-140665000D01*
X107873800Y-88823800D02*
X102260400Y-88823800D01*
X102260400Y-88823800D02*
X98755200Y-92329000D01*
X125476000Y-88773000D02*
X121361400Y-88773000D01*
X121361400Y-88773000D02*
X117780000Y-92354400D01*
X171882000Y-107899000D02*
X176250000Y-107899000D01*
X176250000Y-107899000D02*
X179705000Y-111354000D01*
X230505000Y-127000000D02*
X226060000Y-127000000D01*
X226060000Y-127000000D02*
X222555000Y-130505000D01*
X138684000Y-146177000D02*
X135382000Y-146177000D01*
X135382000Y-146177000D02*
X132055000Y-149504000D01*
X72694800Y-157124000D02*
X79756800Y-164186000D01*
X79756800Y-164186000D02*
X132482000Y-164186000D01*
X138482000Y-164186000D02*
X141770300Y-160897700D01*
X141770300Y-160897700D02*
X152265300Y-160897700D01*
X152265300Y-160897700D02*
X156039000Y-157124000D01*
X156039000Y-157124000D02*
X163170000Y-157124000D01*
X186995000Y-157124000D02*
X181494500Y-162624500D01*
X181494500Y-162624500D02*
X142043500Y-162624500D01*
X142043500Y-162624500D02*
X140482000Y-164186000D01*
X158420000Y-119024000D02*
X158420000Y-138023000D01*
X158420000Y-138023000D02*
X158394000Y-138049000D01*
X206045000Y-157099000D02*
X190263000Y-157099000D01*
X190263000Y-157099000D02*
X184287200Y-163074800D01*
X184287200Y-163074800D02*
X143593200Y-163074800D01*
X143593200Y-163074800D02*
X142482000Y-164186000D01*
X182245000Y-118974000D02*
X182245000Y-138049000D01*
X182245000Y-138049000D02*
X193866000Y-138049000D01*
X193866000Y-138049000D02*
X194778500Y-138961500D01*
X194778500Y-138961500D02*
X194778500Y-142683700D01*
X194778500Y-142683700D02*
X196213900Y-144119100D01*
X196213900Y-144119100D02*
X216290000Y-144119100D01*
X216290000Y-144119100D02*
X221259000Y-149088100D01*
X221259000Y-149088100D02*
X221259000Y-151201600D01*
X221259000Y-151201600D02*
X225069000Y-155011600D01*
X225069000Y-155011600D02*
X225069000Y-157124000D01*
X206019000Y-138049000D02*
X225019000Y-138049000D01*
X225019000Y-138049000D02*
X225095000Y-138125000D01*
M02*
