%TF.GenerationSoftware,KiCad,Pcbnew,5.1.5+dfsg1-2build2*%
%TF.CreationDate,2021-08-29T12:06:32+02:00*%
%TF.ProjectId,BFK9kv2-right,42464b39-6b76-4322-9d72-696768742e6b,rev?*%
%TF.SameCoordinates,Original*%
%TF.FileFunction,Legend,Top*%
%TF.FilePolarity,Positive*%
%FSLAX46Y46*%
G04 Gerber Fmt 4.6, Leading zero omitted, Abs format (unit mm)*
G04 Created by KiCad (PCBNEW 5.1.5+dfsg1-2build2) date 2021-08-29 12:06:32*
%MOMM*%
%LPD*%
G04 APERTURE LIST*
%ADD10C,0.120000*%
%ADD11C,0.150000*%
%ADD12C,5.702000*%
%ADD13C,1.792600*%
%ADD14C,2.302000*%
%ADD15C,1.852000*%
%ADD16C,4.102000*%
%ADD17O,1.452000X1.452000*%
%ADD18R,1.452000X1.452000*%
%ADD19O,1.702000X1.702000*%
%ADD20C,1.702000*%
%ADD21R,1.702000X1.702000*%
G04 APERTURE END LIST*
D10*
X185435000Y-85409800D02*
X185435000Y-71409800D01*
X185435000Y-85409800D02*
X171435000Y-85409800D01*
X171435000Y-85409800D02*
X171435000Y-71409800D01*
X171435000Y-71409800D02*
X185435000Y-71409800D01*
X183047000Y-104434400D02*
X183047000Y-90434400D01*
X183047000Y-104434400D02*
X169047000Y-104434400D01*
X169047000Y-104434400D02*
X169047000Y-90434400D01*
X169047000Y-90434400D02*
X183047000Y-90434400D01*
X228259000Y-161584000D02*
X228259000Y-147584000D01*
X228259000Y-161584000D02*
X214259000Y-161584000D01*
X214259000Y-161584000D02*
X214259000Y-147584000D01*
X214259000Y-147584000D02*
X228259000Y-147584000D01*
X166360000Y-161584000D02*
X166360000Y-147584000D01*
X166360000Y-161584000D02*
X152360000Y-161584000D01*
X152360000Y-161584000D02*
X152360000Y-147584000D01*
X152360000Y-147584000D02*
X166360000Y-147584000D01*
X137785000Y-161584000D02*
X137785000Y-147584000D01*
X137785000Y-161584000D02*
X123785000Y-161584000D01*
X123785000Y-161584000D02*
X123785000Y-147584000D01*
X123785000Y-147584000D02*
X137785000Y-147584000D01*
X109210000Y-161559000D02*
X109210000Y-147559000D01*
X109210000Y-161559000D02*
X95210000Y-161559000D01*
X95210000Y-161559000D02*
X95210000Y-147559000D01*
X95210000Y-147559000D02*
X109210000Y-147559000D01*
X75884800Y-161584000D02*
X75884800Y-147584000D01*
X75884800Y-161584000D02*
X61884800Y-161584000D01*
X61884800Y-161584000D02*
X61884800Y-147584000D01*
X61884800Y-147584000D02*
X75884800Y-147584000D01*
X209209000Y-142509000D02*
X209209000Y-128509000D01*
X209209000Y-142509000D02*
X195209000Y-142509000D01*
X195209000Y-142509000D02*
X195209000Y-128509000D01*
X195209000Y-128509000D02*
X209209000Y-128509000D01*
X228285000Y-142585000D02*
X228285000Y-128585000D01*
X228285000Y-142585000D02*
X214285000Y-142585000D01*
X214285000Y-142585000D02*
X214285000Y-128585000D01*
X214285000Y-128585000D02*
X228285000Y-128585000D01*
X218734000Y-123484000D02*
X218734000Y-109484000D01*
X218734000Y-123484000D02*
X204734000Y-123484000D01*
X204734000Y-123484000D02*
X204734000Y-109484000D01*
X204734000Y-109484000D02*
X218734000Y-109484000D01*
X185435000Y-142509000D02*
X185435000Y-128509000D01*
X185435000Y-142509000D02*
X171435000Y-142509000D01*
X171435000Y-142509000D02*
X171435000Y-128509000D01*
X171435000Y-128509000D02*
X185435000Y-128509000D01*
X185435000Y-123434000D02*
X185435000Y-109434000D01*
X185435000Y-123434000D02*
X171435000Y-123434000D01*
X171435000Y-123434000D02*
X171435000Y-109434000D01*
X171435000Y-109434000D02*
X185435000Y-109434000D01*
X209235000Y-161559000D02*
X209235000Y-147559000D01*
X209235000Y-161559000D02*
X195235000Y-161559000D01*
X195235000Y-161559000D02*
X195235000Y-147559000D01*
X195235000Y-147559000D02*
X209235000Y-147559000D01*
X161584000Y-142509000D02*
X161584000Y-128509000D01*
X161584000Y-142509000D02*
X147584000Y-142509000D01*
X147584000Y-142509000D02*
X147584000Y-128509000D01*
X147584000Y-128509000D02*
X161584000Y-128509000D01*
X161610000Y-123484000D02*
X161610000Y-109484000D01*
X161610000Y-123484000D02*
X147610000Y-123484000D01*
X147610000Y-123484000D02*
X147610000Y-109484000D01*
X147610000Y-109484000D02*
X161610000Y-109484000D01*
X161610000Y-104459800D02*
X161610000Y-90459800D01*
X161610000Y-104459800D02*
X147610000Y-104459800D01*
X147610000Y-104459800D02*
X147610000Y-90459800D01*
X147610000Y-90459800D02*
X161610000Y-90459800D01*
X190185000Y-161584000D02*
X190185000Y-147584000D01*
X190185000Y-161584000D02*
X176185000Y-161584000D01*
X176185000Y-161584000D02*
X176185000Y-147584000D01*
X176185000Y-147584000D02*
X190185000Y-147584000D01*
X142585000Y-142534000D02*
X142585000Y-128534000D01*
X142585000Y-142534000D02*
X128585000Y-142534000D01*
X128585000Y-142534000D02*
X128585000Y-128534000D01*
X128585000Y-128534000D02*
X142585000Y-128534000D01*
X142560000Y-123510000D02*
X142560000Y-109510000D01*
X142560000Y-123510000D02*
X128560000Y-123510000D01*
X128560000Y-123510000D02*
X128560000Y-109510000D01*
X128560000Y-109510000D02*
X142560000Y-109510000D01*
X142560000Y-104383600D02*
X142560000Y-90383600D01*
X142560000Y-104383600D02*
X128560000Y-104383600D01*
X128560000Y-104383600D02*
X128560000Y-90383600D01*
X128560000Y-90383600D02*
X142560000Y-90383600D01*
X123611000Y-142560000D02*
X123611000Y-128560000D01*
X123611000Y-142560000D02*
X109611000Y-142560000D01*
X109611000Y-142560000D02*
X109611000Y-128560000D01*
X109611000Y-128560000D02*
X123611000Y-128560000D01*
X123510000Y-123484000D02*
X123510000Y-109484000D01*
X123510000Y-123484000D02*
X109510000Y-123484000D01*
X109510000Y-123484000D02*
X109510000Y-109484000D01*
X109510000Y-109484000D02*
X123510000Y-109484000D01*
X123510000Y-104434400D02*
X123510000Y-90434400D01*
X123510000Y-104434400D02*
X109510000Y-104434400D01*
X109510000Y-104434400D02*
X109510000Y-90434400D01*
X109510000Y-90434400D02*
X123510000Y-90434400D01*
X104434400Y-142560000D02*
X104434400Y-128560000D01*
X104434400Y-142560000D02*
X90434400Y-142560000D01*
X90434400Y-142560000D02*
X90434400Y-128560000D01*
X90434400Y-128560000D02*
X104434400Y-128560000D01*
X104459800Y-123459000D02*
X104459800Y-109459000D01*
X104459800Y-123459000D02*
X90459800Y-123459000D01*
X90459800Y-123459000D02*
X90459800Y-109459000D01*
X90459800Y-109459000D02*
X104459800Y-109459000D01*
X104485200Y-104409000D02*
X104485200Y-90409000D01*
X104485200Y-104409000D02*
X90485200Y-104409000D01*
X90485200Y-104409000D02*
X90485200Y-90409000D01*
X90485200Y-90409000D02*
X104485200Y-90409000D01*
X85409800Y-142509000D02*
X85409800Y-128509000D01*
X85409800Y-142509000D02*
X71409800Y-142509000D01*
X71409800Y-142509000D02*
X71409800Y-128509000D01*
X71409800Y-128509000D02*
X85409800Y-128509000D01*
X85435200Y-123510000D02*
X85435200Y-109510000D01*
X85435200Y-123510000D02*
X71435200Y-123510000D01*
X71435200Y-123510000D02*
X71435200Y-109510000D01*
X71435200Y-109510000D02*
X85435200Y-109510000D01*
X85384400Y-104409000D02*
X85384400Y-90409000D01*
X85384400Y-104409000D02*
X71384400Y-104409000D01*
X71384400Y-104409000D02*
X71384400Y-90409000D01*
X71384400Y-90409000D02*
X85384400Y-90409000D01*
X66359800Y-142509000D02*
X66359800Y-128509000D01*
X66359800Y-142509000D02*
X52359800Y-142509000D01*
X52359800Y-142509000D02*
X52359800Y-128509000D01*
X52359800Y-128509000D02*
X66359800Y-128509000D01*
X66359800Y-123484000D02*
X66359800Y-109484000D01*
X66359800Y-123484000D02*
X52359800Y-123484000D01*
X52359800Y-123484000D02*
X52359800Y-109484000D01*
X52359800Y-109484000D02*
X66359800Y-109484000D01*
X66385200Y-104434400D02*
X66385200Y-90434400D01*
X66385200Y-104434400D02*
X52385200Y-104434400D01*
X52385200Y-104434400D02*
X52385200Y-90434400D01*
X52385200Y-90434400D02*
X66385200Y-90434400D01*
X161584000Y-66309000D02*
X161584000Y-52309000D01*
X161584000Y-66309000D02*
X147584000Y-66309000D01*
X147584000Y-66309000D02*
X147584000Y-52309000D01*
X147584000Y-52309000D02*
X161584000Y-52309000D01*
X123484000Y-85359000D02*
X123484000Y-71359000D01*
X123484000Y-85359000D02*
X109484000Y-85359000D01*
X109484000Y-85359000D02*
X109484000Y-71359000D01*
X109484000Y-71359000D02*
X123484000Y-71359000D01*
X218760000Y-66334400D02*
X218760000Y-52334400D01*
X218760000Y-66334400D02*
X204760000Y-66334400D01*
X204760000Y-66334400D02*
X204760000Y-52334400D01*
X204760000Y-52334400D02*
X218760000Y-52334400D01*
X223535000Y-94934800D02*
X223535000Y-80934800D01*
X223535000Y-94934800D02*
X209535000Y-94934800D01*
X209535000Y-94934800D02*
X209535000Y-80934800D01*
X209535000Y-80934800D02*
X223535000Y-80934800D01*
X185435000Y-66359800D02*
X185435000Y-52359800D01*
X185435000Y-66359800D02*
X171435000Y-66359800D01*
X171435000Y-66359800D02*
X171435000Y-52359800D01*
X171435000Y-52359800D02*
X185435000Y-52359800D01*
X161584000Y-85460600D02*
X161584000Y-71460600D01*
X161584000Y-85460600D02*
X147584000Y-85460600D01*
X147584000Y-85460600D02*
X147584000Y-71460600D01*
X147584000Y-71460600D02*
X161584000Y-71460600D01*
X142534000Y-85409800D02*
X142534000Y-71409800D01*
X142534000Y-85409800D02*
X128534000Y-85409800D01*
X128534000Y-85409800D02*
X128534000Y-71409800D01*
X128534000Y-71409800D02*
X142534000Y-71409800D01*
X142636000Y-66309000D02*
X142636000Y-52309000D01*
X142636000Y-66309000D02*
X128636000Y-66309000D01*
X128636000Y-66309000D02*
X128636000Y-52309000D01*
X128636000Y-52309000D02*
X142636000Y-52309000D01*
X123459000Y-66309000D02*
X123459000Y-52309000D01*
X123459000Y-66309000D02*
X109459000Y-66309000D01*
X109459000Y-66309000D02*
X109459000Y-52309000D01*
X109459000Y-52309000D02*
X123459000Y-52309000D01*
X104409000Y-85384400D02*
X104409000Y-71384400D01*
X104409000Y-85384400D02*
X90409000Y-85384400D01*
X90409000Y-85384400D02*
X90409000Y-71384400D01*
X90409000Y-71384400D02*
X104409000Y-71384400D01*
X104409000Y-66309000D02*
X104409000Y-52309000D01*
X104409000Y-66309000D02*
X90409000Y-66309000D01*
X90409000Y-66309000D02*
X90409000Y-52309000D01*
X90409000Y-52309000D02*
X104409000Y-52309000D01*
X85409800Y-85384400D02*
X85409800Y-71384400D01*
X85409800Y-85384400D02*
X71409800Y-85384400D01*
X71409800Y-85384400D02*
X71409800Y-71384400D01*
X71409800Y-71384400D02*
X85409800Y-71384400D01*
X85435200Y-66283600D02*
X85435200Y-52283600D01*
X85435200Y-66283600D02*
X71435200Y-66283600D01*
X71435200Y-66283600D02*
X71435200Y-52283600D01*
X71435200Y-52283600D02*
X85435200Y-52283600D01*
X66385200Y-85384400D02*
X66385200Y-71384400D01*
X66385200Y-85384400D02*
X52385200Y-85384400D01*
X52385200Y-85384400D02*
X52385200Y-71384400D01*
X52385200Y-71384400D02*
X66385200Y-71384400D01*
X66334400Y-66334400D02*
X66334400Y-52334400D01*
X66334400Y-66334400D02*
X52334400Y-66334400D01*
X52334400Y-66334400D02*
X52334400Y-52334400D01*
X52334400Y-52334400D02*
X66334400Y-52334400D01*
D11*
X87079576Y-84526180D02*
X87079576Y-83526180D01*
X87412909Y-84240466D01*
X87746242Y-83526180D01*
X87746242Y-84526180D01*
X88746242Y-84526180D02*
X88174814Y-84526180D01*
X88460528Y-84526180D02*
X88460528Y-83526180D01*
X88365290Y-83669038D01*
X88270052Y-83764276D01*
X88174814Y-83811895D01*
X87079576Y-122646380D02*
X87079576Y-121646380D01*
X87412909Y-122360666D01*
X87746242Y-121646380D01*
X87746242Y-122646380D01*
X88174814Y-121741619D02*
X88222433Y-121694000D01*
X88317671Y-121646380D01*
X88555766Y-121646380D01*
X88651004Y-121694000D01*
X88698623Y-121741619D01*
X88746242Y-121836857D01*
X88746242Y-121932095D01*
X88698623Y-122074952D01*
X88127195Y-122646380D01*
X88746242Y-122646380D01*
X190122476Y-122636380D02*
X190122476Y-121636380D01*
X190455809Y-122350666D01*
X190789142Y-121636380D01*
X190789142Y-122636380D01*
X191693904Y-121969714D02*
X191693904Y-122636380D01*
X191455809Y-121588761D02*
X191217714Y-122303047D01*
X191836761Y-122303047D01*
X190132476Y-84531280D02*
X190132476Y-83531280D01*
X190465809Y-84245566D01*
X190799142Y-83531280D01*
X190799142Y-84531280D01*
X191180095Y-83531280D02*
X191799142Y-83531280D01*
X191465809Y-83912233D01*
X191608666Y-83912233D01*
X191703904Y-83959852D01*
X191751523Y-84007471D01*
X191799142Y-84102709D01*
X191799142Y-84340804D01*
X191751523Y-84436042D01*
X191703904Y-84483661D01*
X191608666Y-84531280D01*
X191322952Y-84531280D01*
X191227714Y-84483661D01*
X191180095Y-84436042D01*
X176601666Y-87524680D02*
X176601666Y-86524680D01*
X177173095Y-87524680D02*
X176744523Y-86953252D01*
X177173095Y-86524680D02*
X176601666Y-87096109D01*
X177554047Y-86619919D02*
X177601666Y-86572300D01*
X177696904Y-86524680D01*
X177935000Y-86524680D01*
X178030238Y-86572300D01*
X178077857Y-86619919D01*
X178125476Y-86715157D01*
X178125476Y-86810395D01*
X178077857Y-86953252D01*
X177506428Y-87524680D01*
X178125476Y-87524680D01*
X178554047Y-87143728D02*
X179315952Y-87143728D01*
X179696904Y-86524680D02*
X180363571Y-86524680D01*
X179935000Y-87524680D01*
X174213666Y-106549280D02*
X174213666Y-105549280D01*
X174785095Y-106549280D02*
X174356523Y-105977852D01*
X174785095Y-105549280D02*
X174213666Y-106120709D01*
X175118428Y-105549280D02*
X175737476Y-105549280D01*
X175404142Y-105930233D01*
X175547000Y-105930233D01*
X175642238Y-105977852D01*
X175689857Y-106025471D01*
X175737476Y-106120709D01*
X175737476Y-106358804D01*
X175689857Y-106454042D01*
X175642238Y-106501661D01*
X175547000Y-106549280D01*
X175261285Y-106549280D01*
X175166047Y-106501661D01*
X175118428Y-106454042D01*
X176166047Y-106168328D02*
X176927952Y-106168328D01*
X177308904Y-105549280D02*
X177975571Y-105549280D01*
X177547000Y-106549280D01*
X219425666Y-163698880D02*
X219425666Y-162698880D01*
X219997095Y-163698880D02*
X219568523Y-163127452D01*
X219997095Y-162698880D02*
X219425666Y-163270309D01*
X220854238Y-162698880D02*
X220663761Y-162698880D01*
X220568523Y-162746500D01*
X220520904Y-162794119D01*
X220425666Y-162936976D01*
X220378047Y-163127452D01*
X220378047Y-163508404D01*
X220425666Y-163603642D01*
X220473285Y-163651261D01*
X220568523Y-163698880D01*
X220759000Y-163698880D01*
X220854238Y-163651261D01*
X220901857Y-163603642D01*
X220949476Y-163508404D01*
X220949476Y-163270309D01*
X220901857Y-163175071D01*
X220854238Y-163127452D01*
X220759000Y-163079833D01*
X220568523Y-163079833D01*
X220473285Y-163127452D01*
X220425666Y-163175071D01*
X220378047Y-163270309D01*
X221378047Y-163317928D02*
X222139952Y-163317928D01*
X222520904Y-162698880D02*
X223187571Y-162698880D01*
X222759000Y-163698880D01*
X157526666Y-163698880D02*
X157526666Y-162698880D01*
X158098095Y-163698880D02*
X157669523Y-163127452D01*
X158098095Y-162698880D02*
X157526666Y-163270309D01*
X158955238Y-162698880D02*
X158764761Y-162698880D01*
X158669523Y-162746500D01*
X158621904Y-162794119D01*
X158526666Y-162936976D01*
X158479047Y-163127452D01*
X158479047Y-163508404D01*
X158526666Y-163603642D01*
X158574285Y-163651261D01*
X158669523Y-163698880D01*
X158860000Y-163698880D01*
X158955238Y-163651261D01*
X159002857Y-163603642D01*
X159050476Y-163508404D01*
X159050476Y-163270309D01*
X159002857Y-163175071D01*
X158955238Y-163127452D01*
X158860000Y-163079833D01*
X158669523Y-163079833D01*
X158574285Y-163127452D01*
X158526666Y-163175071D01*
X158479047Y-163270309D01*
X159479047Y-163317928D02*
X160240952Y-163317928D01*
X161145714Y-163032214D02*
X161145714Y-163698880D01*
X160907619Y-162651261D02*
X160669523Y-163365547D01*
X161288571Y-163365547D01*
X128951666Y-163698880D02*
X128951666Y-162698880D01*
X129523095Y-163698880D02*
X129094523Y-163127452D01*
X129523095Y-162698880D02*
X128951666Y-163270309D01*
X130380238Y-162698880D02*
X130189761Y-162698880D01*
X130094523Y-162746500D01*
X130046904Y-162794119D01*
X129951666Y-162936976D01*
X129904047Y-163127452D01*
X129904047Y-163508404D01*
X129951666Y-163603642D01*
X129999285Y-163651261D01*
X130094523Y-163698880D01*
X130285000Y-163698880D01*
X130380238Y-163651261D01*
X130427857Y-163603642D01*
X130475476Y-163508404D01*
X130475476Y-163270309D01*
X130427857Y-163175071D01*
X130380238Y-163127452D01*
X130285000Y-163079833D01*
X130094523Y-163079833D01*
X129999285Y-163127452D01*
X129951666Y-163175071D01*
X129904047Y-163270309D01*
X130904047Y-163317928D02*
X131665952Y-163317928D01*
X132046904Y-162698880D02*
X132665952Y-162698880D01*
X132332619Y-163079833D01*
X132475476Y-163079833D01*
X132570714Y-163127452D01*
X132618333Y-163175071D01*
X132665952Y-163270309D01*
X132665952Y-163508404D01*
X132618333Y-163603642D01*
X132570714Y-163651261D01*
X132475476Y-163698880D01*
X132189761Y-163698880D01*
X132094523Y-163651261D01*
X132046904Y-163603642D01*
X100376666Y-163673880D02*
X100376666Y-162673880D01*
X100948095Y-163673880D02*
X100519523Y-163102452D01*
X100948095Y-162673880D02*
X100376666Y-163245309D01*
X101805238Y-162673880D02*
X101614761Y-162673880D01*
X101519523Y-162721500D01*
X101471904Y-162769119D01*
X101376666Y-162911976D01*
X101329047Y-163102452D01*
X101329047Y-163483404D01*
X101376666Y-163578642D01*
X101424285Y-163626261D01*
X101519523Y-163673880D01*
X101710000Y-163673880D01*
X101805238Y-163626261D01*
X101852857Y-163578642D01*
X101900476Y-163483404D01*
X101900476Y-163245309D01*
X101852857Y-163150071D01*
X101805238Y-163102452D01*
X101710000Y-163054833D01*
X101519523Y-163054833D01*
X101424285Y-163102452D01*
X101376666Y-163150071D01*
X101329047Y-163245309D01*
X102329047Y-163292928D02*
X103090952Y-163292928D01*
X103519523Y-162769119D02*
X103567142Y-162721500D01*
X103662380Y-162673880D01*
X103900476Y-162673880D01*
X103995714Y-162721500D01*
X104043333Y-162769119D01*
X104090952Y-162864357D01*
X104090952Y-162959595D01*
X104043333Y-163102452D01*
X103471904Y-163673880D01*
X104090952Y-163673880D01*
X67051466Y-163698880D02*
X67051466Y-162698880D01*
X67622895Y-163698880D02*
X67194323Y-163127452D01*
X67622895Y-162698880D02*
X67051466Y-163270309D01*
X68480038Y-162698880D02*
X68289561Y-162698880D01*
X68194323Y-162746500D01*
X68146704Y-162794119D01*
X68051466Y-162936976D01*
X68003847Y-163127452D01*
X68003847Y-163508404D01*
X68051466Y-163603642D01*
X68099085Y-163651261D01*
X68194323Y-163698880D01*
X68384800Y-163698880D01*
X68480038Y-163651261D01*
X68527657Y-163603642D01*
X68575276Y-163508404D01*
X68575276Y-163270309D01*
X68527657Y-163175071D01*
X68480038Y-163127452D01*
X68384800Y-163079833D01*
X68194323Y-163079833D01*
X68099085Y-163127452D01*
X68051466Y-163175071D01*
X68003847Y-163270309D01*
X69003847Y-163317928D02*
X69765752Y-163317928D01*
X70765752Y-163698880D02*
X70194323Y-163698880D01*
X70480038Y-163698880D02*
X70480038Y-162698880D01*
X70384800Y-162841738D01*
X70289561Y-162936976D01*
X70194323Y-162984595D01*
X200375666Y-144623880D02*
X200375666Y-143623880D01*
X200947095Y-144623880D02*
X200518523Y-144052452D01*
X200947095Y-143623880D02*
X200375666Y-144195309D01*
X201851857Y-143623880D02*
X201375666Y-143623880D01*
X201328047Y-144100071D01*
X201375666Y-144052452D01*
X201470904Y-144004833D01*
X201709000Y-144004833D01*
X201804238Y-144052452D01*
X201851857Y-144100071D01*
X201899476Y-144195309D01*
X201899476Y-144433404D01*
X201851857Y-144528642D01*
X201804238Y-144576261D01*
X201709000Y-144623880D01*
X201470904Y-144623880D01*
X201375666Y-144576261D01*
X201328047Y-144528642D01*
X202328047Y-144242928D02*
X203089952Y-144242928D01*
X203709000Y-144052452D02*
X203613761Y-144004833D01*
X203566142Y-143957214D01*
X203518523Y-143861976D01*
X203518523Y-143814357D01*
X203566142Y-143719119D01*
X203613761Y-143671500D01*
X203709000Y-143623880D01*
X203899476Y-143623880D01*
X203994714Y-143671500D01*
X204042333Y-143719119D01*
X204089952Y-143814357D01*
X204089952Y-143861976D01*
X204042333Y-143957214D01*
X203994714Y-144004833D01*
X203899476Y-144052452D01*
X203709000Y-144052452D01*
X203613761Y-144100071D01*
X203566142Y-144147690D01*
X203518523Y-144242928D01*
X203518523Y-144433404D01*
X203566142Y-144528642D01*
X203613761Y-144576261D01*
X203709000Y-144623880D01*
X203899476Y-144623880D01*
X203994714Y-144576261D01*
X204042333Y-144528642D01*
X204089952Y-144433404D01*
X204089952Y-144242928D01*
X204042333Y-144147690D01*
X203994714Y-144100071D01*
X203899476Y-144052452D01*
X219451666Y-144699880D02*
X219451666Y-143699880D01*
X220023095Y-144699880D02*
X219594523Y-144128452D01*
X220023095Y-143699880D02*
X219451666Y-144271309D01*
X220880238Y-144033214D02*
X220880238Y-144699880D01*
X220642142Y-143652261D02*
X220404047Y-144366547D01*
X221023095Y-144366547D01*
X221404047Y-144318928D02*
X222165952Y-144318928D01*
X222785000Y-144128452D02*
X222689761Y-144080833D01*
X222642142Y-144033214D01*
X222594523Y-143937976D01*
X222594523Y-143890357D01*
X222642142Y-143795119D01*
X222689761Y-143747500D01*
X222785000Y-143699880D01*
X222975476Y-143699880D01*
X223070714Y-143747500D01*
X223118333Y-143795119D01*
X223165952Y-143890357D01*
X223165952Y-143937976D01*
X223118333Y-144033214D01*
X223070714Y-144080833D01*
X222975476Y-144128452D01*
X222785000Y-144128452D01*
X222689761Y-144176071D01*
X222642142Y-144223690D01*
X222594523Y-144318928D01*
X222594523Y-144509404D01*
X222642142Y-144604642D01*
X222689761Y-144652261D01*
X222785000Y-144699880D01*
X222975476Y-144699880D01*
X223070714Y-144652261D01*
X223118333Y-144604642D01*
X223165952Y-144509404D01*
X223165952Y-144318928D01*
X223118333Y-144223690D01*
X223070714Y-144176071D01*
X222975476Y-144128452D01*
X209900666Y-125598880D02*
X209900666Y-124598880D01*
X210472095Y-125598880D02*
X210043523Y-125027452D01*
X210472095Y-124598880D02*
X209900666Y-125170309D01*
X210805428Y-124598880D02*
X211424476Y-124598880D01*
X211091142Y-124979833D01*
X211234000Y-124979833D01*
X211329238Y-125027452D01*
X211376857Y-125075071D01*
X211424476Y-125170309D01*
X211424476Y-125408404D01*
X211376857Y-125503642D01*
X211329238Y-125551261D01*
X211234000Y-125598880D01*
X210948285Y-125598880D01*
X210853047Y-125551261D01*
X210805428Y-125503642D01*
X211853047Y-125217928D02*
X212614952Y-125217928D01*
X213234000Y-125027452D02*
X213138761Y-124979833D01*
X213091142Y-124932214D01*
X213043523Y-124836976D01*
X213043523Y-124789357D01*
X213091142Y-124694119D01*
X213138761Y-124646500D01*
X213234000Y-124598880D01*
X213424476Y-124598880D01*
X213519714Y-124646500D01*
X213567333Y-124694119D01*
X213614952Y-124789357D01*
X213614952Y-124836976D01*
X213567333Y-124932214D01*
X213519714Y-124979833D01*
X213424476Y-125027452D01*
X213234000Y-125027452D01*
X213138761Y-125075071D01*
X213091142Y-125122690D01*
X213043523Y-125217928D01*
X213043523Y-125408404D01*
X213091142Y-125503642D01*
X213138761Y-125551261D01*
X213234000Y-125598880D01*
X213424476Y-125598880D01*
X213519714Y-125551261D01*
X213567333Y-125503642D01*
X213614952Y-125408404D01*
X213614952Y-125217928D01*
X213567333Y-125122690D01*
X213519714Y-125075071D01*
X213424476Y-125027452D01*
X176601666Y-144623880D02*
X176601666Y-143623880D01*
X177173095Y-144623880D02*
X176744523Y-144052452D01*
X177173095Y-143623880D02*
X176601666Y-144195309D01*
X178077857Y-143623880D02*
X177601666Y-143623880D01*
X177554047Y-144100071D01*
X177601666Y-144052452D01*
X177696904Y-144004833D01*
X177935000Y-144004833D01*
X178030238Y-144052452D01*
X178077857Y-144100071D01*
X178125476Y-144195309D01*
X178125476Y-144433404D01*
X178077857Y-144528642D01*
X178030238Y-144576261D01*
X177935000Y-144623880D01*
X177696904Y-144623880D01*
X177601666Y-144576261D01*
X177554047Y-144528642D01*
X178554047Y-144242928D02*
X179315952Y-144242928D01*
X179696904Y-143623880D02*
X180363571Y-143623880D01*
X179935000Y-144623880D01*
X176601666Y-125548880D02*
X176601666Y-124548880D01*
X177173095Y-125548880D02*
X176744523Y-124977452D01*
X177173095Y-124548880D02*
X176601666Y-125120309D01*
X178030238Y-124882214D02*
X178030238Y-125548880D01*
X177792142Y-124501261D02*
X177554047Y-125215547D01*
X178173095Y-125215547D01*
X178554047Y-125167928D02*
X179315952Y-125167928D01*
X179696904Y-124548880D02*
X180363571Y-124548880D01*
X179935000Y-125548880D01*
X200401666Y-163673880D02*
X200401666Y-162673880D01*
X200973095Y-163673880D02*
X200544523Y-163102452D01*
X200973095Y-162673880D02*
X200401666Y-163245309D01*
X201830238Y-162673880D02*
X201639761Y-162673880D01*
X201544523Y-162721500D01*
X201496904Y-162769119D01*
X201401666Y-162911976D01*
X201354047Y-163102452D01*
X201354047Y-163483404D01*
X201401666Y-163578642D01*
X201449285Y-163626261D01*
X201544523Y-163673880D01*
X201735000Y-163673880D01*
X201830238Y-163626261D01*
X201877857Y-163578642D01*
X201925476Y-163483404D01*
X201925476Y-163245309D01*
X201877857Y-163150071D01*
X201830238Y-163102452D01*
X201735000Y-163054833D01*
X201544523Y-163054833D01*
X201449285Y-163102452D01*
X201401666Y-163150071D01*
X201354047Y-163245309D01*
X202354047Y-163292928D02*
X203115952Y-163292928D01*
X204020714Y-162673880D02*
X203830238Y-162673880D01*
X203735000Y-162721500D01*
X203687380Y-162769119D01*
X203592142Y-162911976D01*
X203544523Y-163102452D01*
X203544523Y-163483404D01*
X203592142Y-163578642D01*
X203639761Y-163626261D01*
X203735000Y-163673880D01*
X203925476Y-163673880D01*
X204020714Y-163626261D01*
X204068333Y-163578642D01*
X204115952Y-163483404D01*
X204115952Y-163245309D01*
X204068333Y-163150071D01*
X204020714Y-163102452D01*
X203925476Y-163054833D01*
X203735000Y-163054833D01*
X203639761Y-163102452D01*
X203592142Y-163150071D01*
X203544523Y-163245309D01*
X152750666Y-144623880D02*
X152750666Y-143623880D01*
X153322095Y-144623880D02*
X152893523Y-144052452D01*
X153322095Y-143623880D02*
X152750666Y-144195309D01*
X154226857Y-143623880D02*
X153750666Y-143623880D01*
X153703047Y-144100071D01*
X153750666Y-144052452D01*
X153845904Y-144004833D01*
X154084000Y-144004833D01*
X154179238Y-144052452D01*
X154226857Y-144100071D01*
X154274476Y-144195309D01*
X154274476Y-144433404D01*
X154226857Y-144528642D01*
X154179238Y-144576261D01*
X154084000Y-144623880D01*
X153845904Y-144623880D01*
X153750666Y-144576261D01*
X153703047Y-144528642D01*
X154703047Y-144242928D02*
X155464952Y-144242928D01*
X156369714Y-143623880D02*
X156179238Y-143623880D01*
X156084000Y-143671500D01*
X156036380Y-143719119D01*
X155941142Y-143861976D01*
X155893523Y-144052452D01*
X155893523Y-144433404D01*
X155941142Y-144528642D01*
X155988761Y-144576261D01*
X156084000Y-144623880D01*
X156274476Y-144623880D01*
X156369714Y-144576261D01*
X156417333Y-144528642D01*
X156464952Y-144433404D01*
X156464952Y-144195309D01*
X156417333Y-144100071D01*
X156369714Y-144052452D01*
X156274476Y-144004833D01*
X156084000Y-144004833D01*
X155988761Y-144052452D01*
X155941142Y-144100071D01*
X155893523Y-144195309D01*
X152776666Y-125598880D02*
X152776666Y-124598880D01*
X153348095Y-125598880D02*
X152919523Y-125027452D01*
X153348095Y-124598880D02*
X152776666Y-125170309D01*
X154205238Y-124932214D02*
X154205238Y-125598880D01*
X153967142Y-124551261D02*
X153729047Y-125265547D01*
X154348095Y-125265547D01*
X154729047Y-125217928D02*
X155490952Y-125217928D01*
X156395714Y-124598880D02*
X156205238Y-124598880D01*
X156110000Y-124646500D01*
X156062380Y-124694119D01*
X155967142Y-124836976D01*
X155919523Y-125027452D01*
X155919523Y-125408404D01*
X155967142Y-125503642D01*
X156014761Y-125551261D01*
X156110000Y-125598880D01*
X156300476Y-125598880D01*
X156395714Y-125551261D01*
X156443333Y-125503642D01*
X156490952Y-125408404D01*
X156490952Y-125170309D01*
X156443333Y-125075071D01*
X156395714Y-125027452D01*
X156300476Y-124979833D01*
X156110000Y-124979833D01*
X156014761Y-125027452D01*
X155967142Y-125075071D01*
X155919523Y-125170309D01*
X152776666Y-106574680D02*
X152776666Y-105574680D01*
X153348095Y-106574680D02*
X152919523Y-106003252D01*
X153348095Y-105574680D02*
X152776666Y-106146109D01*
X153681428Y-105574680D02*
X154300476Y-105574680D01*
X153967142Y-105955633D01*
X154110000Y-105955633D01*
X154205238Y-106003252D01*
X154252857Y-106050871D01*
X154300476Y-106146109D01*
X154300476Y-106384204D01*
X154252857Y-106479442D01*
X154205238Y-106527061D01*
X154110000Y-106574680D01*
X153824285Y-106574680D01*
X153729047Y-106527061D01*
X153681428Y-106479442D01*
X154729047Y-106193728D02*
X155490952Y-106193728D01*
X156395714Y-105574680D02*
X156205238Y-105574680D01*
X156110000Y-105622300D01*
X156062380Y-105669919D01*
X155967142Y-105812776D01*
X155919523Y-106003252D01*
X155919523Y-106384204D01*
X155967142Y-106479442D01*
X156014761Y-106527061D01*
X156110000Y-106574680D01*
X156300476Y-106574680D01*
X156395714Y-106527061D01*
X156443333Y-106479442D01*
X156490952Y-106384204D01*
X156490952Y-106146109D01*
X156443333Y-106050871D01*
X156395714Y-106003252D01*
X156300476Y-105955633D01*
X156110000Y-105955633D01*
X156014761Y-106003252D01*
X155967142Y-106050871D01*
X155919523Y-106146109D01*
X181351666Y-163698880D02*
X181351666Y-162698880D01*
X181923095Y-163698880D02*
X181494523Y-163127452D01*
X181923095Y-162698880D02*
X181351666Y-163270309D01*
X182780238Y-162698880D02*
X182589761Y-162698880D01*
X182494523Y-162746500D01*
X182446904Y-162794119D01*
X182351666Y-162936976D01*
X182304047Y-163127452D01*
X182304047Y-163508404D01*
X182351666Y-163603642D01*
X182399285Y-163651261D01*
X182494523Y-163698880D01*
X182685000Y-163698880D01*
X182780238Y-163651261D01*
X182827857Y-163603642D01*
X182875476Y-163508404D01*
X182875476Y-163270309D01*
X182827857Y-163175071D01*
X182780238Y-163127452D01*
X182685000Y-163079833D01*
X182494523Y-163079833D01*
X182399285Y-163127452D01*
X182351666Y-163175071D01*
X182304047Y-163270309D01*
X183304047Y-163317928D02*
X184065952Y-163317928D01*
X185018333Y-162698880D02*
X184542142Y-162698880D01*
X184494523Y-163175071D01*
X184542142Y-163127452D01*
X184637380Y-163079833D01*
X184875476Y-163079833D01*
X184970714Y-163127452D01*
X185018333Y-163175071D01*
X185065952Y-163270309D01*
X185065952Y-163508404D01*
X185018333Y-163603642D01*
X184970714Y-163651261D01*
X184875476Y-163698880D01*
X184637380Y-163698880D01*
X184542142Y-163651261D01*
X184494523Y-163603642D01*
X133751666Y-144648880D02*
X133751666Y-143648880D01*
X134323095Y-144648880D02*
X133894523Y-144077452D01*
X134323095Y-143648880D02*
X133751666Y-144220309D01*
X135227857Y-143648880D02*
X134751666Y-143648880D01*
X134704047Y-144125071D01*
X134751666Y-144077452D01*
X134846904Y-144029833D01*
X135085000Y-144029833D01*
X135180238Y-144077452D01*
X135227857Y-144125071D01*
X135275476Y-144220309D01*
X135275476Y-144458404D01*
X135227857Y-144553642D01*
X135180238Y-144601261D01*
X135085000Y-144648880D01*
X134846904Y-144648880D01*
X134751666Y-144601261D01*
X134704047Y-144553642D01*
X135704047Y-144267928D02*
X136465952Y-144267928D01*
X137418333Y-143648880D02*
X136942142Y-143648880D01*
X136894523Y-144125071D01*
X136942142Y-144077452D01*
X137037380Y-144029833D01*
X137275476Y-144029833D01*
X137370714Y-144077452D01*
X137418333Y-144125071D01*
X137465952Y-144220309D01*
X137465952Y-144458404D01*
X137418333Y-144553642D01*
X137370714Y-144601261D01*
X137275476Y-144648880D01*
X137037380Y-144648880D01*
X136942142Y-144601261D01*
X136894523Y-144553642D01*
X133726666Y-125624880D02*
X133726666Y-124624880D01*
X134298095Y-125624880D02*
X133869523Y-125053452D01*
X134298095Y-124624880D02*
X133726666Y-125196309D01*
X135155238Y-124958214D02*
X135155238Y-125624880D01*
X134917142Y-124577261D02*
X134679047Y-125291547D01*
X135298095Y-125291547D01*
X135679047Y-125243928D02*
X136440952Y-125243928D01*
X137393333Y-124624880D02*
X136917142Y-124624880D01*
X136869523Y-125101071D01*
X136917142Y-125053452D01*
X137012380Y-125005833D01*
X137250476Y-125005833D01*
X137345714Y-125053452D01*
X137393333Y-125101071D01*
X137440952Y-125196309D01*
X137440952Y-125434404D01*
X137393333Y-125529642D01*
X137345714Y-125577261D01*
X137250476Y-125624880D01*
X137012380Y-125624880D01*
X136917142Y-125577261D01*
X136869523Y-125529642D01*
X133726666Y-106498480D02*
X133726666Y-105498480D01*
X134298095Y-106498480D02*
X133869523Y-105927052D01*
X134298095Y-105498480D02*
X133726666Y-106069909D01*
X134631428Y-105498480D02*
X135250476Y-105498480D01*
X134917142Y-105879433D01*
X135060000Y-105879433D01*
X135155238Y-105927052D01*
X135202857Y-105974671D01*
X135250476Y-106069909D01*
X135250476Y-106308004D01*
X135202857Y-106403242D01*
X135155238Y-106450861D01*
X135060000Y-106498480D01*
X134774285Y-106498480D01*
X134679047Y-106450861D01*
X134631428Y-106403242D01*
X135679047Y-106117528D02*
X136440952Y-106117528D01*
X137393333Y-105498480D02*
X136917142Y-105498480D01*
X136869523Y-105974671D01*
X136917142Y-105927052D01*
X137012380Y-105879433D01*
X137250476Y-105879433D01*
X137345714Y-105927052D01*
X137393333Y-105974671D01*
X137440952Y-106069909D01*
X137440952Y-106308004D01*
X137393333Y-106403242D01*
X137345714Y-106450861D01*
X137250476Y-106498480D01*
X137012380Y-106498480D01*
X136917142Y-106450861D01*
X136869523Y-106403242D01*
X114777666Y-144674880D02*
X114777666Y-143674880D01*
X115349095Y-144674880D02*
X114920523Y-144103452D01*
X115349095Y-143674880D02*
X114777666Y-144246309D01*
X116253857Y-143674880D02*
X115777666Y-143674880D01*
X115730047Y-144151071D01*
X115777666Y-144103452D01*
X115872904Y-144055833D01*
X116111000Y-144055833D01*
X116206238Y-144103452D01*
X116253857Y-144151071D01*
X116301476Y-144246309D01*
X116301476Y-144484404D01*
X116253857Y-144579642D01*
X116206238Y-144627261D01*
X116111000Y-144674880D01*
X115872904Y-144674880D01*
X115777666Y-144627261D01*
X115730047Y-144579642D01*
X116730047Y-144293928D02*
X117491952Y-144293928D01*
X118396714Y-144008214D02*
X118396714Y-144674880D01*
X118158619Y-143627261D02*
X117920523Y-144341547D01*
X118539571Y-144341547D01*
X114676666Y-125598880D02*
X114676666Y-124598880D01*
X115248095Y-125598880D02*
X114819523Y-125027452D01*
X115248095Y-124598880D02*
X114676666Y-125170309D01*
X116105238Y-124932214D02*
X116105238Y-125598880D01*
X115867142Y-124551261D02*
X115629047Y-125265547D01*
X116248095Y-125265547D01*
X116629047Y-125217928D02*
X117390952Y-125217928D01*
X118295714Y-124932214D02*
X118295714Y-125598880D01*
X118057619Y-124551261D02*
X117819523Y-125265547D01*
X118438571Y-125265547D01*
X114676666Y-106549280D02*
X114676666Y-105549280D01*
X115248095Y-106549280D02*
X114819523Y-105977852D01*
X115248095Y-105549280D02*
X114676666Y-106120709D01*
X115581428Y-105549280D02*
X116200476Y-105549280D01*
X115867142Y-105930233D01*
X116010000Y-105930233D01*
X116105238Y-105977852D01*
X116152857Y-106025471D01*
X116200476Y-106120709D01*
X116200476Y-106358804D01*
X116152857Y-106454042D01*
X116105238Y-106501661D01*
X116010000Y-106549280D01*
X115724285Y-106549280D01*
X115629047Y-106501661D01*
X115581428Y-106454042D01*
X116629047Y-106168328D02*
X117390952Y-106168328D01*
X118295714Y-105882614D02*
X118295714Y-106549280D01*
X118057619Y-105501661D02*
X117819523Y-106215947D01*
X118438571Y-106215947D01*
X95601066Y-144674880D02*
X95601066Y-143674880D01*
X96172495Y-144674880D02*
X95743923Y-144103452D01*
X96172495Y-143674880D02*
X95601066Y-144246309D01*
X97077257Y-143674880D02*
X96601066Y-143674880D01*
X96553447Y-144151071D01*
X96601066Y-144103452D01*
X96696304Y-144055833D01*
X96934400Y-144055833D01*
X97029638Y-144103452D01*
X97077257Y-144151071D01*
X97124876Y-144246309D01*
X97124876Y-144484404D01*
X97077257Y-144579642D01*
X97029638Y-144627261D01*
X96934400Y-144674880D01*
X96696304Y-144674880D01*
X96601066Y-144627261D01*
X96553447Y-144579642D01*
X97553447Y-144293928D02*
X98315352Y-144293928D01*
X98696304Y-143674880D02*
X99315352Y-143674880D01*
X98982019Y-144055833D01*
X99124876Y-144055833D01*
X99220114Y-144103452D01*
X99267733Y-144151071D01*
X99315352Y-144246309D01*
X99315352Y-144484404D01*
X99267733Y-144579642D01*
X99220114Y-144627261D01*
X99124876Y-144674880D01*
X98839161Y-144674880D01*
X98743923Y-144627261D01*
X98696304Y-144579642D01*
X95626466Y-125573880D02*
X95626466Y-124573880D01*
X96197895Y-125573880D02*
X95769323Y-125002452D01*
X96197895Y-124573880D02*
X95626466Y-125145309D01*
X97055038Y-124907214D02*
X97055038Y-125573880D01*
X96816942Y-124526261D02*
X96578847Y-125240547D01*
X97197895Y-125240547D01*
X97578847Y-125192928D02*
X98340752Y-125192928D01*
X98721704Y-124573880D02*
X99340752Y-124573880D01*
X99007419Y-124954833D01*
X99150276Y-124954833D01*
X99245514Y-125002452D01*
X99293133Y-125050071D01*
X99340752Y-125145309D01*
X99340752Y-125383404D01*
X99293133Y-125478642D01*
X99245514Y-125526261D01*
X99150276Y-125573880D01*
X98864561Y-125573880D01*
X98769323Y-125526261D01*
X98721704Y-125478642D01*
X95651866Y-106523880D02*
X95651866Y-105523880D01*
X96223295Y-106523880D02*
X95794723Y-105952452D01*
X96223295Y-105523880D02*
X95651866Y-106095309D01*
X96556628Y-105523880D02*
X97175676Y-105523880D01*
X96842342Y-105904833D01*
X96985200Y-105904833D01*
X97080438Y-105952452D01*
X97128057Y-106000071D01*
X97175676Y-106095309D01*
X97175676Y-106333404D01*
X97128057Y-106428642D01*
X97080438Y-106476261D01*
X96985200Y-106523880D01*
X96699485Y-106523880D01*
X96604247Y-106476261D01*
X96556628Y-106428642D01*
X97604247Y-106142928D02*
X98366152Y-106142928D01*
X98747104Y-105523880D02*
X99366152Y-105523880D01*
X99032819Y-105904833D01*
X99175676Y-105904833D01*
X99270914Y-105952452D01*
X99318533Y-106000071D01*
X99366152Y-106095309D01*
X99366152Y-106333404D01*
X99318533Y-106428642D01*
X99270914Y-106476261D01*
X99175676Y-106523880D01*
X98889961Y-106523880D01*
X98794723Y-106476261D01*
X98747104Y-106428642D01*
X76576466Y-144623880D02*
X76576466Y-143623880D01*
X77147895Y-144623880D02*
X76719323Y-144052452D01*
X77147895Y-143623880D02*
X76576466Y-144195309D01*
X78052657Y-143623880D02*
X77576466Y-143623880D01*
X77528847Y-144100071D01*
X77576466Y-144052452D01*
X77671704Y-144004833D01*
X77909800Y-144004833D01*
X78005038Y-144052452D01*
X78052657Y-144100071D01*
X78100276Y-144195309D01*
X78100276Y-144433404D01*
X78052657Y-144528642D01*
X78005038Y-144576261D01*
X77909800Y-144623880D01*
X77671704Y-144623880D01*
X77576466Y-144576261D01*
X77528847Y-144528642D01*
X78528847Y-144242928D02*
X79290752Y-144242928D01*
X79719323Y-143719119D02*
X79766942Y-143671500D01*
X79862180Y-143623880D01*
X80100276Y-143623880D01*
X80195514Y-143671500D01*
X80243133Y-143719119D01*
X80290752Y-143814357D01*
X80290752Y-143909595D01*
X80243133Y-144052452D01*
X79671704Y-144623880D01*
X80290752Y-144623880D01*
X76601866Y-125624880D02*
X76601866Y-124624880D01*
X77173295Y-125624880D02*
X76744723Y-125053452D01*
X77173295Y-124624880D02*
X76601866Y-125196309D01*
X78030438Y-124958214D02*
X78030438Y-125624880D01*
X77792342Y-124577261D02*
X77554247Y-125291547D01*
X78173295Y-125291547D01*
X78554247Y-125243928D02*
X79316152Y-125243928D01*
X79744723Y-124720119D02*
X79792342Y-124672500D01*
X79887580Y-124624880D01*
X80125676Y-124624880D01*
X80220914Y-124672500D01*
X80268533Y-124720119D01*
X80316152Y-124815357D01*
X80316152Y-124910595D01*
X80268533Y-125053452D01*
X79697104Y-125624880D01*
X80316152Y-125624880D01*
X76551066Y-106523880D02*
X76551066Y-105523880D01*
X77122495Y-106523880D02*
X76693923Y-105952452D01*
X77122495Y-105523880D02*
X76551066Y-106095309D01*
X77455828Y-105523880D02*
X78074876Y-105523880D01*
X77741542Y-105904833D01*
X77884400Y-105904833D01*
X77979638Y-105952452D01*
X78027257Y-106000071D01*
X78074876Y-106095309D01*
X78074876Y-106333404D01*
X78027257Y-106428642D01*
X77979638Y-106476261D01*
X77884400Y-106523880D01*
X77598685Y-106523880D01*
X77503447Y-106476261D01*
X77455828Y-106428642D01*
X78503447Y-106142928D02*
X79265352Y-106142928D01*
X79693923Y-105619119D02*
X79741542Y-105571500D01*
X79836780Y-105523880D01*
X80074876Y-105523880D01*
X80170114Y-105571500D01*
X80217733Y-105619119D01*
X80265352Y-105714357D01*
X80265352Y-105809595D01*
X80217733Y-105952452D01*
X79646304Y-106523880D01*
X80265352Y-106523880D01*
X57526466Y-144623880D02*
X57526466Y-143623880D01*
X58097895Y-144623880D02*
X57669323Y-144052452D01*
X58097895Y-143623880D02*
X57526466Y-144195309D01*
X59002657Y-143623880D02*
X58526466Y-143623880D01*
X58478847Y-144100071D01*
X58526466Y-144052452D01*
X58621704Y-144004833D01*
X58859800Y-144004833D01*
X58955038Y-144052452D01*
X59002657Y-144100071D01*
X59050276Y-144195309D01*
X59050276Y-144433404D01*
X59002657Y-144528642D01*
X58955038Y-144576261D01*
X58859800Y-144623880D01*
X58621704Y-144623880D01*
X58526466Y-144576261D01*
X58478847Y-144528642D01*
X59478847Y-144242928D02*
X60240752Y-144242928D01*
X61240752Y-144623880D02*
X60669323Y-144623880D01*
X60955038Y-144623880D02*
X60955038Y-143623880D01*
X60859800Y-143766738D01*
X60764561Y-143861976D01*
X60669323Y-143909595D01*
X57526466Y-125598880D02*
X57526466Y-124598880D01*
X58097895Y-125598880D02*
X57669323Y-125027452D01*
X58097895Y-124598880D02*
X57526466Y-125170309D01*
X58955038Y-124932214D02*
X58955038Y-125598880D01*
X58716942Y-124551261D02*
X58478847Y-125265547D01*
X59097895Y-125265547D01*
X59478847Y-125217928D02*
X60240752Y-125217928D01*
X61240752Y-125598880D02*
X60669323Y-125598880D01*
X60955038Y-125598880D02*
X60955038Y-124598880D01*
X60859800Y-124741738D01*
X60764561Y-124836976D01*
X60669323Y-124884595D01*
X57551866Y-106549280D02*
X57551866Y-105549280D01*
X58123295Y-106549280D02*
X57694723Y-105977852D01*
X58123295Y-105549280D02*
X57551866Y-106120709D01*
X58456628Y-105549280D02*
X59075676Y-105549280D01*
X58742342Y-105930233D01*
X58885200Y-105930233D01*
X58980438Y-105977852D01*
X59028057Y-106025471D01*
X59075676Y-106120709D01*
X59075676Y-106358804D01*
X59028057Y-106454042D01*
X58980438Y-106501661D01*
X58885200Y-106549280D01*
X58599485Y-106549280D01*
X58504247Y-106501661D01*
X58456628Y-106454042D01*
X59504247Y-106168328D02*
X60266152Y-106168328D01*
X61266152Y-106549280D02*
X60694723Y-106549280D01*
X60980438Y-106549280D02*
X60980438Y-105549280D01*
X60885200Y-105692138D01*
X60789961Y-105787376D01*
X60694723Y-105834995D01*
X152750666Y-68423880D02*
X152750666Y-67423880D01*
X153322095Y-68423880D02*
X152893523Y-67852452D01*
X153322095Y-67423880D02*
X152750666Y-67995309D01*
X154274476Y-68423880D02*
X153703047Y-68423880D01*
X153988761Y-68423880D02*
X153988761Y-67423880D01*
X153893523Y-67566738D01*
X153798285Y-67661976D01*
X153703047Y-67709595D01*
X154703047Y-68042928D02*
X155464952Y-68042928D01*
X156369714Y-67423880D02*
X156179238Y-67423880D01*
X156084000Y-67471500D01*
X156036380Y-67519119D01*
X155941142Y-67661976D01*
X155893523Y-67852452D01*
X155893523Y-68233404D01*
X155941142Y-68328642D01*
X155988761Y-68376261D01*
X156084000Y-68423880D01*
X156274476Y-68423880D01*
X156369714Y-68376261D01*
X156417333Y-68328642D01*
X156464952Y-68233404D01*
X156464952Y-67995309D01*
X156417333Y-67900071D01*
X156369714Y-67852452D01*
X156274476Y-67804833D01*
X156084000Y-67804833D01*
X155988761Y-67852452D01*
X155941142Y-67900071D01*
X155893523Y-67995309D01*
X114650666Y-87473880D02*
X114650666Y-86473880D01*
X115222095Y-87473880D02*
X114793523Y-86902452D01*
X115222095Y-86473880D02*
X114650666Y-87045309D01*
X115603047Y-86569119D02*
X115650666Y-86521500D01*
X115745904Y-86473880D01*
X115984000Y-86473880D01*
X116079238Y-86521500D01*
X116126857Y-86569119D01*
X116174476Y-86664357D01*
X116174476Y-86759595D01*
X116126857Y-86902452D01*
X115555428Y-87473880D01*
X116174476Y-87473880D01*
X116603047Y-87092928D02*
X117364952Y-87092928D01*
X118269714Y-86807214D02*
X118269714Y-87473880D01*
X118031619Y-86426261D02*
X117793523Y-87140547D01*
X118412571Y-87140547D01*
X209926666Y-68449280D02*
X209926666Y-67449280D01*
X210498095Y-68449280D02*
X210069523Y-67877852D01*
X210498095Y-67449280D02*
X209926666Y-68020709D01*
X211450476Y-68449280D02*
X210879047Y-68449280D01*
X211164761Y-68449280D02*
X211164761Y-67449280D01*
X211069523Y-67592138D01*
X210974285Y-67687376D01*
X210879047Y-67734995D01*
X211879047Y-68068328D02*
X212640952Y-68068328D01*
X213260000Y-67877852D02*
X213164761Y-67830233D01*
X213117142Y-67782614D01*
X213069523Y-67687376D01*
X213069523Y-67639757D01*
X213117142Y-67544519D01*
X213164761Y-67496900D01*
X213260000Y-67449280D01*
X213450476Y-67449280D01*
X213545714Y-67496900D01*
X213593333Y-67544519D01*
X213640952Y-67639757D01*
X213640952Y-67687376D01*
X213593333Y-67782614D01*
X213545714Y-67830233D01*
X213450476Y-67877852D01*
X213260000Y-67877852D01*
X213164761Y-67925471D01*
X213117142Y-67973090D01*
X213069523Y-68068328D01*
X213069523Y-68258804D01*
X213117142Y-68354042D01*
X213164761Y-68401661D01*
X213260000Y-68449280D01*
X213450476Y-68449280D01*
X213545714Y-68401661D01*
X213593333Y-68354042D01*
X213640952Y-68258804D01*
X213640952Y-68068328D01*
X213593333Y-67973090D01*
X213545714Y-67925471D01*
X213450476Y-67877852D01*
X216002146Y-94607640D02*
X216002146Y-93607640D01*
X216573575Y-94607640D02*
X216145003Y-94036212D01*
X216573575Y-93607640D02*
X216002146Y-94179069D01*
X216954527Y-93702879D02*
X217002146Y-93655260D01*
X217097384Y-93607640D01*
X217335480Y-93607640D01*
X217430718Y-93655260D01*
X217478337Y-93702879D01*
X217525956Y-93798117D01*
X217525956Y-93893355D01*
X217478337Y-94036212D01*
X216906908Y-94607640D01*
X217525956Y-94607640D01*
X217954527Y-94226688D02*
X218716432Y-94226688D01*
X219335480Y-94036212D02*
X219240241Y-93988593D01*
X219192622Y-93940974D01*
X219145003Y-93845736D01*
X219145003Y-93798117D01*
X219192622Y-93702879D01*
X219240241Y-93655260D01*
X219335480Y-93607640D01*
X219525956Y-93607640D01*
X219621194Y-93655260D01*
X219668813Y-93702879D01*
X219716432Y-93798117D01*
X219716432Y-93845736D01*
X219668813Y-93940974D01*
X219621194Y-93988593D01*
X219525956Y-94036212D01*
X219335480Y-94036212D01*
X219240241Y-94083831D01*
X219192622Y-94131450D01*
X219145003Y-94226688D01*
X219145003Y-94417164D01*
X219192622Y-94512402D01*
X219240241Y-94560021D01*
X219335480Y-94607640D01*
X219525956Y-94607640D01*
X219621194Y-94560021D01*
X219668813Y-94512402D01*
X219716432Y-94417164D01*
X219716432Y-94226688D01*
X219668813Y-94131450D01*
X219621194Y-94083831D01*
X219525956Y-94036212D01*
X176601666Y-68474680D02*
X176601666Y-67474680D01*
X177173095Y-68474680D02*
X176744523Y-67903252D01*
X177173095Y-67474680D02*
X176601666Y-68046109D01*
X178125476Y-68474680D02*
X177554047Y-68474680D01*
X177839761Y-68474680D02*
X177839761Y-67474680D01*
X177744523Y-67617538D01*
X177649285Y-67712776D01*
X177554047Y-67760395D01*
X178554047Y-68093728D02*
X179315952Y-68093728D01*
X179696904Y-67474680D02*
X180363571Y-67474680D01*
X179935000Y-68474680D01*
X152750666Y-87575480D02*
X152750666Y-86575480D01*
X153322095Y-87575480D02*
X152893523Y-87004052D01*
X153322095Y-86575480D02*
X152750666Y-87146909D01*
X153703047Y-86670719D02*
X153750666Y-86623100D01*
X153845904Y-86575480D01*
X154084000Y-86575480D01*
X154179238Y-86623100D01*
X154226857Y-86670719D01*
X154274476Y-86765957D01*
X154274476Y-86861195D01*
X154226857Y-87004052D01*
X153655428Y-87575480D01*
X154274476Y-87575480D01*
X154703047Y-87194528D02*
X155464952Y-87194528D01*
X156369714Y-86575480D02*
X156179238Y-86575480D01*
X156084000Y-86623100D01*
X156036380Y-86670719D01*
X155941142Y-86813576D01*
X155893523Y-87004052D01*
X155893523Y-87385004D01*
X155941142Y-87480242D01*
X155988761Y-87527861D01*
X156084000Y-87575480D01*
X156274476Y-87575480D01*
X156369714Y-87527861D01*
X156417333Y-87480242D01*
X156464952Y-87385004D01*
X156464952Y-87146909D01*
X156417333Y-87051671D01*
X156369714Y-87004052D01*
X156274476Y-86956433D01*
X156084000Y-86956433D01*
X155988761Y-87004052D01*
X155941142Y-87051671D01*
X155893523Y-87146909D01*
X133700666Y-87524680D02*
X133700666Y-86524680D01*
X134272095Y-87524680D02*
X133843523Y-86953252D01*
X134272095Y-86524680D02*
X133700666Y-87096109D01*
X134653047Y-86619919D02*
X134700666Y-86572300D01*
X134795904Y-86524680D01*
X135034000Y-86524680D01*
X135129238Y-86572300D01*
X135176857Y-86619919D01*
X135224476Y-86715157D01*
X135224476Y-86810395D01*
X135176857Y-86953252D01*
X134605428Y-87524680D01*
X135224476Y-87524680D01*
X135653047Y-87143728D02*
X136414952Y-87143728D01*
X137367333Y-86524680D02*
X136891142Y-86524680D01*
X136843523Y-87000871D01*
X136891142Y-86953252D01*
X136986380Y-86905633D01*
X137224476Y-86905633D01*
X137319714Y-86953252D01*
X137367333Y-87000871D01*
X137414952Y-87096109D01*
X137414952Y-87334204D01*
X137367333Y-87429442D01*
X137319714Y-87477061D01*
X137224476Y-87524680D01*
X136986380Y-87524680D01*
X136891142Y-87477061D01*
X136843523Y-87429442D01*
X133802666Y-68423880D02*
X133802666Y-67423880D01*
X134374095Y-68423880D02*
X133945523Y-67852452D01*
X134374095Y-67423880D02*
X133802666Y-67995309D01*
X135326476Y-68423880D02*
X134755047Y-68423880D01*
X135040761Y-68423880D02*
X135040761Y-67423880D01*
X134945523Y-67566738D01*
X134850285Y-67661976D01*
X134755047Y-67709595D01*
X135755047Y-68042928D02*
X136516952Y-68042928D01*
X137469333Y-67423880D02*
X136993142Y-67423880D01*
X136945523Y-67900071D01*
X136993142Y-67852452D01*
X137088380Y-67804833D01*
X137326476Y-67804833D01*
X137421714Y-67852452D01*
X137469333Y-67900071D01*
X137516952Y-67995309D01*
X137516952Y-68233404D01*
X137469333Y-68328642D01*
X137421714Y-68376261D01*
X137326476Y-68423880D01*
X137088380Y-68423880D01*
X136993142Y-68376261D01*
X136945523Y-68328642D01*
X114625666Y-68423880D02*
X114625666Y-67423880D01*
X115197095Y-68423880D02*
X114768523Y-67852452D01*
X115197095Y-67423880D02*
X114625666Y-67995309D01*
X116149476Y-68423880D02*
X115578047Y-68423880D01*
X115863761Y-68423880D02*
X115863761Y-67423880D01*
X115768523Y-67566738D01*
X115673285Y-67661976D01*
X115578047Y-67709595D01*
X116578047Y-68042928D02*
X117339952Y-68042928D01*
X118244714Y-67757214D02*
X118244714Y-68423880D01*
X118006619Y-67376261D02*
X117768523Y-68090547D01*
X118387571Y-68090547D01*
X95575666Y-87499280D02*
X95575666Y-86499280D01*
X96147095Y-87499280D02*
X95718523Y-86927852D01*
X96147095Y-86499280D02*
X95575666Y-87070709D01*
X96528047Y-86594519D02*
X96575666Y-86546900D01*
X96670904Y-86499280D01*
X96909000Y-86499280D01*
X97004238Y-86546900D01*
X97051857Y-86594519D01*
X97099476Y-86689757D01*
X97099476Y-86784995D01*
X97051857Y-86927852D01*
X96480428Y-87499280D01*
X97099476Y-87499280D01*
X97528047Y-87118328D02*
X98289952Y-87118328D01*
X98670904Y-86499280D02*
X99289952Y-86499280D01*
X98956619Y-86880233D01*
X99099476Y-86880233D01*
X99194714Y-86927852D01*
X99242333Y-86975471D01*
X99289952Y-87070709D01*
X99289952Y-87308804D01*
X99242333Y-87404042D01*
X99194714Y-87451661D01*
X99099476Y-87499280D01*
X98813761Y-87499280D01*
X98718523Y-87451661D01*
X98670904Y-87404042D01*
X95575666Y-68423880D02*
X95575666Y-67423880D01*
X96147095Y-68423880D02*
X95718523Y-67852452D01*
X96147095Y-67423880D02*
X95575666Y-67995309D01*
X97099476Y-68423880D02*
X96528047Y-68423880D01*
X96813761Y-68423880D02*
X96813761Y-67423880D01*
X96718523Y-67566738D01*
X96623285Y-67661976D01*
X96528047Y-67709595D01*
X97528047Y-68042928D02*
X98289952Y-68042928D01*
X98670904Y-67423880D02*
X99289952Y-67423880D01*
X98956619Y-67804833D01*
X99099476Y-67804833D01*
X99194714Y-67852452D01*
X99242333Y-67900071D01*
X99289952Y-67995309D01*
X99289952Y-68233404D01*
X99242333Y-68328642D01*
X99194714Y-68376261D01*
X99099476Y-68423880D01*
X98813761Y-68423880D01*
X98718523Y-68376261D01*
X98670904Y-68328642D01*
X76576466Y-87499280D02*
X76576466Y-86499280D01*
X77147895Y-87499280D02*
X76719323Y-86927852D01*
X77147895Y-86499280D02*
X76576466Y-87070709D01*
X77528847Y-86594519D02*
X77576466Y-86546900D01*
X77671704Y-86499280D01*
X77909800Y-86499280D01*
X78005038Y-86546900D01*
X78052657Y-86594519D01*
X78100276Y-86689757D01*
X78100276Y-86784995D01*
X78052657Y-86927852D01*
X77481228Y-87499280D01*
X78100276Y-87499280D01*
X78528847Y-87118328D02*
X79290752Y-87118328D01*
X79719323Y-86594519D02*
X79766942Y-86546900D01*
X79862180Y-86499280D01*
X80100276Y-86499280D01*
X80195514Y-86546900D01*
X80243133Y-86594519D01*
X80290752Y-86689757D01*
X80290752Y-86784995D01*
X80243133Y-86927852D01*
X79671704Y-87499280D01*
X80290752Y-87499280D01*
X76601866Y-68398480D02*
X76601866Y-67398480D01*
X77173295Y-68398480D02*
X76744723Y-67827052D01*
X77173295Y-67398480D02*
X76601866Y-67969909D01*
X78125676Y-68398480D02*
X77554247Y-68398480D01*
X77839961Y-68398480D02*
X77839961Y-67398480D01*
X77744723Y-67541338D01*
X77649485Y-67636576D01*
X77554247Y-67684195D01*
X78554247Y-68017528D02*
X79316152Y-68017528D01*
X79744723Y-67493719D02*
X79792342Y-67446100D01*
X79887580Y-67398480D01*
X80125676Y-67398480D01*
X80220914Y-67446100D01*
X80268533Y-67493719D01*
X80316152Y-67588957D01*
X80316152Y-67684195D01*
X80268533Y-67827052D01*
X79697104Y-68398480D01*
X80316152Y-68398480D01*
X57551866Y-87499280D02*
X57551866Y-86499280D01*
X58123295Y-87499280D02*
X57694723Y-86927852D01*
X58123295Y-86499280D02*
X57551866Y-87070709D01*
X58504247Y-86594519D02*
X58551866Y-86546900D01*
X58647104Y-86499280D01*
X58885200Y-86499280D01*
X58980438Y-86546900D01*
X59028057Y-86594519D01*
X59075676Y-86689757D01*
X59075676Y-86784995D01*
X59028057Y-86927852D01*
X58456628Y-87499280D01*
X59075676Y-87499280D01*
X59504247Y-87118328D02*
X60266152Y-87118328D01*
X61266152Y-87499280D02*
X60694723Y-87499280D01*
X60980438Y-87499280D02*
X60980438Y-86499280D01*
X60885200Y-86642138D01*
X60789961Y-86737376D01*
X60694723Y-86784995D01*
X57501066Y-68449280D02*
X57501066Y-67449280D01*
X58072495Y-68449280D02*
X57643923Y-67877852D01*
X58072495Y-67449280D02*
X57501066Y-68020709D01*
X59024876Y-68449280D02*
X58453447Y-68449280D01*
X58739161Y-68449280D02*
X58739161Y-67449280D01*
X58643923Y-67592138D01*
X58548685Y-67687376D01*
X58453447Y-67734995D01*
X59453447Y-68068328D02*
X60215352Y-68068328D01*
X61215352Y-68449280D02*
X60643923Y-68449280D01*
X60929638Y-68449280D02*
X60929638Y-67449280D01*
X60834400Y-67592138D01*
X60739161Y-67687376D01*
X60643923Y-67734995D01*
%LPC*%
D12*
X87889100Y-87873800D03*
X87889100Y-125994000D03*
X190932000Y-125984000D03*
X190942000Y-87878900D03*
D13*
X177165000Y-73329800D03*
X179705000Y-73329800D03*
D14*
X175895000Y-83489800D03*
X182245000Y-80949800D03*
D15*
X173355000Y-78409800D03*
X183515000Y-78409800D03*
D16*
X178435000Y-78409800D03*
D13*
X174777000Y-92354400D03*
X177317000Y-92354400D03*
D14*
X173507000Y-102514400D03*
X179857000Y-99974400D03*
D15*
X170967000Y-97434400D03*
X181127000Y-97434400D03*
D16*
X176047000Y-97434400D03*
D17*
X225243000Y-73052400D03*
X225243000Y-75052400D03*
X225243000Y-77052400D03*
D18*
X225243000Y-79052400D03*
D17*
X132482000Y-164186000D03*
X134482000Y-164186000D03*
X136482000Y-164186000D03*
X138482000Y-164186000D03*
X140482000Y-164186000D03*
X142482000Y-164186000D03*
X144482000Y-164186000D03*
D18*
X146482000Y-164186000D03*
D17*
X46431200Y-115270000D03*
X46431200Y-113270000D03*
X46431200Y-111270000D03*
X46431200Y-109270000D03*
X46431200Y-107270000D03*
X46431200Y-105270000D03*
X46431200Y-103270000D03*
D18*
X46431200Y-101270000D03*
D13*
X219989000Y-149504000D03*
X222529000Y-149504000D03*
D14*
X218719000Y-159664000D03*
X225069000Y-157124000D03*
D15*
X216179000Y-154584000D03*
X226339000Y-154584000D03*
D16*
X221259000Y-154584000D03*
D13*
X158090000Y-149504000D03*
X160630000Y-149504000D03*
D14*
X156820000Y-159664000D03*
X163170000Y-157124000D03*
D15*
X154280000Y-154584000D03*
X164440000Y-154584000D03*
D16*
X159360000Y-154584000D03*
D13*
X129515000Y-149504000D03*
X132055000Y-149504000D03*
D14*
X128245000Y-159664000D03*
X134595000Y-157124000D03*
D15*
X125705000Y-154584000D03*
X135865000Y-154584000D03*
D16*
X130785000Y-154584000D03*
D13*
X100940000Y-149479000D03*
X103480000Y-149479000D03*
D14*
X99670000Y-159639000D03*
X106020000Y-157099000D03*
D15*
X97130000Y-154559000D03*
X107290000Y-154559000D03*
D16*
X102210000Y-154559000D03*
D13*
X67614800Y-149504000D03*
X70154800Y-149504000D03*
D14*
X66344800Y-159664000D03*
X72694800Y-157124000D03*
D15*
X63804800Y-154584000D03*
X73964800Y-154584000D03*
D16*
X68884800Y-154584000D03*
D13*
X200939000Y-130429000D03*
X203479000Y-130429000D03*
D14*
X199669000Y-140589000D03*
X206019000Y-138049000D03*
D15*
X197129000Y-135509000D03*
X207289000Y-135509000D03*
D16*
X202209000Y-135509000D03*
D13*
X220015000Y-130505000D03*
X222555000Y-130505000D03*
D14*
X218745000Y-140665000D03*
X225095000Y-138125000D03*
D15*
X216205000Y-135585000D03*
X226365000Y-135585000D03*
D16*
X221285000Y-135585000D03*
D13*
X210464000Y-111404000D03*
X213004000Y-111404000D03*
D14*
X209194000Y-121564000D03*
X215544000Y-119024000D03*
D15*
X206654000Y-116484000D03*
X216814000Y-116484000D03*
D16*
X211734000Y-116484000D03*
D19*
X219304000Y-107950000D03*
D20*
X204064000Y-107950000D03*
D19*
X199398000Y-107996000D03*
D21*
X191778000Y-107996000D03*
D19*
X211480000Y-126949000D03*
D20*
X196240000Y-126949000D03*
D19*
X230505000Y-127000000D03*
D20*
X215265000Y-127000000D03*
D19*
X228981000Y-146050000D03*
D20*
X213741000Y-146050000D03*
D19*
X184429000Y-126949000D03*
D20*
X169189000Y-126949000D03*
D19*
X171882000Y-107899000D03*
D20*
X187122000Y-107899000D03*
D19*
X185166000Y-88900000D03*
D20*
X169926000Y-88900000D03*
D19*
X209550000Y-146050000D03*
D20*
X194310000Y-146050000D03*
D19*
X161290000Y-126873000D03*
D20*
X146050000Y-126873000D03*
D19*
X161900000Y-107925000D03*
D20*
X146660000Y-107925000D03*
D19*
X160909000Y-88773000D03*
D20*
X145669000Y-88773000D03*
D19*
X190881000Y-145923000D03*
D20*
X175641000Y-145923000D03*
D19*
X143180000Y-126924000D03*
D20*
X127940000Y-126924000D03*
D19*
X143129000Y-107950000D03*
D20*
X127889000Y-107950000D03*
D19*
X143383000Y-88773000D03*
D20*
X128143000Y-88773000D03*
D19*
X167259000Y-146050000D03*
D20*
X152019000Y-146050000D03*
D19*
X125324000Y-126924000D03*
D20*
X110084000Y-126924000D03*
D19*
X124079000Y-107950000D03*
D20*
X108839000Y-107950000D03*
D19*
X125476000Y-88773000D03*
D20*
X110236000Y-88773000D03*
D19*
X138684000Y-146177000D03*
D20*
X123444000Y-146177000D03*
D19*
X107696000Y-126898000D03*
D20*
X92456000Y-126898000D03*
D19*
X105156000Y-107950000D03*
D20*
X89916000Y-107950000D03*
D19*
X107873800Y-88823800D03*
D20*
X92633800Y-88823800D03*
D19*
X109982000Y-145923000D03*
D20*
X94742000Y-145923000D03*
D19*
X83058000Y-126949000D03*
D20*
X67818000Y-126949000D03*
D19*
X86106000Y-107874000D03*
D20*
X70866000Y-107874000D03*
D19*
X83058000Y-88900000D03*
D20*
X67818000Y-88900000D03*
D19*
X76454000Y-145923000D03*
D20*
X61214000Y-145923000D03*
D19*
X65379600Y-126924000D03*
D20*
X50139600Y-126924000D03*
D19*
X66852800Y-107925000D03*
D20*
X51612800Y-107925000D03*
D19*
X65278000Y-88823800D03*
D20*
X50038000Y-88823800D03*
D13*
X177165000Y-130429000D03*
X179705000Y-130429000D03*
D14*
X175895000Y-140589000D03*
X182245000Y-138049000D03*
D15*
X173355000Y-135509000D03*
X183515000Y-135509000D03*
D16*
X178435000Y-135509000D03*
D13*
X177165000Y-111354000D03*
X179705000Y-111354000D03*
D14*
X175895000Y-121514000D03*
X182245000Y-118974000D03*
D15*
X173355000Y-116434000D03*
X183515000Y-116434000D03*
D16*
X178435000Y-116434000D03*
D13*
X200965000Y-149479000D03*
X203505000Y-149479000D03*
D14*
X199695000Y-159639000D03*
X206045000Y-157099000D03*
D15*
X197155000Y-154559000D03*
X207315000Y-154559000D03*
D16*
X202235000Y-154559000D03*
D13*
X153314000Y-130429000D03*
X155854000Y-130429000D03*
D14*
X152044000Y-140589000D03*
X158394000Y-138049000D03*
D15*
X149504000Y-135509000D03*
X159664000Y-135509000D03*
D16*
X154584000Y-135509000D03*
D13*
X153340000Y-111404000D03*
X155880000Y-111404000D03*
D14*
X152070000Y-121564000D03*
X158420000Y-119024000D03*
D15*
X149530000Y-116484000D03*
X159690000Y-116484000D03*
D16*
X154610000Y-116484000D03*
D13*
X153340000Y-92379800D03*
X155880000Y-92379800D03*
D14*
X152070000Y-102539800D03*
X158420000Y-99999800D03*
D15*
X149530000Y-97459800D03*
X159690000Y-97459800D03*
D16*
X154610000Y-97459800D03*
D13*
X181915000Y-149504000D03*
X184455000Y-149504000D03*
D14*
X180645000Y-159664000D03*
X186995000Y-157124000D03*
D15*
X178105000Y-154584000D03*
X188265000Y-154584000D03*
D16*
X183185000Y-154584000D03*
D13*
X134315000Y-130454000D03*
X136855000Y-130454000D03*
D14*
X133045000Y-140614000D03*
X139395000Y-138074000D03*
D15*
X130505000Y-135534000D03*
X140665000Y-135534000D03*
D16*
X135585000Y-135534000D03*
D13*
X134290000Y-111430000D03*
X136830000Y-111430000D03*
D14*
X133020000Y-121590000D03*
X139370000Y-119050000D03*
D15*
X130480000Y-116510000D03*
X140640000Y-116510000D03*
D16*
X135560000Y-116510000D03*
D13*
X134290000Y-92303600D03*
X136830000Y-92303600D03*
D14*
X133020000Y-102463600D03*
X139370000Y-99923600D03*
D15*
X130480000Y-97383600D03*
X140640000Y-97383600D03*
D16*
X135560000Y-97383600D03*
D13*
X115341000Y-130480000D03*
X117881000Y-130480000D03*
D14*
X114071000Y-140640000D03*
X120421000Y-138100000D03*
D15*
X111531000Y-135560000D03*
X121691000Y-135560000D03*
D16*
X116611000Y-135560000D03*
D13*
X115240000Y-111404000D03*
X117780000Y-111404000D03*
D14*
X113970000Y-121564000D03*
X120320000Y-119024000D03*
D15*
X111430000Y-116484000D03*
X121590000Y-116484000D03*
D16*
X116510000Y-116484000D03*
D13*
X115240000Y-92354400D03*
X117780000Y-92354400D03*
D14*
X113970000Y-102514400D03*
X120320000Y-99974400D03*
D15*
X111430000Y-97434400D03*
X121590000Y-97434400D03*
D16*
X116510000Y-97434400D03*
D13*
X96164400Y-130480000D03*
X98704400Y-130480000D03*
D14*
X94894400Y-140640000D03*
X101244400Y-138100000D03*
D15*
X92354400Y-135560000D03*
X102514400Y-135560000D03*
D16*
X97434400Y-135560000D03*
D13*
X96189800Y-111379000D03*
X98729800Y-111379000D03*
D14*
X94919800Y-121539000D03*
X101269800Y-118999000D03*
D15*
X92379800Y-116459000D03*
X102539800Y-116459000D03*
D16*
X97459800Y-116459000D03*
D13*
X96215200Y-92329000D03*
X98755200Y-92329000D03*
D14*
X94945200Y-102489000D03*
X101295200Y-99949000D03*
D15*
X92405200Y-97409000D03*
X102565200Y-97409000D03*
D16*
X97485200Y-97409000D03*
D13*
X77139800Y-130429000D03*
X79679800Y-130429000D03*
D14*
X75869800Y-140589000D03*
X82219800Y-138049000D03*
D15*
X73329800Y-135509000D03*
X83489800Y-135509000D03*
D16*
X78409800Y-135509000D03*
D13*
X77165200Y-111430000D03*
X79705200Y-111430000D03*
D14*
X75895200Y-121590000D03*
X82245200Y-119050000D03*
D15*
X73355200Y-116510000D03*
X83515200Y-116510000D03*
D16*
X78435200Y-116510000D03*
D13*
X77114400Y-92329000D03*
X79654400Y-92329000D03*
D14*
X75844400Y-102489000D03*
X82194400Y-99949000D03*
D15*
X73304400Y-97409000D03*
X83464400Y-97409000D03*
D16*
X78384400Y-97409000D03*
D13*
X58089800Y-130429000D03*
X60629800Y-130429000D03*
D14*
X56819800Y-140589000D03*
X63169800Y-138049000D03*
D15*
X54279800Y-135509000D03*
X64439800Y-135509000D03*
D16*
X59359800Y-135509000D03*
D13*
X58089800Y-111404000D03*
X60629800Y-111404000D03*
D14*
X56819800Y-121564000D03*
X63169800Y-119024000D03*
D15*
X54279800Y-116484000D03*
X64439800Y-116484000D03*
D16*
X59359800Y-116484000D03*
D13*
X58115200Y-92354400D03*
X60655200Y-92354400D03*
D14*
X56845200Y-102514400D03*
X63195200Y-99974400D03*
D15*
X54305200Y-97434400D03*
X64465200Y-97434400D03*
D16*
X59385200Y-97434400D03*
D19*
X193040000Y-131699000D03*
D21*
X193040000Y-139319000D03*
D19*
X196520000Y-142799000D03*
D21*
X188900000Y-142799000D03*
D19*
X212090000Y-150749000D03*
D21*
X212090000Y-158369000D03*
D19*
X169291000Y-131699000D03*
D21*
X169291000Y-139319000D03*
D19*
X169291000Y-112522000D03*
D21*
X169291000Y-120142000D03*
D19*
X166878000Y-93472000D03*
D21*
X166878000Y-101092000D03*
D19*
X193040000Y-150622000D03*
D21*
X193040000Y-158242000D03*
D19*
X145415000Y-131699000D03*
D21*
X145415000Y-139319000D03*
D19*
X145415000Y-112649000D03*
D21*
X145415000Y-120269000D03*
D19*
X145415000Y-93472000D03*
D21*
X145415000Y-101092000D03*
D19*
X174244000Y-150749000D03*
D21*
X174244000Y-158369000D03*
D19*
X126365000Y-131699000D03*
D21*
X126365000Y-139319000D03*
D19*
X126365000Y-112649000D03*
D21*
X126365000Y-120269000D03*
D19*
X126492000Y-93726000D03*
D21*
X126492000Y-101346000D03*
D19*
X150241000Y-150876000D03*
D21*
X150241000Y-158496000D03*
D19*
X107315000Y-131699000D03*
D21*
X107315000Y-139319000D03*
D19*
X107315000Y-112649000D03*
D21*
X107315000Y-120269000D03*
D19*
X107315000Y-93599000D03*
D21*
X107315000Y-101219000D03*
D19*
X121666000Y-150495000D03*
D21*
X121666000Y-158115000D03*
D19*
X88265000Y-131953000D03*
D21*
X88265000Y-139573000D03*
D19*
X88265000Y-112649000D03*
D21*
X88265000Y-120269000D03*
D19*
X88265000Y-93472000D03*
D21*
X88265000Y-101092000D03*
D19*
X92964000Y-150622000D03*
D21*
X92964000Y-158242000D03*
D19*
X69215000Y-131826000D03*
D21*
X69215000Y-139446000D03*
D19*
X69342000Y-112649000D03*
D21*
X69342000Y-120269000D03*
D19*
X69342000Y-93726000D03*
D21*
X69342000Y-101346000D03*
D19*
X56502300Y-145834000D03*
D21*
X48882300Y-145834000D03*
D19*
X50165000Y-131826000D03*
D21*
X50165000Y-139446000D03*
D19*
X50165000Y-112903000D03*
D21*
X50165000Y-120523000D03*
D19*
X50165000Y-93345000D03*
D21*
X50165000Y-100965000D03*
D19*
X207518000Y-83566000D03*
D21*
X207518000Y-91186000D03*
D19*
X199527000Y-49672200D03*
D21*
X191907000Y-49672200D03*
D19*
X169164000Y-74168000D03*
D21*
X169164000Y-81788000D03*
D19*
X169164000Y-55118000D03*
D21*
X169164000Y-62738000D03*
D19*
X145542000Y-74168000D03*
D21*
X145542000Y-81788000D03*
D19*
X145542000Y-54864000D03*
D21*
X145542000Y-62484000D03*
D19*
X126492000Y-74422000D03*
D21*
X126492000Y-82042000D03*
D19*
X126238000Y-55118000D03*
D21*
X126238000Y-62738000D03*
D19*
X107442000Y-74422000D03*
D21*
X107442000Y-82042000D03*
D19*
X107442000Y-55118000D03*
D21*
X107442000Y-62738000D03*
D19*
X88392000Y-74676000D03*
D21*
X88392000Y-82296000D03*
D19*
X88392000Y-55118000D03*
D21*
X88392000Y-62738000D03*
D19*
X69342000Y-74676000D03*
D21*
X69342000Y-82296000D03*
D19*
X69342000Y-55118000D03*
D21*
X69342000Y-62738000D03*
D19*
X50292000Y-74676000D03*
D21*
X50292000Y-82296000D03*
D19*
X50292000Y-55118000D03*
D21*
X50292000Y-62738000D03*
D13*
X153314000Y-54229000D03*
X155854000Y-54229000D03*
D14*
X152044000Y-64389000D03*
X158394000Y-61849000D03*
D15*
X149504000Y-59309000D03*
X159664000Y-59309000D03*
D16*
X154584000Y-59309000D03*
D13*
X115214000Y-73279000D03*
X117754000Y-73279000D03*
D14*
X113944000Y-83439000D03*
X120294000Y-80899000D03*
D15*
X111404000Y-78359000D03*
X121564000Y-78359000D03*
D16*
X116484000Y-78359000D03*
D13*
X210490000Y-54254400D03*
X213030000Y-54254400D03*
D14*
X209220000Y-64414400D03*
X215570000Y-61874400D03*
D15*
X206680000Y-59334400D03*
X216840000Y-59334400D03*
D16*
X211760000Y-59334400D03*
D13*
X215265000Y-82854800D03*
X217805000Y-82854800D03*
D14*
X213995000Y-93014800D03*
X220345000Y-90474800D03*
D15*
X211455000Y-87934800D03*
X221615000Y-87934800D03*
D16*
X216535000Y-87934800D03*
D13*
X177165000Y-54279800D03*
X179705000Y-54279800D03*
D14*
X175895000Y-64439800D03*
X182245000Y-61899800D03*
D15*
X173355000Y-59359800D03*
X183515000Y-59359800D03*
D16*
X178435000Y-59359800D03*
D13*
X153314000Y-73380600D03*
X155854000Y-73380600D03*
D14*
X152044000Y-83540600D03*
X158394000Y-81000600D03*
D15*
X149504000Y-78460600D03*
X159664000Y-78460600D03*
D16*
X154584000Y-78460600D03*
D13*
X134264000Y-73329800D03*
X136804000Y-73329800D03*
D14*
X132994000Y-83489800D03*
X139344000Y-80949800D03*
D15*
X130454000Y-78409800D03*
X140614000Y-78409800D03*
D16*
X135534000Y-78409800D03*
D13*
X134366000Y-54229000D03*
X136906000Y-54229000D03*
D14*
X133096000Y-64389000D03*
X139446000Y-61849000D03*
D15*
X130556000Y-59309000D03*
X140716000Y-59309000D03*
D16*
X135636000Y-59309000D03*
D13*
X115189000Y-54229000D03*
X117729000Y-54229000D03*
D14*
X113919000Y-64389000D03*
X120269000Y-61849000D03*
D15*
X111379000Y-59309000D03*
X121539000Y-59309000D03*
D16*
X116459000Y-59309000D03*
D13*
X96139000Y-73304400D03*
X98679000Y-73304400D03*
D14*
X94869000Y-83464400D03*
X101219000Y-80924400D03*
D15*
X92329000Y-78384400D03*
X102489000Y-78384400D03*
D16*
X97409000Y-78384400D03*
D13*
X96139000Y-54229000D03*
X98679000Y-54229000D03*
D14*
X94869000Y-64389000D03*
X101219000Y-61849000D03*
D15*
X92329000Y-59309000D03*
X102489000Y-59309000D03*
D16*
X97409000Y-59309000D03*
D13*
X77139800Y-73304400D03*
X79679800Y-73304400D03*
D14*
X75869800Y-83464400D03*
X82219800Y-80924400D03*
D15*
X73329800Y-78384400D03*
X83489800Y-78384400D03*
D16*
X78409800Y-78384400D03*
D13*
X77165200Y-54203600D03*
X79705200Y-54203600D03*
D14*
X75895200Y-64363600D03*
X82245200Y-61823600D03*
D15*
X73355200Y-59283600D03*
X83515200Y-59283600D03*
D16*
X78435200Y-59283600D03*
D13*
X58115200Y-73304400D03*
X60655200Y-73304400D03*
D14*
X56845200Y-83464400D03*
X63195200Y-80924400D03*
D15*
X54305200Y-78384400D03*
X64465200Y-78384400D03*
D16*
X59385200Y-78384400D03*
D13*
X58064400Y-54254400D03*
X60604400Y-54254400D03*
D14*
X56794400Y-64414400D03*
X63144400Y-61874400D03*
D15*
X54254400Y-59334400D03*
X64414400Y-59334400D03*
D16*
X59334400Y-59334400D03*
D19*
X199814000Y-85049400D03*
D20*
X199814000Y-69809400D03*
D19*
X219354000Y-49936400D03*
D20*
X204114000Y-49936400D03*
D19*
X185852000Y-69011800D03*
D20*
X170612000Y-69011800D03*
D19*
X186080000Y-49936400D03*
D20*
X170840000Y-49936400D03*
D19*
X162154000Y-69164200D03*
D20*
X146914000Y-69164200D03*
D19*
X162306000Y-50800000D03*
D20*
X147066000Y-50800000D03*
D19*
X143358000Y-69011800D03*
D20*
X128118000Y-69011800D03*
D19*
X144018000Y-50800000D03*
D20*
X128778000Y-50800000D03*
D19*
X124257000Y-68961000D03*
D20*
X109017000Y-68961000D03*
D19*
X125222000Y-50800000D03*
D20*
X109982000Y-50800000D03*
D19*
X104546400Y-69062600D03*
D20*
X89306400Y-69062600D03*
D19*
X105664000Y-50800000D03*
D20*
X90424000Y-50800000D03*
D19*
X86309200Y-69062600D03*
D20*
X71069200Y-69062600D03*
D19*
X86614000Y-50698400D03*
D20*
X71374000Y-50698400D03*
D19*
X66929000Y-68834000D03*
D20*
X51689000Y-68834000D03*
D19*
X67056000Y-50800000D03*
D20*
X51816000Y-50800000D03*
M02*
