M48
; DRILL file {KiCad 5.1.5+dfsg1-2build2} date Sun 29 Aug 2021 12:07:06 PM CEST
; FORMAT={-:-/ absolute / metric / decimal}
; #@! TF.CreationDate,2021-08-29T12:07:06+02:00
; #@! TF.GenerationSoftware,Kicad,Pcbnew,5.1.5+dfsg1-2build2
FMAT,2
METRIC
T1C0.800
T2C0.991
T3C1.500
T4C3.200
T5C1.750
T6C4.000
%
G90
G05
T1
X88.392Y-55.118
X88.392Y-62.738
X70.866Y-107.874
X86.106Y-107.874
X145.542Y-54.864
X145.542Y-62.484
X128.118Y-69.012
X143.358Y-69.012
X51.613Y-107.925
X66.853Y-107.925
X88.265Y-112.649
X88.265Y-120.269
X69.342Y-112.649
X69.342Y-120.269
X213.741Y-146.05
X228.981Y-146.05
X126.365Y-112.649
X126.365Y-120.269
X145.415Y-112.649
X145.415Y-120.269
X50.14Y-126.924
X65.38Y-126.924
X88.265Y-93.472
X88.265Y-101.092
X123.444Y-146.177
X138.684Y-146.177
X171.882Y-107.899
X187.122Y-107.899
X191.907Y-49.672
X199.527Y-49.672
X146.05Y-126.873
X161.29Y-126.873
X212.09Y-150.749
X212.09Y-158.369
X109.982Y-50.8
X125.222Y-50.8
X51.689Y-68.834
X66.929Y-68.834
X108.839Y-107.95
X124.079Y-107.95
X170.612Y-69.012
X185.852Y-69.012
X145.415Y-131.699
X145.415Y-139.319
X196.24Y-126.949
X211.48Y-126.949
X126.365Y-131.699
X126.365Y-139.319
X89.916Y-107.95
X105.156Y-107.95
X169.926Y-88.9
X185.166Y-88.9
X50.165Y-93.345
X50.165Y-100.965
X94.742Y-145.923
X109.982Y-145.923
X50.292Y-55.118
X50.292Y-62.738
X215.265Y-127.0
X230.505Y-127.0
X145.542Y-74.168
X145.542Y-81.788
X121.666Y-150.495
X121.666Y-158.115
X107.315Y-112.649
X107.315Y-120.269
X145.669Y-88.773
X160.909Y-88.773
X69.215Y-131.826
X69.215Y-139.446
X90.424Y-50.8
X105.664Y-50.8
X191.778Y-107.996
X199.398Y-107.996
X107.442Y-74.422
X107.442Y-82.042
X146.914Y-69.164
X162.154Y-69.164
X88.392Y-74.676
X88.392Y-82.296
X88.265Y-131.953
X88.265Y-139.573
X110.084Y-126.924
X125.324Y-126.924
X193.04Y-150.622
X193.04Y-158.242
X128.778Y-50.8
X144.018Y-50.8
X169.291Y-131.699
X169.291Y-139.319
X169.164Y-55.118
X169.164Y-62.738
X50.165Y-131.826
X50.165Y-139.446
X175.641Y-145.923
X190.881Y-145.923
X89.306Y-69.063
X104.546Y-69.063
X51.816Y-50.8
X67.056Y-50.8
X169.291Y-112.522
X169.291Y-120.142
X61.214Y-145.923
X76.454Y-145.923
X174.244Y-150.749
X174.244Y-158.369
X207.518Y-83.566
X207.518Y-91.186
X92.456Y-126.898
X107.696Y-126.898
X50.165Y-112.903
X50.165Y-120.523
X127.889Y-107.95
X143.129Y-107.95
X170.84Y-49.936
X186.08Y-49.936
X50.292Y-74.676
X50.292Y-82.296
X110.236Y-88.773
X125.476Y-88.773
X127.94Y-126.924
X143.18Y-126.924
X166.878Y-93.472
X166.878Y-101.092
X107.315Y-131.699
X107.315Y-139.319
X69.342Y-74.676
X69.342Y-82.296
X126.492Y-74.422
X126.492Y-82.042
X225.243Y-73.052
X225.243Y-75.052
X225.243Y-77.052
X225.243Y-79.052
X107.315Y-93.599
X107.315Y-101.219
X107.442Y-55.118
X107.442Y-62.738
X126.492Y-93.726
X126.492Y-101.346
X145.415Y-93.472
X145.415Y-101.092
X147.066Y-50.8
X162.306Y-50.8
X50.038Y-88.824
X65.278Y-88.824
X132.482Y-164.186
X134.482Y-164.186
X136.482Y-164.186
X138.482Y-164.186
X140.482Y-164.186
X142.482Y-164.186
X144.482Y-164.186
X146.482Y-164.186
X71.374Y-50.698
X86.614Y-50.698
X126.238Y-55.118
X126.238Y-62.738
X92.964Y-150.622
X92.964Y-158.242
X71.069Y-69.063
X86.309Y-69.063
X169.189Y-126.949
X184.429Y-126.949
X69.342Y-55.118
X69.342Y-62.738
X128.143Y-88.773
X143.383Y-88.773
X169.164Y-74.168
X169.164Y-81.788
X48.882Y-145.834
X56.502Y-145.834
X152.019Y-146.05
X167.259Y-146.05
X46.431Y-101.27
X46.431Y-103.27
X46.431Y-105.27
X46.431Y-107.27
X46.431Y-109.27
X46.431Y-111.27
X46.431Y-113.27
X46.431Y-115.27
X109.017Y-68.961
X124.257Y-68.961
X67.818Y-88.9
X83.058Y-88.9
X69.342Y-93.726
X69.342Y-101.346
X204.064Y-107.95
X219.304Y-107.95
X92.634Y-88.824
X107.874Y-88.824
X188.9Y-142.799
X196.52Y-142.799
X204.114Y-49.936
X219.354Y-49.936
X194.31Y-146.05
X209.55Y-146.05
X146.66Y-107.925
X161.9Y-107.925
X193.04Y-131.699
X193.04Y-139.319
X150.241Y-150.876
X150.241Y-158.496
X67.818Y-126.949
X83.058Y-126.949
X199.814Y-69.809
X199.814Y-85.049
T2
X96.164Y-130.48
X98.704Y-130.48
X115.189Y-54.229
X117.729Y-54.229
X115.24Y-111.404
X117.78Y-111.404
X58.115Y-73.304
X60.655Y-73.304
X96.139Y-54.229
X98.679Y-54.229
X58.09Y-111.404
X60.63Y-111.404
X115.341Y-130.48
X117.881Y-130.48
X58.064Y-54.254
X60.604Y-54.254
X177.165Y-111.354
X179.705Y-111.354
X77.14Y-73.304
X79.68Y-73.304
X96.19Y-111.379
X98.73Y-111.379
X174.777Y-92.354
X177.317Y-92.354
X96.139Y-73.304
X98.679Y-73.304
X220.015Y-130.505
X222.555Y-130.505
X153.34Y-111.404
X155.88Y-111.404
X153.314Y-73.381
X155.854Y-73.381
X219.989Y-149.504
X222.529Y-149.504
X153.314Y-130.429
X155.854Y-130.429
X77.165Y-54.204
X79.705Y-54.204
X177.165Y-130.429
X179.705Y-130.429
X134.264Y-73.33
X136.804Y-73.33
X115.214Y-73.279
X117.754Y-73.279
X58.09Y-130.429
X60.63Y-130.429
X200.939Y-130.429
X203.479Y-130.429
X177.165Y-73.33
X179.705Y-73.33
X210.464Y-111.404
X213.004Y-111.404
X77.14Y-130.429
X79.68Y-130.429
X181.915Y-149.504
X184.455Y-149.504
X200.965Y-149.479
X203.505Y-149.479
X100.94Y-149.479
X103.48Y-149.479
X134.29Y-111.43
X136.83Y-111.43
X215.265Y-82.855
X217.805Y-82.855
X153.34Y-92.38
X155.88Y-92.38
X177.165Y-54.28
X179.705Y-54.28
X134.29Y-92.304
X136.83Y-92.304
X134.366Y-54.229
X136.906Y-54.229
X129.515Y-149.504
X132.055Y-149.504
X158.09Y-149.504
X160.63Y-149.504
X77.165Y-111.43
X79.705Y-111.43
X77.114Y-92.329
X79.654Y-92.329
X210.49Y-54.254
X213.03Y-54.254
X96.215Y-92.329
X98.755Y-92.329
X134.315Y-130.454
X136.855Y-130.454
X67.615Y-149.504
X70.155Y-149.504
X115.24Y-92.354
X117.78Y-92.354
X153.314Y-54.229
X155.854Y-54.229
X58.115Y-92.354
X60.655Y-92.354
T3
X113.97Y-102.514
X120.32Y-99.974
X152.044Y-64.389
X158.394Y-61.849
X56.845Y-102.514
X63.195Y-99.974
X94.894Y-140.64
X101.244Y-138.1
X113.919Y-64.389
X120.269Y-61.849
X113.97Y-121.564
X120.32Y-119.024
X56.845Y-83.464
X63.195Y-80.924
X94.869Y-64.389
X101.219Y-61.849
X56.82Y-121.564
X63.17Y-119.024
X114.071Y-140.64
X120.421Y-138.1
X56.794Y-64.414
X63.144Y-61.874
X175.895Y-121.514
X182.245Y-118.974
X75.87Y-83.464
X82.22Y-80.924
X94.92Y-121.539
X101.27Y-118.999
X173.507Y-102.514
X179.857Y-99.974
X94.869Y-83.464
X101.219Y-80.924
X218.745Y-140.665
X225.095Y-138.125
X152.07Y-121.564
X158.42Y-119.024
X152.044Y-83.541
X158.394Y-81.001
X218.719Y-159.664
X225.069Y-157.124
X152.044Y-140.589
X158.394Y-138.049
X75.895Y-64.364
X82.245Y-61.824
X175.895Y-140.589
X182.245Y-138.049
X132.994Y-83.49
X139.344Y-80.95
X113.944Y-83.439
X120.294Y-80.899
X56.82Y-140.589
X63.17Y-138.049
X199.669Y-140.589
X206.019Y-138.049
X175.895Y-83.49
X182.245Y-80.95
X209.194Y-121.564
X215.544Y-119.024
X75.87Y-140.589
X82.22Y-138.049
X180.645Y-159.664
X186.995Y-157.124
X199.695Y-159.639
X206.045Y-157.099
X99.67Y-159.639
X106.02Y-157.099
X133.02Y-121.59
X139.37Y-119.05
X213.995Y-93.015
X220.345Y-90.475
X152.07Y-102.54
X158.42Y-100.0
X175.895Y-64.44
X182.245Y-61.9
X133.02Y-102.464
X139.37Y-99.924
X133.096Y-64.389
X139.446Y-61.849
X128.245Y-159.664
X134.595Y-157.124
X156.82Y-159.664
X163.17Y-157.124
X75.895Y-121.59
X82.245Y-119.05
X75.844Y-102.489
X82.194Y-99.949
X209.22Y-64.414
X215.57Y-61.874
X94.945Y-102.489
X101.295Y-99.949
X133.045Y-140.614
X139.395Y-138.074
X66.345Y-159.664
X72.695Y-157.124
T4
X190.942Y-87.879
X190.932Y-125.984
X87.889Y-125.994
X87.889Y-87.874
T5
X73.355Y-116.51
X83.515Y-116.51
X73.304Y-97.409
X83.464Y-97.409
X206.68Y-59.334
X216.84Y-59.334
X92.405Y-97.409
X102.565Y-97.409
X130.505Y-135.534
X140.665Y-135.534
X63.805Y-154.584
X73.965Y-154.584
X111.43Y-97.434
X121.59Y-97.434
X149.504Y-59.309
X159.664Y-59.309
X54.305Y-97.434
X64.465Y-97.434
X92.354Y-135.56
X102.514Y-135.56
X111.379Y-59.309
X121.539Y-59.309
X111.43Y-116.484
X121.59Y-116.484
X54.305Y-78.384
X64.465Y-78.384
X92.329Y-59.309
X102.489Y-59.309
X54.28Y-116.484
X64.44Y-116.484
X111.531Y-135.56
X121.691Y-135.56
X54.254Y-59.334
X64.414Y-59.334
X173.355Y-116.434
X183.515Y-116.434
X73.33Y-78.384
X83.49Y-78.384
X92.38Y-116.459
X102.54Y-116.459
X170.967Y-97.434
X181.127Y-97.434
X92.329Y-78.384
X102.489Y-78.384
X216.205Y-135.585
X226.365Y-135.585
X149.53Y-116.484
X159.69Y-116.484
X149.504Y-78.461
X159.664Y-78.461
X216.179Y-154.584
X226.339Y-154.584
X149.504Y-135.509
X159.664Y-135.509
X73.355Y-59.284
X83.515Y-59.284
X173.355Y-135.509
X183.515Y-135.509
X130.454Y-78.41
X140.614Y-78.41
X111.404Y-78.359
X121.564Y-78.359
X54.28Y-135.509
X64.44Y-135.509
X197.129Y-135.509
X207.289Y-135.509
X173.355Y-78.41
X183.515Y-78.41
X206.654Y-116.484
X216.814Y-116.484
X73.33Y-135.509
X83.49Y-135.509
X178.105Y-154.584
X188.265Y-154.584
X197.155Y-154.559
X207.315Y-154.559
X97.13Y-154.559
X107.29Y-154.559
X130.48Y-116.51
X140.64Y-116.51
X211.455Y-87.935
X221.615Y-87.935
X149.53Y-97.46
X159.69Y-97.46
X173.355Y-59.36
X183.515Y-59.36
X130.48Y-97.384
X140.64Y-97.384
X130.556Y-59.309
X140.716Y-59.309
X125.705Y-154.584
X135.865Y-154.584
X154.28Y-154.584
X164.44Y-154.584
T6
X159.36Y-154.584
X78.435Y-116.51
X78.384Y-97.409
X211.76Y-59.334
X97.485Y-97.409
X135.585Y-135.534
X68.885Y-154.584
X116.51Y-97.434
X154.584Y-59.309
X59.385Y-97.434
X97.434Y-135.56
X116.459Y-59.309
X116.51Y-116.484
X59.385Y-78.384
X97.409Y-59.309
X59.36Y-116.484
X116.611Y-135.56
X59.334Y-59.334
X178.435Y-116.434
X78.41Y-78.384
X97.46Y-116.459
X176.047Y-97.434
X97.409Y-78.384
X221.285Y-135.585
X154.61Y-116.484
X154.584Y-78.461
X221.259Y-154.584
X154.584Y-135.509
X78.435Y-59.284
X178.435Y-135.509
X135.534Y-78.41
X116.484Y-78.359
X59.36Y-135.509
X202.209Y-135.509
X178.435Y-78.41
X211.734Y-116.484
X78.41Y-135.509
X183.185Y-154.584
X202.235Y-154.559
X102.21Y-154.559
X135.56Y-116.51
X216.535Y-87.935
X154.61Y-97.46
X178.435Y-59.36
X135.56Y-97.384
X135.636Y-59.309
X130.785Y-154.584
T0
M30
