%TF.GenerationSoftware,KiCad,Pcbnew,5.1.5+dfsg1-2build2*%
%TF.CreationDate,2021-08-29T12:06:32+02:00*%
%TF.ProjectId,BFK9kv2-right,42464b39-6b76-4322-9d72-696768742e6b,rev?*%
%TF.SameCoordinates,Original*%
%TF.FileFunction,Profile,NP*%
%FSLAX46Y46*%
G04 Gerber Fmt 4.6, Leading zero omitted, Abs format (unit mm)*
G04 Created by KiCad (PCBNEW 5.1.5+dfsg1-2build2) date 2021-08-29 12:06:32*
%MOMM*%
%LPD*%
G04 APERTURE LIST*
%ADD10C,0.200000*%
%ADD11C,0.120000*%
G04 APERTURE END LIST*
D10*
X198167400Y-123226100D02*
X198167400Y-124426200D01*
X221967400Y-123226100D02*
X221967400Y-124426200D01*
X196443400Y-114155800D02*
X195619400Y-114155800D01*
X220243400Y-123226100D02*
X221967400Y-123226100D01*
X203193400Y-118755700D02*
X203193400Y-110925400D01*
X227818400Y-57005600D02*
X226994400Y-57005600D01*
X220243400Y-61605600D02*
X220243400Y-66075600D01*
X196443400Y-57005600D02*
X195619400Y-57005600D01*
X220245940Y-110924340D02*
X220243400Y-123226100D01*
X221967400Y-124426200D02*
X225269400Y-124426200D01*
X196443400Y-123226100D02*
X198167400Y-123226100D01*
X227818400Y-59805600D02*
X227818400Y-57005600D01*
X53568301Y-149025600D02*
X53568301Y-152255700D01*
X60319301Y-149025600D02*
X53568301Y-149025600D01*
X195619400Y-116955799D02*
X196443400Y-116955799D01*
X60325000Y-152234900D02*
X60319301Y-149025600D01*
X60319301Y-156855599D02*
X60325000Y-152234900D01*
X58592701Y-162526199D02*
X58592701Y-161324599D01*
X52742901Y-152255700D02*
X52742901Y-155054500D01*
X196443400Y-110925400D02*
X196443400Y-114155800D01*
X226994400Y-123226100D02*
X226994400Y-116955799D01*
X220243400Y-53775600D02*
X220243400Y-57005600D01*
X53568301Y-155054500D02*
X53568301Y-161324599D01*
X203193400Y-110925400D02*
X196443400Y-110925400D01*
X55292301Y-161324599D02*
X55292301Y-162526199D01*
X77368400Y-152252680D02*
X77368401Y-156855599D01*
X58592701Y-161324599D02*
X60319301Y-161324599D01*
X55292301Y-162526199D02*
X58592701Y-162526199D01*
X60319301Y-161324599D02*
X60319301Y-156855599D01*
X79093801Y-161324599D02*
X79093801Y-162526199D01*
X53568301Y-161324599D02*
X55292301Y-161324599D01*
X52742901Y-155054500D02*
X53568301Y-155054500D01*
X53568301Y-152255700D02*
X52742901Y-152255700D01*
X79093801Y-162526199D02*
X82392601Y-162526199D01*
X227818400Y-116955799D02*
X227818400Y-114155800D01*
X84118101Y-149025600D02*
X77368401Y-149025600D01*
X201467400Y-66075600D02*
X203193400Y-66075600D01*
X203193400Y-123226100D02*
X203193400Y-118755700D01*
X84118101Y-161324599D02*
X84118101Y-155054500D01*
X201467400Y-67276600D02*
X201467400Y-66075600D01*
X203193400Y-53775600D02*
X196443400Y-53775600D01*
X84943601Y-155054500D02*
X84943601Y-152255700D01*
X82392601Y-162526199D02*
X82392601Y-161324599D01*
X77368401Y-161324599D02*
X79093801Y-161324599D01*
X82392601Y-161324599D02*
X84118101Y-161324599D01*
X77368401Y-149025600D02*
X77368401Y-152255700D01*
X84118101Y-155054500D02*
X84943601Y-155054500D01*
X209711400Y-79356100D02*
X222011400Y-79356100D01*
X84943601Y-152255700D02*
X84118101Y-152255700D01*
X84118101Y-152255700D02*
X84118101Y-149025600D01*
X77368401Y-156855599D02*
X77368401Y-161324599D01*
X209711400Y-77630601D02*
X209711400Y-79356100D01*
X195619400Y-59805600D02*
X196443400Y-59805600D01*
X196443400Y-53775600D02*
X196443400Y-57005600D01*
X208510400Y-74331600D02*
X208510400Y-77630601D01*
X208510400Y-77630601D02*
X209711400Y-77630601D01*
X203192380Y-61605160D02*
X203193910Y-57005600D01*
X198167400Y-66075600D02*
X198167400Y-67276600D01*
X226994400Y-53775600D02*
X220243400Y-53775600D01*
X226994400Y-59805600D02*
X227818400Y-59805600D01*
X215981400Y-71780600D02*
X215981400Y-72606601D01*
X220243400Y-57005600D02*
X220245940Y-61607700D01*
X203193400Y-66075600D02*
X203192380Y-61605160D01*
X226994400Y-110925400D02*
X220243400Y-110925400D01*
X215981400Y-72606601D02*
X209711400Y-72606601D01*
X226994400Y-116955799D02*
X227818400Y-116955799D01*
X220243400Y-66075600D02*
X221967400Y-66075600D01*
X208510400Y-101430800D02*
X209711400Y-101430800D01*
X218781400Y-96406500D02*
X209711400Y-96406500D01*
X215981400Y-103156201D02*
X215981400Y-103981701D01*
X201467400Y-123226100D02*
X203193400Y-123226100D01*
X218781400Y-72606601D02*
X218781400Y-71780600D01*
X215981400Y-103981701D02*
X218781400Y-103981701D01*
X226994400Y-114155800D02*
X226994400Y-110925400D01*
X196443400Y-59805600D02*
X196443400Y-66075600D01*
X209711400Y-103156201D02*
X215981400Y-103156201D01*
X222011400Y-96406500D02*
X218781400Y-96406500D01*
X196443400Y-116955799D02*
X196443400Y-123226100D01*
X209711400Y-101430800D02*
X209711400Y-103156201D01*
X227818400Y-114155800D02*
X226994400Y-114155800D01*
X209711400Y-72606601D02*
X209711400Y-74331600D01*
X208510400Y-98130500D02*
X208510400Y-101430800D01*
X222011400Y-103156201D02*
X222011400Y-96406500D01*
X196443400Y-66075600D02*
X198167400Y-66075600D01*
X201467400Y-124426200D02*
X201467400Y-123226100D01*
X209711400Y-96406500D02*
X209711400Y-98130500D01*
X225269400Y-123226100D02*
X226994400Y-123226100D01*
X225269400Y-124426200D02*
X225269400Y-123226100D01*
X198167400Y-67276600D02*
X201467400Y-67276600D01*
X222011400Y-79356100D02*
X222011400Y-72606601D01*
X221967400Y-67276600D02*
X225269400Y-67276600D01*
X225269400Y-67276600D02*
X225269400Y-66075600D01*
X209711400Y-98130500D02*
X208510400Y-98130500D01*
X225269400Y-66075600D02*
X226994400Y-66075600D01*
X226994400Y-66075600D02*
X226994400Y-59805600D01*
X226994400Y-57005600D02*
X226994400Y-53775600D01*
X218781400Y-71780600D02*
X215981400Y-71780600D01*
X218781400Y-103156201D02*
X222011400Y-103156201D01*
X195619400Y-57005600D02*
X195619400Y-59805600D01*
X221967400Y-66075600D02*
X221967400Y-67276600D01*
X198167400Y-124426200D02*
X201467400Y-124426200D01*
X222011400Y-72606601D02*
X218781400Y-72606601D01*
X203193400Y-57005600D02*
X203193400Y-53775600D01*
X218781400Y-103981701D02*
X218781400Y-103156201D01*
X209711400Y-74331600D02*
X208510400Y-74331600D01*
X195619400Y-114155800D02*
X195619400Y-116955799D01*
D11*
X232156000Y-127000000D02*
X232156000Y-47625000D01*
X232156000Y-127000000D02*
X232156000Y-165862000D01*
X232156000Y-47625000D02*
X43865800Y-47625000D01*
X43840400Y-165912800D02*
X43865800Y-47625000D01*
X232156000Y-165862000D02*
X43840400Y-165912800D01*
M02*
